<?xml version="1.0" encoding="utf-8"?>
<!-- Generator: Adobe Illustrator 16.0.0, SVG Export Plug-In . SVG Version: 6.00 Build 0)  -->
<!DOCTYPE svg PUBLIC "-//W3C//DTD SVG 1.1//EN" "http://www.w3.org/Graphics/SVG/1.1/DTD/svg11.dtd">
<svg version="1.1" id="Capa_1" xmlns="http://www.w3.org/2000/svg" xmlns:xlink="http://www.w3.org/1999/xlink" x="0px" y="0px"
	 width="32px" height="32px" viewBox="0 0 32 32" enable-background="new 0 0 32 32" xml:space="preserve">
<g>
	<g>
		<defs>
			<rect id="SVGID_1_" x="3.302" y="1" width="25.396" height="32"/>
		</defs>
		<clipPath id="SVGID_2_">
			<use xlink:href="#SVGID_1_"  overflow="visible"/>
		</clipPath>
		<g clip-path="url(#SVGID_2_)">
			<path fill-rule="evenodd" clip-rule="evenodd" d="M28.74,22.499c0.007-0.059,0.056-0.11,0.085-0.166c0-0.169,0-0.338,0-0.508
				c-0.261-0.666-0.769-0.845-1.452-0.843c-7.497,0.014-14.995,0.014-22.493,0c-0.682-0.001-1.193,0.173-1.451,0.843
				c0,0.17,0,0.339,0,0.508c0.167,1.1,0.348,2.196,0.497,3.298C4.168,27.42,4.396,29.21,4.627,31h22.997
				C27.984,28.165,28.364,25.332,28.74,22.499z M15.99,28.431c-0.803-0.008-1.489-0.702-1.481-1.502
				c0.008-0.806,0.696-1.459,1.526-1.448c0.827,0.011,1.487,0.679,1.478,1.494C17.503,27.773,16.807,28.438,15.99,28.431z"/>
			<path fill-rule="evenodd" clip-rule="evenodd" d="M16.381,1.127c0.991,0.249,1.822,0.75,2.477,1.542
				c0.086,0.104,0.231,0.205,0.359,0.218c1.646,0.173,2.727,1.756,3.012,3.333c0.246,1.362-0.008,2.6-0.877,3.747
				c0.55,0.187,0.898,0.566,0.717,1.128c-0.239,0.745-0.06,1.779-1.252,2.01c-0.05,1.065-0.677,1.844-1.453,2.514
				c0.468,1.079,1.362,1.572,2.373,1.878c1.229,0.371,2.479,0.673,3.713,1.034c0.925,0.271,1.747,0.722,2.359,1.604
				c-7.734,0-15.411,0-23.151,0c0.48-0.78,1.184-1.22,1.986-1.475c1.183-0.376,2.39-0.674,3.581-1.025
				c0.443-0.13,0.864-0.334,1.304-0.474c0.796-0.253,1.034-0.94,1.264-1.619c0.043-0.127-0.103-0.326-0.179-0.483
				c-0.27-0.561-0.535-1.124-0.828-1.671c-0.085-0.16-0.264-0.267-0.393-0.406c-0.247-0.266-0.622-0.501-0.707-0.814
				c-0.213-0.787-0.393-1.62,0.273-2.33c0.061-0.065,0.079-0.198,0.072-0.295c-0.061-0.883-0.102-1.77-0.209-2.647
				c-0.084-0.68-0.447-1.214-1.149-1.56c1.542-1.861,3.181-3.517,5.563-4.208C15.619,1.127,16,1.127,16.381,1.127z M20.279,10.97
				c0.042-0.525,0.075-0.935,0.107-1.345c0.116-1.445-0.007-2.808-1.339-3.726c-0.134-0.092-0.421-0.181-0.486-0.117
				c-0.932,0.906-2.143,0.902-3.307,1.08c-1.948,0.297-2.815,1.327-2.791,3.287c0.006,0.452-0.133,0.558-0.57,0.4
				c-0.671-0.241-0.735-0.177-0.747,0.566c-0.003,0.19,0.008,0.381,0.03,0.57c0.05,0.431,0.159,0.786,0.729,0.743
				c0.128-0.009,0.386,0.209,0.395,0.336c0.13,1.862,1.505,2.705,2.897,3.477c0.441,0.244,1.066,0.287,1.587,0.233
				c1.53-0.158,3.328-2.153,3.397-3.69c0.017-0.367,0.087-0.573,0.526-0.444c0.128,0.038,0.411-0.052,0.439-0.143
				c0.156-0.487,0.254-0.993,0.404-1.631C21.056,10.724,20.732,10.827,20.279,10.97z M13.308,15.732
				c-0.197,0.424-0.395,0.795-0.538,1.186c-0.055,0.148-0.043,0.378,0.037,0.512c0.793,1.32,1.991,1.969,3.513,1.976
				c1.465,0.008,2.586-0.653,3.333-1.916c0.076-0.129,0.097-0.376,0.022-0.491c-0.21-0.327-0.482-0.613-0.727-0.91
				C16.74,17.596,15.688,17.529,13.308,15.732z"/>
			<path fill-rule="evenodd" clip-rule="evenodd" fill="#FFFFFF" d="M3.926,25.631c-0.149-1.102-0.33-2.198-0.497-3.298
				c0,2.89,0,5.778,0,8.667h1.199C4.396,29.21,4.168,27.42,3.926,25.631z"/>
			<path fill-rule="evenodd" clip-rule="evenodd" fill="#FFFFFF" d="M28.825,22.333c-0.029,0.056-0.078,0.107-0.085,0.166
				c-0.376,2.833-0.756,5.666-1.116,8.501h1.201C28.825,28.111,28.825,25.223,28.825,22.333z"/>
		</g>
	</g>
</g>
</svg>
