<svg xmlns="http://www.w3.org/2000/svg" xml:space="preserve" width="40" height="40"><path fill="#7AC143" d="m7.146 20.133-.746-.747c-2.398-2.405-3.094-5.769-2.24-8.813A5.334 5.334 0 0 1 0 5.339C0 2.402 2.4 0 5.333 0a5.336 5.336 0 0 1 5.279 4.485 8.77 8.77 0 0 1 8.268 2.351l.32.32-3.945 3.953-.322-.32a3.279 3.279 0 0 0-4.639 0 3.289 3.289 0 0 0 0 4.646l8.854 8.864-3.948 3.95-4.16-4.165-3.894-3.951z"/><path fill="#F9A541" d="m11.573 15.753 8.853-8.864c2.346-2.351 5.759-3.098 8.746-2.243A5.343 5.343 0 0 1 34.453.054c2.932 0 5.334 2.402 5.334 5.339 0 2.724-2.029 4.968-4.643 5.288.855 2.99.107 6.354-2.238 8.706l-.32.32-3.84-3.953.32-.32a3.289 3.289 0 0 0 0-4.646 3.28 3.28 0 0 0-4.64 0l-8.853 8.864-4-3.899z"/><path fill="#F44321" d="M29.332 35.672c-3.039.91-6.453.215-8.853-2.186l-.32-.322 3.947-3.955.32.322a3.276 3.276 0 0 0 4.64 0 3.289 3.289 0 0 0 0-4.646l-8.853-8.864 3.947-3.953 8.906 8.918c2.24 2.245 3.039 5.448 2.346 8.385A5.352 5.352 0 0 1 40 34.663C40 37.596 37.6 40 34.666 40c-2.666-.052-4.853-1.92-5.334-4.328z"/><path fill="#5091CD" d="m27.787 24.568-8.854 8.862c-2.293 2.297-5.492 3.044-8.373 2.353a5.329 5.329 0 0 1-5.226 4.165C2.4 39.948 0 37.544 0 34.607c0-2.512 1.761-4.646 4.107-5.182-.746-2.989 0-6.192 2.293-8.491l.32-.32 3.947 3.954-.32.318a3.292 3.292 0 0 0 0 4.646 3.277 3.277 0 0 0 4.641 0l8.853-8.865 3.946 3.901z"/></svg>