<svg xmlns="http://www.w3.org/2000/svg" xml:space="preserve" width="40" height="45.72"><path fill="#00598E" d="M29.958 8.505c-2.334-1.453-4.537-2.026-6.738-3.479-1.366-.925-3.259-3.127-4.845-5.021-.309 3.039-1.233 4.272-2.291 5.153-2.246 1.762-3.655 2.29-5.593 3.347C8.862 9.342.01 14.627.01 25.99s9.557 19.731 20.171 19.731S40 38.013 40 26.342c0-11.671-8.632-16.956-10.042-17.837z"/><path fill="#FFF" d="M26.381 35.85c.705 0 1.453.044 1.982.396.528.353.836 1.145 1.013 1.585s0 .705-.353.881c-.308.176-.352.088-.66-.484-.309-.573-.573-1.145-2.114-1.145s-2.026.528-2.774 1.145c-.749.617-1.013.837-1.277.484-.264-.352-.176-.705.308-1.145s1.277-1.145 2.026-1.454c.748-.307 1.144-.263 1.849-.263zM19.07 40.871c.881.705 2.202 1.277 5.021 1.277s4.801-.793 5.682-1.454c.396-.308.572-.044.617.132.044.176.132.44-.176.749-.22.22-2.246 1.629-4.625 1.85s-5.593.353-7.531-1.409c-.308-.308-.22-.749 0-.925s.396-.309.661-.309.219.001.351.089z"/><path fill="#0073BA" d="M8.28 37.524c3.347-.044 3.964-.617 6.915-1.938 15.943-7.135 18.894-13.653 19.467-15.15.572-1.498 1.409-3.92.528-6.606-.17-.519-.294-.935-.383-1.27-2.119-2.369-4.222-3.662-4.857-4.059-2.291-1.453-4.537-2.026-6.739-3.479-1.366-.882-3.26-3.128-4.845-5.022-.309 3.039-1.189 4.316-2.291 5.153-2.246 1.762-3.655 2.29-5.593 3.347C8.853 9.381 0 14.622 0 25.985c0 3.628.975 6.951 2.646 9.793l.437-.016c.925.837 2.378 1.806 5.197 1.762z"/><path fill="#004975" d="M29.949 8.5c-2.291-1.453-4.537-2.026-6.739-3.479C21.845 4.14 19.951 1.894 18.366 0c-.309 3.039-1.189 4.316-2.291 5.153-2.246 1.762-3.655 2.29-5.593 3.347C8.853 9.381 0 14.622 0 25.985c0 3.628.975 6.951 2.646 9.793 3.565 6.06 10.3 9.938 17.525 9.938 10.614 0 19.819-7.708 19.819-19.378 0-6.41-2.604-10.893-5.184-13.778-2.118-2.37-4.222-3.663-4.857-4.06zm5.353 5.156c2.892 3.615 4.358 7.882 4.358 12.682 0 2.785-.53 5.416-1.576 7.819a17.999 17.999 0 0 1-4.248 6.005c-3.609 3.369-8.462 5.224-13.664 5.224-2.574 0-5.099-.492-7.506-1.461a20.142 20.142 0 0 1-6.333-4.053C2.463 36.214.331 31.282.331 25.986c0-4.718 1.532-8.91 4.551-12.459 2.307-2.712 4.795-4.215 5.758-4.735.467-.255.906-.479 1.33-.697 1.329-.682 2.584-1.326 4.311-2.68.92-.7 1.901-1.808 2.319-4.622 1.455 1.73 3.143 3.675 4.433 4.507 1.145.756 2.319 1.285 3.455 1.797 1.075.485 2.186.986 3.285 1.683l.042.026c3.212 2.006 4.924 4.146 5.487 4.85z"/><path fill="#93C5E4" d="M18.586.881c.616 1.806.528 2.73.528 3.127s-.22 1.454-.925 1.982c-.309.22-.396.396-.396.44 0 .176.396.308.396.705 0 .484-.22 1.454-2.555 3.788-2.334 2.334-5.681 4.404-8.28 5.682-2.599 1.277-3.832 1.189-4.184.572-.352-.617.132-1.982 1.762-3.788 1.63-1.806 6.783-4.404 6.783-4.404l6.43-4.492.352-1.718"/><path fill="#FFF" d="M18.586.837c-.396 2.907-1.277 3.788-2.467 4.712-1.981 1.498-3.919 2.422-4.36 2.643-1.145.572-5.285 2.863-7.443 6.166-.661 1.013 0 1.409.132 1.497.132.088 1.629.264 4.845-1.673 3.215-1.938 4.625-3.083 6.43-4.977.969-1.013 1.101-1.585 1.101-1.85 0-.308-.22-.44-.573-.528-.176-.044-.22-.132 0-.264s1.145-.573 1.365-.749 1.277-.881 1.321-2.026-.043-1.938-.351-2.951zM8.676 32.855c.044-3.436 3.259-6.65 7.311-6.694 5.153-.044 8.72 5.109 11.319 5.064 2.202-.044 6.43-4.36 8.5-4.36 2.202 0 2.819 2.29 2.819 3.655s-.44 3.832-1.498 5.373c-1.057 1.542-1.718 2.114-2.951 2.026-1.585-.132-4.757-5.065-6.783-5.153-2.554-.088-8.104 5.329-12.464 5.329-2.643 0-3.435-.396-4.316-.969-1.32-.923-1.981-2.333-1.937-4.271z"/><path fill="none" d="M35.189 13.829c.881 2.687.044 5.109-.528 6.606-.573 1.498-3.523 8.016-19.467 15.15-2.951 1.321-3.567 1.894-6.915 1.938-2.818.044-4.272-.925-5.197-1.762l-.437.016c3.565 6.06 10.3 9.938 17.525 9.938 10.614 0 19.819-7.708 19.819-19.378 0-6.41-2.604-10.893-5.184-13.778.091.335.215.752.384 1.27z"/></svg>