<svg xmlns="http://www.w3.org/2000/svg" xml:space="preserve" width="40.004" height="40"><path fill="#696F57" d="M20 39.575C9.206 39.575.424 30.794.424 20S9.206.424 20 .424 39.576 9.206 39.576 20 30.794 39.575 20 39.575z"/><path fill="#F0F5F0" d="M20 .849C30.577.849 39.151 9.423 39.151 20S30.577 39.151 20 39.151.849 30.577.849 20 9.423.849 20 .849M20 0C8.972 0 0 8.972 0 20s8.972 20 20 20 20-8.972 20-20S31.028 0 20 0z"/><path fill="#F0F5F0" d="M20 3.07c-9.311 0-16.858 7.548-16.858 16.858 0 9.311 7.547 16.859 16.858 16.859 1.603 0 3.152-.229 4.621-.646.213.494.652.953 1.565.731 1.44-.349 2.189-1.501 2.578-2.54 4.854-2.959 8.095-8.303 8.095-14.404C36.858 10.618 29.311 3.07 20 3.07zm9.27 26.45c-.531-4.394-4.119-7.369-8.078-7.923 2.056 2.054 5.645 5.126 5.437 8.834a3.386 3.386 0 0 1-.336 1.298 14.038 14.038 0 0 1-6.835 1.766c-7.792 0-14.109-6.317-14.109-14.109S11.666 5.278 19.458 5.278s14.109 6.317 14.109 14.108A14.07 14.07 0 0 1 29.27 29.52zM9.469 25.844c4.727 2.833 10.381.434 11.043-3.908-4.233-3.427-9.936-.52-11.043 3.908zm10.703-6.286c.683-6.573-2.182-9.598-8.155-9.514-1.164 6.382 2.777 9.109 8.155 9.514zm9.175-7.816c-5.188.363-8.539 2.561-7.815 8.835 5.712.163 8.468-2.631 7.815-8.835z"/></svg>