<svg xmlns="http://www.w3.org/2000/svg" xml:space="preserve" width="40" height="40">
  <linearGradient id="a" x1="20" x2="20" y1="31.045" y2=".985" gradientUnits="userSpaceOnUse">
    <stop offset="0" style="stop-color:#04b6f0"/>
    <stop offset="1" style="stop-color:#3ecaf0"/>
  </linearGradient>
  <circle cx="20" cy="20" r="19" fill="url(#a)"/>
  <path fill="#FFF" d="M35.108 15.537c-.01-1.6-2.14-2.326-7.653-2.326-12.935 0-16.217-.768-19.73-5.901 1.479 3.082 2.286 8.863 15.96 8.575 14.265-.305 5.562 5.11 3.03 11.228 4.566-5.661 8.379-9.394 8.393-11.552v-.024zM16.93 31.98c0 1.488-.881 2.712-1.953 2.713-1.083 0-1.958-1.217-1.958-2.713v-.002c0-1.49.883-2.717 1.956-2.717h.001c1.08 0 1.954 1.215 1.954 2.719zm8.909 0c0 1.488-.882 2.712-1.954 2.713-1.08 0-1.957-1.217-1.957-2.713v-.002c0-1.49.883-2.717 1.956-2.717h.001c1.079 0 1.954 1.215 1.954 2.719z"/>
</svg>