<svg xmlns="http://www.w3.org/2000/svg" xml:space="preserve" width="16" height="32" viewBox="8 0 16 32"><path fill="white" d="M18.133 12.141V9.6h-4.266v2.541l-.864 1.726h5.993zM12.8 14.933h6.399v11.733H12.8zM17.191 2.648 16.511.38a.535.535 0 0 0-1.022 0l-.681 2.268a22.283 22.283 0 0 0-.922 5.885h4.227a22.249 22.249 0 0 0-.922-5.885zM18.727 29.112c.016-.044.033-.087.045-.133l.311-1.246h-6.165l.311 1.246c.012.046.029.089.046.133a1.307 1.307 0 0 0-.474 1.002v.571A1.315 1.315 0 0 0 14.114 32h3.771c.725 0 1.314-.59 1.314-1.314v-.571a1.304 1.304 0 0 0-.472-1.003z"/></svg>