<?xml version="1.0" encoding="utf-8"?>
<!-- Generator: Adobe Illustrator 16.0.0, SVG Export Plug-In . SVG Version: 6.00 Build 0)  -->
<!DOCTYPE svg PUBLIC "-//W3C//DTD SVG 1.1//EN" "http://www.w3.org/Graphics/SVG/1.1/DTD/svg11.dtd">
<svg version="1.1" id="Capa_1" xmlns="http://www.w3.org/2000/svg" xmlns:xlink="http://www.w3.org/1999/xlink" x="0px" y="0px"
	 width="1075px" height="825px" viewBox="0 0 1075 825" enable-background="new 0 0 1075 825" xml:space="preserve">
<g transform="matrix(1.0, 0.0, 0.0, 1.0, -22.0, 0.0)">
	<g transform="matrix(1.0, 0.0, 0.0, 1.0, 22.0, 0.0)">
		<g id="shape0" transform="matrix(1.0, 0.0, 0.0, 1.0, -22.0, 0.0)">
			<path fill="#1A1A1A" d="M44,0v825h1075V0H44"/>
		</g>
	</g>
	<g transform="matrix(1.0, 0.0, 0.0, 1.0, 443.5, 332.75)">
		<g id="shape1" transform="matrix(1.0, 0.0, 0.0, 1.0, -443.5, -332.75)">
			<path fill="#D9D9D9" d="M928.75,684.5l-1,1l-23.5,23.5v0.25H887v66h17.25v3.5l24.25,24h48.25l8,19.5H1164V665.5H984.75l-8,19
				H928.75"/>
		</g>
	</g>
	<g transform="matrix(1.0, 0.0, 0.0, 1.0, 479.4, 290.0)">
		<g id="shape2" transform="matrix(1.0, 0.0, 0.0, 1.0, -479.4, -290.0)">
			<path fill="#D9D9D9" d="M1186.4,622.75h13.5V779.5h-13.5v39.25l6.25,6.25h383.75V580h-332.5l-3.5,3.5h-48l-6,6V622.75
				 M958.85,633.85l-0.05,0.05l0.7,7.95l25.149-2.2l-0.25-3l-0.75,0.051l-0.149-2l0.75-0.051l-0.25-3L958.85,633.85"/>
		</g>
	</g>
	<g transform="matrix(1.0, 0.0, 0.0, 1.0, 22.0, 0.0)">
		<g id="shape3" transform="matrix(1.0, 0.0, 0.0, 1.0, -22.0, 0.0)">
			<path fill="#D9D9D9" d="M549,590v234.75l570,0.25V560H784l-7.5,7.5H694L676.5,550h-80L584,562.5h-20l-15,15V590 M346.5,432.5H44
				V825l472.5-0.25V560l-10-10v-10l-20-20v-20l-10-10v-7.5l-30-30H424l-20-20H346.5 M44,0v375h377.5l10-10H454l42.5-42.5h30L554,295
				h22.5l20-20h25l15-15H734l5,5h52.5l7.5-7.5h32.5L844,270h275V0H44"/>
		</g>
	</g>
	<g transform="matrix(1.0, 0.0, 0.0, 1.0, 464.5, 338.5)">
		<g id="shape4" transform="matrix(1.0, 0.0, 0.0, 1.0, -464.5, -338.5)">
			<path fill="#929292" d="M1158,713v5h2.75v-2h7v-3H1158 M1174,720.75v10h3v-10H1174 M1174,710.75v7h3v-7H1174 M1177.5,677v7h3v-7
				H1177.5 M1148.35,748.699v-0.1l0.2-1.45l0.399-1.3l0.601-1.25l0.899-1.1l1.101-0.851l1.25-0.649l1.35-0.45l1.35-0.15l1.4,0.15
				l1.35,0.399l1.25,0.7l1.051,0.9l0.899,1.1l0.65,1.2l0.399,1.35l0.15,1.45L1162.5,750l-0.399,1.35l-0.65,1.2l-0.85,1.1l-1.101,0.9
				l-1.199,0.649l-1.4,0.45l-1.35,0.15l-1.4-0.15l-1.35-0.399l-1.25-0.65l-1.051-0.85l-0.899-1.101l-0.7-1.2l-0.4-1.35
				L1148.35,748.699 M1169,738.5v-3h-0.5l-2.199-1.65l-2.801-1.6l-2.85-1.25l-2.65-0.75l-2.3-0.4l-1.95-0.1V713h-3.25v19.75h3.25
				l2.7,0.2l2.75,0.75l2.9,1.1l2.7,1.6l2.449,2.101H1169 M1040.25,796.25h3v-9.5h-3V796.25 M1111,692.3l-0.05-0.05l-1.149,0.649
				l-0.851,1.051l-0.399,1.25l0.149,1.35l0.601,1.15l1,0.85l1.3,0.4l1.3-0.15l1.2-0.6l0.85-1.051l0.351-1.25l-0.101-1.3l-0.6-1.149
				l-1-0.851l-1.3-0.399L1111,692.3 M1158.75,679v3.25h10V679H1158.75 M985.25,717.75H1005V715h-19.75V717.75 M962.25,717.75H982
				V715h-19.75V717.75 M939.25,717.75h19.5V715h-19.5V717.75 M997,783.25l-6.5,6.25l6.5,6.75h0.5v-13H997 M981.5,780.75l6,6l6-6
				l-6-6L981.5,780.75 M981.25,798.25l6.25,6.25l6-6l-6.25-6.25L981.25,798.25 M978.5,783.75l-6,6l6,6l6-6L978.5,783.75 M972,770.75
				v0.5l6.5,6.5l6.5-6.5v-0.5H972 M963.75,798.25l6,6.25l6.25-6l-6.25-6.25L963.75,798.25 M946.25,798.25l6,6l6-6l-6-6
				L946.25,798.25 M963.75,780.75l6,6l6-6l-6-6L963.75,780.75 M954.5,770.75v0.5l6.5,6.5l6.5-6.5v-0.5H954.5 M946.25,780.5l6,6l6-6
				l-6-6L946.25,780.5 M937.5,789.5l6,6l6-6l-6-6L937.5,789.5 M937,770.75v0.5l6.5,6.5l6.5-6.5v-0.5H937 M935,774.75l-6,6l6,6l6-6
				L935,774.75"/>
		</g>
	</g>
	<g transform="matrix(1.0, 0.0, 0.0, 1.0, 461.25, 333.5)">
		<g id="shape5" transform="matrix(1.0, 0.0, 0.0, 1.0, -461.25, -333.5)">
			<path fill="#929292" d="M1084,793.75V801h3v-7.25H1084 M1084,781.75v9.75h3v-9.75H1084 M1116,813.5v2.75h8.75v-2.75H1116
				 M1110.25,807.5v2.75h7v-2.75H1110.25 M1104.5,813.5v2.75h7v-2.75H1104.5 M1099.25,807.5v2.75h6.75v-2.75H1099.25 M1091,813.5
				v2.75h9v-2.75H1091 M1082,807.5v2.75h9.75v-2.75H1082 M1073.25,813.5v2.75h9v-2.75H1073.25 M1063.25,807.5v5.5h3v-2.75h7.5v-2.75
				H1063.25 M1048.75,807.5v2.75h7.25V813h3v-5.5H1048.75 M1043,813.5v2.75h9v-2.75H1043 M1036.75,807.5v5.5h3v-2.75h4.25v-2.75
				H1036.75 M1021.75,805.5v3h7v6.75h-7v3.25h10v-13H1021.75 M1008,805.5v12.75h10v-3h-7v-6.75h7v-3H1008 M1003.75,798.75v3h19.5v-3
				H1003.75 M1012.75,697.25v2.5h8.25v-2.5H1012.75 M1025,697.25v2.5h8v-2.5H1025 M1028,677v17.5h5V677H1028 M1012.75,677v17.5h4.75
				V677H1012.75 M1004.75,688.25v19.25h3v-19.25H1004.75 M986,803h8.25v-7.5h-0.75l-7.5,6.75V803 M968.75,803H982v-1l-7-6.25
				l-6.25,6V803 M951.5,803h12.75v-0.5l-6.5-6.5l-6.25,6.25V803 M922.5,765.75v7.5l7-7v-0.5H922.5 M922.5,710v2.75h10.25V710H922.5
				 M941.5,693.5v5.25h2v-5.25H941.5 M944.5,689.75V692h11.25v-2.25H944.5 M959,689.75h11V692h-11V689.75 M959,700.75v2h12.5v-8.5
				H970v6.5H959 M944.5,700.75v2h11.25v-2H944.5 M1132.75,714v-0.25v-20h-3.25V714H1132.75 M1037,793.25v10h3v-10H1037
				 M1036.75,822.5h22.5v-3h-19.5v-2.75h-3V822.5 M1063.25,822.5H1083v-3h-19.75V822.5 M1091,822.5h16v-3h-16V822.5 M1131,810.25
				v-2.75h-9.5v2.75H1131 M1131.75,819.5v2.75H1181v-2.75H1131.75 M1111.5,822.5h19.5v-3h-19.5V822.5 M1181,789.25v-3h-11.25v3H1181
				 M1181,781.25v-20h-2.75v20H1181 M1181,756.75v-3h-11.25v3H1181 M1181,733.5v-3h-11.25v3H1181 M1181,725.75v-20h-3v20H1181
				 M1181,701v-3h-11.25v3H1181 M1007.75,667h-3v19h3V667 M1033,667h-20.25v7.25h4.75v0.5h3.5l0.4,0.6l0.6,0.45l1,0.2l1-0.2
				l0.601-0.5l0.399-0.55h3.25v-0.5h4.75V667 M1040.25,667h-3v19.5h3V667 M1085,667h-3v19.5h3V667 M1148,669.5h33V667h-33V669.5
				 M1132.75,667h-3.25v19.5h3.25V667 M1148,681.75v3h17.75v-3H1148 M1169.75,681.75v3H1181v-3H1169.75 M1066,673.75v3h7v6.75h-6.75
				v3h9.75v-12.75H1066 M1045.25,673.75v12.75h10.25v-3h-7v-6.75h7v-3H1045.25 M1154.5,774.5v4.75h10v-3h-7v-1.75H1154.5
				 M1154.5,766.75v5h3v-2h7v-3H1154.5 M1165.75,786.25h-15.25v-3h-3.25v6h18.5V786.25 M1171,761.25v20h3v-20H1171 M1165.75,698
				h-18.5v6h3.25v-3h15.25V698 M1154.75,715.75v4.75h9.75v-2.75h-7v-2H1154.75"/>
		</g>
	</g>
	<g transform="matrix(1.0, 0.0, 0.0, 1.0, 686.0, 420.25)">
		<g id="shape6" transform="matrix(1.0, 0.0, 0.0, 1.0, -686.0, -420.25)">
			<path fill="#929292" d="M1372,846.25V866h3.25v-16.5l1.851-0.15L1379,849l3.25-1l3-1.25l2.65-1.65l1.85-1.6h0.75v-3h-1.75
				l-2.35,2.05l-2.9,1.7l-2.449,1.05L1378,846l-2.75,0.25H1372"/>
		</g>
	</g>
	<g transform="matrix(1.0, 0.0, 0.0, 1.0, 525.25, 357.75)">
		<g id="shape7" transform="matrix(1.0, 0.0, 0.0, 1.0, -525.25, -357.75)">
			<path fill="#8D8D8D" d="M1127,717.5h0.5v-2h-0.5V717.5 M1122.25,717.5h0.5v-2h-0.5V717.5 M1109.75,717.5h-0.5v-2h0.5V717.5
				 M1114,717.5h0.5v-2h-0.5V717.5 M1089,729.75h11.75v0.5H1089V729.75 M1052.5,759.25v-0.5h-2v0.5H1052.5 M1052.5,763.5v0.5h-2
				v-0.5H1052.5 M1052.5,772v-0.5h-2v0.5H1052.5 M1052.5,776v0.5h-2V776H1052.5"/>
		</g>
	</g>
	<g transform="matrix(1.0, 0.0, 0.0, 1.0, 454.0, 345.0)">
		<g id="shape8" transform="matrix(1.0, 0.0, 0.0, 1.0, -454.0, -345.0)">
			<path fill="#8D8D8D" d="M987,814.5h-47.75l-24-23.75v-32.7h-0.5V791L939,815h48V814.5 M1123.75,834H995.5l-7.75-19h-0.5l8,19.5
				h128.5V834 M908.5,744H908v22.25h0.5V744 M941,709.75h18.25V706H941V709.75 M1018.25,705.75V690h-5v15.75H1018.25 M981.75,746.5
				v-8.25h11.75v-0.5h-12.25v8.75H981.75 M981.75,759.25v-8.5h-0.5v8.5H981.75 M993.5,771.75h-11.75v-8.5h-0.5v9h12.25V771.75
				 M1029.5,792.75h-11.75v0.5h11.75V792.75 M1081.25,781.25h0.5v10.25h-0.5V781.25 M1081,718v11.25h0.5V718H1081 M1038.5,705.25
				h-8.25V717h-0.5v-12.25h8.75V705.25 M1051.5,704.75h-8.75v0.5h8.75V704.75 M1076.75,717h0.5v-12.25h-8.5v0.5h8V717
				 M1068.75,704.75h0.5v-2h-0.5V704.75 M1064.25,704.75h-0.5v-2h0.5V704.75h-8.5v0.5h8.5V704.75"/>
		</g>
	</g>
	<g transform="matrix(1.0, 0.0, 0.0, 1.0, 460.75, 332.75)">
		<g id="shape9" transform="matrix(1.0, 0.0, 0.0, 1.0, -460.75, -332.75)">
			<path fill="#8D8D8D" d="M978.25,744.75V761h0.5v-16.25H978.25 M978.25,724.75v16h0.5v-16H978.25 M993.7,704.65h0.5v-12.1h-0.5
				V704.65 M922,739.8v-30.55L946.25,685h31.5v18.5H977v-10h-6V704h0.5v-10h5v10h1.75v-19h16l8-18.75l-0.25-0.75l-8,19h-48
				L921.5,709v30.8H922"/>
		</g>
	</g>
	<g transform="matrix(1.0, 0.0, 0.0, 1.0, 467.75, 391.75)">
		<g id="shape10" transform="matrix(1.0, 0.0, 0.0, 1.0, -467.75, -391.75)">
			<path fill="#8D8D8D" d="M935.5,803.75v16h0.5v-16H935.5 M935.5,783.5v16h0.5v-16H935.5"/>
		</g>
	</g>
	<g transform="matrix(1.0, 0.0, 0.0, 1.0, 454.5, 361.25)">
		<g id="shape11" transform="matrix(1.0, 0.0, 0.0, 1.0, -454.5, -361.25)">
			<path fill="#F0F0F0" d="M1018.25,805.25V809h7.5v-3.75H1018.25 M1081.75,807.75v-6H1078v6H1081.75 M1078,734.25V741h3.5v-6.75
				H1078 M1018.25,733.75h7.5v3.75h-7.5V733.75 M909,774.5v8h6.25v-8H909 M909,760.25V768h6.25v-7.75H909 M965.25,722.5v8.5h5v-8.5
				H965.25"/>
		</g>
	</g>
	<g transform="matrix(1.0, 0.0, 0.0, 1.0, 454.5, 348.75)">
		<g id="shape12" transform="matrix(1.0, 0.0, 0.0, 1.0, -454.5, -348.75)">
			<path fill="#F0F0F0" d="M943.5,700.5h2v-3h-2V700.5 M909,762v8h6.25v-8H909 M909,747.75v7.75h6.25v-7.75H909"/>
		</g>
	</g>
	<g transform="matrix(1.0, 0.0, 0.0, 1.0, 461.25, 361.25)">
		<g id="shape13" transform="matrix(1.0, 0.0, 0.0, 1.0, -461.25, -361.25)">
			<path fill="#8D8D8D" d="M1181,722.5v3.25h-11.25v0.75H1181v34.25h-11.25v0.5H1181V775h0.75v-52.5H1181 M994.25,822.75v8.5H995
				v-8.5H994.25 M994.25,805.25v14.25H995v-14.25H994.25 M985.5,792.75v0.75h8.75v8.25H995v-9H985.5 M968.25,792.75v0.75h14v-0.75
				H968.25 M950.5,792.75v0.75h14.25v-0.75H950.5 M933,792.75v0.75h14.25v-0.75H933 M922.5,792.75v0.75h7.25v-0.75H922.5
				 M1132.75,741.5h-20v4h-28v-12.25h-48v4.25h-32v16h-4v36h4v15.75h32v4.25h48v-12h28v4h20v-20H1113v-4.25h0.75v-2h2V773h-1v-3.25
				h1v-2.25h-2v-2H1113v-4h19.75V741.5"/>
		</g>
	</g>
	<g transform="matrix(1.0, 0.0, 0.0, 1.0, 708.5, 413.5)">
		<g id="shape14" transform="matrix(1.0, 0.0, 0.0, 1.0, -708.5, -413.5)">
			<path fill="#8D8D8D" d="M1428.25,827v6.75H1417v0.75h11.25v34H1417v0.75h11.25v12h0.75V827H1428.25"/>
		</g>
	</g>
	<g transform="matrix(1.0, 0.0, 0.0, 1.0, 480.9, 332.75)">
		<g id="shape15" transform="matrix(1.0, 0.0, 0.0, 1.0, -480.9, -332.75)">
			<path fill="#8D8D8D" d="M975.55,677.8l0.25,3l1.75-0.15l3.45-0.8l2-0.149l-0.15-2l-2,0.149l-3.55-0.2L975.55,677.8
				 M965.55,678.65l0.25,3L962.05,682l-0.25-3L965.55,678.65 M973.5,782.199l0.899,0.351l-0.35,0.95l-0.9-0.4L973.5,782.199
				 M974.05,785.25l-0.9,0.399l0.4,0.9l0.9-0.4L974.05,785.25 M975.65,787.4h-0.05l-0.35,0.9l0.95,0.399l0.399-0.949L975.65,787.4
				 M979.3,787.4l-0.05,0.05l-0.9,0.4l0.45,0.9l0.9-0.45L979.3,787.4 M980.951,785.199v0.051l0.899,0.399l-0.399,0.9l-0.9-0.45
				L980.951,785.199 M980.451,782.55l0.399,0.899l0.9-0.399l-0.4-0.9L980.451,782.55 M978.65,780h0.051l-0.4,0.899l0.9,0.351
				l0.35-0.9L978.65,780 M975.3,780.35l0.3,0.95l0.95-0.3l-0.3-0.95L975.3,780.35 M1150.65,796.5v0.75h0.75v-0.75H1150.65
				 M1150.15,693.25v20h0.75v-20H1150.15 M1166.9,782.5v6h18.5v-0.75h-17.75v-5.25H1166.9 M1166.9,758.75h0.051v19.75h0.75v-19h2.5
				l3-0.25l2.949-0.75l2.65-1.101l2.95-1.8l2.149-1.85h1.5V753h-1.75l-2.35,2.05l-2.9,1.7l-2.449,1.05l-3.051,0.7l-2.75,0.25H1166.9
				 M1166.9,697.25v6h0.75V698h17.75v-0.75H1166.9 M1166.9,707.25V727h3.25l2.7,0.2l2.75,0.75l2.9,1.1l2.7,1.6l2.449,2.101h1.75V732
				h-1.5l-2.25-1.75l-2.75-1.75l-3-1.25l-3-0.75l-2.75-0.25h-2.5v-19H1166.9 M1022.15,665.5l0.25,0.75h35.5v19.25h0.75v-19.25h44
				v19.25h0.75v-19.25h46.75v19.25h0.75v-19.25h16v-0.75H1022.15 M1189.4,683.25h11.25v-17h-33v17h17.75V684h-18.5v-18.5h34.5v28.75
				h-0.75V684h-11.25V683.25 M1151.4,773h-0.75v14.5h0.75V773 M1200.65,821.5h-49.25v-14.75h-0.75v15.5h50V821.5 M1200.65,800.25v22
				h0.75v-22H1200.65"/>
		</g>
	</g>
	<g transform="matrix(1.0, 0.0, 0.0, 1.0, 539.25, 371.75)">
		<g id="shape16" transform="matrix(1.0, 0.0, 0.0, 1.0, -539.25, -371.75)">
			<path fill="#D9D9D9" d="M1194.5,780.25v3.25h-2.75v-3.25H1194.5 M1155.5,743.5h2.5v1.25h-2.5V743.5 M1095.5,747.75V749h2.5v-1.25
				H1095.5 M1078.5,780.5v2.5h1.25v-2.5H1078.5 M1095.5,816v-1.25h2.5V816H1095.5 M1135.5,820.25V819h2.5v1.25H1135.5 M1158,820.25
				h-2.5V819h2.5V820.25 M1175.25,808.25V807h3v1.25H1175.25 M1175.5,755.75h2.5V757h-2.5V755.75 M1135.5,743.5h2.5v1.25h-2.5V743.5
				 M1115,772.25h31.75v19.25H1115V772.25"/>
		</g>
	</g>
	<g transform="matrix(1.0, 0.0, 0.0, 1.0, 519.75, 337.5)">
		<g id="shape17" transform="matrix(1.0, 0.0, 0.0, 1.0, -519.75, -337.5)">
			<path fill="#C0C0C0" d="M1061,792.25v4h0.75v2.25H1061v4.25h8v-10.5H1061 M1039.5,700.5v8h11v-8h-4.5v0.75h-2v-0.75H1039.5
				 M1193.25,675v8h4.25v-0.75h2V683h4.5v-8H1193.25 M1191.25,717.75h-20v4h-12.75v1h-2.5v-1h-12.75V709.5h-4.75v1h-2.5v-1h-4.75
				V733h0.5v16.5h-4.5v7.75h-31.75V738h31.75v11.5h4.5V733h-0.5v-23.5h-12.75v1h-2.5v-1h-20.75v4.25h-16.75v1h-2.5v-1h-12.75v16h-4
				v16.5h1v2.5h-1v17h4v15.75H1076v-1h2.5v1h16.75v4.25H1116v-1h2.5v1h17.5v-1h2.5v1h4.75v-12h12.5v-1h3v1h12.5v4h20v-20h-19.75
				v-4.25h0.75v-2h2v-2.25h-2V746h2v-2.25h-2v-2h-0.75v-4h19.75V717.75"/>
		</g>
	</g>
	<g transform="matrix(1.0, 0.0, 0.0, 1.0, 549.25, 381.75)">
		<g id="shape18" transform="matrix(1.0, 0.0, 0.0, 1.0, -549.25, -381.75)">
			<path fill="#8D8D8D" d="M1099,813.75v6h5.5v0.5h-6v-6.5H1099 M1099,770h-0.5v-6.5h6v0.5h-5.5V770 M1112.75,790v8h-0.5v-8H1112.75
				"/>
		</g>
	</g>
	<g transform="matrix(1.0, 0.0, 0.0, 1.0, 544.5, 377.25)">
		<g id="shape19" transform="matrix(1.0, 0.0, 0.0, 1.0, -544.5, -377.25)">
			<path fill="#F0F0F0" d="M1110.75,793.5H1108v-8h2.75V793.5 M1089,809.25v6.5h4.75v4.5h6.5v-4.5h-6.5v-6.5H1089 M1093.75,759H1089
				v6.5h4.75V759h6.5v-4.5h-6.5V759 M1176.5,789.25v-3.75h-6.5v3.75H1176.5 M1107.5,793.5h-2.75v-8h2.75V793.5"/>
		</g>
	</g>
	<g transform="matrix(1.0, 0.0, 0.0, 1.0, 539.5, 337.5)">
		<g id="shape20" transform="matrix(1.0, 0.0, 0.0, 1.0, -539.5, -337.5)">
			<path fill="#8D8D8D" d="M1192,749.25v1.25h-1v2h-0.75v5.75h-3.75v0.5h23.5v18h-18v-4h-13.5v1h12.5v4h20v-20h-19.75v-4.25h0.75v-2
				h2v-2.25H1192 M1178.25,721.75v1H1192v-4h18v18h-23.5v0.5h3.75v5.5h0.75v2h1V746h2v-2.25h-2v-2h-0.75v-4H1211v-20h-20v4H1178.25
				 M1158.25,709.5v1h3.75v18.25h0.5v-1.25h1.5V727h-1.5v-4.25h3.75V727h-1v0.5h3.25V727h-1.75v-4.25h4V727h-1v0.5h1v1h0.5v-5.75
				h4.5v-1H1163V709.5H1158.25 M1138.25,709.5v1h12.5v5.75h0.5v-5.75h4.5v-1H1138.25 M1098.25,713.75v1h0.5V726h0.5v-11.25H1111V726
				h0.5v-11.25h4.5v-4.25h19.75v-1H1115v4.25H1098.25 M1079,748.75v17h4v15.75h12.75v-1h-0.5v-10.75h-0.5v10.75H1084v-15.75h-4v-16
				H1079 M1083,713.75v16h-4v16.5h1v-15.5h4v-16h10.75V726h0.5v-11.25h0.5v-1H1083 M1213,675v8h4.25v-0.75h-3.5v-6.5h9.25v6.5h-3.75
				V683h4.5v-8H1213 M1151,754.5h1V741h-1V754.5 M1161.75,753.75V750h1v-0.5h-1v-3.75h9.75v-0.5h-9.75v-3.75h-0.5v12.25H1161.75
				 M1174.5,737.25h10v-0.5h-10V737.25 M1157.25,735.5h4v4.25h0.5v-2.5h10.75v-0.5h-1.25v-6.25h-0.5v1h-1v0.5h1v4.75h-8.25V732h6
				v-0.5h-6v-1h-0.5v4.5h-4.75V735.5 M1146.25,733.5h4.75v4.75h1v-2.75h3.5V735h-3.5v-2.5h-0.75v-14.25h-0.5v14.25h-4.5V733.5
				 M1118.25,733.5h25.5v-1h-25.5V733.5 M1108.5,733h1.5v1.5h1v-1h4.75v-1h-4.25V728h-0.5v4.5h-2.5V733 M1098.75,728v5h7.5v-0.5h-7
				V728H1098.75 M1111,758.25V737h-1v0.5h-2.25v0.5h2.25v4.75h-5.5V738h2v-0.5h-4v0.5h1.5v4.75h-4.25V738h1.5v-0.5h-2v20.25h2.75
				v-0.5h-2.25v-14h6v14H1104v0.5h6v0.5H1111 M1095.25,746.75V728h-0.5v18.75H1095.25 M1095.25,767.25v-18.5h-0.5v18.5H1095.25
				 M1106.5,762.25h-7.75v5h0.5v-4.5h7.25V762.25 M1115.5,762.75v-1h-4.5V761h-1v1.25h-1.5v0.5h2.5v5.75h0.5v-5.75H1115.5
				 M1143.75,761.75h-25.5v1h25.5V761.75 M1151.25,766.5v-3.75h0.75v-3.25h3.25V759H1152v-2h-1v4.75h-4.75v1h4.5v3.75H1151.25
				 M1151.25,770.5v-2h-0.5v2H1151.25 M1151.25,778v-5.5h-0.5v5.5H1151.25 M1172.5,758.25h-10.75v-2.75h-0.5v3.5h-4v0.5h4.5v4.25
				h1.75v-0.5h-1.25v-4.5h8.5v4.5h-6v0.5h6.5v-5h1.25V758.25 M1184.5,758.25h-10v0.5h10V758.25"/>
		</g>
	</g>
	<g transform="matrix(1.0, 0.0, 0.0, 1.0, 519.75, 363.0)">
		<g id="shape21" transform="matrix(1.0, 0.0, 0.0, 1.0, -519.75, -363.0)">
			<path fill="#8D8D8D" d="M1094.5,778.75v1h1v-1H1094.5 M1094.5,782.25v1.5h1.5v-1h-0.5v-0.5H1094.5 M1098.75,782.75v1h1v-1
				H1098.75 M1102.75,782.75v1h1v-1H1102.75 M1106.75,782.75v1h1v-1H1106.75 M1110.75,782.75v1h1v-1H1110.75 M1114.75,782.75v1h1v-1
				H1114.75 M1118.75,782.75v1h1v-1H1118.75 M1122.75,782.75v1h1v-1H1122.75 M1094.5,774.75v1h1v-1H1094.5 M1094.5,770.5v1h1v-1
				H1094.5 M1094.5,766.75v1h1v-1H1094.5 M1094.5,762.5v1.5h1v-0.5h0.5v-1H1094.5 M1098.75,762.5v1h1v-1H1098.75 M1102.75,762.5v1h1
				v-1H1102.75 M1106.75,762.5v1h1v-1H1106.75 M1110.75,762.5v1h1v-1H1110.75 M1114.75,762.5v1h1v-1H1114.75 M1118.75,762.5v1h1v-1
				H1118.75 M1061,817.75v4h0.75v-3.25h6.5v9h-6.5V824H1061v4.25h8v-10.5H1061 M1039.5,726v8h11v-8h-4.5v0.75h3.75v6.5h-9.5v-6.5
				h3.75V726H1039.5 M1086.5,768.75v14h3.75v-14H1086.5 M1122.75,762.5v1h1v-1H1122.75 M1078.5,807h16.75v4.25H1116v-1h-19.75V806
				h-4.5v-8h-0.5v8h-11.75v-10.75h-0.5V806h-0.5V807 M1118.5,810.25v1h17.5v-1h-4.5V806h-0.5v4.25H1118.5 M1142.25,793.25v17h-3.75
				v1h4.75v-12h12.5v-1h-4.25v-5h-2.25v0.5h1.75v4.5h-3.75v-4.5h1v-0.5H1145v0.5h1.75v4.5h-4v-4.5h1v-0.5H1142.25 M1144.25,775v0.5
				h7.5V775H1144.25"/>
		</g>
	</g>
	<g transform="matrix(1.0, 0.0, 0.0, 1.0, 541.9, 332.85)">
		<g id="shape22" transform="matrix(1.0, 0.0, 0.0, 1.0, -541.9, -332.85)">
			<path fill="#595D5C" d="M1107.8,665.7v0.5h-8v-0.5H1107.8h8v0.5h-8V665.7 M1235.55,821.75v0.5h-8v-0.5H1235.55h8h8v0.5h-8v-0.5
				v0.5h-8V821.75 M1219.55,821.75v0.5h-8v-0.5H1219.55h8v0.5h-8V821.75 M1091.8,665.7v0.5h-8v-0.5H1091.8h8v0.5h-8V665.7"/>
		</g>
	</g>
</g>
</svg>
