<svg xmlns="http://www.w3.org/2000/svg" width="48" height="48" viewBox="1 1 48 48" xml:space="preserve">
<circle cx="25" cy="25" r="24"/>
	<path fill="#adfe00" d="M41.777 17.326c.144-.308.223-.65.223-.994 0-1.25-.973-2.264-2.163-2.264-.115 0-.243.028-.373.054C37.27 9.58 31.628 6.34 25 6.34c-6.629 0-12.271 3.24-14.465 7.782-.13-.026-.256-.054-.371-.054C8.972 14.068 8 15.083 8 16.332c0 .347.078.686.224.994a2.308 2.308 0 0 0 0 1.985 2.327 2.327 0 0 0-.224.994c0 1.056.697 1.938 1.633 2.185a4.434 4.434 0 0 0-.087.851c0 1.374.627 2.602 1.627 3.455.159.134.501.689.751 1.196a5.103 5.103 0 0 0-.061.759c0 1.252.429 2.4 1.144 3.316 1.259 4.117 2.959 5.331 3.858 5.957 1.237.857 2.442 1.195 2.442 2.318 0 1.272 2.031 2.316 3.375 2.316h4.637c1.343 0 3.374-1.044 3.374-2.316 0-1.123 1.2-1.461 2.441-2.318.9-.626 2.6-1.84 3.856-5.957a5.362 5.362 0 0 0 1.145-3.316c0-.261-.024-.511-.059-.759.25-.507.59-1.063.751-1.2.998-.849 1.627-2.077 1.627-3.451 0-.292-.033-.573-.087-.851.936-.248 1.633-1.13 1.633-2.185 0-.348-.079-.686-.223-.994.144-.308.223-.646.223-.993s-.079-.685-.223-.992zm-29.319 1.49a.76.76 0 0 1 .179.495c0 .311-.173.588-.429.686a2.96 2.96 0 0 0-.401.218c-1.09.648-1.497.797-1.642.808-.341 0-.619-.323-.619-.718 0-.232.096-.398.178-.496l.419-.498-.419-.498c-.083-.097-.178-.263-.178-.495s.096-.398.178-.498l.419-.494-.419-.498a.755.755 0 0 1-.178-.496c0-.396.278-.718.612-.718.151.012.558.16 1.648.809.208.124.355.202.401.217.256.1.429.375.429.686a.754.754 0 0 1-.179.494l-.419.498.42.498zm14.425-2.864c.285-.281 1.642-2.656 4.298-2.656 1.012 0 2.074.293 3.088 1.175.536.461.489 1.231 0 .992-.858-.419-1.628-.622-2.313-.622-2.078 0-3.113 2.434-3.431 2.753a1.156 1.156 0 0 1-1.637 0 1.163 1.163 0 0 1-.005-1.642zM33.5 20.92c0 1.543-1.466.564-2.628.564s-2.78.884-2.78-.307c0-1.193 1.541-2.466 2.703-2.466s2.705.655 2.705 2.209zm-17.77-6.45c1.014-.882 2.077-1.175 3.088-1.175 2.656 0 4.015 2.375 4.298 2.656a1.159 1.159 0 1 1-1.638 1.64c-.321-.317-1.356-2.751-3.432-2.751-.685 0-1.455.203-2.316.622-.489.237-.534-.531 0-.992zm6.18 6.707c0 1.191-1.618.307-2.78.307s-2.63.975-2.63-.567c0-1.554 1.542-2.209 2.704-2.209s2.706 1.276 2.706 2.469zm11.358 11.736c-1.418.462-2.129.473-4.86.473h-6.815c-2.732 0-3.44-.011-4.859-.473-1.808-.59-3.323-2.054-3.323-4.187 0-1.854 1.651-3.84 3.408-3.84-.713.461-1.361 1.194-1.361 1.908 0 1.494 1.068 2.703 2.384 2.703 1.036 0 2.789-3.044 4.066-3.067.312.478.806.792 1.37.792.091 0 .294.079.341.137.202.811 2.563.811 2.765 0 .046-.058.25-.137.341-.137.564 0 1.062-.314 1.37-.792 1.277.019 3.032 3.067 4.066 3.067 1.317 0 2.386-1.209 2.386-2.703 0-.714-.493-1.378-1.364-1.908 1.704 0 3.411 1.985 3.411 3.84-.002 2.133-1.518 3.597-3.326 4.187zm7.009-15.093a.787.787 0 0 1 0 .996l-.42.495.42.498c.08.097.178.263.178.496 0 .395-.277.718-.613.718-.15-.011-.56-.16-1.647-.808a3.318 3.318 0 0 0-.401-.218c-.258-.1-.429-.375-.429-.686a.77.77 0 0 1 .177-.495l.421-.498-.421-.498a.765.765 0 0 1-.177-.494c0-.312.171-.589.429-.686.044-.015.193-.094.401-.217 1.088-.649 1.497-.799 1.643-.809.341 0 .618.322.618.718a.776.776 0 0 1-.178.496l-.418.498.417.494z"/>
</svg>