<svg xmlns="http://www.w3.org/2000/svg" xml:space="preserve" width="36" height="36" viewBox="7 0 36 36">
	<path fill="white" d="M14.023 2.988C11.841 2.988 10 4.761 10 7.01c0 2.046 1.5 3.683 3.477 3.955-.682 2.25-.068 4.772 1.705 6.613l.546.546 2.931 2.933 2.459 2.409 2.926-2.956-5.93-5.931a2.47 2.47 0 0 1 0-3.478 2.465 2.465 0 0 1 3.002-.361l.057-.058 2.902-2.902a6.739 6.739 0 0 0-6.098-1.314c-.273-1.979-1.909-3.478-3.954-3.478zm21.818.091c-2.045 0-3.682 1.5-3.954 3.477-2.25-.682-4.772-.067-6.614 1.705l-.546.546-2.931 2.933-2.41 2.458 2.956 2.926 5.932-5.93a2.468 2.468 0 0 1 3.477 0c.81.809.925 2.058.361 3.001l.057.058 2.903 2.901a6.735 6.735 0 0 0 1.314-6.096c1.978-.273 3.479-1.91 3.479-3.955-.001-2.183-1.774-4.024-4.024-4.024zm-6.959 9.455-2.926 2.955 5.931 5.931a2.471 2.471 0 0 1 0 3.478 2.466 2.466 0 0 1-3.002.362l-.058.057-2.901 2.902a6.74 6.74 0 0 0 6.098 1.314c.273 1.977 1.908 3.479 3.953 3.479 2.183 0 4.023-1.773 4.023-4.023 0-2.045-1.499-3.681-3.477-3.953.682-2.25.067-4.773-1.705-6.615l-.546-.545-2.931-2.932-2.459-2.41zm-14.09 6.404a6.738 6.738 0 0 0-1.315 6.098C11.5 25.308 10 26.943 10 28.988c0 2.182 1.773 4.023 4.023 4.023 2.045 0 3.681-1.5 3.954-3.477 2.25.682 4.773.066 6.615-1.705l.544-.547 2.933-2.93 2.408-2.461-2.955-2.925-5.931 5.93a2.47 2.47 0 0 1-3.477 0 2.467 2.467 0 0 1-.362-3.001l-.057-.058-2.903-2.899z"/>
</svg>