<svg xmlns="http://www.w3.org/2000/svg" xml:space="preserve" width="50" height="50">
	<path fill="#a20000" d="M25 6c10.477 0 19 8.523 19 19s-8.523 19-19 19S6 35.477 6 25 14.523 6 25 6m0-6C11.193 0 0 11.193 0 25s11.193 25 25 25 25-11.193 25-25S38.807 0 25 0z"/>
	<path fill="#a20000" d="M24 0h2v50h-2z"/>
	<path fill="#a20000" d="M0 24h50v2H0z"/>
	<path fill="#a20000" d="M5.48 22.899h6v4h-6zM38.301 23h6v4h-6zM23 5.765h4v6h-4zM23 38.186h4v6h-4z"/>
	<path d="M19.976 32.519h10v1h-10zM19.976 15.519h10v1h-10z"/>
	<g fill="#a20000">
		<path d="M19.976 32.519h10v1h-10zM19.976 15.519h10v1h-10z"/></g>
		<path d="M32.976 20h1v10h-1zM15.976 20h1v10h-1z"/>
	<g fill="#a20000">
		<path d="M32.976 20h1v10h-1zM15.976 20h1v10h-1z"/>
	</g>
</svg>