<?xml version="1.0" encoding="utf-8"?>
<!-- Generator: Adobe Illustrator 16.0.0, SVG Export Plug-In . SVG Version: 6.00 Build 0)  -->
<!DOCTYPE svg PUBLIC "-//W3C//DTD SVG 1.1//EN" "http://www.w3.org/Graphics/SVG/1.1/DTD/svg11.dtd">
<svg version="1.1" id="Capa_1" xmlns="http://www.w3.org/2000/svg" xmlns:xlink="http://www.w3.org/1999/xlink" x="0px" y="0px"
	 width="413px" height="306px" viewBox="0 0 413 306" enable-background="new 0 0 413 306" xml:space="preserve">
<g>
	<g>
		<g>
			<g>
				<g>
					<path fill="#FFFFFF" d="M412.785-0.321c1.905-0.698-0.761-0.635-3.052-0.582l-1.764,1.61L412.785-0.321z"/>
					<path fill="#FFFFFF" d="M401.867,1.501l-5.208,2.343l3.819-1.396c4.505-0.235-0.317,1.445-1.922,2.006
						C405.662,2.72,400.864,2.44,401.867,1.501z"/>
					<path fill="#FFFFFF" d="M391.317,4.623c-3.521,0.607-2.379,1.232-0.855,1.197C390.623,5.423,392.838,4.587,391.317,4.623z"/>
					<path fill="#FFFFFF" d="M173.212,44.21c1.018-0.023,2.196-0.134,2.079,0.124C176.342,43.88,176.534,43.639,173.212,44.21z"/>
					<path fill="#FFFFFF" d="M175.291,44.334c-0.202,0.083-0.423,0.175-0.678,0.28c0.215-0.063,0.4-0.108,0.646-0.191
						C175.32,44.379,175.277,44.365,175.291,44.334z"/>
					<path fill="#FFFFFF" d="M247.812,40.248c3.819-1.396,6.108-1.45,9.78-2.451l2.282,0.6c3.971-1.137,1.614-1.213,4.439-2.323
						c3.812-0.089,11.452-2.228,13.208-2.529c1.305,0.228-1.379,0.948-1.914,1.35c4.665-1.284,4.138-2.187,10.015-3.368l0.15,0.256
						c13.758-4.239,31.634-7.402,47.075-11.423c-1.07,0.158-0.845-0.108-1.296-0.229c16.418-3.649,35.435-7.49,47.994-12.488
						c-8.861,2.036-24.276,3.442-33.005,7.044c-3.503-0.053-8.477,2.024-10.073,1.279c-13.049,2.134-17.957,4.992-30.414,7.505
						c-1.821,0.171-1.052-0.5-1.662-0.876l9.781-2.45l-6.103,0.794c2.516-0.971,8.927-1.906,9.468-2.962
						c-8.407,2.809-22.377,4.702-29.65,7.486c3.586-0.475,7.951-1.624,12.156-2.377c1.906-0.043,4.808-0.373,4.719,0.154
						c-11.699,3.802-21.775,5.082-33.995,7.978c-3.063,0.727-7.266,1.479-7.866,1.102c1.989-0.571,0.384-0.665,1.998-1.227
						c-4.28,1.279-0.092,1.833-6.438,2.896l0.475-1.841c-2.154,2.273-7.78,1.226-12.066,3.156c-1.749-0.351,1.151-1.332,4.597-2.067
						c-3.98,0.487-4.14,1.535-7.274,2.132l2.683-2.023c-3.059,2.031-6.026,0.925-8.006,0.839c-0.154,0.395,1.818,1.134-2.376,1.883
						c-1.83,0.175-0.986-0.369-1.446-0.488c-0.161,0.398-1.538,1.344-4.289,1.931c-0.601-0.378,1.689-1.084,1.773-1.611
						c-2.075,0.443-3.755,0.875-5.342,0.778c-3.603,1.131,0.376,0.644-1.772,1.611c-5.718,0.783-0.894-1.549-3.177-2.15
						c4.121-1.531,9.556-2.835,11.761-3.669l-8.091,2.017c0.382-0.661-5.718,0.134-1.513-1.27
						c-8.243,1.104-17.953,3.686-25.669,5.693c1.146-0.026,2.591-0.192,2.432,0.208c-3.973,1.136-3.662,0.346-4.572,0.104
						c-2.91,0.983-2.383,1.886-4.072,2.97c-6.328,0.41-7.097,1.08-12.581,0.945l0.518,0.905c-3.877-0.041-4.13,1.533-8.251,1.761
						c-0.261-0.165,1.224-0.717,2.413-1.188c-3.487,1.024-3.437-0.167-6.826,0.898l2.533-1.628c-2.75,0.588-6.73,1.726-5.492,0.52
						c-4.599,2.068-13.141,3.313-19.034,5.148l0.231-0.919c-2.909,1.637-11.452,2.227-13.911,3.983l-0.526-0.25l-5.969,2.361
						c-2.825,0.458-2.125-0.995-2.282-0.6c-6.111,1.448-10.927,2.478-14.974,2.832c-0.768,1.325-7.189,2.911-12.314,4.078
						c-24.961,4.24-51.404,10.608-74.242,16.498c-3.445,0.733-7.957,2.93-12.164,4.333c5.342-0.777,5.729-1.439,10.927-2.476
						c3.961-0.483,5.634,0.392,9.136,0.442l-1.897-0.61c5.125-1.819,3.737-0.218,7.716-2.01l0.133,1.567
						c1.313-1.078,5.125-1.167,6.721-1.073l1.154-1.332c3.437-0.081,5.652-0.266,6.854,0.493l-0.518-0.906
						c1.372,0.361,12.757-2.649,9.145-0.211c0.918-0.412,1.699-1.087,3.832-1.396l0.515,0.903c2.995-0.855,6.355-1.719,7.341-1.35
						c-1.605,0.56-2.074,1.096-2.533,1.629c12.908-2.393,2.09-3.707,13.477-6.065l-0.009,0.655l2.759-1.242l3.192,0.189
						c3.682-2.961,16.043-2.99,22.698-5.497c2.675-0.715,6.488-0.152,11.604-1.317l-0.526-0.901
						c4.347,0.159,19.921-2.295,24.242-0.825c3.751-1.526-0.451-0.122-0.518-0.905c7.415-2.524,8.245-1.107,12.35-1.331
						c4.595-1.417-3.657,0.345-1.282-0.886c7.327-0.696,5.593-2.354,14.597-3.479c0.986,0.369-2.215,0.835-3.06,1.377
						c6.044-2.23,17.798-3.943,27.044-5.987c10.758-1.428,26.497-4.279,39.086-5.878l0.159-0.397
						c5.34-0.124,10.768-2.08,16.879-2.877L247.812,40.248z"/>
					<path fill="#FFFFFF" d="M320.084,16.347l-1.151-0.625l-5.58,1.698C315.794,17.625,316.873,16.813,320.084,16.347z"/>
					<polygon fill="#FFFFFF" points="319.363,19.108 322.264,18.127 317.457,19.151 					"/>
					<polygon fill="#FFFFFF" points="246.967,32.165 247.728,32.147 258.438,29.283 					"/>
					<path fill="#FFFFFF" d="M173.446,43.291c1.154-0.682,2.976-0.853,4.205-1.406l-4.965,1.421L173.446,43.291z"/>
					<path fill="#FFFFFF" d="M123.84,49.673c-1.622,1.87-3.821,0.743-1.003,1.591C125.813,50.412,123.071,50.345,123.84,49.673z"/>
					<path fill="#FFFFFF" d="M112.896,54.11c1.751-0.301,2.675-0.715,3.585-1.127C114.05,52.777,114.126,53.559,112.896,54.11z"/>
				</g>
			</g>
		</g>
	</g>
</g>
<g>
	<g>
		<g>
			<g>
				<g>
					<path fill="#FFFFFF" d="M407.86,287.672c1.987-0.313-0.617-0.771-2.856-1.167l-2.026,1.235L407.86,287.672z"/>
					<path fill="#FFFFFF" d="M396.889,287.328l-5.52,1.281l3.985-0.623c4.427,0.647-0.588,1.355-2.258,1.592
						C400.344,289.264,395.731,288.053,396.889,287.328z"/>
					<path fill="#FFFFFF" d="M386.023,288.33c-3.541-0.092-2.552,0.744-1.063,1.007C385.194,288.979,387.51,288.592,386.023,288.33z
						"/>
					<path fill="#FFFFFF" d="M166.235,284.588c0.994,0.176,2.162,0.297,1.998,0.527
						C169.342,284.875,169.576,284.676,166.235,284.588z"/>
					<path fill="#FFFFFF" d="M168.232,285.115c-0.212,0.042-0.445,0.088-0.714,0.143c0.222-0.02,0.41-0.028,0.666-0.062
						C168.252,285.165,168.213,285.143,168.232,285.115z"/>
					<path fill="#FFFFFF" d="M239.556,295.262c3.985-0.624,6.222-0.23,9.987-0.495l2.104,1.034c4.082-0.34,1.805-0.875,4.767-1.412
						c3.725,0.656,11.569,0.05,13.336,0.098c1.226,0.478-1.524,0.66-2.123,0.949c4.786-0.348,4.448-1.336,10.393-1.348l0.097,0.28
						c14.201-1.472,32.199-1.085,47.995-2.016c-1.07-0.054-0.801-0.271-1.216-0.478c16.675-0.375,35.913-0.43,49.097-2.881
						c-9.013,0.268-24.278-1.363-33.464,0.467c-3.396-0.736-8.637,0.33-10.045-0.713c-13.104-0.453-18.431,1.393-31.033,1.426
						c-1.804-0.188-0.926-0.695-1.447-1.184l9.987-0.494l-6.089-0.412c2.635-0.461,9.051-0.127,9.782-1.057
						c-8.721,1.113-22.674,0.243-30.287,1.555c3.58,0.234,8.048-0.041,12.284,0.041c1.862,0.329,4.747,0.572,4.559,1.072
						c-12.114,1.445-22.162,0.734-34.607,1.189c-3.119,0.115-7.353,0.032-7.864-0.455c2.046-0.172,0.502-0.577,2.181-0.814
						c-4.409,0.42-0.443,1.781-6.822,1.585l0.818-1.713c-2.535,1.81-7.804-0.315-12.347,0.741c-1.633-0.686,1.378-1.082,4.871-1.131
						c-3.966-0.299-4.323,0.697-7.488,0.672l3.001-1.461c-3.368,1.395-6.041-0.27-7.949-0.74c-0.227,0.357,1.549,1.468-2.675,1.384
						c-1.814-0.186-0.888-0.554-1.313-0.761c-0.233,0.359-1.756,1.018-4.545,1.056c-0.511-0.487,1.853-0.733,2.036-1.233
						c-2.104,0.029-3.821,0.124-5.346-0.279c-3.723,0.406,0.241,0.704-2.036,1.234c-5.712-0.349-0.569-1.693-2.673-2.729
						c4.304-0.697,9.843-0.916,12.148-1.305l-8.26,0.4c0.5-0.574-5.587-0.985-1.226-1.541c-8.23-0.525-18.174,0.111-26.067,0.573
						c1.119,0.198,2.557,0.317,2.325,0.679c-4.084,0.339-3.628-0.375-4.467-0.789c-3.021,0.396-2.683,1.385-4.536,2.117
						c-6.233-0.832-7.111-0.325-12.418-1.527l0.328,0.988c-3.763-0.797-4.313,0.697-8.366,0.116
						c-0.222-0.212,1.329-0.465,2.577-0.694c-3.59,0.324-3.31-0.834-6.813-0.451l2.779-1.103c-2.789,0.04-6.88,0.38-5.442-0.562
						c-4.873,1.131-13.422,0.684-19.508,1.334l0.403-0.856c-3.146,1.038-11.57-0.052-14.3,1.192l-0.463-0.349l-6.262,1.151
						c-2.837-0.102-1.875-1.391-2.104-1.033c-6.224,0.227-11.106,0.297-15.111-0.146c-1.003,1.15-7.555,1.453-12.766,1.596
						c-25.098-0.713-52.049,0.371-75.4,1.691c-3.493,0.047-8.306,1.32-12.669,1.875c5.346,0.281,5.85-0.293,11.106-0.295
						c3.947,0.299,5.404,1.482,8.8,2.216l-1.727-0.968c5.336-0.784,3.676,0.516,7.893-0.466l-0.174,1.563
						c1.486-0.801,5.21-0.146,6.745,0.26l1.38-1.082c3.358,0.592,5.548,0.843,6.571,1.822l-0.328-0.99
						c1.264,0.623,12.92-0.107,8.935,1.578c0.972-0.225,1.862-0.735,3.997-0.621l0.326,0.986c3.079-0.254,6.514-0.446,7.401,0.109
						c-1.669,0.235-2.229,0.67-2.779,1.103c13.017,0.173,2.75-3.228,14.281-3.317l-0.135,0.64l2.924-0.679l3.069,0.809
						c4.154-2.186,16.182,0.198,23.139-0.961c2.74-0.18,6.339,1.116,11.541,0.973l-0.338-0.986
						c4.198,1.004,19.82,1.637,23.738,3.922c3.944-0.765-0.415-0.208-0.328-0.988c7.7-1.028,8.233,0.522,12.269,1.105
						c4.743-0.493-3.624-0.375-1.076-1.119c7.261,0.748,5.896-1.217,14.87-0.563c0.888,0.555-2.316,0.387-3.242,0.754
						c6.311-1.008,18.073-0.395,27.462-0.594c10.74,0.699,26.598,0.975,39.153,1.863l0.231-0.358
						c5.218,0.921,10.875,0.062,16.973,0.472L239.556,295.262z"/>
					<path fill="#FFFFFF" d="M314.474,285.926l-0.999-0.838l-5.756,0.575C310.055,286.342,311.261,285.756,314.474,285.926z"/>
					<polygon fill="#FFFFFF" points="313.238,288.494 316.249,288.098 311.376,288.163 					"/>
					<polygon fill="#FFFFFF" points="240.299,287.169 241.042,287.301 252.014,286.582 					"/>
					<path fill="#FFFFFF" d="M166.64,283.732c1.254-0.444,3.059-0.256,4.362-0.559l-5.104,0.424L166.64,283.732z"/>
					<path fill="#FFFFFF" d="M117.158,280.309c-1.939,1.518-3.86-0.018-1.283,1.365C118.934,281.419,116.28,280.818,117.158,280.309
						z"/>
					<path fill="#FFFFFF" d="M105.656,282.525c1.761,0.046,2.74-0.18,3.705-0.406C107.036,281.443,106.959,282.225,105.656,282.525z
						"/>
				</g>
			</g>
		</g>
	</g>
</g>
<g>
	<g>
		<g>
			<g>
				<g>
					<path fill="#FFFFFF" d="M399.243,306.061c0.291,1.495,0.778-0.452,1.198-2.125l-1.212-1.538L399.243,306.061z"/>
					<path fill="#FFFFFF" d="M399.708,297.837l-1.22-4.158l0.579,2.998c-0.697,3.311-1.349-0.462-1.567-1.717
						C397.735,300.399,398.996,296.958,399.708,297.837z"/>
					<path fill="#FFFFFF" d="M398.826,289.673c0.131-2.654-0.716-1.925-0.995-0.813
						C398.186,289.041,398.548,290.784,398.826,289.673z"/>
					<path fill="#FFFFFF" d="M404.992,124.887c-0.187,0.743-0.32,1.617-0.549,1.491
						C404.671,127.213,404.867,127.392,404.992,124.887z"/>
					<path fill="#FFFFFF" d="M404.443,126.377c-0.041-0.161-0.084-0.335-0.135-0.538c0.017,0.167,0.023,0.308,0.054,0.5
						C404.393,126.391,404.416,126.362,404.443,126.377z"/>
					<path fill="#FFFFFF" d="M393.511,179.721c0.58,2.998,0.161,4.669,0.385,7.497l-1.057,1.563
						c0.295,3.066,0.854,1.366,1.359,3.596c-0.697,2.784-0.179,8.677-0.245,10.001c-0.491,0.912-0.644-1.153-0.927-1.606
						c0.296,3.595,1.288,3.355,1.234,7.814l-0.282,0.067c1.315,10.673,0.73,24.166,1.486,36.027
						c0.065-0.803,0.279-0.597,0.491-0.905c0.191,12.512,0.033,26.94,2.339,36.864c-0.168-6.763,1.63-18.188-0.098-25.104
						c0.772-2.537-0.235-6.482,0.822-7.523c0.599-9.821-1.188-13.843-1.082-23.295c0.207-1.351,0.706-0.685,1.199-1.068l0.385,7.497
						l0.479-4.56c0.432,1.982,0.027,6.79,0.949,7.352c-1.018-6.557,0.006-17.009-1.221-22.738c-0.274,2.682-0.048,6.036-0.177,9.212
						c-0.35,1.393-0.624,3.553-1.122,3.404c-1.312-9.107-0.49-16.633-0.808-25.974c-0.081-2.341,0.048-5.515,0.542-5.891
						c0.148,1.536,0.57,0.385,0.789,1.647c-0.37-3.313-1.775-0.359-1.509-5.141l1.703,0.639c-1.781-1.928,0.402-5.848-0.604-9.271
						c0.703-1.215,1.066,1.049,1.077,3.67c0.343-2.971-0.65-3.253-0.589-5.626l1.428,2.272c-1.357-2.547,0.336-4.526,0.826-5.951
						c-0.354-0.175-1.484,1.14-1.354-2.026c0.206-1.358,0.564-0.658,0.775-0.974c-0.356-0.181-0.998-1.332-1.006-3.424
						c0.494-0.376,0.714,1.4,1.212,1.545c-0.007-1.578-0.083-2.867,0.338-4.005c-0.365-2.798-0.707,0.171-1.212-1.545
						c0.411-4.279,1.699-0.402,2.758-1.965c0.649,3.238,0.808,7.396,1.17,9.131l-0.309-6.201c0.568,0.383,1.047-4.176,1.554-0.896
						c0.617-6.165,0.09-13.632-0.285-19.559c-0.21,0.836-0.347,1.913-0.704,1.734c-0.294-3.068,0.415-2.715,0.838-3.339
						c-0.362-2.271-1.354-2.032-2.067-3.433c0.901-4.663,0.404-5.329,1.665-9.292l-0.992,0.231c0.839-2.811-0.649-3.245-0.024-6.276
						c0.215-0.163,0.45,1.004,0.667,1.943c-0.285-2.697,0.87-2.47,0.526-5.103l1.071,2.101c-0.009-2.092-0.304-5.166,0.621-4.073
						c-1.076-3.671-0.535-10.077-1.118-14.651l0.852,0.315c-1.003-2.375,0.179-8.677-1.034-10.743l0.354-0.342l-1.082-4.714
						c0.133-2.126,1.411-1.385,1.057-1.563c-0.159-4.671-0.175-8.334,0.312-11.331c-1.138-0.77-1.368-5.688-1.454-9.598
						c0.989-18.813,0.202-39.042-0.859-56.575c-0.008-2.621-1.229-6.249-1.735-9.53c-0.34,4.005,0.229,4.392,0.173,8.334
						c-0.342,2.956-1.543,4.031-2.313,6.567l0.986-1.281c0.726,4.014-0.556,2.75,0.379,5.927l-1.562-0.153
						c0.785,1.126,0.088,3.91-0.334,5.055l1.066,1.051c-0.628,2.51-0.904,4.149-1.894,4.901l0.992-0.231
						c-0.636,0.939-0.034,9.692-1.676,6.678c0.214,0.732,0.715,1.408,0.577,3.007l-0.989,0.229c0.22,2.313,0.373,4.892-0.191,5.549
						c-0.218-1.255-0.646-1.682-1.072-2.101c-0.315,9.76,3.197,2.11,3.16,10.76l-0.639-0.111l0.646,2.203l-0.842,2.289
						c2.14,3.148-0.377,12.134,0.705,17.369c0.149,2.058-1.187,4.738-1.1,8.641l0.99-0.239c-1.051,3.133-1.855,14.841-4.184,17.746
						c0.721,2.969,0.212-0.308,0.992-0.231c0.942,5.79-0.614,6.167-1.241,9.186c0.44,3.564,0.415-2.712,1.131-0.791
						c-0.828,5.435,1.152,4.439,0.398,11.161c-0.564,0.658-0.36-1.743-0.718-2.443c0.938,4.748,0.194,13.561,0.291,20.605
						c-0.817,8.044-1.268,19.934-2.295,29.336l0.355,0.18c-0.979,3.899-0.182,8.154-0.659,12.723L393.511,179.721z"/>
					<path fill="#FFFFFF" d="M402.02,236.046l0.849-0.736l-0.512-4.325C401.652,232.726,402.225,233.639,402.02,236.046z"/>
					<polygon fill="#FFFFFF" points="399.465,235.082 399.828,237.346 399.816,233.69 					"/>
					<polygon fill="#FFFFFF" points="401.594,180.396 401.454,180.952 402.053,189.191 					"/>
					<path fill="#FFFFFF" d="M405.843,125.204c0.431,0.947,0.223,2.298,0.511,3.279l-0.368-3.834L405.843,125.204z"/>
					<path fill="#FFFFFF" d="M409.812,88.143c-1.496-1.477,0.06-2.895-1.35-0.983C408.682,89.458,409.313,87.476,409.812,88.143z"/>
					<path fill="#FFFFFF" d="M407.723,79.483c-0.065,1.32,0.149,2.058,0.365,2.785C408.789,80.534,408.009,80.465,407.723,79.483z"
						/>
				</g>
			</g>
		</g>
	</g>
</g>
<g>
	<g>
		<g>
			<g>
				<g>
					<path fill="#FFFFFF" d="M11.114,293.063c0.345,0.343,0.118-0.11,0.087-0.522L11.114,293.063z"/>
					<path fill="#FFFFFF" d="M11.201,292.54l0.062-0.369C11.202,292.269,11.191,292.399,11.201,292.54z"/>
					<path fill="#FFFFFF" d="M11.532,289.095c0.259,0.802-0.149,1.737,0.268,2.244C12.075,290.546,11.999,289.305,11.532,289.095z"
						/>
					<polygon fill="#FFFFFF" points="11.224,290.28 11.456,290.386 11.109,289.681 					"/>
					<polygon fill="#FFFFFF" points="10.998,290.771 11.086,290.675 10.875,289.58 					"/>
					<path fill="#FFFFFF" d="M11.768,286.415l0.044,0.797c-0.338,0.737-0.417-0.504-0.645-0.011
						c-0.022,0.993,0.657,0.358,0.521,1.599c0.303-0.092,0.047-1.988,0.515-1.777C12.378,285.982,11.926,286.966,11.768,286.415z"/>
					<path fill="#FFFFFF" d="M10.411,238.445c0.022-0.04,0.031-0.076,0.047-0.111C10.407,238.377,10.369,238.422,10.411,238.445z"/>
					<path fill="#FFFFFF" d="M10.405,225.316c0.053-0.179,0.086-0.359,0.11-0.535c-0.05,0.054-0.096,0.12-0.134,0.209
						L10.405,225.316z"/>
					<path fill="#FFFFFF" d="M11.094,246.682c-0.057,0.188-0.098,0.359-0.13,0.517C11.033,247.101,11.086,246.948,11.094,246.682z"
						/>
					<path fill="#FFFFFF" d="M14.884,163.153c0.032,0.032,0.075,0.061,0.136,0.071c0.002-0.005,0.007-0.014,0.011-0.022
						l-0.124-0.148L14.884,163.153z"/>
					<path fill="#FFFFFF" d="M10.039,210.605c0-0.208-0.007-0.411-0.034-0.593C9.988,210.355,10.003,210.523,10.039,210.605z"/>
					<path fill="#FFFFFF" d="M11.015,251.418c0.002-0.072,0.005-0.136,0.008-0.199c-0.02,0.063-0.039,0.148-0.055,0.243l0.046-0.035
						L11.015,251.418z"/>
					<path fill="#FFFFFF" d="M9.661,229.584c0.038-0.177,0.067-0.337,0.068-0.473C9.687,229.272,9.669,229.431,9.661,229.584z"/>
					<path fill="#FFFFFF" d="M12.599,274.261c0.048-0.225,0.024-0.412-0.027-0.579C12.496,273.822,12.479,274.005,12.599,274.261z"
						/>
					<path fill="#FFFFFF" d="M12.667,269.565l0.001,0.027C12.726,269.566,12.714,269.553,12.667,269.565z"/>
					<path fill="#FFFFFF" d="M12.785,266.566l0.01,0.053C12.837,266.586,12.845,266.567,12.785,266.566z"/>
					<path fill="#FFFFFF" d="M12.571,273.682c0.196-0.384,0.799-0.486,0.153-1.005l-0.091,0.099
						c0.158-0.298-0.089-0.749-0.102-1.098c-0.063,0.034-0.115,0.074-0.164,0.122c-0.012,0.177-0.035,0.406-0.087,0.762
						C12.133,272.983,12.44,273.267,12.571,273.682z"/>
					<path fill="#FFFFFF" d="M10.531,238.498C10.409,238.541,10.463,238.856,10.531,238.498L10.531,238.498z"/>
					<path fill="#FFFFFF" d="M10.923,242.555c0.01-0.131,0.02-0.262,0.03-0.397C10.927,242.283,10.9,242.409,10.923,242.555z"/>
					<path fill="#FFFFFF" d="M10.372,257.794c0.011-0.026,0.019-0.047,0.029-0.071C10.333,257.698,10.342,257.757,10.372,257.794z"
						/>
					<path fill="#FFFFFF" d="M10.968,241.79l-0.015,0.367C10.979,242.045,11,241.928,10.968,241.79z"/>
					<path fill="#FFFFFF" d="M10.843,253.227c0.006-0.022,0.017-0.045,0.019-0.063C10.853,253.177,10.846,253.199,10.843,253.227z"
						/>
					<path fill="#FFFFFF" d="M18.549,100.54c0.049,0.309-0.128,0.485-0.187,0.772c0.419,0.662,0.043-1.34,0.407-0.388
						c0.004-0.288-0.047-0.516-0.104-0.73l-0.42,0.401C18.391,101.168,18.394,100.219,18.549,100.54z"/>
					<path fill="#FFFFFF" d="M15.834,159.365l-0.04,0.131c0.189-0.086,0.246-0.003,0.358-0.502c-0.275-0.437-0.72,0.222-1.017-0.537
						c0.029,0.146,0.009,0.362-0.035,0.564C15.363,158.721,15.621,159.03,15.834,159.365z"/>
					<path fill="#FFFFFF" d="M15.1,159.021c-0.006,0.009-0.014,0.014-0.022,0.021c-0.04,0.031-0.074,0.066-0.104,0.106
						c-0.006,0.108-0.023,0.212-0.053,0.297C14.996,159.367,15.06,159.206,15.1,159.021z"/>
					<path fill="#FFFFFF" d="M18.115,110.709c-0.018,0.126-0.033,0.239-0.048,0.342C18.151,110.887,18.151,110.787,18.115,110.709z"
						/>
					<path fill="#FFFFFF" d="M15.242,211.681c0.037,0.149,0.078,0.296,0.118,0.414C15.345,211.868,15.299,211.754,15.242,211.681z"
						/>
					<path fill="#FFFFFF" d="M15.248,166.598c-0.035,0.113-0.057,0.231-0.074,0.36c0.004,0.076,0.008,0.141,0.014,0.23
						L15.248,166.598z"/>
					<path fill="#FFFFFF" d="M11.897,142.364c0.46,0.269-0.032-0.2,0.25-0.708l-0.236-0.485
						C11.826,141.607,11.893,142.016,11.897,142.364z"/>
					<path fill="#FFFFFF" d="M18.698,100.163c-0.015,0-0.027,0-0.042-0.005c0.004,0.013,0.006,0.021,0.01,0.037L18.698,100.163z"/>
					<path fill="#FFFFFF" d="M12.149,128.179c0.025-0.082,0.047-0.153,0.07-0.229C12.191,127.995,12.166,128.066,12.149,128.179z"/>
					<path fill="#FFFFFF" d="M14.828,161.858l-0.073,1.825l0.129-0.53C14.66,162.895,15.103,162.118,14.828,161.858z"/>
					<path fill="#FFFFFF" d="M11.43,150.142l-0.287,0.155c0.558,1.832-0.359,3.893,0.452,5.359
						c-1.051,2.188,0.855,1.473-0.087,3.479l0.144-0.064c-0.333,6.665-1.031,13.727-0.707,19.974l-0.199-0.019
						c-0.592,10.04-0.418,19.837-0.823,29.792c0.161,0.934,0.614,0.385,0.816,1.189c-0.026,0.348-0.022,1.135-0.267,1.133
						c-0.118-0.677-0.344-0.302-0.434-0.535c-0.002,1.121-0.322,2.56-0.047,3.566l0.336-0.828c0.124,0.392,0.018,0.999-0.006,1.352
						c-0.158-0.153-0.516,0.349-0.585,0.044c0.733,2.127-0.379,1.636-0.113,3.42c0.663,0.369,1.158,2.605,1.601,4.081l-0.193,0.764
						c0.029-1.021-0.491,0.006-0.427-1.258c-0.22,1.052,0.043,2.04-0.089,3.035c0.173-0.189,0.393-0.135,0.458,0.27
						c-0.107,0.612-0.446,0.658-0.497,1.357l-0.193-0.696c-0.264,0.459,0.058,0.869,0.088,1.304
						c-0.284,0.133-0.361,1.181-0.669,0.987c0.359,0.954,0.135,1.282,0.353,2.306c0.322-1.05,0.363,0.28,0.6,0.167l-0.082-1.194
						c-0.229,1.676-0.037-0.548-0.519-0.434c0.241-0.785,0.762,1.104,0.72-0.222c0.205,1.588-0.019,1.917,0.338,3.544
						c-0.066-0.978,0.307,0.193,0.466-0.327c-0.013,1.238-0.175,0.303-0.493,0.68c-0.003,0.673-0.281,0.915,0.057,1.543
						c-0.172,1.09-0.355-0.172-0.564,0.374c-0.32-0.412,0.482-3.03-0.578-2.758c0.003-0.57-0.382-1.275-0.34-2.098
						c-0.156,0.715-0.527,1.732-0.31,2.623l0.593,0.061c-0.002,0.674,0.397,0.822,0.333,1.306c-0.165-0.262-0.427,0.197-0.392,0.741
						c0.088-0.152,0.074-0.369,0.176-0.308c0.02,1.004,0.42,1.154,0.502,2.35c0.179-0.981,0.361-1.18,0.642-2.096
						c0.41,0.259,0.044,0.652,0.082,1.196c-0.055-0.083-0.063-0.196-0.149-0.04L11.322,236c-0.21,1.225-0.598-0.169-0.824,0.839
						c-0.366,0.691,0.171,0.962-0.04,1.495c0.038-0.036,0.078-0.073,0.108-0.102c-0.01,0.118-0.022,0.203-0.036,0.266
						c0.01-0.004,0.018-0.008,0.029-0.008c0.044,0.652-0.006,1.352,0.3,1.545c-0.143,0.063,0.027,0.569,0.118,0.784
						c0.115,0.367,0.46,1.246-0.053,1.775c-0.003-0.014,0-0.026-0.002-0.04c-0.08,0.811-0.252,1.439-0.416,1.26l-0.157,1.307
						l-0.401-0.149c0.08,1.195,0.319,1.083,0.716,1.912c-0.262,0.848-0.105,2.348,0.031,2.916c-0.018,0.095-0.023,0.238-0.008,0.477
						l0.171-0.494c-0.041,0.93,0.176,0.822,0.163,1.437c0.04-0.125,0.064-0.143-0.008,0.199c-0.012,0.104-0.024,0.216-0.039,0.352
						c-0.042-0.033-0.032-0.171-0.008-0.308l-0.138,0.109c-0.448,0.734,0.215,1.149,0.045,1.94
						c-0.013-0.077-0.038-0.204-0.032-0.285c-0.12,0.444-0.708,1.071-0.364,1.266c-0.047,0.103,0.019,0.263,0.102,0.418
						l-0.069,0.327c0.022-0.134,0.046-0.237,0.07-0.322c0.11,0.206,0.25,0.404,0.163,0.429l-0.101,1.142
						c-0.063,0.216-0.021,0.511,0.03,0.751l-0.173,0.19c0.015,0.416-0.084,0.418-0.13,0.367c-0.618,1.432,0.243,2.244-0.301,3.795
						c0.272,0.305,0.416-0.338,0.567-0.384c0.21,0.249,0.38,1.148,0.521,1.6c-0.404,0.687-0.799,2.814-1.349,2.458
						c-0.075,1.286,0.354-0.394,0.531,0.257l-0.025,0.146c0.076-0.443,0.276-0.786,0.497-1.031c0.303-0.091,0.363,1.051,0.268,1.396
						l-0.423-0.255c0.121,1.191,0.771,0.959,1.182,1.711c-0.193,0.941-0.568,0.388-0.958,0.577l0.082,0.997l-0.322-0.008
						c0.07,0.648,0.367,0.805,0.217,1.696c-0.287-0.654-0.333,1.334-0.719,0.43c-0.121,0.494,0.499,0.653,0.063,0.896
						c0.335,0.352,0.183-0.442,0.297-0.69c0.499-0.189,0.21,1.097,0.324,1.696c-0.257,0.043-0.291-0.405-0.479,0.292
						c0.189,0.148,0.329,0.599,0.083,0.99c0.322,0.009,0.045,0.797,0.016,1.194c0.074-0.445,0.326-1.086,0.597-0.786
						c0.121,0.351,0.178,0.651,0.115,1.444l0.164-0.541c0.455,0.704-0.37,1.134-0.244,2.082c-0.184-0.402-0.177-0.65-0.405-1.005
						c0.14,0.451,0.354,1.302,0.488,2.002l-0.491,0.783c0.234,0.105-0.042,0.895,0.279,0.902c-0.24,0.983-0.367-0.805-0.601-0.91
						c-0.244,1.237,0.512,1.007-0.01,2.188l-0.291-0.403c-0.031,0.396,0.121,1.195-0.031,1.241c0.108,0.002,0.069-0.197,0.076-0.446
						c0.639,0.261,0.405,1.846,1.075,1.714l0.057-0.546c0.108,0.842,0.544,1.451,0.293,2.091c-0.227,0.492-0.442-0.358-0.607-0.656
						c-0.063,0.789,0.714,0.659,0.626,1.603c0.12-0.495,0.354-0.394,0.518-0.092c0.057-0.545,0.212-1.682-0.072-1.489l-0.069,0.197
						c-0.171-0.054-0.228-0.354-0.31-0.505c0.019-0.745,0.31-0.34,0.442-0.486c0.137-1.239-0.663-0.118-0.613-1.254l0.132-0.146
						c-0.158-0.552-0.16-1.396-0.564-1.556c0.442-0.486-0.14-1.292,0.13-1.833c0.947-0.08-0.112,1.933,0.388,2.592
						c0.209-0.592,0.442,0.353,0.652,0.608l-0.362-1.895c0.133-0.146,0.617-0.686,0.282-1.037l-0.025,0.148
						c-0.089-0.75-0.48-0.559-0.335-1.202c0.088-0.097,0.233,0.105,0.297,0.157c0.101-0.595-0.203-0.503-0.278-0.902
						c0.099-0.595,0.379,0.308,0.497-0.187c-0.348-0.7,0.113-1.092,0.106-1.69c-0.543,0.242-0.672-2.397-1.175-1.116l-0.33-1.446
						c0.29-0.44,0.726,1.008,1.187,0.622l-0.048,1.143c0.671-0.174-0.376-2.405,0.387-3.146c0.045-0.609-0.053-0.462,0.308-1.61
						l-0.601,0.184c0.152-0.598,0.48-0.783,0.591-0.808c-0.03-0.354-0.007-0.67,0.027-0.994c0.085,0.088,0.163,0.212,0.188,0.425
						c0.342-0.443,0.222-0.577,0.05-0.74c-0.145-0.247-0.115-0.617-0.101-0.992l0.213,0.345c-0.044-0.232-0.102-0.514-0.208-0.542
						c0.002-0.156-0.008-0.305-0.042-0.447c-0.106,0.099-0.459,0.338-0.627,0.872c0.269-1.386,0.167-2.478,0.689-3.658
						c0.17,0.049,0.373,0.552,0.398,0.403c0.101-0.595-0.184-1.248-0.443-1.2c-0.014-0.136-0.017-0.24-0.017-0.33
						c0.151-0.109,0.313-0.246,0.346-0.528c0.056-0.063,0.105-0.171,0.13-0.373c-0.468-0.211-0.203-1.349-0.412-1.601
						c-0.056,0.269-0.06,0.599-0.052,0.933c-0.303-0.486-0.653-0.925-0.39-1.289c0.278,0.897,0.516-0.937,0.613,0.408
						c0.623-0.929-0.417-0.503-0.179-1.496l0.252-0.64c0.341,0.107,0.146,1.049,0.278,0.902l-0.032-0.448
						c0.247,0.453,0.035,2.139,0.395,3.188l0.244-2.082c-0.344-2.641,0.208-5.908-0.49-8.159l0.007,0.095
						c-0.032-0.04-0.096-0.061-0.226-0.096l0.088-0.098l-0.248-0.449c0.334-0.493,0.421-1.432,0.697-2.225
						c-0.226,0.496-0.226,0.496-0.484,0.539c-0.342-0.107-0.486-0.188-0.34-0.932c0.244-0.002,0.227,0.459,0.435-0.088
						c-0.127,0.282-0.293,0.024-0.316-0.302c0.168-0.416,0.22-1.115,0.466-1.118c0.062,0.196-0.026,0.352-0.066,0.482
						c0.061,0.195,0.24-0.785,0.426-0.202l-0.051-0.761c0.216-0.438,0.315,0.302,0.451,0.129c-0.135-1.265-0.681-1.925-0.819-3.072
						c0.128,0.058,0.674,0.084,0.516,0.067c0.186-0.875-0.546-1.899-0.565-2.899c0.157,0.15,0.083,0.522,0.154,0.827
						c0.284-3.054,0.357-5.556,0.948-8.412l-0.542-0.76l0.392-0.74c0.433-3.01,0.129-5.336,0.033-8.209
						c-0.013-0.896,0.404-0.528,0.572-0.944c0.112-1.959-0.508-2.454-0.587-4.328c0.166,0.262,0.637,0.713,0.68-0.091
						c-0.158-0.154-0.41-0.259-0.297-0.765l0.166,0.263c0.263-0.458,0.036-0.912,0.167-1.871c0.031-1.699-0.325-3.331-0.909-4.743
						c0.094-1.501,0.6,0.171,0.728-0.112c-0.231,1.055,0.081,0.739,0.269,0.975c-0.145-0.564-0.225-1.245,0.182-1.523
						c-0.004-0.782,0.022-1.135-0.228-1.914c0.125,0.392-0.099,0.721-0.271,0.352c0.155-0.635,0.043-2.265,0.541-2.162
						c-0.005-3.703,0.203-7.839,0.279-11.802c-0.242-0.675-0.113,0.504-0.285,0.133c-0.312-0.979,0.193-0.764-0.055-1.547
						l0.265,0.327c0.07-1.155-0.405-2.397-0.629-3.523c0.306,0.192,0.28-0.916,0.442,0.02c-0.038-0.548,1.369-1.18,1.094-1.609
						l-1.31,0.585c-0.126-0.033-0.029-0.799-0.117-0.725c0.268-0.473,0.583-1.052,0.59-1.384c0.331-0.152,0.24,0.677,0.221,1.133
						c0.544,0.082,0.388-1.527,0.873-0.854c-0.065-0.979-0.284,0.133-0.471-0.458l0.139-0.849l-0.2,0.653
						c-0.146-0.716-0.555-0.97-0.227-1.911l-0.509-0.998c0.434-0.089,0.097-0.717,0.21-1.222l0.268,0.324
						c0.003-0.673,0.083-0.934,0.252-1.35c0.369,0.389-0.107,0.607,0.248,0.779l0.146-0.738c-0.244-0.001-0.424-0.479-0.585,0.049
						c-0.438-0.698-0.807-1.082-0.727-2.803c0.438-0.767,0.35,0.845,0.77,0.532c0.222-1.782-1.032-2.212-0.955-3.254
						c0.204-1.329-0.184-1.262-0.177-2.613c0.274,0.437,0.328-0.937,0.605-1.179l0.282,0.541c-0.078-0.412,0.043-0.804,0.248-0.677
						c-0.387,0.066-0.316-1.762-0.477-2.697l-0.332,0.154c-0.091-0.729-0.273-1.742-0.169-2.513c-0.077-1.15-0.374-0.896-0.71-1.79
						c0.309-0.48,0.657-0.418,1.013-0.246c-0.176,0.303-0.091,0.825-0.205,1.328c0.247,1.458,0.911,2.604,0.715,4.046
						c0.78,0.648-0.068-0.978,0.229-1.675c0.047,0.023,0.061,0.073,0.068,0.128c0.003-0.063,0.008-0.118,0.027-0.176
						c0.084,0.521,0.19,1.37,0.593,1.52c-0.06-0.869-0.778-0.647-0.41-1.719c-0.202-0.806,0.44-1.44,0.507-1.922
						c-0.284-0.541-0.922-0.579-0.766-1.887l0.432,0.585c0.045-1.481-0.636-0.712-0.582-2.084c-0.065,0.481-0.426-0.478-0.461,0.439
						c-0.227-0.456-0.247-1.457-0.1-2.199c-0.063-0.196-0.15-0.045-0.301-0.085c-0.331,0.819,0.268,1.313-0.194,1.98l0.466,0.585
						c-0.193,0.763-0.581,0.831-0.759,0.356c0.015,0.218,0.076,0.409-0.012,0.565c-0.726,0.112,0.28-0.916-0.326-1.197l0.038,0.543
						c-0.476,0.224-0.381-1.276-0.331-1.975c0.24-0.785,0.338-1.506,0.679-1.552l0.12,1.065c0.286-0.544-0.126-1.359-0.097-1.978
						c0.048-0.04,0.084-0.098,0.111-0.17c-0.031,0.031-0.063,0.049-0.096,0.048c0.021-0.131,0.064-0.247,0.149-0.345
						c0.031-0.541-0.157-1.342-0.036-1.845l-0.305,0.056l0.169,0.071c-0.024,0.497-0.228,1.166-0.445,0.785
						c-0.183-1.126,0.408-1.337,0.679-1.598c0.46,0.27-0.032,1.094,0.113,1.667c0.468-0.332,0.076-1.138,0.41-2.286
						c0.494,0.473-0.041,1.341,0.419,1.605c0.109-0.928-0.243-1.181-0.09-2.158c0.231,0.131,0.229,1.086,0.531,1.031l0.16-0.625
						c-0.009,1.546,0.636-0.256,0.729,0.954c0.221-0.564-0.392-0.806-0.052-1.606c-0.226,0.221-0.643,0.856-0.82,0.078l0.17-0.872
						c0.253-0.36,0.515,0.926,0.735,0.362l-0.149-0.922c-0.151,0.028-0.238,0.464-0.438,0.184c0.175-0.525-0.561-0.882-0.768-1.511
						c0.024-0.497,0.065-0.889,0.246-1.061c-0.414-1.263-0.359-2.848-0.754-4.011c0.283,0.793,0.516-0.019,0.755-0.483
						c0.041,0.907,0.513,0.925,0.818,0.871c-0.037-0.553-0.515-0.926-0.68-0.652c0.216-0.915-0.312-0.643,0.026-1.444
						c0.177-0.52,0.46,0.274,0.642,0.098c0.046-0.994-0.567-0.286-0.429-1.362c0.062,0.06,0.078,0.16,0.168,0.076
						c0.114-0.58-0.093-1.214-0.324-1.345c0.631-0.604-0.022-1.751,0.572-1.614c-0.125-1.414-0.333,0.202-0.534-0.081
						c-0.251-0.584-0.007-1.646,0.097-1.978c0.004,0.348,0.161,0.673,0.059,1.005l0.423-0.287c0.34-1.747-0.914-1.136-0.51-2.821
						c0.195,0.877,0.308,0.297,0.59,0.738c-0.098-0.265,0.052-1.59-0.286-0.793c0.051-0.636,0.137-1.077,0.224-1.514
						c-0.146-0.569-0.246-1.186-0.509-1.521c0.065-0.89,0.377-1.542,0.569-1.964c-0.254-1.881,0.303-3.599,0.032-5.581l-0.029,0.144
						c0.116-1.529-0.57,0.664-0.515-0.926c0.505,0.225,0.368-0.945,0.65-1.453c0.311-1.945-0.288-3.384,0.099-5.174
						c0.106,0.016,0.23,0.137,0.235,0.485c0.195-1.37,0.12-2.479,0.179-3.716l0.061,0.056c0.462-1.974,0.01-3.788-0.061-5.847
						c0.06,0.168,0.251,0.216,0.316,0.347c0.141-1.032,0.256-2.684-0.19-3.422c0.532-1.216-0.132-0.817,0.394-2.386
						c0.092-0.088,0.08,0.159,0.097,0.265c0.188-0.773,0.149-1.326,0.229-2.11c-0.281-1.743-0.926-2.188-0.679-4.199
						c0.696-0.086,0.141,1.242,0.691,1.301c-0.112-0.405-0.246-0.757-0.067-1.308c0.262,0.341,0.168,0.076,0.416,0.313
						c0.193-0.42-0.679-1.73-0.614-1.72c-0.133-0.026-0.21,0.117-0.2,0.516c-0.414-0.481,0.014-1.981-0.133-2.961
						c-0.02,0.316-0.18,1.311-0.498,0.928c0.179-1.307-0.476-1.757-0.728-2.681c0.343-1.199,0.56,0.904,1.05,0.69
						c0.182-0.199,0.583-0.672,0.759-0.162c0.13-1.082-0.266-1.874-0.347-2.843l0.136,0.03c-0.022-1.352-0.586-2.809-0.282-3.936
						l-0.171,0.597c-0.077-0.223-0.02-0.904-0.291-1.287c0.228,0.046,0.455-0.83,0.633-0.463c-0.716-0.619-0.367-3.083-1.042-3.773
						c0.192-0.357,0.481-0.061,0.645,0.052c-0.085,0.852-0.236,1.138,0.044,1.592c0.007-0.709,0.208-1.225,0.372-1.112
						c-0.437-0.721-0.574-2.415-1.02-2.783c0.242-0.514,0.377-1.004,0.751-0.813c-0.181-2.182-1.195,1.046-1.128-1.411
						c0.395-1.111,0.47,1.105,0.633-0.437l0.053,0.286c1.003-1.092-0.677-0.799-0.612-2.063c0.536-0.155,0.357,0.89,0.76,0.028
						c-0.105-1.16-0.88-1.686-0.681-2.838l0.221,0.186c-0.024-0.742,0.121-2.176,0.097-2.914c0.106-0.033,0.088,0.075,0.113,0.215
						c0.235-1.359-0.257-0.576,0.138-1.683l-0.25-0.327c-0.197,0.556-0.484,1.633-0.198,2.35c-0.286-0.717-0.7,1.095-1.145,0.731
						l0.179,0.145c-0.826,1.833-0.983,4.216-1.334,6.559c0.506,1.495-0.281,2.516,0.054,4.115c0.615,0.264,0.118,0.301,0.208,1.669
						c-0.06-0.725-0.47-0.098-0.566,0.356c0.154,0.271,0.204,0.597,0.252,0.924c-0.219,0.27-0.762,1.979-0.356,2.618
						c-0.22,0.826-0.194-0.199-0.318-0.383c-0.327,0.331,0.233,0.683,0.012,0.954c0,0-0.067-0.015-0.096-0.103
						c-0.006,1.271-0.187,2.026-0.298,3.348c0.606,0.124,0.197,1.307,0.4,1.9c-0.192-0.195-0.247,0.74-0.371,1.112l0.435,0.721
						c0.368,0.71-0.295,0.969-0.109,1.88l0.115-0.216c0.166,0.668-0.244,2.403-0.588,3.046c1.038,6.152-0.905,9.453-0.743,15.913
						c0.173,0.425,0.316-0.299,0.579,0.037c0.054,0.657,0.025,0.805,0.019,1.402c0.176-0.523-0.029-0.444,0.139-0.372l-0.149-0.919
						c0.046-0.042,0.062,0.058,0.151-0.025c-0.049-0.309-0.162-0.673-0.12-1.067c0.144,0.57,0.59,0.739,0.4,1.508
						c-0.061-0.061-0.078-0.16-0.111-0.365c-0.051,0.636,0.163,0.673,0.032,1.15c-0.114,0.584,0.028,0.443-0.169,0.515l-0.288,1.815
						c0.515,0.921-0.025,2.029-0.082,2.321c-0.398-0.208-0.094-1.209-0.479-1.667l-0.311,0.649l0.322,0.048l-0.112,0.933
						l-0.061-0.054c0.123,0.114,0.246,0.231,0.128,0.467c-0.046,0.04-0.136,0.128-0.152,0.023l0.162,0.673
						c-0.325-0.397-0.115,0.583-0.497,0.476c-0.248,2.173,0.45,2.783-0.123,4.685c0.189-0.307,0.592,0.622,0.507,1.208
						c-0.102,0.339-0.192,0.423-0.333,0.202l0.178,0.777c-0.625,0.952-0.262,1.906-0.503,3.319l-0.168-0.079
						c0.188,0.531,0.334,1.1,0.252,1.889l-0.336-0.153c-0.263,0.958,0.694,0.754,0.451,1.815c0.365,0.003,0.568-0.664,0.917-0.759
						c-0.377,0.243-0.46,1.386-0.19,1.125c0.122,1.065-0.028,0.736-0.118,0.824l0.207,0.629c-0.037,0.746-0.484,0.228-0.687-0.053
						c0.375,0.706,0.08,1.458-0.001,2.246l-0.156-0.324l-0.092,1.038c0.268,0.685,0.266,1.634,0.094,2.507l-0.465-0.618
						c-0.265,0.608,0.159,0.321,0.236,0.485c0.21,0.977-0.121,1.177-0.405,1.683C12.069,147.282,10.742,148.791,11.43,150.142z
						 M10.609,257.43l0.076-0.143C10.76,257.614,10.833,257.801,10.609,257.43z M10.959,248.891
						c0.162,1.033-0.057,0.701-0.191,0.775c0.156-1.009,0.017-1.577,0.196-2.468c-0.099,0.142-0.229,0.166-0.31,0.209
						c0.032-0.355,0.146-0.71,0.394-0.826C11.52,247.036,10.669,249.329,10.959,248.891z M12.854,268.182
						c-0.036-0.037-0.071-0.078-0.104-0.124c0,0,0,0,0-0.005L12.854,268.182z M12.553,263.079c0.106-0.069,0.166-0.194,0.208-0.348
						C12.63,262.823,12.522,262.911,12.553,263.079z M13.4,252.96c0.207-0.229,0.159-0.765,0.123-1.154
						C13.496,251.986,13.426,252.311,13.4,252.96z M14.778,189.019c0.07,0.31,0.257,0.893,0.417,0.368
						c-0.166-0.258,0.145-0.738-0.113-0.959c0.01-0.029,0.017-0.034,0.025-0.052C14.935,188.68,14.791,188.929,14.778,189.019z
						 M13.893,158.924c0.196,0.06,0.405,0.29,0.559,0.149c-0.005,0.025-0.012,0.059-0.018,0.086
						c0.069-0.075,0.126-0.138,0.168-0.077c0.045-0.243,0.1-0.5,0.047-0.673C14.006,158.31,13.916,157.79,13.893,158.924z"/>
					<path fill="#FFFFFF" d="M16.292,169.029c-0.007-0.118,0-0.208-0.008-0.28C16.282,168.825,16.285,168.911,16.292,169.029z"/>
					<path fill="#FFFFFF" d="M14.645,158.459c-0.041-0.023-0.112,0.264-0.193,0.614C14.534,159.003,14.603,158.833,14.645,158.459z"
						/>
					<path fill="#FFFFFF" d="M10.264,284.695l-0.057-0.3l-0.208,0.592c0.19,0.999,0.468,1.056,0.784,1.308
						c-0.278-0.897-0.114-1.44-0.173-2.586L10.264,284.695z"/>
					<path fill="#FFFFFF" d="M12.422,284.243c0.088-0.098,0.311-0.341,0.335-0.489l-0.191-0.154L12.422,284.243z"/>
					<path fill="#FFFFFF" d="M13.657,272.493l-0.195,0.939C13.625,273.734,13.954,272.648,13.657,272.493z"/>
					<path fill="#FFFFFF" d="M10.158,276.596l0.204,0.503c0.183-0.442,0.176-1.04-0.057-1.145
						C10.418,276.553,10.17,276.099,10.158,276.596z"/>
					<path fill="#FFFFFF" d="M13.761,269.959c-0.379-0.304,0.196-0.94-0.165-1.144C13.697,269.066,13.375,269.903,13.761,269.959z"
						/>
					<path fill="#FFFFFF" d="M10.07,270.531c-0.373,0.289-0.063,0.794-0.164,1.389C9.918,271.423,10.322,270.736,10.07,270.531z"/>
					<path fill="#FFFFFF" d="M12.791,264.872c0.275,0.056,0.246,0.452,0.17,0.898c-0.083-0.151-0.208-0.254-0.247-0.454
						c0.196,0.751,0.152,0.8,0.266,1.399c0.208-0.592,0.357-1.483,0.698-1.38C13.432,264.888,13.06,264.331,12.791,264.872z"/>
					<path fill="#FFFFFF" d="M10.061,269.093c-0.12,0.495-0.383,0.786-0.376,1.384c0.196-0.1,0.481-0.291,0.453-0.988l0.316,0.257
						C10.706,269.104,10.02,269.987,10.061,269.093z"/>
					<path fill="#FFFFFF" d="M13.606,262.156l-0.156,0.296c0.24,0.702,0.089,1.592,0.488,1.995
						C13.937,263.606,13.79,262.559,13.606,262.156z"/>
					<path fill="#FFFFFF" d="M10.721,266.668l-0.448-0.105c-0.081,0.694,0.152-0.046,0.253,0.205
						c-0.07,0.197-0.119,0.494-0.036,0.641C10.443,266.616,10.854,267.368,10.721,266.668z"/>
					<path fill="#FFFFFF" d="M10.282,264.374l-0.17-0.895l-0.51,0.684C9.747,265.211,9.88,264.22,10.282,264.374z"/>
					<path fill="#FFFFFF" d="M10.61,263.287l0.088-0.097l-0.632-1.354C10.325,262.64,10.281,262.688,10.61,263.287z"/>
					<path fill="#FFFFFF" d="M13.943,247.164c-0.19-0.153-0.449,0.622-0.226,0.293C13.873,247.611,14.149,246.572,13.943,247.164z"
						/>
					<path fill="#FFFFFF" d="M10.253,250.269c0.155-0.376-0.088-1.63-0.208-2.18C10.123,248.741,9.989,250.353,10.253,250.269z"/>
					<path fill="#FFFFFF" d="M9.998,247.866c0.009,0.043,0.027,0.127,0.047,0.223C10.034,247.989,10.021,247.916,9.998,247.866z"/>
					<path fill="#FFFFFF" d="M9.578,224.885c-0.005-0.059-0.017-0.118-0.047-0.169C9.547,224.775,9.561,224.825,9.578,224.885z"/>
					<path fill="#FFFFFF" d="M9.677,225.435c-0.074,0.368,0.025,1.108,0.23,1.239c-0.084-0.585-0.13-1.102-0.33-1.789
						C9.594,225.141,9.44,225.451,9.677,225.435z"/>
					<path fill="#FFFFFF" d="M9.908,220.165c0.116,0.277,0.044,0.651,0.233,0.561C10.229,220.574,10.043,219.986,9.908,220.165z"/>
					<path fill="#FFFFFF" d="M16.428,184.792c0.114-0.504,0.043-0.804-0.241-0.675C16.177,184.687,16.353,184.379,16.428,184.792z"
						/>
					<polygon fill="#FFFFFF" points="16.144,183.465 16.285,183.401 16.508,183.072 					"/>
					<path fill="#FFFFFF" d="M16.642,179.979c0.044,0.027,0.091,0.119,0.118,0.214C16.726,179.994,16.691,179.826,16.642,179.979z"
						/>
					<path fill="#FFFFFF" d="M16.775,180.294c-0.002-0.032-0.008-0.068-0.015-0.101L16.775,180.294z"/>
					<path fill="#FFFFFF" d="M16.68,180.521l0.149,0.043c-0.021-0.058-0.037-0.166-0.054-0.271
						C16.782,180.389,16.76,180.487,16.68,180.521z"/>
					<path fill="#FFFFFF" d="M16.719,178.932l-0.445,0.655c0.194,0.699,0.239-0.782,0.679-0.089L16.719,178.932z"/>
					<path fill="#FFFFFF" d="M16.658,176.606c0.155-0.634-0.497-1.567,0.019-1.917c-0.22-1.809-0.855,0.395-0.996-1.672
						c-0.31,1.942,0.952,1.016,0.627,2.739C16.643,174.929,16.543,176.323,16.658,176.606z"/>
					<path fill="#FFFFFF" d="M15.797,176.893c0.252,0.108,0.294-0.698,0.131-0.955C15.895,176.171,15.53,176.569,15.797,176.893z"/>
					<polygon fill="#FFFFFF" points="16.518,173.076 16.728,172.53 16.568,172.382 					"/>
					<path fill="#FFFFFF" d="M16.672,170.988l0.281,0.544C16.842,171.353,16.885,170.55,16.672,170.988z"/>
					<path fill="#FFFFFF" d="M17.111,168.087c0.113-0.504-0.557-0.978-0.435,0.093l0.032-0.243
						C16.813,168.002,17.067,167.435,17.111,168.087z"/>
					<path fill="#FFFFFF" d="M16.211,161.323c-0.023,0.348,0.053,0.761,0.196,0.692l-0.115-0.957L16.211,161.323z"/>
					<path fill="#FFFFFF" d="M14.554,161.422c-0.422,0.311,0.011,0.896-0.142,1.524C14.51,162.23,14.564,162.317,14.554,161.422z"/>
					<path fill="#FFFFFF" d="M16.826,160.249c0.164,0.262,0.044,0.657,0.011,0.896C17.075,161.033,17.031,160.376,16.826,160.249z"
						/>
					<path fill="#FFFFFF" d="M16.722,158.728c0.174-0.308,0.229,0.073,0.349-0.158c0.204-0.664,0.196-1.365-0.023-1.75
						c-0.181,0.171-0.665,0.398-0.866,0.118c0.119,1.07,0.873,1.635,0.27,2.14l0.698,0.909
						C17.289,159.135,16.663,159.318,16.722,158.728z"/>
					<path fill="#FFFFFF" d="M15.298,160.849l0.255-0.565c-0.237,0.109-0.267-0.325-0.336-0.63
						C14.686,159.789,15.275,160.522,15.298,160.849z"/>
					<polygon fill="#FFFFFF" points="16.552,152.806 16.46,151.592 16.42,151.984 					"/>
					<polygon fill="#FFFFFF" points="16.74,152.033 16.893,152.005 16.637,151.072 					"/>
					<polygon fill="#FFFFFF" points="16.951,150.768 16.924,150.912 17.039,151.627 					"/>
					<path fill="#FFFFFF" d="M17.116,148.245l-0.227,0.217c0.051,0.308-0.214,0.916,0.088,0.865
						C16.883,149.057,16.935,148.421,17.116,148.245z"/>
					<path fill="#FFFFFF" d="M11.679,139.734c0.142,0.223,0.275,0.095,0.411-0.033l-0.37-0.357
						C11.737,139.448,11.77,139.652,11.679,139.734z"/>
					<path fill="#FFFFFF" d="M12.331,138.288l-0.409-0.91c-0.092,1.033,0.244,1.186,0.288,2.091
						c0.146-0.379-0.149-0.921-0.019-1.402L12.331,138.288z"/>
					<path fill="#FFFFFF" d="M13.11,120.287c0.275,0.088,0.242-0.116,0.405,0.557c-0.15-0.921-0.069-1.706-0.084-2.756
						c-0.18,0.173-0.463-0.616-0.398-0.212l0.138,1.174l-0.185-0.181C12.752,119.686,13.282,119.414,13.11,120.287z"/>
					<path fill="#FFFFFF" d="M17.225,73.309c0.132,0.112,0.258-0.025,0.383-0.165C17.475,72.442,17.25,73.449,17.225,73.309z"/>
				</g>
			</g>
		</g>
	</g>
</g>
</svg>
