<?xml version="1.0" encoding="utf-8"?>
<!-- Generator: Adobe Illustrator 16.0.0, SVG Export Plug-In . SVG Version: 6.00 Build 0)  -->
<!DOCTYPE svg PUBLIC "-//W3C//DTD SVG 1.1//EN" "http://www.w3.org/Graphics/SVG/1.1/DTD/svg11.dtd">
<svg version="1.1" id="Capa_1" xmlns="http://www.w3.org/2000/svg" xmlns:xlink="http://www.w3.org/1999/xlink" x="0px" y="0px"
	 width="453px" height="244px" viewBox="0 0 453 244" enable-background="new 0 0 453 244" xml:space="preserve">
<g>
	<g>
		<g>
			<g>
				<g>
					<path fill="#FFFFFF" d="M54.297,8.604c-0.035,0.033-0.062,0.074-0.074,0.131C54.288,8.682,54.305,8.64,54.297,8.604z"/>
					<path fill="#FFFFFF" d="M86.052,9.446l-0.37,0.063C85.923,9.5,86.017,9.477,86.052,9.446z"/>
					<path fill="#FFFFFF" d="M35.268,8.248c0.027-0.011,0.027-0.019,0.046-0.031c-0.295-0.005-0.692-0.012-1.338-0.023L35.268,8.248
						z"/>
					<path fill="#FFFFFF" d="M153.793,10.393l-0.424,0.004C153.56,10.399,153.684,10.413,153.793,10.393z"/>
					<path fill="#FFFFFF" d="M113.648,9.76c0.125-0.054,0.334-0.074,0.541-0.092C113.928,9.659,113.722,9.67,113.648,9.76z"/>
					<path fill="#FFFFFF" d="M25.216,5.423l0.541,0.191C25.747,5.532,25.554,5.446,25.216,5.423z"/>
					<path fill="#FFFFFF" d="M5.913,6.194c0.016,0.014,0.02,0.025,0.051,0.043C5.991,6.219,5.96,6.206,5.913,6.194z"/>
					<path fill="#FFFFFF" d="M13.456,6.959c0.162-0.017,0.35-0.05,0.541-0.083C13.767,6.882,13.476,6.882,13.456,6.959z"/>
					<path fill="#FFFFFF" d="M14.253,6.829c-0.082,0.015-0.171,0.032-0.257,0.047C14.141,6.87,14.257,6.862,14.253,6.829z"/>
					<path fill="#FFFFFF" d="M399.834,9.454c0.557,0.008,1.031-0.137,1.53-0.256L399.834,9.454z"/>
					<path fill="#FFFFFF" d="M215.127,10.504l-0.12,0.078C215.12,10.557,215.139,10.53,215.127,10.504z"/>
					<path fill="#FFFFFF" d="M400.526,7.797l0.393,0.039C400.775,7.805,400.646,7.795,400.526,7.797z"/>
					<path fill="#FFFFFF" d="M35.438,4.915c0.557-0.186,1.7,0.037,1.692-0.145C36.54,4.799,35.703,4.659,35.438,4.915z"/>
					<path fill="#FFFFFF" d="M228.091,3.458l0.369-0.01C228.283,3.446,228.175,3.45,228.091,3.458z"/>
					<path fill="#FFFFFF" d="M400.526,7.797l-0.455-0.045c0.039,0.035,0.09,0.063,0.136,0.094
						C400.309,7.819,400.415,7.801,400.526,7.797z"/>
					<path fill="#FFFFFF" d="M278.994,10.584h-0.02c-0.047,0.012-0.081,0.021-0.129,0.033L278.994,10.584z"/>
					<path fill="#FFFFFF" d="M282.382,10.887c-0.237,0.02-0.467,0.039-0.724,0.061C282.042,10.967,282.242,10.936,282.382,10.887z"
						/>
					<path fill="#FFFFFF" d="M401.364,9.198l0.874-0.146C401.923,9.073,401.639,9.132,401.364,9.198z"/>
					<path fill="#FFFFFF" d="M318.901,10.614c-0.116,0.008-0.229,0.016-0.334,0.023C318.711,10.64,318.82,10.632,318.901,10.614z"/>
					<path fill="#FFFFFF" d="M111.073,9.651c-0.082-0.018-0.197-0.027-0.296-0.041C110.746,9.653,110.765,9.684,111.073,9.651z"/>
					<polygon fill="#FFFFFF" points="136.307,4.682 136.315,4.682 136.315,4.678 					"/>
					<path fill="#FFFFFF" d="M134.961,4.914c0.42,0.042,1.023-0.093,1.346-0.231C135.883,4.682,135.484,4.721,134.961,4.914z"/>
					<path fill="#FFFFFF" d="M139.2,4.778c-0.053-0.008-0.096-0.014-0.158-0.023C139.098,4.768,139.147,4.776,139.2,4.778z"/>
					<path fill="#FFFFFF" d="M112.092,4.407c0,0.006-0.004,0.014,0,0.02c0.008-0.007,0.012-0.011,0.016-0.018L112.092,4.407z"/>
					<path fill="#FFFFFF" d="M117.46,4.376c0.095,0.037,0.226,0.064,0.37,0.083C117.74,4.423,117.616,4.392,117.46,4.376z"/>
					<path fill="#FFFFFF" d="M152.564,4.25c-0.004,0.002-0.004,0.006-0.004,0.008c0.011-0.001,0.016-0.001,0.027-0.002
						C152.578,4.254,152.571,4.252,152.564,4.25z"/>
					<path fill="#FFFFFF" d="M203.164,2.872c-5.079,0.11-11.661,0.488-16.694,0.379c-1.097,0.386-2.694,0.398-4.298,0.484L182,3.224
						l-1.338,0.164c-0.545-0.154,1.031-0.095,0.066-0.289l-0.506,0.317c-0.105-0.183-3.437-0.121-1.19-0.488l-5.201-0.002
						c-1.151-0.016-0.673,0.426-1.945,0.3c-0.257-0.149,0.459-0.103,0.354-0.286c-3.816-0.379-4.412,0.99-7.971,0.757l0.303-0.068
						c-0.607,0.136-1.758,0.118-1.774,0.191c0.459,0.516,0.64-0.279,1.727,0.025c-0.097,0.434-1.354,0.233-1.284,0.563
						c-0.833-0.157-1.322,0.089-2.05,0.115c-1.237-0.272-3.015-0.079-3.948-0.418c-0.607,0.137-1.284,0.563-2.587,0.58
						c-0.934-0.339,0.22-0.324-1.052-0.451L153.4,4.487c-1.042-0.039-0.879-0.109-0.84-0.228c-1.117-0.011-0.93,0.345-2.327,0.184
						l0.778-0.245c-1.035,0.096-1.455,0.053-2.895,0.031c0.031-0.145,0.609-0.135,1.031-0.093c-0.782-0.373-1.338,0.161-1.762,0.12
						c0.121,0.109,1.12,0.16,0.63,0.407c-0.712-0.046-1.521,0.341-2.03,0.044l0.78-0.242c-1.492,0.195-0.797,0.314-2.507,0.217
						c0.092-0.02,0.047-0.082,0.086-0.134c-1.085,0.322-2.5,0.029-4.1,0.005l0.303-0.067c-0.646,0.085-1,0.31-1.348,0.292
						c0.912,0.145,0.663,0.219,0.745,0.461c-1.206-0.416-1.84,0.48-3.81,0.234c0.033-0.144,0.507-0.318,1.048-0.166
						c0.673-0.426,0.756-0.788,1.957-0.987c-0.747,0.099-1.626,0.158-1.439-0.021l-0.233,0.396c-0.451,0.01-0.809-0.014-1.151-0.014
						c-0.192,0.25,0.914,0.41-0.132,0.574C135,5.385,135.555,4.85,135.37,5.028c-1.626,0.158-0.673,0.425-2.237,0.294
						c0.156-0.033,0.459-0.102,0.595-0.064c-1.12-0.16-2.756,0.071-3.084-0.407c0.167-0.107,0.198-0.25,0.622-0.209l-0.016,0.072
						c1.233-0.346-1.031,0.094-0.646-0.336c0.085,0.257-1.49,0.198-2.202,0.15l0.226,0.293c-2.365,0.873,0.128-0.578-2.209-0.466
						c-1.486,0.197,0.56,0.082-0.35,0.287c-1.004-0.051-1.377-0.311-2.848-0.185c-0.409-0.116-1.241-0.272-1.311-0.599
						c-0.893,0.132-2.711-0.147-3.217,0.171c1.525,0.275,1.521-0.342,3.302,0.084l-0.501,0.318
						c-1.233-0.018-2.813,0.144-3.665,0.027c0.171,0.063,0.249,0.145,0.14,0.213c-1.758,0.12-2.264,0.439-3.976,0.342
						c-0.224-0.293,0.778-0.242,1.505-0.268c-1.101-0.234-1.151-0.018-2.863-0.113c-0.089-0.256,1.152,0.016,1.35-0.234l-1.895,0.08
						c0.008-0.016,0-0.033,0-0.052c-0.276,0.427-1.445-0.038-2.604,0.089c-2.744-0.004-3.165,0.57-4.686,0.912
						c-0.408-0.115-0.529-0.225-0.356-0.332c0.675,0.19,0.555,0.041,0.79-0.07c-0.928,0.044-2.029-0.42-1.512-0.592
						c-1.47,0.123,0.531,0.225-0.369,0.358l-2.015-0.029c0.237,0.22,0.949,0.267-0.097,0.434c-0.879,0.06-1.303,0.017-2.455,0.001
						c0.167-0.107-0.362-0.332,0.501-0.318c-0.556-0.082-1.424-0.093-1.758,0.119c1.257,0.199-2.065,0.188-1.128,0.527l-1.256-0.199
						c0.288,0.004,0.319-0.141,0.743-0.098c-0.358-0.332-1.031,0.094-1.47,0.125c-0.443-0.064-1.593-0.094-1.688-0.222
						c-0.396,0.092-1.369,0.019-1.552-0.15c-0.591,0.065-0.046,0.216-0.22,0.324l-2.013-0.029c-0.105-0.184-0.274-0.694,0.029-0.762
						c-0.762,0.17-0.272,0.541-1.422,0.523c0.66-0.354-1.521-0.274-0.564-0.697c-0.659-0.262-2.54-0.252-3.575-0.158
						c-0.642,0.281,1.12,0.16,1.054,0.45c-2.91,0.103-3.089,0.9-5.225,0.76l0.557,0.081C78.466,5.636,78.618,5.6,77.84,5.844
						c0.37-0.357-1.513-0.965-3.699-0.889c-0.187,0.181,1.224,0.344,0.868,0.629l-1.455,0.053c-0.105-0.028,0.054-0.088,0.241-0.134
						c-1.303,0.126-2.423-0.468-2.801-0.048L69.671,4.93l0.525,0.225c-0.183,0.177-1.642,0.23-1.945,0.299
						c-1.492,0.197-2.034,0.043-2.849-0.186c0.258,0.148,0.904,0.484-0.267,0.54c0.012-0.582-2.462-0.217-2.427-0.518
						c-0.475,0.007-1.315-0.174-1.37,0.066l0.08-0.362C61.308,5.5,59.58,5.476,58.258,5.565c0.299-0.686-1.453,0.052-2.039-0.572
						c-0.249,0.466-2.35,0.183-2.583,0.58c-1.019,0.022-0.918-0.412-1.175-0.561l-0.475,0.174c-0.514-0.219-2.427-0.252-3.563-0.402
						l-1.058,0.41l-0.393-0.187c-0.167,0.105-1.046,0.166-0.502,0.319l-0.572-0.024c-0.047,0.449-0.801,0.123-1.949,0.314
						c-0.265-0.072-0.195-0.18,0.054-0.24c-0.572-0.004-0.327-0.235-0.638-0.385c0.404,0.115-2.058,0.805-0.518,1.008
						c0.105,0.184-0.793,0.317-1.354,0.236l-0.342-0.404L40.48,6.256c-0.879,0.059-1.252-0.199-1.964-0.246
						c0.728-0.025,1.618-0.776-0.261-0.766c0.988-0.052,1.475-0.277,1.984-0.361c-0.389-0.016-0.583-0.055,0.023-0.226
						c-1.47,0.125-0.49,0.248-1.945,0.298c0.082-0.361-0.327-0.477-1.595-0.602l0.949,0.266c-0.044,0.044-0.109,0.076-0.183,0.098
						c0.362,0.039,0.463,0.096,0.541,0.234c-0.288-0.004-1.688,0.447-1.929,0.228c1.462,0.563-2.552,0.435-1.619,0.774
						c-0.167,0.105-1.182,0.126-1.288-0.055c1.218-0.273-0.914-0.412-0.717-0.664c-0.454,0.104,0.955,0.269,0.344,0.405
						c-0.724,0.024-1.257-0.199-1.661-0.313l0.303-0.068l-1.12-0.163c-0.183,0.18,1.085,0.307,0.054,0.4
						c-0.272-0.076-1.305,0.018-1.272-0.127c0.49-0.248,0.132-0.578,1.012-0.639c-0.728,0.025-3.05,0.066-2.112,0.405l-0.87-0.013
						c0.546,0.153,2.075,0.428,0.329,0.477l0.016-0.072l-1.214,0.273l-0.529-0.188c0.016,0.092-0.175,0.176-0.626,0.17
						c-0.117-0.109-0.541-0.152-0.505-0.297c-1.307,0.018-1.2,0.201-1.37,0.307c-0.731,0.025-1.003-0.051-0.663-0.264
						c-1-0.048-2.745-0.002-3.425-0.193c-1.338,0.162,0.274,0.076-0.507,0.321c-1.158-0.633-4.421-0.245-6.604-0.167
						c0.593,0.551-0.595,0.063-0.996,0.564C11.53,5.882,8.988,5.627,10.9,5.473L9.733,5.53c-0.797-0.303,1.927-0.227,0.724-0.643
						C9.15,4.905,8.294,5.509,6.753,5.305c0.518-0.391-1.187,0.129-0.801-0.301c0.319-0.141,0.747-0.098,1.183-0.128L6.866,4.799
						C4,4.686,6.038,5.26,4.536,5.528C2.79,5.577,3.159,5.219,3.058,5.036C2.786,4.959,1.907,5.02,1.447,5.122
						c1.066-0.238,1.969,0.246,1.479,0.492C2.159,5.168,0.335,5.577-0.14,5.752c2.494,0.471,1.727,0.023,4.069,0.529
						c0.323-0.141,0.269-0.54,1.673-0.375C4.721,6.104,5.664,6.129,5.913,6.194c-0.272-0.23,0.975-0.095,1.402-0.19
						c0.391,0.187-0.842,0.53,0.582,0.624l0.269-0.541c0.556,0.082-0.237,0.396,0.949,0.268c-0.64,0.282,0.192,0.438-1.412,0.524
						c1.914,0.462,2.939-0.248,4.427-0.444c-0.151,0.033-0.169,0.105-0.319,0.142c0.319-0.142,0.895-0.133,1.334-0.165
						c0.984,0.123-0.776,0.244-0.521,0.393l1.591-0.013c0.031,0.018,0.039,0.027,0.039,0.039c0.42-0.074,0.817-0.123,0.965,0.012
						c-0.475,0.174-0.661,0.354-0.98,0.494l1.673-0.375c-0.183,0.178,1.377,0.309,0.19,0.438l2.47-0.074l0.21,0.365
						c0.591-0.064,0.607-0.137-0.101-0.181c0.846,0.084,3.75-0.637,3.303,0.082c1.941-0.298,2.642-0.179,4.991-0.362
						c-1.809,0.335,2.069,0.427,0.155,0.582c1.121,0.16,1.354-0.235,2.237-0.295c0.829,0.156,0.459,0.514-0.436,0.647l1.05-0.166
						l-0.02,0.072l0.914-0.205c0.969,0.195,0.207,0.366,1.206,0.416l0.218-0.323l0.677,0.189c-0.253-0.148,0.338-0.213,1.066-0.238
						l-0.016,0.072l0.883-0.061c-0.875,0.196,0.805,0.07,0.404,0.301c0.755,0.016,0.771,0.012,2.134-0.047L37.208,7.95
						c1.778-0.191,0.074,0.328,1.513,0.348l-0.089-0.254c2.073,0.428,3.521-0.24,5.049,0.035c-0.879,0.059-0.657,0.354-0.638,0.281
						c1.319-0.092,3.47-0.023,4.837-0.33c0.498,0.369,0.617,0.479,2.021,0.645c1.019-0.022,1.171-0.057,1.505-0.27
						c0.986,0.143,2.84-0.068,2.89,0.199c0.229-0.212,0.887,0.043,1.432-0.137l0.117,0.11L55.76,8.323
						c1.75,0.569,2.96-0.319,4.728,0.176l-0.305,0.068l0.745-0.1c0.119,0.111-0.185,0.18-0.22,0.325l3.458,0.048l-0.681-0.191
						c0.728-0.025,1.217-0.271,2.05-0.115c-1.383,0.38,1.152,0.016,1.374,0.309l-0.743,0.1c1.015-0.023,1.015-0.023,0.932-0.279
						c1.317-0.088,0.9,0.485,2.114,0.212l-0.864-0.012c-0.252-0.148,0.368-0.357,0.945-0.35c0.136,0.039,0.545,0.152,0.105,0.184
						c1.035-0.096,2.591,0.035,3.046-0.066c0.561,0.08,0.377,0.26,0.074,0.328c2.213-0.223,1,0.05,3.221-0.172l-0.039,0.145
						l0.762-0.172l1.087,0.307l-0.391-0.188c0.728-0.025,1.183-0.127,2.033-0.043L78.85,9.049c2.052-0.117,2.375,0.36,4.326,0.061
						c0.134,0.039-0.169,0.107-0.325,0.141c1.809-0.336,1.365,0.383,3.186-0.027c-0.113,0.072,0.086,0.161,0.016,0.222l0.829-0.138
						l-0.064,0.289l0.675-0.426l0.51,0.298l0.323-0.139c0.883,0.555,2.136,0.138,3.343,0.554l-0.208-0.365
						c3.058-0.755,6.983,0.426,10.67,0.078l-0.066,0.289l1.521-0.339c0.817,0.229-0.49,0.247-0.235,0.395
						c1.628-0.159,0.679-0.426,2.573-0.508c0.968,0.195-0.338,0.213-0.794,0.316c1.772-0.142,4.392-0.3,5.648-0.138
						c0.029-0.039,0.107-0.09,0.043-0.106c1.183-0.129,2.742,0.001,4.047-0.017c-0.033,0.133-0.356,0.154-0.679,0.182
						c0.467,0.018,1.109,0.109,1.509-0.025l-0.49,0.249c1,0.05,2.929-0.177,3.151,0.117c-0.12-0.112-0.07-0.329,0.794-0.315
						c0.479,0.442,2.355-0.185,3.742,0.053c-0.167,0.105-1.183,0.127-0.897,0.133c0.695,0.117,1.321-0.089,1.932-0.227l-0.187,0.178
						l3.232-0.245c0.479,0.442,3.05-0.064,2.83,0.258c1.153,0.016-0.969-0.195,0.492-0.246c0.389,0.185,1.318-0.089,1.256,0.199
						l-0.156,0.034l1.019-0.022l-0.642,0.282c0.879-0.061,1.523-0.343,1.568-0.559c0.832,0.158,2.015,0.029,2.392,0.287
						l-0.307,0.068c2.338-0.111,3.871,0.781,5.71,0.299c0.136,0.04,0.121,0.111-0.167,0.108l1.443,0.019l-0.342,0.213l2.389-0.328
						l-0.031,0.144c1.577,0.059,4.045-0.015,6.076-0.058l-0.303,0.068c2.217-0.223,2.139,0.139,3.762-0.02
						c-0.059,0.038-0.113,0.053-0.171,0.061l1.459-0.006l-0.323,0.141c1.082-0.311,3.089,0.406,2.424,0.143
						c0.61-0.137,1.663-0.303,1.844-0.48c1.591-0.015,0.389,0.186,1.373,0.309c1.151,0.016,1.354-0.234,2.914-0.104l-0.031,0.145
						c0.727-0.025,1.182-0.129,2.198-0.15l-0.304,0.069c1.657-0.303,2.07,0.427,3.369-0.206c0.696,0.117,2.015,0.027,1.951,0.317
						c2.063-0.188,3.67-0.274,5.72-0.391c0.327,0.476,0.439-0.03,1.681,0.241l-0.089-0.254c2.898-0.033,6.224,0.597,9.421,0.494
						l0.089,0.255l0.64-0.28c3.441,0.12,7.895,0.22,10.637,0.224c0.898-0.133,2.264-0.44,3.692-0.348l-0.152,0.036
						c2.486-0.147,5.111-0.254,7.823-0.107c-0.167,0.107,0.101,0.183-0.202,0.252c0.644-0.282,1.591-0.014,2.17-0.006l-0.681-0.191
						c0.772-0.242,1.879-0.009,2.27,0.178l1.219-0.273c0.082,0.025,0.207,0.064,0.222,0.105l0.216-0.135l0.647,0.336
						c0.304-0.069,1.914-0.155,2.419-0.475c0.117,0.111,1.255,0.199,0.374,0.26l4.454,0.1l-0.696-0.12
						c-0.085-0.254,1.253-0.416,1.945-0.299c-0.909,0.205-0.076,0.361,0.311,0.549c0.607-0.137-0.525-0.225-0.206-0.365
						c0.762-0.17,2.371-0.258,2.773-0.143l-0.455,0.102c1.035-0.094,1.512,0.348,2.528,0.328c0.914-0.205,1.591-0.016,1.4-0.453
						c1.323-0.09,0.51,0.297,0.938,0.34c0.623-0.209,2.471-0.074,2.708,0.148c0.724-0.643,3.559,0.231,3.827-0.309l1.086,0.305
						c0.035-0.145,0.249-0.469,1.132-0.528c0.828,0.156,0.63,0.408,0.883,0.557l0.557-0.537c4.776,0.576,11.078,0.193,16.314,0.668
						c2.338-0.113,5.283-0.361,8.01-0.285l-0.304,0.068l2.712,0.147l-1.969-0.247c0.591-0.063,1.054-0.166,1.626-0.158
						c2.976,0.225,6.947,0.497,10.616,0.225c2.373-0.619,1.575,0.547,3.847,0.098c-0.194,0.057-0.265,0.145-0.439,0.205
						c2.447-0.205,3.777-0.312,6.229-0.674c-0.28,0.612,1.595-0.014,1.377,0.309l0.202-0.25c0.545,0.152,1.828,0.207,1.646,0.385
						l1.081-0.311l0.094,0.255c1.432,0.02,4.513-0.189,5.265,0.328c3.554-0.385,9.159-0.27,13.613-0.17
						c0.627-0.209,1.93-0.227,2.945-0.248l1.085,0.305c1.035-0.093,2.134-0.477,3.097-0.281c-0.008,0.035-0.047,0.061-0.113,0.078
						c1.051-0.063,2.051,0.1,3.03-0.182c1.151,0.016,2.272,0.178,1.918,0.461c0.113-0.506,2.439,0.072,2.439,0.072
						s59.12,1.232,73.545-1.512c0.486-0.248,1.828-0.41,1.314-0.707c1.035-0.094,1.51,0.348,1.712,0.098
						c-1.408-0.166,0.436-0.646-0.941-0.957l0.883-0.061c0.183-0.178-1.202,0.202-0.984-0.121l-0.248,0.466
						c-0.716-0.07-1.109-0.168-1.362-0.326c-0.673,0.182-1.101,0.814-2.707,0.539l0.443-0.028c-1.307,0.018-0.802-0.301-1.073-0.377
						l0.287,0.004l-1.101-0.235c0.834,0.157,2.214-0.222,1.49-0.195c-1.561-0.13,0.404,0.113-0.765,0.17
						c-0.726,0.024-0.523-0.225-0.49-0.37l-1.305,0.018c0.046-0.217,0.863,0.012,0.334-0.212l-1.642,0.23
						c-0.307-0.549-1.789,0.264-2.54-0.253c1.183-0.129-0.105-0.185,0.082-0.362l-2.896,0.031c-0.274-0.076,0.761-0.169,0.321-0.142
						c-0.545-0.151-0.896,0.134-1.188,0.13c-0.251-0.15-2.161,0.006-2.083-0.357c-1.965-0.244-0.825,0.461-2.657,0.254
						c-0.241-0.221,1.455-0.053,0.642-0.281l-1.898,0.082c0.172-0.107,0.37-0.357,1.082-0.311
						c-5.135-0.291-7.905-1.454-12.597-1.158c-0.661-0.263,0.475-0.176,0.945-0.35c-3.397,0.35-4.78-0.576-7.675-0.545l-0.051,0.217
						c-4.033-0.674-8.893-0.271-13.451-0.552l0.545,0.152c-0.627,0.209-1.643,0.231-2.389,0.328
						c-0.117-0.109,0.54-0.463-0.782-0.373c0.272,0.077,0.832,0.158,0.665,0.264c-3.917-0.564-12.184-0.426-18.619-0.699
						c-8.704,0.167-18.146-0.257-26.695-0.125c1.303-0.018,0.75,0.518-0.233,0.395c-2.685-0.907-4.657,0.152-7.403-0.467
						c-4.979,0.291-9.426-0.496-14.059,0.199l-0.089-0.256c-0.692-0.117-0.88,0.061-1.607,0.086l0.02-0.072
						c-1.717-0.096-3.794,0.164-4.78,0.041l-0.063,0.289c-1.02,0.024-0.529-0.224-1.575-0.059l0.031-0.145l-1.218,0.273
						c0.116-0.506-2.879-0.041-3.695-0.27c-1.319,0.09-3.824,0.309-5.824,0.207c-0.373-0.26-2.828-0.258-4.392-0.389
						c-3.046,0.064-7.398,0.148-11.277,0.057l0.07,0.328l-1.014,0.021c0.014-0.072-0.122-0.11,0.031-0.145
						c-0.783-0.373-2.336,0.114-3.148-0.117c0.509,0.297,0.708,0.047,1.285,0.055c0.831,0.156,0.037,0.473-1.083,0.311l0.021-0.072
						l-0.765,0.172c-0.086-0.256-0.782-0.375-0.871-0.629c-3.334,0.061-5.602,0.5-9.041,0.379c0.354-0.285-2.472,0.072-1.781-0.423
						c-2.065,0.187,0.342,0.401-0.604,0.751c-0.575-0.008-1.183,0.128-1.285-0.055c0.271-0.119-0.469-0.302,0-0.347l-1.379,0.039
						c-0.132-0.039,0.171-0.107,0.323-0.14c-2.809,0.287-4.983-0.325-7.504-0.036c-0.187,0.179,1,0.051,0.817,0.23
						c-2.536,0.363-2.241-0.322-4.61-0.065l0.49-0.247c-0.762,0.17-1.097,0.383-2.354,0.184c-0.22-0.293,1.066-0.239,1.673-0.375
						c-0.864-0.012-3.046,0.064-2.381,0.328c-1.035,0.095-1.412-0.165-1.968-0.244c-0.02,0.072,0.965,0.195,0.358,0.33
						c-1.406-0.165-3.581-0.159-5.302-0.184c0.016-0.072-0.105-0.182,0.047-0.217C204.916,3.44,205.063,2.79,203.164,2.872z"/>
					<path fill="#FFFFFF" d="M111.396,4.362l0.696,0.045c0-0.065,0.031-0.139,0.352-0.21L111.396,4.362z"/>
					<path fill="#FFFFFF" d="M144.344,4.548c0.085-0.023,0.171-0.044,0.249-0.079C144.424,4.481,144.367,4.514,144.344,4.548z"/>
					<path fill="#FFFFFF" d="M152.346,4.036c-0.572,0.063-0.062,0.141,0.218,0.215C152.577,4.192,152.564,4.122,152.346,4.036z"/>
					<path fill="#FFFFFF" d="M92.731,5.132c0.121-0.028,0.195-0.066,0.175-0.127C92.743,5.057,92.708,5.096,92.731,5.132z"/>
					<path fill="#FFFFFF" d="M41.146,4.919c0.066,0.014,0.125,0.027,0.206,0.044C41.313,4.942,41.241,4.928,41.146,4.919z"/>
					<path fill="#FFFFFF" d="M44.004,5.376c0.14,0.001,0.321-0.008,0.582-0.042C44.331,5.319,44.148,5.342,44.004,5.376z"/>
					<path fill="#FFFFFF" d="M105.236,5.026c0.192-0.01,0.379-0.031,0.542-0.092C105.482,4.94,105.335,4.981,105.236,5.026z"/>
					<path fill="#FFFFFF" d="M45.179,5.27l0.72,0.031c0.004-0.02,0.012-0.033,0.012-0.057L45.179,5.27z"/>
					<path fill="#FFFFFF" d="M40.239,4.883c0.282,0.01,0.664,0.01,0.907,0.036C40.788,4.84,40.503,4.838,40.239,4.883z"/>
					<path fill="#FFFFFF" d="M73.794,5.503c0.024-0.002,0.05-0.004,0.078-0.007C74.432,5.372,74.082,5.424,73.794,5.503z"/>
					<polygon fill="#FFFFFF" points="48.326,4.772 48.423,4.784 48.634,4.704 					"/>
					<path fill="#FFFFFF" d="M37.131,4.77c0.136-0.007,0.261-0.02,0.358-0.053c-0.111-0.009-0.241-0.02-0.409-0.033
						C37.119,4.721,37.131,4.747,37.131,4.77z"/>
					<path fill="#FFFFFF" d="M62.996,5.053c-0.202,0.108-0.28,0.182-0.288,0.237C62.949,5.287,63.101,5.237,62.996,5.053z"/>
				</g>
			</g>
		</g>
	</g>
</g>
<g>
	<g>
		<g>
			<g>
				<g>
					<path fill="#FFFFFF" d="M445.304,210.686c0.038,0.012,0.082,0.018,0.139,0.01C445.381,210.67,445.337,210.671,445.304,210.686z
						"/>
					<path fill="#FFFFFF" d="M440.836,191.236l0.123,0.207C440.909,191.3,440.872,191.249,440.836,191.236z"/>
					<path fill="#FFFFFF" d="M448.124,222.302c-0.016-0.014-0.022-0.012-0.037-0.021c0.044,0.181,0.104,0.423,0.199,0.816
						L448.124,222.302z"/>
					<path fill="#FFFFFF" d="M430.487,149.971l0.074,0.256C430.532,150.111,430.524,150.032,430.487,149.971z"/>
					<path fill="#FFFFFF" d="M436.552,174.445c-0.073-0.062-0.128-0.184-0.179-0.304
						C436.407,174.302,436.452,174.424,436.552,174.445z"/>
					<path fill="#FFFFFF" d="M447.071,229.136l0.094-0.378C447.088,228.785,447.037,228.925,447.071,229.136z"/>
					<path fill="#FFFFFF" d="M451.023,240.618c0.011-0.014,0.021-0.019,0.033-0.042
						C451.035,240.564,451.027,240.587,451.023,240.618z"/>
					<path fill="#FFFFFF" d="M450.508,235.849c-0.043-0.094-0.106-0.199-0.171-0.306
						C450.381,235.681,450.43,235.857,450.508,235.849z"/>
					<path fill="#FFFFFF" d="M450.249,235.4c0.028,0.046,0.059,0.095,0.088,0.143C450.308,235.458,450.28,235.389,450.249,235.4z"/>
					<path fill="#FFFFFF" d="M388.677,1.252c-0.085-0.339-0.304-0.588-0.502-0.859L388.677,1.252z"/>
					<path fill="#FFFFFF" d="M420.397,112.806l0.096,0.053C420.45,112.797,420.42,112.792,420.397,112.806z"/>
					<path fill="#FFFFFF" d="M386.964,1.272l-0.027-0.249C386.931,1.119,386.942,1.199,386.964,1.272z"/>
					<path fill="#FFFFFF" d="M444.881,223.08c-0.271-0.287-0.246-1.039-0.421-0.986C444.587,222.444,444.591,222.988,444.881,223.08
						z"/>
					<path fill="#FFFFFF" d="M411.447,106.823l-0.071-0.221C411.403,106.71,411.426,106.775,411.447,106.823z"/>
					<path fill="#FFFFFF" d="M386.964,1.272l0.032,0.287c0.027-0.033,0.046-0.071,0.068-0.107
						C387.021,1.398,386.986,1.338,386.964,1.272z"/>
					<path fill="#FFFFFF" d="M409.856,74.117l0.004,0.012c0.02,0.025,0.033,0.043,0.053,0.069L409.856,74.117z"/>
					<path fill="#FFFFFF" d="M409.586,71.985c0.059,0.139,0.115,0.272,0.179,0.422C409.72,72.17,409.656,72.057,409.586,71.985z"/>
					<path fill="#FFFFFF" d="M388.175,0.394l-0.286-0.49C387.962,0.088,388.066,0.245,388.175,0.394z"/>
					<path fill="#FFFFFF" d="M403.25,49.946c0.025,0.069,0.05,0.136,0.078,0.196C403.307,50.055,403.281,49.991,403.25,49.946z"/>
					<path fill="#FFFFFF" d="M436.874,176.033c-0.003,0.054,0.006,0.126,0.01,0.189C436.931,176.23,436.957,176.21,436.874,176.033z
						"/>
					<polygon fill="#FFFFFF" points="427.888,162.07 427.886,162.065 427.882,162.066 					"/>
					<path fill="#FFFFFF" d="M428.334,162.824c-0.029-0.266-0.26-0.596-0.446-0.754
						C427.958,162.327,428.062,162.558,428.334,162.824z"/>
					<path fill="#FFFFFF" d="M427.499,160.294c0.001,0.033,0.002,0.062,0.003,0.102
						C427.506,160.357,427.506,160.326,427.499,160.294z"/>
					<path fill="#FFFFFF" d="M431.647,176.805c0.006-0.002,0.014-0.001,0.02-0.006c-0.009-0.002-0.013-0.004-0.02-0.004V176.805z"/>
					<path fill="#FFFFFF" d="M430.726,173.563c0.02-0.067,0.024-0.153,0.019-0.246C430.724,173.381,430.715,173.464,430.726,173.563
						z"/>
					<polygon fill="#FFFFFF" points="424.769,152.342 424.777,152.342 424.771,152.326 					"/>
					<path fill="#FFFFFF" d="M415.026,122.071c0.95,3.046,2.409,6.931,3.141,10.007c0.555,0.563,0.832,1.525,1.182,2.475
						l-0.464,0.239l0.38,0.767c-0.059,0.37-0.264-0.599-0.289,0.036l0.39,0.223c-0.159,0.111,0.455,2.112-0.272,0.85l0.863,3.149
						c0.176,0.701,0.522,0.295,0.612,1.099c-0.102,0.194-0.176-0.251-0.334-0.139c0.269,2.41,1.688,2.408,2.055,4.625l-0.115-0.166
						c0.231,0.331,0.406,1.033,0.479,1.023c0.421-0.414-0.375-0.313-0.263-1.053c0.435-0.056,0.45,0.759,0.757,0.629
						c-0.013,0.545,0.306,0.776,0.451,1.21c-0.057,0.821,0.426,1.847,0.253,2.502c0.233,0.331,0.756,0.628,0.99,1.412
						c-0.173,0.655-0.35-0.047-0.261,0.757l0.277,0.057c0.136,0.642,0.04,0.562-0.08,0.569c0.175,0.679,0.487,0.472,0.563,1.36
						l-0.365-0.406c0.265,0.601,0.293,0.866,0.512,1.744c-0.145,0.019-0.231-0.333-0.262-0.6c-0.229,0.572,0.378,0.768,0.409,1.035
						c0.086-0.103-0.032-0.721,0.288-0.49c0.074,0.443,0.581,0.831,0.38,1.218l-0.363-0.407c0.437,0.852,0.436,0.399,0.626,1.46
						c-0.034-0.05-0.087-0.007-0.144-0.016c0.49,0.571,0.443,1.505,0.687,2.48l-0.115-0.166c0.189,0.369,0.465,0.523,0.506,0.739
						c-0.012-0.591,0.101-0.46,0.32-0.573c-0.2,0.84,0.77,0.986,0.859,2.245c-0.144,0.018-0.392-0.224-0.334-0.591
						c-0.522-0.295-0.885-0.25-1.276-0.924c0.219,0.426,0.423,0.942,0.218,0.877l0.422,0.036c0.085,0.271,0.121,0.494,0.178,0.701
						c0.273,0.051,0.244-0.662,0.576-0.072c0.32,0.683-0.287,0.488-0.085,0.553c0.423,0.943,0.522,0.295,0.656,1.276
						c-0.058-0.085-0.175-0.251-0.161-0.343c0.032,0.721,0.526,1.649,0.121,1.975c-0.131-0.072-0.274-0.054-0.306-0.321l0.072-0.01
						c-0.538-0.655,0.262,0.6-0.217,0.48c0.234-0.12,0.438,0.85,0.512,1.293l0.245-0.214c1.234,1.2-0.579,0.075-0.083,1.461
						c0.438,0.848-0.014-0.36,0.335,0.136c0.118,0.621-0.071,0.916,0.295,1.773c-0.044,0.278-0.056,0.823-0.359,0.952
						c0.275,0.506,0.309,1.681,0.699,1.902c0.012-0.996-0.582-0.83-0.468-2.021l0.391,0.22c0.188,0.751,0.605,1.665,0.635,2.211
						c0.032-0.12,0.099-0.188,0.183-0.141c0.407,1.032,0.8,1.254,0.99,2.316c-0.245,0.213-0.362-0.407-0.508-0.841
						c-0.043,0.729,0.174,0.702,0.366,1.764c-0.231,0.122-0.176-0.701-0.45-0.756l0.393,1.126c-0.017,0-0.032,0.009-0.051,0.014
						c0.458,0.055,0.204,0.886,0.52,1.554c0.452,1.662,1.075,1.765,1.658,2.596c-0.043,0.277-0.129,0.379-0.261,0.303
						c0.071-0.459-0.053-0.347-0.199-0.459c0.196,0.55-0.068,1.339-0.319,1.071c0.362,0.857,0.129-0.381,0.406,0.129l0.308,1.228
						c0.172-0.201,0.099-0.645,0.434-0.056c0.204,0.517,0.233,0.785,0.409,1.486c-0.131-0.073-0.26,0.307-0.391-0.22
						c0.014,0.358,0.147,0.887,0.407,1.033c-0.017-0.813,0.524,1.201,0.696,0.543l0.017,0.813c-0.043-0.176-0.188-0.155-0.218-0.424
						c-0.261,0.305,0.262,0.6,0.365,0.857c0.012,0.285,0.175,0.989,0.066,1.081c0.154,0.216,0.246,0.823,0.113,0.979
						c0.161,0.341,0.216-0.029,0.349,0.047l0.307,1.227c-0.16,0.112-0.623,0.35-0.739,0.185c0.29,0.416,0.566,0.021,0.741,0.722
						c-0.451-0.306-0.012,0.994-0.579,0.526c-0.143,0.469,0.18,1.604,0.442,2.206c0.377,0.314-0.033-0.72,0.258-0.757
						c0.583,1.734,1.382,1.632,1.602,2.962l-0.014-0.358c0.379,0.765,0.318,0.683,0.684,1.089c-0.406-0.129-0.679,1.172-0.242,2.475
						c0.205,0.065,0.128-0.831,0.462-0.691l0.293,0.867c-0.01,0.071-0.094-0.01-0.169-0.111c0.339,0.756-0.048,1.592,0.42,1.709
						l-0.287,0.939l0.129-0.377c0.201,0.063,0.495,0.933,0.611,1.099c0.438,0.851,0.38,1.22,0.295,1.774
						c0.1-0.196,0.317-0.676,0.564,0.019c-0.563,0.146,0.201,1.548-0.095,1.606c0.086,0.285,0.05,0.842,0.291,0.812l-0.362,0.048
						c0.506-0.067,0.771,0.985,1.076,1.762c-0.711,0.001,0.292,0.866-0.213,1.386c0.491,0.027,0.567,1.374,0.988,1.411
						c0.19,0.61-0.244,0.664-0.345,0.859l0.246,0.241c-0.125,0.369,0.161,1.536,0.204,2.264l0.572,0.532l-0.115,0.287
						c0.129,0.074,0.333,0.59,0.391,0.22l0.071,0.353c0.441-0.091,0.252,0.453,0.628,1.097c-0.026,0.18-0.142,0.166-0.24,0.03
						c0.091,0.348-0.173,0.261-0.266,0.488c0.044-0.275,1.118,1.033,1.058,0.047c0.159-0.112,0.438,0.396,0.453,0.757l-0.333,0.314
						l0.522,0.295c0.203,0.517,0.016,0.811,0.09,1.254c-0.146-0.434-1.018-0.774-0.695,0.361c-0.215-0.585-0.513-0.819-0.679-1.105
						c0.05,0.239,0.045,0.367-0.222,0.045c0.364,0.857,0.32,0.231,0.611,1.099c-0.362,0.047-0.405,0.324-0.315,1.125l0.099-0.645
						c0.05,0.016,0.092,0.046,0.124,0.085c-0.022-0.229,0.016-0.306,0.137-0.39c0.044,0.176,0.712,0.903,0.54,1.108
						c0.3-1.035,0.844,1.43,1.016,0.774c0.13,0.073,0.318,0.683,0.161,0.794c-0.465-0.665-0.245,0.662-0.521,0.61
						c0.175,0.247,0.1-0.649,0.333-0.315c0.144,0.432,0.017,0.813-0.025,1.089l-0.116-0.166l0.029,0.721
						c0.204,0.063,0.115-0.738,0.377-0.139c-0.028,0.186,0.234,0.786,0.089,0.804c-0.32-0.23-0.578,0.073-0.783-0.443
						c0.146,0.434,0.57,1.829,0.741,1.172l0.133,0.53c0.057-0.372,0.067-1.37,0.405-0.326l-0.072,0.01l0.465,0.663l-0.093,0.37
						c0.087-0.034,0.199,0.059,0.268,0.334c-0.085,0.1-0.056,0.367-0.202,0.385c0.234,0.786,0.394,0.673,0.523,0.748
						c0.146,0.436,0.118,0.621-0.144,0.471c0.119,0.618,0.454,1.662,0.383,2.125c0.379,0.768,0.028-0.186,0.394,0.223
						c-0.418,0.868,0.499,2.741,0.938,4.042c0.433-0.505,0.159,0.344,0.71,0.454c-0.245-0.239-0.068,1.367-0.535,0.25l0.249,0.691
						c-0.159,0.563-0.539-1.106-0.74-0.268c0.234,0.787,0.96,1.145,1.019,2.132c-0.462-0.21,0.322,0.684-0.156,0.564
						c-0.188-0.155-0.219-0.426-0.32-0.682l-0.029,0.183c0.367,1.766,0.582,0.38,1.09,1.218c0.338,1.045-0.068,0.916-0.229,1.025
						c-0.027,0.186,0.177,0.701,0.351,0.952c-0.406-0.582-0.09-1.257,0.229-1.025c-0.302,0.582,0.396,1.579,0.644,1.819
						c0.039-1.634-0.265-1.052-0.166-2.604c-0.189-0.158-0.565-0.02-0.641-0.913c0.337,0.48,0.205-0.097,0.226-0.265
						c-0.177,0.226-0.254-0.565-0.417-0.799c0.115-0.286,0.651,0.369,0.505-0.518l-0.566-0.019
						c-0.013-0.359,0.422,0.038,0.101-0.646c0.379,0.313,0.391-0.232,0.74,0.717c0.128-1.281-0.728-1.714-1.164-2.563
						c0.058,0.083,0.13,0.074,0.189,0.155c-0.189-0.155-0.277-0.507-0.381-0.764c-0.045-0.629,0.364,0.404,0.465,0.211l-0.277-0.96
						c0.013-0.023,0.02-0.03,0.031-0.033c-0.142-0.234-0.254-0.462-0.149-0.587c0.247,0.241,0.451,0.307,0.64,0.462l-0.64-0.913
						c0.202,0.063,0.068-0.915,0.391-0.231l-0.482-1.476l0.317-0.224c-0.161-0.342-0.233-0.332-0.158,0.108
						c-0.06-0.534-1.238-2.102-0.471-2.021c-0.61-1.097-0.611-1.552-1.179-2.926c0.624,1.006,0.067-1.366,0.535-0.249
						c-0.032-0.72-0.452-0.757-0.657-1.275c0.013-0.543,0.419-0.414,0.696,0.092l-0.335-0.592l0.073-0.007l-0.35-0.499
						c0.026-0.639,0.318-0.222,0.2-0.841l-0.347-0.046l0.069-0.46c-0.101,0.192-0.261-0.149-0.406-0.583l0.072-0.01l-0.206-0.519
						c0.334,0.479-0.066-0.506,0.224-0.324c-0.11-0.461-0.117-0.47-0.4-1.279l-0.173,0.203c-0.479-1.025,0.304-0.132,0.084-1.008
						l-0.23,0.121c0.068-1.369-0.816-2.068-0.806-3.066c0.203,0.517,0.45,0.305,0.378,0.312c-0.309-0.774-0.6-2.095-1.123-2.841
						c0.273-0.399,0.36-0.501,0.286-1.395c-0.19-0.611-0.25-0.694-0.511-0.84c-0.025-0.636-0.538-1.701-0.288-1.803
						c-0.243-0.083-0.106-0.549-0.37-0.831l0.087-0.1l-0.231,0.119c0.258-1.211-0.8-1.708-0.616-2.909l0.116,0.167l-0.22-0.425
						c0.088-0.102,0.204,0.064,0.35,0.047l-0.528-2.106l-0.071,0.463c-0.146-0.434-0.464-0.665-0.452-1.211
						c0.597,0.736-0.176-0.701,0.07-0.913l0.219,0.424c-0.19-0.609-0.19-0.609-0.423-0.491c-0.304-0.773,0.317-0.673-0.147-1.336
						l0.132,0.526c-0.101,0.192-0.405-0.128-0.494-0.479c0.016-0.093,0.057-0.37,0.16-0.112c-0.265-0.602-0.397-1.578-0.57-1.827
						c-0.017-0.36,0.188-0.297,0.304-0.132c-0.583-1.28-0.118-0.618-0.701-1.904l0.146-0.015l-0.292-0.416l0.114-0.739l-0.115,0.286
						c-0.146-0.434-0.319-0.683-0.38-1.22l0.263,0.151c-0.454-1.212-0.048-1.533-0.661-2.635c0.016-0.092,0.132,0.073,0.189,0.159
						c-0.624-1.007,0.143-0.928-0.556-1.922c0.088,0.049,0.142-0.095,0.212-0.068l-0.271-0.465l0.288-0.038l-0.522-0.296
						l0.203-0.388l-0.188-0.158c0.388-0.682-0.223-1.329-0.022-2.171l-0.317,0.223c-1.236-1.651-0.75-4.341-1.698-6.481l0.289-0.036
						l-0.58-0.831c0.084-0.555,0.319,0.231,0.42,0.038c-0.424-0.943-0.524-0.298-0.918-1.424c0.027-0.638,0.262,0.148,0.437,0.397
						c-0.432-1.035-1.02-2.58-1.072-3.384c-0.043-0.007-0.104-0.041-0.11,0.003c-0.321-0.683-0.454-1.661-0.688-2.446
						c0.134-0.016,0.208,0.174,0.288,0.362c-0.061-0.287-0.079-0.7-0.275-0.907l0.321,0.231c-0.117-0.619-0.657-1.727-0.411-1.939
						c-0.088,0.104-0.306,0.13-0.436-0.396c0.347-0.407-0.569-1.377-0.571-2.28c0.13,0.074,0.319,0.683,0.277,0.508
						c-0.003-0.451-0.306-0.775-0.54-1.109l0.203,0.066l-0.773-1.893c0.347-0.407-0.569-1.829-0.222-1.782
						c-0.177-0.702-0.027,0.639-0.318-0.232c0.113-0.284-0.306-0.774-0.018-0.813l0.059,0.085l-0.191-0.61l0.379,0.313
						c-0.205-0.516-0.584-0.831-0.8-0.801c0.014-0.546-0.307-1.229-0.121-1.524l0.117,0.168c-0.496-1.387,0.109-2.551-0.661-3.537
						c0.016-0.093,0.087-0.103,0.132,0.073l-0.222-0.879l0.263,0.15l-0.714-1.359l0.144-0.02c-0.205-0.971-0.687-2.445-1.065-3.663
						l0.116,0.166c-0.584-1.284-0.223-1.332-0.645-2.272c0.046,0.025,0.069,0.055,0.087,0.087l-0.248-0.881l0.189,0.158
						c-0.479-0.573-0.122-1.978-0.266-1.506c-0.233-0.333-0.568-0.926-0.77-0.988c-0.279-0.96,0.114-0.285,0.069-0.913
						c-0.177-0.702-0.451-0.758-0.585-1.737l0.145-0.02c-0.146-0.434-0.32-0.682-0.51-1.291l0.116,0.166
						c-0.567-0.923,0.067-1.366-0.758-1.985c-0.003-0.453-0.309-1.228-0.019-1.266c-0.524-1.199-0.875-2.149-1.328-3.359
						c0.404-0.324-0.102-0.259-0.046-1.081l-0.23,0.121c-0.514-1.746-0.459-3.927-1.09-5.835l0.231-0.122l-0.376-0.313
						c-0.456-2.115-1.101-4.838-1.553-6.5c-0.277-0.509-0.801-1.254-0.949-2.143l0.06,0.082c-0.555-1.466-1.095-3.027-1.404-4.708
						c0.132,0.073,0.16-0.109,0.276,0.056c-0.379-0.315-0.278-0.96-0.367-1.313l-0.071,0.462c-0.361-0.403-0.32-1.135-0.206-1.421
						l-0.466-0.666c0.011-0.056,0.027-0.142,0.064-0.163l-0.166-0.095l0.217-0.481c-0.116-0.166-0.467-1.118-0.86-1.339
						c0.088-0.1-0.017-0.813,0.188-0.295l-0.644-2.724v0.454c-0.23,0.119-0.609-0.648-0.611-1.099
						c0.349,0.496,0.361-0.05,0.478-0.333c-0.232-0.332-0.129,0.377-0.317,0.221c-0.291-0.417-0.643-1.367-0.6-1.642l0.175,0.249
						c-0.264-0.602,0.084-1.007-0.104-1.618c-0.35-0.499-0.28-0.959-0.67-0.728c-0.307-0.777,0.201-0.387,0.172-0.658
						c-0.305-0.322-0.482-1.476-0.307-1.679c-0.74-0.268-0.369-2.216-0.935-2.236l0.114-0.738c-0.146,0.017-0.494-0.027-0.697-0.546
						c0.013-0.543,0.289-0.489,0.39-0.682l-0.61-0.195c-0.238-3.045-1.655-6.759-2.068-10.055c-0.498-1.386-1.227-3.103-1.606-4.774
						l0.116,0.166l-0.309-1.681l0.089,1.257c-0.158-0.342-0.335-0.594-0.423-0.943c-0.278-1.861-0.676-4.338-1.548-6.487
						c-0.992-1.273,0.266-1.099-0.546-2.355c0.087,0.103,0.184,0.122,0.271,0.211c-0.605-1.427-0.929-2.204-1.686-3.592
						c0.637,0.008-0.278-0.962,0.068-0.916l-0.274-0.056c0.057-0.37-0.104-1.162,0.098-1.098l-0.479-0.573l0.231-0.124
						c-0.22-0.872-0.934-2.682-0.56-3.275c-0.962-2.049-1.782-5.474-2.427-8.197c-0.306-0.324-0.539-1.108-0.729-1.717l0.113-0.738
						c-0.262-0.602-0.814-1.166-0.786-1.8c0.035-0.005,0.066,0.012,0.094,0.047c-0.234-0.619-0.244-1.268-0.679-1.787
						c-0.177-0.701-0.206-1.422,0.126-1.283c-0.507,0.065-0.336-1.496-0.336-1.496s-8.641-36.121-13.685-44.128
						c-0.32-0.229-0.7-0.999-0.9-0.609c-0.263-0.602,0.084-1.006-0.19-1.062c0.073,0.896-0.696-0.093-0.767,0.823l-0.205-0.519
						c-0.202-0.063,0.394,0.674,0.047,0.628l0.491,0.027c0.051,0.452,0.022,0.715-0.088,0.911c0.287,0.359,0.968,0.451,0.969,1.497
						l-0.101-0.261c0.234,0.787-0.157,0.565-0.186,0.75l-0.044-0.175l-0.044,0.729c0.013-0.547-0.582-1.281-0.436-0.851
						c0.134,0.979,0.042-0.275,0.292,0.417c0.144,0.433-0.13,0.376-0.275,0.395l0.234,0.785c-0.217,0.029-0.133-0.526-0.261-0.146
						l0.495,0.933c-0.479,0.332,0.552,1.014,0.178,1.605c-0.321-0.682-0.16,0.113-0.362,0.047l0.512,1.745
						c-0.028,0.186-0.29-0.416-0.19-0.157c-0.056,0.37,0.278,0.506,0.323,0.685c-0.104,0.191,0.364,1.307,0.001,1.356
						c0.092,1.254,0.582,0.377,0.687,1.541c-0.173,0.205-0.292-0.867-0.377-0.314l0.395,1.127c-0.133-0.075-0.406-0.129-0.479-0.572
						c0.573,3.186-0.088,5.171,0.978,7.933c-0.145,0.47-0.249-0.241-0.495-0.48c0.902,1.965,0.239,3.047,0.751,4.792l0.218-0.027
						c0.021,2.621,1.217,5.456,1.703,8.291l0.057-0.37c0.306,0.324,0.495,0.933,0.713,1.359c-0.086,0.1-0.536-0.205-0.229,0.572
						c0.029-0.186,0.015-0.546,0.144-0.473c0.107,2.521,1.615,7.489,2.422,11.458c1.607,5.226,2.769,11.054,4.317,16.196
						c-0.233-0.785,0.375-0.592,0.419,0.037c-0.429,1.865,0.921,2.779,0.781,4.606c1.108,2.938,1.088,5.838,2.529,8.459
						l-0.232,0.122c0.002,0.45,0.205,0.516,0.351,0.95l-0.073,0.007c0.193,1.065,0.789,2.254,0.835,2.884l0.288-0.039
						c0.192,0.61-0.127,0.379,0.206,0.969l-0.145,0.02l0.466,0.665c-0.507,0.063,0.439,1.754,0.354,2.309
						c0.307,0.774,0.934,2.233,1.168,3.471c-0.188,0.295,0.222,1.781,0.355,2.762c0.568,1.827,1.373,4.44,1.929,6.813l0.306-0.129
						l0.188,0.608c-0.071,0.011-0.085,0.103-0.145,0.019c-0.229,0.574,0.498,1.384,0.411,1.938c0.201-0.387-0.073-0.441-0.161-0.793
						c0.013-0.544,0.449-0.147,0.479,0.574l-0.073,0.006l0.293,0.417c-0.232,0.12-0.231,0.573-0.462,0.694
						c0.612,2.002,1.413,3.259,1.868,5.373c-0.334-0.139,0.48,1.478-0.111,1.191c0.523,1.201,0.33-0.314,0.825,0.166
						c0.088,0.351,0.32,0.682,0.16,0.793c-0.16-0.132-0.213,0.364-0.335,0.092l0.267,0.825c-0.015,0.09-0.132-0.075-0.188-0.158
						c0.743,1.625,0.516,3.103,1.213,4.553c0.204,0.065-0.117-0.619,0.087-0.556c0.771,1.439,0.062,1.442,0.703,2.808l-0.32-0.231
						c0.291,0.417,0.552,0.563,0.569,1.376c-0.247,0.211-0.407-0.582-0.64-0.914c0.132,0.526,0.567,1.827,0.712,1.354
						c0.264,0.602,0.076,0.898,0.092,1.256c0.072-0.007,0.027-0.636,0.259-0.304c0.075,0.895,0.442,2.21,0.704,3.259
						c-0.072,0.01-0.158,0.112-0.217,0.029C415.283,120.859,414.632,120.942,415.026,122.071z"/>
					<path fill="#FFFFFF" d="M431.72,177.238l-0.072-0.434c-0.063,0.017-0.139,0.018-0.261-0.157L431.72,177.238z"/>
					<path fill="#FFFFFF" d="M426.422,157.24c-0.037-0.046-0.071-0.093-0.118-0.13C426.345,157.209,426.386,157.234,426.422,157.24z
						"/>
					<path fill="#FFFFFF" d="M424.598,152.53c0.155,0.33,0.146,0.001,0.171-0.188C424.71,152.349,424.645,152.376,424.598,152.53z"
						/>
					<path fill="#FFFFFF" d="M435.565,188.335c-0.047-0.066-0.097-0.101-0.151-0.072
						C435.491,188.348,435.535,188.358,435.565,188.335z"/>
					<path fill="#FFFFFF" d="M443.938,219.624c0.002-0.044,0.005-0.082,0.008-0.137C443.932,219.517,443.93,219.563,443.938,219.624
						z"/>
					<path fill="#FFFFFF" d="M443.902,217.771c-0.022-0.085-0.062-0.191-0.137-0.341
						C443.793,217.589,443.845,217.693,443.902,217.771z"/>
					<path fill="#FFFFFF" d="M433.385,180.792c-0.042-0.114-0.094-0.222-0.179-0.305
						C433.261,180.665,433.325,180.743,433.385,180.792z"/>
					<path fill="#FFFFFF" d="M443.604,217.089l-0.09-0.444c-0.02,0.003-0.033,0.002-0.057,0.008L443.604,217.089z"/>
					<path fill="#FFFFFF" d="M444.053,220.183c-0.037-0.174-0.101-0.404-0.115-0.559
						C443.92,219.861,443.966,220.034,444.053,220.183z"/>
					<path fill="#FFFFFF" d="M439.072,199.701c-0.009-0.013-0.012-0.029-0.02-0.045
						C438.839,199.351,438.948,199.548,439.072,199.701z"/>
					<polygon fill="#FFFFFF" points="442.601,215.315 442.596,215.253 442.484,215.147 					"/>
					<path fill="#FFFFFF" d="M444.46,222.094c-0.028-0.08-0.062-0.152-0.11-0.202c0.01,0.069,0.021,0.151,0.036,0.256
						C444.415,222.114,444.438,222.101,444.46,222.094z"/>
					<path fill="#FFFFFF" d="M440.434,206.359c0.138,0.094,0.222,0.121,0.276,0.111
						C440.666,206.325,440.593,206.247,440.434,206.359z"/>
				</g>
			</g>
		</g>
	</g>
</g>
</svg>
