<svg xmlns="http://www.w3.org/2000/svg" width="20" height="20" xml:space="preserve">
	<path fill="#FFF" d="M10.0002 1.0001c-4.97 0-9 4.029-9 9 0 3.813 2.372 7.072 5.721 8.384-.079-.712-.15-1.807.031-2.585.164-.702 1.056-4.474 1.056-4.474s-.27-.539-.27-1.336c0-1.251.726-2.186 1.629-2.186.768 0 1.139.577 1.139 1.268 0 .772-.492 1.927-.746 2.997-.212.896.449 1.626 1.333 1.626 1.599 0 2.83-1.687 2.83-4.122 0-2.155-1.549-3.662-3.76-3.662-2.562 0-4.064 1.921-4.064 3.906 0 .773.298 1.603.67 2.054.074.089.084.167.063.259-.068.283-.22.895-.25 1.021-.04.164-.131.199-.302.12-1.123-.524-1.826-2.167-1.826-3.487 0-2.839 2.063-5.446 5.947-5.446 3.122 0 5.548 2.225 5.548 5.198 0 3.102-1.955 5.598-4.671 5.598-.912 0-1.769-.474-2.063-1.033 0 0-.452 1.719-.561 2.14-.203.781-.751 1.762-1.119 2.359.842.261 1.738.401 2.665.401 4.971 0 9-4.029 9-9s-4.029-9-9-9"/>
</svg>