<svg xmlns="http://www.w3.org/2000/svg" xml:space="preserve" width="30" height="30" viewBox="385 0 30 30"><path fill="white" d="M413.934 3.156 407.763.187a1.867 1.867 0 0 0-2.134.361l-11.821 10.786-5.151-3.907a1.247 1.247 0 0 0-1.596.068l-1.65 1.504a1.247 1.247 0 0 0-.005 1.846l4.468 4.077-4.468 4.077a1.247 1.247 0 0 0 .005 1.846l1.65 1.504a1.246 1.246 0 0 0 1.596.068l5.151-3.911 11.827 10.791c.557.562 1.41.708 2.129.361l6.177-2.974a1.872 1.872 0 0 0 1.06-1.689V4.843a1.88 1.88 0 0 0-1.064-1.689l-.003.002zm-6.431 18.578-8.975-6.812 8.975-6.812v13.624z"/></svg>