<svg xmlns="http://www.w3.org/2000/svg" xml:space="preserve" width="48" height="48"><path fill="white" d="M15.576 5a6.508 6.508 0 0 0-6.5 6.5V33h17.5c2.48 0 4.5 2.02 4.5 4.5V40c0 1.65 1.338 2.99 2.986 2.998h.029a3 3 0 0 0 2.982-2.979C37.075 39.49 37.076 8 37.076 8c0-1.13.393-2.162 1.027-3H15.576zm26.5 0c-1.654 0-3 1.346-3 3v6h3.5c1.379 0 2.5-1.121 2.5-2.5V8c0-1.654-1.346-3-3-3zm-36.5 30a2.502 2.502 0 0 0-2.5 2.5v1c0 2.48 2.019 4.5 4.5 4.5h22.527a4.95 4.95 0 0 1-1.027-3v-2.5c0-1.379-1.121-2.5-2.5-2.5h-21z"/></svg>