<svg xmlns="http://www.w3.org/2000/svg" xml:space="preserve" width="36" height="36" viewBox="7 0 36 36"><path fill="white" d="M24.609 0c-6.808 0-8.218 3.516-8.218 5.552v3.839h7.826v.783H12.552C9.968 10.174 7 12.21 7 18s2.968 7.826 5.552 7.826h4.622v-4.695A3.14 3.14 0 0 1 20.304 18h9.391c1.33 0 2.349-1.018 2.349-2.348v-10.1C32.044 2.813 29.46 0 24.609 0zm-3.522 3.913c.862 0 1.565.703 1.565 1.565s-.703 1.565-1.565 1.565a1.568 1.568 0 0 1-1.565-1.565c0-.862.703-1.565 1.565-1.565zm11.739 6.261v5.479a3.14 3.14 0 0 1-3.131 3.13h-9.391c-1.33 0-2.348 1.019-2.348 2.349v9.317c0 2.739 2.583 5.552 7.435 5.552 6.808 0 8.217-3.516 8.217-5.552v-3.84h-7.826v-.782h11.666C40.031 25.826 43 23.79 43 18s-2.969-7.826-5.552-7.826h-4.622zm-3.913 18.782c.862 0 1.565.703 1.565 1.565s-.703 1.565-1.565 1.565-1.565-.703-1.565-1.565.703-1.565 1.565-1.565z"/></svg>