<svg xmlns="http://www.w3.org/2000/svg" xml:space="preserve" width="36" height="36" viewBox="7 0 36 36"><path fill="white" d="M21.999 8.101v3h-6v3h-3v3h-2.325a.585.585 0 0 0-.581.488A7.13 7.13 0 0 0 10 18.75c0 .419.04.876.112 1.331.687-.164 1.945-.41 1.725-1.218 1.184 1.371 4.024.956 4.743.281.804 1.165 5.486.719 5.812-.188 1.008 1.181 4.132 1.181 5.137 0 .325.907 4.989 1.352 5.793.188.256.239.788.438 1.406.543.208-.396.401-.794.581-1.219 3.812-.047 4.634-2.786 4.669-2.906a.595.595 0 0 0-.206-.619c-.063-.054-1.47-1.195-3.75-.806-.641-2.083-2.287-3.033-2.362-3.075a.595.595 0 0 0-.676.056c-.061.049-1.478 1.251-1.256 3.712a4.45 4.45 0 0 0 .469 1.65c-.492.274-1.338.619-2.7.619h-.3v-3h-2.999v-6h-4.199zm12.73 11.587c-.072.141-.167.276-.243.413h5.418c-.651-.164-2.051-.384-1.818-1.237-.768.885-2.223 1.016-3.357.824zm-.244.412H10.112c.146.881.445 1.804.9 2.7 3.258.766 6.677-.401 6.712-.413a.587.587 0 0 1 .75.375.598.598 0 0 1-.356.768c-.115.04-2.175.731-4.706.731-.501 0-1.029-.028-1.556-.093 1.575 2.087 4.244 3.729 8.343 3.729 6.482.001 11.466-2.751 14.286-7.797zm-24.373 0c-.002-.009.002-.009 0-.019-.04.01-.077.01-.112.019h.112zM23.199 9.301h1.8v1.8h-1.8v-1.8zm-6 3h1.8v1.8h-1.8v-1.8zm3 0h1.8v1.8h-1.8v-1.8zm3 0h1.8v1.8h-1.8v-1.8zM14.2 15.3H16v1.8h-1.8v-1.8zm2.999 0h1.8v1.8h-1.8v-1.8zm3 0h1.8v1.8h-1.8v-1.8zm3 0h1.8v1.8h-1.8v-1.8zm2.999 0h1.8v1.8h-1.8v-1.8zm-6.599 6c.077 0 .157.012.225.038a.242.242 0 0 0-.131.206c0 .136.108.263.244.263a.27.27 0 0 0 .225-.131c.03.07.038.143.038.225a.601.601 0 1 1-.601-.601z"/></svg>