<svg xmlns="http://www.w3.org/2000/svg" width="46" height="46" xml:space="preserve">
  <g opacity=".9">
    <g fill="#803076">
      <path d="M40.555 37.523c1.044 1.044 1.1 2.682.123 3.658-.977.977-2.614.921-3.658-.123L5.444 9.484C4.401 8.44 4.346 6.803 5.322 5.826c.977-.976 2.615-.921 3.658.122l31.575 31.575z"/>
      <path d="M8.98 41.059c-1.044 1.044-2.682 1.1-3.658.123-.977-.977-.921-2.614.123-3.658L37.02 5.949c1.044-1.044 2.682-1.1 3.658-.123.977.977.921 2.614-.123 3.659L8.98 41.059z"/>
    </g>
    <path fill="#803076" d="M22.948 11.775c6.341 0 11.5 5.159 11.5 11.5s-5.159 11.5-11.5 11.5-11.5-5.159-11.5-11.5 5.159-11.5 11.5-11.5m0-6c-9.665 0-17.5 7.835-17.5 17.5 0 9.663 7.835 17.5 17.5 17.5s17.5-7.837 17.5-17.5c0-9.664-7.835-17.5-17.5-17.5z"/>
  </g>
  <g fill="#40183B">
    <path d="M26 44.045c0 1.358-1.343 2.459-3 2.459s-3-1.101-3-2.459V2.963c0-1.358 1.343-2.459 3-2.459s3 1.101 3 2.459v41.082z"/>
    <path d="M2.459 26.504c-1.357 0-2.459-1.343-2.459-3s1.102-3 2.459-3h41.082c1.357 0 2.459 1.343 2.459 3s-1.102 3-2.459 3H2.459z"/>
  </g>
</svg>