<svg width="111" height="111" viewBox="0 0 111 111" fill="none" xmlns="http://www.w3.org/2000/svg">
<path d="M7.69481 104.872V103.064C7.69481 102.712 7.55615 102.456 7.27881 102.296C7.00148 102.136 6.52148 101.976 5.83881 101.816L4.41481 101.496C3.76415 101.347 3.27348 101.181 2.94281 101C2.23881 100.627 1.88681 99.8533 1.88681 98.68V97.448C1.88681 96.5627 2.20148 95.9227 2.83081 95.528C3.47081 95.1227 4.31348 94.92 5.35881 94.92C6.40415 94.92 7.24148 95.1227 7.87081 95.528C8.50015 95.9227 8.81481 96.5627 8.81481 97.448V98.152C8.81481 98.3973 8.60148 98.52 8.17481 98.52C7.74815 98.52 7.53481 98.3973 7.53481 98.152V97.288C7.53481 96.456 6.80415 96.04 5.34281 96.04C3.89215 96.04 3.16681 96.456 3.16681 97.288V98.648C3.16681 99.2347 3.25215 99.64 3.42281 99.864C3.60415 100.077 3.93481 100.237 4.41481 100.344L5.83881 100.664C6.86281 100.888 7.44415 101.043 7.58281 101.128C7.73215 101.203 7.90281 101.288 8.09481 101.384C8.28681 101.48 8.41481 101.581 8.47881 101.688C8.55348 101.784 8.63881 101.907 8.73481 102.056C8.89481 102.301 8.97481 102.68 8.97481 103.192V104.712C8.97481 105.587 8.62281 106.227 7.91881 106.632C7.22548 107.037 6.34548 107.24 5.27881 107.24C4.22281 107.24 3.35348 107.037 2.67081 106.632C1.99881 106.227 1.66281 105.587 1.66281 104.712V104.008C1.66281 103.763 1.87615 103.64 2.30281 103.64C2.72948 103.64 2.94281 103.763 2.94281 104.008V104.872C2.94281 105.309 3.16148 105.629 3.59881 105.832C4.04681 106.024 4.60681 106.12 5.27881 106.12C5.96148 106.12 6.53215 106.019 6.99081 105.816C7.46015 105.613 7.69481 105.299 7.69481 104.872ZM13.1378 97.288V104.872C13.1378 105.704 13.9165 106.12 15.4738 106.12C17.0418 106.12 17.8258 105.704 17.8258 104.872V103.72C17.8258 103.475 18.0391 103.352 18.4658 103.352C18.8925 103.352 19.1058 103.475 19.1058 103.72V104.712C19.1058 106.397 17.9165 107.24 15.5378 107.24C14.4285 107.24 13.5378 107.043 12.8658 106.648C12.1938 106.243 11.8578 105.597 11.8578 104.712V97.448C11.8578 96.5627 12.1938 95.9227 12.8658 95.528C13.5378 95.1227 14.4285 94.92 15.5378 94.92C17.9165 94.92 19.1058 95.7627 19.1058 97.448V98.44C19.1058 98.6853 18.8925 98.808 18.4658 98.808C18.0391 98.808 17.8258 98.6853 17.8258 98.44V97.288C17.8258 96.456 17.0418 96.04 15.4738 96.04C13.9165 96.04 13.1378 96.456 13.1378 97.288ZM24.2228 101.08H25.6148C27.0655 101.08 27.7908 100.664 27.7908 99.832V97.288C27.7908 96.456 27.0601 96.04 25.5988 96.04C24.1481 96.04 23.4228 96.456 23.4228 97.288V106.712C23.4228 106.957 23.2095 107.08 22.7828 107.08C22.3561 107.08 22.1428 106.957 22.1428 106.712V97.448C22.1428 96.5627 22.4575 95.9227 23.0868 95.528C23.7161 95.1227 24.5535 94.92 25.5988 94.92C26.6441 94.92 27.4815 95.1227 28.1108 95.528C28.7508 95.9227 29.0708 96.5627 29.0708 97.448V99.672C29.0708 100.664 28.6068 101.283 27.6788 101.528C27.9241 101.752 28.1161 102.115 28.2548 102.616C29.0121 105.336 29.3908 106.728 29.3908 106.792C29.3908 106.984 29.2041 107.08 28.8308 107.08C28.4575 107.08 28.2335 106.957 28.1588 106.712L27.1508 103.064C27.0548 102.691 26.9215 102.456 26.7508 102.36C26.5801 102.253 26.2068 102.2 25.6308 102.2H24.2228C24.0095 102.2 23.9028 102.013 23.9028 101.64C23.9028 101.267 24.0095 101.08 24.2228 101.08ZM39.6877 97.448V104.712C39.6877 105.597 39.341 106.243 38.6477 106.648C37.965 107.043 37.0584 107.24 35.9277 107.24C33.4957 107.24 32.2797 106.397 32.2797 104.712V97.448C32.2797 96.5627 32.621 95.9227 33.3037 95.528C33.997 95.1227 34.909 94.92 36.0397 94.92C38.4717 94.92 39.6877 95.7627 39.6877 97.448ZM33.5597 97.288V104.872C33.5597 105.704 34.365 106.12 35.9757 106.12C37.597 106.12 38.4077 105.704 38.4077 104.872V97.288C38.4077 96.456 37.597 96.04 35.9757 96.04C34.365 96.04 33.5597 96.456 33.5597 97.288ZM45.5771 105.88H48.1691C48.3824 105.88 48.4891 106.067 48.4891 106.44C48.4891 106.813 48.3824 107 48.1691 107H45.5771C44.6597 107 44.0091 106.781 43.6251 106.344C43.2411 105.896 43.0491 105.176 43.0491 104.184V95.448C43.0491 95.2027 43.2624 95.08 43.6891 95.08C44.1157 95.08 44.3291 95.2027 44.3291 95.448V104.184C44.3291 104.803 44.4197 105.24 44.6011 105.496C44.7931 105.752 45.1184 105.88 45.5771 105.88ZM52.9364 105.88H55.5284C55.7418 105.88 55.8484 106.067 55.8484 106.44C55.8484 106.813 55.7418 107 55.5284 107H52.9364C52.0191 107 51.3684 106.781 50.9844 106.344C50.6004 105.896 50.4084 105.176 50.4084 104.184V95.448C50.4084 95.2027 50.6218 95.08 51.0484 95.08C51.4751 95.08 51.6884 95.2027 51.6884 95.448V104.184C51.6884 104.803 51.7791 105.24 51.9604 105.496C52.1524 105.752 52.4778 105.88 52.9364 105.88ZM64.9697 105.88H67.9777C68.6604 105.88 69.135 105.789 69.4017 105.608C69.679 105.427 69.8177 105.101 69.8177 104.632V97.528C69.8177 97.0587 69.679 96.7333 69.4017 96.552C69.135 96.3707 68.6604 96.28 67.9777 96.28H64.9697V105.88ZM63.6897 105.8V96.36C63.6897 95.8907 63.743 95.576 63.8497 95.416C63.967 95.2453 64.2337 95.16 64.6497 95.16H67.9777C69.0444 95.16 69.8284 95.352 70.3297 95.736C70.8417 96.12 71.0977 96.7707 71.0977 97.688V104.472C71.0977 105.389 70.8417 106.04 70.3297 106.424C69.8284 106.808 69.0444 107 67.9777 107H64.6497C64.2337 107 63.967 106.92 63.8497 106.76C63.743 106.589 63.6897 106.269 63.6897 105.8ZM81.8596 97.448V104.712C81.8596 105.597 81.5129 106.243 80.8196 106.648C80.1369 107.043 79.2302 107.24 78.0996 107.24C75.6676 107.24 74.4516 106.397 74.4516 104.712V97.448C74.4516 96.5627 74.7929 95.9227 75.4756 95.528C76.1689 95.1227 77.0809 94.92 78.2116 94.92C80.6436 94.92 81.8596 95.7627 81.8596 97.448ZM75.7316 97.288V104.872C75.7316 105.704 76.5369 106.12 78.1476 106.12C79.7689 106.12 80.5796 105.704 80.5796 104.872V97.288C80.5796 96.456 79.7689 96.04 78.1476 96.04C76.5369 96.04 75.7316 96.456 75.7316 97.288ZM92.9649 104.872C93.0183 105.309 93.1409 105.629 93.3329 105.832C93.5249 106.024 93.8396 106.12 94.2769 106.12C94.7249 106.12 95.0343 106.024 95.2049 105.832C95.3756 105.64 95.4929 105.32 95.5569 104.872L96.8049 95.448C96.8369 95.2027 97.0556 95.08 97.4609 95.08C97.8769 95.08 98.0849 95.1867 98.0849 95.4L96.8049 105.048C96.7089 105.827 96.4796 106.387 96.1169 106.728C95.7543 107.069 95.1409 107.24 94.2769 107.24C93.4236 107.24 92.8103 107.069 92.4369 106.728C92.0636 106.376 91.8449 105.816 91.7809 105.048L91.4129 101.112H91.2529L90.8849 105.048C90.8103 105.816 90.5863 106.376 90.2129 106.728C89.8503 107.069 89.2369 107.24 88.3729 107.24C87.5196 107.24 86.9116 107.069 86.5489 106.728C86.1863 106.387 85.9569 105.827 85.8609 105.048L84.5809 95.368C84.5809 95.176 84.7836 95.08 85.1889 95.08C85.6049 95.08 85.8289 95.2027 85.8609 95.448L87.1089 104.872C87.1729 105.32 87.2849 105.64 87.4449 105.832C87.6156 106.024 87.9249 106.12 88.3729 106.12C88.8209 106.12 89.1356 106.024 89.3169 105.832C89.5089 105.629 89.6369 105.309 89.7009 104.872L90.6929 96.904C90.7249 96.6587 90.9383 96.536 91.3329 96.536C91.7276 96.536 91.9409 96.6587 91.9729 96.904L92.9649 104.872ZM102.411 96.28H102.251V106.712C102.251 106.957 102.038 107.08 101.611 107.08C101.184 107.08 100.971 106.957 100.971 106.712V96.36C100.971 95.8907 101.024 95.576 101.131 95.416C101.248 95.2453 101.515 95.16 101.931 95.16H102.283C103.03 95.16 103.531 95.2453 103.787 95.416C104.043 95.5867 104.256 96.0133 104.427 96.696L106.507 105.096C106.603 105.48 106.694 105.72 106.779 105.816C106.864 105.912 107.078 105.96 107.419 105.96H107.579V95.528C107.579 95.2827 107.792 95.16 108.219 95.16C108.646 95.16 108.859 95.2827 108.859 95.528V105.88C108.859 106.349 108.8 106.669 108.683 106.84C108.576 107 108.315 107.08 107.899 107.08H107.547C106.8 107.08 106.299 106.995 106.043 106.824C105.787 106.653 105.574 106.227 105.403 105.544L103.323 97.144C103.227 96.76 103.136 96.52 103.051 96.424C102.966 96.328 102.752 96.28 102.411 96.28Z" fill="white"/>
<path d="M53 70L58 75L63 70" stroke="white" stroke-width="2" stroke-linecap="round"/>
<rect x="39.5" y="1.5" width="37" height="57" rx="18.5" stroke="white" stroke-width="3"/>
<rect x="54.6665" y="35.6667" width="6.66667" height="10" rx="3.33333" fill="white"/>
</svg>
