<?xml version="1.0" encoding="utf-8"?>
<!-- Generator: Adobe Illustrator 16.0.0, SVG Export Plug-In . SVG Version: 6.00 Build 0)  -->
<!DOCTYPE svg PUBLIC "-//W3C//DTD SVG 1.1//EN" "http://www.w3.org/Graphics/SVG/1.1/DTD/svg11.dtd">
<svg version="1.1" xmlns="http://www.w3.org/2000/svg" xmlns:xlink="http://www.w3.org/1999/xlink" x="0px" y="0px"
	 width="841.89px" height="595.28px" viewBox="0 0 841.89 595.28" enable-background="new 0 0 841.89 595.28" xml:space="preserve">
<g id="star" display="none">
	<g display="inline">
		<g>
			<path fill="#803076" d="M420.289,258.999c21.458,0,38.917,17.458,38.917,38.917s-17.458,38.917-38.917,38.917
				c-21.459,0-38.917-17.458-38.917-38.917S398.83,258.999,420.289,258.999 M420.289,248.999c-27.016,0-48.917,21.901-48.917,48.917
				c0,27.016,21.901,48.917,48.917,48.917s48.917-21.901,48.917-48.917C469.205,270.9,447.305,248.999,420.289,248.999
				L420.289,248.999z"/>
		</g>
	</g>
	<g>
		<path display="inline" fill="#803076" d="M470.638,299.431l-5.345-1.256c-0.856-17.107-14.691-30.844-31.833-31.559l-1.301-5.34
			l-0.53,0.002l-1.255,5.344c-17.104,0.857-30.842,14.69-31.558,31.832l-5.339,1.301l0.002,0.531l5.344,1.255
			c0.856,17.105,14.689,30.845,31.832,31.56l1.302,5.341l0.53-0.003l1.255-5.344c17.105-0.858,30.843-14.691,31.558-31.833
			l5.34-1.302L470.638,299.431z M429.084,272.116l-1.201,5.111c-4.127,0.76-7.863,2.621-10.908,5.271l-4.34-2.64
			C416.994,275.627,422.718,272.793,429.084,272.116z M414.769,291.541c-0.503,1.058-0.908,2.167-1.211,3.32l-3.586,0.873
			c0.373-2.008,1.021-3.914,1.893-5.696L414.769,291.541z M412.286,289.162c0.731-1.344,1.603-2.603,2.582-3.766l1.823,2.945
			c-0.55,0.738-1.062,1.508-1.501,2.323L412.286,289.162z M417.069,288.949l2.721,4.393l-5.497,1.341
			C414.884,292.596,415.832,290.665,417.069,288.949z M412.992,281.336l11.06,10.968l-3.704,0.902L412.992,281.336z
			 M417.459,282.794c1.162-0.996,2.42-1.883,3.769-2.626l1.482,2.859c-0.815,0.457-1.587,0.98-2.322,1.546L417.459,282.794z
			 M421.002,284.947c1.716-1.285,3.651-2.286,5.753-2.915l-1.317,5.613L421.002,284.947z M423.572,282.584l-1.477-2.852
			c1.769-0.879,3.659-1.546,5.653-1.934l-0.822,3.5C425.76,281.623,424.64,282.056,423.572,282.584z M411.901,280.611l2.669,4.305
			c-2.623,3.067-4.445,6.822-5.171,10.959l-5.11,1.246C404.913,290.742,407.705,285.001,411.901,280.611z M404.313,302.83
			l5.114,1.202c0.761,4.128,2.622,7.865,5.271,10.911l-2.638,4.341C407.825,314.924,404.991,309.198,404.313,302.83z M423.7,316.889
			c1.053,0.514,2.156,0.933,3.306,1.245l0.93,3.813c-2.061-0.385-4.016-1.056-5.839-1.962L423.7,316.889z M421.229,319.551
			c-1.294-0.714-2.509-1.555-3.632-2.501l3.144-1.948c0.669,0.491,1.359,0.953,2.091,1.357L421.229,319.551z M421.35,314.724
			l4.191-2.598l1.285,5.271C424.84,316.812,422.997,315.898,421.35,314.724z M413.538,318.926l10.964-11.06l0.903,3.703
			L413.538,318.926z M414.994,314.459c-1.029-1.202-1.946-2.503-2.707-3.903l3.039-1.574c0.462,0.827,0.99,1.609,1.565,2.355
			L414.994,314.459z M417.266,310.724c-1.237-1.653-2.219-3.507-2.849-5.521l5.429,1.275L417.266,310.724z M414.887,308.115
			l-3.022,1.565c-0.844-1.73-1.486-3.573-1.865-5.515l3.683,0.864C413.993,306.102,414.401,307.13,414.887,308.115z M412.81,320.016
			l4.307-2.669c3.065,2.624,6.822,4.445,10.959,5.172l1.246,5.109C422.942,327.004,417.202,324.213,412.81,320.016z
			 M424.566,307.027l-28.714-6.744l35.55-0.148L424.566,307.027z M424.889,292.367l6.743-28.715l0.151,35.551L424.889,292.367z
			 M459.803,296.885l-5.115-1.201c-0.76-4.126-2.621-7.865-5.271-10.908l2.639-4.342
			C456.291,284.794,459.125,290.519,459.803,296.885z M440.533,282.605c-1.11-0.555-2.279-1.001-3.499-1.333l-0.854-3.503
			c2.062,0.385,4.017,1.057,5.841,1.963L440.533,282.605z M442.889,280.168c1.294,0.714,2.508,1.553,3.631,2.499l-2.95,1.829
			c-0.691-0.528-1.414-1.015-2.175-1.444L442.889,280.168z M442.961,284.873l-4.387,2.717l-1.361-5.582
			C439.31,282.621,441.244,283.604,442.961,284.873z M450.58,280.792l-10.966,11.061l-0.904-3.705L450.58,280.792z M449.122,285.259
			c1.03,1.202,1.946,2.504,2.708,3.903l-2.946,1.526c-0.461-0.857-0.998-1.665-1.58-2.44L449.122,285.259z M446.93,288.864
			c1.236,1.692,2.194,3.596,2.8,5.654l-5.458-1.28L446.93,288.864z M449.306,291.563l2.946-1.524
			c0.845,1.729,1.487,3.572,1.865,5.514l-3.654-0.861C450.167,293.607,449.779,292.562,449.306,291.563z M451.306,279.7L447,282.369
			c-3.065-2.621-6.822-4.445-10.959-5.171l-1.245-5.108C441.174,272.714,446.914,275.507,451.306,279.7z M432.484,336.065
			l-0.151-35.551l6.895,6.837L432.484,336.065z M449.188,308.094c0.502-1.022,0.916-2.09,1.23-3.204l3.728-0.908
			c-0.374,2.008-1.022,3.914-1.894,5.697L449.188,308.094z M451.829,310.556c-0.73,1.345-1.601,2.601-2.58,3.764l-1.951-3.149
			c0.529-0.704,1.022-1.436,1.452-2.209L451.829,310.556z M447.213,310.561l-2.593-4.186l5.356-1.307
			C449.367,307.067,448.418,308.911,447.213,310.561z M451.123,318.379l-11.059-10.965l3.705-0.903L451.123,318.379z
			 M441.273,316.434c0.771-0.428,1.501-0.919,2.202-1.446l3.184,1.935c-1.163,0.997-2.421,1.884-3.771,2.629L441.273,316.434z
			 M442.02,319.985c-1.769,0.879-3.659,1.544-5.652,1.933l0.901-3.838c1.09-0.311,2.136-0.72,3.138-1.211L442.02,319.985z
			 M442.861,314.613c-1.63,1.187-3.45,2.127-5.421,2.732l1.239-5.275L442.861,314.613z M435.032,327.604l1.2-5.114
			c4.129-0.761,7.866-2.622,10.911-5.272l4.34,2.639C447.124,324.092,441.399,326.926,435.032,327.604z M452.216,319.107
			l-2.669-4.308c2.623-3.065,4.444-6.822,5.17-10.958l5.11-1.247C459.203,308.974,456.412,314.715,452.216,319.107z
			 M432.714,299.585l6.836-6.896l28.715,6.745L432.714,299.585z"/>
		<path fill="#FFFFFF" d="M446.659,316.922l-3.184-1.935c-0.701,0.527-1.431,1.019-2.202,1.446l1.614,3.117
			C444.238,318.806,445.496,317.919,446.659,316.922z"/>
		<path fill="#FFFFFF" d="M447.298,311.17l1.951,3.149c0.979-1.163,1.85-2.419,2.58-3.764l-3.079-1.595
			C448.32,309.734,447.827,310.466,447.298,311.17z"/>
		<path fill="#FFFFFF" d="M449.547,314.8l2.669,4.308c4.196-4.393,6.987-10.134,7.611-16.513l-5.11,1.247
			C453.991,307.978,452.17,311.734,449.547,314.8z"/>
		<path fill="#FFFFFF" d="M454.146,303.981l-3.728,0.908c-0.314,1.114-0.729,2.182-1.23,3.204l3.064,1.585
			C453.123,307.896,453.771,305.989,454.146,303.981z"/>
		<path fill="#FFFFFF" d="M447.213,310.561c1.205-1.649,2.154-3.493,2.764-5.492l-5.356,1.307L447.213,310.561z"/>
		<path fill="#FFFFFF" d="M437.44,317.346c1.971-0.605,3.791-1.546,5.421-2.732l-4.182-2.543L437.44,317.346z"/>
		<path fill="#FFFFFF" d="M437.269,318.08l-0.901,3.838c1.993-0.389,3.884-1.054,5.652-1.933l-1.613-3.116
			C439.404,317.36,438.358,317.77,437.269,318.08z"/>
		<path fill="#FFFFFF" d="M436.232,322.489l-1.2,5.114c6.367-0.678,12.092-3.512,16.451-7.748l-4.34-2.639
			C444.099,319.867,440.361,321.729,436.232,322.489z"/>
		<path fill="#FFFFFF" d="M451.83,289.162c-0.762-1.399-1.678-2.701-2.708-3.903l-1.818,2.989c0.582,0.775,1.119,1.583,1.58,2.44
			L451.83,289.162z"/>
		<path fill="#FFFFFF" d="M447,282.369l4.306-2.669c-4.392-4.193-10.132-6.986-16.51-7.61l1.245,5.108
			C440.178,277.924,443.935,279.748,447,282.369z"/>
		<path fill="#FFFFFF" d="M446.52,282.667c-1.123-0.946-2.337-1.785-3.631-2.499l-1.494,2.884c0.761,0.43,1.483,0.916,2.175,1.444
			L446.52,282.667z"/>
		<path fill="#FFFFFF" d="M437.034,281.272c1.22,0.332,2.389,0.778,3.499,1.333l1.488-2.873c-1.824-0.906-3.779-1.578-5.841-1.963
			L437.034,281.272z"/>
		<path fill="#FFFFFF" d="M442.961,284.873c-1.717-1.27-3.651-2.252-5.748-2.865l1.361,5.582L442.961,284.873z"/>
		<path fill="#FFFFFF" d="M446.93,288.864l-2.658,4.374l5.458,1.28C449.124,292.46,448.166,290.557,446.93,288.864z"/>
		<path fill="#FFFFFF" d="M454.117,295.552c-0.378-1.941-1.021-3.784-1.865-5.514l-2.946,1.524c0.474,0.999,0.861,2.045,1.157,3.128
			L454.117,295.552z"/>
		<path fill="#FFFFFF" d="M454.688,295.684l5.115,1.201c-0.678-6.366-3.512-12.091-7.747-16.451l-2.639,4.342
			C452.066,287.818,453.928,291.558,454.688,295.684z"/>
		<path fill="#FFFFFF" d="M412.287,310.556c0.761,1.4,1.678,2.701,2.707,3.903l1.897-3.122c-0.575-0.746-1.104-1.528-1.565-2.355
			L412.287,310.556z"/>
		<path fill="#FFFFFF" d="M417.116,317.347l-4.307,2.669c4.393,4.197,10.133,6.988,16.512,7.612l-1.246-5.109
			C423.938,321.792,420.182,319.971,417.116,317.347z"/>
		<path fill="#FFFFFF" d="M417.597,317.05c1.123,0.946,2.338,1.787,3.632,2.501l1.603-3.092c-0.731-0.404-1.422-0.866-2.091-1.357
			L417.597,317.05z"/>
		<path fill="#FFFFFF" d="M427.006,318.134c-1.149-0.313-2.253-0.731-3.306-1.245l-1.604,3.097c1.823,0.906,3.778,1.577,5.839,1.962
			L427.006,318.134z"/>
		<path fill="#FFFFFF" d="M421.35,314.724c1.647,1.175,3.49,2.088,5.477,2.674l-1.285-5.271L421.35,314.724z"/>
		<polygon fill="#FFFFFF" points="413.538,318.926 425.405,311.569 424.502,307.866 		"/>
		<path fill="#FFFFFF" d="M417.266,310.724l2.58-4.245l-5.429-1.275C415.047,307.217,416.028,309.07,417.266,310.724z"/>
		<path fill="#FFFFFF" d="M409.999,304.166c0.379,1.941,1.021,3.784,1.865,5.515l3.022-1.565c-0.485-0.985-0.894-2.014-1.205-3.085
			L409.999,304.166z"/>
		<path fill="#FFFFFF" d="M409.428,304.032l-5.114-1.202c0.678,6.368,3.512,12.094,7.748,16.454l2.638-4.341
			C412.05,311.897,410.188,308.16,409.428,304.032z"/>
		<path fill="#FFFFFF" d="M416.691,288.342l-1.823-2.945c-0.979,1.163-1.851,2.422-2.582,3.766l2.904,1.503
			C415.63,289.85,416.142,289.08,416.691,288.342z"/>
		<path fill="#FFFFFF" d="M414.57,284.916l-2.669-4.305c-4.196,4.39-6.988,10.131-7.612,16.51l5.11-1.246
			C410.125,291.738,411.947,287.983,414.57,284.916z"/>
		<path fill="#FFFFFF" d="M409.972,295.734l3.586-0.873c0.303-1.153,0.708-2.263,1.211-3.32l-2.904-1.503
			C410.993,291.82,410.345,293.727,409.972,295.734z"/>
		<path fill="#FFFFFF" d="M417.069,288.949c-1.237,1.716-2.186,3.646-2.776,5.733l5.497-1.341L417.069,288.949z"/>
		<path fill="#FFFFFF" d="M421.228,280.168c-1.349,0.743-2.606,1.63-3.769,2.626l2.929,1.779c0.735-0.565,1.507-1.089,2.322-1.546
			L421.228,280.168z"/>
		<path fill="#FFFFFF" d="M426.755,282.032c-2.102,0.629-4.037,1.63-5.753,2.915l4.436,2.698L426.755,282.032z"/>
		<path fill="#FFFFFF" d="M427.749,277.799c-1.994,0.388-3.885,1.055-5.653,1.934l1.477,2.852c1.067-0.528,2.188-0.961,3.354-1.285
			L427.749,277.799z"/>
		<path fill="#FFFFFF" d="M427.883,277.228l1.201-5.111c-6.366,0.677-12.09,3.511-16.449,7.743l4.34,2.64
			C420.02,279.849,423.756,277.987,427.883,277.228z"/>
		<g>
			<polygon display="inline" fill="#981868" points="432.714,299.585 468.265,299.434 439.55,292.688 			"/>
			<polygon display="inline" fill="#981868" points="440.064,307.414 451.123,318.379 443.77,306.511 			"/>
			<polygon display="inline" fill="#981868" points="450.58,280.792 438.71,288.147 439.614,291.853 			"/>
			<polygon display="inline" fill="#981868" points="424.052,292.304 412.992,281.336 420.348,293.206 			"/>
			<polygon display="inline" fill="#981868" points="424.889,292.367 431.783,299.203 431.632,263.652 			"/>
			<polygon display="inline" fill="#981868" points="424.566,307.027 431.402,300.135 395.853,300.283 			"/>
			<polygon display="inline" fill="#981868" points="432.333,300.515 432.484,336.065 439.228,307.352 			"/>
		</g>
	</g>
	<g display="inline">
		<path fill="#803076" d="M401.698,317.796l-0.002,0.001C401.729,317.828,401.725,317.823,401.698,317.796z"/>
		<path fill="#803076" d="M440.369,317.637l-0.006-0.004C440.279,317.72,440.256,317.747,440.369,317.637z"/>
		<path fill="#803076" d="M441.102,316.887v0.002C441.141,316.849,441.129,316.858,441.102,316.887z"/>
		<path fill="#803076" d="M440.191,277.482L440.191,277.482C440.176,277.466,440.18,277.469,440.191,277.482z"/>
		<path fill="#803076" d="M459.523,297.212l-26.365-6.192l7.781-12.799c-0.182-0.174-0.678-0.665-0.748-0.738l-12.73,7.889
			l-6.416-26.313l-0.53,0.002l-6.191,26.367l-12.803-7.786l-0.733,0.752l7.889,12.73l-26.313,6.413l0.002,0.531l26.366,6.192
			l-7.777,12.794c0.008,0.008,0.016,0.016,0.024,0.023c0.25,0.247,0.627,0.623,0.719,0.719l12.729-7.889l3.78,15.502l1.334,5.473
			l1.302,5.341l0.53-0.003l1.255-5.344l1.289-5.491l3.648-15.533l12.797,7.781c0.178-0.184,0.633-0.644,0.738-0.746l-2.668-4.306
			l-0.035-0.06l-4.893-8.365l26.02-6.415L459.523,297.212z M401.878,279.117l11.06,10.968l-3.704,0.902L401.878,279.117z
			 M402.424,316.707l10.964-11.06l0.903,3.703L402.424,316.707z M413.453,304.809l-28.714-6.744l35.55-0.148L413.453,304.809z
			 M413.775,290.148l6.743-28.715l0.151,35.551L413.775,290.148z M439.467,278.573L428.5,289.634l-0.904-3.705L439.467,278.573z
			 M421.371,333.847l-0.151-35.551l6.894,6.837L421.371,333.847z M440.01,316.16l-11.059-10.965l3.705-0.903L440.01,316.16z
			 M421.6,297.366l6.835-6.896l28.715,6.745L421.6,297.366z"/>
		<path fill="#803076" d="M440.941,278.215l-0.002,0.005C441.016,278.294,441.037,278.313,440.941,278.215z"/>
		<path fill="#803076" d="M400.948,317.065l0.007-0.012C400.738,316.84,400.633,316.742,400.948,317.065z"/>
	</g>
	<g display="inline">
		<g>
			<path fill="#803076" d="M698.388,297.072c4.346,0.004-2.075-0.271-2.756-1.334c-0.121-0.189,0.492,0.377,0.654-0.092
				c0.008-0.018,0.008-0.033,0-0.045c-0.064-0.078-0.48,0-0.669-0.434c-0.071-0.174,0.103,0.008,0.216,0.053
				c0.744,0.303,1.217-0.613,0.362-1.127C694.569,293.115,692.325,297.072,698.388,297.072z"/>
			<path fill="#803076" d="M701.268,301.195c0.287,0.904,1.312,0.508,1.474,0.049c0.371-1.012-0.559-2.037-0.598-3.253
				c0.039-1.217,0.969-2.241,0.598-3.258c-0.162-0.457-1.187-0.857-1.471,0.049c-0.245,0.779,0.394,0.92,0.387,3.209
				C701.661,300.281,701.025,300.418,701.268,301.195z"/>
			<path fill="#803076" d="M700.682,296.17c0.192,0.139,0.394,0.578,0.306,0.123c-0.359-1.916-1.73-1.568-1.613-2.369
				c0.022-0.158,0.094,0.389,0.42,0.125c0.019-0.012,0.019-0.023,0.019-0.033c0.007-0.068-0.269-0.133-0.167-0.473
				c0.042-0.133,0.061,0.029,0.099,0.094c0.28,0.404,0.998-0.072,0.764-0.654c-0.469-1.133-1.966-0.238-1.942,0.865
				C698.606,295.879,699.94,295.637,700.682,296.17z"/>
			<path fill="#803076" d="M701.169,298.501c0.045-0.313,0.038-0.813,0-1.021h-0.004h-241.81v1.021H701.169z"/>
			<path fill="#803076" d="M700.686,299.809c-0.741,0.533-2.075,0.291-2.116,2.32c-0.023,1.104,1.474,1.996,1.938,0.861
				c0.237-0.578-0.483-1.057-0.76-0.645c-0.042,0.059-0.057,0.227-0.099,0.094c-0.105-0.34,0.174-0.404,0.166-0.48
				c0-0.008,0-0.016-0.018-0.029c-0.33-0.266-0.397,0.283-0.42,0.125c-0.121-0.795,1.25-0.455,1.613-2.371
				C701.079,299.23,700.878,299.668,700.686,299.809z"/>
			<path fill="#803076" d="M695.833,300.758c-0.113,0.045-0.287,0.223-0.216,0.057c0.188-0.436,0.604-0.359,0.665-0.439
				c0.012-0.01,0.012-0.025,0.004-0.045c-0.162-0.469-0.775,0.098-0.654-0.086c0.681-1.066,7.098-1.338,2.756-1.338
				c-6.063,0-3.818,3.957-2.192,2.98C697.046,301.369,696.577,300.451,695.833,300.758z"/>
			<path fill="#803076" d="M702.541,297.991c0.011,0.359,0.087,0.707,0.212,0.843c0.14,0.166,1.727-1.043,4.184-0.443
				c1.342,0.326,1.958,1.304,3.114,1.781c1.542,0.627,3.304-0.832,2.464-0.832c-0.668,0-0.649-0.51-0.23-0.355
				c1.742,0.658,2.4-0.541,3.232-0.917c0.049-0.02,0.075-0.046,0.075-0.08c0-0.029-0.026-0.057-0.075-0.075
				c-0.836-0.374-1.49-1.576-3.232-0.919c-0.419,0.156-0.438-0.355,0.23-0.355c0.84,0-0.922-1.457-2.464-0.83
				c-1.156,0.477-1.772,1.459-3.114,1.784c-2.461,0.598-4.04-0.612-4.184-0.446C702.628,297.279,702.552,297.627,702.541,297.991z"
				/>
			<path fill="#803076" d="M705.315,298.906c-3.686,0-1.717,1.568-1.512,1.16c0.306-0.609,3.756,0.021,2.351,1.961
				c-0.677,0.938-2.328,1.131-2.431,2.631c-0.019,0.207,0.646-0.48,1.693-0.533c1.604-0.08,2.457,0.254,3.213-0.986
				C709.42,301.854,708.392,298.906,705.315,298.906z"/>
			<path fill="#803076" d="M705.315,297.072c3.076,0,4.104-2.947,3.314-4.232c-0.756-1.24-1.609-0.908-3.213-0.986
				c-1.047-0.053-1.712-0.742-1.693-0.533c0.103,1.5,1.754,1.693,2.431,2.631c1.405,1.941-2.045,2.57-2.351,1.961
				C703.599,295.504,701.63,297.072,705.315,297.072z"/>
		</g>
		<g>
			<path fill="#803076" d="M143.559,298.906c-4.346-0.004,2.075,0.271,2.756,1.334c0.121,0.189-0.492-0.377-0.654,0.092
				c-0.008,0.018-0.008,0.033,0,0.045c0.064,0.078,0.48,0,0.669,0.434c0.071,0.174-0.103-0.008-0.216-0.053
				c-0.744-0.303-1.217,0.613-0.362,1.127C147.377,302.863,149.622,298.906,143.559,298.906z"/>
			<path fill="#803076" d="M140.679,294.783c-0.287-0.903-1.312-0.507-1.474-0.049c-0.371,1.012,0.559,2.037,0.598,3.254
				c-0.039,1.217-0.969,2.241-0.598,3.258c0.162,0.457,1.187,0.857,1.471-0.049c0.245-0.779-0.394-0.92-0.387-3.209
				C140.286,295.697,140.921,295.561,140.679,294.783z"/>
			<path fill="#803076" d="M141.265,299.809c-0.192-0.139-0.394-0.578-0.306-0.123c0.359,1.916,1.73,1.568,1.613,2.369
				c-0.022,0.158-0.094-0.389-0.42-0.125c-0.019,0.012-0.019,0.023-0.019,0.033c-0.007,0.068,0.269,0.133,0.167,0.473
				c-0.042,0.133-0.061-0.029-0.099-0.094c-0.28-0.404-0.998,0.072-0.764,0.654c0.469,1.133,1.966,0.238,1.942-0.865
				C143.34,300.1,142.006,300.342,141.265,299.809z"/>
			<path fill="#803076" d="M140.778,297.477c-0.045,0.313-0.038,0.813,0,1.021h0.004h241.81v-1.021H140.778z"/>
			<path fill="#803076" d="M141.261,296.169c0.741-0.533,2.075-0.291,2.116-2.32c0.023-1.104-1.474-1.996-1.938-0.861
				c-0.237,0.578,0.483,1.058,0.76,0.646c0.042-0.06,0.057-0.227,0.099-0.095c0.105,0.341-0.174,0.404-0.166,0.48
				c0,0.008,0,0.016,0.018,0.03c0.33,0.265,0.397-0.284,0.42-0.125c0.121,0.794-1.25,0.454-1.613,2.37
				C140.868,296.748,141.069,296.31,141.261,296.169z"/>
			<path fill="#803076" d="M146.114,295.221c0.113-0.046,0.287-0.224,0.216-0.058c-0.188,0.436-0.604,0.359-0.665,0.439
				c-0.012,0.011-0.012,0.025-0.004,0.045c0.162,0.469,0.775-0.098,0.654,0.087c-0.681,1.065-7.098,1.338-2.756,1.338
				c6.063,0,3.818-3.957,2.192-2.981C144.901,294.609,145.37,295.527,146.114,295.221z"/>
			<path fill="#803076" d="M139.406,297.988c-0.011-0.359-0.087-0.707-0.212-0.844c-0.14-0.166-1.727,1.044-4.184,0.443
				c-1.342-0.326-1.958-1.305-3.114-1.781c-1.542-0.627-3.304,0.832-2.464,0.832c0.668,0,0.649,0.51,0.23,0.355
				c-1.742-0.658-2.4,0.541-3.232,0.918c-0.049,0.02-0.075,0.046-0.075,0.08c0,0.029,0.026,0.057,0.075,0.075
				c0.836,0.374,1.49,1.576,3.232,0.919c0.419-0.156,0.438,0.355-0.23,0.355c-0.84,0,0.922,1.457,2.464,0.83
				c1.156-0.477,1.772-1.459,3.114-1.784c2.461-0.598,4.04,0.612,4.184,0.446C139.319,298.699,139.395,298.351,139.406,297.988z"/>
			<path fill="#803076" d="M136.631,297.073c3.686,0,1.717-1.568,1.512-1.16c-0.306,0.608-3.756-0.022-2.351-1.962
				c0.677-0.938,2.328-1.13,2.431-2.631c0.019-0.207-0.646,0.48-1.693,0.533c-1.604,0.08-2.457-0.253-3.213,0.986
				C132.527,294.125,133.555,297.073,136.631,297.073z"/>
			<path fill="#803076" d="M136.631,298.906c-3.076,0-4.104,2.947-3.314,4.232c0.756,1.24,1.609,0.908,3.213,0.986
				c1.047,0.053,1.712,0.742,1.693,0.533c-0.103-1.5-1.754-1.693-2.431-2.631c-1.405-1.941,2.045-2.57,2.351-1.961
				C138.348,300.475,140.317,298.906,136.631,298.906z"/>
		</g>
	</g>
</g>
<g id="timon">
	<g>
		<path fill="#803076" d="M437.895,312.164c1.044,1.044,1.1,2.682,0.123,3.658l0,0c-0.977,0.977-2.614,0.921-3.658-0.123
			l-31.575-31.575c-1.043-1.043-1.099-2.681-0.122-3.658l0,0c0.977-0.977,2.614-0.921,3.658,0.122L437.895,312.164z"/>
		<path fill="#803076" d="M406.32,315.699c-1.044,1.044-2.682,1.1-3.658,0.123l0,0c-0.977-0.977-0.921-2.614,0.123-3.658
			l31.575-31.574c1.044-1.044,2.682-1.1,3.658-0.123l0,0c0.977,0.977,0.921,2.614-0.123,3.659L406.32,315.699z"/>
	</g>
	<g>
		<g>
			<path fill="#803076" d="M420.288,286.416c6.341,0,11.5,5.159,11.5,11.5c0,6.341-5.159,11.5-11.5,11.5
				c-6.341,0-11.5-5.159-11.5-11.5C408.788,291.575,413.947,286.416,420.288,286.416 M420.288,280.416
				c-9.665,0-17.5,7.835-17.5,17.5c0,9.663,7.835,17.5,17.5,17.5c9.665,0,17.5-7.837,17.5-17.5
				C437.788,288.251,429.953,280.416,420.288,280.416L420.288,280.416z"/>
		</g>
	</g>
	<g>
		<path fill="#40183B" d="M423.34,318.686c0,1.358-1.343,2.459-3,2.459l0,0c-1.657,0-3-1.101-3-2.459v-41.082
			c0-1.358,1.343-2.459,3-2.459l0,0c1.657,0,3,1.101,3,2.459V318.686z"/>
		<path fill="#40183B" d="M399.799,301.145c-1.357,0-2.459-1.343-2.459-3l0,0c0-1.657,1.102-3,2.459-3h41.082
			c1.357,0,2.459,1.343,2.459,3l0,0c0,1.657-1.102,3-2.459,3H399.799z"/>
	</g>
	<g display="none">
		<path display="inline" fill="#881A63" d="M441.406,314.968c1.253,1.253,1.318,3.218,0.146,4.39l0,0
			c-1.171,1.172-3.137,1.105-4.39-0.146l-37.89-37.89c-1.252-1.253-1.319-3.218-0.147-4.39l0,0c1.172-1.172,3.137-1.105,4.39,0.147
			L441.406,314.968z"/>
		<path display="inline" fill="#881A63" d="M403.517,319.211c-1.253,1.252-3.218,1.318-4.39,0.146l0,0
			c-1.172-1.172-1.105-3.137,0.147-4.39l37.889-37.89c1.253-1.252,3.219-1.319,4.39-0.147l0,0c1.172,1.172,1.106,3.137-0.146,4.39
			L403.517,319.211z"/>
	</g>
</g>
</svg>
