<?xml version="1.0" encoding="utf-8"?>
<!-- Generator: Adobe Illustrator 16.0.0, SVG Export Plug-In . SVG Version: 6.00 Build 0)  -->
<!DOCTYPE svg PUBLIC "-//W3C//DTD SVG 1.1//EN" "http://www.w3.org/Graphics/SVG/1.1/DTD/svg11.dtd">
<svg version="1.1" id="Capa_1" xmlns="http://www.w3.org/2000/svg" xmlns:xlink="http://www.w3.org/1999/xlink" x="0px" y="0px"
	 width="228px" height="24px" viewBox="0 0 228 24" enable-background="new 0 0 228 24" xml:space="preserve">
<g opacity="0.25">
	<path d="M118.428,11.357c0,3.787,5.038,5.049,7.238,4.082c2.123-0.934,1.549-1.98,1.686-3.957c0.09-1.285,1.266-2.105,0.914-2.09
		c-2.57,0.132-2.898,2.166-4.498,2.997c-3.318,1.728-4.398-2.521-3.352-2.895C121.107,9.245,118.428,6.818,118.428,11.357
		 M127.473,3.802c0.99,0.828,0.777,2.547,4.139,2.215c1.824-0.182,3.088-2.223,1.148-2.589c-0.99-0.189-1.682,0.805-0.964,1.077
		c0.106,0.038,0.378,0.026,0.17,0.102c-0.552,0.192-0.691-0.14-0.813-0.121c-0.015,0-0.03,0.011-0.046,0.03
		c-0.396,0.457,0.519,0.446,0.266,0.502c-1.309,0.299-0.93-1.485-4.146-1.576C126.463,3.42,127.219,3.587,127.473,3.802
		 M130.496,8.625c0.529,0,0.854,0.268,1.176,0.567c1.114,1.04,1.477,1.051,1.398,1.138c-0.076,0.094-0.541,0.057-0.908,0
		c-1.58-0.246-2.91,1.19-3.299,1.814C128.73,12.352,128.863,8.625,130.496,8.625 M123.145,17.008
		c1.164-0.037,2.494-0.416,3.516,1.613c0.657,1.323-0.844,3.221-2.117,2.102c-0.65-0.566,0.045-1.545,0.654-1.197
		c0.09,0.049,0.203,0.242,0.182,0.061c-0.054-0.469-0.462-0.397-0.5-0.484c0-0.016,0-0.03,0.008-0.049
		c0.291-0.503,0.699,0.121,0.643-0.08c-0.242-0.813-1.354-0.207-2.539-1.031c-0.912-0.635-1.381-1.439-1.274-1.383
		c0.593,0.316,1.134,0.461,1.429,0.453 M134.195,8.621c8.342,0.008,5.254,5.446,3.024,4.104c-1.179-0.707-0.529-1.969,0.491-1.549
		c0.15,0.064,0.396,0.302,0.295,0.075c-0.258-0.597-0.832-0.491-0.918-0.601c-0.012-0.019-0.012-0.038,0-0.064
		c0.227-0.643,1.064,0.136,0.906-0.125c-0.945-1.463-9.777-1.841-3.799-1.837 M116.859,6.357c-1.111-0.045-2.487-0.692-2.479-1.641
		c0.007-1.005-1.689-1.655-1.606-1.716c0.616-0.473,2.154-0.147,2.219,0.227c0.008,0.061,0.189-0.325-0.137-0.669
		c-1.322-1.391,1.274-1.111,1.803-2.347c0.046-0.106,0.114-0.208,0.201-0.212c0.094,0.004,0.154,0.106,0.204,0.212
		c0.528,1.236,3.126,0.956,1.803,2.347c-0.325,0.34-0.147,0.729-0.136,0.669c0.064-0.374,1.602-0.699,2.219-0.227
		c0.082,0.061-1.614,0.71-1.604,1.716C119.354,5.662,117.975,6.312,116.859,6.357 M113.752,5.658
		c-0.907-0.911-0.499-2.559-3.969-2.608c-1.89-0.026-3.413,1.814-1.478,2.389c0.99,0.291,1.814-0.597,1.111-0.937
		c-0.102-0.053-0.386-0.068-0.159-0.121c0.578-0.128,0.688,0.212,0.809,0.208c0.02-0.002,0.038-0.01,0.053-0.023
		c0.458-0.404-0.476-0.491-0.208-0.521c1.36-0.14,0.771,1.546,4.055,1.988c0.774,0.105,0.026-0.136-0.215-0.378 M116.859,7.453
		c-2.079,0.042-3.829,1.187-5.563,0.737c-0.783-0.204-1.463-1.463,0.087-1.814c1.33-0.298,1.561,0.48,5.48,0.477
		c3.916,0.003,4.146-0.775,5.48-0.473c1.549,0.348,0.869,1.606,0.086,1.811C120.691,8.644,118.941,7.495,116.859,7.453
		 M115.295,11.357c0,3.787-5.039,5.049-7.238,4.082c-2.12-0.934-1.549-1.98-1.686-3.957c-0.091-1.285-1.266-2.105-0.915-2.09
		c2.57,0.132,2.899,2.166,4.505,2.997c3.315,1.728,4.396-2.521,3.345-2.899C112.619,9.245,115.295,6.818,115.295,11.357
		 M115.416,8.202c0.237-0.151,0.827-0.242,1.443-0.257c0.619,0.015,1.209,0.106,1.447,0.257c0.283,0.178-1.776,2.117-0.76,5.148
		c0.556,1.651,2.23,2.407,3.043,3.832c1.08,1.901-1.422,4.063-1.422,3.035c0-0.824-0.869-0.801-0.604-0.287
		c1.122,2.146-0.931,2.947-1.569,3.979c-0.038,0.057-0.083,0.087-0.136,0.091c-0.053,0-0.095-0.034-0.133-0.091
		c-0.635-1.032-2.694-1.833-1.568-3.979c0.272-0.514-0.604-0.537-0.604,0.287c0,1.027-2.502-1.134-1.417-3.035
		c0.805-1.425,2.483-2.181,3.04-3.832c1.02-3.028-1.044-4.97-0.756-5.148 M106.25,3.802c-0.982,0.828-0.778,2.547-4.139,2.215
		c-1.825-0.182-3.088-2.223-1.149-2.589c0.99-0.189,1.682,0.805,0.968,1.077c-0.106,0.038-0.386,0.026-0.17,0.102
		c0.548,0.192,0.692-0.14,0.809-0.121c0.015,0,0.038,0.011,0.049,0.03c0.389,0.457-0.525,0.446-0.265,0.502
		c1.304,0.299,0.926-1.485,4.146-1.576C107.255,3.42,106.507,3.587,106.25,3.802 M103.227,8.625c-0.529,0-0.854,0.265-1.172,0.567
		c-1.123,1.04-1.481,1.051-1.402,1.138c0.075,0.094,0.537,0.057,0.907,0c1.58-0.246,2.91,1.19,3.3,1.814
		c0.132,0.208,0-3.519-1.629-3.519 M110.578,17.008c-1.164-0.037-2.495-0.416-3.511,1.613c-0.658,1.323,0.839,3.221,2.109,2.102
		c0.65-0.566-0.038-1.545-0.646-1.197c-0.095,0.049-0.204,0.242-0.186,0.061c0.053-0.469,0.465-0.397,0.499-0.484
		c0.004-0.016,0.004-0.03-0.007-0.049c-0.284-0.503-0.696,0.121-0.639-0.084c0.242-0.809,1.354-0.203,2.54-1.027
		c0.907-0.635,1.379-1.439,1.27-1.383c-0.593,0.316-1.134,0.461-1.425,0.449 M99.526,8.625c-8.338,0-5.253,5.442-3.016,4.101
		c1.172-0.707,0.525-1.969-0.499-1.549c-0.155,0.064-0.397,0.302-0.291,0.075c0.257-0.597,0.832-0.491,0.915-0.601
		c0.015-0.019,0.015-0.038,0.004-0.064c-0.227-0.643-1.069,0.136-0.907-0.125C96.677,8.999,105.505,8.621,99.526,8.625
		 M13.448,7.348C13.41,6.13,12.48,5.106,12.851,4.093c0.162-0.458,1.187-0.854,1.474,0.049c0.242,0.778-0.393,0.915-0.389,3.205
		c-0.007,2.29,0.631,2.43,0.386,3.208c-0.284,0.907-1.308,0.506-1.47,0.049C12.48,9.589,13.41,8.564,13.448,7.348 M10.276,8.266
		c-3.076,0-4.104,2.948-3.314,4.233c0.756,1.239,1.61,0.907,3.212,0.986c1.047,0.053,1.712,0.741,1.693,0.532
		c-0.102-1.5-1.753-1.692-2.43-2.63c-1.406-1.942,2.045-2.57,2.351-1.961C11.993,9.834,13.961,8.266,10.276,8.266 M10.276,6.433
		C7.2,6.433,6.172,3.485,6.962,2.2c0.756-1.24,1.61-0.907,3.212-0.986c1.047-0.053,1.712-0.741,1.693-0.533
		c-0.102,1.5-1.753,1.693-2.43,2.631c-1.406,1.939,2.045,2.57,2.351,1.961C11.993,4.864,13.961,6.433,10.276,6.433 M12.839,6.504
		c0.125,0.136,0.201,0.484,0.212,0.843c-0.011,0.363-0.087,0.71-0.212,0.846c-0.144,0.167-1.723-1.043-4.184-0.446
		C7.313,8.073,6.697,9.056,5.541,9.532c-1.542,0.627-3.304-0.832-2.464-0.832c0.669,0,0.65-0.51,0.23-0.355
		C1.565,9.003,0.911,7.801,0.076,7.427C0.026,7.408,0,7.381,0,7.351c0-0.034,0.026-0.061,0.076-0.079
		c0.832-0.378,1.489-1.576,3.231-0.918c0.419,0.155,0.438-0.355-0.23-0.355c-0.839,0,0.922-1.459,2.464-0.832
		c1.156,0.476,1.772,1.455,3.114,1.78C11.112,7.548,12.699,6.338,12.839,6.504 M17.205,8.266c6.062,0,3.817,3.958,2.192,2.979
		c-0.854-0.514-0.382-1.429,0.363-1.126c0.113,0.045,0.287,0.227,0.215,0.053c-0.189-0.435-0.604-0.355-0.669-0.435
		c-0.007-0.012-0.007-0.027,0-0.045c0.163-0.469,0.775,0.098,0.654-0.091C19.279,8.538,12.858,8.262,17.205,8.266 M17.205,6.433
		c6.062,0,3.817-3.957,2.192-2.982c-0.851,0.518-0.382,1.436,0.363,1.13c0.113-0.045,0.287-0.223,0.215-0.057
		c-0.189,0.435-0.604,0.359-0.665,0.438c-0.011,0.011-0.011,0.026-0.004,0.045c0.163,0.469,0.775-0.098,0.654,0.087
		C19.279,6.161,12.862,6.433,17.205,6.433 M14.91,9.169c0.741,0.533,2.075,0.291,2.117,2.321c0.022,1.104-1.474,2-1.943,0.866
		c-0.234-0.582,0.484-1.059,0.764-0.654c0.038,0.064,0.057,0.227,0.098,0.095c0.102-0.34-0.174-0.404-0.167-0.473
		c0-0.011,0-0.022,0.019-0.034c0.325-0.265,0.397,0.283,0.419,0.125c0.117-0.801-1.254-0.454-1.614-2.37
		C14.517,8.591,14.717,9.029,14.91,9.169 M14.426,7.857h95.218c-0.276-0.287-0.408-0.688-0.189-1.021H14.423
		c-0.045,0.314-0.038,0.813,0,1.021 M14.906,5.529c0.741-0.533,2.075-0.291,2.117-2.32c0.023-1.104-1.474-1.996-1.939-0.862
		c-0.238,0.578,0.484,1.058,0.76,0.646c0.042-0.06,0.057-0.227,0.098-0.094c0.106,0.34-0.174,0.404-0.166,0.48
		c0,0.008,0,0.015,0.019,0.03c0.329,0.265,0.397-0.284,0.42-0.125c0.121,0.794-1.251,0.454-1.614,2.37
		C14.513,6.108,14.714,5.669,14.906,5.529 M215.731,7.348c0.038-1.217,0.968-2.242,0.601-3.258c-0.17-0.454-1.186-0.854-1.474,0.053
		c-0.241,0.778,0.394,0.915,0.386,3.205c0.008,2.29-0.627,2.43-0.386,3.208c0.288,0.907,1.304,0.506,1.474,0.049
		C216.699,9.589,215.766,8.564,215.731,7.348 M218.906,8.266c3.072,0,4.102,2.948,3.314,4.233c-0.756,1.239-1.613,0.907-3.213,0.982
		c-1.047,0.054-1.715,0.745-1.7,0.536c0.106-1.5,1.757-1.692,2.435-2.63c1.406-1.942-2.041-2.57-2.352-1.961
		c-0.204,0.404-2.173-1.161,1.512-1.161 M218.902,6.433c3.076,0,4.105-2.948,3.318-4.233c-0.756-1.24-1.613-0.907-3.213-0.986
		c-1.047-0.053-1.715-0.741-1.7-0.537c0.106,1.504,1.757,1.697,2.435,2.634c1.406,1.939-2.041,2.57-2.352,1.961
		C217.187,4.864,215.218,6.433,218.902,6.433 M216.34,6.504c-0.125,0.136-0.196,0.484-0.211,0.843
		c0.011,0.362,0.086,0.71,0.211,0.846c0.145,0.167,1.724-1.043,4.184-0.446c1.346,0.325,1.959,1.308,3.115,1.784
		c1.542,0.627,3.303-0.832,2.464-0.832c-0.669,0-0.649-0.514-0.227-0.355c1.738,0.658,2.396-0.544,3.228-0.918
		c0.049-0.022,0.076-0.045,0.076-0.076c0-0.034-0.027-0.061-0.076-0.079c-0.832-0.378-1.485-1.576-3.231-0.918
		c-0.415,0.151-0.438-0.355,0.23-0.355c0.839,0-0.922-1.459-2.464-0.832c-1.156,0.476-1.77,1.455-3.115,1.78
		C218.067,7.548,216.484,6.338,216.34,6.504 M211.975,8.266c-6.059,0-3.816,3.958-2.191,2.979c0.854-0.514,0.377-1.429-0.363-1.126
		c-0.113,0.045-0.287,0.227-0.215,0.053c0.191-0.435,0.607-0.355,0.672-0.435c0.008-0.012,0.008-0.027,0-0.045
		c-0.166-0.469-0.778,0.098-0.657-0.091C209.904,8.538,216.321,8.262,211.975,8.266 M211.975,6.433
		c-6.059,0-3.816-3.957-2.191-2.982c0.85,0.518,0.377,1.436-0.363,1.126c-0.113-0.042-0.287-0.219-0.215-0.053
		c0.191,0.435,0.604,0.359,0.668,0.438c0.008,0.011,0.008,0.026,0.004,0.045c-0.166,0.469-0.782-0.098-0.657,0.087
		C209.904,6.161,216.321,6.433,211.975,6.433 M214.273,9.169c-0.745,0.533-2.08,0.291-2.121,2.321
		c-0.02,1.104,1.475,1.996,1.943,0.866c0.234-0.582-0.484-1.059-0.764-0.654c-0.046,0.061-0.057,0.227-0.099,0.095
		c-0.106-0.34,0.174-0.404,0.17-0.476c0-0.008-0.007-0.019-0.019-0.03c-0.329-0.265-0.4,0.283-0.42,0.125
		c-0.121-0.801,1.248-0.454,1.61-2.374C214.662,8.587,214.462,9.025,214.273,9.169 M214.753,7.857h-90.596
		c0.276-0.287,0.416-0.691,0.192-1.021h90.406c0.039,0.314,0.039,0.813,0,1.021 M214.273,5.529c-0.745-0.533-2.08-0.291-2.121-2.32
		c-0.02-1.107,1.475-1.996,1.943-0.866c0.234,0.578-0.484,1.058-0.764,0.65c-0.046-0.06-0.057-0.227-0.099-0.094
		c-0.106,0.34,0.174,0.404,0.17,0.48c0,0.008-0.007,0.015-0.019,0.03c-0.329,0.265-0.4-0.284-0.42-0.125
		c-0.121,0.794,1.248,0.454,1.61,2.37C214.662,6.108,214.462,5.669,214.273,5.529 M119.97,5.654
		c0.911-0.907,0.499-2.555,3.968-2.608c1.891-0.023,3.414,1.814,1.475,2.392c-0.986,0.288-1.811-0.597-1.107-0.937
		c0.102-0.057,0.386-0.072,0.158-0.121c-0.585-0.128-0.691,0.212-0.813,0.208c-0.02-0.002-0.039-0.011-0.053-0.026
		c-0.453-0.401,0.48-0.492,0.212-0.518c-1.36-0.144-0.774,1.546-4.056,1.988C118.979,6.138,119.729,5.896,119.97,5.654"/>
</g>
</svg>
