<?xml version="1.0" standalone="no"?>
<!DOCTYPE svg PUBLIC "-//W3C//DTD SVG 1.1//EN" "http://www.w3.org/Graphics/SVG/1.1/DTD/svg11.dtd" >
<svg xmlns="http://www.w3.org/2000/svg">
<metadata></metadata>
<defs>
<font id="ardagh" horiz-adv-x="877" >
<font-face units-per-em="2048" ascent="1638" descent="-410" />
<missing-glyph horiz-adv-x="393" />
<glyph horiz-adv-x="0" />
<glyph horiz-adv-x="0" />
<glyph unicode="&#xd;" horiz-adv-x="393" />
<glyph horiz-adv-x="0" />
<glyph unicode="&#x9;" horiz-adv-x="393" />
<glyph horiz-adv-x="0" />
<glyph unicode=" "  horiz-adv-x="393" />
<glyph unicode="&#x09;" horiz-adv-x="393" />
<glyph unicode="&#xa0;" horiz-adv-x="393" />
<glyph unicode="!" horiz-adv-x="393" d="M51 260q44 57 54 97q8 30 5 110l-2 64l-6 269q0 136 53 224q38 64 160 177l46 -77q-36 -25 -44 -61q-8 -40 -9 -139l-2 -301q-1 -158 -42 -241q-38 -79 -163 -191zM61 125l152 144l87 -153l-155 -147z" />
<glyph unicode="&#x22;" horiz-adv-x="500" d="M38 1318q0 116 89 116q48 0 74 -41q22 -35 18 -81l-2 -21v-11l-53 -436h-69zM280 1314q0 111 90 120q40 0 69 -35q20 -33 20 -81v-38l-54 -436h-68z" />
<glyph unicode="#" horiz-adv-x="1147" d="M32 426l52 179h225l59 214h-246l51 179h242l119 432h167l-119 -432h149l117 432h166l-117 -432h217l-48 -179l-219 1l-57 -215h232l-48 -179h-234l-117 -430h-166l119 430h-151l-119 -430h-162l117 430h-229zM473 605h153l59 214h-154z" />
<glyph unicode="$" horiz-adv-x="600" d="M16 122l101 166q55 -64 120 -114v257q-134 60 -174 106q-45 51 -45 134q0 113 54 202q59 96 165 131v166h106v-155q84 -2 140 -55.5t56 -134.5l-4 -21l-5 -29l-99 -28q0 -1 -99 -29l25 83q3 9 3 24q0 27 -15 54l-2 3v-250q229 -130 229 -265q0 -249 -229 -367v-223h-106 v197q-80 4 -221 148zM183 770q0 -57 46 -83l8 -6v234q-54 -30 -54 -145zM343 123l19 -1q69 0 69 134q0 76 -73 117l-15 9v-259z" />
<glyph unicode="%" horiz-adv-x="879" d="M8 679q0 114 41 189q38 69 135 146q105 0 165 -78h6q104 0 265 83l101 -79q-76 -145 -137 -268q-184 -368 -324 -725l-122 86q51 94 109 202q161 307 288 635l-34 -14l-103 -30l4 -45l2 -48q6 -137 -56 -218q-51 -67 -142 -120q-73 0 -137 91q-61 86 -61 193zM146 722 q0 -153 85 -197q8 17 19 61q12 91 12 123q-2 29 -15 87l-43 -7l-9 85l-13 8l-17 3l-3 -1h-12l24 18l-22 -78q-6 -73 -6 -102zM475 283q0 118 41 192q37 68 135 142q220 0 220 -270q0 -90 -21 -154q-23 -70 -70 -113q-28 -31 -93 -73q-2 -1 -11 -9q-75 0 -140 89 q-61 84 -61 196zM614 328q0 -151 83 -199q31 74 31 173q0 85 -33 139q-28 47 -61 48q-8 -25 -15 -61q-5 -72 -5 -100z" />
<glyph unicode="&#x26;" horiz-adv-x="846" d="M31 375q0 207 168 333q-29 94 -29 134q0 123 100 211q87 77 221 108q115 -14 158 -173l-145 -130q-66 163 -125 163h-7q-27 -47 -27 -94q0 -56 54 -182q-99 -76 -137 -135q-48 -73 -48 -178q0 -112 52 -194q62 -96 173 -96q51 0 82 26q31 33 31 101q0 21 -3 53 q-3 40 -4 48l-20 101q-85 -7 -128 -26q-57 -24 -94 -85l-53 47q87 171 111 191q39 35 207 64q26 4 49 13q97 26 136 58q35 28 92 119l20 -87l2 -23q0 -72 -42 -137q-44 -68 -113 -93l18 -100l4 -37l2 -28q5 -76 -107 -187q-85 -84 -182 -141q-80 -48 -135 -48 q-116 0 -200 127q-81 122 -81 277z" />
<glyph unicode="'" horiz-adv-x="256" d="M41 1288q0 65 11 92q18 48 73 54q95 0 95 -118l-2 -14l-2 -23l-52 -435h-69z" />
<glyph unicode="(" horiz-adv-x="449" d="M81 -152q22 51 29 110q14 108 5 444q-6 219 -6 242q0 199 46 324q56 157 211 307l37 -73q-58 -65 -86 -166q-19 -117 -19 -324q0 -90 8 -277q8 -193 8 -196q0 -126 -40 -239q71 -51 96 -59l13 3l76 30l17 -55q-26 -47 -51 -87q-68 -107 -122 -107q-28 0 -81.5 41.5 t-70.5 43.5l-8 -1l-28 -9z" />
<glyph unicode=")" horiz-adv-x="449" d="M-85 1016q58 88 120 151q44 45 83 45l39 -9q22 -4 80 -20l132 101q-35 -246 -35 -319q0 -78 -4 -165q-6 -133 -6 -137l4 -214q3 -184 3 -157q0 -177 -84 -327t-251 -256l-27 85q109 81 147 173q30 73 30 204q0 27 -1 88l-2 93l-10 625l-28 -4q-30 0 -86 24 q-13 -8 -66 -51z" />
<glyph unicode="*" horiz-adv-x="746" d="M50 928l49 190l214 -122l-17 297h155l-17 -297l213 121l51 -189l-231 -68l158 -220l-135 -126l-117 252l-117 -253l-134 127l158 221z" />
<glyph unicode="+" horiz-adv-x="1241" d="M160 510v177h384v509h155v-509h383v-177h-383v-510h-155v510h-384z" />
<glyph unicode="," horiz-adv-x="330" d="M43 52l82 186l135 -82l-126 -287h-83q10 26 26 64q8 18 19 68q-1 19 -53 51z" />
<glyph unicode="-" horiz-adv-x="416" d="M-1 412q125 172 194 171h15l62 -3h13l10 -1q25 0 35 11q2 3 17 33l66 -22q-23 -49 -39 -77q-28 -50 -50 -70q-31 -34 -101 -34h-118l-9 -4l-32 -30z" />
<glyph unicode="." horiz-adv-x="330" d="M32 72l107 167l122 -94l-104 -174z" />
<glyph unicode="/" horiz-adv-x="328" d="M-74 -187l372 1480h121l-176 -684q-72 -281 -190 -796h-127z" />
<glyph unicode="0" horiz-adv-x="787" d="M26 474q0 385 347 541q197 -26 299 -183q88 -135 88 -336q0 -111 -31 -210q-56 -178 -212 -271q-73 -44 -124 -44q-82 0 -170 66q-78 59 -124 136q-73 124 -73 301zM214 554q0 -162 62 -273q73 -133 224 -167q75 78 75 268q0 419 -294 474q-67 -109 -67 -302z" />
<glyph unicode="1" horiz-adv-x="416" d="M-17 879q196 61 331 159l4 -879q0 -21 3 -47l49 7l11 -85l-250 -55l-6 847l-28 -11l-92 -29z" />
<glyph unicode="2" horiz-adv-x="680" d="M24 684q0 158 173 270l90 58h20q140 0 223 -110q73 -98 73 -236q0 -153 -197 -347l-111 -109h160q67 0 91 11q21 11 44 59l64 -32l-44 -122q-35 -87 -59 -106q-27 -20 -80 -20h-436v54l202 246q172 184 172 342q0 80 -38 145q-47 79 -125 80l-33 -6q-12 -4 -21 -11 q-7 -12 -15 -64q0 -21 11 -74q1 -6 1 -16l33 11l33 -66l-176 -117l-43 100z" />
<glyph unicode="3" horiz-adv-x="656" d="M-2 189l181 65q85 -182 141 -182q29 0 61 65q36 71 36 156q0 78 -39 132q-37 50 -78 51l-14 -2l-26 -4l-62 -12l-13 87q97 17 136 46q53 38 53 121q0 72 -44 124q-40 49 -86 50l-14 -3l-10 -4l-7 -23l-5 -27v-11q10 -34 14 -43q7 -12 30 -38l-183 -78l-14 70l-2 23 q0 121 140 208l89 54h30q108 0 173 -69q62 -66 62 -170q0 -115 -96 -199q150 -73 150 -252q0 -149 -102 -244q-116 -109 -276 -109q-160 33 -225 218z" />
<glyph unicode="4" horiz-adv-x="682" d="M11 297l382 682l171 42v-657l126 11l-126 -120v-227l-183 -61v274h-343zM172 361h209v348z" />
<glyph unicode="5" horiz-adv-x="625" d="M28 458l112 528l390 3l22 23l49 -25l-38 -148l-22 -48q-16 -15 -63 -20h-280l-37 -166q86 68 140 68q121 0 200 -99q73 -91 73 -215q0 -283 -409 -488l-27 80q246 151 246 369q0 79 -40 128q-44 53 -125 53q-58 0 -76 -17.5t-26 -75.5z" />
<glyph unicode="6" horiz-adv-x="670" d="M24 374q0 196 118 389q113 182 351 347l40 -75q-179 -154 -257 -336l110 45q252 -79 252 -362q0 -164 -101 -286q-103 -125 -238 -125q-115 0 -197 121q-78 115 -78 282zM215 401q0 -114 61 -221q56 -98 105 -98q50 0 77 78q19 57 19 122q0 123 -64 224q-59 92 -121 95 l-27 -8q-16 -6 -28 -15l-17 -71q-5 -74 -5 -106z" />
<glyph unicode="7" horiz-adv-x="604" d="M44 762l44 244h56l8 -20h6h489l-286 -615q-104 -223 -140 -386h-162q32 140 131 339q26 52 174 325l73 135h-209q-45 0 -76 -12q-26 -6 -60 -50z" />
<glyph unicode="8" horiz-adv-x="643" d="M24 252q0 76 33 134q23 40 88 108q-90 63 -90 183q0 183 162 294q61 41 100 45q95 0 171 -78t76 -170q0 -105 -107 -208q81 -48 115 -96q41 -56 41 -140q0 -61 -19 -117q-43 -125 -172 -191q-84 -43 -143 -43q-108 0 -184 90q-71 83 -71 189zM169 341q0 -90 73 -165.5 t167 -78.5q60 41 60 135q0 50 -23 83q-20 29 -227 138q-50 -48 -50 -112zM183 777q0 -38 12.5 -56t187.5 -117q41 47 41 99q0 33 -16 61q-33 58 -125 97q-43 18 -51 18q-49 0 -49 -102z" />
<glyph unicode="9" horiz-adv-x="670" d="M26 602q0 163 100.5 287.5t238.5 124.5q116 0 197 -119q76 -112 76 -285q0 -199 -117 -387.5t-352 -346.5l-41 72q184 152 258 340l-110 -50q-250 84 -250 364zM185 704q0 -122 64 -223q60 -94 124 -94q28 0 51 19q24 106 24 161q0 71 -13 126q-15 62 -55 127 q-51 83 -99 83q-36 0 -64 -48q-32 -56 -32 -151z" />
<glyph unicode=":" horiz-adv-x="379" d="M54 83l103 186l125 -104l-110 -196zM70 445l106 191l124 -109l-109 -194z" />
<glyph unicode=";" horiz-adv-x="379" d="M59 64l83 199l135 -87l-127 -307h-85q35 75 43 117q0 12 2 23q0 15 -3 22q-7 8 -48 33zM70 443l106 193l124 -111l-109 -195z" />
<glyph unicode="&#x3c;" horiz-adv-x="1241" d="M167 526v147l907 481v-200l-678 -356l678 -354v-199z" />
<glyph unicode="=" horiz-adv-x="1241" d="M159 336v169h923v-169h-923zM159 691v169h923v-169h-923z" />
<glyph unicode="&#x3e;" horiz-adv-x="1241" d="M167 45v199l681 354l-681 356v200l907 -481v-147z" />
<glyph unicode="?" horiz-adv-x="496" d="M-10 886q176 267 281 267q79 0 128 -70q44 -62 44 -140q0 -62 -68 -194l-28 -56q-56 -108 -56 -155q0 -90 49 -105l37 18l30 -60q-137 -154 -181 -154q-49 0 -85 58q-37 49 -37 108t78 183q55 89 55 166q0 88 -41 142q-23 29 -48 29q-9 0 -21 -10l-77 -86zM122 125 l153 144l86 -153l-152 -147z" />
<glyph unicode="@" horiz-adv-x="1469" d="M78 528q0 261 119 488q130 250 355 354q121 56 261 56q263 0 423 -191q157 -186 157 -488q0 -152 -42 -288q-40 -130 -118 -226q-99 -123 -217 -123q-126 0 -163 133l-3 10q-86 -141 -209 -141q-124 0 -185 121q-47 93 -47 225q0 143 67 285q74 154 191 222q61 35 124 35 q110 0 158 -106l20 90h166l-134 -624q-11 -50 -11 -76q0 -78 40 -78q20 0 48 17q35 17 56 45q170 161 170 502q0 225 -119 380q-132 173 -357 173q-208 0 -360 -144q-133 -127 -197 -336q-47 -154 -47 -339q0 -210 74 -367q87 -185 263 -264q102 -45 217 -45q245 0 459 208 l53 -79q-241 -232 -512 -232q-338 0 -528 245q-172 221 -172 558zM578 369q0 -51 16 -97q21 -62 62 -62q78 0 149 153q33 70 58.5 182.5t25.5 191.5q0 87 -26 131q-23 39 -60 39q-61 0 -113 -112q-42 -63 -82 -215q-30 -115 -30 -211z" />
<glyph unicode="A" horiz-adv-x="709" d="M-7 177q0 194 337 387q-36 143 -38 149q-30 89 -79 132l-70 -59l-46 67q59 60 161 149l37 12q79 0 149 -118q35 -59 94 -331q63 -284 174 -469l-162 -139l-76 133l-26 55q-160 -138 -316 -159q-61 24 -100 77t-39 114zM170 276q0 -59 86 -147l13 -1h1q94 0 128 148 l-45 191l24 -19h-12l-12 2q-75 -1 -129 -51.5t-54 -122.5z" />
<glyph unicode="B" horiz-adv-x="766" d="M-2 946l227 70q15 -29 37 -89l3 -12l7 9l17 16q14 13 38 23l82 49q98 0 157 -48q65 -52 65 -146q0 -100 -98 -200q89 -38 148 -120q61 -85 61 -176q0 -72 -29 -129q-34 -85 -155 -155q-115 -67 -212 -67l-42 6l-68 17l-161 42l8 81l4 62l7 484q0 -5 -6 103q-3 10 -4 16 l-20 75q-3 6 -5 11l-4 2l-6 -1h-32zM257 581q218 43 218 143q0 44 -47 94q-36 38 -95 51q-19 -19 -42 -54l-6 -680q41 -23 147 -63q51 7 83 50q30 40 30 90q0 90 -60 183q-57 88 -140 124h-82z" />
<glyph unicode="C" horiz-adv-x="754" d="M26 459q0 159 68 286q76 142 218 204l152 66q145 -25 262 -159l-135 -132q-117 131 -222 165q-83 -29 -122 -164q-27 -96 -27 -212q0 -139 60 -262q70 -143 189 -181q53 30 83 144q9 36 9 120l175 -49q0 -166 -120 -245q-104 -69 -309 -69h-27q-254 142 -254 488z" />
<glyph unicode="D" horiz-adv-x="834" d="M28 454q0 170 84 291q76 109 237 202l32 -69q-93 -67 -129 -155q-32 -76 -32 -198q0 -164 91 -290q88 -121 199 -122q39 5 73 87q37 90 37 226q0 200 -260 469l-6 7q-176 170 -176 221q0 33 42 86l101 129l51 -59l-22 -39l302 -328q149 -163 149 -405q0 -165 -74 -294 q-55 -95 -143 -151q-38 -25 -189 -92q-181 22 -279 169q-88 131 -88 315z" />
<glyph unicode="E" horiz-adv-x="768" d="M27 466q0 218 105 347q97 120 318 201q142 0 286 -174l-138 -143q-68 90 -142 141q-61 43 -88 46q-45 -1 -85 -78q-27 -55 -42 -118q-12 -53 -14 -113l283 -7q35 0 57 8q32 12 82 49l29 -78q-110 -89 -202 -106q-32 -6 -244 -8q6 -121 97 -232q85 -104 167 -104 q76 0 118 250l137 -63q-27 -137 -75 -194q-44 -52 -139 -82q-79 -19 -159 -37q-176 28 -270 181q-81 132 -81 314z" />
<glyph unicode="F" horiz-adv-x="596" d="M30 126l78 109v170q0 56 -4 185q-5 159 -14 320v10q0 92 90 199q84 101 228 175q102 -20 225 -155l-121 -141q-86 84 -138 121q-28 20 -48 23q-20 -13 -33 -33q-12 -30 -12 -82q0 -40 7 -98q5 -35 10 -69q2 -49 10 -196q4 -60 4 -111v-159q0 -27 -2 -72q-1 -54 -2 -72 l198 -10l26 5q10 4 45 38l38 -63q-43 -47 -96 -84q-37 -20 -106 -22h9q0 1 -116 3v-401l-202 -32l4 437z" />
<glyph unicode="G" horiz-adv-x="846" d="M26 453q0 216 107 346q88 107 309 216q161 -14 305 -168l-110 -209q-109 202 -252 238q-105 -31 -140 -133q-21 -64 -21 -205q0 -191 83 -327q79 -130 170 -130q22 0 100 123l4 169q1 31 -5 45q-3 4 -6 5l-33 -5l-16 75l271 37l-9 -427q-3 -154 -62 -245 q-63 -95 -212 -160l-40 71q87 34 100 111q3 17 5 169q-121 -86 -205 -86q-127 0 -239 140q-104 130 -104 350z" />
<glyph unicode="H" d="M2 1224l222 76q60 -163 72 -413q106 113 211 138q122 -21 206 -136t84 -218q0 -17 -2 -34l-4 -43l-41 -451q0 -28 5 -40v-1l41 4l4 -84l-177 -35l-28 -3q-26 25 -32 38q-11 29 -11 68q0 11 1 24l16 222q1 20 19 234l4 48q1 8 1 17q1 46 -23 90q-28 52 -97 105 q-45 28 -72 30l-5 -1q-44 -39 -78 -133q-33 -88 -33 -152l-4 -558l-197 -36l-10 1058l-21 94q-1 9 -4 14h-6h-33z" />
<glyph unicode="I" horiz-adv-x="377" d="M36 968l251 52v-987l-203 -56l3 724q0 186 -12 196q-32 20 -39 71z" />
<glyph unicode="J" horiz-adv-x="441" d="M-178 -172l233 141l-5 -78v-31q0 -34 11 -50t21 -16q19 0 31 55q15 73 15 295l-4 731l-89 10v101l178 -14l12 3l36 11l69 24l-2 -843q1 -35 1 -65q0 -90 -9 -135q-19 -99 -90 -178q-103 -113 -260 -113l-42 4l-46 18z" />
<glyph unicode="K" horiz-adv-x="715" d="M-1 1217l223 80q39 -102 47 -243q12 -209 12 -348v-221q180 265 213 511h208q-73 -191 -292 -508q52 -33 125 -148l50 -78l11 -21q89 -162 157 -162l10 -65l-90 -36q-30 -6 -72 -11q-87 0 -218 229l-13 17q-54 90 -73 101l-16 -21v-275l-198 -39v776q0 159 -18 295 q-2 17 -5 71q-1 24 -9 24h-7l-31 -7z" />
<glyph unicode="L" horiz-adv-x="453" d="M4 1222l227 79q56 -232 56 -397v-137l-7 -636l43 -8l22 -2l15 -2q4 1 17 8l86 67l43 -64q-44 -75 -76 -102q-35 -30 -78 -30l-65 6l-74 5l-45 -3l-85 -9l-6 959q-12 199 -34 199h-4q-32 21 -35 67z" />
<glyph unicode="M" horiz-adv-x="1235" d="M12 937l224 74q25 -84 36 -131q77 96 178 134q135 0 225 -166q90 132 202 166q87 0 165 -81q65 -67 97 -158q19 -55 19 -122l-4 -27l-2 -40l-39 -420q-1 -17 -1 -31q0 -24 4 -36l40 9l5 -86l-209 -39q-38 46 -38 97v32l2 26l35 464v19q0 93 -44 161q-44 63 -96 63 q-9 0 -33 -8q-25 -46 -65 -141l-6 -680l-197 -36l10 651q1 92 -43 156q-39 57 -90 58l-15 -3l-24 -9l-44 -88l-17 -50l-6 -679l-197 -36l6 722l-8 49q-9 62 -26 109l-28 3z" />
<glyph unicode="N" d="M11 937l225 75l36 -128l7 -35q116 138 228 166q118 -20 204 -135t86 -224v-29q0 -25 -4 -41l-41 -445q0 -24 5 -40l37 5l9 -84l-206 -39q-33 35 -40 57q-4 14 -4 40q0 15 1 33l2 25l38 496q0 72 -60 141.5t-135 73.5q-47 -38 -81 -129q-30 -82 -31 -152l-7 -552l-197 -36 l6 722l-8 49q-9 62 -26 109l-28 3z" />
<glyph unicode="O" horiz-adv-x="852" d="M26 462q0 162 76 296q83 143 230 207l113 50q187 -19 290 -175q89 -135 89 -325q0 -185 -85 -322q-62 -100 -154 -149q-48 -26 -202 -73h-22q-97 0 -222 144q-113 129 -113 347zM222 541q0 -151 39 -242q49 -111 169 -174q37 -19 68 -23l12 2h8q106 82 106 317 q0 200 -82 315q-76 108 -222 130q-98 -94 -98 -325z" />
<glyph unicode="P" horiz-adv-x="852" d="M19 921l216 75l14 -34q20 -63 29 -107q109 125 222 160q140 -22 234 -163q92 -137 92 -313q0 -231 -93 -366q-97 -140 -318 -216q-47 5 -80 25q-12 4 -41 25l-7 5l-2 -380l-197 -66l6 1115q-2 11 -2 26q-2 11 -7 25l-27 113h-1h-25zM291 239q27 -82 180 -167 q70 4 115 106q50 113 50 305q0 147 -75 266q-71 113 -155 118q-111 -88 -112 -190z" />
<glyph unicode="Q" horiz-adv-x="858" d="M28 431q0 233 103 369q100 131 329 214q48 0 93 -27l119 -72l118 55l-17 -146l-2 -123v-863q0 -97 9 -131q7 -28 55 -66l-264 -73v485q-150 -95 -245 -95q-146 49 -226 189q-72 125 -72 284zM220 501q0 -211 127 -348q13 -15 30 -27q10 -9 33 -23q25 -18 49 -22 q28 2 60 43q36 46 52 120v508q-128 119 -223 119q-38 0 -81 -104q-47 -115 -47 -266z" />
<glyph unicode="R" horiz-adv-x="809" d="M12 937l224 74l34 -117q99 90 173 121q155 -18 237 -127q76 -100 76 -254q0 -211 -226 -320q154 -238 224 -238h10l39 6v-70q-50 -35 -126 -41q-28 -2 -46 -2q-82 0 -168 78q-45 42 -122 143l-13 17q-18 21 -45 50l-2 -242l-197 -36l6 723l-8 49q-9 62 -26 108l-28 4z M285 339h14q118 0 187.5 60.5t69.5 172.5q0 110 -63 200q-59 84 -125 85q-10 -2 -30 -10q-18 -35 -33 -102q-18 -81 -18 -148z" />
<glyph unicode="S" horiz-adv-x="672" d="M41 225v48l219 21l-14 -84q-1 -12 -1 -23q0 -64 25 -97q24 -31 54 -31q54 0 82 56q21 44 21 101q0 73 -145 157l-48 29q-187 118 -187 232q0 238 221 346q27 15 98 34q47 0 101 -44q58 -39 145 -126l-114 -232l-53 48l3 36v15q0 42 -73 101t-119 59q-17 0 -43 -19 q-14 -27 -22 -94q1 -59 128 -128q146 -79 200 -124q110 -90 110 -192q0 -147 -90 -245t-236 -98q-119 0 -191 59q-46 38 -61 88q-10 35 -10 107z" />
<glyph unicode="T" horiz-adv-x="606" d="M-55 834l15 96q2 46 73 46h87v32l8 53l203 150l29 -55q-36 -80 -41 -180h140q55 0 124 68l35 -70q-34 -57 -79 -85q-38 -24 -71 -28h-78l-72 -1v-664q5 -33 12 -42l23 -43q4 -10 11 -19q4 -6 15 -14q49 81 49 253l167 -30q0 -165 -67 -251q-62 -81 -175 -81 q-56 0 -101 25q-18 8 -36 25q-99 69 -99 309v34l3 497h-49q-17 0 -30 -8q-14 -4 -49 -36z" />
<glyph unicode="U" d="M44 954l254 52l-32 -670v-7q0 -59 63 -126q67 -71 130 -74q47 37 81 132q30 85 31 153l7 558l197 32l-8 -673q0 -86 17 -144q4 -19 17 -40h4l46 21l10 -82l-173 -102q-66 66 -97 149q-112 -116 -242 -162q-126 13 -207 125q-73 99 -73 219v9q3 35 8 108q2 36 2 91 q0 44 6 132.5t6 132.5q0 66 -4 87v-1l-2 4l-34 -7z" />
<glyph unicode="V" horiz-adv-x="756" d="M-19 854v56l198 116l89 -229l76 -211l110 -317q33 116 94 349q2 10 13 81q17 100 17 163q0 20 -2 37l-8 87h156v-52q0 -70 -69 -310l-5 -10l-142 -496l7 -35l6 -72l-204 -42v39q0 73 -34 163l-198 530q-28 76 -34 88q-31 60 -70 65z" />
<glyph unicode="W" horiz-adv-x="1217" d="M-20 854v56l199 116l89 -229l76 -211l110 -317l108 393l-17 39q-16 60 -31 90q-28 58 -70 63v56l200 115l21 -53l252 -704l59 216l48 215q13 104 13 171q0 20 -1 37l-6 79h154v-52q0 -31 -22 -118q-15 -56 -45 -188l-3 -11l-144 -499l6 -35l8 -71l-206 -43v39 q0 72 -34 163l-122 335l-115 -388l7 -35l6 -72l-203 -42v39q0 74 -34 163l-199 530q-28 77 -34 88q-31 60 -70 65z" />
<glyph unicode="X" horiz-adv-x="721" d="M-29 0q77 61 114 130l4 8l176 291l-154 294q-23 46 -62 100l-28 -8l-22 60l174 119l22 6l26 -15l16 -23l163 -321q98 158 101 164q50 96 50 181h157q-12 -76 -84 -190l-167 -267l172 -341q25 -50 29 -57q23 -35 48 -39l7 1l44 5l10 -87l-144 -35l-39 -6q-66 0 -145 137 l-6 13l-107 199q-48 -79 -96 -157q-70 -109 -118 -159q-42 -44 -107 -70z" />
<glyph unicode="Y" horiz-adv-x="756" d="M-19 852v57l198 117l89 -231l76 -214l110 -320q33 118 94 353q2 10 13 82q17 101 17 165q0 20 -2 37l-8 88h156v-66q0 -70 -44 -214l-29 -94q-64 -249 -202 -743q-59 -197 -197 -197q-92 0 -125 88q-12 24 -12 70l186 85l-10 -63v-9q0 -25 9 -38q4 -6 6 -7q15 5 43 79 l31 114l-74 -11l7 45l2 14q-27 139 -104 339q-63 160 -126 319q-29 79 -34 90q-31 60 -70 65z" />
<glyph unicode="Z" horiz-adv-x="717" d="M-2 125l435 753h-244q-40 0 -85 -16q-11 -3 -69 -55l25 178h555q34 -25 48 -51l14 -54l-442 -757q182 -39 228 -39q39 0 51 20.5t12 129.5h155v-43l2 -10q0 -96 -59 -149t-163 -53q-25 0 -130 19q-85 14 -151 14q-21 0 -39 -1l-77 -6z" />
<glyph unicode="[" horiz-adv-x="449" d="M129 -252v1429l153 28q46 -12 91 -9l62 24l15 -78l-63 -33q-33 -12 -59 -10l-22 2v-1248l9 -2q41 -2 84 11l37 11l14 -82l-74 -31l-59 -8l-46 4l-74 15z" />
<glyph unicode="\" horiz-adv-x="328" d="M-74 1293h127q109 -473 174 -728l192 -752h-121z" />
<glyph unicode="]" horiz-adv-x="449" d="M10 1167q43 23 78 35l56 9q16 0 48 -4q24 -5 73 -16l67 19v-1425l-151 -34l-41 13l-25 3l-26 -3l-64 -19l-14 76l63 32q33 12 83 8v1246l-11 2q-27 3 -85 -10l-33 -7z" />
<glyph unicode="^" horiz-adv-x="1491" d="M251 879l410 555h167l407 -555h-130l-361 366l-362 -366h-131z" />
<glyph unicode="_" horiz-adv-x="746" d="M-25 -334h796v-139h-796v139z" />
<glyph unicode="`" horiz-adv-x="746" d="M131 1323h214l170 -266h-136z" />
<glyph unicode="a" horiz-adv-x="709" d="M-7 177q0 194 337 387q-36 143 -38 149q-30 89 -79 132l-70 -59l-46 67q59 60 161 149l37 12q79 0 149 -118q35 -59 94 -331q63 -284 174 -469l-162 -139l-76 133l-26 55q-160 -138 -316 -159q-61 24 -100 77t-39 114zM170 276q0 -59 86 -147l13 -1h1q94 0 128 148 l-45 191l24 -19h-12l-12 2q-75 -1 -129 -51.5t-54 -122.5z" />
<glyph unicode="b" horiz-adv-x="766" d="M-2 946l227 70q15 -29 37 -89l3 -12l7 9l17 16q14 13 38 23l82 49q98 0 157 -48q65 -52 65 -146q0 -100 -98 -200q89 -38 148 -120q61 -85 61 -176q0 -72 -29 -129q-34 -85 -155 -155q-115 -67 -212 -67l-42 6l-68 17l-161 42l8 81l4 62l7 484q0 -5 -6 103q-3 10 -4 16 l-20 75q-3 6 -5 11l-4 2l-6 -1h-32zM257 581q218 43 218 143q0 44 -47 94q-36 38 -95 51q-19 -19 -42 -54l-6 -680q41 -23 147 -63q51 7 83 50q30 40 30 90q0 90 -60 183q-57 88 -140 124h-82z" />
<glyph unicode="c" horiz-adv-x="754" d="M26 459q0 159 68 286q76 142 218 204l152 66q145 -25 262 -159l-135 -132q-117 131 -222 165q-83 -29 -122 -164q-27 -96 -27 -212q0 -139 60 -262q70 -143 189 -181q53 30 83 144q9 36 9 120l175 -49q0 -166 -120 -245q-104 -69 -309 -69h-27q-254 142 -254 488z" />
<glyph unicode="d" horiz-adv-x="834" d="M28 454q0 170 84 291q76 109 237 202l32 -69q-93 -67 -129 -155q-32 -76 -32 -198q0 -164 91 -290q88 -121 199 -122q39 5 73 87q37 90 37 226q0 200 -260 469l-6 7q-176 170 -176 221q0 33 42 86l101 129l51 -59l-22 -39l302 -328q149 -163 149 -405q0 -165 -74 -294 q-55 -95 -143 -151q-38 -25 -189 -92q-181 22 -279 169q-88 131 -88 315z" />
<glyph unicode="e" horiz-adv-x="768" d="M27 466q0 218 105 347q97 120 318 201q142 0 286 -174l-138 -143q-68 90 -142 141q-61 43 -88 46q-45 -1 -85 -78q-27 -55 -42 -118q-12 -53 -14 -113l283 -7q35 0 57 8q32 12 82 49l29 -78q-110 -89 -202 -106q-32 -6 -244 -8q6 -121 97 -232q85 -104 167 -104 q76 0 118 250l137 -63q-27 -137 -75 -194q-44 -52 -139 -82q-79 -19 -159 -37q-176 28 -270 181q-81 132 -81 314z" />
<glyph unicode="f" horiz-adv-x="596" d="M30 126l78 109v170q0 56 -4 185q-5 159 -14 320v10q0 92 90 199q84 101 228 175q102 -20 225 -155l-121 -141q-86 84 -138 121q-28 20 -48 23q-20 -13 -33 -33q-12 -30 -12 -82q0 -40 7 -98q5 -35 10 -69q2 -49 10 -196q4 -60 4 -111v-159q0 -27 -2 -72q-1 -54 -2 -72 l198 -10l26 5q10 4 45 38l38 -63q-43 -47 -96 -84q-37 -20 -106 -22h9q0 1 -116 3v-401l-202 -32l4 437z" />
<glyph unicode="g" horiz-adv-x="846" d="M26 453q0 216 107 346q88 107 309 216q161 -14 305 -168l-110 -209q-109 202 -252 238q-105 -31 -140 -133q-21 -64 -21 -205q0 -191 83 -327q79 -130 170 -130q22 0 100 123l4 169q1 31 -5 45q-3 4 -6 5l-33 -5l-16 75l271 37l-9 -427q-3 -154 -62 -245 q-63 -95 -212 -160l-40 71q87 34 100 111q3 17 5 169q-121 -86 -205 -86q-127 0 -239 140q-104 130 -104 350z" />
<glyph unicode="h" d="M2 1224l222 76q60 -163 72 -413q106 113 211 138q122 -21 206 -136t84 -218q0 -17 -2 -34l-4 -43l-41 -451q0 -28 5 -40v-1l41 4l4 -84l-177 -35l-28 -3q-26 25 -32 38q-11 29 -11 68q0 11 1 24l16 222q1 20 19 234l4 48q1 8 1 17q1 46 -23 90q-28 52 -97 105 q-45 28 -72 30l-5 -1q-44 -39 -78 -133q-33 -88 -33 -152l-4 -558l-197 -36l-10 1058l-21 94q-1 9 -4 14h-6h-33z" />
<glyph unicode="i" horiz-adv-x="377" d="M36 968l251 52v-987l-203 -56l3 724q0 186 -12 196q-32 20 -39 71z" />
<glyph unicode="j" horiz-adv-x="441" d="M-178 -172l233 141l-5 -78v-31q0 -34 11 -50t21 -16q19 0 31 55q15 73 15 295l-4 731l-89 10v101l178 -14l12 3l36 11l69 24l-2 -843q1 -35 1 -65q0 -90 -9 -135q-19 -99 -90 -178q-103 -113 -260 -113l-42 4l-46 18z" />
<glyph unicode="k" horiz-adv-x="715" d="M-1 1217l223 80q39 -102 47 -243q12 -209 12 -348v-221q180 265 213 511h208q-73 -191 -292 -508q52 -33 125 -148l50 -78l11 -21q89 -162 157 -162l10 -65l-90 -36q-30 -6 -72 -11q-87 0 -218 229l-13 17q-54 90 -73 101l-16 -21v-275l-198 -39v776q0 159 -18 295 q-2 17 -5 71q-1 24 -9 24h-7l-31 -7z" />
<glyph unicode="l" horiz-adv-x="453" d="M4 1222l227 79q56 -232 56 -397v-137l-7 -636l43 -8l22 -2l15 -2q4 1 17 8l86 67l43 -64q-44 -75 -76 -102q-35 -30 -78 -30l-65 6l-74 5l-45 -3l-85 -9l-6 959q-12 199 -34 199h-4q-32 21 -35 67z" />
<glyph unicode="m" horiz-adv-x="1235" d="M12 937l224 74q25 -84 36 -131q77 96 178 134q135 0 225 -166q90 132 202 166q87 0 165 -81q65 -67 97 -158q19 -55 19 -122l-4 -27l-2 -40l-39 -420q-1 -17 -1 -31q0 -24 4 -36l40 9l5 -86l-209 -39q-38 46 -38 97v32l2 26l35 464v19q0 93 -44 161q-44 63 -96 63 q-9 0 -33 -8q-25 -46 -65 -141l-6 -680l-197 -36l10 651q1 92 -43 156q-39 57 -90 58l-15 -3l-24 -9l-44 -88l-17 -50l-6 -679l-197 -36l6 722l-8 49q-9 62 -26 109l-28 3z" />
<glyph unicode="n" d="M11 937l225 75l36 -128l7 -35q116 138 228 166q118 -20 204 -135t86 -224v-29q0 -25 -4 -41l-41 -445q0 -24 5 -40l37 5l9 -84l-206 -39q-33 35 -40 57q-4 14 -4 40q0 15 1 33l2 25l38 496q0 72 -60 141.5t-135 73.5q-47 -38 -81 -129q-30 -82 -31 -152l-7 -552l-197 -36 l6 722l-8 49q-9 62 -26 109l-28 3z" />
<glyph unicode="o" horiz-adv-x="852" d="M26 462q0 162 76 296q83 143 230 207l113 50q187 -19 290 -175q89 -135 89 -325q0 -185 -85 -322q-62 -100 -154 -149q-48 -26 -202 -73h-22q-97 0 -222 144q-113 129 -113 347zM222 541q0 -151 39 -242q49 -111 169 -174q37 -19 68 -23l12 2h8q106 82 106 317 q0 200 -82 315q-76 108 -222 130q-98 -94 -98 -325z" />
<glyph unicode="p" horiz-adv-x="852" d="M19 921l216 75l14 -34q20 -63 29 -107q109 125 222 160q140 -22 234 -163q92 -137 92 -313q0 -231 -93 -366q-97 -140 -318 -216q-47 5 -80 25q-12 4 -41 25l-7 5l-2 -380l-197 -66l6 1115q-2 11 -2 26q-2 11 -7 25l-27 113h-1h-25zM291 239q27 -82 180 -167 q70 4 115 106q50 113 50 305q0 147 -75 266q-71 113 -155 118q-111 -88 -112 -190z" />
<glyph unicode="q" horiz-adv-x="858" d="M28 431q0 233 103 369q100 131 329 214q48 0 93 -27l119 -72l118 55l-17 -146l-2 -123v-863q0 -97 9 -131q7 -28 55 -66l-264 -73v485q-150 -95 -245 -95q-146 49 -226 189q-72 125 -72 284zM220 501q0 -211 127 -348q13 -15 30 -27q10 -9 33 -23q25 -18 49 -22 q28 2 60 43q36 46 52 120v508q-128 119 -223 119q-38 0 -81 -104q-47 -115 -47 -266z" />
<glyph unicode="r" horiz-adv-x="809" d="M12 937l224 74l34 -117q99 90 173 121q155 -18 237 -127q76 -100 76 -254q0 -211 -226 -320q154 -238 224 -238h10l39 6v-70q-50 -35 -126 -41q-28 -2 -46 -2q-82 0 -168 78q-45 42 -122 143l-13 17q-18 21 -45 50l-2 -242l-197 -36l6 723l-8 49q-9 62 -26 108l-28 4z M285 339h14q118 0 187.5 60.5t69.5 172.5q0 110 -63 200q-59 84 -125 85q-10 -2 -30 -10q-18 -35 -33 -102q-18 -81 -18 -148z" />
<glyph unicode="s" horiz-adv-x="672" d="M41 225v48l219 21l-14 -84q-1 -12 -1 -23q0 -64 25 -97q24 -31 54 -31q54 0 82 56q21 44 21 101q0 73 -145 157l-48 29q-187 118 -187 232q0 238 221 346q27 15 98 34q47 0 101 -44q58 -39 145 -126l-114 -232l-53 48l3 36v15q0 42 -73 101t-119 59q-17 0 -43 -19 q-14 -27 -22 -94q1 -59 128 -128q146 -79 200 -124q110 -90 110 -192q0 -147 -90 -245t-236 -98q-119 0 -191 59q-46 38 -61 88q-10 35 -10 107z" />
<glyph unicode="t" horiz-adv-x="606" d="M-55 834l15 96q2 46 73 46h87v32l8 53l203 150l29 -55q-36 -80 -41 -180h140q55 0 124 68l35 -70q-34 -57 -79 -85q-38 -24 -71 -28h-78l-72 -1v-664q5 -33 12 -42l23 -43q4 -10 11 -19q4 -6 15 -14q49 81 49 253l167 -30q0 -165 -67 -251q-62 -81 -175 -81 q-56 0 -101 25q-18 8 -36 25q-99 69 -99 309v34l3 497h-49q-17 0 -30 -8q-14 -4 -49 -36z" />
<glyph unicode="u" d="M44 954l254 52l-32 -670v-7q0 -59 63 -126q67 -71 130 -74q47 37 81 132q30 85 31 153l7 558l197 32l-8 -673q0 -86 17 -144q4 -19 17 -40h4l46 21l10 -82l-173 -102q-66 66 -97 149q-112 -116 -242 -162q-126 13 -207 125q-73 99 -73 219v9q3 35 8 108q2 36 2 91 q0 44 6 132.5t6 132.5q0 66 -4 87v-1l-2 4l-34 -7z" />
<glyph unicode="v" horiz-adv-x="756" d="M-19 854v56l198 116l89 -229l76 -211l110 -317q33 116 94 349q2 10 13 81q17 100 17 163q0 20 -2 37l-8 87h156v-52q0 -70 -69 -310l-5 -10l-142 -496l7 -35l6 -72l-204 -42v39q0 73 -34 163l-198 530q-28 76 -34 88q-31 60 -70 65z" />
<glyph unicode="w" horiz-adv-x="1217" d="M-20 854v56l199 116l89 -229l76 -211l110 -317l108 393l-17 39q-16 60 -31 90q-28 58 -70 63v56l200 115l21 -53l252 -704l59 216l48 215q13 104 13 171q0 20 -1 37l-6 79h154v-52q0 -31 -22 -118q-15 -56 -45 -188l-3 -11l-144 -499l6 -35l8 -71l-206 -43v39 q0 72 -34 163l-122 335l-115 -388l7 -35l6 -72l-203 -42v39q0 74 -34 163l-199 530q-28 77 -34 88q-31 60 -70 65z" />
<glyph unicode="x" horiz-adv-x="721" d="M-29 0q77 61 114 130l4 8l176 291l-154 294q-23 46 -62 100l-28 -8l-22 60l174 119l22 6l26 -15l16 -23l163 -321q98 158 101 164q50 96 50 181h157q-12 -76 -84 -190l-167 -267l172 -341q25 -50 29 -57q23 -35 48 -39l7 1l44 5l10 -87l-144 -35l-39 -6q-66 0 -145 137 l-6 13l-107 199q-48 -79 -96 -157q-70 -109 -118 -159q-42 -44 -107 -70z" />
<glyph unicode="y" horiz-adv-x="756" d="M-19 852v57l198 117l89 -231l76 -214l110 -320q33 118 94 353q2 10 13 82q17 101 17 165q0 20 -2 37l-8 88h156v-66q0 -70 -44 -214l-29 -94q-64 -249 -202 -743q-59 -197 -197 -197q-92 0 -125 88q-12 24 -12 70l186 85l-10 -63v-9q0 -25 9 -38q4 -6 6 -7q15 5 43 79 l31 114l-74 -11l7 45l2 14q-27 139 -104 339q-63 160 -126 319q-29 79 -34 90q-31 60 -70 65z" />
<glyph unicode="z" horiz-adv-x="717" d="M-2 125l435 753h-244q-40 0 -85 -16q-11 -3 -69 -55l25 178h555q34 -25 48 -51l14 -54l-442 -757q182 -39 228 -39q39 0 51 20.5t12 129.5h155v-43l2 -10q0 -96 -59 -149t-163 -53q-25 0 -130 19q-85 14 -151 14q-21 0 -39 -1l-77 -6z" />
<glyph unicode="{" horiz-adv-x="746" d="M104 572v107q123 0 165 57q36 50 36 199v197q0 182 58 261q70 94 248 94h33v-100q-112 0 -142 -42t-30 -186v-134q0 -224 -46 -307q-34 -61 -109 -95q76 -35 109 -96q46 -85 46 -306v-133q0 -142 33 -188q28 -40 139 -40v-100h-33q-174 0 -240 79.5t-66 276.5v196 q0 138 -27 182q-38 60 -174 78z" />
<glyph unicode="|" horiz-adv-x="746" d="M294 -473v2007h159v-2007h-159z" />
<glyph unicode="}" horiz-adv-x="746" d="M102 -140q114 0 139 42q33 42 33 186v133q0 220 46 304q34 62 110 98q-76 35 -110 95q-46 82 -46 307v134q0 144 -32 189q-29 39 -140 39v100h33q183 0 250 -91q56 -76 56 -264v-197q0 -146 38 -199q35 -46 165 -59v-106q-129 -13 -164 -64q-39 -55 -39 -195v-196 q0 -199 -67 -277.5t-239 -78.5h-33v100z" />
<glyph unicode="~" horiz-adv-x="1241" d="M103 415v190q178 133 309 133q75 0 156 -27l134 -54q88 -34 132 -34q30 0 56 9q81 12 249 154v-194q-91 -70 -159 -99q-71 -31 -148 -31q-94 0 -224 61q-151 52 -198 52q-107 0 -307 -160z" />
<glyph unicode="&#xa1;" horiz-adv-x="393" d="M35 48q38 26 47 64t9 136l1 299q0 154 42 242q41 83 164 190l54 -64q-47 -59 -58 -97q-7 -27 -2 -176l8 -268q0 -133 -55 -225q-40 -67 -160 -178zM100 1054l152 148l87 -155l-152 -144z" />
<glyph unicode="&#xa2;" horiz-adv-x="787" d="M145 484q0 232 203 348l8 4v145h99v-103l1 1q92 -13 147 -63q10 -9 49 -55l-122 -131q-43 50 -63 69q-35 31 -77 51q-60 -63 -60 -227q0 -174 126 -283q30 31 50 164l152 -38q-12 -102 -53 -150q-44 -50 -146 -69v-174h-99v161l-12 2h-19q-184 99 -184 348z" />
<glyph unicode="&#xa3;" horiz-adv-x="676" d="M19 -57l91 327l65 -41q17 2 32 16q19 27 24 61q-1 51 -37 79h-123v105h42q-60 104 -60 200q0 127 86.5 228.5t198.5 101.5q62 0 156 -78q80 -66 120 -129q30 -47 30 -86q0 -66 -34 -128q-11 -22 -46 -66l-187 138q115 63 115 153q0 20 -66 47q-18 8 -39 8q-34 0 -86 -75 q-55 -80 -55 -155q0 -45 61 -159h223l-1 -105h-179l3 -17l2 -23q10 -109 -88 -186l56 -44q28 -15 43 -20q14 3 59 70q48 88 63 212l167 -128q-34 -128 -97 -199q-68 -77 -140 -77q-22 0 -91.5 24t-107.5 24q-41 0 -104 -24q-14 -9 -96 -54z" />
<glyph unicode="&#xa4;" horiz-adv-x="903" d="M28 440l151 194q-57 100 -57 233q0 127 57 234l-151 196l91 114l153 -196q81 70 181 70q95 0 182 -70l152 196l90 -114l-149 -196q55 -110 55 -234q0 -54 -2 -76q-17 -86 -53 -156l149 -195l-90 -116l-151 196q-81 -68 -183 -68q-104 0 -181 67l-153 -195zM256 869 q0 -107 60 -184.5t137 -77.5q80 0 138 76.5t58 185.5q0 111 -59 187q-56 73 -137 73q-91 0 -148 -91q-49 -77 -49 -169z" />
<glyph unicode="&#xa5;" horiz-adv-x="787" d="M40 880l157 114l22 6l24 -15l17 -21l168 -368q47 92 124 278q11 57 11 104l138 9q0 -64 -24 -127q-6 -14 -58 -122l-37 -76h154v-100h-206l-45 -88l-2 -26h253v-101h-254v-347h-171v347h-270v101h251l-60 114h-191v100h139l-39 74l-10 22q-32 70 -43 73l-25 -6z" />
<glyph unicode="&#xa6;" horiz-adv-x="746" d="M294 -342v770h159v-770h-159zM294 634v769h159v-769h-159z" />
<glyph unicode="&#xa7;" horiz-adv-x="746" d="M98 484q0 132 119 245q-90 102 -90 184q0 122 80 232t199 148q95 0 207 -136l-103 -155q-112 143 -162 143q-9 0 -19 -5l-33 -23q-16 -39 -25 -94q1 -100 165 -213q212 -146 212 -298q0 -80 -35 -143q-29 -51 -82 -95q89 -94 89 -181q0 -125 -82 -234.5t-204 -151.5 q-107 0 -230 154l106 152q122 -157 175 -157q24 0 61 24l22 56l7 47q-1 49 -30 90q-33 48 -155 138l-24 21q-168 148 -168 252zM263 574q0 -42 15 -78q4 -15 183 -155q19 35 19 89q0 55 -11 79q-9 19 -186 155q-20 -43 -20 -90z" />
<glyph unicode="&#xa8;" horiz-adv-x="746" d="M170 1081v191h175v-191h-175zM401 1081v191h175v-191h-175z" />
<glyph unicode="&#xa9;" horiz-adv-x="1225" d="M71 664q0 194 81 366q90 192 250 280q99 54 213 54q177 0 318 -136q121 -117 181 -296q40 -119 40 -268q0 -141 -38 -264q-55 -176 -182 -297q-144 -136 -321 -136q-221 0 -385 207q-157 200 -157 490zM187 664q0 -232 132 -403q126 -163 294 -163q177 0 298 165 q127 172 127 401q0 208 -96 362q-66 106 -170 165q-78 44 -157 44q-166 0 -289 -153q-105 -132 -131 -305q-8 -51 -8 -113zM280 658q0 181 91.5 306.5t232.5 125.5q58 0 171 -61q3 0 7.5 5.5t10.5 51.5h76l2 -348h-79q-43 259 -181 259q-152 0 -152 -327q0 -336 166 -336 q104 0 197 180l66 -55q-58 -126 -122 -176q-72 -55 -160 -55q-139 0 -233 130q-93 126 -93 300z" />
<glyph unicode="&#xaa;" horiz-adv-x="469" d="M-13 505q0 118 220 229q-20 74 -22 80q-16 44 -45 70l-48 -39l-41 56l85 70l30 23l27 8q29 0 60 -24l49 -47q31 -57 61 -199q12 -58 48 -147q25 -59 71 -127l-121 -93l-55 83l-13 24q-107 -78 -207 -88q-99 40 -99 121zM121 565q0 -36 48 -77h7q62 0 79 76l-29 107 l18 -16l-5 1h-5q-43 0 -78 -26t-35 -65z" />
<glyph unicode="&#xab;" horiz-adv-x="631" d="M28 492l182 417l132 -97l-139 -320l139 -316l-131 -101zM285 492l179 417l137 -97l-144 -320l144 -316l-137 -100z" />
<glyph unicode="&#xac;" horiz-adv-x="1241" d="M160 673v171h922v-494h-151v323h-771z" />
<glyph unicode="&#xad;" horiz-adv-x="416" d="M-1 412q125 172 194 171h15l62 -3h13l10 -1q25 0 35 11q2 3 17 33l66 -22q-23 -49 -39 -77q-28 -50 -50 -70q-31 -34 -101 -34h-118l-9 -4l-32 -30z" />
<glyph unicode="&#xae;" horiz-adv-x="1225" d="M71 664q0 197 80 366q89 189 253 278q103 56 211 56q178 0 319 -136q125 -120 180 -298q40 -130 40 -270q0 -145 -42 -271q-88 -261 -295 -369q-102 -53 -211 -53q-215 0 -378 207q-157 200 -157 490zM187 664q0 -232 130 -403q123 -163 296 -163q138 0 250 112 q97 97 141 237q32 102 32 217t-32 222q-63 210 -232 305q-78 44 -157 44q-166 0 -289 -153q-105 -132 -131 -305q-8 -51 -8 -113zM315 272v90q53 0 66 8q22 12 22 62v489q0 38 -12 54q-13 12 -76 19v87h314q108 0 178 -50q78 -56 78 -157q0 -146 -163 -202q63 -38 90 -109 q17 -43 30 -139q8 -62 16 -62q5 0 12 16q10 26 10 108h83v-44q0 -188 -142 -188q-139 0 -139 186q0 197 -120 200v-208q0 -37 13 -50q14 -16 73 -23v-87h-333zM562 951l2 -223h18q136 0 136 138q0 127 -107 127q-49 0 -49 -42z" />
<glyph unicode="&#xaf;" horiz-adv-x="746" d="M157 1112v131h431v-131h-431z" />
<glyph unicode="&#xb0;" horiz-adv-x="490" d="M10 1145q0 113 67 196q69 87 169 87q98 0 167 -87q67 -83 67 -196t-67 -197q-70 -86 -169 -86q-108 0 -176 95q-58 83 -58 188zM130 1147q0 -55 27 -100q33 -54 89 -54q55 0 87 55q27 45 27 99q0 58 -27 101q-32 50 -87 50q-52 0 -87 -54q-29 -46 -29 -97z" />
<glyph unicode="&#xb1;" horiz-adv-x="1241" d="M160 28v182h922v-182h-922zM160 671v179h384v318h155v-318h383v-179h-383v-318h-155v318h-384z" />
<glyph unicode="&#xb2;" horiz-adv-x="449" d="M8 800q0 73 69 131q14 12 111 69h15q90 0 148 -64q55 -60 55 -145q0 -90 -133 -209l-55 -49h81q41 0 54 6q18 8 32 39l60 -24l-42 -92q-20 -69 -91 -69h-298v46l137 144q110 123 110 193q0 45 -24 81q-29 43 -75 40l-18 -2l-10 -5l-6 -14q-3 -24 6 -56l15 6l30 -54 l-129 -75l-35 66z" />
<glyph unicode="&#xb3;" horiz-adv-x="432" d="M-13 517l136 42q43 -73 59 -88t30 -17q17 1 35 33q21 37 21 85q0 30 -18 61q-21 36 -51 36h-14l-10 -2l-50 -11l-16 70q85 14 105 36q23 17 23 56q0 91 -75 92l-7 -1l-8 -15l-1 -8l6 -22q0 -5 25 -37l-133 -55l-16 50l-2 18q0 58 53 100q12 10 105 62h23 q69 0 116.5 -43.5t47.5 -104.5q0 -67 -56 -113q89 -46 89 -151q0 -90 -70 -146.5t-186 -66.5q-49 10 -89 37t-72 103z" />
<glyph unicode="&#xb4;" horiz-adv-x="746" d="M230 1057l171 266h213l-247 -266h-137z" />
<glyph unicode="&#xb6;" horiz-adv-x="746" d="M22 1095q0 148 78 246q86 109 234 109h390v-130h-88v-1320h-132v1320h-77v-1320h-132v742q-113 10 -193 106t-80 247z" />
<glyph unicode="&#xb7;" horiz-adv-x="330" d="M44 494q0 37 28.5 69.5t73.5 32.5q47 0 76 -32t29 -70q0 -43 -28 -72q-32 -33 -77 -33q-43 0 -74 36q-28 33 -28 69z" />
<glyph unicode="&#xb8;" horiz-adv-x="746" d="M221 -378l19 91l99 -23l52 -6q39 0 51 15t12 53q0 59 -49 59l-47 -4l-37 -10v211h91v-106l17 3q98 5 137 -37q35 -37 35 -98q0 -88 -50 -133q-60 -54 -148 -47l-71 6z" />
<glyph unicode="&#xb9;" horiz-adv-x="275" d="M-21 922q81 18 237 95l5 -540l32 7l6 -69l-181 -35l-4 492l-30 -11l-51 -11z" />
<glyph unicode="&#xba;" horiz-adv-x="563" d="M8 670q0 99 55 181q57 86 154 122l76 29q124 -9 195 -98q64 -81 64 -200q0 -115 -59 -197q-42 -59 -105 -88q-33 -15 -135 -42h-15q-72 0 -152 88q-78 85 -78 205zM154 717q0 -55 4 -73q6 -56 61 -116q65 -55 107 -59l10 2h3q64 47 64 175q0 223 -190 249 q-59 -53 -59 -178z" />
<glyph unicode="&#xbb;" horiz-adv-x="631" d="M33 176l141 316l-141 320l134 97l180 -417l-180 -416zM288 176l140 316l-140 320l133 97l182 -417l-183 -417z" />
<glyph unicode="&#xbc;" horiz-adv-x="940" d="M-33 -29l707 1043h130l-353 -516l-353 -527h-131zM-20 924q116 36 123 40q32 12 105 59l4 -527l36 7v-70l-174 -33l-5 472l-76 -22zM504 178l248 392l123 24v-369l96 7l-96 -84v-131l-134 -39v156h-213zM638 223h103v154z" />
<glyph unicode="&#xbd;" horiz-adv-x="938" d="M-33 -29l707 1043h130l-353 -516l-353 -527h-131zM-20 924q116 36 123 40q32 12 105 59l4 -527l36 7v-70l-174 -33l-5 472l-76 -22zM516 392q0 44 34 90.5t141 103.5h14q87 0 142 -62q51 -57 51 -142q0 -88 -127 -203l-48 -43h74q37 0 52 8q14 5 26 28l60 -9 q-13 -38 -27 -75q-25 -62 -48 -77q-17 -12 -55 -12h-283v45l129 139q107 124 107 188q0 44 -23 77q-27 37 -71 37h-8l-19 -9q-2 -4 -6 -27q0 -22 6 -34l15 9l29 -60l-122 -74l-36 63z" />
<glyph unicode="&#xbe;" horiz-adv-x="1092" d="M-15 532l134 48q56 -105 82 -105q13 0 33 29q22 41 22 83q0 28 -18 58q-21 33 -48 34l-14 -2h-14l-45 -7l-13 64q72 16 106 38q17 18 17 52q0 30 -21.5 57.5t-51.5 28.5l-6 -1l-7 -11l-1 -8l5 -19l22 -45l-123 -43l-15 28l-5 32q0 58 50 99q13 10 102 61h21 q69 0 113.5 -40t44.5 -105q0 -59 -52 -108q27 -15 51 -44q36 -44 36 -100q0 -87 -70 -147.5t-181 -60.5q-50 10 -87 40.5t-67 93.5zM118 -29l708 1043h130l-353 -516l-351 -527h-134zM658 179l246 391l123 24v-369l100 7l-100 -85v-130l-134 -39v156h-214zM790 223h103v154z " />
<glyph unicode="&#xbf;" horiz-adv-x="496" d="M46 194q0 44 99 251q55 115 55 156q0 45 -21 78q-11 25 -22 29l-11 -5q-39 5 -61 47q136 152 181 152q44 0 85 -58q35 -50 35 -107q0 -35 -14 -63q-4 -16 -61 -122q-61 -113 -61 -167q0 -71 33 -123q31 -48 59 -48q24 0 97 97l64 -58q-101 -150 -155 -202 q-72 -68 -127 -68q-68 0 -124 67q-51 61 -51 144zM131 1024l155 145l83 -151l-148 -149z" />
<glyph unicode="&#xc0;" horiz-adv-x="709" d="M-7 180q0 196 337 391q-36 146 -38 152q-30 90 -79 134l-70 -60l-46 68q59 61 161 151l37 12q79 0 149 -120q35 -60 94 -336q63 -287 174 -474l-162 -141l-76 135l-26 55q-160 -139 -316 -161q-61 25 -100 78.5t-39 115.5zM27 1426h214l170 -306h-136zM170 280 q0 -59 86 -149h13q95 -2 129 149l-45 193l24 -19h-12l-12 2q-75 0 -129 -51.5t-54 -124.5z" />
<glyph unicode="&#xc1;" horiz-adv-x="709" d="M-7 179q0 196 337 391q-36 145 -38 151q-30 89 -79 133l-70 -59l-46 67q59 61 161 151l37 12q79 0 149 -119q35 -60 94 -335q63 -287 174 -474l-162 -140l-76 134l-26 55q-160 -138 -316 -160q-61 25 -100 78.5t-39 114.5zM95 1018l171 305h213l-248 -305h-136zM170 280 q0 -60 86 -150h13q95 -2 129 149l-45 193l24 -19h-12l-12 2q-75 -1 -129 -52t-54 -123z" />
<glyph unicode="&#xc2;" horiz-adv-x="709" d="M-20 1018l173 305h169l173 -305h-138l-119 144l-119 -144h-139zM-7 179q0 196 337 391q-36 145 -38 151q-30 89 -79 133l-70 -59l-46 67q59 61 161 151l37 12q79 0 149 -119q35 -60 94 -335q63 -287 174 -474l-162 -140l-76 134l-26 55q-160 -138 -316 -160 q-61 25 -100 78.5t-39 114.5zM170 280q0 -60 86 -150h13q95 -2 129 149l-45 193l24 -19h-12l-12 2q-75 -1 -129 -52t-54 -123z" />
<glyph unicode="&#xc3;" horiz-adv-x="709" d="M-7 179q0 196 337 390q-36 146 -38 151q-30 90 -79 134l-70 -60l-46 68q59 60 161 150l37 12q79 0 149 -119q35 -60 94 -335q63 -286 174 -473l-162 -140l-76 134l-26 55q-160 -139 -316 -160q-61 25 -100 78t-39 115zM-2 1037q48 232 179 232q16 -2 45 -8l85 -28l21 -3 q8 0 16 6q8 15 16 59h112q-18 -127 -56 -179q-46 -62 -140 -55l-28 9l-72 27l-8 2l-15 1q-23 -1 -43 -63h-112zM170 279q0 -59 86 -149h13q95 -2 129 149l-45 193l24 -19h-12l-12 2q-75 -1 -129 -52t-54 -124z" />
<glyph unicode="&#xc4;" horiz-adv-x="709" d="M-6 179q0 196 336 390q-36 145 -38 151q-30 89 -79 133l-71 -60l-44 68q58 61 160 151l37 12q79 0 149 -120q35 -59 94 -334q63 -286 174 -473l-162 -140l-76 134l-26 55q-160 -139 -316 -160q-138 57 -138 193zM35 1040v232h175v-232h-175zM171 279q0 -60 85 -149h13 q95 -2 129 149l-45 192l24 -19h-12l-12 2q-75 0 -128.5 -51t-53.5 -124zM266 1040v232h175v-232h-175z" />
<glyph unicode="&#xc5;" horiz-adv-x="709" d="M-6 180q0 197 335 392q-37 147 -38 151q-29 91 -78 134l-70 -60l-46 68q59 61 161 151l37 12q79 0 149 -119q35 -60 94 -336q63 -288 174 -475l-162 -141l-76 135l-26 55q-160 -139 -316 -161q-138 57 -138 194zM138 1244q0 81 45 144q50 70 131 70q80 0 129 -72 q43 -63 43 -144q0 -86 -50.5 -152t-121.5 -66q-83 0 -133 72q-43 64 -43 148zM171 281q0 -21 21 -70q21 -34 64 -80h13q95 -2 129 149l-45 194l24 -19h-12l-12 2q-75 -1 -128.5 -52t-53.5 -124zM266 1240q0 -25 16 -49q14 -14 33 -17q43 2 43 66q0 17 -3 30q-9 39 -41 39 q-48 0 -48 -69z" />
<glyph unicode="&#xc6;" horiz-adv-x="1086" d="M-7 177q0 194 337 387q-36 143 -38 149q-30 89 -79 132l-70 -59l-46 67l116 111l43 38l39 12q62 0 119 -74q45 -57 66 -127q21 36 54 69q65 56 244 132q139 0 277 -174l-133 -143q-69 88 -140 142q-56 41 -86 45q-44 -1 -81 -79q-27 -55 -39 -117q-10 -48 -12 -113 l270 -7q46 0 73 13q14 7 61 44l30 -78q-76 -66 -137 -92q-64 -20 -294 -22q5 -118 96 -232q82 -104 158 -104q68 0 115 250l135 -63q-24 -132 -77 -193q-46 -53 -131 -82q-6 -2 -154 -38q-162 16 -259 175q-161 -139 -318 -160q-61 24 -100 77t-39 114zM170 276 q0 -59 86 -147l13 -1q95 -1 129 148l-45 191l24 -19h-12l-12 2q-75 -1 -129 -51.5t-54 -122.5z" />
<glyph unicode="&#xc7;" horiz-adv-x="754" d="M26 452q0 161 68 290q76 144 218 206l152 67q145 -25 262 -161l-135 -134q-117 133 -222 167q-83 -29 -122 -166q-27 -97 -27 -214q0 -140 60 -265q69 -145 189 -184q53 30 83 146q9 36 9 122l175 -50q0 -168 -120 -248q-104 -70 -309 -70h-27q-254 144 -254 494z M246 -375l19 98l99 -25l52 -7q40 1 53 19q10 15 10 55q0 64 -50 65l-46 -6l-37 -10v228h91v-115l17 4q98 5 137 -41q34 -39 34 -106q0 -95 -50 -143q-60 -58 -148 -51l-70 6z" />
<glyph unicode="&#xc8;" horiz-adv-x="768" d="M27 471q0 220 105 351q97 121 318 203q142 0 286 -176l-138 -145q-68 92 -142 143q-61 43 -88 47q-45 -1 -85 -80q-27 -54 -42 -118q-12 -54 -14 -114l283 -7q35 0 57 8q32 11 82 49l29 -79q-110 -90 -202 -107q-32 -6 -244 -8q6 -122 97 -234q85 -106 167 -106 q76 0 118 253l137 -63q-27 -139 -75 -197q-44 -53 -139 -82q-79 -19 -159 -39q-176 29 -270 184q-81 133 -81 317zM265 1323h215l171 -305h-136z" />
<glyph unicode="&#xc9;" horiz-adv-x="768" d="M27 471q0 220 105 351q97 121 318 203q142 0 286 -176l-138 -145q-68 92 -142 143q-61 43 -88 47q-45 -1 -85 -80q-27 -54 -42 -118q-12 -54 -14 -114l283 -7q35 0 57 8q32 11 82 49l29 -79q-110 -90 -202 -107q-32 -6 -244 -8q6 -122 97 -234q85 -106 167 -106 q76 0 118 253l137 -63q-27 -139 -75 -197q-44 -53 -139 -82q-79 -19 -159 -39q-176 29 -270 184q-81 133 -81 317zM365 1018l171 305h214l-248 -305h-137z" />
<glyph unicode="&#xca;" horiz-adv-x="768" d="M27 471q0 220 105 351q97 121 318 203q142 0 286 -176l-138 -145q-68 92 -142 143q-61 43 -88 47q-45 -1 -85 -80q-27 -54 -42 -118q-12 -54 -14 -114l283 -7q35 0 57 8q32 11 82 49l29 -79q-110 -90 -202 -107q-32 -6 -244 -8q6 -122 97 -234q85 -106 167 -106 q76 0 118 253l137 -63q-27 -139 -75 -197q-44 -53 -139 -82q-79 -19 -159 -39q-176 29 -270 184q-81 133 -81 317zM251 1018l173 305h169l172 -305h-138l-119 144l-119 -144h-138z" />
<glyph unicode="&#xcb;" horiz-adv-x="768" d="M28 471q0 219 105 350q97 121 317 203q142 0 286 -176l-138 -145q-68 92 -142 143q-61 43 -88 47q-45 -2 -85 -80q-27 -54 -42 -118q-11 -51 -13 -114l282 -7q35 0 57 8q32 11 82 49l29 -79q-106 -89 -202 -106q-35 -7 -243 -9q6 -124 96 -234q85 -105 167 -105 q76 0 118 252l137 -63q-27 -138 -75 -196q-44 -53 -139 -82q-79 -19 -159 -39q-176 29 -269 184q-81 133 -81 317zM305 1040v232h175v-232h-175zM536 1040v232h175v-232h-175z" />
<glyph unicode="&#xcc;" horiz-adv-x="377" d="M-34 1395h213l168 -305h-136zM36 980l251 53v-1000l-203 -56l3 733q0 189 -12 198q-32 20 -39 72z" />
<glyph unicode="&#xcd;" horiz-adv-x="377" d="M-21 1120l170 306h214l-248 -306h-136zM36 981l251 53v-1001l-203 -56l3 734q0 189 -12 198q-32 20 -39 72z" />
<glyph unicode="&#xce;" horiz-adv-x="377" d="M-114 1120l173 306h169l173 -306h-138l-117 144l-121 -144h-139zM36 981l251 53v-1001l-203 -56l3 734q0 189 -12 198q-32 20 -39 72z" />
<glyph unicode="&#xcf;" horiz-adv-x="377" d="M-45 1091v232h177v-232h-177zM36 978l251 53v-998l-203 -56l3 732q0 188 -12 198q-32 20 -39 71zM188 1091v232h175v-232h-175z" />
<glyph unicode="&#xd0;" d="M24 436q0 197 108 348q118 164 313 192q79 -23 128 -64l-1 74h-255v119l245 2q-3 11 -7 32l-8 37l-32 6l-4 62l179 63q39 0 56 -70q0 -6 10 -53q8 -42 10 -78h134v-120h-131l4 -155l-10 -474l4 -138l11 -123l32 -17v-50l-183 -44q-33 20 -39 58q-5 19 -8 50 q-158 -106 -250 -106q-119 0 -214 142q-92 137 -92 307zM203 577q0 -190 75 -329q72 -133 156 -133q58 0 133 126l4 426q-73 75 -116 108q-80 62 -141 64l-22 -5q-13 -6 -20 -12q-69 -124 -69 -245z" />
<glyph unicode="&#xd1;" d="M11 947l225 75l36 -129l7 -36q116 140 228 168q118 -20 204 -136t86 -226v-30q0 -24 -4 -41l-41 -449q0 -25 5 -41l37 5l9 -84l-206 -40q-33 34 -40 57t-3 74l2 26l38 501q0 73 -60 142.5t-135 73.5q-47 -37 -81 -129q-30 -84 -31 -154l-7 -558l-197 -36l6 730l-8 49 q-9 62 -26 109l-28 4zM314 1037q45 232 179 232q17 -2 45 -7l85 -29l20 -3q8 0 15 6q9 15 19 59h109q-18 -141 -69 -195q-42 -46 -126 -39l-29 9l-71 27l-7 2l-16 1q-7 0 -17 -10q-13 -11 -23 -53h-114z" />
<glyph unicode="&#xd2;" horiz-adv-x="852" d="M26 468q0 163 76 298q83 145 230 210l113 50q187 -19 290 -176q89 -137 89 -329q0 -187 -85 -326q-62 -101 -154 -150q-48 -26 -202 -74h-22q-97 0 -222 145q-113 131 -113 352zM222 547q0 -153 39 -244q48 -112 169 -176q37 -20 68 -24l12 2h8q106 83 106 321 q0 202 -82 318q-76 110 -222 131q-98 -94 -98 -328zM304 1323h213l168 -305h-136z" />
<glyph unicode="&#xd3;" horiz-adv-x="852" d="M26 468q0 163 76 298q83 145 230 210l113 50q187 -19 290 -176q89 -137 89 -329q0 -187 -85 -326q-62 -101 -154 -150q-48 -26 -202 -74h-22q-97 0 -222 145q-113 131 -113 352zM222 547q0 -153 39 -244q48 -112 169 -176q37 -20 68 -24l12 2h8q106 83 106 321 q0 202 -82 318q-76 110 -222 131q-98 -94 -98 -328zM401 1018l170 305h217l-251 -305h-136z" />
<glyph unicode="&#xd4;" horiz-adv-x="852" d="M26 468q0 164 76 299q83 144 230 209l113 50q187 -18 290 -176q89 -137 89 -329q0 -186 -85 -326q-62 -101 -154 -150q-48 -26 -202 -74h-22q-97 0 -222 145q-113 132 -113 352zM149 1049l172 305h169l171 -305h-136l-119 144l-119 -144h-138zM222 547q0 -152 39 -244 q48 -112 169 -176q37 -19 68 -24l12 2h8q106 83 106 322q0 202 -82 318q-76 109 -222 131q-98 -95 -98 -329z" />
<glyph unicode="&#xd5;" horiz-adv-x="852" d="M26 468q0 163 76 298q83 144 230 209l113 50q187 -18 290 -176q89 -137 89 -328q0 -187 -85 -326q-62 -101 -154 -150q-48 -26 -202 -74h-22q-97 0 -222 145q-113 131 -113 352zM166 1058q22 103 49 151q46 80 130 80q16 -2 45 -7l86 -29l20 -3q8 0 16 7q8 13 16 58h112 q-18 -126 -57 -178q-47 -63 -113 -57l-26 2l-30 9l-71 26l-8 2l-14 2q-7 -1 -17 -11q-13 -11 -25 -52h-113zM222 547q0 -153 39 -244q48 -112 169 -176q37 -20 68 -24l12 2h8q106 83 106 321q0 202 -82 318q-76 109 -222 131q-98 -95 -98 -328z" />
<glyph unicode="&#xd6;" horiz-adv-x="852" d="M26 467q0 164 76 298q83 145 230 210l113 50q187 -19 290 -176q89 -137 89 -329q0 -186 -85 -325q-62 -101 -154 -150q-48 -26 -202 -74h-22q-97 0 -222 145q-113 131 -113 351zM217 1061v232h175v-232h-175zM222 546q0 -152 39 -243q48 -112 169 -177q37 -19 68 -23 l12 2h8q106 83 106 321q0 202 -82 318q-76 109 -222 130q-98 -94 -98 -328zM448 1061v232h177v-232h-177z" />
<glyph unicode="&#xd7;" horiz-adv-x="1241" d="M182 157l342 441l-342 439l103 132l340 -438l342 438l103 -132l-340 -439l340 -441l-103 -130l-342 439l-340 -439z" />
<glyph unicode="&#xd8;" horiz-adv-x="852" d="M26 462q0 163 76 297q83 145 230 209l112 50q18 0 65 -10q19 -4 38 -9l3 -2l46 117h113l-65 -178q180 -145 180 -421q0 -186 -85 -325q-62 -101 -154 -150q-48 -26 -202 -74h-21l-36 9l-24 11l-48 -136h-114l69 194q-183 141 -183 418zM222 527q0 -184 62 -275l195 546 q-95 72 -157 72q-100 -98 -100 -343zM366 165l80 -51q35 -16 52 -16h12l7 1q107 83 107 320q0 81 -4 113q-13 108 -57 179z" />
<glyph unicode="&#xd9;" d="M44 965l254 53l-32 -678q-4 -63 62.5 -134.5t130.5 -75.5q47 38 81 134q30 86 31 155l7 565l197 32l-8 -680q0 -88 17 -146q4 -20 17 -41h4l46 21l10 -82l-173 -103q-66 65 -97 150q-112 -117 -242 -165q-126 14 -207 127q-76 105 -73 231q3 36 8 109q2 37 2 92 q0 45 6 134.5t6 133.5q0 67 -4 88v-1l-2 4l-34 -7zM291 1323h214l170 -305h-136z" />
<glyph unicode="&#xda;" d="M44 965l254 53l-32 -678q-4 -63 62.5 -134.5t130.5 -75.5q47 38 81 134q30 86 31 155l7 565l197 32l-8 -680q0 -88 17 -146q4 -20 17 -41h4l46 21l10 -82l-173 -103q-66 65 -97 150q-112 -117 -242 -165q-126 14 -207 127q-76 105 -73 231q3 36 8 109q2 37 2 92 q0 45 6 134.5t6 133.5q0 67 -4 88v-1l-2 4l-34 -7zM390 1018l171 305h215l-250 -305h-136z" />
<glyph unicode="&#xdb;" d="M44 965l254 53l-32 -678q-4 -63 62.5 -134.5t130.5 -75.5q47 38 81 134q30 86 31 155l7 565l197 32l-8 -680q0 -88 17 -146q4 -20 17 -41h4l46 21l10 -82l-173 -103q-66 65 -97 150q-112 -117 -242 -165q-126 14 -207 127q-76 105 -73 231q3 36 8 109q2 37 2 92 q0 45 6 134.5t6 133.5q0 67 -4 88v-1l-2 4l-34 -7zM191 1018l173 305h169l171 -305h-136l-119 144l-119 -144h-139z" />
<glyph unicode="&#xdc;" d="M46 965l251 52l-30 -677q-4 -63 62 -134.5t130 -75.5q47 38 81 134q30 86 31 154l6 565l198 32l-8 -680q0 -87 17 -145q4 -20 17 -42l4 1l46 21l10 -82l-173 -103q-66 65 -97 150q-112 -117 -242 -165q-127 14 -207 127q-73 103 -73 232q11 112 11 200q0 45 6 134t6 134 q0 67 -5 86q0 2 -2 4l-34 -6zM221 1071v232h177v-232h-177zM452 1071v232h177v-232h-177z" />
<glyph unicode="&#xdd;" horiz-adv-x="756" d="M-19 860v57l198 118l89 -233l76 -215l110 -322q33 118 94 356q2 10 13 82q22 134 15 204l-8 88h156v-66q0 -71 -44 -216l-29 -95q-65 -252 -202 -748q-59 -198 -197 -198q-92 0 -125 89q-12 24 -12 70l186 85l-10 -62v-10q0 -25 9 -38q4 -6 6 -8q15 5 43 80l31 115 l-74 -11l7 46l2 14q-27 140 -104 341q-63 161 -126 321q-29 79 -34 90q-31 61 -70 66zM243 1016l170 307h214l-248 -307h-136z" />
<glyph unicode="&#xde;" horiz-adv-x="852" d="M4 1148v74l226 78q55 -199 55 -394v-36q106 119 215 153q140 -23 234 -166q92 -139 92 -315q0 -230 -94 -367q-97 -141 -317 -216q-63 9 -127 56l-3 -383l-198 -66l-9 1388q0 18 -2 48q-4 21 -9 39l-10 75q-5 40 -15 38h3zM292 244q8 -22 19 -37q31 -60 160 -132 q70 4 115 106q50 114 50 307q0 148 -75 268q-71 113 -155 118q-112 -89 -112 -191z" />
<glyph unicode="&#xdf;" horiz-adv-x="811" d="M-25 -1v122q84 0 102 20q15 25 15 126v810q0 192 84 309q88 122 234 122q155 0 242 -135q74 -115 74 -279q0 -225 -155 -310q109 -46 164 -171q46 -104 46 -234q0 -156 -48 -265q-66 -149 -208 -149q-96 0 -154 67q-54 63 -54 158q0 48 24 87q28 46 75 46q42 0 69 -36 q24 -33 24 -75q0 -38 -29 -111q2 -8 12.5 -17.5t25.5 -11.5q29 1 44 43q19 57 19 222q0 252 -36 329q-28 59 -109 52l-21 -2q-33 0 -52 14q-25 14 -25 43q0 26 21 47q17 10 51 15l25 -5l20 -3q102 2 102 237q0 332 -147 332q-75 0 -109 -65q-38 -72 -38 -248v-1084h-288z " />
<glyph unicode="&#xe0;" horiz-adv-x="709" d="M-7 180q0 196 337 391q-36 145 -38 151q-30 90 -79 134l-70 -60l-46 68q59 61 161 151l37 12q79 0 149 -120q35 -60 94 -335q63 -287 174 -475l-162 -140l-76 135l-26 55q-160 -139 -316 -161q-61 25 -100 78.5t-39 115.5zM57 1385h214l171 -306h-136zM170 280 q0 -60 86 -149l13 -1q95 -2 129 150l-45 193l24 -19h-12l-12 2q-75 -1 -129 -52.5t-54 -123.5z" />
<glyph unicode="&#xe1;" horiz-adv-x="709" d="M-7 179q0 196 337 391q-36 145 -38 151q-30 89 -79 133l-70 -59l-46 67q59 61 161 151l37 12q79 0 149 -119q35 -60 94 -335q63 -287 174 -474l-162 -140l-76 134l-26 55q-160 -138 -316 -160q-61 25 -100 78.5t-39 114.5zM95 1018l171 305h213l-248 -305h-136zM170 280 q0 -60 86 -150h13q95 -2 129 149l-45 193l24 -19h-12l-12 2q-75 -1 -129 -52t-54 -123z" />
<glyph unicode="&#xe2;" horiz-adv-x="709" d="M-20 1018l173 305h169l173 -305h-138l-119 144l-119 -144h-139zM-7 179q0 196 337 391q-36 145 -38 151q-30 89 -79 133l-70 -59l-46 67q59 61 161 151l37 12q79 0 149 -119q35 -60 94 -335q63 -287 174 -474l-162 -140l-76 134l-26 55q-160 -138 -316 -160 q-61 25 -100 78.5t-39 114.5zM170 280q0 -60 86 -150h13q95 -2 129 149l-45 193l24 -19h-12l-12 2q-75 -1 -129 -52t-54 -123z" />
<glyph unicode="&#xe3;" horiz-adv-x="709" d="M-7 179q0 196 337 390q-36 146 -38 151q-30 90 -79 134l-70 -60l-46 68q59 60 161 150l37 12q79 0 149 -119q35 -60 94 -335q63 -286 174 -473l-162 -140l-76 134l-26 55q-160 -139 -316 -160q-61 25 -100 78t-39 115zM-2 1037q48 232 179 232q16 -2 45 -8l85 -28l21 -3 q8 0 16 6q8 15 16 59h112q-18 -127 -56 -179q-46 -62 -140 -55l-28 9l-72 27l-8 2l-15 1q-23 -1 -43 -63h-112zM170 279q0 -59 86 -149h13q95 -2 129 149l-45 193l24 -19h-12l-12 2q-75 -1 -129 -52t-54 -124z" />
<glyph unicode="&#xe4;" horiz-adv-x="709" d="M-6 179q0 196 336 390q-36 145 -38 151q-30 89 -79 133l-71 -60l-44 68q58 61 160 151l37 12q79 0 149 -120q35 -59 94 -334q63 -286 174 -473l-162 -140l-76 134l-26 55q-160 -139 -316 -160q-138 57 -138 193zM35 1040v232h175v-232h-175zM171 279q0 -60 85 -149h13 q95 -2 129 149l-45 192l24 -19h-12l-12 2q-75 0 -128.5 -51t-53.5 -124zM266 1040v232h175v-232h-175z" />
<glyph unicode="&#xe5;" horiz-adv-x="709" d="M-6 180q0 197 335 392q-37 147 -38 151q-29 91 -78 134l-70 -60l-46 68q59 61 161 151l37 12q79 0 149 -119q35 -60 94 -336q63 -288 174 -475l-162 -141l-76 135l-26 55q-160 -139 -316 -161q-138 57 -138 194zM138 1244q0 81 45 144q50 70 131 70q80 0 129 -72 q43 -63 43 -144q0 -86 -50.5 -152t-121.5 -66q-83 0 -133 72q-43 64 -43 148zM171 281q0 -21 21 -70q21 -34 64 -80h13q95 -2 129 149l-45 194l24 -19h-12l-12 2q-75 -1 -128.5 -52t-53.5 -124zM266 1240q0 -25 16 -49q14 -14 33 -17q43 2 43 66q0 17 -3 30q-9 39 -41 39 q-48 0 -48 -69z" />
<glyph unicode="&#xe6;" horiz-adv-x="1086" d="M-7 177q0 194 337 387q-36 143 -38 149q-30 89 -79 132l-70 -59l-46 67l116 111l43 38l39 12q62 0 119 -74q45 -57 66 -127q21 36 54 69q65 56 244 132q139 0 277 -174l-133 -143q-69 88 -140 142q-56 41 -86 45q-44 -1 -81 -79q-27 -55 -39 -117q-10 -48 -12 -113 l270 -7q46 0 73 13q14 7 61 44l30 -78q-76 -66 -137 -92q-64 -20 -294 -22q5 -118 96 -232q82 -104 158 -104q68 0 115 250l135 -63q-24 -132 -77 -193q-46 -53 -131 -82q-6 -2 -154 -38q-162 16 -259 175q-161 -139 -318 -160q-61 24 -100 77t-39 114zM170 276 q0 -59 86 -147l13 -1q95 -1 129 148l-45 191l24 -19h-12l-12 2q-75 -1 -129 -51.5t-54 -122.5z" />
<glyph unicode="&#xe7;" horiz-adv-x="754" d="M26 452q0 161 68 290q76 144 218 206l152 67q145 -25 262 -161l-135 -134q-117 133 -222 167q-83 -29 -122 -166q-27 -97 -27 -214q0 -140 60 -265q69 -145 189 -184q53 30 83 146q9 36 9 122l175 -50q0 -168 -120 -248q-104 -70 -309 -70h-27q-254 144 -254 494z M246 -375l19 98l99 -25l52 -7q40 1 53 19q10 15 10 55q0 64 -50 65l-46 -6l-37 -10v228h91v-115l17 4q98 5 137 -41q34 -39 34 -106q0 -95 -50 -143q-60 -58 -148 -51l-70 6z" />
<glyph unicode="&#xe8;" horiz-adv-x="768" d="M27 471q0 220 105 351q97 121 318 203q142 0 286 -176l-138 -145q-68 92 -142 143q-61 43 -88 47q-45 -1 -85 -80q-27 -54 -42 -118q-12 -54 -14 -114l283 -7q35 0 57 8q32 11 82 49l29 -79q-110 -90 -202 -107q-32 -6 -244 -8q6 -122 97 -234q85 -106 167 -106 q76 0 118 253l137 -63q-27 -139 -75 -197q-44 -53 -139 -82q-79 -19 -159 -39q-176 29 -270 184q-81 133 -81 317zM265 1323h215l171 -305h-136z" />
<glyph unicode="&#xe9;" horiz-adv-x="768" d="M27 471q0 220 105 351q97 121 318 203q142 0 286 -176l-138 -145q-68 92 -142 143q-61 43 -88 47q-45 -1 -85 -80q-27 -54 -42 -118q-12 -54 -14 -114l283 -7q35 0 57 8q32 11 82 49l29 -79q-110 -90 -202 -107q-32 -6 -244 -8q6 -122 97 -234q85 -106 167 -106 q76 0 118 253l137 -63q-27 -139 -75 -197q-44 -53 -139 -82q-79 -19 -159 -39q-176 29 -270 184q-81 133 -81 317zM365 1018l171 305h214l-248 -305h-137z" />
<glyph unicode="&#xea;" horiz-adv-x="768" d="M27 471q0 220 105 351q97 121 318 203q142 0 286 -176l-138 -145q-68 92 -142 143q-61 43 -88 47q-45 -1 -85 -80q-27 -54 -42 -118q-12 -54 -14 -114l283 -7q35 0 57 8q32 11 82 49l29 -79q-110 -90 -202 -107q-32 -6 -244 -8q6 -122 97 -234q85 -106 167 -106 q76 0 118 253l137 -63q-27 -139 -75 -197q-44 -53 -139 -82q-79 -19 -159 -39q-176 29 -270 184q-81 133 -81 317zM251 1018l173 305h169l172 -305h-138l-119 144l-119 -144h-138z" />
<glyph unicode="&#xeb;" horiz-adv-x="768" d="M28 471q0 219 105 350q97 121 317 203q142 0 286 -176l-138 -145q-68 92 -142 143q-61 43 -88 47q-45 -2 -85 -80q-27 -54 -42 -118q-11 -51 -13 -114l282 -7q35 0 57 8q32 11 82 49l29 -79q-106 -89 -202 -106q-35 -7 -243 -9q6 -124 96 -234q85 -105 167 -105 q76 0 118 252l137 -63q-27 -138 -75 -196q-44 -53 -139 -82q-79 -19 -159 -39q-176 29 -269 184q-81 133 -81 317zM305 1040v232h175v-232h-175zM536 1040v232h175v-232h-175z" />
<glyph unicode="&#xec;" horiz-adv-x="377" d="M-69 1364h217l169 -305h-136zM36 980l251 52v-999l-203 -56l3 733q0 188 -12 198q-32 20 -39 72z" />
<glyph unicode="&#xed;" horiz-adv-x="377" d="M18 1059l168 305h216l-250 -305h-134zM36 980l251 52v-999l-203 -56l3 733q0 188 -12 198q-32 20 -39 72z" />
<glyph unicode="&#xee;" horiz-adv-x="377" d="M-75 1079l172 306h170l173 -306h-138l-119 144l-120 -144h-138zM36 980l251 53v-1000l-203 -56l3 733q0 189 -12 198q-32 20 -39 72z" />
<glyph unicode="&#xef;" horiz-adv-x="377" d="M-29 1081v232h175v-232h-175zM36 978l251 53v-998l-203 -56l3 732q0 188 -12 197q-32 20 -39 72zM203 1081v232h177v-232h-177z" />
<glyph unicode="&#xf0;" d="M24 436q0 197 108 348q118 164 313 192q79 -23 128 -64l-1 74h-255v119l245 2q-3 11 -7 32l-8 37l-32 6l-4 62l179 63q39 0 56 -70q0 -6 10 -53q8 -42 10 -78h134v-120h-131l4 -155l-10 -474l4 -138l11 -123l32 -17v-50l-183 -44q-33 20 -39 58q-5 19 -8 50 q-158 -106 -250 -106q-119 0 -214 142q-92 137 -92 307zM203 577q0 -190 75 -329q72 -133 156 -133q58 0 133 126l4 426q-73 75 -116 108q-80 62 -141 64l-22 -5q-13 -6 -20 -12q-69 -124 -69 -245z" />
<glyph unicode="&#xf1;" d="M11 947l225 75l36 -129l7 -36q116 140 228 168q118 -20 204 -136t86 -226v-30q0 -24 -4 -41l-41 -449q0 -25 5 -41l37 5l9 -84l-206 -40q-33 34 -40 57t-3 74l2 26l38 501q0 73 -60 142.5t-135 73.5q-47 -37 -81 -129q-30 -84 -31 -154l-7 -558l-197 -36l6 730l-8 49 q-9 62 -26 109l-28 4zM314 1037q45 232 179 232q17 -2 45 -7l85 -29l20 -3q8 0 15 6q9 15 19 59h109q-18 -141 -69 -195q-42 -46 -126 -39l-29 9l-71 27l-7 2l-16 1q-7 0 -17 -10q-13 -11 -23 -53h-114z" />
<glyph unicode="&#xf2;" horiz-adv-x="852" d="M26 468q0 163 76 298q83 145 230 210l113 50q187 -19 290 -176q89 -137 89 -329q0 -187 -85 -326q-62 -101 -154 -150q-48 -26 -202 -74h-22q-97 0 -222 145q-113 131 -113 352zM222 547q0 -153 39 -244q48 -112 169 -176q37 -20 68 -24l12 2h8q106 83 106 321 q0 202 -82 318q-76 110 -222 131q-98 -94 -98 -328zM304 1323h213l168 -305h-136z" />
<glyph unicode="&#xf3;" horiz-adv-x="852" d="M26 468q0 163 76 298q83 145 230 210l113 50q187 -19 290 -176q89 -137 89 -329q0 -187 -85 -326q-62 -101 -154 -150q-48 -26 -202 -74h-22q-97 0 -222 145q-113 131 -113 352zM222 547q0 -153 39 -244q48 -112 169 -176q37 -20 68 -24l12 2h8q106 83 106 321 q0 202 -82 318q-76 110 -222 131q-98 -94 -98 -328zM401 1018l170 305h217l-251 -305h-136z" />
<glyph unicode="&#xf4;" horiz-adv-x="852" d="M26 468q0 163 76 298q83 145 230 210l113 50q187 -19 290 -176q89 -137 89 -329q0 -187 -85 -326q-62 -101 -154 -150q-48 -26 -202 -74h-22q-97 0 -222 145q-113 131 -113 352zM222 547q0 -153 39 -244q48 -112 169 -176q37 -20 68 -24l12 2h8q106 83 106 321 q0 202 -82 318q-76 110 -222 131q-98 -94 -98 -328zM288 1018l170 305h170l173 -305h-138l-118 144l-121 -144h-136z" />
<glyph unicode="&#xf5;" horiz-adv-x="852" d="M26 468q0 164 76 299q83 145 230 210l113 50q187 -18 290 -176q89 -137 89 -329q0 -187 -85 -327q-62 -101 -154 -150q-48 -26 -202 -74h-22q-97 0 -222 145q-113 132 -113 352zM145 1129q46 232 178 232q17 -2 45 -8l85 -28l19 -4q6 1 15 7l23 59h106 q-18 -135 -63.5 -188.5t-131.5 -45.5l-29 8l-71 28l-7 1l-16 2q-24 -1 -41 -63h-112zM222 548q0 -153 39 -244q48 -113 169 -177q37 -19 68 -23l12 1h8q106 83 106 322q0 202 -82 319q-76 109 -222 131q-98 -95 -98 -329z" />
<glyph unicode="&#xf6;" horiz-adv-x="852" d="M26 467q0 163 76 298q83 144 230 209l113 50q187 -18 290 -176q89 -136 89 -328q0 -186 -85 -325q-62 -101 -154 -150q-48 -26 -202 -74h-22q-97 0 -222 145q-113 131 -113 351zM222 546q0 -314 208 -420q38 -19 68 -23l12 2h8q106 83 106 321q0 201 -82 317 q-76 109 -222 131q-98 -95 -98 -328zM340 1040v232h175v-232h-175zM571 1040v232h177v-232h-177z" />
<glyph unicode="&#xf7;" horiz-adv-x="1241" d="M159 511v176h923v-176h-923zM505 256q0 51 30 93q34 47 86 47q54 0 88 -46q29 -41 29 -94q0 -59 -34 -100t-83 -41q-52 0 -86 48q-30 42 -30 93zM505 941q0 52 30 95q33 48 86 48q55 0 88 -47q29 -42 29 -96q0 -56 -34 -97t-83 -41q-51 0 -85 46q-31 42 -31 92z" />
<glyph unicode="&#xf8;" horiz-adv-x="852" d="M26 462q0 163 76 297q83 145 230 209l112 50q18 0 65 -10q19 -4 38 -9l3 -2l46 117h113l-65 -178q180 -145 180 -421q0 -186 -85 -325q-62 -101 -154 -150q-48 -26 -202 -74h-21l-36 9l-24 11l-48 -136h-114l69 194q-183 141 -183 418zM222 527q0 -184 62 -275l195 546 q-95 72 -157 72q-100 -98 -100 -343zM366 165l80 -51q35 -16 52 -16h12l7 1q107 83 107 320q0 81 -4 113q-13 108 -57 179z" />
<glyph unicode="&#xf9;" d="M44 965l254 53l-32 -678q-4 -63 62.5 -134.5t130.5 -75.5q47 38 81 134q30 86 31 155l7 565l197 32l-8 -680q0 -88 17 -146q4 -20 17 -41h4l46 21l10 -82l-173 -103q-66 65 -97 150q-112 -117 -242 -165q-126 14 -207 127q-76 105 -73 231q3 36 8 109q2 37 2 92 q0 45 6 134.5t6 133.5q0 67 -4 88v-1l-2 4l-34 -7zM291 1323h214l170 -305h-136z" />
<glyph unicode="&#xfa;" d="M44 965l254 53l-32 -678q-4 -63 62.5 -134.5t130.5 -75.5q47 38 81 134q30 86 31 155l7 565l197 32l-8 -680q0 -88 17 -146q4 -20 17 -41h4l46 21l10 -82l-173 -103q-66 65 -97 150q-112 -117 -242 -165q-126 14 -207 127q-76 105 -73 231q3 36 8 109q2 37 2 92 q0 45 6 134.5t6 133.5q0 67 -4 88v-1l-2 4l-34 -7zM390 1018l171 305h215l-250 -305h-136z" />
<glyph unicode="&#xfb;" d="M44 965l254 53l-32 -678q-4 -63 62.5 -134.5t130.5 -75.5q47 38 81 134q30 86 31 155l7 565l197 32l-8 -680q0 -88 17 -146q4 -20 17 -41h4l46 21l10 -82l-173 -103q-66 65 -97 150q-112 -117 -242 -165q-126 14 -207 127q-76 105 -73 231q3 36 8 109q2 37 2 92 q0 45 6 134.5t6 133.5q0 67 -4 88v-1l-2 4l-34 -7zM276 1018l172 305h169l173 -305h-138l-119 144l-119 -144h-138z" />
<glyph unicode="&#xfc;" d="M46 964l251 52l-30 -677q-4 -62 62 -133.5t130 -75.5q47 38 81 134q30 86 31 154l6 564l198 33l-8 -680q0 -87 17 -146q4 -19 17 -41l4 1l46 21l10 -82l-173 -103q-66 65 -97 150q-112 -117 -242 -165q-127 14 -207 127q-73 103 -73 231q11 112 11 201q0 44 6 133.5 t6 133.5q0 67 -5 86q0 2 -2 5l-34 -7zM329 1040v232h175v-232h-175zM561 1040v232h175v-232h-175z" />
<glyph unicode="&#xfd;" horiz-adv-x="756" d="M-19 860v57l198 118l89 -233l76 -215l110 -322q33 118 94 356q2 10 13 82q22 134 15 204l-8 88h156v-66q0 -71 -44 -216l-29 -95q-65 -252 -202 -748q-59 -198 -197 -198q-92 0 -125 89q-12 24 -12 70l186 85l-10 -62v-10q0 -25 9 -38q4 -6 6 -8q15 5 43 80l31 115 l-74 -11l7 46l2 14q-27 140 -104 341q-63 161 -126 321q-29 79 -34 90q-31 61 -70 66zM243 1016l170 307h214l-248 -307h-136z" />
<glyph unicode="&#xfe;" horiz-adv-x="852" d="M4 1148v74l226 78q55 -199 55 -394v-36q106 119 215 153q140 -23 234 -166q92 -139 92 -315q0 -230 -94 -367q-97 -141 -317 -216q-63 9 -127 56l-3 -383l-198 -66l-9 1388q0 18 -2 48q-4 21 -9 39l-10 75q-5 40 -15 38h3zM292 244q8 -22 19 -37q31 -60 160 -132 q70 4 115 106q50 114 50 307q0 148 -75 268q-71 113 -155 118q-112 -89 -112 -191z" />
<glyph unicode="&#xff;" horiz-adv-x="756" d="M-19 859v57l198 118l89 -233l76 -215l110 -322q74 274 78 292q50 207 45 306l-2 43l-8 89h157v-66q0 -71 -44 -216l-29 -95q-65 -251 -202 -747q-59 -198 -197 -198q-92 0 -125 89q-12 24 -12 70l186 85l-10 -63v-9q0 -25 9 -38q4 -6 6 -8q15 5 43 80l31 114l-74 -11 l7 46l2 14q-27 140 -104 341q-63 161 -126 321q-29 79 -34 90q-31 61 -70 66zM182 1038v234h175v-234h-175zM413 1038v234h175v-234h-175z" />
<glyph unicode="&#x152;" horiz-adv-x="1305" d="M26 462q0 160 74 293q81 145 223 210l107 49q161 0 287 -179q63 73 289 179q145 0 278 -174l-133 -144q-72 95 -134 141q-59 43 -90 47q-76 -2 -120 -197q-12 -54 -14 -110l272 -9q61 0 133 56l34 -77q-81 -66 -139 -92q-65 -20 -295 -22q6 -119 95 -232 q82 -104 160 -104q71 0 111 250l138 -63q-29 -138 -75 -195q-42 -51 -133 -80q-2 -1 -154 -38q-151 15 -258 172q-61 -75 -138 -112q-34 -17 -169 -60h-25q-61 0 -161 90q-163 148 -163 401zM218 541q0 -303 191 -410q44 -25 77 -29h10h6q104 85 104 319q0 70 -6 119 q-25 210 -202 302q-48 25 -76 25h-9q-95 -93 -95 -326z" />
<glyph unicode="&#x153;" horiz-adv-x="1305" d="M26 462q0 160 74 293q81 145 223 210l107 49q161 0 287 -179q63 73 289 179q145 0 278 -174l-133 -144q-72 95 -134 141q-59 43 -90 47q-76 -2 -120 -197q-12 -54 -14 -110l272 -9q61 0 133 56l34 -77q-81 -66 -139 -92q-65 -20 -295 -22q6 -119 95 -232 q82 -104 160 -104q71 0 111 250l138 -63q-29 -138 -75 -195q-42 -51 -133 -80q-2 -1 -154 -38q-151 15 -258 172q-61 -75 -138 -112q-34 -17 -169 -60h-25q-61 0 -161 90q-163 148 -163 401zM218 541q0 -303 191 -410q44 -25 77 -29h10h6q104 85 104 319q0 70 -6 119 q-25 210 -202 302q-48 25 -76 25h-9q-95 -93 -95 -326z" />
<glyph unicode="&#x178;" horiz-adv-x="756" d="M-19 858v58l198 117l89 -232l76 -215l110 -322q74 274 78 292q50 207 45 305l-2 44l-8 88h157v-66q0 -71 -44 -215l-29 -95q-65 -252 -202 -747q-59 -198 -197 -198q-92 0 -125 88q-12 24 -12 71l183 84l-6 -61v-10q0 -37 14 -46q15 5 43 80l31 114l-74 -11l7 46l2 14 q-27 140 -104 341q-63 160 -126 321q-29 79 -34 90q-31 60 -70 65zM176 1016v231h173v-231h-173zM399 1016v231h173v-231h-173z" />
<glyph unicode="&#x2c6;" horiz-adv-x="746" d="M115 1057l173 266h170l172 -266h-138l-119 125l-119 -125h-139z" />
<glyph unicode="&#x2dc;" horiz-adv-x="746" d="M134 1077q21 88 48 128q46 68 131 68q16 -1 44 -6l85 -25l21 -2q8 0 15 5q9 12 17 50h111q-16 -107 -55 -151q-46 -53 -140 -46l-28 7l-72 23l-8 1l-15 2q-23 -2 -41 -54h-113z" />
<glyph unicode="&#x2000;" horiz-adv-x="767" />
<glyph unicode="&#x2001;" horiz-adv-x="1534" />
<glyph unicode="&#x2002;" horiz-adv-x="767" />
<glyph unicode="&#x2003;" horiz-adv-x="1534" />
<glyph unicode="&#x2004;" horiz-adv-x="511" />
<glyph unicode="&#x2005;" horiz-adv-x="383" />
<glyph unicode="&#x2006;" horiz-adv-x="255" />
<glyph unicode="&#x2007;" horiz-adv-x="255" />
<glyph unicode="&#x2008;" horiz-adv-x="191" />
<glyph unicode="&#x2009;" horiz-adv-x="306" />
<glyph unicode="&#x200a;" horiz-adv-x="85" />
<glyph unicode="&#x2010;" horiz-adv-x="416" d="M-1 412q125 172 194 171h15l62 -3h13l10 -1q25 0 35 11q2 3 17 33l66 -22q-23 -49 -39 -77q-28 -50 -50 -70q-31 -34 -101 -34h-118l-9 -4l-32 -30z" />
<glyph unicode="&#x2011;" horiz-adv-x="416" d="M-1 412q125 172 194 171h15l62 -3h13l10 -1q25 0 35 11q2 3 17 33l66 -22q-23 -49 -39 -77q-28 -50 -50 -70q-31 -34 -101 -34h-118l-9 -4l-32 -30z" />
<glyph unicode="&#x2012;" horiz-adv-x="416" d="M-1 412q125 172 194 171h15l62 -3h13l10 -1q25 0 35 11q2 3 17 33l66 -22q-23 -49 -39 -77q-28 -50 -50 -70q-31 -34 -101 -34h-118l-9 -4l-32 -30z" />
<glyph unicode="&#x2013;" horiz-adv-x="746" d="M-25 459v92h796v-92h-796z" />
<glyph unicode="&#x2014;" horiz-adv-x="1491" d="M-26 459v92h1542v-92h-1542z" />
<glyph unicode="&#x2018;" horiz-adv-x="330" d="M43 1006l127 287h86l-39 -91l-7 -42q1 -19 50 -53l-82 -185z" />
<glyph unicode="&#x2019;" horiz-adv-x="330" d="M90 1122l82 184l133 -87l-128 -285h-84l39 90l5 39q0 20 -15.5 33t-31.5 26z" />
<glyph unicode="&#x201a;" horiz-adv-x="330" d="M43 52l82 186l135 -82l-126 -287h-83q10 26 26 64q8 18 19 68q-1 19 -53 51z" />
<glyph unicode="&#x201c;" horiz-adv-x="496" d="M43 1006l127 287h85l-38 -91l-7 -42q0 -10 6 -19t44 -33l-82 -186zM210 1006l126 287h83q-16 -31 -37 -96l-2 -14l-3 -15q-1 -5 -1 -7q0 -14 5 -19q7 -9 45 -34l-82 -186z" />
<glyph unicode="&#x201d;" horiz-adv-x="496" d="M90 1122l82 184l133 -87l-128 -285h-84l39 90l5 39q0 20 -15.5 33t-31.5 26zM253 1120l81 186l135 -87l-124 -285h-84q42 110 42 128q0 12 -5 22q-8 11 -45 36z" />
<glyph unicode="&#x201e;" horiz-adv-x="496" d="M43 52l82 186l135 -82l-126 -287h-83q15 33 35 89l10 43q-1 19 -53 51zM210 53l81 185l135 -82l-126 -287h-83l36 90q7 29 7 40q0 13 -4 19.5t-11 10.5z" />
<glyph unicode="&#x2022;" horiz-adv-x="879" d="M200 748q0 122 70 205.5t171 83.5q99 0 171 -88q69 -86 69 -201q0 -117 -69 -203q-72 -88 -173 -88q-113 0 -181 98q-58 84 -58 193z" />
<glyph unicode="&#x2026;" horiz-adv-x="1491" d="M208 72l107 167l121 -94l-103 -174zM1257 72l104 167l124 -93l-104 -175zM2310 72l102 167l124 -93l-104 -175z" />
<glyph unicode="&#x202f;" horiz-adv-x="306" />
<glyph unicode="&#x2039;" horiz-adv-x="377" d="M28 492l182 417l132 -97l-139 -320l139 -316l-131 -101z" />
<glyph unicode="&#x203a;" horiz-adv-x="377" d="M33 176l141 316l-141 320l134 97l180 -417l-180 -416z" />
<glyph unicode="&#x205f;" horiz-adv-x="383" />
<glyph unicode="&#x2122;" horiz-adv-x="1225" d="M150 1205l9 208h371l10 -208h-71q0 124 -61 134v-356q0 -21 10 -24l43 -4v-70h-234v70l42 2q11 3 11 26v356q-60 -9 -60 -134h-70zM545 885v70l42 2q11 3 11 26v332q0 15 -5 21q-4 10 -23 11h-25v66h181l81 -284l84 284h177v-66l-46 -3l-8 -27v-334q0 -6 2 -11 q0 -11 8 -13l44 -4v-70h-226v70l46 4q7 0 8 25v172l-80 -273h-54l-81 275v-175q0 -14 5 -21q1 -2 4 -3l46 -4v-70h-191z" />
<glyph unicode="&#x25fc;" horiz-adv-x="1000" d="M0 0v1000h1000v-1000h-1000z" />
</font>
</defs>
</svg>
