<?xml version="1.0" standalone="no"?>
<!DOCTYPE svg PUBLIC "-//W3C//DTD SVG 1.1//EN" "http://www.w3.org/Graphics/SVG/1.1/DTD/svg11.dtd" >
<svg xmlns="http://www.w3.org/2000/svg" xmlns:xlink="http://www.w3.org/1999/xlink" version="1.1">
<metadata></metadata>
<defs>
<font id="arsenalregular" horiz-adv-x="1392" >
<font-face units-per-em="2048" ascent="1638" descent="-410" />
<missing-glyph horiz-adv-x="496" />
<glyph unicode="&#xfb01;" horiz-adv-x="1118" d="M203 961h-111v89l111 13v153q0 207 78.5 303.5t265.5 96.5q100 0 175 -48t124 -111q14 6 36 6q40 0 63 -22q26 -28 26 -69q0 -39 -26 -69q-30 -24 -63 -23q-39 0 -62 23q-29 28 -28 69q0 21 7 36q-94 110 -222 110q-83 0 -131 -28.5t-69 -97.5t-21 -193v-134h309v-104 h-309v-961h-153v961zM803 0v1065h156v-1065h-156z" />
<glyph unicode="&#xfb02;" horiz-adv-x="1113" d="M203 961h-111v89l111 13v153q0 400 276 400q139 0 320 -84v61l153 9v-1602h-153v1437q-167 83 -279 83q-89 0 -126.5 -70t-37.5 -251v-134h309v-104h-309v-961h-153v961z" />
<glyph horiz-adv-x="0" />
<glyph unicode="&#xd;" horiz-adv-x="496" />
<glyph horiz-adv-x="0" />
<glyph horiz-adv-x="0" />
<glyph unicode=" "  horiz-adv-x="496" />
<glyph unicode="&#x09;" horiz-adv-x="496" />
<glyph unicode="&#xa0;" horiz-adv-x="496" />
<glyph unicode="!" horiz-adv-x="587" d="M250 451l-39 970v176h173v-176l-41 -970h-93zM230 6q-30 28 -29 73q0 45 29 72q30 26 66 26q41 0 68 -26q28 -28 28 -72q0 -45 -28 -73q-28 -26 -68 -25q-36 -1 -66 25z" />
<glyph unicode="&#x22;" horiz-adv-x="636" d="M81 1103l-8 494l142 -4l-47 -490h-87zM382 1103l-10 494l144 -4l-47 -490h-87z" />
<glyph unicode="#" horiz-adv-x="1022" d="M590 171l-72 20l55 273h-224l-55 -271l-72 22l50 249h-168v87h188l57 278h-245v89h264l63 292l71 -21l-57 -271h222l57 269l73 -22l-51 -247h170v-89h-190l-57 -278h247v-87h-266zM368 551h224l58 278h-224z" />
<glyph unicode="$" horiz-adv-x="868" d="M388 120q-102 6 -170.5 41t-104.5 72t-36 44l53 75q0 -5 34 -41t93.5 -67t140.5 -31q120 0 180.5 59.5t60.5 144.5q0 61 -31 102.5t-76.5 63.5t-126.5 49q-94 35 -149 63.5t-94.5 86t-39.5 149.5q0 115 71 190.5t193 96.5l10 273h90l12 -266q64 -2 121.5 -20t93 -36.5 t43.5 -24.5l-26 -92q-8 7 -42 27t-88.5 39.5t-111.5 19.5q-98 0 -159 -49.5t-61 -123.5q0 -61 32 -103t80 -65.5t129 -52.5q93 -33 152 -63.5t99.5 -88t40.5 -149.5q0 -124 -76.5 -212.5t-226.5 -106.5l-8 -230h-90z" />
<glyph unicode="%" horiz-adv-x="1707" d="M189.5 718q-87.5 109 -87.5 292t89.5 292.5t245.5 109.5q153 0 243.5 -110.5t90.5 -291.5q0 -183 -89.5 -292t-244.5 -109q-160 0 -247.5 109zM594 4l-92 22l599 1340l92 -22zM589 780.5q54 81.5 54 231.5q0 151 -54 231t-152 80q-100 0 -153.5 -80t-53.5 -231t53.5 -232 t151.5 -81q100 0 154 81.5zM1026.5 78.5q-87.5 108.5 -87.5 291.5t89.5 293t245.5 110q153 0 243.5 -111t90.5 -292q0 -183 -89.5 -291.5t-244.5 -108.5q-160 0 -247.5 108.5zM1426 141.5q54 82.5 54 230.5q0 151 -54 231t-152 80q-100 0 -153.5 -79.5t-53.5 -231.5 q0 -150 53 -231.5t152 -81.5q100 0 154 82.5z" />
<glyph unicode="&#x26;" horiz-adv-x="1283" d="M206.5 87.5q-104.5 108.5 -104.5 284.5q0 134 79 220.5t193 123.5q-87 42 -144 123t-57 202q0 164 100.5 263.5t275.5 99.5q66 0 126 -15t97 -31t45 -21l-16 -91q-9 4 -37.5 19t-78 28.5t-104.5 13.5q-121 0 -186 -73t-65 -203q0 -135 63 -204t144 -69h262l70 307h70 v-307h275v-91h-275v-373q0 -128 32.5 -172.5t105.5 -44.5q39 0 71 6t51 12.5t24 8.5l4 -85q-4 -4 -25.5 -13.5t-65 -18t-105.5 -8.5q-84 0 -134.5 28.5t-76.5 96.5q-100 -126 -292 -125q-217 0 -321.5 108.5zM711.5 120.5q57.5 43.5 85.5 98.5q-2 19 -2 66v382h-286 q-98 -5 -171.5 -81.5t-73.5 -211.5q0 -298 287 -297q103 0 160.5 43.5z" />
<glyph unicode="'" horiz-adv-x="335" d="M81 1103l-8 494l142 -4l-47 -490h-87z" />
<glyph unicode="(" horiz-adv-x="653" d="M403.5 -270q-86.5 130 -154.5 343.5t-68 505.5q0 293 68 508.5t152.5 348.5t84.5 115l81 -45q0 17 -66 -110.5t-118.5 -334.5t-52.5 -482q0 -276 52.5 -479.5t118.5 -328.5t66 -108l-77 -45q0 -18 -86.5 112z" />
<glyph unicode=")" horiz-adv-x="653" d="M85 -337q0 -17 66 112t118 335.5t52 479.5q0 272 -52 477t-118 330.5t-66 108.5l79 45q0 18 85.5 -111.5t153.5 -343.5t68 -506q0 -293 -68 -508.5t-153.5 -348.5t-85.5 -115z" />
<glyph unicode="*" horiz-adv-x="836" d="M256 660l-116 94l234 290l-333 78l44 150l305 -169l-43 397h143l-47 -397l309 169l43 -150l-335 -76l237 -292l-118 -94l-162 346z" />
<glyph unicode="+" horiz-adv-x="868" d="M390 171v370h-317v100h317v371h94v-371h311v-100h-311v-370h-94z" />
<glyph unicode="," horiz-adv-x="480" d="M96 -296q65 61 105.5 156t38.5 174h-6q-34 0 -61 23q-26 26 -26 67q0 38 26 65q24 21 59 22q38 0 62 -22l11 -14q24 -35 23 -102q0 -102 -53 -226t-135 -190z" />
<glyph unicode="-" horiz-adv-x="632" d="M73 541v100h488v-100h-488z" />
<glyph unicode="." horiz-adv-x="516" d="M189 6q-30 28 -29 73q0 45 29 72q30 26 67 26q40 0 67 -26q29 -28 29 -72q0 -45 -29 -73q-30 -26 -67 -25q-37 -1 -67 25z" />
<glyph unicode="/" horiz-adv-x="888" d="M2 -532l799 2129h117l-796 -2129h-120z" />
<glyph unicode="0" horiz-adv-x="1196" d="M240 165.5q-120 186.5 -120 525.5t120 526t358 187t358.5 -187.5t120.5 -525.5q0 -339 -120 -525.5t-359 -186.5q-238 0 -358 186.5zM831.5 224.5q75.5 147.5 75.5 466.5q0 317 -76.5 465.5t-232.5 148.5q-158 0 -233 -148.5t-75 -465.5q0 -320 75.5 -467t232.5 -147 q158 0 233.5 147.5z" />
<glyph unicode="1" horiz-adv-x="785" d="M398 0v1260l-256 -142l-36 83l318 183h127v-1384h-153z" />
<glyph unicode="2" horiz-adv-x="1010" d="M92 128q48 19 202.5 166t282.5 340t128 372q0 150 -61 221.5t-207 71.5q-71 0 -138 -25.5t-116 -57t-49 -34.5l-16 96q0 4 52 37t128 61t162 28q213 0 314.5 -103.5t101.5 -282.5q0 -230 -192 -461t-424 -412h654v-145h-822v128z" />
<glyph unicode="3" horiz-adv-x="1010" d="M258 13q-83 34 -129 72.5t-46 44.5l51 83q0 -4 41.5 -38.5t110 -64t153.5 -29.5q151 0 229 83.5t78 240.5q0 140 -65 217t-191 77q-32 0 -60 -11t-44 -21.5t-20 -14.5l-55 64l392 522h-556l9 146h696v-100l-383 -500q26 6 57 6q171 0 276 -105.5t105 -279.5 q0 -133 -58.5 -228.5t-160.5 -146.5t-232 -51q-115 0 -198 34z" />
<glyph unicode="4" horiz-adv-x="1047" d="M671 349h-596l-12 82q88 172 185 441.5t163 531.5l147 -20q-63 -245 -164.5 -489.5t-210.5 -449.5h488l36 737h122v-737h151v-85l-151 -11v-349h-158v349z" />
<glyph unicode="5" horiz-adv-x="990" d="M220 12q-78 33 -121.5 71.5t-43.5 44.5l55 79q0 -4 37.5 -37.5t101.5 -61t149 -27.5q156 0 245.5 92.5t89.5 261.5q0 148 -81 235.5t-215 87.5q-66 0 -116.5 -20t-66.5 -39l-2 -6l-65 8l65 683h579l-6 -148h-493l-36 -416q75 28 153 28q201 0 323 -111t122 -300 q0 -141 -66 -245.5t-176.5 -158.5t-244.5 -54q-109 0 -187 33z" />
<glyph unicode="6" horiz-adv-x="1100" d="M237 121.5q-117 142.5 -117 410.5q0 86 6 156q21 360 142.5 538t321.5 178q65 0 126.5 -16t98.5 -33.5t47 -23.5l-21 -93q-8 6 -42.5 22t-87.5 30.5t-108 14.5q-311 0 -331 -563q128 132 309 132q194 0 306 -117.5t112 -313.5q0 -130 -48 -235.5t-145 -167t-235 -61.5 q-217 0 -334 142.5zM773 176q64 103 64 269q0 153 -68 247t-206 94q-100 0 -166.5 -47.5t-106.5 -108.5l2 -2q-4 -24 -7.5 -64t-3.5 -80q0 -411 290 -411q138 0 202 103z" />
<glyph unicode="7" horiz-adv-x="896" d="M724 1231h-637v153h769v-128q-140 -262 -269 -613t-187 -643h-168q104 482 492 1231z" />
<glyph unicode="8" horiz-adv-x="1069" d="M216 72.5q-114 93.5 -114 289.5q0 140 82 223.5t200 121.5q-104 32 -179 113t-75 230q0 167 108.5 260.5t296.5 93.5q187 0 296.5 -95t109.5 -265q0 -140 -75.5 -219t-184.5 -116q118 -32 203 -112.5t85 -238.5q0 -194 -115 -286.5t-319 -92.5q-205 0 -319 93.5z M698.5 817q76.5 63 76.5 222q0 277 -240 278q-241 0 -241 -273q0 -160 76.5 -224t166.5 -74q85 8 161.5 71zM728.5 139.5q68.5 73.5 68.5 224.5q0 162 -86.5 227t-182.5 76q-91 -11 -173.5 -76t-82.5 -225q0 -153 68.5 -226.5t194.5 -73.5q125 0 193.5 73.5z" />
<glyph unicode="9" horiz-adv-x="1100" d="M335 1.5q-65 22.5 -98.5 49t-33.5 30.5l39 92q0 -5 32.5 -29t86.5 -45.5t125 -21.5q148 0 239.5 137.5t101.5 413.5q-110 -144 -307 -144q-191 0 -304.5 119t-113.5 315q0 130 51.5 241t151.5 178t238 67q215 0 327 -143t112 -411q0 -102 -4 -149q-9 -236 -74 -398.5 t-171.5 -243t-240.5 -80.5q-92 0 -157 22.5zM723 629.5q69 58.5 88 122.5q6 57 6 147q0 207 -64.5 309t-209.5 102q-138 0 -208.5 -110.5t-70.5 -274.5q0 -156 69 -255t206 -99q115 0 184 58.5z" />
<glyph unicode=":" horiz-adv-x="521" d="M189 813q-30 28 -29 73q0 45 29 73q28 26 67 25q38 0 67 -25q29 -28 29 -73t-29 -73q-30 -26 -67 -25q-39 -1 -67 25zM189 6q-30 28 -29 73q0 45 29 72q30 26 67 26q40 0 67 -26q29 -28 29 -72q0 -45 -29 -73q-30 -26 -67 -25q-37 -1 -67 25z" />
<glyph unicode=";" horiz-adv-x="516" d="M189 813q-30 28 -29 73q0 45 29 73q28 26 67 25q38 0 67 -25q29 -28 29 -73t-29 -73q-30 -26 -67 -25q-39 -1 -67 25zM118 -296q65 61 105.5 156t38.5 174h-6q-34 0 -63 23q-26 26 -25 67q0 38 25 65q24 21 61 22q38 0 61 -22l11 -14q23 -35 23 -102q0 -102 -53.5 -226 t-133.5 -190z" />
<glyph unicode="&#x3c;" horiz-adv-x="783" d="M641 252l-511 425l511 424l54 -62l-418 -362l420 -364z" />
<glyph unicode="=" horiz-adv-x="1000" d="M73 744v99h856v-99h-856zM73 339v100h856v-100h-856z" />
<glyph unicode="&#x3e;" horiz-adv-x="783" d="M142 252l-53 61l413 364l-413 362l53 62l514 -424z" />
<glyph unicode="?" horiz-adv-x="874" d="M260 569q0 89 23.5 150t58 100t95.5 90q59 51 92.5 88.5t56.5 97t23 145.5q0 126 -57.5 202t-179.5 76q-77 0 -136 -24t-96.5 -52t-37.5 -32l-17 92q0 4 44 33.5t116 55t166 25.5q126 0 210 -50t123.5 -130.5t39.5 -175.5q0 -99 -31 -169.5t-76 -114t-119 -100.5 q-74 -55 -118 -99t-74.5 -113.5t-30.5 -169.5q0 -30 2 -47l-67 -6q-10 59 -10 128zM245 6q-30 28 -30 73t30 72q31 26 66 26q38 0 69 -26q28 -28 27 -72q0 -45 -27 -73q-31 -26 -69 -25q-35 -1 -66 25z" />
<glyph unicode="@" horiz-adv-x="1769" d="M326 -259q-206 231 -206 659q0 448 213.5 699t616.5 251q345 0 529 -195.5t184 -549.5q0 -323 -104 -478t-264 -155q-79 0 -126 26t-61 89q-75 -117 -234 -117q-161 0 -256.5 108.5t-95.5 323.5q0 137 47 243.5t132 165t195 58.5q128 0 214 -85l30 55h67v-648 q0 -81 25.5 -111.5t74.5 -30.5q98 0 165.5 126t67.5 426q0 328 -149 495t-441 167q-330 0 -511 -215t-181 -648q0 -392 177 -593t490 -201q150 0 258 45.5t166.5 98t58.5 61.5l41 -77q0 -11 -61 -67.5t-177 -106.5t-286 -50q-393 0 -599 231zM1029.5 93.5 q47.5 44.5 69.5 97.5v490q-16 41 -60.5 76t-126.5 35q-128 0 -193 -102t-65 -288q0 -353 249 -353q79 0 126.5 44.5z" />
<glyph unicode="A" horiz-adv-x="1209" d="M49 0l467 1384h189l458 -1384h-169l-144 426h-543l-145 -426h-113zM337 514h486l-242 746z" />
<glyph unicode="B" horiz-adv-x="1154" d="M201 1384h348q209 0 323 -94.5t114 -250.5q0 -115 -57 -191.5t-143 -121.5q124 -34 195 -119t71 -215q0 -187 -124.5 -289.5t-376.5 -102.5h-350v1384zM614 758q44 0 94 25.5t86.5 86.5t36.5 159q0 130 -79 196t-209 66h-181v-533h252zM545 94q347 0 347 304 q0 137 -74 205t-196 68h-260v-577h183z" />
<glyph unicode="C" horiz-adv-x="1213" d="M262 165.5q-160 186.5 -160 513.5q0 220 74 384t209 252.5t314 88.5q98 0 188.5 -26t154.5 -57.5t64 -34.5l-20 -101q0 2 -61.5 31.5t-143.5 55t-165 25.5q-207 0 -324 -156.5t-117 -457.5q0 -296 119.5 -447t333.5 -151q113 0 198.5 47t135.5 100t50 62l59 -68 q0 -11 -55 -74t-158.5 -118t-248.5 -55q-287 0 -447 186.5z" />
<glyph unicode="D" horiz-adv-x="1349" d="M201 1384h421q298 0 463 -180t165 -516q0 -334 -162.5 -511t-465.5 -177h-421v1384zM624 102q451 0 451 586q0 594 -453 594h-260v-1180h262z" />
<glyph unicode="E" horiz-adv-x="1079" d="M201 0v1384h744v-102h-583v-532h534v-98h-534v-550h630v-102h-791z" />
<glyph unicode="F" horiz-adv-x="988" d="M201 0v1384h760v-102h-599v-552h516v-98h-516v-632h-161z" />
<glyph unicode="G" horiz-adv-x="1319" d="M251 166.5q-149 187.5 -149 521.5q0 340 162 528t458 188q98 0 189 -26t154 -57.5t63 -34.5l-18 -101q0 2 -62 31.5t-143.5 55t-165.5 25.5q-236 0 -350 -152.5t-114 -456.5q0 -298 110.5 -450.5t309.5 -152.5q160 0 232 76.5t93 153.5v313h-283v92h419v-720h-79l-40 151 q-51 -75 -140.5 -123.5t-225.5 -48.5q-271 0 -420 187.5z" />
<glyph unicode="H" horiz-adv-x="1358" d="M201 0v1384h161v-622h632v622h162v-1384h-162v665h-632v-665h-161z" />
<glyph unicode="I" horiz-adv-x="563" d="M201 0v1384h161v-1384h-161z" />
<glyph unicode="J" horiz-adv-x="770" d="M121.5 -1q-55.5 20 -82.5 42t-27 28l43 82q0 -2 20.5 -20t59 -34t93.5 -16q89 0 143.5 69t54.5 257v977h160v-977q0 -239 -85.5 -333.5t-236.5 -94.5q-87 0 -142.5 20z" />
<glyph unicode="K" horiz-adv-x="1234" d="M201 0v1384h161v-754l168 150l466 604h130l-485 -618l552 -766h-203l-468 643l-160 -134v-509h-161z" />
<glyph unicode="L" horiz-adv-x="1002" d="M201 0v1384h161v-1282h616v-102h-777z" />
<glyph unicode="M" horiz-adv-x="1778" d="M201 0l6 1384l4 -6l-2 6h198l487 -1186h2l488 1186h187l8 -1384h-158l-7 1187h-2l-479 -1187h-130l-482 1187l-4 -1187h-116z" />
<glyph unicode="N" horiz-adv-x="1386" d="M201 0v1384h167l707 -1142l-6 52v1090h118v-1384h-141l-737 1180h-2l10 -66v-1114h-116z" />
<glyph unicode="O" d="M375.5 64q-133.5 85 -203.5 246t-70 381q0 219 70 379.5t203.5 247t319.5 86.5q185 0 319 -86.5t205.5 -247.5t71.5 -379q0 -220 -71.5 -381t-205.5 -246t-319 -85q-186 0 -319.5 85zM1008.5 236.5q109.5 155.5 109.5 454.5q0 296 -109.5 453t-313.5 157 q-203 0 -311.5 -157.5t-108.5 -452.5q0 -299 107.5 -454.5t312.5 -155.5q204 0 313.5 155.5z" />
<glyph unicode="P" horiz-adv-x="1055" d="M201 1384h331q214 0 332 -110.5t118 -328.5q0 -162 -64 -265t-165 -148.5t-216 -45.5h-175v-486h-161v1384zM514 575q298 0 297 364q0 179 -76.5 265.5t-218.5 86.5h-154v-716h152z" />
<glyph unicode="Q" d="M838.5 -249.5q-122.5 89.5 -197.5 230.5q-256 17 -397.5 205t-141.5 505q0 219 70 379.5t203.5 247t319.5 86.5q185 0 319 -85.5t205.5 -244t71.5 -377.5q0 -297 -128 -485t-358 -224q71 -104 150.5 -171t162.5 -67q34 0 71 14l10 -81q-51 -21 -113 -22 q-125 0 -247.5 89.5zM1008.5 237.5q109.5 156.5 109.5 453.5q0 294 -111 452t-312 158q-203 0 -311.5 -158.5t-108.5 -451.5q0 -297 108.5 -453.5t311.5 -156.5q204 0 313.5 156.5z" />
<glyph unicode="R" horiz-adv-x="1147" d="M201 1384h334q211 0 330 -109.5t119 -313.5q0 -164 -70.5 -268.5t-185.5 -149.5l347 -543h-185l-317 514h-211v-514h-161v1384zM535 609q138 0 208 78.5t70 267.5q0 337 -297 336h-154v-682h173z" />
<glyph unicode="S" horiz-adv-x="1043" d="M272.5 19q-91.5 40 -135 86t-43.5 55l53 82q0 -6 40.5 -47.5t118.5 -76.5t190 -35q134 0 211 77.5t77 193.5q0 79 -38.5 132t-95 85t-152.5 72q-110 44 -178 85t-115 112.5t-47 181.5q0 175 111 278.5t296 103.5q91 0 164.5 -27t118 -57.5t44.5 -35.5l-20 -93 q0 4 -43 33.5t-109 55t-147 25.5q-120 0 -188 -66t-68 -178q0 -79 37.5 -131t93.5 -84.5t150 -70.5q113 -47 181.5 -88t116 -116t47.5 -191q0 -118 -54 -208.5t-154.5 -141.5t-232.5 -51q-138 0 -229.5 40z" />
<glyph unicode="T" horiz-adv-x="981" d="M409 0v1282h-394v102h952v-102h-396v-1282h-162z" />
<glyph unicode="U" horiz-adv-x="1319" d="M305.5 106.5q-122.5 127.5 -122.5 344.5v933h160v-896q0 -194 85.5 -297.5t248.5 -103.5q171 0 257 105.5t86 295.5v896h118v-933q0 -217 -119.5 -344.5t-358.5 -127.5q-232 0 -354.5 127.5z" />
<glyph unicode="V" horiz-adv-x="1166" d="M484 0l-452 1384h169l402 -1264l409 1264h118l-459 -1384h-187z" />
<glyph unicode="W" horiz-adv-x="1805" d="M413 0l-381 1384h171l315 -1199l338 1199h143l345 -1197l306 1197h120l-373 -1384h-149l-345 1180l-340 -1180h-150z" />
<glyph unicode="X" horiz-adv-x="1151" d="M38 0l444 688l-427 696h197l342 -579l358 579h134l-424 -671l452 -713h-198l-365 594h-2l-368 -594h-143z" />
<glyph unicode="Y" horiz-adv-x="1079" d="M462 0v573l-458 811h181l382 -681l378 681h130l-451 -801v-583h-162z" />
<glyph unicode="Z" horiz-adv-x="1122" d="M85 0v85l750 1197h-731v102h929v-87l-752 -1195h752v-102h-948z" />
<glyph unicode="[" horiz-adv-x="711" d="M187 -162v1655h501v-93h-365v-1466h365v-96h-501z" />
<glyph unicode="\" horiz-adv-x="888" d="M769 -532l-799 2129h117l799 -2129h-117z" />
<glyph unicode="]" horiz-adv-x="711" d="M24 -162v96h364v1466h-364v93h502v-1655h-502z" />
<glyph unicode="^" horiz-adv-x="715" d="M122 1052l-49 56l283 355l287 -355l-53 -56l-232 275z" />
<glyph unicode="_" horiz-adv-x="1328" d="M73 -311v100h1183v-100h-1183z" />
<glyph unicode="`" horiz-adv-x="439" d="M203 1221l-224 287l131 34l177 -304z" />
<glyph unicode="a" horiz-adv-x="1015" d="M153.5 48.5q-84.5 69.5 -84.5 191.5q0 313 602 378v112q0 151 -49 206.5t-173 55.5q-55 0 -112.5 -20t-96.5 -42.5t-51 -28.5l-16 87q10 8 53.5 32t111 45t135.5 21q183 0 268.5 -76.5t85.5 -270.5v-522q0 -85 15.5 -114.5t39.5 -29.5q19 0 47 7t36 12l6 -73 q-16 -7 -72 -23.5t-94 -16.5q-55 0 -84.5 35t-37.5 124h-2q0 -8 -33.5 -48.5t-101 -75.5t-166.5 -35q-142 0 -226.5 69.5zM558 106.5q56 33.5 84.5 74.5t28.5 47v311q-194 -21 -318.5 -83t-124.5 -196q0 -92 53.5 -139.5t144.5 -47.5q76 0 132 33.5z" />
<glyph unicode="b" horiz-adv-x="1098" d="M403 11.5q-68 35.5 -102 71.5l-31 -83h-110v1593l155 9v-659h2q0 7 31.5 44t93.5 69.5t159 32.5q189 0 304 -140t115 -386q0 -269 -112.5 -428t-326.5 -159q-110 0 -178 35.5zM780.5 199q75.5 120 75.5 359q0 222 -76.5 325t-223.5 103q-106 0 -163.5 -55t-77.5 -98v-658 q15 -28 72.5 -62t153.5 -34q164 0 239.5 120z" />
<glyph unicode="c" horiz-adv-x="900" d="M198 115.5q-119 136.5 -119 406.5q0 273 118 418.5t346 145.5q75 0 141 -20t111.5 -45t45.5 -27l-18 -87q-9 6 -46.5 27t-96 39.5t-119.5 18.5q-165 0 -242 -108.5t-77 -359.5q0 -242 81.5 -346.5t227.5 -104.5q83 0 142 29.5t90.5 62.5t31.5 40l69 -45q0 -8 -38.5 -54.5 t-115 -86.5t-191.5 -40q-222 0 -341 136.5z" />
<glyph unicode="d" horiz-adv-x="1098" d="M196 117.5q-117 138.5 -117 384.5q0 267 114 425.5t321 158.5q87 0 146.5 -22.5t91.5 -49t32 -30.5h2v609l153 9v-1602h-132l-17 126q-24 -47 -92 -97t-192 -50q-193 0 -310 138.5zM673 116q55 33 84 71.5t29 44.5v654q0 4 -29 29.5t-79 47t-117 21.5q-165 0 -242 -120 t-77 -358q0 -223 76 -323t223 -100q77 0 132 33z" />
<glyph unicode="e" horiz-adv-x="964" d="M200 112q-121 133 -121 400q0 268 117 421t320 153q183 0 281.5 -126.5t98.5 -358.5q0 -40 -4 -66t-6 -33h-646q0 -430 311 -429q85 0 146 30.5t95.5 66t34.5 41.5l61 -51q0 -8 -40.5 -54.5t-119 -86.5t-193.5 -40q-214 0 -335 133zM752 592l2 40q0 362 -238 362 q-126 0 -194 -98.5t-80 -303.5h510z" />
<glyph unicode="f" horiz-adv-x="666" d="M203 961h-111v89l111 13v153q0 207 63.5 303.5t215.5 96.5q50 0 95 -13.5t72.5 -28.5t33.5 -19l-21 -83q-6 4 -27 16t-55.5 22t-70.5 10q-58 0 -89.5 -27.5t-47.5 -97.5t-16 -196v-134h309v-104h-309v-961h-153v961z" />
<glyph unicode="g" horiz-adv-x="959" d="M160 -464.5q-117 88.5 -117 257.5q0 110 49.5 179t126.5 101q-38 45 -38 125q0 104 98 178q-86 45 -132.5 129.5t-46.5 203.5q0 194 109.5 285.5t282.5 91.5q83 0 147 -21l275 -2v-83l-136 -4q85 -96 84 -267q0 -183 -98.5 -281t-273.5 -98q-73 0 -130 15 q-75 -49 -75 -111q0 -57 47.5 -79.5t151.5 -22.5q467 0 466 -328q0 -174 -116 -265.5t-332 -91.5q-225 0 -342 88.5zM711 711q0 153 -59.5 218t-167.5 65q-109 0 -171.5 -63.5t-62.5 -221.5q0 -144 61 -219t175 -75q225 0 225 296zM732.5 -397.5q80.5 60.5 80.5 175.5 q0 224 -346 224q-100 0 -160 17q-64 -26 -103.5 -82.5t-39.5 -141.5q0 -128 88.5 -190.5t249.5 -62.5q150 0 230.5 60.5z" />
<glyph unicode="h" horiz-adv-x="1089" d="M158 1593l155 9v-633h2l27 29q26 28 105 58t173 30q156 0 239.5 -86t83.5 -256v-744h-153v724q0 249 -221 249q-77 0 -135 -23t-89.5 -50.5t-31.5 -32.5v-867h-155v1593z" />
<glyph unicode="i" horiz-adv-x="472" d="M175 1303q-28 28 -28 69q0 40 28 67q24 24 61 24q41 0 65 -22q26 -28 25 -69q0 -39 -25 -69q-31 -24 -65 -23q-37 -1 -61 23zM158 0v1065h155v-1065h-155z" />
<glyph unicode="j" horiz-adv-x="510" d="M213 1303q-28 28 -28 69q0 40 28 67q24 24 62 24q40 0 64 -22q26 -28 25 -69q0 -39 -25 -69q-30 -24 -64 -23q-38 -1 -62 23zM-34.5 -542.5q-34.5 10.5 -50 20.5t-19.5 16l29 87q2 -2 16 -11t37.5 -16t53.5 -7q83 0 123.5 85t40.5 281v1152h156v-1152q0 -467 -301 -466 q-51 0 -85.5 10.5z" />
<glyph unicode="k" horiz-adv-x="970" d="M158 0v1593l155 9v-1025l130 90l317 398h118l-352 -437l396 -628h-176l-339 537l-94 -58v-479h-155z" />
<glyph unicode="l" horiz-adv-x="474" d="M160 0v1593l153 9v-1602h-153z" />
<glyph unicode="m" horiz-adv-x="1543" d="M160 1065h127l20 -113q36 42 110.5 88t189.5 46q88 0 142 -31t82 -98q34 40 112.5 84.5t198.5 44.5q134 0 196 -70.5t62 -233.5v-782h-156v764q0 124 -38.5 168t-121.5 44q-88 0 -146 -40t-86 -78q4 -47 4 -74v-784h-155v764q0 122 -37.5 167t-118.5 45q-89 0 -149.5 -41 t-82.5 -75v-860h-153v1065z" />
<glyph unicode="n" horiz-adv-x="1089" d="M160 1065h127l20 -102q34 41 106.5 82t208.5 41q153 0 238 -86t85 -256v-744h-155v711q0 137 -55.5 199.5t-163.5 62.5q-77 0 -134 -23t-90.5 -50.5t-33.5 -32.5v-867h-153v1065z" />
<glyph unicode="o" horiz-adv-x="1067" d="M195 123.5q-116 144.5 -116 408.5q0 265 116 409.5t337 144.5q222 0 338 -144.5t116 -409.5q0 -262 -118 -407.5t-336 -145.5q-221 0 -337 144.5zM752 187q71 114 71 345q0 230 -71 345t-220 115q-148 0 -219 -114t-71 -346q0 -231 71 -345t219 -114q149 0 220 114z" />
<glyph unicode="p" horiz-adv-x="1098" d="M160 1065h127l20 -128q30 47 102.5 98t199.5 51q188 0 299.5 -138.5t111.5 -384.5q0 -269 -112.5 -426.5t-319.5 -157.5q-88 0 -148 22.5t-92.5 49t-32.5 30.5h-2v-613l-153 -5v1602zM779.5 199q76.5 118 76.5 359q0 224 -76.5 324t-221.5 100q-76 0 -132 -32 t-84.5 -69.5t-28.5 -43.5v-662q24 -30 78 -62t146 -32q166 0 242.5 118z" />
<glyph unicode="q" horiz-adv-x="1098" d="M784 128h-2q0 -6 -30 -44.5t-93 -71.5t-159 -33q-189 0 -304 138.5t-115 384.5q0 267 116 425.5t325 158.5q104 0 170 -32t100 -66l37 77h110v-1597l-155 -5v665zM678 115q52 32 79 69.5t27 43.5v664q-28 33 -81 62.5t-138 29.5q-165 0 -244 -117t-79 -361 q0 -225 79 -324t226 -99q79 0 131 32z" />
<glyph unicode="r" horiz-adv-x="699" d="M158 1065h114l24 -219q0 12 24.5 73t75.5 114t132 53q41 0 92 -13.5t65 -20.5l-14 -117q-15 6 -67.5 19t-91.5 13q-62 0 -106 -41.5t-65.5 -88.5t-27.5 -71v-766h-155v1065z" />
<glyph unicode="s" horiz-adv-x="868" d="M233.5 14q-77.5 35 -117 75.5t-39.5 46.5l53 75q0 -4 34 -40.5t93.5 -67t140.5 -30.5q120 0 180.5 59t60.5 145q0 61 -31 101.5t-76.5 63t-126.5 50.5q-94 34 -149 62.5t-94.5 86.5t-39.5 149q0 137 98.5 216.5t254.5 79.5q69 0 131.5 -18t101 -38t48.5 -26l-26 -92 q-8 6 -42 26.5t-88.5 39t-111.5 18.5q-98 0 -159 -48.5t-61 -122.5q0 -62 32 -104t80 -65.5t129 -52.5q93 -32 152 -63t99.5 -88.5t40.5 -148.5q0 -139 -96 -231.5t-281 -92.5q-113 0 -190.5 35z" />
<glyph unicode="t" horiz-adv-x="693" d="M251.5 50.5q-55.5 71.5 -55.5 234.5v676h-111v89l111 13l58 339h98v-337h272v-104h-272v-638q0 -138 26.5 -190t92.5 -52q53 0 95.5 10.5t42.5 12.5l11 -85q-4 -4 -26.5 -13.5t-66 -18t-105.5 -8.5q-115 0 -170.5 71.5z" />
<glyph unicode="u" horiz-adv-x="1089" d="M230 65q-85 86 -85 256v744h156v-711q0 -262 221 -262q77 0 132 24t88 52t33 33v864h156v-1065h-130l-21 102q-28 -39 -102.5 -81t-206.5 -42q-156 0 -241 86z" />
<glyph unicode="v" horiz-adv-x="925" d="M392 0l-364 1065h183l277 -897l294 897h117l-367 -1065h-140z" />
<glyph unicode="w" horiz-adv-x="1398" d="M309 0l-279 1065h173l199 -869l254 869h122l266 -869l208 869h120l-288 -1065h-137l-248 858l-252 -858h-138z" />
<glyph unicode="x" horiz-adv-x="943" d="M26 0l354 530l-337 535h183l262 -445l274 445h126l-330 -509l358 -556h-181l-286 460l-296 -460h-127z" />
<glyph unicode="y" horiz-adv-x="955" d="M96.5 -547q-27.5 6 -43 12.5t-19.5 8.5l17 98q6 -5 31.5 -12t55.5 -7q98 0 164 105.5t147 329.5l-417 1077h183l315 -890l285 890h114l-368 -1082q-92 -262 -180.5 -399t-218.5 -137q-38 0 -65.5 6z" />
<glyph unicode="z" horiz-adv-x="882" d="M75 0v85l545 884h-498l-7 96h684v-85l-541 -884h537l4 -96h-724z" />
<glyph unicode="{" horiz-adv-x="798" d="M432.5 -273.5q-83.5 75.5 -83.5 224.5q0 79 31 228q28 130 27 203q0 53 -32 96.5t-78.5 68t-87.5 24.5v102q41 0 87.5 24.5t78.5 68t32 96.5q0 73 -27 203q-31 149 -31 228q0 148 83.5 224t291.5 76v-91q-132 0 -187 -56t-55 -164q0 -59 12 -130.5t15 -86.5 q30 -149 30 -219q0 -77 -45 -134.5t-122 -89.5q77 -32 122 -89.5t45 -134.5q0 -70 -30 -219q-3 -15 -15 -86.5t-12 -130.5q0 -109 55 -164.5t187 -55.5v-91q-208 0 -291.5 75.5z" />
<glyph unicode="|" horiz-adv-x="621" d="M258 -532v2129h106v-2129h-106z" />
<glyph unicode="}" horiz-adv-x="798" d="M128 -258q130 0 185 55.5t55 164.5q0 59 -12.5 130.5t-14.5 86.5q-30 149 -30 219q0 77 44.5 134.5t119.5 89.5q-75 32 -119.5 89.5t-44.5 134.5q0 70 30 219q2 15 14.5 86.5t12.5 130.5q0 108 -55 164t-185 56v91q209 0 291.5 -76t82.5 -224q0 -88 -31 -228 q-2 -17 -15 -83t-13 -120q0 -53 33 -96.5t80 -68t87 -24.5v-102q-41 0 -87.5 -24.5t-79.5 -68t-33 -96.5t13 -119.5t15 -83.5q32 -141 31 -228q0 -149 -82.5 -224.5t-291.5 -75.5v91z" />
<glyph unicode="~" horiz-adv-x="1219" d="M737 569.5q-62 28.5 -143 86.5q-75 53 -132 79.5t-132 26.5q-69 0 -112 -26.5t-65.5 -56t-22.5 -36.5l-64 45q0 13 30 69t96 106.5t174 50.5q96 0 163 -30t152 -89q71 -51 124 -76.5t122 -25.5q61 0 98.5 23t54.5 48.5t17 32.5l59 -41q0 -12 -26.5 -66t-87 -101.5 t-158.5 -47.5q-85 0 -147 28.5z" />
<glyph unicode="&#xa1;" horiz-adv-x="587" d="M224 912q-31 28 -31 72q0 45 31 73q28 26 66 25q39 0 68 -25q28 -28 28 -73t-28 -72q-28 -26 -68 -26q-36 0 -66 26zM205 -532v176l40 970h94l37 -970v-176h-171z" />
<glyph unicode="&#xa2;" horiz-adv-x="900" d="M471 126q-189 19 -290.5 154t-101.5 385q0 249 99 392.5t291 167.5l8 266h90l12 -264q66 -4 124.5 -24.5t94 -39.5t43.5 -25l-18 -88q-9 7 -46.5 27t-96 39.5t-119.5 19.5q-165 0 -242 -109t-77 -360q0 -243 81.5 -347.5t227.5 -104.5q83 0 142 30t90.5 63t31.5 39 l69 -44q0 -7 -34.5 -49.5t-101.5 -83t-169 -48.5l-6 -228h-89z" />
<glyph unicode="&#xa3;" horiz-adv-x="1081" d="M98 142h81q69 49 96.5 127t27.5 189q0 70 -7 143l-198 6v92h187q-2 17 -12.5 123.5t-10.5 206.5q0 181 97 278t277 97q58 0 117.5 -17t101 -36.5t52.5 -25.5l-25 -92q-8 5 -42.5 22t-81.5 31.5t-89 14.5q-120 0 -177 -66t-57 -215q0 -117 4 -321h475v-101h-475 q-4 -160 -27.5 -271.5t-81.5 -184.5h705v-142h-937v142z" />
<glyph unicode="&#xa4;" horiz-adv-x="1149" d="M786 366q-42 -40 -96 -61.5t-113 -21.5q-121 0 -209 81l-200 -251l-60 78l215 226q-70 100 -69 252q0 142 67 249l-215 230l60 79l200 -258q90 86 211 86q116 0 205 -79l202 249l57 -79l-214 -224q75 -104 74 -253q0 -147 -72 -252l215 -228l-58 -79zM745 455.5 q64 79.5 64 213.5q0 136 -64 214t-168 78q-106 0 -170 -78t-64 -212t64 -214.5t170 -80.5q104 0 168 79.5z" />
<glyph unicode="&#xa5;" horiz-adv-x="1199" d="M520 0v309h-313v85h313v179l-14 23h-299v85h251l-397 703h181l382 -681l380 681h130l-397 -703h236v-85h-285l-7 -13v-189h292v-85h-292v-309h-161z" />
<glyph unicode="&#xa6;" horiz-adv-x="621" d="M258 746v851h106v-851h-106zM258 -532v851h106v-851h-106z" />
<glyph unicode="&#xa7;" horiz-adv-x="1034" d="M303 -165.5q-71 23.5 -109 50t-38 30.5l35 85q0 -4 34.5 -28.5t92.5 -46t138 -21.5q136 0 195.5 56.5t59.5 141.5q0 61 -32.5 102t-82 65.5t-134.5 56.5q-104 38 -167 72.5t-108 97t-45 160.5q0 175 137 258q-64 69 -64 172q0 136 95 227t273 91q71 0 135 -22.5 t109 -49.5t45 -29l-18 -85q-8 6 -44.5 29t-92 43t-112.5 20q-126 0 -182.5 -61.5t-56.5 -145.5q0 -63 35.5 -105.5t86.5 -68.5t140 -57q104 -37 169 -71.5t110 -94.5t45 -157q0 -173 -149 -264q59 -71 59 -167q0 -135 -97.5 -221t-289.5 -86q-101 0 -172 23.5zM843 524 q0 64 -38.5 107.5t-93.5 70t-153 62.5q-144 49 -217 96q-89 -51 -89 -175q0 -70 37 -115.5t92.5 -72t150.5 -62.5q71 -24 121 -46.5t91 -49.5q99 59 99 185z" />
<glyph unicode="&#xa8;" horiz-adv-x="798" d="M104 1310q-24 24 -23 62q0 40 23 63q28 21 58 22q28 0 55 -22q24 -28 23 -63q0 -35 -23 -62q-28 -20 -55 -21q-30 1 -58 21zM433 1310q-24 24 -24 62q0 40 24 63q28 21 55 22q28 0 55 -22q26 -26 26 -63t-26 -62q-28 -20 -55 -21q-27 1 -55 21z" />
<glyph unicode="&#xa9;" horiz-adv-x="1551" d="M441 57.5q-138 87.5 -211.5 248.5t-73.5 382q0 222 74.5 385t212.5 251t330 88q191 0 332 -88t214.5 -251.5t73.5 -384.5t-73.5 -383.5t-213 -248.5t-333.5 -86t-332 87.5zM1166 215.5q144 168.5 144 469.5q0 203 -65 349t-186.5 223.5t-287.5 77.5q-165 0 -284 -77.5 t-183 -223.5t-64 -349q0 -302 142 -470t389 -168q251 0 395 168.5zM628 343q-75 45 -118 130t-43 202q0 179 92.5 281.5t243.5 102.5q55 0 99.5 -17.5t70.5 -34.5t33 -23l-22 -66q-6 7 -28.5 23t-60 30.5t-82.5 14.5q-110 0 -172 -78.5t-62 -232.5q0 -147 65 -225t171 -78 q60 0 102 25t63.5 53.5t21.5 33.5l39 -45q0 -8 -25.5 -43.5t-79.5 -66.5t-141 -31q-92 0 -167 45z" />
<glyph unicode="&#xaa;" horiz-adv-x="827" d="M134.5 716.5q-63.5 56.5 -63.5 159.5q0 240 478 274v37q0 97 -40 143t-133 46q-59 0 -106.5 -19.5t-76.5 -42.5t-29 -25l-34 51q0 4 30.5 32t90.5 52.5t149 24.5q147 0 217.5 -66t70.5 -208v-494h-109l-28 114q-14 -45 -68.5 -90t-163.5 -45q-121 0 -184.5 56.5zM496 781 q36 42 53 86v222q-158 -15 -250 -58t-92 -143q0 -149 167 -149q86 0 122 42z" />
<glyph unicode="&#xab;" horiz-adv-x="1030" d="M504 158l-327 374l329 364l47 -55l-230 -311l230 -315zM850 158l-328 374l330 364l47 -55l-230 -311l230 -315z" />
<glyph unicode="&#xac;" horiz-adv-x="951" d="M744 272v356h-631v98h722v-454h-91z" />
<glyph unicode="&#xad;" horiz-adv-x="659" d="M85 541v100h488v-100h-488z" />
<glyph unicode="&#xae;" horiz-adv-x="1313" d="M362 399q-124 80 -188 225t-64 341q0 194 66 341t190 226.5t290 79.5q167 0 290 -79.5t190 -226.5t67 -341q0 -195 -65 -340.5t-188 -225.5t-294 -80q-170 0 -294 80zM997 547.5q123 151.5 123 415.5q0 266 -123 421.5t-341 155.5q-217 0 -340 -155.5t-123 -421.5 t122 -416.5t341 -150.5q218 0 341 151.5zM482 1301h176q241 0 241 -191q0 -79 -39.5 -129t-107.5 -69l140 -286h-91l-134 273h-102v-273h-83v675zM658 952q69 0 109 37t40 121q0 70 -36 102t-113 32h-93v-292h93z" />
<glyph unicode="&#xaf;" horiz-adv-x="840" d="M222 1355v76h396v-76h-396z" />
<glyph unicode="&#xb0;" horiz-adv-x="870" d="M189.5 928.5q-87.5 108.5 -87.5 292.5q0 183 89.5 292.5t245.5 109.5q153 0 243.5 -110.5t90.5 -291.5q0 -183 -89.5 -292t-244.5 -109q-160 0 -247.5 108.5zM589 991q54 82 54 232q0 151 -54 231t-152 80q-100 0 -153.5 -80t-53.5 -231t53.5 -232.5t151.5 -81.5 q100 0 154 82z" />
<glyph unicode="&#xb1;" horiz-adv-x="1000" d="M458 699v370h-318v100h318v371h93v-371h311v-100h-311v-370h-93zM73 321v101h856v-101h-856z" />
<glyph unicode="&#xb2;" horiz-adv-x="802" d="M87 607q41 15 153 131t202 266t90 282q0 122 -44.5 179.5t-150.5 57.5q-41 0 -87.5 -20.5t-80 -42t-41.5 -27.5l-18 83q11 9 48.5 32t96 44.5t117.5 21.5q158 0 235.5 -86.5t77.5 -230.5q0 -175 -137 -351.5t-312 -321.5h473v-134h-622v117z" />
<glyph unicode="&#xb3;" horiz-adv-x="800" d="M206.5 493.5q-59.5 22.5 -90.5 48t-31 29.5l41 75q4 -6 28.5 -27t71 -38.5t109.5 -17.5q106 0 167 66t61 184q0 111 -43 169.5t-124 58.5q-51 0 -89 -37l-2 -2l-51 57l287 404h-405l9 134h526v-91l-281 -386l34 2q124 0 202.5 -85t78.5 -228q0 -160 -100.5 -249 t-250.5 -89q-88 0 -147.5 22.5z" />
<glyph unicode="&#xb4;" horiz-adv-x="439" d="M201 1216l-81 11l163 309l134 -32z" />
<glyph unicode="&#xb5;" horiz-adv-x="1102" d="M160 270q-2 17 -2 51v744h155v-711q0 -262 222 -262q77 0 132 24t88 52t33 33v864h155v-1065h-130l-21 102q-28 -39 -102 -81t-206 -42q-102 0 -177 38q10 -305 10 -549h-157v802z" />
<glyph unicode="&#xb6;" horiz-adv-x="1270" d="M588 520q-241 0 -363.5 103t-122.5 336q0 213 125 319t391 106h553v-116h-123v-1268h-130v1268h-202v-1268h-128v520z" />
<glyph unicode="&#xb7;" horiz-adv-x="516" d="M189 646q-30 28 -29 72q0 44 29 72q28 26 67 25q38 0 67 -25q29 -28 29 -72q0 -45 -29 -72q-30 -26 -67 -26q-39 0 -67 26z" />
<glyph unicode="&#xb8;" horiz-adv-x="498" d="M141.5 -514.5q-43.5 20.5 -66 43t-22.5 26.5l39 43q4 -7 20 -23t47.5 -31t74.5 -15q140 0 140 145q0 64 -45.5 88.5t-89 32t-43.5 9.5l26 190h59l-15 -141q0 -2 54 -16t102.5 -54.5t48.5 -112.5q0 -95 -56.5 -150t-164.5 -55q-65 0 -108.5 20.5z" />
<glyph unicode="&#xb9;" horiz-adv-x="800" d="M374 490v980l-189 -124l-36 89l251 162h116v-1107h-142z" />
<glyph unicode="&#xba;" horiz-adv-x="892" d="M171.5 763.5q-92.5 103.5 -92.5 291.5q0 187 92.5 290.5t273.5 103.5t273.5 -103.5t92.5 -290.5q0 -186 -94.5 -290.5t-271.5 -104.5q-181 0 -273.5 103.5zM667 1055q0 160 -54.5 239.5t-167.5 79.5q-221 0 -221 -319q0 -324 221 -325q222 1 222 325z" />
<glyph unicode="&#xbb;" horiz-adv-x="1030" d="M179 158l-49 55l230 309l-228 317l49 57l325 -376zM524 158l-49 55l230 309l-228 317l49 57l326 -376z" />
<glyph unicode="&#xbc;" horiz-adv-x="1547" d="M374 490v980l-189 -124l-36 89l251 162h116v-1107h-142zM541 0l-74 43l645 1197l75 -45zM1187 -254h-416l-11 75q60 132 122.5 343.5t107.5 427.5l134 -17q-42 -195 -112.5 -391t-144.5 -348h320v347l34 230h110v-577h104v-76l-104 -14v-278h-144v278z" />
<glyph unicode="&#xbd;" horiz-adv-x="1673" d="M374 490v980l-189 -124l-36 89l251 162h116v-1107h-142zM541 0l-74 43l645 1197l75 -45zM916 -415q41 15 152.5 131t202 266t90.5 282q0 122 -44.5 178t-153.5 56q-41 0 -86.5 -19t-78.5 -40.5t-41 -27.5l-20 83q10 8 48.5 31.5t97.5 45t118 21.5q158 0 235.5 -87.5 t77.5 -229.5q0 -177 -137 -354t-310 -319h469v-134h-620v117z" />
<glyph unicode="&#xbe;" horiz-adv-x="1650" d="M208.5 493.5q-59.5 22.5 -90.5 48t-31 29.5l41 75q4 -6 28.5 -27t71.5 -38.5t109 -17.5q106 0 167 66t61 184q0 111 -43 169.5t-124 58.5q-51 0 -89 -37l-2 -2l-51 57l287 404h-405l9 134h526v-91l-281 -386l34 2q124 0 202.5 -85t78.5 -228q0 -160 -100.5 -249 t-250.5 -89q-88 0 -147.5 22.5zM641 0l-74 43l645 1197l74 -45zM1289 -254h-415l-12 75q59 132 122.5 343.5t108.5 427.5l134 -17q-42 -195 -112.5 -391t-145.5 -348h320v347l34 230h110v-577h105v-76l-105 -14v-278h-144v278z" />
<glyph unicode="&#xbf;" horiz-adv-x="874" d="M496 912q-30 28 -29 72q0 45 29 73q28 26 67 25q40 0 67 -25q28 -28 28 -73t-28 -72q-28 -26 -67 -26t-67 26zM179 -449q-100 104 -100 251q0 100 30.5 169.5t75.5 112t122 97.5q77 57 121.5 98.5t75.5 111t31 172.5l-3 44l73 7q11 -75 11 -118q0 -89 -24.5 -153 t-62 -103t-96.5 -89q-60 -49 -95 -86t-59.5 -97t-24.5 -145q0 -130 58 -204.5t204 -74.5q53 0 98.5 10.5t71 21.5t32.5 15l38 -87q-6 -4 -37 -18t-87.5 -26.5t-131.5 -12.5q-221 0 -321 104z" />
<glyph unicode="&#xc0;" horiz-adv-x="1209" d="M596 1508l-224 287l132 34l177 -304zM49 0l467 1384h189l458 -1384h-169l-144 426h-543l-145 -426h-113zM337 514h486l-242 746z" />
<glyph unicode="&#xc1;" horiz-adv-x="1209" d="M624 1504l-81 10l164 309l134 -32zM49 0l467 1384h189l458 -1384h-169l-144 426h-543l-145 -426h-113zM337 514h486l-242 746z" />
<glyph unicode="&#xc2;" horiz-adv-x="1209" d="M370 1559l-40 69l235 242h83l230 -242l-39 -69l-234 207zM49 0l467 1384h189l458 -1384h-169l-144 426h-543l-145 -426h-113zM337 514h486l-242 746z" />
<glyph unicode="&#xc3;" horiz-adv-x="1209" d="M699.5 1569q-39.5 14 -87.5 37q-51 24 -86.5 35.5t-72.5 11.5q-36 0 -64.5 -18.5t-43.5 -38t-19 -27.5l-49 54q0 5 25.5 39.5t71 65t108.5 30.5q46 0 84.5 -13t93.5 -41q47 -24 79 -34.5t66 -10.5t58.5 13t36.5 27t14 18l49 -54q0 -4 -21.5 -31.5t-61 -52t-98.5 -24.5 q-43 0 -82.5 14zM49 0l467 1384h189l458 -1384h-169l-144 426h-543l-145 -426h-113zM337 514h486l-242 746z" />
<glyph unicode="&#xc4;" horiz-adv-x="1209" d="M390 1597q-24 24 -24 62q0 40 24 64q28 21 57 21q28 0 55 -21q24 -28 24 -64q0 -35 -24 -62q-28 -20 -55 -20q-29 0 -57 20zM718 1597q-24 24 -23 62q0 40 23 64q28 21 55 21q28 0 56 -21q26 -26 25 -64q0 -37 -25 -62q-28 -20 -56 -20q-27 0 -55 20zM49 0l467 1384h189 l458 -1384h-169l-144 426h-543l-145 -426h-113zM337 514h486l-242 746z" />
<glyph unicode="&#xc5;" horiz-adv-x="1209" d="M467.5 1512q-52.5 51 -52.5 147q0 93 53.5 147t136.5 54q81 0 135.5 -53.5t54.5 -147.5q0 -96 -52 -147t-138 -51q-85 0 -137.5 51zM697.5 1551.5q35.5 35.5 35.5 107.5q0 73 -35.5 108t-92.5 35t-93.5 -36t-36.5 -107q0 -73 36 -108t94 -35q57 0 92.5 35.5zM49 0 l467 1384h189l458 -1384h-169l-144 426h-543l-145 -426h-113zM337 514h486l-242 746z" />
<glyph unicode="&#xc6;" horiz-adv-x="1679" d="M-26 0l790 1384h795v-102h-586v-532h535v-98h-535v-550h631v-102h-793v437h-468l-247 -437h-122zM390 524h421v758h-8z" />
<glyph unicode="&#xc7;" horiz-adv-x="1213" d="M574 -514.5q-44 20.5 -66 43t-22 26.5l38 43q4 -7 20.5 -23t48 -31t74.5 -15q140 0 140 145q0 64 -45.5 88.5t-89.5 32t-44 9.5l24 177q-262 19 -406 202t-144 496q0 220 74 384t209 252.5t314 88.5q98 0 188.5 -26t154.5 -57.5t64 -34.5l-20 -101q0 2 -61.5 31.5 t-143.5 55t-165 25.5q-207 0 -324 -156.5t-117 -457.5q0 -296 119.5 -447t333.5 -151q113 0 198.5 47t135.5 100t50 62l59 -68q0 -11 -55 -74t-157.5 -118t-247.5 -55l-12 -126q0 -2 54 -16t102 -54.5t48 -112.5q0 -95 -56.5 -150t-165.5 -55q-63 0 -107 20.5z" />
<glyph unicode="&#xc8;" horiz-adv-x="1079" d="M581 1508l-223 287l132 34l177 -304zM201 0v1384h744v-102h-583v-532h534v-98h-534v-550h630v-102h-791z" />
<glyph unicode="&#xc9;" horiz-adv-x="1079" d="M609 1504l-81 10l165 309l134 -32zM201 0v1384h744v-102h-583v-532h534v-98h-534v-550h630v-102h-791z" />
<glyph unicode="&#xca;" horiz-adv-x="1079" d="M364 1559l-41 69l235 242h83l231 -242l-39 -69l-235 207zM201 0v1384h744v-102h-583v-532h534v-98h-534v-550h630v-102h-791z" />
<glyph unicode="&#xcb;" horiz-adv-x="1079" d="M349 1597q-23 24 -23 62q0 40 23 64q29 21 56 21q30 0 57 -21q24 -28 24 -64q0 -35 -24 -62q-28 -20 -57 -20q-27 0 -56 20zM677 1597q-24 24 -23 62q0 40 23 64q28 21 56 21t55 -21q26 -26 25 -64q0 -37 -25 -62q-28 -20 -55 -20q-28 0 -56 20zM201 0v1384h744v-102 h-583v-532h534v-98h-534v-550h630v-102h-791z" />
<glyph unicode="&#xcc;" horiz-adv-x="563" d="M264 1508l-223 287l132 34l176 -304zM201 0v1384h161v-1384h-161z" />
<glyph unicode="&#xcd;" horiz-adv-x="563" d="M292 1504l-81 10l163 309l135 -32zM201 0v1384h161v-1384h-161z" />
<glyph unicode="&#xce;" horiz-adv-x="563" d="M45 1559l-41 69l234 242h83l230 -242l-37 -69l-235 207zM201 0v1384h161v-1384h-161z" />
<glyph unicode="&#xcf;" horiz-adv-x="563" d="M57 1597q-24 24 -23 62q0 40 23 64q28 21 58 21q29 0 56 -21q23 -28 22 -64q0 -35 -22 -62q-29 -20 -56 -20q-30 0 -58 20zM386 1597q-24 24 -24 62q0 40 24 64q28 21 55 21q28 0 55 -21q26 -26 26 -64q0 -37 -26 -62q-28 -20 -55 -20t-55 20zM201 0v1384h161v-1384h-161 z" />
<glyph unicode="&#xd0;" horiz-adv-x="1358" d="M201 643h-148v90h148v651h421q298 0 463 -180t165 -516q0 -334 -162.5 -511t-465.5 -177h-421v643zM624 102q451 0 451 586q0 594 -453 594h-260v-549h402v-90h-402v-541h262z" />
<glyph unicode="&#xd1;" horiz-adv-x="1386" d="M791.5 1569q-39.5 14 -88.5 37q-51 24 -86.5 35.5t-71.5 11.5t-65 -18.5t-43.5 -38t-19.5 -27.5l-49 54q0 5 25.5 39.5t72 65t107.5 30.5q47 0 85.5 -13t93.5 -41q47 -24 78.5 -34.5t65.5 -10.5q35 0 59.5 13t36.5 27t14 18l49 -54q0 -4 -21.5 -31.5t-61 -52t-98.5 -24.5 q-43 0 -82.5 14zM201 0v1384h167l707 -1142l-6 52v1090h118v-1384h-141l-737 1180h-2l10 -66v-1114h-116z" />
<glyph unicode="&#xd2;" d="M677 1508l-224 287l133 34l176 -304zM375.5 64q-133.5 85 -203.5 246t-70 381q0 219 70 379.5t203.5 247t319.5 86.5q185 0 319 -86.5t205.5 -247.5t71.5 -379q0 -220 -71.5 -381t-205.5 -246t-319 -85q-186 0 -319.5 85zM1008.5 236.5q109.5 155.5 109.5 454.5 q0 296 -109.5 453t-313.5 157q-203 0 -311.5 -157.5t-108.5 -452.5q0 -299 107.5 -454.5t312.5 -155.5q204 0 313.5 155.5z" />
<glyph unicode="&#xd3;" d="M705 1504l-81 10l164 309l134 -32zM375.5 64q-133.5 85 -203.5 246t-70 381q0 219 70 379.5t203.5 247t319.5 86.5q185 0 319 -86.5t205.5 -247.5t71.5 -379q0 -220 -71.5 -381t-205.5 -246t-319 -85q-186 0 -319.5 85zM1008.5 236.5q109.5 155.5 109.5 454.5 q0 296 -109.5 453t-313.5 157q-203 0 -311.5 -157.5t-108.5 -452.5q0 -299 107.5 -454.5t312.5 -155.5q204 0 313.5 155.5z" />
<glyph unicode="&#xd4;" d="M460 1559l-41 69l235 242h83l230 -242l-38 -69l-234 207zM375.5 64q-133.5 85 -203.5 246t-70 381q0 219 70 379.5t203.5 247t319.5 86.5q185 0 319 -86.5t205.5 -247.5t71.5 -379q0 -220 -71.5 -381t-205.5 -246t-319 -85q-186 0 -319.5 85zM1008.5 236.5 q109.5 155.5 109.5 454.5q0 296 -109.5 453t-313.5 157q-203 0 -311.5 -157.5t-108.5 -452.5q0 -299 107.5 -454.5t312.5 -155.5q204 0 313.5 155.5z" />
<glyph unicode="&#xd5;" d="M781 1569q-39 14 -88 37q-51 24 -86.5 35.5t-71.5 11.5q-37 0 -65.5 -18.5t-43.5 -38t-19 -27.5l-49 54q0 5 25.5 39.5t71 65t108.5 30.5q46 0 84 -13t95 -41q46 -24 78 -34.5t66 -10.5t58.5 13t36 27t13.5 18l50 -54q0 -4 -21 -31.5t-61 -52t-100 -24.5q-42 0 -81 14z M375.5 64q-133.5 85 -203.5 246t-70 381q0 219 70 379.5t203.5 247t319.5 86.5q185 0 319 -86.5t205.5 -247.5t71.5 -379q0 -220 -71.5 -381t-205.5 -246t-319 -85q-186 0 -319.5 85zM1008.5 236.5q109.5 155.5 109.5 454.5q0 296 -109.5 453t-313.5 157 q-203 0 -311.5 -157.5t-108.5 -452.5q0 -299 107.5 -454.5t312.5 -155.5q204 0 313.5 155.5z" />
<glyph unicode="&#xd6;" d="M471 1597q-24 24 -24 62q0 40 24 64q28 21 57 21q28 0 55 -21q24 -28 24 -64q0 -35 -24 -62q-28 -20 -55 -20q-29 0 -57 20zM799 1597q-24 24 -24 62q0 40 24 64q28 21 55 21q28 0 55 -21q26 -26 26 -64q0 -37 -26 -62q-28 -20 -55 -20t-55 20zM375.5 64 q-133.5 85 -203.5 246t-70 381q0 219 70 379.5t203.5 247t319.5 86.5q185 0 319 -86.5t205.5 -247.5t71.5 -379q0 -220 -71.5 -381t-205.5 -246t-319 -85q-186 0 -319.5 85zM1008.5 236.5q109.5 155.5 109.5 454.5q0 296 -109.5 453t-313.5 157q-203 0 -311.5 -157.5 t-108.5 -452.5q0 -299 107.5 -454.5t312.5 -155.5q204 0 313.5 155.5z" />
<glyph unicode="&#xd7;" horiz-adv-x="750" d="M153 343l-66 79l222 259l-224 260l66 81l223 -262l227 262l66 -81l-224 -260l224 -259l-66 -79l-225 260z" />
<glyph unicode="&#xd8;" d="M335 -203l93 237q-158 77 -242 246t-84 411q0 219 70 379.5t203.5 247t319.5 86.5q142 0 260 -56l80 203l60 -13l-87 -217q136 -85 209.5 -247t73.5 -383q0 -220 -71.5 -381t-205.5 -246t-319 -85q-111 0 -213 33l-92 -227zM909 1240q-92 61 -214 61 q-203 0 -311.5 -157.5t-108.5 -452.5q0 -203 49.5 -340.5t148.5 -205.5zM1008.5 236.5q109.5 155.5 109.5 454.5q0 357 -159 510l-437 -1086q75 -34 173 -34q204 0 313.5 155.5z" />
<glyph unicode="&#xd9;" horiz-adv-x="1319" d="M677 1508l-224 287l133 34l176 -304zM305.5 106.5q-122.5 127.5 -122.5 344.5v933h160v-896q0 -194 85.5 -297.5t248.5 -103.5q171 0 257 105.5t86 295.5v896h118v-933q0 -217 -119.5 -344.5t-358.5 -127.5q-232 0 -354.5 127.5z" />
<glyph unicode="&#xda;" horiz-adv-x="1319" d="M665 1504l-82 10l165 309l134 -32zM305.5 106.5q-122.5 127.5 -122.5 344.5v933h160v-896q0 -194 85.5 -297.5t248.5 -103.5q171 0 257 105.5t86 295.5v896h118v-933q0 -217 -119.5 -344.5t-358.5 -127.5q-232 0 -354.5 127.5z" />
<glyph unicode="&#xdb;" horiz-adv-x="1319" d="M447 1559l-40 69l234 242h83l231 -242l-39 -69l-235 207zM305.5 106.5q-122.5 127.5 -122.5 344.5v933h160v-896q0 -194 85.5 -297.5t248.5 -103.5q171 0 257 105.5t86 295.5v896h118v-933q0 -217 -119.5 -344.5t-358.5 -127.5q-232 0 -354.5 127.5z" />
<glyph unicode="&#xdc;" horiz-adv-x="1319" d="M460 1597q-24 24 -23 62q0 40 23 64q28 21 56 21q30 0 57 -21q24 -28 23 -64q0 -35 -23 -62q-28 -20 -57 -20q-28 0 -56 20zM788 1597q-24 24 -24 62q0 40 24 64q28 21 55 21q29 0 56 -21q26 -26 26 -64q0 -37 -26 -62q-29 -20 -56 -20t-55 20zM305.5 106.5 q-122.5 127.5 -122.5 344.5v933h160v-896q0 -194 85.5 -297.5t248.5 -103.5q171 0 257 105.5t86 295.5v896h118v-933q0 -217 -119.5 -344.5t-358.5 -127.5q-232 0 -354.5 127.5z" />
<glyph unicode="&#xdd;" horiz-adv-x="1079" d="M586 1504l-82 10l165 309l134 -32zM462 0v573l-458 811h181l382 -681l378 681h130l-451 -801v-583h-162z" />
<glyph unicode="&#xde;" horiz-adv-x="1094" d="M226 1384h160v-232h172q214 0 332 -111.5t118 -335.5q0 -166 -65 -272.5t-166.5 -153.5t-215.5 -47h-175v-232h-160v1384zM547 328q136 0 216 83t80 288q0 185 -75 270.5t-221 85.5h-161v-727h161z" />
<glyph unicode="&#xdf;" horiz-adv-x="1128" d="M508.5 -8.5q-52.5 12.5 -77 26.5t-24.5 16l21 90q5 -4 23 -15t56 -21.5t96 -10.5q139 0 211 102t72 325q0 169 -39.5 268.5t-125 145t-227.5 45.5v102q0 -6 70 14t126 72t56 152q0 106 -53.5 161.5t-153.5 55.5q-116 0 -171 -87t-55 -268v-1165h-153v1165q0 225 101 338 t286 113q164 0 258 -78.5t94 -218.5q0 -111 -60.5 -180.5t-150.5 -105.5q364 -79 364 -527q0 -270 -107.5 -398.5t-303.5 -128.5q-80 0 -132.5 12.5z" />
<glyph unicode="&#xe0;" horiz-adv-x="1015" d="M482 1221l-224 287l132 34l177 -304zM153.5 48.5q-84.5 69.5 -84.5 191.5q0 313 602 378v112q0 151 -49 206.5t-173 55.5q-55 0 -112.5 -20t-96.5 -42.5t-51 -28.5l-16 87q10 8 53.5 32t111 45t135.5 21q183 0 268.5 -76.5t85.5 -270.5v-522q0 -85 15.5 -114.5 t39.5 -29.5q19 0 47 7t36 12l6 -73q-16 -7 -72 -23.5t-94 -16.5q-55 0 -84.5 35t-37.5 124h-2q0 -8 -33.5 -48.5t-101 -75.5t-166.5 -35q-142 0 -226.5 69.5zM558 106.5q56 33.5 84.5 74.5t28.5 47v311q-194 -21 -318.5 -83t-124.5 -196q0 -92 53.5 -139.5t144.5 -47.5 q76 0 132 33.5z" />
<glyph unicode="&#xe1;" horiz-adv-x="1015" d="M506 1216l-80 11l164 309l134 -32zM153.5 48.5q-84.5 69.5 -84.5 191.5q0 313 602 378v112q0 151 -49 206.5t-173 55.5q-55 0 -112.5 -20t-96.5 -42.5t-51 -28.5l-16 87q10 8 53.5 32t111 45t135.5 21q183 0 268.5 -76.5t85.5 -270.5v-522q0 -85 15.5 -114.5t39.5 -29.5 q19 0 47 7t36 12l6 -73q-16 -7 -72 -23.5t-94 -16.5q-55 0 -84.5 35t-37.5 124h-2q0 -8 -33.5 -48.5t-101 -75.5t-166.5 -35q-142 0 -226.5 69.5zM558 106.5q56 33.5 84.5 74.5t28.5 47v311q-194 -21 -318.5 -83t-124.5 -196q0 -92 53.5 -139.5t144.5 -47.5q76 0 132 33.5z " />
<glyph unicode="&#xe2;" horiz-adv-x="1015" d="M262 1272l-40 68l234 243h83l230 -243l-39 -68l-234 206zM153.5 48.5q-84.5 69.5 -84.5 191.5q0 313 602 378v112q0 151 -49 206.5t-173 55.5q-55 0 -112.5 -20t-96.5 -42.5t-51 -28.5l-16 87q10 8 53.5 32t111 45t135.5 21q183 0 268.5 -76.5t85.5 -270.5v-522 q0 -85 15.5 -114.5t39.5 -29.5q19 0 47 7t36 12l6 -73q-16 -7 -72 -23.5t-94 -16.5q-55 0 -84.5 35t-37.5 124h-2q0 -8 -33.5 -48.5t-101 -75.5t-166.5 -35q-142 0 -226.5 69.5zM558 106.5q56 33.5 84.5 74.5t28.5 47v311q-194 -21 -318.5 -83t-124.5 -196 q0 -92 53.5 -139.5t144.5 -47.5q76 0 132 33.5z" />
<glyph unicode="&#xe3;" horiz-adv-x="1015" d="M584.5 1281.5q-39.5 13.5 -88.5 37.5q-51 24 -86.5 35.5t-70.5 11.5q-36 0 -65 -18.5t-44 -38.5t-19 -27l-49 53q0 5 25.5 40t71.5 65t107 30q47 0 85.5 -12.5t93.5 -41.5q47 -23 79 -33.5t67 -10.5q34 0 58 12.5t36 26.5t14 18l49 -53q0 -4 -21.5 -31.5t-61 -52 t-98.5 -24.5q-43 0 -82.5 13.5zM153.5 48.5q-84.5 69.5 -84.5 191.5q0 313 602 378v112q0 151 -49 206.5t-173 55.5q-55 0 -112.5 -20t-96.5 -42.5t-51 -28.5l-16 87q10 8 53.5 32t111 45t135.5 21q183 0 268.5 -76.5t85.5 -270.5v-522q0 -85 15.5 -114.5t39.5 -29.5 q19 0 47 7t36 12l6 -73q-16 -7 -72 -23.5t-94 -16.5q-55 0 -84.5 35t-37.5 124h-2q0 -8 -33.5 -48.5t-101 -75.5t-166.5 -35q-142 0 -226.5 69.5zM558 106.5q56 33.5 84.5 74.5t28.5 47v311q-194 -21 -318.5 -83t-124.5 -196q0 -92 53.5 -139.5t144.5 -47.5q76 0 132 33.5z " />
<glyph unicode="&#xe4;" horiz-adv-x="1015" d="M272 1310q-23 24 -22 62q0 40 22 63q29 21 56 22q30 0 58 -22q24 -28 23 -63q0 -35 -23 -62q-28 -20 -58 -21q-27 1 -56 21zM601 1310q-24 24 -24 62q0 40 24 63q28 21 55 22q28 0 55 -22q26 -26 26 -63t-26 -62q-28 -20 -55 -21q-27 1 -55 21zM153.5 48.5 q-84.5 69.5 -84.5 191.5q0 313 602 378v112q0 151 -49 206.5t-173 55.5q-55 0 -112.5 -20t-96.5 -42.5t-51 -28.5l-16 87q10 8 53.5 32t111 45t135.5 21q183 0 268.5 -76.5t85.5 -270.5v-522q0 -85 15.5 -114.5t39.5 -29.5q19 0 47 7t36 12l6 -73q-16 -7 -72 -23.5 t-94 -16.5q-55 0 -84.5 35t-37.5 124h-2q0 -8 -33.5 -48.5t-101 -75.5t-166.5 -35q-142 0 -226.5 69.5zM558 106.5q56 33.5 84.5 74.5t28.5 47v311q-194 -21 -318.5 -83t-124.5 -196q0 -92 53.5 -139.5t144.5 -47.5q76 0 132 33.5z" />
<glyph unicode="&#xe5;" horiz-adv-x="1015" d="M359 1224.5q-52 51.5 -52 147.5q0 93 53 146t136 53q81 0 135 -53t54 -146q0 -96 -52 -147.5t-137 -51.5t-137 51.5zM588.5 1264q35.5 35 35.5 108t-35.5 107.5t-92.5 34.5t-93.5 -36.5t-36.5 -105.5q0 -73 36.5 -108t93.5 -35t92.5 35zM153.5 48.5 q-84.5 69.5 -84.5 191.5q0 313 602 378v112q0 151 -49 206.5t-173 55.5q-55 0 -112.5 -20t-96.5 -42.5t-51 -28.5l-16 87q10 8 53.5 32t111 45t135.5 21q183 0 268.5 -76.5t85.5 -270.5v-522q0 -85 15.5 -114.5t39.5 -29.5q19 0 47 7t36 12l6 -73q-16 -7 -72 -23.5 t-94 -16.5q-55 0 -84.5 35t-37.5 124h-2q0 -8 -33.5 -48.5t-101 -75.5t-166.5 -35q-142 0 -226.5 69.5zM558 106.5q56 33.5 84.5 74.5t28.5 47v311q-194 -21 -318.5 -83t-124.5 -196q0 -92 53.5 -139.5t144.5 -47.5q76 0 132 33.5z" />
<glyph unicode="&#xe6;" horiz-adv-x="1547" d="M154.5 49.5q-85.5 70.5 -85.5 192.5q0 320 593 378v85q0 108 -17 170t-59.5 89.5t-121.5 27.5q-55 0 -112.5 -20t-96 -42.5t-48.5 -28.5l-20 87q11 8 54.5 32t110.5 45t138 21q117 0 182 -41t90 -133q55 85 141.5 129.5t195.5 44.5q183 0 282 -126.5t99 -358.5 q0 -40 -4 -66t-6 -33h-645q0 -430 311 -429q85 0 145.5 30.5t94.5 66t34 41.5l62 -51q0 -8 -41 -54.5t-119.5 -86.5t-193.5 -40q-151 0 -257.5 65.5t-155.5 200.5q-34 -113 -110.5 -189.5t-214.5 -76.5q-140 0 -225.5 70.5zM1335 592l2 40q0 362 -238 362q-126 0 -194 -98.5 t-78 -303.5h508zM603.5 182.5q52.5 109.5 63.5 241.5q-5 55 -5 88v31q-191 -21 -312.5 -84t-121.5 -197q0 -91 54.5 -140t143.5 -49q125 0 177.5 109.5z" />
<glyph unicode="&#xe7;" horiz-adv-x="900" d="M416 -514.5q-44 20.5 -66 43t-22 26.5l38 43q4 -7 20 -23t48.5 -31t74.5 -15q140 0 141 145q0 64 -46 88.5t-89.5 32t-43.5 9.5l23 177q-201 13 -308 148t-107 393q0 273 118 418.5t346 145.5q75 0 141 -20t111.5 -45t45.5 -27l-18 -87q-9 6 -46.5 27t-96 39.5 t-119.5 18.5q-165 0 -242 -108.5t-77 -359.5q0 -242 81.5 -346.5t227.5 -104.5q83 0 142 29.5t90.5 62.5t31.5 40l69 -45q0 -8 -37.5 -52.5t-109.5 -84.5t-184 -44l-12 -126q0 -2 54.5 -16t102.5 -54.5t48 -112.5q0 -95 -57 -150t-165 -55q-64 0 -108 20.5z" />
<glyph unicode="&#xe8;" horiz-adv-x="964" d="M500 1221l-223 287l132 34l177 -304zM200 112q-121 133 -121 400q0 268 117 421t320 153q183 0 281.5 -126.5t98.5 -358.5q0 -40 -4 -66t-6 -33h-646q0 -430 311 -429q85 0 146 30.5t95.5 66t34.5 41.5l61 -51q0 -8 -40.5 -54.5t-119 -86.5t-193.5 -40q-214 0 -335 133z M752 592l2 40q0 362 -238 362q-126 0 -194 -98.5t-80 -303.5h510z" />
<glyph unicode="&#xe9;" horiz-adv-x="964" d="M528 1216l-81 11l165 309l134 -32zM200 112q-121 133 -121 400q0 268 117 421t320 153q183 0 281.5 -126.5t98.5 -358.5q0 -40 -4 -66t-6 -33h-646q0 -430 311 -429q85 0 146 30.5t95.5 66t34.5 41.5l61 -51q0 -8 -40.5 -54.5t-119 -86.5t-193.5 -40q-214 0 -335 133z M752 592l2 40q0 362 -238 362q-126 0 -194 -98.5t-80 -303.5h510z" />
<glyph unicode="&#xea;" horiz-adv-x="964" d="M281 1272l-41 68l235 243h83l230 -243l-38 -68l-234 206zM200 112q-121 133 -121 400q0 268 117 421t320 153q183 0 281.5 -126.5t98.5 -358.5q0 -40 -4 -66t-6 -33h-646q0 -430 311 -429q85 0 146 30.5t95.5 66t34.5 41.5l61 -51q0 -8 -40.5 -54.5t-119 -86.5 t-193.5 -40q-214 0 -335 133zM752 592l2 40q0 362 -238 362q-126 0 -194 -98.5t-80 -303.5h510z" />
<glyph unicode="&#xeb;" horiz-adv-x="964" d="M294 1310q-24 24 -24 62q0 40 24 63q28 21 55 22q31 0 58 -22q24 -28 24 -63t-24 -62q-28 -20 -58 -21q-27 1 -55 21zM622 1310q-24 24 -24 62q0 40 24 63q28 21 55 22q28 0 56 -22q26 -26 25 -63q0 -37 -25 -62q-28 -20 -56 -21q-27 1 -55 21zM200 112 q-121 133 -121 400q0 268 117 421t320 153q183 0 281.5 -126.5t98.5 -358.5q0 -40 -4 -66t-6 -33h-646q0 -430 311 -429q85 0 146 30.5t95.5 66t34.5 41.5l61 -51q0 -8 -40.5 -54.5t-119 -86.5t-193.5 -40q-214 0 -335 133zM752 592l2 40q0 362 -238 362q-126 0 -194 -98.5 t-80 -303.5h510z" />
<glyph unicode="&#xec;" horiz-adv-x="472" d="M217 1221l-223 287l132 34l177 -304zM158 0v1065h155v-1065h-155z" />
<glyph unicode="&#xed;" horiz-adv-x="472" d="M245 1216l-81 11l164 309l134 -32zM158 0v1065h155v-1065h-155z" />
<glyph unicode="&#xee;" horiz-adv-x="472" d="M2 1272l-40 68l234 243h83l230 -243l-38 -68l-235 206zM158 0v1065h155v-1065h-155z" />
<glyph unicode="&#xef;" horiz-adv-x="472" d="M15 1310q-24 24 -23 62q0 40 23 63q28 21 58 22q28 0 55 -22q24 -28 23 -63q0 -35 -23 -62q-28 -20 -55 -21q-30 1 -58 21zM343 1310q-24 24 -24 62q0 40 24 63q28 21 55 22q28 0 55 -22q26 -26 26 -63t-26 -62q-28 -20 -55 -21q-27 1 -55 21zM158 0v1065h155v-1065h-155 z" />
<glyph unicode="&#xf0;" horiz-adv-x="1081" d="M199 124.5q-118 145.5 -118 407.5q0 263 113 408.5t324 145.5q87 0 164.5 -36t137.5 -105q-49 271 -194 439l-230 -132l-26 55l213 122q-53 53 -123 100l81 48q71 -39 134 -97l177 103l26 -56l-158 -90q268 -285 268 -879q0 -280 -116 -429.5t-340 -149.5 q-215 0 -333 145.5zM752 186q71 115 71 346q0 220 -72 341t-219 121q-148 0 -219 -115t-71 -347q0 -231 71 -346t219 -115q149 0 220 115z" />
<glyph unicode="&#xf1;" horiz-adv-x="1089" d="M604 1281.5q-39 13.5 -88 37.5q-51 24 -86.5 35.5t-71.5 11.5q-37 0 -65.5 -18.5t-43.5 -38.5t-19 -27l-49 53q0 5 25.5 40t71 65t108.5 30q47 0 85 -12.5t94 -41.5q47 -23 78.5 -33.5t65.5 -10.5q35 0 59 12.5t35.5 26.5t13.5 18l50 -53q0 -4 -21 -31.5t-60.5 -52 t-100.5 -24.5q-42 0 -81 13.5zM160 1065h127l20 -102q34 41 106.5 82t208.5 41q153 0 238 -86t85 -256v-744h-155v711q0 137 -55.5 199.5t-163.5 62.5q-77 0 -134 -23t-90.5 -50.5t-33.5 -32.5v-867h-153v1065z" />
<glyph unicode="&#xf2;" horiz-adv-x="1067" d="M504 1221l-223 287l132 34l177 -304zM195 123.5q-116 144.5 -116 408.5q0 265 116 409.5t337 144.5q222 0 338 -144.5t116 -409.5q0 -262 -118 -407.5t-336 -145.5q-221 0 -337 144.5zM752 187q71 114 71 345q0 230 -71 345t-220 115q-148 0 -219 -114t-71 -346 q0 -231 71 -345t219 -114q149 0 220 114z" />
<glyph unicode="&#xf3;" horiz-adv-x="1067" d="M532 1216l-81 11l165 309l134 -32zM195 123.5q-116 144.5 -116 408.5q0 265 116 409.5t337 144.5q222 0 338 -144.5t116 -409.5q0 -262 -118 -407.5t-336 -145.5q-221 0 -337 144.5zM752 187q71 114 71 345q0 230 -71 345t-220 115q-148 0 -219 -114t-71 -346 q0 -231 71 -345t219 -114q149 0 220 114z" />
<glyph unicode="&#xf4;" horiz-adv-x="1067" d="M285 1272l-40 68l234 243h84l229 -243l-38 -68l-234 206zM195 123.5q-116 144.5 -116 408.5q0 265 116 409.5t337 144.5q222 0 338 -144.5t116 -409.5q0 -262 -118 -407.5t-336 -145.5q-221 0 -337 144.5zM752 187q71 114 71 345q0 230 -71 345t-220 115 q-148 0 -219 -114t-71 -346q0 -231 71 -345t219 -114q149 0 220 114z" />
<glyph unicode="&#xf5;" horiz-adv-x="1067" d="M608.5 1281.5q-39.5 13.5 -88.5 37.5q-51 24 -86.5 35.5t-71.5 11.5t-65 -18.5t-44 -38.5t-19 -27l-49 53q0 5 25.5 40t71.5 65t108 30q47 0 85.5 -12.5t93.5 -41.5q47 -23 78.5 -33.5t65.5 -10.5q35 0 59.5 12.5t36 26.5t14.5 18l49 -53q0 -4 -21.5 -31.5t-61 -52 t-98.5 -24.5q-43 0 -82.5 13.5zM195 123.5q-116 144.5 -116 408.5q0 265 116 409.5t337 144.5q222 0 338 -144.5t116 -409.5q0 -262 -118 -407.5t-336 -145.5q-221 0 -337 144.5zM752 187q71 114 71 345q0 230 -71 345t-220 115q-148 0 -219 -114t-71 -346q0 -231 71 -345 t219 -114q149 0 220 114z" />
<glyph unicode="&#xf6;" horiz-adv-x="1067" d="M298 1310q-23 24 -23 62q0 40 23 63q29 21 56 22q30 0 57 -22q24 -28 24 -63t-24 -62q-28 -20 -57 -21q-27 1 -56 21zM626 1310q-24 24 -23 62q0 40 23 63q28 21 55 22q28 0 56 -22q26 -26 25 -63q0 -37 -25 -62q-28 -20 -56 -21q-27 1 -55 21zM195 123.5 q-116 144.5 -116 408.5q0 265 116 409.5t337 144.5q222 0 338 -144.5t116 -409.5q0 -262 -118 -407.5t-336 -145.5q-221 0 -337 144.5zM752 187q71 114 71 345q0 230 -71 345t-220 115q-148 0 -219 -114t-71 -346q0 -231 71 -345t219 -114q149 0 220 114z" />
<glyph unicode="&#xf7;" horiz-adv-x="998" d="M435 867q-30 28 -30 72q0 45 30 73q30 26 65 25q39 0 69 -25q28 -28 27 -73q0 -45 -27 -72q-28 -26 -69 -26q-37 0 -65 26zM73 490v100h856v-100h-856zM431 69q-31 28 -31 71q0 45 31 73q30 26 65 25q41 0 69 -25q28 -28 27 -73q0 -44 -27 -71q-28 -26 -69 -26 q-35 0 -65 26z" />
<glyph unicode="&#xf8;" horiz-adv-x="1085" d="M162 -368l151 396q-115 59 -174.5 188t-59.5 316q0 265 116 409.5t337 144.5q98 0 177 -29l128 327l79 -12l-136 -352q102 -63 154 -188t52 -300q0 -262 -118 -407.5t-336 -145.5q-79 0 -146 19l-148 -380zM671 957q-59 36 -139 35q-148 0 -219 -114t-71 -346 q0 -296 112 -398zM752 187q71 114 71 345q0 260 -88 369l-313 -809q49 -19 110 -19q149 0 220 114z" />
<glyph unicode="&#xf9;" horiz-adv-x="1089" d="M522 1221l-224 287l133 34l176 -304zM230 65q-85 86 -85 256v744h156v-711q0 -262 221 -262q77 0 132 24t88 52t33 33v864h156v-1065h-130l-21 102q-28 -39 -102.5 -81t-206.5 -42q-156 0 -241 86z" />
<glyph unicode="&#xfa;" horiz-adv-x="1089" d="M549 1216l-80 11l163 309l134 -32zM230 65q-85 86 -85 256v744h156v-711q0 -262 221 -262q77 0 132 24t88 52t33 33v864h156v-1065h-130l-21 102q-28 -39 -102.5 -81t-206.5 -42q-156 0 -241 86z" />
<glyph unicode="&#xfb;" horiz-adv-x="1089" d="M305 1272l-41 68l234 243h83l230 -243l-38 -68l-234 206zM230 65q-85 86 -85 256v744h156v-711q0 -262 221 -262q77 0 132 24t88 52t33 33v864h156v-1065h-130l-21 102q-28 -39 -102.5 -81t-206.5 -42q-156 0 -241 86z" />
<glyph unicode="&#xfc;" horiz-adv-x="1089" d="M317 1310q-24 24 -23 62q0 40 23 63q28 21 57 22q28 0 57 -22q23 -28 22 -63q0 -35 -22 -62q-29 -20 -57 -21q-29 1 -57 21zM646 1310q-24 24 -24 62q0 40 24 63q28 21 55 22q28 0 55 -22q26 -26 26 -63t-26 -62q-28 -20 -55 -21q-27 1 -55 21zM230 65q-85 86 -85 256 v744h156v-711q0 -262 221 -262q77 0 132 24t88 52t33 33v864h156v-1065h-130l-21 102q-28 -39 -102.5 -81t-206.5 -42q-156 0 -241 86z" />
<glyph unicode="&#xfd;" horiz-adv-x="955" d="M516 1216l-81 11l163 309l135 -32zM96.5 -547q-27.5 6 -43 12.5t-19.5 8.5l17 98q6 -5 31.5 -12t55.5 -7q98 0 164 105.5t147 329.5l-417 1077h183l315 -890l285 890h114l-368 -1082q-92 -262 -180.5 -399t-218.5 -137q-38 0 -65.5 6z" />
<glyph unicode="&#xfe;" horiz-adv-x="1094" d="M156 1065h2v528l155 9v-659h2q0 7 30.5 44t93.5 69.5t159 32.5q189 0 304.5 -140t115.5 -386q0 -269 -113 -428t-326 -159q-97 0 -164.5 29t-103.5 64v-601l-155 -5v1602zM778.5 199q75.5 120 75.5 359q0 222 -76.5 325t-224.5 103q-106 0 -163.5 -55t-76.5 -98v-658 q15 -28 72.5 -62t153.5 -34q164 0 239.5 120z" />
<glyph unicode="&#xff;" horiz-adv-x="955" d="M281 1310q-24 24 -23 62q0 40 23 63q28 21 56 22q30 0 57 -22q24 -28 23 -63q0 -35 -23 -62q-28 -20 -57 -21q-28 1 -56 21zM609 1310q-23 24 -23 62q0 40 23 63q29 21 56 22q28 0 55 -22q26 -26 26 -63t-26 -62q-28 -20 -55 -21q-27 1 -56 21zM96.5 -547 q-27.5 6 -43 12.5t-19.5 8.5l17 98q6 -5 31.5 -12t55.5 -7q98 0 164 105.5t147 329.5l-417 1077h183l315 -890l285 890h114l-368 -1082q-92 -262 -180.5 -399t-218.5 -137q-38 0 -65.5 6z" />
<glyph unicode="&#x152;" horiz-adv-x="2002" d="M375.5 64q-133.5 85 -203.5 246t-70 381q0 219 70 379.5t203.5 247t319.5 86.5q270 0 427 -181v161h748v-102h-586v-467q5 -42 5 -65h530v-98h-528l-7 -89v-461h633v-102h-795v158q-160 -179 -427 -179q-186 0 -319.5 85zM1008.5 236.5q109.5 155.5 109.5 454.5 q0 296 -109.5 453t-313.5 157q-203 0 -311.5 -157.5t-108.5 -452.5q0 -299 107.5 -454.5t312.5 -155.5q204 0 313.5 155.5z" />
<glyph unicode="&#x153;" horiz-adv-x="1709" d="M195 123.5q-116 144.5 -116 408.5q0 265 116 409.5t337 144.5q130 0 225 -52t150 -150q55 98 146 150t207 52q184 0 283 -126.5t99 -358.5q0 -40 -4 -66t-6 -33h-646q0 -430 311 -429q85 0 146 30.5t94.5 66t33.5 41.5l63 -51q0 -8 -40.5 -54.5t-119.5 -86.5t-194 -40 q-128 0 -224.5 48t-154.5 146q-58 -96 -151.5 -145t-217.5 -49q-221 0 -337 144.5zM1498 592l2 40q0 362 -240 362q-125 0 -193 -98.5t-79 -303.5h510zM752 187q71 114 71 345q0 230 -71 345t-220 115q-148 0 -219 -114t-71 -346q0 -231 71 -345t219 -114q149 0 220 114z " />
<glyph unicode="&#x178;" horiz-adv-x="1079" d="M343 1597q-24 24 -24 62q0 40 24 64q28 21 57 21q28 0 56 -21q23 -28 23 -64q0 -35 -23 -62q-29 -20 -56 -20q-29 0 -57 20zM671 1597q-24 24 -23 62q0 40 23 64q28 21 55 21q28 0 56 -21q26 -26 25 -64q0 -37 -25 -62q-28 -20 -56 -20q-27 0 -55 20zM462 0v573l-458 811 h181l382 -681l378 681h130l-451 -801v-583h-162z" />
<glyph unicode="&#x2c6;" horiz-adv-x="715" d="M122 1272l-41 68l234 243h83l230 -243l-38 -68l-234 206z" />
<glyph unicode="&#x2dc;" horiz-adv-x="843" d="M503.5 1281.5q-39.5 13.5 -88.5 37.5q-51 24 -86 35.5t-71 11.5t-65 -18.5t-44 -38.5t-19 -27l-49 53q0 5 25.5 40t71.5 65t107 30q47 0 85.5 -12.5t93.5 -41.5q47 -23 79 -33.5t66 -10.5q35 0 59.5 12.5t36 26.5t13.5 18l48 -53q0 -4 -21 -31.5t-60 -52t-99 -24.5 q-43 0 -82.5 13.5z" />
<glyph unicode="&#x2000;" horiz-adv-x="935" />
<glyph unicode="&#x2001;" horiz-adv-x="1870" />
<glyph unicode="&#x2002;" horiz-adv-x="935" />
<glyph unicode="&#x2003;" horiz-adv-x="1870" />
<glyph unicode="&#x2004;" horiz-adv-x="623" />
<glyph unicode="&#x2005;" horiz-adv-x="467" />
<glyph unicode="&#x2006;" horiz-adv-x="311" />
<glyph unicode="&#x2007;" horiz-adv-x="311" />
<glyph unicode="&#x2008;" horiz-adv-x="233" />
<glyph unicode="&#x2009;" horiz-adv-x="374" />
<glyph unicode="&#x200a;" horiz-adv-x="103" />
<glyph unicode="&#x2010;" horiz-adv-x="632" d="M73 541v100h488v-100h-488z" />
<glyph unicode="&#x2011;" horiz-adv-x="632" d="M73 541v100h488v-100h-488z" />
<glyph unicode="&#x2012;" horiz-adv-x="632" d="M73 541v100h488v-100h-488z" />
<glyph unicode="&#x2013;" horiz-adv-x="1000" d="M73 541v100h856v-100h-856z" />
<glyph unicode="&#x2014;" horiz-adv-x="1326" d="M73 541v100h1183v-100h-1183z" />
<glyph unicode="&#x2018;" horiz-adv-x="299" d="M83 1080l-8 9q-28 36 -28 106q0 102 54.5 226.5t134.5 190.5l45 -47q-66 -59 -106.5 -152.5t-40.5 -174.5v-11h8q33 0 59 -20q24 -28 23 -63q0 -36 -23 -64q-28 -24 -61 -23q-33 -1 -57 23z" />
<glyph unicode="&#x2019;" horiz-adv-x="299" d="M2 1097q66 59 106.5 153t40.5 173v10h-9q-34 0 -55 22q-26 26 -26 63q0 39 26 65q21 21 57 21q37 0 61 -21q2 -2 14 -22q19 -38 19 -96q0 -102 -53 -225.5t-134 -191.5z" />
<glyph unicode="&#x201a;" horiz-adv-x="299" d="M2 -298q66 61 106.5 154t40.5 172v10h-9q-34 0 -55 21q-26 26 -26 65q0 38 26 63q21 21 57 22q37 0 61 -22q2 -2 14 -21q19 -38 19 -95q0 -102 -53 -226t-134 -192z" />
<glyph unicode="&#x201c;" horiz-adv-x="616" d="M83 1080l-8 9q-28 36 -28 106q0 102 54.5 226.5t134.5 190.5l45 -47q-66 -59 -106.5 -152.5t-40.5 -174.5v-11h8q33 0 59 -20q24 -28 23 -63q0 -36 -23 -64q-28 -24 -61 -23q-33 -1 -57 23zM398 1080l-8 9q-28 36 -28 106q0 102 54.5 226.5t134.5 190.5l45 -47 q-66 -59 -106.5 -152.5t-40.5 -174.5v-11h9q32 0 58 -20q24 -28 23 -63q0 -36 -23 -64q-28 -24 -60 -23q-34 -1 -58 23z" />
<glyph unicode="&#x201d;" horiz-adv-x="616" d="M2 1097q66 59 106.5 153t40.5 173v10h-9q-34 0 -55 22q-26 26 -26 63q0 39 26 65q21 21 57 21q37 0 61 -21q2 -2 14 -22q19 -38 19 -96q0 -102 -53 -225.5t-134 -191.5zM317 1097q66 59 106.5 153t40.5 173v10h-8q-35 0 -56 22q-26 26 -26 63q0 39 26 65q21 21 58 21 q36 0 60 -21q2 -2 14 -22q19 -38 19 -96q0 -102 -53 -225.5t-134 -191.5z" />
<glyph unicode="&#x201e;" horiz-adv-x="616" d="M2 -298q66 61 106.5 154t40.5 172v10h-9q-34 0 -55 21q-26 26 -26 65q0 38 26 63q21 21 57 22q37 0 61 -22q2 -2 14 -21q19 -38 19 -95q0 -102 -53 -226t-134 -192zM317 -298q66 61 106.5 154t40.5 172v10h-8q-35 0 -56 21q-26 26 -26 65q0 38 26 63q21 21 58 22 q36 0 60 -22q2 -2 14 -21q19 -38 19 -95q0 -102 -53 -226t-134 -192z" />
<glyph unicode="&#x2022;" horiz-adv-x="638" d="M193 561q-48 46 -48 122q0 79 48 126q49 43 116 43q65 0 115 -43q49 -49 49 -126q0 -75 -49 -122q-44 -43 -115 -43t-116 43z" />
<glyph unicode="&#x2026;" horiz-adv-x="1411" d="M189 6q-30 28 -29 73q0 45 29 72q30 26 67 26q40 0 67 -26q29 -28 29 -72q0 -45 -29 -73q-30 -26 -67 -25q-37 -1 -67 25zM636 6q-30 28 -29 73q0 45 29 72q31 26 67 26q41 0 68 -26q28 -28 28 -72q0 -45 -28 -73q-28 -26 -68 -25q-36 -1 -67 25zM1084 6q-30 28 -29 73 q0 45 29 72q30 26 66 26q39 0 68 -26q28 -28 28 -72q0 -45 -28 -73q-28 -26 -68 -25q-36 -1 -66 25z" />
<glyph unicode="&#x202f;" horiz-adv-x="374" />
<glyph unicode="&#x2039;" horiz-adv-x="687" d="M504 158l-327 374l329 364l47 -55l-230 -311l230 -315z" />
<glyph unicode="&#x203a;" horiz-adv-x="687" d="M179 158l-49 55l230 309l-228 317l49 57l325 -376z" />
<glyph unicode="&#x205f;" horiz-adv-x="467" />
<glyph unicode="&#x20ac;" horiz-adv-x="1213" d="M228 482l-130 6v85h121q-4 69 -4 108q0 62 2 92l-119 7v82h126q65 539 530 540q96 0 177 -25t134 -52.5t53 -31.5l-19 -96q0 2 -51.5 29.5t-123.5 51t-153 23.5q-181 0 -270.5 -104t-110.5 -335h524v-93h-528q-2 -29 -2 -88q0 -75 2 -108h528v-94h-520 q26 -215 119.5 -309.5t270.5 -94.5q102 0 178.5 38t122 82.5t45.5 52.5l35 -71q0 -9 -50 -60t-141.5 -94.5t-219.5 -43.5q-456 0 -526 503z" />
<glyph unicode="&#x2122;" horiz-adv-x="1599" d="M356 852v668h-232v77h232v-2h95v2h271v-77h-271v-668h-95zM769 852l38 745h100l215 -654l241 654h94l21 -745h-92l-18 577l-214 -577h-85l-211 599l-17 -599h-72z" />
<glyph unicode="&#x25fc;" horiz-adv-x="1064" d="M0 1065h1065v-1065h-1065v1065z" />
</font>
</defs>
</svg>
