<?xml version="1.0" standalone="no"?>
<!DOCTYPE svg PUBLIC "-//W3C//DTD SVG 1.1//EN" "http://www.w3.org/Graphics/SVG/1.1/DTD/svg11.dtd" >
<svg xmlns="http://www.w3.org/2000/svg" xmlns:xlink="http://www.w3.org/1999/xlink" version="1.1">
<metadata></metadata>
<defs>
<font id="edu_nsw_act_foundationregular" horiz-adv-x="708" vert-adv-y="2048" >
<font-face units-per-em="2048" ascent="1638" descent="-410" />
<missing-glyph horiz-adv-x="569" />
<glyph horiz-adv-x="0" vert-adv-y="0" />
<glyph horiz-adv-x="682" />
<glyph unicode=" " horiz-adv-x="569" vert-adv-y="0" />
<glyph unicode="!" horiz-adv-x="542" vert-adv-y="0" d="M82 74q-2 35 21.5 63.5t62.5 28.5q41 0 71.5 -28.5t32.5 -63.5q4 -37 -23.5 -67t-66.5 -30t-66.5 31t-31.5 66zM160 492l112 1038q4 27 27 39t47 12q23 0 38 -12.5t13 -38.5l-112 -1038q-2 -35 -23.5 -51.5t-44.5 -14.5t-41 18.5t-16 47.5z" />
<glyph unicode="&#x22;" vert-adv-y="0" d="M205 1284l24 234q4 33 25.5 48t42.5 15q23 0 42 -18.5t15 -53.5l-26 -233q-2 -29 -22.5 -44t-43.5 -15t-42 17t-15 50zM467 1284l27 244q4 27 23.5 40t39.5 13q27 0 45.5 -18.5t15.5 -53.5l-22 -229q-2 -35 -23.5 -49t-44.5 -14q-27 0 -45 17t-16 50z" />
<glyph unicode="#" horiz-adv-x="1773" vert-adv-y="0" d="M115 414q-2 20 13 36.5t48 16.5h1325q33 0 48.5 -16.5t17.5 -36.5t-12.5 -38t-45.5 -18h-1327q-31 0 -48 18t-19 38zM176 987q-2 20 12.5 38.5t47.5 18.5h1325q33 0 50 -18t19 -39q0 -20 -15.5 -36.5t-47.5 -16.5h-1323q-33 0 -50.5 16.5t-17.5 36.5zM430 68l135 1253 q4 31 23.5 46t44.5 15q23 0 41 -16t14 -45l-133 -1253q-6 -35 -27.5 -52.5t-46.5 -15.5q-20 0 -36.5 17.5t-14.5 50.5zM1053 68l135 1253q4 31 25.5 46t43.5 15q23 -2 40.5 -17t13.5 -44l-133 -1253q-2 -33 -23.5 -50.5t-44.5 -17.5q-25 -2 -42 16.5t-15 51.5z" />
<glyph unicode="$" horiz-adv-x="1200" vert-adv-y="0" d="M43 59q-2 23 16.5 42.5t46.5 19.5h252q115 0 209.5 13t165 42t108.5 75t38 111q0 72 -41 121t-115 89t-170 83q-102 47 -194.5 97.5t-149.5 116t-57 153.5q0 109 68.5 189.5t192.5 126.5t287 46h336q35 0 52.5 -18t19.5 -41t-11.5 -42t-39.5 -19h-348q-139 0 -237.5 -33 t-150 -85t-51.5 -112q0 -49 49.5 -98t126 -93t162.5 -83q111 -49 199 -99.5t140 -118t52 -169.5q0 -88 -31.5 -151.5t-89 -106.5t-136 -67.5t-175 -36t-202.5 -11.5h-250q-35 0 -51.5 18.5t-20.5 40.5zM451 -125l174 1638q4 35 22.5 51.5t38.5 16.5q23 0 38 -19.5t11 -58.5 l-176 -1634q-2 -31 -20.5 -47.5t-38.5 -16.5t-37 18.5t-12 51.5z" />
<glyph unicode="%" horiz-adv-x="1216" vert-adv-y="0" d="M102 940q0 94 27 172t49 121q31 53 84 96t129 43q92 0 139.5 -42t47.5 -122q0 -63 -31 -140t-82 -145.5t-114.5 -112.5t-129.5 -44q-37 0 -63.5 16.5t-41 55.5t-14.5 102zM166 76l698 1231q29 55 70 55q18 0 34.5 -10.5t23.5 -28.5t-7 -43l-698 -1231q-27 -49 -68 -49 q-29 0 -50.5 21.5t-2.5 54.5zM209 958q0 -37 4 -61.5t29 -24.5q31 0 69.5 34t74.5 85t58.5 105.5t22.5 93.5q0 41 -18.5 57.5t-63.5 16.5q-35 0 -58.5 -16.5t-45.5 -57.5q-29 -59 -50.5 -117.5t-21.5 -114.5zM647 164q0 94 27.5 172t48.5 121q31 53 84 96t129 43 q92 0 139 -42t47 -122q0 -63 -30.5 -140t-82 -145.5t-114.5 -112.5t-129 -44q-35 0 -62.5 16.5t-42 55t-14.5 102.5zM754 182q0 -37 3.5 -60.5t28.5 -23.5q31 0 70 34t75 85t58.5 104.5t22.5 92.5q0 41 -17.5 57t-62.5 16q-35 0 -59.5 -16t-47.5 -57q-29 -59 -50 -117.5 t-21 -114.5z" />
<glyph unicode="&#x26;" horiz-adv-x="1251" vert-adv-y="0" d="M86 375q-4 109 48 208t140 183t191 147l51 31q178 111 274.5 206t92.5 179q-2 51 -43 88t-131 37q-80 0 -142.5 -25.5t-99.5 -67.5t-41 -95q-2 -33 14.5 -78t42 -93t52 -91t43.5 -72l473 -799q25 -39 27.5 -73.5t-25.5 -49.5q-29 -16 -53.5 -1.5t-43.5 44.5l-481 805 q-27 45 -71 113.5t-76.5 146.5t-26.5 148q10 80 63.5 151.5t145.5 116.5t213 43q74 0 138.5 -27.5t106.5 -77t44 -118.5q4 -80 -37 -158t-126 -155.5t-216 -157.5l-111 -66q-78 -47 -148.5 -116.5t-113.5 -151.5t-41 -170q4 -119 79 -192.5t189 -73.5q104 0 183.5 48 t150 141t148.5 224q20 29 47.5 39t54.5 -8q29 -18 26 -48t-22 -56q-96 -164 -184 -266.5t-190.5 -149.5t-243.5 -47q-115 0 -197 57t-126 145.5t-48 182.5z" />
<glyph unicode="'" horiz-adv-x="440" vert-adv-y="0" d="M203 1284l26 244q4 27 22.5 40t41.5 13q25 0 43 -18.5t16 -53.5l-24 -241q-2 -27 -22.5 -39t-43.5 -12q-25 0 -44 17t-15 50z" />
<glyph unicode="(" horiz-adv-x="858" vert-adv-y="0" d="M121 532q10 100 52 226.5t111.5 262.5t164 269t206.5 250q33 33 63 40t46 -9q12 -12 8 -36t-33 -58q-215 -231 -334.5 -471t-146.5 -474q-27 -260 27.5 -548.5t232.5 -618.5q16 -31 17 -54.5t-13 -33.5q-20 -10 -44.5 -2t-41.5 37q-125 221 -200.5 444.5t-103.5 424 t-11 351.5z" />
<glyph unicode=")" horiz-adv-x="819" vert-adv-y="0" d="M5 -631q5 23 26 47q244 256 357.5 516.5t139.5 520.5q23 233 -43.5 504.5t-224.5 568.5q-20 41 -19 66.5t15 33.5q20 10 47 -7t51 -63q86 -150 147.5 -310.5t100.5 -315t53.5 -289.5t3.5 -235q-16 -152 -85.5 -335.5t-187.5 -374t-284 -360.5q-20 -23 -48 -21.5t-44 17.5 q-10 14 -5 37z" />
<glyph unicode="*" horiz-adv-x="735" vert-adv-y="0" d="M201 1232.5q6 22.5 35 43.5l317 203q27 16 48.5 13t31.5 -15q10 -16 5 -39t-34 -41l-317 -205q-29 -16 -49.5 -14t-30.5 16q-12 16 -6 38.5zM226 1440.5q-3 21.5 10 34.5q10 14 29.5 16t43.5 -16l277 -207q25 -18 28.5 -38t-4.5 -34q-12 -14 -34.5 -15t-45.5 15l-274 205 q-27 18 -30 39.5zM352 1155l37 361q4 35 22.5 50t37.5 15q16 0 27 -15.5t7 -49.5l-34 -361q-4 -33 -23 -50t-37 -15q-16 4 -27.5 19t-9.5 46z" />
<glyph unicode="+" horiz-adv-x="901" vert-adv-y="0" d="M68 481q-2 20 14 37t49 17h553q33 0 49.5 -16.5t18.5 -37.5q2 -20 -12.5 -37.5t-49.5 -17.5h-551q-33 0 -51 17.5t-20 37.5zM328 211l57 545q4 29 19.5 43t33.5 14q23 0 40.5 -19.5t15.5 -54.5l-56 -530q-4 -39 -19.5 -54.5t-33.5 -15.5q-23 0 -41 19.5t-16 52.5z" />
<glyph unicode="," horiz-adv-x="399" vert-adv-y="0" d="M39 -172l24 223q4 35 20.5 52.5t47.5 17.5t44 -19.5t9 -58.5l-24 -215q-2 -37 -20.5 -55.5t-49.5 -18.5q-29 0 -41 18.5t-10 55.5z" />
<glyph unicode="-" vert-adv-y="0" d="M68 483q0 23 15 43.5t48 20.5h361q33 0 50 -18.5t17 -39.5q0 -20 -13.5 -41.5t-45.5 -21.5h-361q-31 0 -51 21.5t-20 35.5z" />
<glyph unicode="." horiz-adv-x="399" vert-adv-y="0" d="M35 80q0 39 28.5 64.5t61.5 25.5q35 0 62.5 -25.5t27.5 -64.5q0 -33 -27.5 -63.5t-62.5 -30.5q-33 0 -61.5 30.5t-28.5 63.5z" />
<glyph unicode="/" horiz-adv-x="817" vert-adv-y="0" d="M50 -59.5q-7 16.5 1 39.5l553 1546q10 31 28.5 43t39.5 12q18 0 34.5 -10t23.5 -27.5t-3 -44.5l-551 -1546q-8 -25 -26 -36t-41 -11q-18 0 -35 9t-24 25.5z" />
<glyph unicode="0" horiz-adv-x="1083" vert-adv-y="0" d="M74 432q0 102 16 212t49 216.5t81 200.5t112.5 166.5t144.5 113.5t174 41q96 0 165 -38.5t112 -104t63.5 -144.5t20.5 -159q0 -133 -40 -268.5t-106.5 -256t-150.5 -216t-174 -150.5t-174 -55q-68 0 -122.5 32.5t-92 93t-58 141.5t-20.5 175zM199 414q0 -150 51 -224.5 t108 -74.5t127 46t140.5 128t129 190.5t94.5 231.5t36 252q0 133 -53.5 213.5t-163.5 80.5q-96 0 -172 -56t-132.5 -150.5t-92 -206t-54 -224t-18.5 -206.5z" />
<glyph unicode="1" horiz-adv-x="610" vert-adv-y="0" d="M170 68l135 1253q4 33 23.5 47t44.5 14q23 0 41 -15t14 -46l-135 -1266q-2 -31 -21.5 -43t-42.5 -12q-25 0 -43 17.5t-16 50.5z" />
<glyph unicode="2" horiz-adv-x="915" vert-adv-y="0" d="M-32 49.5q-3 20.5 12 36.5q57 68 128.5 154t145.5 176t139.5 171t113.5 139t64 81q41 51 78 110.5t61.5 117t24.5 104.5q0 31 -12 56.5t-41 41.5q-51 27 -127 27q-86 0 -181 -32t-157 -85q-45 -37 -73.5 -37t-43.5 16q-16 18 -17 43t38 60q78 66 194.5 111.5t231.5 45.5 q49 0 96 -10t86 -33q72 -39 105.5 -94t33.5 -123q0 -76 -46 -171t-136 -210q-25 -33 -73 -90t-108.5 -128.5t-124 -147.5t-119.5 -143.5t-95 -116.5l-111 -119h-30q-23 0 -38.5 14.5t-18.5 35zM25 0l43 121h610q37 0 51 -18.5t16 -41.5t-10 -42t-49 -19h-661z" />
<glyph unicode="3" horiz-adv-x="935" vert-adv-y="0" d="M-6 122q-2 21 8 38q14 18 36.5 25.5t53.5 -15.5q37 -25 78 -40t94 -15q78 0 160 30.5t152.5 87t114.5 131t44 162.5q0 55 -19.5 104.5t-63.5 80t-120 30.5q-68 0 -136 -20.5t-140 -56.5v124l252 70q115 0 191.5 -45t116.5 -121t40 -172q0 -111 -53 -207t-139 -168.5 t-190 -113.5t-204 -41q-70 0 -140.5 29.5t-102.5 56.5q-31 25 -33 46zM110 1189q3 28 29 48q111 82 218.5 113.5t195.5 31.5q72 0 127 -20.5t87 -57t36 -90.5q4 -57 -41 -122.5t-123 -136t-177.5 -144t-205.5 -147.5q-35 -18 -59.5 -9t-36.5 27q-10 18 -8 45t28 41 q74 45 161 106.5t165 127t127 122t49 90.5q0 25 -29.5 40.5t-79.5 15.5q-68 0 -164 -33t-202 -109q-23 -14 -48.5 -9t-39.5 24q-12 18 -9 46z" />
<glyph unicode="4" horiz-adv-x="931" vert-adv-y="0" d="M90 387l103 936q4 35 24.5 47t40.5 12q23 0 41 -17t14 -50l-98 -926l-59 -61q-33 0 -50.5 19.5t-15.5 39.5zM156 328v110h721q29 0 48 -15t19 -38t-15.5 -40t-43.5 -17h-729zM438 76l70 626q4 33 24.5 45.5t45.5 8.5q23 -2 40 -20.5t13 -49.5l-72 -623q-2 -37 -23 -51 t-44 -12t-41.5 20.5t-12.5 55.5z" />
<glyph unicode="5" horiz-adv-x="907" vert-adv-y="0" d="M51 131q0 25 15.5 39t35.5 14q16 0 29.5 -4t26.5 -16q29 -27 68.5 -38t84.5 -11q115 0 203 51t138 137t50 186q0 78 -34.5 133.5t-99 86t-154.5 30.5q-45 0 -96.5 -10t-135.5 -33v115q39 16 101.5 33.5t113.5 17.5q121 0 218.5 -45t154.5 -128t57 -200q0 -96 -37.5 -185 t-106.5 -159.5t-161 -111.5t-203 -41q-72 0 -131 20.5t-100 55.5q-37 35 -37 63zM115 754l61 563q6 66 78 65l43 -63l-66 -565l-49 -58q-18 -4 -34.5 2.5t-25.5 22t-7 33.5zM254 1272v110h534q37 0 52.5 -17t15.5 -40q0 -20 -14.5 -36.5t-50.5 -16.5h-537z" />
<glyph unicode="6" horiz-adv-x="956" vert-adv-y="0" d="M66 274q-6 123 16 246t73.5 244t125.5 237q29 43 73.5 96.5t99 106.5t107.5 96t94 68q29 14 47 14q25 0 40.5 -14t19.5 -35q0 -33 -35 -61q-127 -94 -209 -177t-127 -153q-76 -121 -125 -229.5t-69.5 -215t-12.5 -223.5h-118zM66 274l59 320q37 76 96.5 135t141 94 t186.5 35q145 0 215 -67.5t70 -196.5q0 -96 -39 -200.5t-104.5 -193.5t-149.5 -144.5t-174 -55.5q-82 0 -148.5 38t-106.5 100.5t-46 135.5zM184 328q8 -102 59.5 -154.5t110.5 -52.5q61 0 125 46t117 117.5t85 153.5t32 154t-34 108.5t-124 36.5q-125 0 -210 -61.5 t-126 -155.5t-35 -192z" />
<glyph unicode="7" horiz-adv-x="839" vert-adv-y="0" d="M14 1329q-2 20 13.5 36.5t48.5 16.5h600l8 -110h-602q-33 0 -49.5 17t-18.5 40zM479 63l139 1272q2 20 18.5 33.5t37.5 13.5q37 0 51 -18t12 -41l-137 -1260q-2 -33 -22 -48t-43 -15t-40.5 15.5t-15.5 47.5z" />
<glyph unicode="8" horiz-adv-x="872" vert-adv-y="0" d="M51 324q0 92 23.5 171.5t86 156.5t179.5 163q63 47 129 101.5t122 107.5t90 96t34 68q0 23 -33 38t-85 24.5t-114 9.5q-53 0 -107 -13.5t-91 -48.5t-37 -100q0 -55 25.5 -100.5t61.5 -82t64 -65.5l72 -72q70 -66 132.5 -139.5t102 -144t39.5 -132.5q0 -82 -26.5 -150.5 t-75.5 -118.5t-116.5 -76.5t-147.5 -26.5q-70 0 -129.5 24.5t-104.5 69.5t-69.5 106.5t-24.5 133.5zM125 1090q0 78 31.5 133t85 91t118 52t132.5 16q61 0 121.5 -12t108.5 -35.5t77.5 -60.5t29.5 -86q0 -59 -36.5 -120.5t-98 -122t-133.5 -117t-143 -107.5 q-92 -68 -146.5 -127t-78 -120.5t-23.5 -139.5q0 -55 28.5 -107.5t78 -85t110.5 -32.5q72 0 124 38.5t81 98t29 116.5q0 41 -28 88.5t-69 95.5t-85 91t-77 76l-36 37q-33 33 -80 84t-84 116.5t-37 139.5z" />
<glyph unicode="9" horiz-adv-x="862" vert-adv-y="0" d="M104 762q0 102 20.5 210.5t64.5 202t116 150.5t174 57h254l-12 -122h-242q-68 0 -116 -47.5t-78.5 -121t-45 -154.5t-14.5 -151q0 -51 18.5 -97t69.5 -46q35 0 84 35t99.5 97.5t87.5 145.5t45 177h18l-26 -312q-57 -113 -141.5 -189.5t-166.5 -76.5q-37 0 -73.5 12.5 t-67.5 40t-49.5 74.5t-18.5 115zM518 59l139 1323h76q23 0 34 -15t9 -38l-137 -1270q-2 -29 -21.5 -44t-44.5 -15q-20 0 -38.5 15.5t-16.5 43.5z" />
<glyph unicode=":" horiz-adv-x="401" vert-adv-y="0" d="M35 80q0 39 28.5 64.5t61.5 25.5q35 0 62.5 -25.5t27.5 -64.5q0 -33 -27.5 -63.5t-62.5 -30.5q-33 0 -61.5 30.5t-28.5 63.5zM106 631q0 39 29 64.5t62 25.5q37 0 63.5 -25.5t26.5 -64.5q0 -35 -26.5 -65.5t-63.5 -30.5q-33 0 -62 30.5t-29 65.5z" />
<glyph unicode=";" horiz-adv-x="401" vert-adv-y="0" d="M39 -172l24 223q4 35 20.5 52.5t47.5 17.5t44 -19.5t9 -58.5l-24 -215q-2 -37 -20.5 -55.5t-49.5 -18.5q-29 0 -41 18.5t-10 55.5zM106 631q0 39 29 64.5t62 25.5q37 0 63.5 -25.5t26.5 -64.5q0 -35 -26.5 -65.5t-63.5 -30.5q-33 0 -62 30.5t-29 65.5z" />
<glyph unicode="&#x3c;" horiz-adv-x="827" vert-adv-y="0" d="M67 464.5q-4 18.5 11 39.5q10 18 29.5 24.5t48.5 -12.5l452 -274q29 -18 37 -42t-6 -44q-14 -18 -37.5 -19t-52.5 17l-449 274q-29 18 -33 36.5zM90 520l531 291q33 16 54 5t27 -30q10 -20 3 -41.5t-41 -37.5l-504 -277z" />
<glyph unicode="=" horiz-adv-x="901" vert-adv-y="0" d="M49 293q-2 20 12.5 36.5t47.5 16.5h553q35 0 52 -16.5t19 -36.5q0 -23 -15 -40t-48 -17h-553q-33 0 -50.5 18t-17.5 39zM86 659q-2 20 13.5 37t47.5 17h553q35 0 50.5 -16.5t17.5 -37.5q4 -20 -11 -37.5t-48 -17.5h-553q-33 0 -50.5 17.5t-19.5 37.5z" />
<glyph unicode="&#x3e;" horiz-adv-x="827" vert-adv-y="0" d="M40 210.5q7 20.5 42 39.5l504 276l69 -90l-528 -291q-33 -18 -54.5 -5.5t-31.5 30.5q-8 20 -1 40.5zM102 756.5q-8 23.5 4 44.5q14 18 37 19t54 -17l450 -275q29 -18 32 -36.5t-9 -38.5q-10 -18 -30.5 -24.5t-51.5 11.5l-451 275q-27 18 -35 41.5z" />
<glyph unicode="?" horiz-adv-x="1021" vert-adv-y="0" d="M147 1202q18 174 128 281.5t321 107.5q111 2 201 -51t138 -144t36 -208q-14 -150 -74.5 -268.5t-178.5 -188t-308 -69.5v122q127 0 208.5 39t131 102.5t73 137.5t29.5 143q8 90 -30 148.5t-103.5 87t-147.5 28.5q-102 0 -166.5 -44t-96.5 -111.5t-40 -136.5 q-4 -39 -31.5 -56.5t-54.5 -11.5q-20 4 -29.5 28.5t-5.5 63.5zM254 78q0 41 26.5 71.5t65.5 30.5q41 0 72 -30.5t31 -71.5q0 -37 -31 -64.5t-72 -27.5q-39 0 -65.5 28.5t-26.5 63.5zM326 489l26 246q2 20 19.5 34.5t38.5 14.5l67 -47l-26 -245q-6 -39 -26.5 -54.5 t-45.5 -13.5q-20 4 -37.5 21.5t-15.5 43.5z" />
<glyph unicode="@" horiz-adv-x="1599" vert-adv-y="0" d="M35 301q8 127 39.5 264t95 257t166.5 196q66 49 163 79.5t208.5 45t220.5 14.5q287 0 429 -138t140 -439q-2 -111 -46 -215.5t-110.5 -186.5t-135 -130t-118.5 -48q-66 0 -100.5 47t-40.5 135q-2 37 -1 83t7 89l54 496h71q29 0 40 -13.5t7 -41.5l-51 -473 q-8 -88 -7 -146.5t26 -58.5q31 0 76.5 39t92 109.5t80 161.5t39.5 196q8 137 -47 229t-158.5 138t-244.5 46q-102 0 -202.5 -13t-184.5 -41t-137 -69q-68 -53 -113 -130.5t-72.5 -166t-42 -171.5t-20.5 -146q-12 -143 17.5 -247.5t109.5 -161t215 -56.5q66 0 144.5 19.5 t154.5 76.5q35 25 60.5 31t41.5 -14q23 -27 6.5 -67t-82.5 -85q-57 -39 -134 -60.5t-175 -21.5q-135 0 -230.5 42t-153.5 120t-81.5 186.5t-15.5 239.5zM344 176q-4 70 6 163t34 183t58 148q43 70 101.5 108.5t126 55t135.5 16.5h258l-10 -123h-240q-63 0 -142 -25.5 t-128 -107.5q-27 -47 -46.5 -125t-27.5 -157t-4 -126q2 -29 7 -51t32 -22q23 0 59.5 23.5t89 77.5t119.5 146q70 96 130.5 197.5t119.5 228.5h61q-45 -143 -105 -286.5t-140 -253.5q-45 -63 -99.5 -119.5t-114.5 -91.5t-132 -35q-59 0 -100.5 41t-47.5 135z" />
<glyph unicode="A" horiz-adv-x="1032" vert-adv-y="0" d="M-66 32q-2 7 -2 16q0 21 13 50l639 1426q12 29 27.5 43t45.5 14q35 0 47.5 -16.5t16.5 -42.5l-74 -103l-594 -1360q-12 -29 -33.5 -48t-50.5 -11q-27 8 -35 32zM332 801l45 104h389l20 -104h-454zM629 1425l92 97l221 -1440q4 -33 -6 -55.5t-45 -26.5q-39 -2 -53.5 18.5 t-18.5 49.5z" />
<glyph unicode="B" horiz-adv-x="1177" vert-adv-y="0" d="M76 76l149 1440q4 35 21.5 49t48.5 16l53 -76l-151 -1435l-64 -70q-27 0 -44 22.5t-13 53.5zM133 0l10 113q385 0 588 96t217 252q2 13 2 26q0 89 -74 155q-84 76 -251 108q-100 19 -227 19q-86 0 -183 -9l6 106q90 6 171 6q176 0 308 -30q194 -44 291 -144 q82 -87 83 -213q0 -21 -3 -43q-14 -137 -132 -236.5t-322.5 -152.5t-483.5 -53zM254 780l8 88q215 8 348 37t204 72t99.5 97t34.5 114q1 11 1 21q-1 73 -59 133q-68 70 -218 106q-108 26 -260 26q-62 0 -131 -4l14 111q56 3 108 2q318 0 491 -94q180 -98 180 -268 q0 -21 -3 -43q-8 -59 -28.5 -114.5t-67.5 -103t-135 -84t-230.5 -61t-355.5 -35.5z" />
<glyph unicode="C" horiz-adv-x="1161" vert-adv-y="0" d="M106 376q-10 67 -10 144q0 138 33 307q41 213 120 383t200.5 269.5t289.5 99.5q96 0 164 -19.5t116 -50t81 -61.5q16 -14 24.5 -39t-14.5 -53q-25 -27 -53.5 -21t-46.5 21q-39 29 -106.5 66.5t-155.5 37.5q-139 0 -237.5 -84t-162 -229.5t-98.5 -333.5q-30 -168 -30 -296 q0 -145 38 -239q72 -176 246 -176q98 0 175 40t131 100.5t85 119.5q20 41 44 59.5t54 2.5q31 -16 30 -44t-26 -75q-37 -76 -109.5 -148.5t-167.5 -119.5t-206 -47q-172 0 -276 99t-132 287z" />
<glyph unicode="D" horiz-adv-x="1189" vert-adv-y="0" d="M76 66l153 1450q4 29 17.5 47t52.5 18l51 -76l-153 -1444l-60 -61q-33 0 -49 19.5t-12 46.5zM137 0l15 113h133q317 0 485 187t209 538q5 48 5 93q0 129 -42 235q-57 144 -182 224t-307 80h-168l14 111h137q229 0 386 -94q157 -93 230 -263q53 -124 53 -279 q0 -57 -7 -118q-29 -258 -127.5 -443t-267 -284.5t-410.5 -99.5h-156z" />
<glyph unicode="E" horiz-adv-x="1116" vert-adv-y="0" d="M76 66l153 1450q4 29 17.5 47t52.5 18l51 -76l-153 -1444l-60 -61q-33 0 -49 19.5t-12 46.5zM137 0l10 113h754q35 0 50.5 -15.5t15.5 -38.5t-15.5 -41t-50.5 -18h-764zM217 795l12 112h699q35 0 51 -16t16 -39q0 -20 -18.5 -38.5t-54.5 -18.5h-705zM285 1470l14 111h758 q35 0 50 -16t15 -39q0 -20 -15 -38t-50 -18h-772z" />
<glyph unicode="F" horiz-adv-x="1060" vert-adv-y="0" d="M76 66l153 1450q4 29 17.5 47t52.5 18l51 -76l-153 -1444q-2 -18 -10.5 -39.5t-49.5 -21.5q-33 0 -49 19.5t-12 46.5zM219 795l14 112h672q37 0 52.5 -16t15.5 -39q0 -20 -15.5 -38.5t-52.5 -18.5h-686zM287 1470l12 111h758q35 0 50 -16t15 -39q0 -20 -15 -38t-50 -18 h-770z" />
<glyph unicode="G" horiz-adv-x="1255" vert-adv-y="0" d="M106 398q-9 70 -9 148q0 131 28 283q27 143 82 277.5t139 242t194.5 170t245.5 62.5q84 0 157 -25.5t128 -65.5t86 -81q18 -25 17.5 -51.5t-23.5 -46.5q-20 -18 -44 -15.5t-44 23.5q-27 29 -69 62.5t-99 58t-127 24.5q-100 0 -187 -54t-155 -146.5t-115 -209t-67 -241.5 q-22 -137 -22 -254q0 -58 6 -111q16 -161 79.5 -253.5t169.5 -92.5q82 0 149.5 51.5t128 143.5t121 219t123.5 279q6 12 10.5 22t11.5 18.5t17.5 12.5t24.5 4v-150q-63 -190 -132 -325t-143.5 -221t-157.5 -126t-175 -40q-143 0 -232.5 108.5t-116.5 299.5zM936 88l74 698 l53 66q31 0 51.5 -17.5t15.5 -48.5l-71 -698q-4 -37 -17 -64q-11 -24 -49 -24h-6q-35 2 -44 25.5t-7 62.5z" />
<glyph unicode="H" horiz-adv-x="1257" vert-adv-y="0" d="M76 66l153 1450q4 29 20.5 47t49.5 18q31 0 43 -20.5t8 -55.5l-153 -1444q-2 -18 -10.5 -39.5t-49.5 -21.5q-33 0 -49 19.5t-12 46.5zM223 795l13 112h800l-12 -112h-801zM893 66l156 1462q2 18 15 35.5t46 17.5q35 0 49.5 -19.5t9.5 -50.5l-155 -1458 q-2 -16 -13.5 -34.5t-46.5 -18.5q-43 0 -53 22.5t-8 43.5z" />
<glyph unicode="I" horiz-adv-x="534" vert-adv-y="0" d="M125 66l151 1450q4 29 19.5 47t52.5 18t46 -20.5t5 -55.5l-153 -1444q-2 -18 -11.5 -39.5t-50.5 -21.5q-33 0 -48 19.5t-11 46.5z" />
<glyph unicode="J" horiz-adv-x="884" vert-adv-y="0" d="M-30 205.5q-2 24.5 18 44.5t44.5 15t45.5 -32q25 -31 54.5 -58.5t67.5 -44.5t89 -17q80 0 137 37.5t93 122.5t50 227l105 1026q4 29 18.5 47t48.5 18q37 0 47.5 -20.5t6.5 -54.5l-105 -1016q-27 -270 -122 -385t-279 -115q-66 0 -121 20.5t-99 56.5t-81 81 q-16 23 -18 47.5z" />
<glyph unicode="K" horiz-adv-x="1095" vert-adv-y="0" d="M78 78l153 1438q4 29 19.5 47t50.5 18t45 -20.5t6 -55.5l-153 -1429q-2 -25 -11.5 -50.5t-48.5 -25.5q-33 0 -48 25.5t-13 52.5zM274 866l140 -4l581 -760q14 -18 18.5 -32.5t0.5 -28.5q-2 -20 -18.5 -30.5t-34.5 -10.5q-23 0 -42.5 14.5t-33.5 32.5l-609 793zM274 877 l773 673q34 31 67 31h8q23 0 37.5 -15.5t14.5 -37.5q-2 -16 -13.5 -32.5t-32.5 -35.5l-712 -622l-140 8z" />
<glyph unicode="L" horiz-adv-x="995" vert-adv-y="0" d="M76 66l153 1450q4 29 18.5 47t51.5 18t46 -20.5t5 -55.5l-153 -1444l-60 -61q-33 0 -49 19.5t-12 46.5zM137 0l10 121h719q33 0 49.5 -15.5t16.5 -42.5q0 -25 -14.5 -44t-49.5 -19h-731z" />
<glyph unicode="M" horiz-adv-x="1871" vert-adv-y="0" d="M76 66l153 1450q6 65 68 65h2l49 -92l-151 -1421q-2 -20 -10.5 -44t-49.5 -24q-33 0 -49 19.5t-12 46.5zM287 1380l12 201q29 0 42 -15.5t24 -47.5l505 -1354l-18 -164q-27 0 -43.5 14.5t-22.5 32.5zM834 152l835 1390q12 20 24.5 29.5t41.5 9.5l-13 -174l-815 -1364 q-10 -16 -20 -29.5t-35 -13.5zM1509 66l138 1318l88 197q33 0 43 -20.5t6 -55.5l-154 -1444q-2 -18 -12 -39.5t-51 -21.5q-33 0 -46.5 22.5t-11.5 43.5z" />
<glyph unicode="N" horiz-adv-x="1421" vert-adv-y="0" d="M76 66l153 1450q4 29 16.5 47t51.5 18l51 -92l-151 -1421q-2 -20 -10.5 -44t-49.5 -24q-33 0 -49 19.5t-12 46.5zM289 1446l8 135q33 0 50.5 -13.5t27.5 -35.5l753 -1368l-4 -164q-25 0 -41 11.5t-26 31.5zM1063 117l149 1399q4 29 18.5 47t51.5 18q35 0 45 -20.5 t6 -55.5l-153 -1444q-2 -29 -12.5 -45t-43.5 -16z" />
<glyph unicode="O" horiz-adv-x="1208" vert-adv-y="0" d="M143 670q0 162 33 323.5t100.5 294.5t173 213t250.5 80q147 0 245.5 -73.5t142.5 -192.5q32 -86 32 -182q0 -36 -4 -74q-14 -137 -52 -285.5t-98.5 -288t-141.5 -252t-181 -178t-217 -65.5q-76 0 -130 55t-88 150.5t-49.5 218.5t-15.5 256zM264 672v-43q0 -91 6 -173 q8 -102 28.5 -181.5t50.5 -126t67 -46.5q96 0 180 62.5t152.5 165t119 226.5t83 249t42.5 229q4 41 4 78q-1 140 -59 236q-74 122 -250 122q-111 0 -189.5 -70.5t-129 -188t-76 -258t-29.5 -281.5z" />
<glyph unicode="P" horiz-adv-x="1058" vert-adv-y="0" d="M76 66l153 1450q4 31 18.5 48t51.5 17l51 -76l-153 -1444q-2 -18 -10.5 -44.5t-49.5 -26.5q-33 0 -49 24.5t-12 51.5zM215 715l8 110q160 0 292 16.5t230.5 55.5t157 103.5t68.5 160.5q1 11 1 22q0 84 -67 151q-77 75 -231 113q-111 27 -258 27q-58 0 -123 -4l6 111 q57 3 110 3q183 0 325 -37q184 -47 279 -149q81 -87 81 -208q0 -20 -2 -41q-10 -100 -58.5 -173t-129.5 -124t-187.5 -81t-233.5 -43t-268 -13z" />
<glyph unicode="Q" horiz-adv-x="1208" vert-adv-y="0" d="M143 670q0 162 33 323.5t100.5 294.5t173 213t250.5 80q111 0 194 -42t136 -115.5t76 -167.5q14 -62 14 -127q0 -35 -4 -70q-14 -137 -54 -285.5t-101.5 -288t-143.5 -252t-180 -178t-211 -65.5q-76 0 -130 55t-88 150.5t-49.5 218.5t-15.5 256zM264 672v-43 q0 -90 6 -173q9 -102 29 -181.5t50 -126t67 -46.5q102 0 188 62.5t153.5 165t116 226.5t79 249t40.5 229q5 42 5 82q0 79 -20 146q-28 98 -99.5 153t-190.5 55q-111 0 -189.5 -70.5t-129 -188t-76 -258t-29.5 -281.5zM445 287.5q-7 27.5 12 48.5q18 23 52 15.5t62 -36.5 l330 -313q25 -25 31 -55.5t-14 -46.5q-18 -18 -49 -12t-56 30l-330 313q-31 29 -38 56.5z" />
<glyph unicode="R" horiz-adv-x="1134" vert-adv-y="0" d="M78 80l151 1436q4 29 17.5 47t52.5 18l51 -76l-151 -1429q-2 -27 -11.5 -51.5t-50.5 -24.5q-33 0 -47 24.5t-12 55.5zM215 739l8 107q199 2 359.5 49t258 126t107.5 173q2 14 2 28q0 78 -58 134q-68 66 -213 98q-97 21 -229 21q-64 0 -135 -5l-16 111q60 3 116 3 q185 0 320 -31q176 -40 262 -132q75 -81 76 -204q0 -17 -2 -35q-8 -96 -75.5 -176t-183.5 -138.5t-267.5 -91.5t-329.5 -37zM233 795l142 18l538 -692q23 -29 28 -49.5t1 -34.5t-19.5 -25.5t-33.5 -11.5q-14 0 -36 11.5t-40 35.5z" />
<glyph unicode="S" horiz-adv-x="1024" vert-adv-y="0" d="M35 253.5q6 25.5 33 33.5t50 -3.5t29 -41.5q16 -57 83 -98.5t182 -41.5q86 0 163.5 33t132 101.5t64.5 175.5q1 15 1 30q1 103 -61 184q-70 93 -233 185q-72 41 -135 88t-110 103q-48 56 -72 118q-19 50 -18 106q0 14 1 29q10 90 67.5 167t163 123t261.5 46 q143 0 226 -59t112 -146q12 -33 7 -58t-30 -34q-25 -8 -47 2.5t-33 34.5q-23 66 -80 107t-149 41q-174 0 -272.5 -64.5t-108.5 -169.5q-1 -10 -1 -19q0 -57 31 -107q36 -58 108.5 -111.5t170.5 -110.5q98 -55 175 -128t117 -165q31 -71 31 -158q0 -26 -3 -53 q-10 -102 -53 -178t-111 -126t-158 -74.5t-196 -24.5q-125 0 -219.5 57t-116.5 152q-8 29 -2 54.5z" />
<glyph unicode="T" horiz-adv-x="897" vert-adv-y="0" d="M43 1522q0 23 12.5 41t48.5 18h814q37 0 51 -18.5t14 -40.5q0 -23 -11 -42.5t-48 -19.5h-811q-37 0 -53.5 19.5t-16.5 42.5zM301 90l152 1428h120l-149 -1436q-4 -29 -18.5 -55.5t-51.5 -26.5q-33 0 -44 26q-9 22 -9 53v11z" />
<glyph unicode="U" horiz-adv-x="1239" vert-adv-y="0" d="M94 444l121 1065q4 29 21.5 50.5t46.5 21.5t44 -23.5t11 -52.5l-121 -1067q-8 -78 -12 -156q-1 -13 0 -25q-1 -61 15 -103q20 -52 77 -52q31 0 86 37t125 107.5t144.5 173t143 232.5t123 285t82.5 333l29 -4l-22 -351q-78 -217 -173.5 -388t-193.5 -290.5t-189 -183 t-163 -63.5q-109 0 -165 108q-38 74 -38 209q0 62 8 137zM872 66l158 1458q2 23 14.5 40t45.5 17q35 0 50 -17.5t11 -45.5l-156 -1465q-2 -27 -20 -41t-41 -14q-25 0 -44.5 17.5t-17.5 50.5z" />
<glyph unicode="V" horiz-adv-x="1091" vert-adv-y="0" d="M152 1518q-4 29 8 46t45 17q41 0 53 -19.5t14 -37.5l170 -1112l39 -322l-39 -90q-33 0 -49 22.5t-20 45.5zM406 94l116 322l441 1106q14 31 31.5 45t52.5 14q29 0 43 -20.5t-3 -57.5l-577 -1442q-10 -27 -21.5 -44t-46.5 -17z" />
<glyph unicode="W" horiz-adv-x="1918" vert-adv-y="0" d="M152 1518q-4 29 8 46t45 17q41 0 53 -19.5t14 -37.5l158 -1063l35 -307l-25 -154q-27 0 -45 19.5t-22 48.5zM440 0v158l103 303l413 1063q8 20 24.5 38.5t45.5 18.5v-145l-68 -232l-448 -1141q-6 -20 -19.5 -41.5t-50.5 -21.5zM1001 1448l25 133q45 0 58.5 -18.5 t15.5 -38.5l157 -1057l29 -309l-20 -158q-31 0 -46.5 19t-19.5 42l-170 1135zM1266 0l6 166l96 291l422 1065q16 35 30.5 47t47.5 12q27 0 45 -19.5t2 -58.5l-580 -1442q-10 -27 -22.5 -44t-46.5 -17z" />
<glyph unicode="X" horiz-adv-x="1064" vert-adv-y="0" d="M-24.5 49q-4.5 23 10.5 43l501 762l17 2l450 694q12 18 29.5 25.5t36 5.5t31.5 -12q16 -12 19 -36t-13 -52l-490 -748h-14l-463 -702q-12 -16 -28.5 -24.5t-33 -5.5t-30.5 13q-18 12 -22.5 35zM136 1549.5q5 21.5 28 29.5q20 10 51 1t45 -44l311 -696l338 -754 q14 -27 5 -47.5t-25 -30.5q-16 -8 -34.5 -7t-35 12.5t-26.5 35.5l-314 701l-334 743q-14 35 -9 56.5z" />
<glyph unicode="Y" horiz-adv-x="1187" vert-adv-y="0" d="M148.5 1545.5q4.5 25.5 35.5 35.5q35 14 56.5 -6.5t29.5 -42.5l379 -825l-80 -121l-413 905q-12 29 -7.5 54.5zM199 49q-2 23 10 43l852 1452q16 29 37.5 35t42.5 -4q29 -14 35 -40t-11 -54l-854 -1452q-10 -18 -27.5 -25.5t-34 -3.5t-30.5 14q-18 12 -20 35z" />
<glyph unicode="Z" horiz-adv-x="1091" vert-adv-y="0" d="M5 51.5q-3 22.5 11 42.5l975 1454l43 33q23 0 39.5 -13.5t21.5 -36t-12 -50.5l-968 -1450l-45 -31q-27 0 -44.5 14.5t-20.5 37zM70 0l43 121h764q35 0 49 -18.5t16 -41.5t-10 -42t-49 -19h-813zM158 1522q-2 23 11 41t50 18h815l-43 -121h-766q-35 0 -50 19.5t-17 42.5z " />
<glyph unicode="[" horiz-adv-x="638" vert-adv-y="0" d="M0 -664l231 2180q4 29 20.5 47t55.5 18t45 -21.5t2 -56.5l-229 -2167q-2 -18 -10.5 -41.5t-48.5 -23.5q-37 0 -52.5 19.5t-13.5 45.5zM59 -729l7 108h337q35 0 50.5 -16t15.5 -37q2 -20 -12.5 -37.5t-44.5 -17.5h-353zM297 1473l4 108h336q35 0 52.5 -17.5t17.5 -37.5 t-15.5 -36.5t-46.5 -16.5h-348z" />
<glyph unicode="\" horiz-adv-x="817" vert-adv-y="0" d="M52 1543.5q7 17.5 23.5 27.5t33.5 10q23 0 41 -12t28 -43l551 -1546q10 -23 3 -39.5t-23.5 -25.5t-36.5 -9t-38 11t-28 36l-553 1546q-8 27 -1 44.5z" />
<glyph unicode="]" horiz-adv-x="638" vert-adv-y="0" d="M-170 -674q0 20 16.5 36.5t47.5 16.5h344l-9 -108h-329q-33 0 -50.5 17.5t-19.5 37.5zM63 1526q-2 20 14.5 37.5t49.5 17.5h342l-6 -108h-330q-33 0 -50 16t-20 37zM182 -631l228 2128q4 35 12 59.5t47 24.5q37 0 52 -18t11 -47l-231 -2180q-2 -29 -16.5 -47t-55.5 -18 q-39 0 -45 24.5t-2 73.5z" />
<glyph unicode="^" horiz-adv-x="999" vert-adv-y="0" d="M154 756.5q0 23.5 22 42.5l324 270q25 23 52.5 19.5t41.5 -19.5l225 -268q18 -20 15 -46t-21 -42q-16 -14 -40.5 -15.5t-45.5 23.5l-238 285l103 -11l-334 -280q-29 -23 -51.5 -18t-38.5 20q-14 16 -14 39.5z" />
<glyph unicode="_" horiz-adv-x="1048" vert-adv-y="0" d="M2 -133q-2 23 12.5 39t48.5 16h703q35 0 52.5 -16.5t19.5 -36.5t-14.5 -37.5t-49.5 -17.5h-704q-31 0 -48.5 16t-19.5 37z" />
<glyph unicode="`" horiz-adv-x="604" vert-adv-y="0" d="M245 1662q3 19 18.5 31.5t33.5 12.5q20 0 41 -10t35 -35l119 -234q25 -51 -9 -67q-14 -8 -36.5 -1t-40.5 34l-146 223q-18 27 -15 46z" />
<glyph unicode="a" horiz-adv-x="813" vert-adv-y="0" d="M25 295q0 82 22.5 178t67.5 182t113.5 141.5t162.5 55.5h225l-12 -123h-205q-66 0 -113.5 -45t-78.5 -112.5t-46.5 -139.5t-15.5 -125q0 -119 20.5 -156.5t70.5 -37.5q37 0 89 42t115.5 136t126.5 254l-22 -271q-66 -117 -148 -200.5t-180 -83.5q-45 0 -90 25.5t-73.5 92 t-28.5 187.5zM489 66l84 786h74q16 0 29.5 -21.5t11.5 -44.5l-78 -710q-2 -25 -10 -50.5t-55 -25.5q-39 0 -48.5 22.5t-7.5 43.5z" />
<glyph unicode="b" horiz-adv-x="806" vert-adv-y="0" d="M23 53l157 1458q4 37 25.5 53.5t44.5 16.5t39 -17.5t12 -52.5l-160 -1511h-75q-20 0 -32.5 16.5t-10.5 36.5zM88 0l12 121h213q66 0 114 45t79 112.5t46 139t15 125.5q0 119 -20.5 156.5t-69.5 37.5q-35 0 -89 -45t-117.5 -144t-129.5 -259l27 270q43 82 94 149.5 t109.5 108.5t124.5 41q47 0 91 -24.5t72.5 -90t28.5 -188.5q0 -82 -22.5 -178t-67.5 -182t-113.5 -140.5t-162.5 -54.5h-234z" />
<glyph unicode="c" horiz-adv-x="696" vert-adv-y="0" d="M25 231q0 102 20.5 211t64.5 202t115.5 150.5t173.5 57.5q49 0 105.5 -8t91.5 -17q27 -6 33 -26.5t-6 -48.5q-14 -31 -40 -35t-48 -2q-23 4 -63 9t-73 5q-68 0 -114.5 -47t-76.5 -121t-44 -154.5t-17 -150.5v-10q1 -46 17 -87q18 -46 69 -46q31 0 73 35.5t87 96t82 130.5 q10 20 37 18t41 -8q12 -8 25.5 -27.5t3.5 -38.5q-43 -86 -100.5 -161.5t-120 -121.5t-128.5 -46q-49 0 -98 22.5t-79.5 75.5t-30.5 143z" />
<glyph unicode="d" horiz-adv-x="827" vert-adv-y="0" d="M25 295q0 82 22.5 178t67.5 182t113.5 141.5t162.5 55.5h234l-13 -123h-213q-66 0 -113.5 -45t-78.5 -112.5t-46.5 -139.5t-15.5 -125q0 -119 20.5 -156.5t70.5 -37.5q37 0 89 42t115.5 138t126.5 254l-22 -266q-43 -78 -94.5 -144.5t-109.5 -106.5t-124 -40 q-45 0 -90 25.5t-73.5 92t-28.5 187.5zM489 66l156 1464q4 29 22.5 40t39.5 11q25 0 44 -17.5t15 -45.5l-156 -1465q-2 -27 -20 -40t-41 -13q-25 0 -44.5 16.5t-15.5 49.5z" />
<glyph unicode="e" horiz-adv-x="733" vert-adv-y="0" d="M31 260q4 109 27.5 213.5t70.5 190.5t121 137t180 51q94 0 160 -39q59 -35 60 -99q0 -8 -1 -16q-6 -59 -57 -119.5t-130 -111.5t-169 -83t-174 -32l20 119q59 0 125 27.5t125.5 66.5t97 75t39.5 50q2 16 -19.5 27.5t-53.5 11.5q-88 0 -145.5 -43t-90.5 -115.5t-47 -159.5 t-16 -173v-8q0 -46 22 -80q24 -37 55 -37q45 0 88 29.5t78 68.5t54 63q23 31 49 36t47 -11q20 -14 15 -45t-40 -84q-23 -37 -68.5 -79t-105 -71.5t-125.5 -29.5q-45 0 -91 24t-76 82q-26 52 -25 139v25z" />
<glyph unicode="f" horiz-adv-x="544" vert-adv-y="0" d="M-61 799q0 23 12 38t49 15h475q35 0 50.5 -15.5t15.5 -37.5q0 -23 -11.5 -40.5t-48.5 -17.5h-473q-37 0 -53 17.5t-16 40.5zM98 68l127 1214q12 109 52 174.5t97.5 95t117.5 29.5q35 0 68.5 -4t64.5 -14q16 -6 30.5 -24.5t1.5 -51.5q-14 -35 -39.5 -37t-39.5 0 q-18 6 -38 8t-40 2q-61 0 -102.5 -45t-51.5 -155l-127 -1194q-2 -20 -14 -43t-45 -23t-48.5 23.5t-13.5 44.5z" />
<glyph unicode="g" horiz-adv-x="815" vert-adv-y="0" d="M-72 -628q-3 24 13 44q18 23 40.5 23t34.5 -6q29 -12 67 -26.5t73 -14.5q61 0 113.5 14t84.5 49q55 53 77 139.5t30 174.5l112 1083h56q31 0 48 -14.5t13 -44.5l-108 -1024q-10 -90 -26.5 -167t-44.5 -137.5t-73 -103.5q-45 -45 -112.5 -67.5t-159.5 -22.5 q-66 0 -123 19.5t-92 41.5q-20 16 -23 40zM25 295q0 82 22.5 178t67.5 182t113.5 141.5t162.5 55.5h221l-12 -123h-201q-66 0 -113.5 -45t-78.5 -112.5t-46.5 -139.5t-15.5 -125q0 -119 20.5 -156.5t70.5 -37.5q37 0 91 52t118.5 157.5t127.5 263.5l-26 -285 q-43 -78 -94.5 -149.5t-110.5 -116.5t-125 -45q-35 0 -68.5 13t-62.5 47t-45 93.5t-16 151.5z" />
<glyph unicode="h" horiz-adv-x="827" vert-adv-y="0" d="M23 55l155 1461q4 35 25.5 50t44.5 15q25 0 40 -15.5t11 -49.5l-156 -1461q-2 -29 -22 -42t-43 -13t-41.5 14.5t-13.5 40.5zM147 311l19 269q78 131 155.5 206.5t178.5 75.5q70 0 114 -44q42 -44 62 -112q14 -48 14 -96q0 -20 -2 -41l-55 -493q-2 -25 -10.5 -50.5 t-55.5 -25.5q-39 0 -48 23.5t-5 52.5l53 493q2 19 2 37q1 47 -15 84q-22 51 -62 51q-51 0 -102.5 -37.5t-110 -132t-132.5 -260.5z" />
<glyph unicode="i" horiz-adv-x="387" vert-adv-y="0" d="M41 68l76 718q4 33 24.5 49.5t42.5 16.5q23 0 40.5 -18.5t13.5 -55.5l-74 -710q-4 -33 -23.5 -50.5t-42.5 -17.5q-25 0 -42 17.5t-15 50.5zM119 1122q0 35 25.5 58.5t58.5 23.5t56.5 -23.5t23.5 -58.5q0 -33 -23.5 -59.5t-56.5 -26.5t-58.5 27t-25.5 59z" />
<glyph unicode="j" horiz-adv-x="417" vert-adv-y="0" d="M-495.5 -613.5q2.5 15.5 14.5 29.5t26.5 19.5t27.5 3.5t21 -6q27 -12 66 -26.5t72 -14.5q63 0 116.5 12t85.5 47q29 27 46.5 68t28.5 87t17.5 90t10.5 75l106 1030q2 20 18.5 36.5t37.5 16.5q33 0 51 -13.5t14 -45.5l-106 -1024q-6 -55 -15.5 -113.5t-25 -113t-41 -101.5 t-62.5 -82q-45 -45 -111.5 -67.5t-160.5 -22.5q-66 0 -123 19.5t-90 41.5q-14 10 -20.5 24.5t-4 30zM152 1124q0 35 25.5 57.5t58.5 22.5q35 0 56 -22.5t21 -57.5q0 -37 -21 -62.5t-56 -25.5q-33 0 -58.5 25.5t-25.5 62.5z" />
<glyph unicode="k" horiz-adv-x="765" vert-adv-y="0" d="M23 63l155 1450q4 31 18.5 49.5t41.5 18.5q29 0 47 -15.5t14 -54.5l-156 -1448q-2 -35 -20 -49t-47 -14q-25 0 -41.5 17.5t-11.5 45.5zM137 403l21 193q66 96 130 154.5t120.5 85t95.5 26.5q57 0 99 -32q43 -34 63 -84q14 -34 13 -70q0 -18 -3 -37q-6 -31 -37 -79 t-108.5 -100t-225.5 -95l8 61l305 -324q16 -18 16.5 -34.5t-1.5 -28.5q-2 -20 -18.5 -30.5t-34.5 -10.5q-25 0 -42.5 14.5t-33.5 30.5l-289 309q-14 16 -16 38t6 40.5t20 22.5q150 47 219.5 83.5t90 69.5t20.5 64q0 23 -16.5 47t-51.5 24q-27 0 -63.5 -20.5t-81.5 -62.5 t-97 -105.5t-108 -149.5z" />
<glyph unicode="l" horiz-adv-x="421" vert-adv-y="0" d="M59 66l156 1464q4 29 20.5 40t36.5 11q27 0 47.5 -17.5t16.5 -45.5l-156 -1465q-2 -27 -20.5 -40t-38.5 -13q-25 0 -45.5 16.5t-16.5 49.5z" />
<glyph unicode="m" horiz-adv-x="1253" vert-adv-y="0" d="M25 74l75 712q4 35 23.5 50.5t54.5 15.5q31 0 39 -17.5t4 -48.5l-78 -712q-2 -23 -11 -48.5t-52 -25.5q-39 0 -48 23.5t-7 50.5zM129 276l23 295q49 86 98 151.5t103.5 102.5t121.5 37q72 0 114 -44q41 -44 59 -112q12 -45 12 -90q0 -23 -3 -47l-57 -495 q-2 -23 -12 -48.5t-53 -25.5q-39 0 -47.5 23.5t-6.5 50.5l54 495q2 16 2 33q-1 19 -3 40q-4 40 -20 69.5t-47 29.5q-51 0 -100.5 -47t-105.5 -148.5t-132 -269.5zM586 276l22 295q51 86 99.5 151.5t103.5 102.5t121 37q72 0 114 -44q40 -44 58 -112q12 -46 13 -93 q0 -22 -3 -44l-55 -495q-2 -23 -12.5 -48.5t-53.5 -25.5q-39 0 -48 23.5t-5 50.5l53 495q2 15 2 31q0 20 -3 42q-5 40 -21.5 69.5t-46.5 29.5q-76 0 -150 -107.5t-188 -357.5z" />
<glyph unicode="n" horiz-adv-x="813" vert-adv-y="0" d="M20 76l80 710q4 33 22.5 49.5t55.5 16.5q31 0 39 -17.5t4 -48.5l-82 -710q-4 -25 -10 -50.5t-53 -25.5q-39 0 -49.5 23.5t-6.5 52.5zM129 276l25 273q70 145 149.5 229t179.5 84q72 0 117 -44q46 -44 64 -112q13 -47 12 -95q0 -21 -2 -42l-62 -493q-2 -25 -10 -50.5 t-55 -25.5q-39 0 -47 23.5t-6 52.5l59 493q1 12 1 25q0 23 -4 48q-7 40 -24.5 69.5t-48.5 29.5q-76 0 -154.5 -106.5t-193.5 -358.5z" />
<glyph unicode="o" horiz-adv-x="763" vert-adv-y="0" d="M25 231q0 102 20.5 211t64.5 202t115.5 150.5t173.5 57.5q86 0 149.5 -32t98.5 -87q28 -45 28 -102q0 -13 -1 -27q-8 -66 -36 -147.5t-71 -163.5t-97 -150.5t-115 -110.5t-122 -42q-49 0 -98 22.5t-79.5 75.5t-30.5 143zM147 256v-10q1 -46 17 -87q18 -46 69 -46 q35 0 84.5 47t99.5 120.5t87 158.5t45 161q1 11 1 21q0 48 -32 75q-39 33 -119 33q-68 0 -114.5 -47t-76.5 -121t-44 -154.5t-17 -150.5z" />
<glyph unicode="p" horiz-adv-x="790" vert-adv-y="0" d="M-53 -672l157 1467q4 29 26 43t42 14q25 0 41 -14.5t12 -42.5l-157 -1469q-2 -27 -21.5 -41t-42.5 -14t-42 14.5t-15 42.5zM80 0l12 121h221q61 0 109.5 34.5t80.5 93t48 135.5t16 159q0 119 -20.5 158.5t-69.5 39.5q-63 0 -149 -100t-183 -340l25 283q45 78 95 140 t107.5 98t123.5 36q47 0 91 -24.5t72.5 -90t28.5 -188.5q0 -141 -43 -268t-125 -207t-198 -80h-242z" />
<glyph unicode="q" horiz-adv-x="817" vert-adv-y="0" d="M25 295q0 82 22.5 178t67.5 182t113.5 141.5t162.5 55.5h201l-12 -123h-181q-66 0 -113.5 -45t-78.5 -112.5t-46.5 -139.5t-15.5 -125q0 -119 20.5 -156.5t70.5 -37.5q53 0 146 108.5t189 347.5l-24 -272q-43 -78 -94.5 -148.5t-110.5 -114.5t-125 -44q-45 0 -90 25.5 t-73.5 92t-28.5 187.5zM438 -440l144 1292h53q41 0 50 -20.5t5 -36.5l-131 -1260q-4 -34 -4 -61q0 -24 3 -44q7 -42 42 -42q29 0 49.5 32.5t48.5 102.5q10 27 33 30.5t43 -6.5q18 -8 28.5 -28.5t0.5 -48.5q-10 -33 -38 -80t-70 -83t-99 -36q-88 0 -131 71q-31 51 -31 143 q0 35 4 75z" />
<glyph unicode="r" horiz-adv-x="690" vert-adv-y="0" d="M20 66l74 720q4 33 25.5 49.5t44.5 16.5t40 -18.5t13 -55.5l-76 -712q-2 -33 -22 -49.5t-43 -16.5q-25 0 -42.5 16.5t-13.5 49.5zM125 276l22 269q51 104 101.5 175t108 106.5t122.5 35.5q74 0 119 -48t61 -116q8 -35 -4 -53.5t-32 -28.5q-20 -12 -47 -6t-31 27 q-8 41 -24.5 72.5t-49.5 31.5q-76 0 -154.5 -107.5t-191.5 -357.5z" />
<glyph unicode="s" horiz-adv-x="720" vert-adv-y="0" d="M21.5 130.5q-15.5 23.5 3.5 49.5q18 29 41.5 33t50.5 -16q29 -20 89 -52t128 -32q45 0 77.5 18.5t43.5 63.5q3 13 3 25q0 26 -14 50q-22 34 -47 54q-33 27 -73.5 50t-92.5 54q-55 35 -97 78t-58 93q-8 25 -9 50q0 26 9 53q23 84 92.5 118t169.5 34q49 0 106.5 -16.5 t116.5 -53.5q35 -23 50.5 -56.5t-1.5 -55.5q-16 -27 -41.5 -24t-54.5 24q-33 23 -81 43t-111 20q-45 0 -82 -13t-47 -50q-3 -10 -3 -20q0 -27 20 -51q28 -34 97 -75q47 -27 97.5 -60.5t95.5 -72.5q36 -29 62 -83q17 -34 16 -79q0 -25 -5 -53q-8 -61 -44.5 -103t-89 -63.5 t-111.5 -21.5q-78 0 -151 32.5t-109 59.5q-31 25 -46.5 48.5z" />
<glyph unicode="t" horiz-adv-x="630" vert-adv-y="0" d="M-8 799q0 23 12 38t49 15h518q37 0 51.5 -15.5t14.5 -37.5q0 -23 -10.5 -40.5t-46.5 -17.5h-519q-37 0 -53 17.5t-16 40.5zM160 59l162 1477q4 25 20 38t37 13q27 0 47 -17.5t16 -51.5l-159 -1463q-4 -29 -20.5 -42t-41.5 -13q-23 0 -43 15.5t-18 43.5z" />
<glyph unicode="u" horiz-adv-x="827" vert-adv-y="0" d="M39 283l59 503q2 20 12.5 43t49.5 23q41 0 50 -22.5t5 -49.5l-55 -497q-2 -17 -1 -35q0 -51 13 -89q18 -50 64 -50q51 0 103 43t113.5 142t135.5 265l-21 -266q-51 -86 -103 -154.5t-109.5 -108.5t-125.5 -40q-70 0 -115.5 40t-63.5 108q-13 47 -13 99q0 22 2 46zM494 66 l77 720q2 20 14.5 43t51.5 23t48 -22.5t5 -49.5l-74 -714q-4 -33 -22 -49.5t-53 -16.5q-31 0 -40 17.5t-7 48.5z" />
<glyph unicode="v" horiz-adv-x="741" vert-adv-y="0" d="M43 248l57 545q4 29 23.5 44t46.5 15q25 0 40 -15.5t11 -50.5l-55 -538q-2 -23 -2 -44q0 -15 1 -28q3 -31 12 -46t22 -15q43 0 108.5 78.5t137 228t133.5 362.5q8 35 26.5 51.5t50.5 16.5q35 0 45 -24q4 -11 4 -25q0 -17 -6 -39q-82 -297 -175 -466t-182 -238.5 t-163 -69.5q-51 0 -83 38t-45 97q-9 40 -9 83q0 20 2 40z" />
<glyph unicode="w" horiz-adv-x="1224" vert-adv-y="0" d="M43 248l57 538q4 33 27 49.5t43 16.5q25 0 40 -18.5t11 -55.5l-55 -530q-2 -27 -5 -58.5t5 -53t33 -21.5q35 0 77.5 41t93 123.5t104.5 208.5t108 296q8 25 22 46.5t47 21.5l-53 -330q-109 -285 -210 -408.5t-210 -123.5q-51 0 -84 38t-45 97q-8 39 -8 81q0 21 2 42z M539 248l41 278l71 326q25 0 38 -18.5t9 -55.5l-51 -530q-2 -27 -4 -58.5t6 -53t33 -21.5q31 0 75 37.5t96 117.5t105.5 208t100.5 306q10 33 27.5 50.5t50.5 17.5q37 0 45 -24q4 -10 4 -24q0 -17 -6 -40q-68 -233 -136.5 -385t-136 -237t-130.5 -118.5t-118 -33.5 q-77 0 -107 74q-20 47 -19 109q0 35 6 75z" />
<glyph unicode="x" horiz-adv-x="696" vert-adv-y="0" d="M-55 53q0 12 6 25.5t26 40.5l271 362l22 13l246 329q12 16 26.5 22.5t26.5 6.5q23 0 44.5 -14.5t21.5 -34.5q0 -25 -29 -64l-268 -354l-23 -12l-247 -330q-31 -43 -58 -43q-20 0 -42.5 16.5t-22.5 36.5zM25 795q0 23 21.5 40t41.5 17q18 0 33.5 -12.5t25.5 -28.5 l181 -336l192 -356q8 -14 16.5 -31.5t8.5 -28.5q0 -27 -21.5 -43t-44.5 -16q-14 0 -27.5 11.5t-29.5 39.5l-178 326l-203 375q-4 10 -10 21t-6 22z" />
<glyph unicode="y" horiz-adv-x="833" vert-adv-y="0" d="M-59 -628q-2 24 12 44q12 14 25.5 19.5t26.5 4.5t24 -7q25 -12 66.5 -26.5t86.5 -14.5q82 0 140.5 26.5t95.5 107.5t53 245l109 1030q2 20 19 36.5t44 16.5q25 0 43.5 -13.5t13.5 -45.5l-106 -1024q-18 -184 -67.5 -294t-132.5 -158t-204 -48q-76 0 -134 19.5t-93 41.5 q-20 16 -22 40zM47 283l55 497q2 20 15.5 45t50.5 27t47 -21.5t6 -50.5l-53 -497q-2 -19 -2 -37q0 -45 14 -83q19 -54 64 -54q51 0 102 47t110.5 149.5t135.5 267.5l-23 -288q-76 -129 -153.5 -212t-179.5 -83q-70 0 -115 40t-63 108q-13 47 -13 99q0 22 2 46z" />
<glyph unicode="z" horiz-adv-x="681" vert-adv-y="0" d="M-48 60.5q-3 25.5 13 45.5l555 723l41 23q25 0 42.5 -15.5t20.5 -38t-16 -46.5l-559 -725l-37 -27q-23 0 -40 17.5t-20 43zM12 0l86 121h385q37 0 51.5 -18.5t14.5 -41.5t-10.5 -42t-46.5 -19h-480zM27 791q0 23 12 42t49 19h473l-84 -123h-383q-35 0 -51 21t-16 41z" />
<glyph unicode="{" horiz-adv-x="851" vert-adv-y="0" d="M147 500q4 29 26 46t52 38q59 45 94 90t43 98q8 45 2 118t-13 156.5t-4 160.5t30 130q31 61 92 108.5t129 79t115 44.5q41 14 79.5 2t45.5 -41q6 -25 -15.5 -48.5t-50.5 -33.5q-82 -20 -165 -52t-118 -98q-27 -49 -28.5 -121.5t8.5 -151.5t19.5 -149.5t3.5 -119.5 q-12 -80 -46 -142.5t-133 -134.5q78 -96 96.5 -171t14.5 -154q-2 -49 -23.5 -118t-47 -143.5t-41 -147.5t-7.5 -130q10 -66 39 -106.5t72 -71.5t90 -66q29 -16 37 -48t-13 -48q-18 -18 -47.5 -15t-58.5 25q-43 33 -96.5 83t-94 111.5t-53.5 131.5q-8 59 6.5 135t38 153.5 t45 149.5t25.5 123q6 102 -86 221q-20 29 -41 51.5t-21 55.5z" />
<glyph unicode="|" horiz-adv-x="442" vert-adv-y="0" d="M0 -664l246 2298q4 35 25.5 52.5t41.5 17.5q25 0 42.5 -18.5t11.5 -59.5l-242 -2296q-2 -18 -11.5 -38.5t-50.5 -20.5q-33 0 -49 19.5t-14 45.5z" />
<glyph unicode="}" horiz-adv-x="837" vert-adv-y="0" d="M-78 -690q-6 25 15.5 49.5t52.5 32.5q82 20 164 53t116 98q27 49 28 132t-8 176.5t-16.5 176.5t-1.5 130q12 80 46 143.5t131 134.5q-76 96 -95.5 171t-15.5 155q4 49 25.5 105.5t45 116.5t39 121.5t7.5 119.5q-8 66 -38 106.5t-72 71.5t-91 63q-27 18 -35 50t10 49 q18 18 48 15t59 -26q45 -33 97 -82t94 -111.5t53 -131.5q10 -59 -4.5 -124t-38 -128.5t-45 -122.5t-25.5 -113q-2 -51 19.5 -106t66.5 -115q23 -29 43 -51t16 -53q0 -29 -22.5 -45.5t-54.5 -38.5q-57 -45 -91 -90t-45 -99q-6 -35 -3 -97t8.5 -139t9.5 -154t-2 -143.5 t-27 -109.5q-31 -59 -93.5 -106t-130 -78t-114.5 -45q-41 -14 -80 -1t-45 40z" />
<glyph unicode="~" horiz-adv-x="901" vert-adv-y="0" d="M68 492q-2 20 14 31.5t47 23.5q33 14 65.5 26.5t79.5 12.5q39 0 85.5 -23.5t92.5 -46t78 -22.5q55 0 84 19t62 34q20 10 36.5 1t28 -25.5t11.5 -30.5q2 -20 -12.5 -33t-45.5 -29q-39 -14 -78 -29.5t-98 -15.5q-33 0 -79 22.5t-92 46t-85 23.5q-41 0 -67.5 -16.5 t-53.5 -30.5q-20 -8 -36.5 1t-25.5 27.5t-11 33.5z" />
<glyph unicode="&#xa0;" horiz-adv-x="569" vert-adv-y="2580" />
<glyph unicode="&#xa1;" horiz-adv-x="477" vert-adv-y="0" d="M82 51l111 981q4 35 25.5 51.5t41.5 14.5q25 -2 42 -18.5t13 -47.5l-108 -981q-2 -27 -23.5 -39t-44.5 -12q-25 -2 -42 11.5t-15 39.5zM229 1501q-2 31 21.5 55.5t56.5 24.5t55.5 -25.5t24.5 -54.5t-17.5 -53.5t-54.5 -24.5q-33 0 -58.5 23.5t-27.5 54.5z" />
<glyph unicode="&#xa2;" horiz-adv-x="696" vert-adv-y="2580" d="M25 231q0 102 20.5 211t64.5 202t115.5 150.5t173.5 57.5q49 0 105.5 -8t91.5 -17q27 -6 33 -26.5t-6 -48.5q-14 -31 -40 -35t-48 -2q-23 4 -63 9t-73 5q-68 0 -114.5 -47t-76.5 -121t-44 -154.5t-17 -150.5q-2 -51 16.5 -97t69.5 -46q31 0 73 35.5t87 96t82 130.5 q10 20 37 18t41 -8q12 -8 25.5 -27.5t3.5 -38.5q-43 -86 -100.5 -161.5t-120 -121.5t-128.5 -46q-49 0 -98 22.5t-79.5 75.5t-30.5 143zM143 -315l191 1417q4 35 25.5 51t41.5 16q23 0 41.5 -18t12.5 -59l-187 -1414q-2 -18 -11 -39.5t-50 -21.5q-33 0 -49.5 20.5 t-14.5 47.5z" />
<glyph unicode="&#xa3;" horiz-adv-x="1060" vert-adv-y="2580" d="M44 46.5q3 21.5 19 45.5q4 6 42 50t91.5 113t104.5 149.5t82 162.5q23 61 25 139t-10.5 143.5t-32.5 90.5q-59 76 -100.5 143.5t-62 127t-20.5 110.5q0 68 35 123t105 94q41 23 87 33t95 10q115 0 232.5 -46t193.5 -112q41 -35 40 -59.5t-18 -42.5q-14 -16 -43.5 -16 t-74.5 36q-61 53 -156.5 85t-181.5 32q-35 0 -68 -6t-57 -20q-55 -33 -56 -99q0 -70 51.5 -160t108.5 -172q29 -39 45.5 -99t18.5 -128.5t-6.5 -135.5t-28.5 -120q-37 -98 -96.5 -192.5t-123 -177t-114.5 -148.5h-70q-31 0 -45 12.5t-11 34zM109 0l45 121h608q37 0 50 -18.5 t15 -41.5t-10 -42t-49 -19h-659zM143 799q0 23 12.5 38t49.5 15h518q37 0 51 -15.5t14 -37.5q0 -23 -11 -40.5t-48 -17.5h-518q-35 0 -51.5 17.5t-16.5 40.5z" />
<glyph unicode="&#xa5;" horiz-adv-x="1187" vert-adv-y="2580" d="M148.5 1545.5q4.5 25.5 35.5 35.5q35 14 56.5 -6.5t29.5 -42.5l379 -825l-80 -121l-413 905q-12 29 -7.5 54.5zM186 389q-2 20 13.5 36.5t48.5 16.5h553q33 0 50 -16t19 -37q0 -20 -14 -37.5t-49 -17.5h-551q-33 0 -51.5 17.5t-18.5 37.5zM199 49q-2 23 10 43l852 1452 q16 29 37.5 35t42.5 -4q29 -14 35 -40t-11 -54l-854 -1452q-10 -18 -27.5 -25.5t-34 -3.5t-30.5 14q-18 12 -20 35zM223 659q-2 20 14.5 37t49.5 17h553q33 0 49 -16.5t18 -37.5q2 -20 -12 -37.5t-49 -17.5h-551q-33 0 -51.5 17.5t-20.5 37.5z" />
<glyph unicode="&#xa6;" horiz-adv-x="442" vert-adv-y="0" d="M0 -664l106 992q2 33 25 49t47 16q23 0 39 -16t14 -49l-106 -998q-2 -18 -11.5 -38.5t-50.5 -20.5q-33 0 -49 19.5t-14 45.5zM139 647l107 987q4 35 25.5 52.5t41.5 17.5q25 0 42.5 -18.5t11.5 -59.5l-105 -979q-2 -31 -23.5 -48t-43.5 -17q-23 -2 -40.5 16t-15.5 49z " />
<glyph unicode="&#xa9;" horiz-adv-x="2031" vert-adv-y="2580" d="M31 754q0 197 73.5 368.5t204.5 302.5t303 205t369 74t368 -74t302 -205t204.5 -303t73.5 -368q0 -197 -73.5 -368t-204.5 -302t-302 -205t-368 -74t-369 74t-303 205t-204.5 302t-73.5 368zM154 756q0 -172 64.5 -321.5t178 -264.5t264 -179.5t320.5 -64.5t320.5 64.5 t264 179.5t178 264.5t64.5 321.5q0 170 -64.5 319.5t-179 263t-264 178t-319.5 64.5t-319.5 -64.5t-264 -178t-179 -263t-64.5 -319.5zM629 702q0 74 25.5 168.5t75.5 182.5t127 145t179 57q49 0 112.5 -9t96.5 -21q27 -8 34 -27.5t-7 -48.5q-14 -31 -39 -37t-47 2 q-16 6 -43 11t-55.5 7.5t-51.5 2.5q-72 0 -126 -46.5t-90 -117t-53 -143t-17 -126.5q0 -59 12 -129.5t38.5 -120t65.5 -49.5q33 0 76 37t89 97.5t83 130.5q10 20 37 18t41 -10q12 -6 25.5 -27t3.5 -39q-43 -86 -101.5 -160.5t-123 -120.5t-130.5 -46q-68 0 -122 51 t-84.5 145t-30.5 223z" />
<glyph unicode="&#xad;" vert-adv-y="0" d="M68 483q0 23 15 43.5t48 20.5h361q33 0 50 -18.5t17 -39.5q0 -20 -13.5 -41.5t-45.5 -21.5h-361q-31 0 -51 21.5t-20 35.5z" />
<glyph unicode="&#xae;" horiz-adv-x="1349" vert-adv-y="2580" d="M176 1264q0 115 43 216t120 178t178 121t218 44t218.5 -44t178 -121t119.5 -178.5t43 -215.5q0 -117 -43 -218.5t-119.5 -178t-178 -121t-218.5 -44.5t-218 44.5t-178 121t-120 178t-43 218.5zM293 1264q0 -123 59.5 -223.5t159.5 -161t223 -60.5t222.5 60.5t159 161 t59.5 223.5q0 121 -59.5 221t-159 159.5t-222.5 59.5t-223 -59.5t-159.5 -160t-59.5 -220.5zM545 1036l51 473q2 16 10 23.5t25 7.5q18 0 42.5 -9t22.5 -30l-49 -469q-2 -14 -14 -26.5t-41 -12.5q-25 0 -37 12.5t-10 30.5zM592 1294l129 -8l170 -225q8 -8 6 -22.5t-6 -20.5 q-6 -8 -17.5 -16.5t-21.5 -8.5q-8 0 -23.5 4t-23.5 15zM625 1253l4 97q55 0 99 2t70.5 10t28.5 27q4 29 -53 40t-145 11l2 100q98 0 164.5 -15.5t100.5 -48t28 -90.5q-6 -53 -34 -81.5t-70 -39t-93 -11.5t-102 -1z" />
<glyph unicode="&#xb0;" horiz-adv-x="661" vert-adv-y="0" d="M199 1206q-4 86 14 156t37 108q25 47 68.5 85t111.5 38q84 0 128 -36.5t48 -108.5q4 -57 -17.5 -126t-62.5 -130.5t-94.5 -100t-112.5 -38.5q-33 0 -58 14t-40.5 48t-21.5 91zM295 1225q2 -33 7.5 -54.5t25.5 -21.5q29 0 61.5 29.5t61 75.5t46 94.5t13.5 83.5 q-2 37 -19.5 51t-58.5 14q-31 0 -51.5 -15.5t-36.5 -49.5q-23 -53 -38 -105.5t-11 -101.5z" />
<glyph unicode="&#xb1;" horiz-adv-x="827" vert-adv-y="0" d="M49 293q-2 20 12.5 36.5t47.5 16.5h479q35 0 52 -16.5t19 -36.5q0 -23 -15 -40t-48 -17h-479q-33 0 -50.5 18t-17.5 39zM86 659q-2 20 13.5 37t47.5 17h482q33 0 49 -16.5t18 -37.5q2 -20 -13 -37.5t-48 -17.5h-479q-33 0 -50.5 17.5t-19.5 37.5zM319 477l41 379 q4 29 19.5 43t34.5 14q23 0 41 -19t14 -54l-41 -379q-2 -29 -18.5 -43.5t-34.5 -14.5q-20 0 -39 19.5t-17 54.5z" />
<glyph unicode="&#xb7;" horiz-adv-x="399" vert-adv-y="0" d="M63 430q-2 37 20.5 63.5t61.5 26.5q37 0 68 -25.5t33 -64.5q2 -35 -24.5 -64.5t-63.5 -29.5q-39 0 -65.5 30.5t-29.5 63.5z" />
<glyph unicode="&#xbf;" horiz-adv-x="1095" vert-adv-y="0" d="M102 367q20 170 81 297t179 196.5t308 69.5l-2 -123q-119 0 -198 -35t-126 -90t-71.5 -117.5t-34 -118t-13.5 -88.5q-8 -74 30 -127t105.5 -81.5t147.5 -28.5q104 0 167.5 44t95.5 110.5t40 136.5q4 41 32.5 57t51.5 10q20 -6 30.5 -28.5t6.5 -63.5q-18 -174 -129 -280.5 t-322 -106.5q-111 0 -201 52t-139 136t-39 179zM604 854l27 246q4 41 25.5 55t45.5 10q23 -6 38.5 -22t13.5 -43l-27 -246q-2 -20 -18.5 -33.5t-36.5 -13.5q-37 0 -52.5 17.5t-15.5 29.5zM657 1505q-2 29 21.5 52.5t56.5 23.5q31 0 54.5 -23.5t25.5 -52.5q2 -33 -18.5 -57.5 t-51.5 -24.5q-35 0 -60.5 25t-27.5 57z" />
<glyph unicode="&#xd7;" horiz-adv-x="901" vert-adv-y="0" d="M38 203.5q-3 23.5 17 42.5l609 545q25 23 52 19.5t44 -19.5q18 -14 20.5 -37.5t-20.5 -46.5l-606 -543q-27 -25 -53.5 -21t-45.5 21q-14 16 -17 39.5zM99.5 756q2.5 24 17.5 39q16 16 41.5 15t50.5 -30l491 -532q23 -23 20 -47.5t-22 -40.5q-14 -14 -38.5 -14.5 t-47.5 22.5l-495 541q-20 23 -17.5 47z" />
<glyph unicode="&#xf7;" horiz-adv-x="901" vert-adv-y="0" d="M68 480.5q-2 21.5 13 38t48 16.5h553q35 0 51.5 -16.5t17.5 -38t-14.5 -38t-48.5 -16.5h-551q-33 0 -50 16.5t-19 38zM301 219q-2 29 16.5 53.5t53.5 24.5q31 0 58.5 -22.5t31.5 -55.5q2 -31 -21.5 -55.5t-56.5 -24.5t-55.5 24.5t-26.5 55.5zM358 745q-4 29 16.5 53.5 t53.5 24.5q31 0 57.5 -23.5t30.5 -54.5q2 -33 -21.5 -57t-54.5 -24q-33 0 -56.5 26.5t-25.5 54.5z" />
<glyph unicode="&#x2dc;" horiz-adv-x="901" vert-adv-y="0" d="M68 1241q-2 20 14 31.5t47 23.5q33 14 65.5 26.5t79.5 12.5q39 0 85.5 -23.5t92.5 -46t78 -22.5q55 0 84 19.5t62 33.5q20 10 36.5 1t28 -25.5t11.5 -30.5q2 -20 -12.5 -32.5t-45.5 -28.5q-39 -16 -78 -30.5t-98 -14.5q-33 0 -79 22.5t-92 46t-85 23.5q-41 0 -67.5 -17.5 t-53.5 -29.5q-20 -8 -36.5 1t-25.5 27.5t-11 32.5z" />
<glyph unicode="&#x2000;" horiz-adv-x="911" vert-adv-y="0" />
<glyph unicode="&#x2001;" horiz-adv-x="1823" vert-adv-y="0" />
<glyph unicode="&#x2002;" horiz-adv-x="911" vert-adv-y="0" />
<glyph unicode="&#x2003;" horiz-adv-x="1823" vert-adv-y="0" />
<glyph unicode="&#x2004;" horiz-adv-x="607" vert-adv-y="0" />
<glyph unicode="&#x2005;" horiz-adv-x="455" vert-adv-y="0" />
<glyph unicode="&#x2006;" horiz-adv-x="303" vert-adv-y="0" />
<glyph unicode="&#x2007;" horiz-adv-x="303" vert-adv-y="0" />
<glyph unicode="&#x2008;" horiz-adv-x="227" vert-adv-y="0" />
<glyph unicode="&#x2009;" horiz-adv-x="364" vert-adv-y="0" />
<glyph unicode="&#x200a;" horiz-adv-x="101" vert-adv-y="0" />
<glyph unicode="&#x2010;" vert-adv-y="0" d="M68 483q0 23 15 43.5t48 20.5h361q33 0 50 -18.5t17 -39.5q0 -20 -13.5 -41.5t-45.5 -21.5h-361q-31 0 -51 21.5t-20 35.5z" />
<glyph unicode="&#x2011;" vert-adv-y="0" d="M68 483q0 23 15 43.5t48 20.5h361q33 0 50 -18.5t17 -39.5q0 -20 -13.5 -41.5t-45.5 -21.5h-361q-31 0 -51 21.5t-20 35.5z" />
<glyph unicode="&#x2012;" vert-adv-y="0" d="M68 483q0 23 15 43.5t48 20.5h361q33 0 50 -18.5t17 -39.5q0 -20 -13.5 -41.5t-45.5 -21.5h-361q-31 0 -51 21.5t-20 35.5z" />
<glyph unicode="&#x2013;" horiz-adv-x="901" vert-adv-y="0" d="M68 483q-2 20 14 36t49 16h553q33 0 49.5 -15.5t18.5 -36.5q2 -20 -12.5 -38.5t-49.5 -18.5h-551q-33 0 -51 18.5t-20 38.5z" />
<glyph unicode="&#x2014;" horiz-adv-x="1150" vert-adv-y="0" d="M68 483q-2 18 16 35t55 17h785q39 0 57 -16.5t20 -35.5q4 -20 -14 -38.5t-55 -18.5h-787q-33 0 -54 18.5t-23 38.5z" />
<glyph unicode="&#x2018;" horiz-adv-x="440" vert-adv-y="2580" d="M203 1284l26 244q4 27 22.5 40t41.5 13q25 0 43 -18.5t16 -53.5l-24 -241q-2 -27 -22.5 -39t-43.5 -12q-25 0 -44 17t-15 50z" />
<glyph unicode="&#x2019;" horiz-adv-x="440" vert-adv-y="2580" d="M203 1284l26 244q4 27 22.5 40t41.5 13q25 0 43 -18.5t16 -53.5l-24 -241q-2 -27 -22.5 -39t-43.5 -12q-25 0 -44 17t-15 50z" />
<glyph unicode="&#x201c;" vert-adv-y="2580" d="M205 1284l24 234q4 33 25.5 48t42.5 15q23 0 42 -18.5t15 -53.5l-26 -233q-2 -29 -22.5 -44t-43.5 -15t-42 17t-15 50zM467 1284l27 244q4 27 23.5 40t39.5 13q27 0 45.5 -18.5t15.5 -53.5l-22 -229q-2 -35 -23.5 -49t-44.5 -14q-27 0 -45 17t-16 50z" />
<glyph unicode="&#x201d;" vert-adv-y="2580" d="M205 1284l24 234q4 33 25.5 48t42.5 15q23 0 42 -18.5t15 -53.5l-26 -233q-2 -29 -22.5 -44t-43.5 -15t-42 17t-15 50zM467 1284l27 244q4 27 23.5 40t39.5 13q27 0 45.5 -18.5t15.5 -53.5l-22 -229q-2 -35 -23.5 -49t-44.5 -14q-27 0 -45 17t-16 50z" />
<glyph unicode="&#x2022;" horiz-adv-x="583" vert-adv-y="0" d="M109 864q-2 49 18 90t60 67t89 26t93.5 -26t73 -67t32.5 -90t-19.5 -92t-64.5 -69.5t-90 -26.5q-51 0 -93 26.5t-68.5 70.5t-30.5 91z" />
<glyph unicode="&#x2026;" horiz-adv-x="933" vert-adv-y="0" d="M20 23q-2 35 22 62.5t62 27.5q37 0 67 -28t32 -62q4 -39 -22.5 -68t-63.5 -29q-39 0 -65.5 30t-31.5 67zM287 23q-2 35 22.5 62.5t63.5 27.5q37 0 65.5 -28t30.5 -62q4 -39 -22.5 -68t-61.5 -29q-39 0 -66.5 30t-31.5 67zM555 23q-2 35 21.5 62.5t62.5 27.5 q37 0 66.5 -28t31.5 -62q4 -39 -22.5 -68t-63.5 -29q-39 0 -65.5 30t-30.5 67z" />
<glyph unicode="&#x202f;" horiz-adv-x="364" vert-adv-y="0" />
<glyph unicode="&#x205f;" horiz-adv-x="455" vert-adv-y="0" />
<glyph unicode="&#x20ac;" horiz-adv-x="1306" vert-adv-y="2580" d="M12 575q-2 20 12.5 37t47.5 17h553q35 0 52 -16.5t19 -37.5q0 -23 -15 -40t-48 -17h-553q-33 0 -50.5 18.5t-17.5 38.5zM49 942q-2 20 13.5 36.5t48.5 16.5h553q35 0 50 -16t17 -37q4 -20 -11 -37.5t-48 -17.5h-553q-33 0 -50.5 17.5t-19.5 37.5zM204.5 375.5 q-28.5 187.5 20.5 451.5q41 213 120 383t202 269.5t291 99.5q94 0 161.5 -19.5t115.5 -50t81 -61.5q16 -14 25.5 -39t-15.5 -53q-23 -27 -52.5 -21t-45.5 21q-39 29 -107.5 66.5t-156.5 37.5q-137 0 -235.5 -84t-162 -229.5t-98.5 -333.5q-66 -358 6 -534.5t246 -176.5 q100 0 177 40t131.5 100.5t84.5 119.5q20 41 43 59.5t54 2.5t29.5 -44t-23.5 -75q-37 -76 -110 -148.5t-169 -119.5t-207 -47q-170 0 -273.5 99t-132 286.5z" />
<glyph unicode="&#x2122;" horiz-adv-x="1898" vert-adv-y="2580" d="M152 1647q0 25 12 43t43 18h479q31 0 48.5 -19.5t17.5 -41.5q0 -25 -13.5 -44.5t-42.5 -19.5h-479q-31 0 -48 19.5t-17 44.5zM313 944l72 670h121l-74 -699q-2 -18 -13 -37.5t-44 -19.5q-31 0 -48.5 20.5t-13.5 65.5zM815 932l78 723q4 33 21.5 43t41.5 10l54 -68 l-74 -718q-2 -20 -14.5 -40t-44.5 -20q-33 0 -48.5 21.5t-13.5 48.5zM928 1602l26 106q29 0 46.5 -10t25.5 -31l291 -684l-33 -125q-25 0 -37 11.5t-22 31.5zM1247 981l484 700q10 14 27.5 20.5t31.5 6.5l14 -137l-463 -676q-14 -18 -25 -27.5t-34 -9.5zM1645 930l71 653 l72 125q29 0 43 -17.5t10 -50.5l-76 -725q-2 -20 -14 -38.5t-45 -18.5q-29 0 -46.5 22.5t-14.5 49.5z" />
<glyph unicode="&#x25fc;" horiz-adv-x="849" vert-adv-y="1699" d="M0 0v850h850v-850h-850z" />
<glyph horiz-adv-x="1294" vert-adv-y="0" d="M78 78l153 1438q4 29 19.5 47t50.5 18t45 -20.5t6 -55.5l-153 -1429q-2 -25 -11.5 -50.5t-48.5 -25.5q-33 0 -48 25.5t-13 52.5zM274 866l140 -4l559 -731q4 -4 10 -11t14 -7q4 0 11.5 10t17.5 28.5t25 45.5l28 57q4 6 18.5 17.5t37.5 11.5q20 0 37.5 -13.5t19.5 -40.5 q2 -14 -6 -34.5t-37 -73.5q-35 -59 -65.5 -90t-90.5 -31q-39 0 -67.5 16.5t-40.5 30.5l-609 793zM274 877l773 673q23 18 41 25.5t34 5.5q23 0 37.5 -15.5t14.5 -37.5q-2 -16 -13.5 -32.5t-32.5 -35.5l-712 -622l-140 8z" />
<glyph horiz-adv-x="2131" vert-adv-y="0" d="M76 66l153 1450q4 29 17.5 47t52.5 18l49 -92l-151 -1421q-2 -20 -10.5 -44t-49.5 -24q-33 0 -49 19.5t-12 46.5zM287 1434l10 147q39 0 58.5 -16.5t23.5 -32.5l491 -1368l-16 -164q-27 0 -45 13.5t-25 29.5zM834 152l835 1390q10 16 19.5 27.5t42.5 11.5l-9 -186 l-809 -1352q-12 -16 -24 -29.5t-37 -13.5zM1538 190.5q-8 81.5 0 163.5l109 1030l86 197q35 0 45 -20.5t6 -55.5l-127 -1183q-2 -18 -2 -53.5t3 -71t12 -60t28 -24.5q10 0 19 10t21.5 28.5t26.5 45.5l31 57q4 6 18.5 17.5t34.5 11.5t38 -13.5t20 -40.5q4 -14 -5.5 -34.5 t-37.5 -73.5q-35 -59 -66 -90t-90 -31q-84 0 -123 54.5t-47 136z" />
<glyph horiz-adv-x="1306" vert-adv-y="0" d="M143 676q0 82 10.5 164t24.5 155q39 180 100.5 311.5t159 203t246.5 71.5q117 0 203 -41t140 -112.5t76.5 -165t12.5 -197.5q-12 -137 -50 -285.5t-98.5 -289t-142.5 -254t-182 -180t-217 -66.5q-80 0 -134 60.5t-88 159.5t-48.5 221t-12.5 245zM262 651q0 -82 8.5 -177 t25.5 -179t47 -138.5t73 -54.5q88 0 169 58.5t149.5 156t122.5 219t89 250.5t47 248q8 78 0 156t-40.5 141.5t-100.5 101t-178 37.5q-158 0 -244 -137t-137 -389q-14 -59 -21.5 -137t-9.5 -156zM444 287q-6 24 11 41q20 27 51 23.5t53 -25.5l318 -299q10 -8 20 -18.5 t18 -10.5t16.5 10t17.5 28.5t24 45.5l28 57q4 6 18.5 17.5t37.5 11.5q20 0 37.5 -12.5t19.5 -40.5q2 -14 -6 -34t-37 -73q-35 -61 -65.5 -92t-90.5 -31q-39 0 -70.5 15.5t-53.5 36.5l-314 299q-27 27 -33 51z" />
<glyph horiz-adv-x="1306" vert-adv-y="0" d="M78 80l151 1436q4 29 17.5 47t52.5 18t47 -20.5t4 -55.5l-151 -1429q-2 -27 -11.5 -51.5t-50.5 -24.5q-33 0 -47 24.5t-12 55.5zM236 776h163l586 -655q6 -4 12.5 -11.5t14.5 -7.5q4 0 10 10.5t16.5 29t24.5 44.5l29 58q4 8 18 18t37 10q20 0 37.5 -12t19.5 -41 q2 -14 -6 -33.5t-37 -72.5q-35 -61 -65.5 -92t-89.5 -31q-39 0 -68 17.5t-41 29.5zM238 739l10 113q147 0 279 11t237.5 44t171 96.5t76.5 165.5q12 96 -66 164t-236.5 102.5t-394.5 34.5l-6 111q264 0 454.5 -45t288 -138t83.5 -241q-12 -113 -63.5 -188.5t-135.5 -121.5 t-193.5 -68.5t-237.5 -31t-267 -8.5z" />
<glyph horiz-adv-x="1523" vert-adv-y="0" d="M117 444l119 1065q4 29 21 50.5t48 21.5q27 -2 43.5 -21.5t11.5 -46.5l-122 -1075q-8 -78 -11.5 -155.5t16 -129t76.5 -51.5q37 0 89.5 40t114 108.5t124 156t118.5 182.5t99 189q12 29 37 89.5t53.5 132t53 136t36.5 103.5l7 27h24l-67 -471l-56 -107 q-94 -201 -206.5 -358.5t-226 -248.5t-208.5 -91q-106 0 -163.5 108.5t-30.5 345.5zM930 190.5q-8 81.5 0 163.5l123 1174q4 29 21.5 40t37.5 11q27 0 47.5 -17.5t16.5 -45.5l-127 -1194q-2 -18 -2 -53.5t3 -71t12 -60t28 -24.5q10 0 19 10t21.5 28.5t26.5 45.5l31 57 q4 6 18.5 17.5t34.5 11.5t37.5 -13.5t19.5 -40.5q4 -14 -5 -34.5t-38 -73.5q-35 -59 -65.5 -90t-89.5 -31q-84 0 -123 54.5t-47 136z" />
<glyph horiz-adv-x="946" vert-adv-y="0" d="M37 295q0 82 22.5 178t67.5 182t113.5 141.5t162.5 55.5h62.5h83.5h55l-12 -123h-48h-77h-55q-66 0 -114 -45t-79 -112.5t-46 -139.5t-15 -125q0 -119 20.5 -156.5t69.5 -37.5q53 0 147 117.5t191 355.5l-31 -322q-66 -117 -146.5 -195.5t-179.5 -78.5q-45 0 -90 25.5 t-73.5 92t-28.5 187.5zM532 354l52 498q51 0 77.5 -10.5t34.5 -29.5t4 -44l-49 -446q0 -8 -1 -41t3 -72t13.5 -67.5t27.5 -28.5q8 0 18.5 10t23 28.5t26.5 45.5l29 57q4 6 18 17.5t35 11.5q20 0 38.5 -13.5t20.5 -40.5q2 -14 -7 -34.5t-38 -73.5q-33 -59 -63.5 -90 t-92.5 -31q-84 0 -122.5 54.5t-47 136t-0.5 163.5z" />
<glyph horiz-adv-x="946" vert-adv-y="0" d="M37 295q0 82 22.5 178t67.5 182t113.5 141.5t162.5 55.5h62.5h83.5h55l-12 -123h-48h-77h-55q-66 0 -114 -46t-79 -114.5t-46 -139.5t-15 -122q0 -119 20.5 -161t69.5 -42q53 0 147 122t191 360l-31 -322q-43 -78 -94 -140.5t-108.5 -98t-123.5 -35.5q-45 0 -90 25.5 t-73.5 92t-28.5 187.5zM532 354l123 1162q4 31 27 48t45 17q25 0 40 -15.5t11 -49.5l-127 -1194q0 -8 -1 -41t3 -72t13.5 -67.5t27.5 -28.5q8 0 18.5 10t23 28.5t26.5 45.5l29 57q4 6 18 17.5t35 11.5q20 0 38.5 -13.5t20.5 -40.5q2 -14 -7 -34.5t-38 -73.5 q-33 -59 -63.5 -90t-92.5 -31q-84 0 -122.5 54.5t-47 136t-0.5 163.5z" />
<glyph horiz-adv-x="651" vert-adv-y="0" d="M47 799q0 23 12.5 38t46.5 15h476q37 0 51 -15.5t14 -37.5q0 -23 -11 -40.5t-48 -17.5h-473q-37 0 -52.5 17.5t-15.5 40.5zM127 -664l207 1946q10 109 50 174.5t97.5 95t116.5 29.5q35 0 68.5 -4t66.5 -14q14 -6 28.5 -24.5t2.5 -51.5q-12 -35 -39 -37t-41 0 q-18 6 -37.5 8t-40.5 2q-59 0 -101 -45t-52 -155l-205 -1928q-2 -20 -14.5 -42.5t-43.5 -22.5q-33 0 -49 23.5t-14 45.5z" />
<glyph horiz-adv-x="952" vert-adv-y="0" d="M23 55l155 1461q4 35 25.5 50t44.5 15q25 0 40 -15t11 -50l-156 -1461q-2 -29 -22.5 -42t-42.5 -13q-23 0 -41.5 14.5t-13.5 40.5zM143 276l25 322q80 123 155.5 193.5t176.5 70.5q70 0 113.5 -44t63 -111.5t11.5 -137.5l-26 -256q-10 -92 -4 -144t30 -52q10 0 19.5 9 t22.5 26.5t30 44.5l35 57q6 6 21 17.5t36 11.5q20 0 37.5 -13.5t17.5 -40.5q0 -14 -9 -34.5t-44 -73.5q-39 -59 -70.5 -90t-93.5 -31q-80 0 -114.5 47t-39 120t4.5 152l26 250q4 33 -3 73t-24.5 69.5t-47.5 29.5q-76 0 -155 -107.5t-194 -357.5z" />
<glyph horiz-adv-x="471" vert-adv-y="0" d="M58.5 193.5q-7.5 82.5 0.5 164.5l45 428q4 33 25 49.5t43 16.5q23 0 40 -18.5t13 -55.5l-47 -454q-2 -18 -3 -53t3 -71t13.5 -60.5t27.5 -24.5q8 0 18.5 10t22.5 28.5t27 45.5l28 57q4 6 18.5 17.5t37.5 11.5q20 0 37.5 -12.5t19.5 -41.5q2 -14 -6 -33.5t-37 -72.5 q-35 -61 -65.5 -92t-90.5 -31q-84 0 -123.5 54.5t-47 137zM137 1139q0 29 20.5 47t47.5 18q29 0 47 -18.5t18 -46.5q0 -27 -18 -47.5t-47 -20.5q-27 0 -47.5 20.5t-20.5 47.5z" />
<glyph horiz-adv-x="864" vert-adv-y="0" d="M23 63l155 1450q4 31 18.5 49.5t41.5 18.5q29 0 47 -15.5t14 -54.5l-156 -1448q-2 -35 -20.5 -49t-46.5 -14q-25 0 -41.5 17.5t-11.5 45.5zM147 385l11 233q29 31 58.5 72t57.5 66q53 47 111.5 76.5t118.5 29.5q53 0 88 -25.5t54.5 -65.5t25.5 -81t2 -72 q-4 -53 -59.5 -103t-120.5 -89q-20 -12 -61.5 -28.5t-79.5 -29t-54 -18.5l-152 76q35 12 94.5 31.5t116 40t80.5 34.5q51 31 81 60t36 76q2 23 -14.5 48t-40.5 25q-37 0 -74 -22.5t-72 -50.5q-20 -18 -45.5 -55.5t-50.5 -74t-43 -59.5q-14 -14 -35 -46t-33 -48zM147 426h166 l269 -285q8 -8 17 -18t17 -10t17.5 10t20 28.5t24.5 45.5l31 57q4 6 18 17.5t35 11.5q20 0 37.5 -13.5t19.5 -40.5q4 -14 -5 -34.5t-38 -73.5q-35 -59 -65.5 -90t-89.5 -31q-39 0 -70.5 15.5t-54.5 35.5z" />
<glyph horiz-adv-x="466" vert-adv-y="0" d="M53 193.5q-8 82.5 0 164.5l125 1172q4 29 20.5 40t37.5 11q27 0 47 -17.5t16 -45.5l-127 -1194q-2 -18 -2 -53t4 -71t13.5 -60.5t27.5 -24.5q8 0 18.5 10t22.5 28.5t27 45.5l28 57q4 6 18.5 17.5t35.5 11.5q20 0 38.5 -12.5t20.5 -41.5q2 -14 -7 -33.5t-38 -72.5 q-33 -61 -63.5 -92t-92.5 -31q-84 0 -123 54.5t-47 137z" />
<glyph horiz-adv-x="1415" vert-adv-y="0" d="M23 55l77 731q4 35 23.5 50.5t54.5 15.5q31 0 39 -17.5t4 -48.5l-78 -731q-2 -8 -9 -31.5t-54 -23.5q-39 0 -49.5 20.5t-7.5 34.5zM129 276l25 322q80 123 154.5 193.5t174.5 70.5q72 0 116 -44t63.5 -111.5t11.5 -137.5l-56 -514q-2 -8 -10 -31.5t-55 -23.5 q-39 0 -49 20.5t-8 34.5l57 514q4 33 -3 73t-24.5 69.5t-48.5 29.5q-76 0 -154.5 -107.5t-193.5 -357.5zM604 276l25 322q80 123 154.5 193.5t174.5 70.5q72 0 116 -44t63.5 -111.5t11.5 -137.5l-27 -247q-2 -18 -3 -53.5t3 -71t13.5 -60t27.5 -24.5q8 0 18.5 10t23 28.5 t26.5 45.5l29 57q4 6 18 17.5t37 11.5q20 0 37.5 -13.5t19.5 -40.5q2 -14 -6 -34.5t-37 -73.5q-35 -59 -65.5 -90t-89.5 -31q-86 0 -126 51t-47.5 133t0.5 170l25 215q4 33 -2 73t-23.5 69.5t-48.5 29.5q-76 0 -155.5 -107.5t-192.5 -357.5z" />
<glyph horiz-adv-x="942" vert-adv-y="0" d="M23 55l77 731q2 23 11.5 37.5t26 21.5t40.5 7q31 0 39 -17.5t4 -48.5l-78 -731q-2 -8 -9 -31.5t-54 -23.5q-39 0 -49.5 20.5t-7.5 34.5zM129 276l25 322q80 123 154.5 193.5t174.5 70.5q72 0 116 -44t63.5 -111.5t11.5 -137.5l-27 -247q-2 -20 -2 -54.5t3 -70t12.5 -60 t27.5 -24.5q10 0 19.5 10t21.5 28.5t27 45.5l30 57q4 6 18.5 17.5t35.5 11.5q20 0 37.5 -13.5t19.5 -40.5q4 -14 -5 -34.5t-38 -73.5q-35 -59 -65.5 -90t-90.5 -31q-84 0 -123.5 51t-48 133t1.5 170l25 215q4 33 -3 73t-24.5 69.5t-48.5 29.5q-76 0 -154.5 -107.5 t-193.5 -357.5z" />
<glyph horiz-adv-x="870" vert-adv-y="0" d="M31 231q2 102 22.5 211t63.5 202t114.5 150.5t174.5 57.5q86 0 150.5 -32t99 -87t26.5 -129q-8 -66 -36 -147.5t-72 -163.5t-98 -150.5t-113.5 -110.5t-120.5 -42q-49 0 -98.5 22.5t-81 75.5t-31.5 143zM156 256q-2 -51 16.5 -97t69.5 -46q35 0 84 47t99 120.5t87 158.5 t45 161q8 74 -35 101.5t-116 27.5q-68 0 -115 -47t-77 -121t-43 -154.5t-15 -150.5zM526 700l15 127l223 -71q23 -6 33 -15.5t14 -19.5q10 -23 4 -40t-22 -30q-18 -12 -40 -13t-44 5z" />
<glyph horiz-adv-x="778" vert-adv-y="0" d="M-8 799q0 23 12 38t49 15h545q37 0 51.5 -15.5t14.5 -37.5q0 -23 -10.5 -40.5t-47.5 -17.5h-545q-37 0 -53 17.5t-16 40.5zM219 190.5q-8 81.5 0 163.5l127 1176q4 27 20.5 39t36.5 12q27 0 47.5 -17.5t16.5 -50.5l-129 -1191q-2 -18 -2 -53.5t3 -71t12 -60t28 -24.5 q10 0 20.5 10t22.5 28.5t27 45.5l28 57q4 6 18.5 17.5t34.5 11.5t38 -13.5t20 -40.5q4 -14 -5.5 -34.5t-37.5 -73.5q-33 -59 -64.5 -90t-91.5 -31q-84 0 -123 54.5t-47 136z" />
<glyph horiz-adv-x="944" vert-adv-y="0" d="M47 283l55 512q2 10 10.5 33.5t55.5 23.5q41 0 49 -20.5t6 -36.5l-55 -512q-4 -33 2 -74t24.5 -70.5t49.5 -29.5q78 0 156.5 108.5t191.5 355.5l-25 -319q-53 -82 -103 -141.5t-105.5 -91t-122.5 -31.5q-70 0 -115 44t-63.5 111.5t-10.5 137.5zM528.5 181 q-8.5 81 1.5 173l50 441q2 10 10 33.5t55 23.5q41 0 49 -20.5t6 -36.5l-51 -473q-2 -18 -2 -53.5t3 -71t12.5 -60t27.5 -24.5q10 0 20.5 10t22.5 28.5t27 45.5l28 57q4 6 18.5 17.5t35.5 11.5q20 0 38.5 -13.5t20.5 -40.5q2 -14 -7 -34.5t-38 -73.5q-33 -59 -64.5 -90 t-91.5 -31q-84 0 -123.5 50t-48 131z" />
<glyph horiz-adv-x="940" vert-adv-y="0" d="M43 248l57 538q4 33 27 49.5t43 16.5q25 0 40 -18.5t11 -55.5l-55 -530q-2 -27 -5 -58.5t5 -53t33 -21.5q31 0 68.5 36.5t74.5 91t67.5 110t45.5 91.5q35 84 65.5 172.5t57.5 167.5q8 25 26.5 46.5t50.5 21.5q25 0 36 -11.5t13.5 -30.5t-6.5 -46q-16 -53 -43.5 -130 t-57.5 -156t-56 -142q-37 -84 -94.5 -164t-126 -131t-142.5 -51q-51 0 -84 38t-45 97t-6 123zM659 723l15 127l164 -49q23 -8 33 -17.5t12 -19.5q10 -20 4 -38.5t-21 -29.5q-18 -14 -40.5 -16t-45.5 6z" />
<glyph horiz-adv-x="1384" vert-adv-y="0" d="M43 248l57 538q4 33 27 49.5t43 16.5q25 0 40 -18.5t11 -55.5l-55 -530q-2 -27 -5 -58.5t5 -53t33 -21.5q31 0 68.5 36.5t74.5 91t67.5 110t45.5 91.5q35 84 65.5 172.5t57.5 167.5q8 25 26.5 46.5t50.5 21.5l-59 -377l-55 -139q-35 -84 -92.5 -164t-127 -131t-143.5 -51 q-51 0 -84 38t-45 97t-6 123zM526 248l23 229l102 375q25 0 40 -18.5t11 -55.5l-55 -530q-2 -27 -4 -58.5t6 -53t33 -21.5q31 0 68.5 36.5t73.5 91t67 110t45 91.5q35 84 65.5 172.5t57.5 167.5q10 25 27.5 46.5t50.5 21.5q25 0 37 -11.5t13 -30.5t-7 -46q-16 -53 -43 -130 t-57.5 -156t-57.5 -142q-37 -84 -94.5 -164t-126 -131t-142.5 -51q-51 0 -83.5 38t-45 97t-4.5 123zM1141 723l14 127l164 -49q23 -8 33 -17.5t12 -19.5q10 -20 5 -38.5t-21 -29.5q-18 -14 -40 -16t-44 6z" />
<glyph horiz-adv-x="854" vert-adv-y="0" d="M10 51q-4 12 1 24.5t16 28.5l542 725q8 10 20.5 15.5t26.5 7.5q12 0 24.5 -2t21.5 -12q20 -20 20 -43q2 -16 -5 -25.5t-15 -19.5l-543 -725q-8 -8 -20.5 -16.5t-28.5 -8.5q-12 0 -21.5 3t-17.5 11q-8 10 -13.5 19.5t-7.5 17.5zM86 795q4 29 18 39q23 18 43 18q16 0 33 -9 t25 -26l368 -686q4 -8 15.5 -18.5t17.5 -10.5q8 0 17.5 10.5t20.5 29t26 44.5l28 58q4 8 18.5 18t35.5 10q20 0 38.5 -12t20.5 -41q2 -14 -7 -33.5t-38 -72.5q-33 -61 -64.5 -92t-91.5 -31q-39 0 -73.5 16.5t-49.5 42.5l-385 703q-6 10 -10 21t-6 22z" />
<glyph horiz-adv-x="804" vert-adv-y="0" d="M23.5 61.5q-3.5 22.5 15.5 44.5l549 723q8 10 21.5 15.5t25.5 7.5q12 0 25.5 -2t21.5 -12q12 -14 17.5 -34.5t-17.5 -51.5l-551 -725q-8 -8 -19.5 -17.5t-25.5 -9.5q-27 0 -39 14q-20 25 -23.5 47.5zM80 0l90 121q23 0 58.5 8t71.5 15.5t58 7.5q43 0 71 -9.5t57.5 -19.5 t74.5 -10q10 0 20.5 9t24 28.5t25.5 46.5l26 57q4 6 14.5 17.5t30.5 11.5t39 -13.5t21 -40.5q2 -14 -7.5 -34.5t-37.5 -73.5q-33 -59 -63.5 -90t-92.5 -31q-57 0 -84.5 10t-50.5 19.5t-72 9.5q-35 0 -86 -9.5t-101 -19.5t-87 -10zM100 791q0 23 12.5 42t47.5 19h479 l-90 -123h-381q-37 0 -52.5 20.5t-15.5 41.5z" />
<glyph horiz-adv-x="655" vert-adv-y="0" d="M-61 86l374 832q8 18 18.5 31.5t37.5 13.5q35 0 52 -22.5t11 -51.5l-2 -17l-369 -821q-14 -27 -27.5 -39t-41.5 -12q-31 0 -49.5 26.5t-3.5 59.5zM119 426l49 100h276l19 -100h-344zM317 870l117 50l133 -852q4 -33 -11 -50.5t-44 -17.5q-33 0 -48 19.5t-20 41.5z" />
<glyph horiz-adv-x="845" vert-adv-y="0" d="M76 78l84 819q4 35 20.5 50.5t42.5 15.5q29 0 46.5 -20.5t13.5 -59.5l-86 -817q-2 -33 -18.5 -49.5t-39.5 -16.5q-29 0 -48 23.5t-15 54.5zM133 0l12 121q201 -2 310.5 22.5t117.5 100.5q8 80 -88 126t-276 46l10 129q100 0 189.5 -21.5t156 -63.5t101 -101.5 t28.5 -135.5q-10 -90 -69.5 -139t-179 -66.5t-312.5 -17.5zM207 840l14 123q109 0 206 -16.5t170 -50.5t112 -87t30 -125q-6 -63 -28.5 -112.5t-77.5 -84t-155.5 -53t-260.5 -18.5l12 129q170 0 251 17.5t107.5 52t30.5 81.5q6 53 -45 85t-146 46.5t-220 12.5z" />
<glyph horiz-adv-x="782" vert-adv-y="0" d="M96 412q0 74 25.5 167t76 181t127 145.5t179.5 57.5q49 0 112.5 -9.5t96.5 -21.5q27 -8 34 -27.5t-8 -48.5q-14 -31 -38.5 -36t-47.5 3q-16 6 -42.5 10.5t-55.5 6.5t-51 2q-72 0 -126 -46t-90 -116t-53.5 -142.5t-17.5 -125.5q0 -61 12.5 -131t39 -119t65.5 -49 q33 0 76 35.5t89 96t83 130.5q10 20 36.5 18t40.5 -8q12 -8 25.5 -28t3.5 -38q-43 -86 -101.5 -161.5t-123 -121.5t-129.5 -46q-68 0 -122 51t-85 146.5t-31 224.5z" />
<glyph horiz-adv-x="813" vert-adv-y="0" d="M76 70l88 827q4 35 17.5 50.5t43.5 15.5q35 0 49.5 -28t10.5 -63l-88 -819q-2 -18 -12.5 -35.5t-43.5 -17.5t-51 21.5t-14 48.5zM139 0l45 121h37q92 0 175 46t139.5 135t68.5 218q10 90 -29.5 160t-113.5 110.5t-168 40.5h-33l-37 132h51q96 0 182.5 -35t150 -96.5 t96 -143.5t22.5 -178q-14 -160 -86 -273.5t-179.5 -175t-230.5 -61.5h-90z" />
<glyph horiz-adv-x="759" vert-adv-y="0" d="M76 70l90 839q2 25 16.5 39.5t46.5 14.5q33 0 46.5 -18.5t9.5 -49.5l-88 -840q-2 -20 -14.5 -37.5t-43.5 -17.5t-49 20.5t-14 49.5zM133 0l45 125h428q31 0 48.5 -19.5t17.5 -42.5q0 -27 -14.5 -45t-41.5 -18h-483zM217 463l8 117h400q33 0 49 -17.5t16 -42.5 q0 -23 -12 -40t-43 -17h-418zM233 963h465q33 0 50.5 -17.5t17.5 -40.5q0 -27 -14.5 -45t-42.5 -18h-449z" />
<glyph horiz-adv-x="704" vert-adv-y="0" d="M76 70l90 839q2 25 15.5 39.5t43.5 14.5q33 0 48.5 -19.5t11.5 -48.5l-90 -840q-2 -18 -13.5 -36.5t-44.5 -18.5t-49 21.5t-12 48.5zM207 463l10 117h395q29 0 47.5 -16.5t18.5 -43.5q0 -25 -13.5 -41t-41.5 -16h-416zM225 963h475q31 0 48.5 -14.5t17.5 -39.5t-12.5 -46 t-42.5 -21h-457z" />
<glyph horiz-adv-x="819" vert-adv-y="0" d="M97 301q-1 43 0 87t3 80t4 52q2 12 7.5 60.5t26 112t64.5 126t122.5 103.5t203.5 41q72 0 131.5 -35t75.5 -109q4 -20 -2 -42.5t-33 -26.5q-23 -8 -47 5t-30 36q-8 31 -24.5 41t-57.5 10q-92 0 -150.5 -28t-91.5 -71t-48 -89t-19.5 -84t-6.5 -56q-2 -29 -4 -82t-2 -111.5 t2 -103.5q4 -45 14.5 -72.5t32.5 -27.5q31 0 66 32.5t70.5 79.5t64.5 94.5t47 75.5q47 80 67.5 111t33 34t30.5 3l-55 -266q-49 -76 -101.5 -142.5t-106.5 -107.5t-114 -41q-57 0 -94 36.5t-54.5 91t-21.5 105.5q-2 35 -3 78zM539 70l45 413q0 18 7 32.5t21.5 23t34.5 8.5 q18 0 31.5 -8.5t20.5 -23.5t3 -38l-43 -416q-2 -25 -16 -44t-47 -17q-31 2 -46 23.5t-11 46.5z" />
<glyph horiz-adv-x="849" vert-adv-y="0" d="M76 70l90 839q2 27 18.5 40.5t44.5 13.5q25 0 42.5 -16.5t13.5 -51.5l-88 -840q-2 -20 -14.5 -37.5t-43.5 -17.5t-49 20.5t-14 49.5zM211 463l12 117h414l-12 -117h-414zM555 70l90 848q2 23 16.5 34t40.5 11q33 0 49.5 -18.5t12.5 -47.5l-90 -844q-2 -20 -16.5 -36.5 t-41.5 -16.5q-35 0 -50 21.5t-11 48.5z" />
<glyph horiz-adv-x="468" vert-adv-y="0" d="M125 70l90 839q4 29 17.5 41.5t41.5 12.5q31 0 48.5 -16.5t13.5 -51.5l-90 -842q-2 -10 -13.5 -31.5t-48.5 -21.5q-31 0 -47 21.5t-12 48.5z" />
<glyph horiz-adv-x="589" vert-adv-y="0" d="M-30 136.5q-3 25.5 18 45.5q20 18 49 11t53 -35q16 -20 33.5 -32.5t42.5 -12.5q33 0 57.5 7t38.5 23q29 29 39 73t14 95l64 596q6 29 20.5 42.5t40.5 13.5q33 0 49.5 -19.5t12.5 -52.5l-64 -590q-6 -53 -17 -100t-30.5 -85t-48.5 -65q-31 -27 -72 -44t-98 -17 q-39 0 -69.5 12t-56.5 32.5t-46 43.5q-27 33 -30 58.5z" />
<glyph horiz-adv-x="690" vert-adv-y="0" d="M78 78l88 817q4 37 19.5 52.5t43.5 15.5q31 0 45.5 -22.5t10.5 -59.5l-86 -815q-2 -23 -14.5 -44.5t-43.5 -21.5q-29 0 -47 23.5t-16 54.5zM197 549l458 387q16 16 30.5 21.5t35.5 5.5q20 -2 33.5 -19.5t13.5 -34.5q0 -14 -7 -31.5t-24 -33.5l-424 -361l-110 11zM197 555 l116 -2l342 -451q23 -33 21 -59q-4 -20 -19.5 -31.5t-33.5 -11.5q-39 0 -66 39l-354 465z" />
<glyph horiz-adv-x="741" vert-adv-y="0" d="M78 70l90 839q4 33 20.5 43.5t42.5 10.5q31 0 45.5 -18.5t10.5 -49.5l-90 -840q-2 -18 -13.5 -36.5t-42.5 -18.5t-49 20.5t-14 49.5zM123 0l57 125h432q29 0 47.5 -19.5t18.5 -42.5q0 -25 -13.5 -44t-41.5 -19h-500z" />
<glyph horiz-adv-x="1202" vert-adv-y="0" d="M76 70l90 839q4 35 21.5 44.5t41.5 9.5l54 -68l-86 -834q-2 -23 -14.5 -42t-45.5 -19t-49 21.5t-12 48.5zM199 856l26 107q29 0 49.5 -10.5t24.5 -30.5l285 -797l-31 -125q-27 0 -40 10t-21 31zM516 121l485 815q10 16 29 21.5t33 5.5l16 -138l-471 -788 q-10 -20 -23.5 -28.5t-35.5 -8.5zM905 70l82 770l74 123q29 0 43 -16.5t10 -51.5l-88 -840q-2 -20 -14 -37.5t-45 -17.5q-29 0 -46.5 21.5t-15.5 48.5z" />
<glyph horiz-adv-x="851" vert-adv-y="0" d="M76 70l90 839q2 18 15.5 36t49.5 18l43 -172l-77 -730q-2 -25 -14.5 -43t-43.5 -18t-49 20.5t-14 49.5zM221 795l8 168q35 0 52.5 -16.5t23.5 -28.5l313 -791l-8 -127q-39 0 -59.5 10t-30.5 31zM557 90l86 805q2 25 16.5 46.5t49.5 21.5t46 -24t9 -44l-88 -842 q-2 -10 -15.5 -31.5t-54.5 -21.5z" />
<glyph horiz-adv-x="854" vert-adv-y="0" d="M143 426q0 86 12.5 179t47.5 175t99.5 132.5t168.5 50.5q100 0 170 -46.5t101.5 -118t21.5 -153.5q-10 -100 -39 -213t-78 -211t-120 -159.5t-165 -61.5q-59 0 -102 38t-68.5 101.5t-38 138t-10.5 148.5zM264 406q-2 -53 10.5 -121t34.5 -116t53 -48q57 0 104.5 50 t84.5 130t60.5 172t31.5 174q4 35 -8 81t-50 80t-114 34q-68 0 -106.5 -39t-59 -102.5t-29 -140.5t-12.5 -154z" />
<glyph horiz-adv-x="710" vert-adv-y="0" d="M76 76l90 839q2 20 16.5 34t46.5 14q33 0 46.5 -15.5t9.5 -46.5l-88 -840q-2 -20 -13.5 -40.5t-44.5 -20.5q-29 0 -48 22.5t-15 53.5zM217 455l6 125q100 0 189.5 4t146.5 31.5t64 99.5q6 45 -36 75.5t-130 46t-219 15.5l-9 111q109 0 205 -13.5t169 -45.5t111 -82 t31 -124q-10 -94 -59 -144t-123 -70.5t-164 -24.5t-182 -4z" />
<glyph horiz-adv-x="854" vert-adv-y="0" d="M143 426q0 86 12.5 179t47.5 175t99.5 132.5t168.5 50.5q100 0 170 -46.5t101.5 -118t21.5 -153.5q-10 -100 -39 -213t-78 -211t-120 -159.5t-165 -61.5q-59 0 -102 38t-68.5 101.5t-38 138t-10.5 148.5zM264 406q-2 -53 10.5 -121t34.5 -116t53 -48q57 0 104.5 50 t84.5 130t60.5 172t31.5 174q4 35 -8 81t-50 80t-114 34q-68 0 -106.5 -39t-59 -102.5t-29 -140.5t-12.5 -154zM365 211.5q-3 24.5 8 38.5q18 23 44.5 24t51.5 -24l205 -191q23 -23 24.5 -51t-16.5 -45q-18 -14 -44 -10t-50 24l-195 187q-25 23 -28 47.5z" />
<glyph horiz-adv-x="811" vert-adv-y="0" d="M78 78l90 831q4 29 16.5 41.5t44.5 12.5q31 0 45.5 -16.5t12.5 -51.5l-88 -829q-2 -27 -14.5 -46.5t-45.5 -19.5q-27 0 -45 21.5t-16 56.5zM180 532l164 -14l320 -424q14 -14 15 -31.5t-5 -27.5q-8 -14 -22.5 -24.5t-33.5 -10.5q-14 0 -28.5 8t-30.5 27zM219 455l6 125 h140.5t126 10t94.5 37.5t43 83.5q6 70 -91.5 100.5t-316.5 28.5l8 123q127 0 226.5 -14.5t167 -46.5t99.5 -83t26 -125q-8 -76 -42 -122t-87.5 -71.5t-119 -34.5t-137 -10t-143.5 -1z" />
<glyph horiz-adv-x="741" vert-adv-y="0" d="M35 145q-6 23 1 44.5t32 27.5t49 -5t28 -34q6 -25 34 -44t67 -19q123 0 193.5 42t78.5 126q6 47 -22.5 80.5t-77.5 64.5t-107 64q-59 35 -111.5 70.5t-82 78.5t-23.5 96q6 59 51 110.5t119 83.5t168 32q117 0 181.5 -33t84.5 -113q4 -20 -3 -42.5t-31 -26.5 q-23 -8 -50.5 3t-31.5 35q-2 29 -31 41.5t-109 12.5q-51 0 -102 -16.5t-86 -45t-39 -63.5q-2 -18 25.5 -40t73.5 -47.5t100 -60.5q41 -25 82 -56.5t74.5 -68t53 -81t13.5 -97.5q-8 -94 -60.5 -154.5t-135.5 -90t-187 -29.5q-80 0 -140.5 41t-78.5 114z" />
<glyph horiz-adv-x="559" vert-adv-y="0" d="M43 903q0 23 13.5 41.5t43.5 18.5h480q31 0 48 -18.5t17 -41.5q0 -27 -14 -45t-43 -18h-479q-31 0 -48.5 18.5t-17.5 44.5zM195 86l81 782h123l-86 -813q-2 -18 -13 -36.5t-44 -18.5q-31 0 -49.5 20.5t-11.5 65.5z" />
<glyph horiz-adv-x="847" vert-adv-y="0" d="M90 289l68 618q4 27 21.5 41.5t41.5 14.5q29 -2 46.5 -19.5t13.5 -42.5l-68 -627q-8 -68 -8 -114.5t26 -46.5q35 0 83 38.5t99.5 98t96.5 125t74 119.5q6 10 13 22t13 29l-28 -287q-90 -123 -186.5 -195.5t-166.5 -72.5q-76 0 -115.5 74.5t-23.5 224.5zM551 82l86 833 q4 23 20.5 35.5t42.5 12.5q33 0 48.5 -15.5t11.5 -44.5l-90 -850q-2 -25 -17.5 -39t-38.5 -14q-33 0 -51 19.5t-12 62.5z" />
<glyph horiz-adv-x="747" vert-adv-y="0" d="M152 907q-4 29 10 42.5t41 13.5q31 0 49 -14.5t20 -39.5l80 -764l-43 -145q-29 0 -48 19.5t-23 46.5zM276 145l353 779q8 18 22.5 28.5t42.5 10.5q31 0 48.5 -21.5t2.5 -56.5l-378 -836q-10 -20 -23.5 -34.5t-38.5 -14.5z" />
<glyph horiz-adv-x="1236" vert-adv-y="0" d="M152 905q-4 27 10 42.5t41 15.5q33 0 50 -14.5t19 -35.5l82 -774l-41 -139q-31 0 -49 17.5t-22 45.5zM272 133l357 789q6 16 21.5 28.5t37.5 12.5l23 -156l-340 -754q-8 -18 -19.5 -35.5t-40.5 -17.5zM649 807l37 156q31 0 52.5 -13.5t23.5 -36.5l80 -759l-47 -154 q-29 0 -45.5 19.5t-20.5 31.5zM766 145l350 779q10 18 24.5 28.5t39.5 10.5q47 0 55 -28t-2 -50l-377 -836q-10 -20 -22 -34.5t-43 -14.5z" />
<glyph horiz-adv-x="657" vert-adv-y="0" d="M-25.5 56q-3.5 24 11.5 42l565 838q16 27 43 30t47 -12q18 -14 22 -40.5t-12 -49.5l-561 -839q-10 -16 -27.5 -22.5t-34 -2.5t-30.5 14q-20 18 -23.5 42zM72 931q6 23 28 30q23 8 47.5 2t36.5 -35l385 -840q10 -20 8 -45t-22 -35q-27 -14 -54.5 -4t-41.5 37l-381 838 q-12 29 -6 52z" />
<glyph horiz-adv-x="837" vert-adv-y="0" d="M148.5 52q-3.5 22 11.5 42l555 836q20 29 45.5 32t44.5 -10q18 -14 22 -41.5t-12 -52.5l-555 -833q-16 -25 -43 -26t-45 15q-20 16 -23.5 38zM227.5 921.5q1.5 24.5 28.5 36.5q29 12 56.5 -3t37.5 -37l178 -359l-84 -104l-208 417q-10 25 -8.5 49.5z" />
<glyph horiz-adv-x="686" vert-adv-y="0" d="M5 66.5q5 19.5 13 33.5l562 836q16 27 41 27q45 0 61 -29q10 -14 8 -36t-14 -36l-553 -825q-14 -18 -24.5 -27.5t-20.5 -9.5q-25 0 -41.5 8t-26.5 23q-10 16 -5 35.5zM76 0l82 121h381q29 0 46 -17.5t19 -42.5q2 -23 -11 -42t-46 -19h-471zM96 903q-2 23 11.5 41.5 t44.5 18.5h475l-88 -121h-377q-33 0 -48.5 17.5t-17.5 43.5z" />
<glyph horiz-adv-x="806" vert-adv-y="0" d="M76 281q-4 59 5 145t36.5 179t74 174t117 132.5t166.5 51.5q94 0 149.5 -46.5t81 -114t29.5 -130.5q6 -86 -18.5 -180.5t-69.5 -181.5t-103.5 -157.5t-123.5 -112.5t-131 -42q-68 0 -114 43t-69.5 108.5t-29.5 131.5zM197 270q6 -80 31.5 -117.5t54.5 -37.5q37 0 94 44 t114.5 121.5t93.5 179t27 216.5q-4 68 -29.5 119t-93.5 51q-78 0 -135 -60.5t-94 -152.5t-52 -190.5t-11 -172.5z" />
<glyph horiz-adv-x="567" vert-adv-y="0" d="M170 63l90 844q2 20 12.5 31.5t24.5 18t29 6.5q14 0 28.5 -7.5t23.5 -20t7 -32.5l-90 -852q-2 -18 -13.5 -29.5t-24.5 -16.5t-26 -5q-16 0 -30.5 7t-23.5 21.5t-7 34.5z" />
<glyph horiz-adv-x="657" vert-adv-y="0" d="M-33 41q-2 18 17 41q100 123 183 224.5t140.5 170t75.5 92.5q39 51 68.5 103.5t36 95.5t-28.5 61q-35 20 -88.5 19.5t-107.5 -19t-93 -53.5q-33 -31 -61.5 -29.5t-45.5 15.5q-16 18 -17 40.5t32 53.5q51 45 128 76t158.5 34t143.5 -36q115 -63 102.5 -170t-157.5 -297 q-8 -10 -44 -54t-83 -104.5t-94.5 -121t-77.5 -101.5l-82 -82h-43q-25 0 -42.5 11.5t-19.5 29.5zM51 117h416q37 0 51 -20.5t14 -37.5q4 -18 -8 -38.5t-49 -20.5h-416z" />
<glyph horiz-adv-x="688" vert-adv-y="0" d="M-7 98.5q1 20.5 9 32.5q6 10 31.5 21.5t64.5 -13.5q23 -16 44.5 -23t47.5 -7q70 0 139.5 35.5t116 98t41.5 140.5q-4 47 -28.5 79t-87.5 32q-35 0 -82.5 -13.5t-110.5 -42.5l-45 111q59 33 115.5 46t105.5 13q113 0 179.5 -61.5t74.5 -163.5q6 -82 -29.5 -152.5t-97 -124 t-136.5 -84t-148 -30.5q-43 0 -85 13t-75 38q-45 35 -44 55.5zM69 820q-1 26 33 48q70 47 143.5 71t133.5 24q78 0 134 -35t58 -97q4 -53 -50 -117.5t-141 -132t-183 -137.5q-16 -10 -36 -9t-35 10.5t-22 19.5q-4 12 -6 35.5t23 42.5q49 33 106.5 74.5t108.5 84.5t83 78 t32 51q0 23 -54 23q-43 0 -102 -20.5t-131 -71.5q-23 -16 -49.5 -8t-34.5 26q-10 14 -11 40z" />
<glyph horiz-adv-x="694" vert-adv-y="0" d="M90 283l70 626q4 29 23.5 41.5t37.5 12.5q25 0 45.5 -15.5t16.5 -50.5l-72 -621q0 -20 -13.5 -37.5t-41.5 -17.5q-31 0 -48.5 18.5t-17.5 43.5zM131 328h508q29 0 47.5 -14.5t20.5 -37.5q2 -20 -14.5 -37.5t-45.5 -17.5h-508zM324 70l49 422q4 31 25.5 44t43.5 9 q20 -4 37 -22.5t13 -47.5l-48 -420q-2 -31 -23.5 -43t-37.5 -12q-27 0 -44 18.5t-15 51.5z" />
<glyph horiz-adv-x="718" vert-adv-y="0" d="M51 106q-2 23 15.5 37.5t37.5 14.5q10 0 25.5 -4t26.5 -15q16 -14 38.5 -23.5t51.5 -9.5q74 0 129 44.5t86 103.5t28 108q-4 47 -45 90.5t-129 43.5q-33 0 -70.5 -6.5t-90.5 -22.5l-21 115q49 16 88 23t78 7q90 0 158.5 -34.5t108.5 -91t44 -121.5q4 -55 -19.5 -120 t-70.5 -123.5t-114.5 -95t-151.5 -36.5q-53 0 -96 17.5t-76 43.5q-14 14 -22.5 29.5t-8.5 25.5zM92 526l41 379q4 12 9 24.5t16 16.5q8 10 26.5 15.5t30.5 -0.5l41 -58l-39 -383q-2 -25 -21.5 -38t-39.5 -13q-27 0 -46.5 15.5t-17.5 41.5zM182 963h418q35 0 50.5 -18.5 t17.5 -37.5q2 -20 -12.5 -35.5t-47.5 -15.5h-418z" />
<glyph horiz-adv-x="743" vert-adv-y="0" d="M66 197l38 215q39 78 117 133t191 55q94 0 147 -43t62 -131q4 -68 -22 -143.5t-73 -142t-108.5 -108.5t-128.5 -42q-61 0 -110.5 28.5t-79 77t-33.5 101.5zM68 176q-12 127 27.5 259t115.5 255q27 39 73 91.5t96 100.5t89 70q10 6 21.5 8.5t19.5 2.5q27 0 43 -13.5 t18 -34.5q0 -16 -6 -31.5t-22 -25.5q-86 -61 -139.5 -120.5t-81.5 -106.5q-76 -125 -112 -229.5t-24 -225.5h-118zM182 229q4 -66 33 -94.5t64 -28.5q39 0 78.5 31t73.5 79t54.5 102.5t16.5 99.5q-2 39 -22.5 52t-63.5 13q-78 0 -132.5 -37.5t-80 -96t-21.5 -120.5z" />
<glyph horiz-adv-x="641" vert-adv-y="0" d="M14 909q-2 18 12.5 36t47.5 18h422l8 -109h-424q-31 0 -47.5 17.5t-18.5 37.5zM328 63l94 855q2 23 19.5 34t33.5 11q35 0 51.5 -19t12.5 -39l-90 -846q-2 -33 -22.5 -46t-41.5 -13q-25 0 -42 15.5t-15 47.5z" />
<glyph horiz-adv-x="655" vert-adv-y="0" d="M51 229q-2 70 32 159t146 173l123 -4l33 -29q39 -37 77 -81t64.5 -91t30.5 -98q4 -57 -24.5 -119.5t-88 -105.5t-151.5 -43q-86 0 -137.5 39t-76 95t-28.5 105zM102 735q-6 78 34 128t102.5 75t126.5 25q51 0 107 -17.5t97 -51.5t43 -83q4 -51 -32.5 -104.5t-98 -103.5 t-129.5 -97l-143 47q41 23 91 59.5t96 76.5t75 74t29 48q-2 12 -50.5 23.5t-91.5 11.5q-47 0 -93 -20.5t-42 -80.5q4 -37 22.5 -67.5t43 -54t45.5 -41.5l-98 -62q-20 20 -51 50t-55 72t-28 93zM170 242q4 -57 38 -96.5t87 -39.5q41 0 73.5 25t51 59.5t16.5 67.5 q-2 31 -23.5 63.5t-51 65.5t-60.5 62l-6 6q-78 -59 -102.5 -113.5t-22.5 -99.5z" />
<glyph horiz-adv-x="776" vert-adv-y="0" d="M107.5 599q7.5 67 28 128t46.5 107q47 74 116 101.5t144 27.5h160l-12 -117h-137q-39 0 -89.5 -14.5t-80.5 -65.5q-12 -20 -28.5 -69.5t-25 -102.5t0 -91t42.5 -38q29 0 70 41t84 102.5t80 125t55 108.5h29l-17 -234q-35 -66 -84 -126t-104 -97t-113 -37q-72 0 -109.5 36 t-50 92t-5 123zM479 55l94 908h68q23 0 38 -14.5t11 -43.5l-90 -854q-2 -27 -20.5 -39t-38.5 -12q-25 0 -45.5 13.5t-16.5 41.5z" />
<glyph horiz-adv-x="524" vert-adv-y="0" d="M82 23q0 29 21.5 53t54.5 24q35 0 59.5 -23.5t24.5 -53.5q0 -33 -24.5 -57.5t-59.5 -24.5q-33 0 -54.5 26.5t-21.5 55.5zM182 500l74 405q4 27 21.5 42.5t50.5 15.5q27 0 41 -20.5t8 -49.5l-72 -410q-6 -25 -23.5 -41t-45.5 -16q-23 0 -40.5 20.5t-13.5 53.5z" />
<glyph horiz-adv-x="522" vert-adv-y="0" d="M84 70l72 409q6 27 23.5 43.5t43.5 16.5q25 0 42.5 -21.5t13.5 -52.5l-74 -406q-6 -27 -22.5 -43t-51.5 -16q-25 0 -39 21.5t-8 48.5zM219 942q0 31 25.5 55.5t58.5 24.5t53.5 -25.5t20.5 -54.5t-20.5 -53.5t-53.5 -24.5t-58.5 23.5t-25.5 54.5z" />
<glyph horiz-adv-x="796" vert-adv-y="0" d="M149.5 696.5q-10.5 24.5 2.5 53.5q92 211 315 211q156 0 222.5 -82t55.5 -209q-10 -131 -65 -204t-142.5 -100.5t-191.5 -27.5l-35 113q4 4 7.5 7t7.5 3q45 0 94 2t92 18.5t72.5 59.5t38.5 123q4 43 -1.5 83.5t-40 66.5t-120.5 26q-82 0 -127 -37t-74 -107 q-10 -27 -41 -30.5t-45 2.5q-14 4 -24.5 28.5zM174 16q0 35 21.5 59.5t52.5 24.5q35 0 59.5 -24.5t24.5 -59.5q0 -29 -24.5 -52t-59.5 -23q-31 0 -52.5 24.5t-21.5 50.5zM240 283l22 131q4 20 22.5 33.5t39.5 13.5q37 0 51 -17.5t12 -29.5l-25 -131q-8 -39 -29 -54.5 t-46 -11.5q-20 4 -37 21.5t-10 44.5z" />
<glyph horiz-adv-x="866" vert-adv-y="0" d="M102 293q10 131 65.5 202.5t143 99.5t191.5 28l33 -113q-2 -2 -5.5 -5t-9.5 -3q-45 0 -93 -2t-91 -18.5t-74 -59.5t-39 -125q-2 -43 3 -83t41 -66.5t120 -26.5q80 0 126 37t73 106q10 29 41.5 32t46.5 -1q16 -6 25.5 -30.5t-3.5 -53.5q-92 -211 -317 -211 q-156 0 -221.5 82t-55.5 211zM461 547l22 131q8 41 30.5 56t45.5 11q23 -6 39 -23t10 -44l-24 -131q-2 -20 -21.5 -32.5t-40.5 -12.5q-35 0 -49 16.5t-12 28.5zM516 944q0 29 24.5 52.5t57.5 23.5q31 0 53.5 -23.5t22.5 -52.5q0 -33 -22.5 -57.5t-53.5 -24.5 q-33 0 -57.5 23.5t-24.5 58.5z" />
<glyph horiz-adv-x="735" vert-adv-y="0" d="M201 840.5q6 21.5 35 42.5l317 204q27 16 48.5 13.5t31.5 -15.5q10 -16 5 -38.5t-34 -40.5l-317 -205q-29 -16 -49.5 -14.5t-30.5 16.5q-12 16 -6 37.5zM226 1048.5q-3 20.5 10 34.5q10 14 29.5 16.5t43.5 -16.5l277 -206q25 -18 28.5 -38t-4.5 -34q-12 -14 -34.5 -16 t-45.5 16l-274 205q-27 18 -30 38.5zM352 764l37 360q4 33 22.5 49.5t37.5 16.5q16 0 27 -16.5t7 -49.5l-34 -360q-4 -35 -22.5 -51.5t-37.5 -14.5q-16 4 -27.5 19.5t-9.5 46.5z" />
<glyph vert-adv-y="0" d="M205 817l24 234q4 31 25.5 47t42.5 16q23 0 42 -18.5t15 -55.5l-26 -233q-2 -29 -22.5 -43t-43.5 -14t-42 17t-15 50zM467 817l27 244q4 27 23.5 40t39.5 13q27 0 45 -18.5t16 -55.5l-24 -239q-2 -27 -22.5 -39t-43.5 -12q-27 0 -45 17t-16 50z" />
<glyph horiz-adv-x="440" vert-adv-y="0" d="M203 817l26 244q4 27 22.5 40t41.5 13q25 0 43 -18.5t16 -55.5l-24 -239q-2 -27 -22.5 -39t-43.5 -12q-25 0 -44 17t-15 50z" />
<glyph horiz-adv-x="661" vert-adv-y="0" d="M158 815q-4 86 14 154.5t37 107.5q25 47 69 86t111 39q84 0 128 -37t48 -108q4 -57 -17.5 -126t-63.5 -130.5t-95.5 -100t-112.5 -38.5q-33 0 -57 14t-39.5 48t-21.5 91zM254 831q2 -31 7.5 -53t25.5 -22q29 0 61.5 30.5t61 76.5t46 93.5t13.5 81.5q-2 39 -19.5 52.5 t-58.5 13.5q-31 0 -51.5 -14.5t-38.5 -51.5q-20 -51 -35.5 -104t-11.5 -103z" />
<glyph horiz-adv-x="997" vert-adv-y="0" d="M155 804.5q-3 24.5 17 41.5l305 270q23 23 49.5 20t44.5 -20q18 -14 21.5 -37.5t-21.5 -46.5l-301 -268q-27 -23 -53.5 -19.5t-44.5 19.5q-14 16 -17 40.5zM483 1036l90 78l244 -264q20 -23 18.5 -48.5t-20.5 -39.5q-14 -14 -38.5 -15.5t-47.5 21.5z" />
<glyph horiz-adv-x="600" vert-adv-y="0" d="M181.5 1068q2.5 19 18 31.5t33.5 12.5q20 0 42 -10t34 -33l119 -235q25 -51 -6 -68q-16 -8 -39 -1t-39 34l-147 223q-18 27 -15.5 46z" />
</font>
</defs>
</svg>
