<?xml version="1.0" standalone="no"?>
<!DOCTYPE svg PUBLIC "-//W3C//DTD SVG 1.1//EN" "http://www.w3.org/Graphics/SVG/1.1/DTD/svg11.dtd" >
<svg xmlns="http://www.w3.org/2000/svg" xmlns:xlink="http://www.w3.org/1999/xlink" version="1.1">
<metadata></metadata>
<defs>
<font id="libre_caslon_textitalic" horiz-adv-x="804" >
<font-face units-per-em="1000" ascent="800" descent="-200" />
<missing-glyph horiz-adv-x="283" />
<glyph unicode="&#xfb01;" horiz-adv-x="673" d="M535 536q36 4 46 4q19 0 31.5 -14t12.5 -36q0 -27 -16 -65l-143 -344q-3 -9 -3 -13q0 -8 5.5 -13.5t15.5 -5.5q14 0 34.5 16t69.5 64l20 -12q-47 -59 -98 -93t-92 -34q-29 0 -45.5 15t-16.5 42q0 26 15 64l145 356q5 12 5 18q0 13 -13 13h-215l-127 -295 q-103 -238 -198 -348.5t-199 -110.5q-49 0 -80 22.5t-31 57.5q0 21 12 32.5t34 11.5q25 0 35.5 -12.5t18.5 -36.5q8 -21 15 -30.5t24 -9.5q46 0 107.5 92.5t134.5 271.5l144 355h-88l12 32h89l31 70q48 110 125.5 170t171.5 60q45 0 82 -14t58.5 -38t21.5 -54q0 -27 -16 -44 t-41 -17t-41.5 16t-16.5 41q0 11 3 19t4 10q5 10 5 19q0 16 -16.5 25.5t-42.5 9.5q-56 0 -104 -52t-91 -161l-24 -60h171q19 0 59 6z" />
<glyph unicode="&#xfb02;" horiz-adv-x="647" d="M349.5 769.5q-74.5 -60.5 -122.5 -169.5l-31 -70h-89l-12 -32h88l-144 -355q-73 -180 -134 -272t-108 -92q-17 0 -24 9.5t-15 30.5q-8 24 -18.5 36.5t-35.5 12.5q-22 0 -34 -11.5t-12 -32.5q0 -35 31 -57.5t80 -22.5q104 0 199 110.5t198 348.5l127 295h97l13 32h-98 l24 60q44 112 87.5 162.5t95.5 50.5q33 0 48 -20.5t15 -65.5q0 -23 -3.5 -40t-13.5 -42l-71 -169q-60 -143 -98 -236t-48.5 -126.5t-10.5 -52.5q0 -29 14 -45t40 -16q40 0 93.5 35.5t100.5 91.5l-22 12q-43 -44 -66.5 -62t-38.5 -18q-10 0 -15.5 5.5t-5.5 15.5q0 12 17 55.5 t76 179.5l220 512l-3 3l-117 -30q-19 18 -48.5 29t-64.5 11q-86 0 -160.5 -60.5z" />
<glyph unicode="&#xfb03;" horiz-adv-x="1018" d="M674 590q43 109 91 161t104 52q26 0 42.5 -9.5t16.5 -25.5q0 -9 -5 -19q-1 -2 -4 -10t-3 -19q0 -25 16.5 -41t41.5 -16t41 17t16 44q0 30 -21.5 54t-58.5 38t-82 14q-60 0 -115 -25.5t-99 -73.5q-22 23 -59 36t-81 13q-95 0 -178 -61.5t-132 -168.5l-9 -20h-89l-12 -32 h88l-144 -355q-73 -179 -134.5 -271.5t-107.5 -92.5q-17 0 -24 9.5t-15 30.5q-8 24 -18.5 36.5t-35.5 12.5q-22 0 -34 -11.5t-12 -32.5q0 -35 31 -57.5t80 -22.5q104 0 199 110.5t198 348.5l127 295h235l-144 -355q-73 -179 -134.5 -271.5t-107.5 -92.5q-17 0 -24 9.5 t-15 30.5q-8 24 -18.5 36.5t-35.5 12.5q-22 0 -34 -11.5t-12 -32.5q0 -35 31 -57.5t80 -22.5q104 0 199 110.5t198 348.5l127 295h215q13 0 13 -13q0 -6 -5 -18l-145 -356q-15 -38 -15 -64q0 -27 16.5 -42t45.5 -15q41 0 92 34t98 93l-20 12q-49 -48 -69.5 -64t-34.5 -16 q-10 0 -15.5 5.5t-5.5 13.5q0 4 3 13l143 344q16 38 16 65q0 22 -12.5 36t-31.5 14q-10 0 -46 -4q-40 -6 -59 -6h-171zM601 657q-13 -21 -29 -57l-31 -70h-236l4 10q44 107 96.5 159t116.5 52q79 0 79 -94z" />
<glyph unicode="&#xfb04;" horiz-adv-x="992" d="M749 805q-51 -25 -94 -73q-23 22 -60 35t-80 13q-95 0 -178 -61.5t-132 -168.5l-9 -20h-89l-12 -32h88l-144 -355q-73 -179 -134.5 -271.5t-107.5 -92.5q-17 0 -24 9.5t-15 30.5q-8 24 -18.5 36.5t-35.5 12.5q-22 0 -34 -11.5t-12 -32.5q0 -35 31 -57.5t80 -22.5 q104 0 199 110.5t198 348.5l127 295h235l-144 -355q-73 -180 -134 -272t-108 -92q-17 0 -24 9.5t-15 30.5q-8 24 -18.5 36.5t-35.5 12.5q-22 0 -34 -11.5t-12 -32.5q0 -35 31 -57.5t80 -22.5q104 0 199 110.5t198 348.5l127 295h97l13 32h-98l24 60q44 112 87.5 162.5 t95.5 50.5q33 0 48 -20.5t15 -65.5q0 -22 -2.5 -37t-11.5 -36l-74 -178q-60 -143 -98 -236t-48.5 -126.5t-10.5 -52.5q0 -29 14 -45t40 -16q40 0 93.5 35.5t100.5 91.5l-22 12q-43 -44 -66.5 -62t-38.5 -18q-10 0 -15.5 5.5t-5.5 15.5q0 12 17 55.5t76 179.5l220 512l-3 3 l-117 -30q-19 18 -48.5 29t-64.5 11q-55 0 -106 -25zM601 657q-13 -21 -29 -57l-31 -70h-236l4 10q44 107 96.5 159t116.5 52q79 0 79 -94z" />
<glyph horiz-adv-x="0" />
<glyph unicode="&#xd;" horiz-adv-x="283" />
<glyph horiz-adv-x="0" />
<glyph horiz-adv-x="0" />
<glyph unicode=" "  horiz-adv-x="283" />
<glyph unicode="&#x09;" horiz-adv-x="283" />
<glyph unicode="&#xa0;" horiz-adv-x="283" />
<glyph unicode="!" horiz-adv-x="336" d="M218 571q29 123 41 158q8 23 26 37t42 14q28 0 46 -17.5t18 -45.5q0 -22 -15 -53t-64 -111q-40 -67 -72.5 -141t-67.5 -182h-35zM57 95q-21 -20 -21 -48q0 -25 16.5 -41t42.5 -16q30 0 52.5 20t22.5 47q0 25 -18.5 41.5t-44.5 16.5q-29 0 -50 -20z" />
<glyph unicode="&#x22;" horiz-adv-x="372" d="M230 629.5q5 36.5 7 76.5q2 44 8 64q9 28 28.5 44t44.5 16q19 0 28.5 -9.5t9.5 -25.5q0 -18 -9 -37.5t-31 -56.5q-25 -42 -42.5 -76.5t-33.5 -79.5h-30q15 48 20 84.5zM382 629.5q5 36.5 7 76.5q2 44 8 64q9 28 28.5 44t44.5 16q19 0 28.5 -9.5t9.5 -25.5q0 -18 -9 -37.5 t-31 -56.5q-25 -42 -42.5 -76.5t-33.5 -79.5h-30q15 48 20 84.5z" />
<glyph unicode="#" horiz-adv-x="667" d="M552 525h143l-23 -56h-140l-53 -151h140l-25 -56h-134l-60 -170h-57l59 170h-148l-60 -170h-58l59 170h-144l24 56h140l53 151h-140l23 56h136l61 171h58l-60 -171h148l61 171h57zM422 318l53 151h-149l-53 -151h149z" />
<glyph unicode="$" horiz-adv-x="577" d="M597.5 718.5q35.5 -38.5 35.5 -89.5q0 -28 -14 -44.5t-39 -16.5q-46 0 -55 67q-5 39 -14.5 61t-25.5 32l-118 -294q47 -55 70.5 -89.5t32.5 -62t9 -59.5q0 -67 -36 -120t-100 -83t-145 -30h-10l-56 -140h-45l58 145q-64 13 -103 52.5t-39 93.5q0 28 14 44.5t39 16.5 q46 0 55 -67q6 -46 17.5 -68.5t33.5 -30.5l125 310q-36 38 -56 63.5t-34.5 61t-14.5 80.5q0 66 33 118t91 81.5t132 29.5l23 -1l54 133h45l-57 -140q59 -15 94.5 -53.5zM296 530q9 -22 41 -61l108 270q-5 1 -16 1q-68 0 -105 -40t-37 -114q0 -34 9 -56zM326.5 69 q44.5 39 44.5 108q0 39 -14 70.5t-40 63.5l-113 -281q78 0 122.5 39z" />
<glyph unicode="%" horiz-adv-x="961" d="M756 770h70l-551 -770h-68zM358.5 367q67.5 52 110 133.5t42.5 163.5q0 116 -101 116q-69 0 -134.5 -51t-106 -132t-40.5 -167q0 -59 22.5 -87t71.5 -28q68 0 135.5 52zM225 366.5q-8 15.5 -8 48.5q0 66 28.5 143.5t69 131.5t74.5 54q35 0 35 -65q0 -66 -28.5 -143.5 t-70 -131t-75.5 -53.5q-17 0 -25 15.5zM754.5 42q67.5 52 110 133.5t42.5 163.5q0 116 -101 116q-69 0 -134.5 -51t-106 -132t-40.5 -167q0 -59 22.5 -87t71.5 -28q68 0 135.5 52zM621 41.5q-8 15.5 -8 48.5q0 66 28.5 143.5t69 131.5t74.5 54q35 0 35 -65 q0 -66 -28.5 -143.5t-70 -131t-75.5 -53.5q-17 0 -25 15.5z" />
<glyph unicode="&#x26;" horiz-adv-x="931" d="M615 119.5q75 31.5 117.5 86t42.5 120.5q0 58 -36 90.5t-97 32.5q-31 0 -58.5 -10t-44 -26t-16.5 -32q0 -14 9 -20t27 -11q21 -6 31.5 -14t10.5 -27t-16 -30t-38 -11q-28 0 -51 22t-23 60q0 44 21 71.5t76.5 47.5t162.5 38q72 12 115.5 24.5t70.5 39t27 72.5 q0 34 -17.5 52.5t-43.5 18.5q-16 0 -27.5 -7t-25.5 -20t-24 -19t-24 -6q-18 0 -28.5 10.5t-10.5 28.5q0 34 34 56.5t83 22.5q56 0 89 -30.5t33 -89.5q0 -89 -56.5 -140.5t-166.5 -69.5l-1 -4q34 -14 53 -50t19 -85q0 -88 -56.5 -161.5t-152 -116.5t-207.5 -43 q-95 0 -168.5 32.5t-114 91t-40.5 134.5q0 71 33 126.5t94 89.5q-12 17 -19 41t-7 49q0 47 24 88.5t64 66t86 24.5q35 0 65.5 -14.5t48 -39t17.5 -53.5q0 -28 -15.5 -45t-40.5 -17q-28 0 -36 15t-10 46q-2 32 -11 48t-40 16q-29 0 -54 -17t-40 -45.5t-15 -62.5 q0 -22 4.5 -42.5t13.5 -34.5q27 11 57 11q28 0 45.5 -13t17.5 -33q0 -22 -15.5 -36t-40.5 -14q-18 0 -39.5 8.5t-38.5 22.5q-36 -14 -59.5 -52.5t-23.5 -86.5q0 -60 37.5 -107t103.5 -73t150 -26q91 0 166 31.5z" />
<glyph unicode="'" horiz-adv-x="220" d="M230 629.5q5 36.5 7 76.5q2 44 8 64q9 28 28.5 44t44.5 16q19 0 28.5 -9.5t9.5 -25.5q0 -18 -9 -37.5t-31 -56.5q-25 -42 -42.5 -76.5t-33.5 -79.5h-30q15 48 20 84.5z" />
<glyph unicode="(" horiz-adv-x="318" d="M93 -12q0 139 48.5 291.5t131.5 292.5t184 248l-8 10q-114 -76 -213 -200.5t-158.5 -271t-59.5 -283.5q0 -155 79 -275l20 13q-24 83 -24 175z" />
<glyph unicode=")" horiz-adv-x="329" d="M86 -30q90 102 157 247t67 313q0 97 -24.5 177.5t-61.5 122.5l-14 -10q10 -30 16 -79.5t6 -110.5q0 -186 -60 -351.5t-135.5 -280.5t-141.5 -185l12 -13q89 68 179 170z" />
<glyph unicode="*" horiz-adv-x="487" d="M431 555q13 -20 23 -30t27 -10q21 0 37.5 14t16.5 36q0 14 -12.5 20.5t-39.5 13.5q-42 11 -59 20l-25 13l34 13q24 9 63 17q43 9 62.5 19.5t19.5 38.5q0 13 -8 20.5t-24 7.5t-30 -8.5t-37 -27.5q-29 -25 -55 -42l-30 -20l12 32q8 22 29 56q12 21 18 35t7 30q0 13 -7.5 20 t-19.5 7q-22 0 -38.5 -20t-16.5 -56l1 -38q0 -20 -2 -32l-5 -34l-21 19q-15 14 -31 40q-11 20 -20.5 29t-26.5 9q-22 0 -38 -15.5t-16 -35.5q0 -15 13 -21.5t43 -14.5q38 -9 53 -16l28 -13l-33 -13q-21 -8 -65 -19q-43 -10 -62 -20.5t-20 -37.5q0 -12 8.5 -19.5t23.5 -7.5 q17 0 32 9t39 30q3 3 18 15.5t31 22.5l34 21l-13 -33q-6 -15 -27 -54q-14 -26 -20.5 -40t-6.5 -27q0 -12 7.5 -19t20.5 -7q18 0 30.5 11t17.5 29q3 12 4 30t1 23q0 23 3 53l4 34l21 -20q12 -11 27 -37z" />
<glyph unicode="+" horiz-adv-x="512" d="M67 315v49h180v180h51v-180h179v-49h-179v-181h-51v181h-180z" />
<glyph unicode="," horiz-adv-x="289" d="M59.5 -7.5q5.5 -3.5 5.5 -13.5q0 -26 -33 -69.5t-76 -74.5l18 -21q76 52 115.5 111t39.5 120q0 44 -21 68t-59 24q-35 0 -55.5 -19.5t-20.5 -53.5q0 -53 57 -64q24 -4 29.5 -7.5z" />
<glyph unicode="-" horiz-adv-x="480" d="M77 294h319l-33 -84h-319z" />
<glyph unicode="." horiz-adv-x="282" d="M-6 113.5q-26 -23.5 -26 -56.5q0 -30 20 -48.5t53 -18.5t60.5 25.5t27.5 56.5q0 27 -22.5 46t-52.5 19q-34 0 -60 -23.5z" />
<glyph unicode="/" horiz-adv-x="345" d="M301 819h69l-304 -988h-67z" />
<glyph unicode="0" horiz-adv-x="645" d="M415 78.5q102 88.5 167.5 226.5t65.5 277q0 198 -150 198q-104 0 -202.5 -86.5t-160 -225.5t-61.5 -285q0 -100 33 -146.5t103 -46.5q103 0 205 88.5zM190 57q-14 26 -14 82q0 118 51 260t124 240.5t134 98.5q30 0 44.5 -27t14.5 -83q0 -118 -51 -259.5t-124 -239.5 t-135 -98q-30 0 -44 26z" />
<glyph unicode="1" horiz-adv-x="429" d="M300 0l10 23l-126 19l283 738h-34q-39 -34 -118 -73t-144 -56l8 -27l135 32l3 -2l-236 -607l-118 -24l-9 -23h346z" />
<glyph unicode="2" horiz-adv-x="607" d="M177 199.5q45 49.5 92 87t117 88.5q77 55 120.5 92.5t72.5 83.5t29 100q0 63 -40 96t-117 33q-89 0 -161.5 -42t-136.5 -127l29 -20q49 66 113 104t126 38q35 0 54 -20.5t19 -56.5q0 -40 -23.5 -79.5t-58.5 -76.5t-100 -96q-77 -70 -129.5 -125t-98.5 -126t-68 -153h425 l82 204h-32q-16 -31 -36 -57t-50 -56h-303q30 59 75 108.5z" />
<glyph unicode="3" horiz-adv-x="593" d="M248.5 373.5q26.5 5.5 48.5 5.5q48 0 73.5 -32.5t25.5 -93.5t-26 -111t-71 -79t-100 -29q-43 0 -61.5 15t-31.5 42q-11 20 -21 30t-31 10q-24 0 -39.5 -14t-15.5 -36q0 -39 48 -65t119 -26q90 0 169.5 41t127 109t47.5 145q0 61 -30.5 103t-81.5 52q94 57 137 110t43 110 q0 56 -39 88t-107 32q-148 0 -266 -166l29 -21q50 68 102 104t100 36q36 0 58 -23t22 -60q0 -48 -36 -97t-100.5 -92t-147.5 -71l11 -31q18 9 44.5 14.5z" />
<glyph unicode="4" horiz-adv-x="556" d="M306 0l73 221h100l26 77h-100l167 472h-102l-454 -501l-15 -48h278l-78 -221h105zM435 675h4l-133 -377h-211z" />
<glyph unicode="5" horiz-adv-x="543" d="M127 372q50 16 111 16q66 0 99 -33.5t33 -98.5q0 -58 -25 -109t-66.5 -82t-89.5 -31q-34 0 -50 13.5t-30 40.5q-11 22 -22 32.5t-32 10.5q-24 0 -38 -14.5t-14 -37.5q0 -40 41.5 -64.5t109.5 -24.5q89 0 165.5 42t121.5 112.5t45 153.5q0 87 -51.5 136t-142.5 49 q-57 0 -101 -7l67 191h250l39 123l-22 7l-26 -40h-252l-132 -375z" />
<glyph unicode="6" horiz-adv-x="578" d="M298 641.5q-115 -92.5 -180 -215t-65 -255.5q0 -89 36.5 -135t107.5 -46q79 0 156.5 52t126.5 135t49 169q0 76 -41 114.5t-121 38.5q-71 0 -129 -36l-3 3q58 93 150 172.5t185 115.5l-10 26q-147 -46 -262 -138.5zM170 59q-15 26 -15 84q0 84 25.5 155.5t68.5 114 t93 42.5q75 0 75 -99q0 -69 -29.5 -145t-75.5 -127t-91 -51q-36 0 -51 26z" />
<glyph unicode="7" horiz-adv-x="520" d="M197 619l60 61h279q-161 -225 -245 -349.5t-118 -189.5t-34 -98q0 -26 13 -39.5t38 -13.5q26 0 41 17t32 65q51 149 137.5 304t237.5 369l-10 25h-346v50h-27l-94 -201h36z" />
<glyph unicode="8" horiz-adv-x="621" d="M105.5 321.5q-68.5 -58.5 -68.5 -149.5q0 -49 24.5 -90.5t74 -66.5t122.5 -25q64 0 120 26.5t90.5 80.5t34.5 133q0 45 -20 89.5t-50 81.5l-32 39q84 37 137 83t53 118q0 62 -46 100.5t-125 38.5q-57 0 -106.5 -22t-80 -66t-30.5 -107q0 -43 16.5 -80.5t33.5 -57.5 l21 -26q-100 -41 -168.5 -99.5zM312 545.5q-23 35.5 -23 77.5q0 52 36 83.5t90 31.5q42 0 62.5 -23.5t20.5 -63.5q0 -57 -32.5 -101t-89.5 -83q-41 43 -64 78.5zM399 249.5q14 -31.5 14 -68.5q0 -69 -38.5 -109t-104.5 -40q-62 0 -95.5 42t-33.5 105q0 55 18.5 92.5t51.5 63 t87 55.5l61 -76q26 -33 40 -64.5z" />
<glyph unicode="9" horiz-adv-x="578" d="M353 128.5q115 92.5 180 215t65 255.5q0 89 -36.5 135t-107.5 46q-79 0 -156.5 -52t-126.5 -135t-49 -169q0 -76 41 -114.5t121 -38.5q35 0 70 11.5t61 29.5l3 -3q-56 -96 -148 -176t-189 -117l10 -26q147 46 262 138.5zM481 711q15 -26 15 -84q0 -84 -25.5 -155.5 t-68.5 -114t-93 -42.5q-75 0 -75 99q0 69 29.5 145t75.5 127t91 51q36 0 51 -26z" />
<glyph unicode=":" horiz-adv-x="327" d="M147 477.5q-26 -23.5 -26 -56.5q0 -30 20 -48.5t53 -18.5t60.5 25.5t27.5 56.5q0 27 -22.5 46t-52.5 19q-34 0 -60 -23.5zM28 113.5q-26 -23.5 -26 -56.5q0 -30 20 -48.5t53 -18.5t60.5 25.5t27.5 56.5q0 27 -22.5 46t-52.5 19q-34 0 -60 -23.5z" />
<glyph unicode=";" horiz-adv-x="331" d="M149 477.5q-26 -23.5 -26 -56.5q0 -30 20 -48.5t53 -18.5t60.5 25.5t27.5 56.5q0 27 -22.5 46t-52.5 19q-34 0 -60 -23.5zM90.5 -7.5q5.5 -3.5 5.5 -13.5q0 -26 -33 -69.5t-76 -74.5l18 -21q76 52 115.5 111t39.5 120q0 44 -21 68t-59 24q-35 0 -55.5 -19.5t-20.5 -53.5 q0 -53 57 -64q24 -4 29.5 -7.5z" />
<glyph unicode="&#x3c;" horiz-adv-x="589" d="M65 361l409 195v-61l-337 -154v-4l337 -156v-65l-409 194v51z" />
<glyph unicode="=" horiz-adv-x="628" d="M505 382v42h-366v-42h366zM505 232v42h-366v-42h366z" />
<glyph unicode="&#x3e;" horiz-adv-x="582" d="M138 181l337 156v4l-337 154v66l409 -195v-51l-409 -194v60z" />
<glyph unicode="?" horiz-adv-x="483" d="M291 242q-17 18 -17 47q0 38 28 68t86 71q49 37 78.5 63.5t50.5 63t21 82.5q0 67 -46.5 105t-129.5 38q-64 0 -105 -21.5t-41 -55.5q0 -19 12.5 -31.5t31.5 -12.5q22 0 35 11t29 34q15 21 28 32t34 11q33 0 54 -23t21 -59t-18.5 -67.5t-45.5 -55.5t-72 -59 q-44 -33 -70.5 -57.5t-44.5 -54t-18 -64.5q0 -52 35.5 -82t103.5 -31l5 28q-28 2 -45 20zM234 10q21 20 21 48q0 25 -16.5 41t-42.5 16q-30 0 -52.5 -20t-22.5 -47q0 -25 18.5 -41.5t44.5 -16.5q29 0 50 20z" />
<glyph unicode="@" horiz-adv-x="920" d="M460 -134q-117 0 -190.5 46t-105 115t-31.5 143q0 104 42.5 195t122 145.5t184.5 54.5q84 0 151.5 -31.5t106 -89.5t38.5 -135q0 -74 -21.5 -128t-56 -82t-70.5 -28q-48 0 -48 48q0 19 7 41l81 290h-80l-11 -39h-4q-10 17 -30 28t-43 11q-65 0 -126.5 -47.5t-99.5 -115.5 t-38 -123q0 -62 29.5 -96t82.5 -34q42 0 80 20.5t73 73.5l4 -1q-5 -8 -5 -20q0 -41 25 -63.5t70 -22.5q65 0 118 40t83 107.5t30 145.5q0 77 -41 145t-117 109.5t-178 41.5q-118 0 -221.5 -55t-166 -155.5t-62.5 -230.5q0 -114 55 -192.5t142.5 -116.5t186.5 -38 q131 0 222 55l-11 29q-67 -40 -177 -40zM338 105.5q-13 16.5 -13 54.5q0 44 30 103t72 101.5t76 42.5q43 0 43 -56q0 -51 -26 -113t-65 -105.5t-76 -43.5q-28 0 -41 16.5z" />
<glyph unicode="A" horiz-adv-x="748" d="M521 677l-463 -538q-35 -40 -58.5 -60.5t-53 -32t-77.5 -18.5l-14 -28h278l13 28q-44 6 -64 15.5t-21 25.5q0 13 8 26.5t32 41.5l129 149h237l-25 -181q-7 -45 -32.5 -60.5t-84.5 -16.5l-14 -28h308l14 28q-48 3 -66 12.5t-19 34.5q0 11 1 17l91 701l-108 -23zM262 323 l252 291l-42 -291h-210z" />
<glyph unicode="B" horiz-adv-x="715" d="M296 0q96 0 169.5 29t113.5 82t40 123q0 63 -32.5 105.5t-92.5 57.5v4q65 10 117.5 41t82.5 76t30 95q0 73 -63 115t-170 42h-240l-11 -28l78 -19l-282 -676l-88 -19l-11 -28h359zM430 729h61q129 0 129 -117q0 -86 -59 -134.5t-164 -48.5h-93zM183.5 46 q-17.5 8 -17.5 28t17 61l104 254h72q77 0 114.5 -33.5t37.5 -104.5q0 -103 -68.5 -158t-199.5 -55q-42 0 -59.5 8z" />
<glyph unicode="C" horiz-adv-x="742" d="M536 77q-59 -46 -114.5 -66.5t-123.5 -20.5q-235 0 -235 223q0 138 83 270t215 214.5t271 82.5q48 0 89 -11.5t68 -31.5l36 33h22l-97 -230h-29q15 56 15 94q0 53 -27.5 77.5t-86.5 24.5q-110 0 -214.5 -75t-169.5 -195.5t-65 -246.5q0 -182 152 -182q97 0 181 68.5 t135 187.5h29l-111 -293h-27l8 77h-4z" />
<glyph unicode="D" horiz-adv-x="805" d="M242 0q159 0 263 47q82 37 144.5 102.5t97 148.5t34.5 172q0 91 -40 158.5t-113.5 104.5t-171.5 37h-206l-10 -23l78 -19l-284 -686l-92 -19l-10 -23h310zM182 50.5q-16 8.5 -16 29.5q0 19 13 49l249 601h27q103 0 159.5 -61.5t56.5 -173.5q0 -138 -59 -241 t-158.5 -157.5t-217.5 -54.5q-38 0 -54 8.5z" />
<glyph unicode="E" horiz-adv-x="713" d="M632 230h-29q-61 -102 -137 -190h-323l142 346h174q-4 -71 -17 -120h29l113 274h-29q-34 -57 -84 -114h-168l124 304h226q39 -67 58 -180h27l-8 220h-480l-10 -23l78 -19l-284 -686l-92 -19l-10 -23h609z" />
<glyph unicode="F" horiz-adv-x="644" d="M260 23l-117 17l137 334h174q-4 -71 -17 -120h29l113 274h-29q-34 -57 -84 -114h-168l129 316h234q36 -77 50 -180h27v220h-488l-10 -23l78 -19l-284 -686l-92 -19l-10 -23h318z" />
<glyph unicode="G" horiz-adv-x="798" d="M453 64q-41 -30 -105 -30q-164 0 -164 199q0 127 60.5 243.5t160 188t207.5 71.5q65 0 97 -28.5t32 -86.5q0 -35 -14 -91h30l98 240h-24l-51 -45q-33 29 -72.5 42t-91.5 13q-133 0 -260 -79t-206 -205t-79 -259q0 -118 66.5 -182.5t188.5 -64.5q63 0 131 18t128 51 l118 285l96 19l10 23h-284l-10 -23l83 -19l-77 -185q-27 -65 -68 -95z" />
<glyph unicode="H" horiz-adv-x="859" d="M287 385l-142 -343l82 -19l-10 -23h-289l10 23l97 19l284 686l-83 19l10 23h290l-10 -23l-96 -19l-126 -303h356l126 303l-83 19l10 23h290l-10 -25l-96 -17l-285 -686l81 -21l-9 -21h-290l10 23l97 19l142 343h-356z" />
<glyph unicode="I" horiz-adv-x="392" d="M-62 23l-10 -23h289l10 23l-82 19l285 686l96 19l10 23h-290l-10 -23l83 -19l-284 -686z" />
<glyph unicode="J" horiz-adv-x="380" d="M-2 -194.5q-73 -61.5 -155 -61.5q-53 0 -86 23t-33 56q0 23 15 36.5t36 13.5q22 0 32 -11.5t19 -34.5q8 -21 17.5 -32t28.5 -11q22 0 40 17t38.5 56.5t52.5 115.5l315 755l-83 19l10 23h290l-10 -23l-96 -19l-314 -755q-44 -106 -117 -167.5z" />
<glyph unicode="K" horiz-adv-x="743" d="M520 770h-270l-9 -23l78 -19l-286 -686l-88 -19l-9 -23h316l10 23l-119 19l123 296l69 54l139 -392h181l7 23l-88 19l-157 416l290 231q34 27 62 38.5t71 14.5l14 28h-259l-9 -23q35 -1 52 -11t17 -26q0 -19 -45 -55l-315 -248l134 322l81 18z" />
<glyph unicode="L" horiz-adv-x="695" d="M637 242h-34q-74 -123 -142 -202h-318l282 685l101 22l10 23h-286l-10 -23l78 -19l-284 -686l-92 -19l-10 -23h609z" />
<glyph unicode="M" horiz-adv-x="994" d="M127 0l10 23l-82 19l334 648h4l-87 -700h53l558 720h4l-279 -668l-97 -19l-10 -23h284l10 23l-82 19l285 686l97 19l9 23h-234l-461 -601h-4l72 601h-234l-9 -23l90 -19l-351 -686l-97 -19l-10 -23h227z" />
<glyph unicode="N" horiz-adv-x="815" d="M349 690l-269 -648l82 -19l-10 -23h-227l10 23l97 19l284 686l-83 19l10 23h212l124 -599h4l231 557l-83 19l10 23h228l-10 -23l-96 -19l-307 -738h-58l-145 700h-4z" />
<glyph unicode="O" d="M541.5 68.5q115.5 78.5 187.5 204t72 258.5q0 119 -60.5 184t-169.5 65q-121 0 -236.5 -79t-187.5 -205.5t-72 -259.5q0 -117 60 -181.5t169 -64.5q122 0 237.5 78.5zM222.5 79.5q-31.5 42.5 -31.5 130.5q0 126 55 248.5t142.5 200t176.5 77.5q63 0 94 -42.5t31 -128.5 q0 -127 -54.5 -250t-141 -200.5t-175.5 -77.5q-65 0 -96.5 42.5z" />
<glyph unicode="P" horiz-adv-x="653" d="M550 372.5q81 31.5 125.5 89t44.5 132.5q0 83 -60.5 129.5t-169.5 46.5h-240l-9 -23l78 -19l-286 -686l-88 -19l-9 -23h316l10 23l-119 19l122 299h98q106 0 187 31.5zM429 729h61q61 0 93.5 -31t32.5 -90q0 -61 -32 -112t-87 -81t-120 -30h-93z" />
<glyph unicode="Q" d="M79 -90q-34 -14 -50.5 -30.5t-16.5 -38.5q0 -17 9.5 -29.5t28.5 -12.5q17 0 28.5 10.5t11.5 24.5q0 5 -2 12.5t-2 13.5q0 7 4.5 10.5t17.5 3.5q25 0 42.5 -10.5t42.5 -32.5q32 -29 59.5 -43.5t72.5 -14.5q60 0 107 29t75 68t35 67h-34q-21 -29 -70 -46.5t-113 -17.5 q-44 0 -75.5 9.5t-59.5 30.5l235 95q101 40 187 120t138 185t52 217q0 119 -60 184.5t-168 65.5q-122 0 -238 -79t-188 -205t-72 -259q0 -108 51 -171t143 -74v-4zM223 80q-31 43 -31 132q0 125 55.5 247t142.5 199.5t177 77.5q63 0 93.5 -43t30.5 -131q0 -126 -54.5 -248 t-141.5 -199.5t-177 -77.5q-64 0 -95 43z" />
<glyph unicode="R" horiz-adv-x="740" d="M464 0h201l7 23l-108 19l-114 317q123 18 195 84t72 164q0 163 -227 163h-240l-9 -23l78 -19l-286 -686l-88 -19l-9 -23h316l10 23l-119 19l127 312h77zM429 729h61q61 0 93.5 -31t32.5 -90q0 -56 -32 -104.5t-86 -77t-116 -28.5h-93z" />
<glyph unicode="S" horiz-adv-x="589" d="M98 261q-13 -52 -13 -96q0 -135 137 -135q76 0 120 39.5t44 107.5q0 52 -23 90t-68 86q-33 37 -52 62t-32.5 59.5t-13.5 77.5q0 66 32 118t88.5 81t128.5 29q49 0 85.5 -15t65.5 -47l46 52h32l-86 -220h-30q5 19 9 44t4 43q0 50 -31.5 76.5t-90.5 26.5q-72 0 -110 -38.5 t-38 -110.5q0 -29 6 -49t21.5 -43t49.5 -61q68 -79 91.5 -124t23.5 -95q0 -65 -36.5 -117t-100 -82t-141.5 -30q-128 0 -171 82l-51 -72h-31l106 261h29z" />
<glyph unicode="T" horiz-adv-x="735" d="M312 730q-95 -82 -169 -180h-24l128 220h626l-54 -220h-24q1 14 1 45q0 81 -19 135h-178l-285 -688l102 -19l-10 -23h-318l10 23l107 19l285 688h-178z" />
<glyph unicode="U" horiz-adv-x="778" d="M94 150q0 -78 55 -119t161 -41q102 0 179 52t134 188l211 498l95 19l9 23h-221l-11 -23l84 -19l-203 -469q-36 -84 -72.5 -132.5t-78 -69t-96.5 -20.5q-73 0 -108.5 26.5t-35.5 80.5q0 26 8 60t21 65l191 458l96 20l10 23h-285l-9 -23l82 -19l-173 -408 q-43 -101 -43 -170z" />
<glyph unicode="V" horiz-adv-x="734" d="M269 678q1 6 1 17q-1 25 -19 34.5t-66 12.5l14 28h308l-14 -28q-59 -1 -84.5 -16.5t-32.5 -60.5l-73 -532h4l390 500q21 27 27.5 40.5t6.5 27.5q-1 16 -21 25.5t-64 15.5l13 28h289l-14 -28q-49 -7 -79 -18t-54.5 -32t-55.5 -61l-506 -641h-59z" />
<glyph unicode="W" horiz-adv-x="1029" d="M264 678q1 6 1 17q-1 25 -19 34.5t-66 12.5l14 28h288l-14 -28q-49 -1 -70 -16.5t-27 -60.5l-73 -531l286 392l20 152q1 6 1 17q-1 26 -12 35t-43 12l14 28h278l-14 -28q-59 -1 -84.5 -16.5t-32.5 -60.5l-73 -531l364 499q21 28 27.5 41.5t6.5 26.5q-1 16 -21 25.5 t-64 15.5l13 28h269l-14 -28q-43 -7 -69.5 -18.5t-48 -32t-51.5 -60.5l-476 -641h-59l59 457l-340 -457h-59z" />
<glyph unicode="X" horiz-adv-x="744" d="M212 23q-78 12 -78 47q0 28 50 76l190 184l49 -215q5 -23 5 -35q0 -26 -19.5 -38t-69.5 -19l-9 -23h299l10 23q-49 8 -69 26.5t-32 66.5l-71 291l259 249q47 46 85 64.5t95 26.5l10 23h-238l-9 -23q53 0 53 -23q0 -24 -52 -73l-213 -203l-49 207q-6 23 -6 38q0 26 17 38 t59 16l9 23h-294l-11 -24q40 -5 61 -13.5t31.5 -24.5t17.5 -45l70 -290l-215 -206q-65 -62 -105 -91.5t-70 -40t-70 -12.5l-10 -23h309z" />
<glyph unicode="Y" horiz-adv-x="716" d="M402 23l-98 19l135 321l269 275q45 45 73 66.5t56 30.5t71 12l13 23h-276l-9 -23q83 0 83 -31q0 -19 -33 -52l-269 -270l-30 246q-3 21 -3 37q0 39 17.5 53.5t60.5 16.5l10 23h-282l-10 -23q36 0 53 -7t24.5 -23.5t12.5 -52.5l49 -324l-124 -298l-97 -19l-10 -23h304z " />
<glyph unicode="Z" horiz-adv-x="697" d="M646 244h-34q-71 -101 -178 -202h-312l622 676l22 52h-496l-120 -217h27q74 96 172 177h269l-625 -679l-22 -51h552z" />
<glyph unicode="[" horiz-adv-x="364" d="M174 -156h-117l306 944h118l10 32h-199l-326 -1007h198z" />
<glyph unicode="\" horiz-adv-x="627" d="M241 819h70l97 -988h-69z" />
<glyph unicode="]" horiz-adv-x="363" d="M413 820h-199l-10 -32h118l-306 -944h-118l-10 -31h198z" />
<glyph unicode="^" horiz-adv-x="498" d="M404 649h4l28 -317h36l-27 379h-36l-341 -379h48z" />
<glyph unicode="_" horiz-adv-x="718" d="M-62 -30h550l-17 -44h-550z" />
<glyph unicode="`" horiz-adv-x="119" d="M108 792q0 3 0.5 8t0.5 15q0 42 -47 42q-21 0 -36.5 -13t-15.5 -33q0 -13 3 -25t10 -31l45 -119l28 6z" />
<glyph unicode="a" horiz-adv-x="604" d="M204 473.5q-87 -66.5 -145.5 -165t-58.5 -186.5q0 -62 29.5 -97t80.5 -35q50 0 98.5 38t107.5 124l6 -3q-19 -31 -26.5 -54.5t-7.5 -46.5q0 -29 15.5 -43.5t43.5 -14.5q83 0 190 134l-20 14q-80 -89 -111 -89q-16 0 -16 19q0 10 10 41l172 421h-102l-16 -37 q-18 26 -36.5 36.5t-46.5 10.5q-80 0 -167 -66.5zM100.5 39q-8.5 14 -8.5 44q0 70 51.5 172t121 177.5t117.5 75.5q20 0 33 -13.5t13 -36.5q0 -17 -4 -36t-18 -50q-40 -92 -92 -172t-101.5 -127.5t-83.5 -47.5q-20 0 -28.5 14z" />
<glyph unicode="b" horiz-adv-x="575" d="M283 793l-222 -544q-27 -66 -27 -118q0 -67 37 -104t106 -37q86 0 168.5 58.5t134.5 150.5t52 187q0 73 -33.5 113.5t-90.5 40.5q-38 0 -77.5 -20.5t-73.5 -57.5h-5l141 358h-192l4 -15zM249.5 408q35.5 45 71 71t62.5 26q24 0 38 -24.5t14 -64.5q0 -71 -45.5 -164 t-108.5 -160t-112 -67q-24 0 -38.5 15.5t-14.5 41.5q0 41 23 107.5t50 120.5q25 53 60.5 98z" />
<glyph unicode="c" horiz-adv-x="498" d="M264.5 439.5q-65.5 -69.5 -110.5 -167t-45 -173.5q0 -38 13.5 -56t45.5 -18q85 0 216 134l22 -13q-65 -77 -133 -116.5t-133 -39.5q-64 0 -97 39t-33 114q1 83 45 165t122 143q54 42 113 65.5t109 23.5q51 0 86 -26.5t35 -64.5q0 -18 -12 -29t-32 -11q-39 0 -46 48 q-5 28 -14.5 40t-28.5 12q-57 0 -122.5 -69.5z" />
<glyph unicode="d" horiz-adv-x="603" d="M563 793l-116 -300q-19 26 -38 36.5t-47 10.5q-81 0 -165 -65.5t-139 -164.5t-55 -190q0 -130 109 -130q54 0 100.5 36.5t106.5 125.5l2 -3q-15 -29 -22 -49.5t-7 -37.5q0 -37 14.5 -54.5t46.5 -17.5q84 0 183 134l-20 14q-42 -48 -66 -68.5t-39 -20.5q-18 0 -18 19 q0 12 11 41l268 711h-191l5 -15zM103 39q-10 14 -10 42q0 70 50.5 172.5t118.5 178.5t117 76q19 0 31 -13t16 -37q-1 -16 -6 -34.5t-19 -51.5q-38 -92 -88.5 -172t-100 -127.5t-82.5 -47.5q-17 0 -27 14z" />
<glyph unicode="e" horiz-adv-x="485" d="M218.5 475q-93.5 -65 -156 -163t-62.5 -187q0 -64 34 -99.5t96 -35.5q130 0 253 155l-22 14q-44 -59 -101.5 -96.5t-104.5 -37.5q-29 0 -43.5 16.5t-14.5 50.5q0 70 57 177q99 17 176.5 49t120.5 72t43 81q0 32 -26 50.5t-70 18.5q-86 0 -179.5 -65zM291.5 467 q49.5 42 90.5 42q32 0 32 -30q0 -34 -33.5 -70.5t-88.5 -65.5t-116 -41l32 59q34 64 83.5 106z" />
<glyph unicode="f" horiz-adv-x="324" d="M356 774.5q-76 -55.5 -129 -174.5l-31 -70h-89l-12 -32h88l-144 -355q-78 -192 -138.5 -278t-103.5 -86q-17 0 -24.5 10t-14.5 30q-8 24 -18.5 36.5t-34.5 12.5q-22 0 -34.5 -11t-12.5 -30q0 -37 29.5 -60t79.5 -23q105 0 200.5 110t198.5 349l127 295h97l13 32h-98 l24 60q45 111 89 162t94 51q23 0 37 -9.5t14 -25.5q0 -7 -1 -11.5t-2 -8.5q-4 -16 -4 -26q0 -19 13.5 -31.5t33.5 -12.5q22 0 35 13t13 35q0 44 -39.5 74t-94.5 30q-85 0 -161 -55.5z" />
<glyph unicode="g" horiz-adv-x="527" d="M427 479q-49 61 -130 61q-56 0 -105 -26t-78 -69.5t-29 -92.5q0 -80 74 -132l-1 -4q-70 0 -109.5 -26.5t-39.5 -73.5q0 -24 11.5 -46t32.5 -38q-47 0 -85.5 -18t-60.5 -49.5t-22 -69.5q0 -45 30.5 -79t86 -53t127.5 -19q77 0 138.5 21t96 58.5t34.5 84.5q0 43 -28.5 78 t-76.5 52l-156 53q-50 16 -50 51q0 45 91 45q14 0 42 -2l36 -1q57 0 105 26t76 70t28 96q0 21 -4 38t-15 40q5 11 15.5 17.5t20.5 6.5q13 0 28 -13q8 -7 15 -11t17 -4q17 0 29.5 11.5t12.5 28.5q0 21 -15.5 35.5t-40.5 14.5q-49 0 -101 -61zM187.5 239.5 q-15.5 21.5 -15.5 60.5q0 45 23.5 92.5t59 79t67.5 31.5q29 0 41.5 -16t12.5 -51q0 -54 -20.5 -104.5t-54 -82t-69.5 -31.5q-29 0 -44.5 21.5zM19 -194q-46 32 -46 87q0 47 32 80t79 33q14 0 32 -6l128 -43q32 -11 53 -34t21 -48q0 -44 -49 -72.5t-126 -28.5q-78 0 -124 32z " />
<glyph unicode="h" horiz-adv-x="595" d="M217 805l-2 15h191l-190 -438l5 -2q63 85 115.5 122t108.5 37q42 0 67 -20.5t25 -58.5q0 -45 -27 -100l-117 -239q-20 -42 -20 -57t15 -15q16 0 46.5 24.5t67.5 65.5l21 -15q-104 -134 -199 -134q-32 0 -45.5 14t-13.5 44q0 40 35 110l134 269q14 30 14 50q0 28 -29 28 q-34 0 -81.5 -41t-97.5 -112t-91 -158l-91 -194h-93l328 793z" />
<glyph unicode="i" horiz-adv-x="340" d="M256 759.5q-22 -20.5 -22 -47.5q0 -26 17 -41.5t45 -15.5q29 0 52 21.5t23 48.5q0 23 -19 39t-45 16q-29 0 -51 -20.5zM142 516q-45 -24 -78 -65l23 -18q23 29 46.5 45.5t41.5 16.5q13 0 13 -9q0 -8 -5 -19l-145 -356q-15 -35 -15 -65q0 -28 17.5 -42t47.5 -14 q38 0 89.5 34.5t97.5 92.5l-20 12q-49 -48 -70 -64t-35 -16q-9 0 -14.5 5.5t-5.5 13.5q0 6 3 13l143 344q16 38 16 66q0 23 -18 36t-47 13q-40 0 -85 -24z" />
<glyph unicode="j" horiz-adv-x="306" d="M250 760q-21 -20 -21 -48q0 -25 16.5 -41t43.5 -16q30 0 52 20.5t22 46.5q0 24 -18 41t-45 17q-29 0 -50 -20zM137.5 516.5q-42.5 -23.5 -78.5 -65.5l21 -18q47 59 83 59q8 0 11 -3t3 -10q0 -15 -14 -54t-66 -173l-110 -280q-43 -109 -72 -151t-60 -42q-21 0 -30 10.5 t-17 32.5q-9 24 -19 35t-34 11q-46 0 -46 -47q0 -35 32.5 -56t84.5 -21q74 0 131.5 45t96.5 130l127 284q51 113 76.5 186.5t26.5 102.5q0 23 -16 35.5t-47 12.5q-41 0 -83.5 -23.5z" />
<glyph unicode="k" horiz-adv-x="560" d="M297 793l-333 -793h100l95 235h8l69 -145q25 -52 52 -76t63 -24q37 0 73.5 22.5t56.5 56.5l-20 11q-36 -47 -68 -47q-15 0 -27.5 16t-34.5 62l-68 143q70 19 130.5 54.5t96.5 77.5t36 79q0 36 -24 55.5t-70 19.5q-47 0 -93.5 -21.5t-77.5 -56.5h-4l154 358h-191l2 -15z M388 496q38 0 38 -40q0 -44 -35 -86t-92.5 -70t-122.5 -32q25 65 53 108.5t66 76.5q51 43 93 43z" />
<glyph unicode="l" horiz-adv-x="316" d="M293 793l-137 -327q-61 -144 -98.5 -237t-48 -125.5t-10.5 -51.5q0 -29 13.5 -45.5t37.5 -16.5q42 0 95 33.5t102 93.5l-22 12q-44 -47 -67.5 -63.5t-37.5 -16.5q-8 0 -14.5 5t-6.5 13q0 16 15.5 55.5t77.5 182.5l221 515h-198l2 -15z" />
<glyph unicode="m" horiz-adv-x="891" d="M548 466q0 36 -21 54.5t-61 18.5q-54 0 -103.5 -37t-108.5 -122l-5 2q45 80 45 118q0 21 -11.5 30.5t-36.5 9.5q-48 0 -99.5 -31t-89.5 -83l20 -16q29 38 58 61.5t47 23.5q7 0 11 -3.5t4 -9.5q0 -11 -11 -36l-192 -446h97l90 194q41 90 88 161t91 110.5t76 39.5 q15 0 23.5 -8t8.5 -22q0 -19 -13 -48l-196 -427h108l92 207q36 81 81.5 149.5t89.5 108.5t75 40q14 0 22 -8t8 -22q0 -18 -14 -48l-125 -269q-36 -79 -36 -116q0 -25 15.5 -38.5t44.5 -13.5q46 0 97.5 34.5t102.5 99.5l-21 15q-36 -41 -67 -65.5t-48 -24.5q-15 0 -15 15 q0 11 21 57l107 239q24 52 24 91q0 43 -22 65.5t-65 22.5q-54 0 -104.5 -38.5t-104.5 -120.5l-4 2q27 45 27 84z" />
<glyph unicode="n" horiz-adv-x="629" d="M146.5 509q-51.5 -31 -89.5 -83l20 -16q31 38 60 61.5t46 23.5q14 0 14 -15q0 -7 -11 -34l-192 -446h97l93 194q42 88 91.5 159t95.5 111.5t80 40.5q15 0 23.5 -8t8.5 -22q0 -22 -13 -48l-136 -269q-36 -72 -36 -115q0 -53 59 -53q94 0 201 134l-21 15q-38 -43 -69 -66.5 t-48 -23.5q-12 0 -12 14q0 18 20 58l117 239q25 50 25 92q0 43 -23 65t-68 22q-55 0 -107.5 -37t-117.5 -122l-4 2q24 44 34 71t10 47q0 21 -11.5 30.5t-36.5 9.5q-48 0 -99.5 -31z" />
<glyph unicode="o" horiz-adv-x="557" d="M324 49q83 59 137 149t54 178q0 76 -39 120t-110 44q-81 0 -163.5 -59t-136 -149t-53.5 -177q0 -77 38.5 -121t109.5 -44q80 0 163 59zM414.5 488q11.5 -17 11.5 -51q0 -71 -48.5 -169.5t-114.5 -170.5t-114 -72q-24 0 -34.5 18t-10.5 55q0 75 46.5 172t111.5 166t116 69 q25 0 36.5 -17z" />
<glyph unicode="p" horiz-adv-x="566" d="M203 533q-72 -11 -124 -47l8 -20q36 25 105 37l-310 -726l-80 -12v-15h286v18l-102 12l97 233q27 -3 52 -3q95 0 183 46.5t142.5 124.5t54.5 167q0 77 -56 129.5t-157 62.5l36 90l-100 -11zM292 506q5 2 15 2q46 0 75 -36.5t29 -102.5q0 -83 -41.5 -159.5t-109 -123.5 t-140.5 -47q-14 0 -26 1l190 457q3 7 8 9z" />
<glyph unicode="q" horiz-adv-x="571" d="M478 530l-18 -37q-14 26 -32.5 36.5t-47.5 10.5q-83 0 -173.5 -68t-150.5 -169.5t-60 -193.5q0 -119 102 -119q54 0 102.5 36.5t113.5 125.5l2 -3l-156 -367l-116 -17v-15h288v18l-72 9l319 753h-101zM95 37.5q-8 12.5 -8 38.5q0 69 55 172.5t128 181.5t122 78 q20 0 31 -13t13 -37q-1 -17 -6 -35t-20 -51q-42 -91 -97 -171.5t-107 -128t-85 -47.5q-18 0 -26 12.5z" />
<glyph unicode="r" horiz-adv-x="455" d="M492 524.5q21 -15.5 21 -40.5q0 -21 -11.5 -33t-32.5 -12q-13 0 -21 4.5t-18 13.5q-9 9 -16.5 13.5t-19.5 4.5q-42 0 -92 -68t-120 -213l-93 -194h-97l193 446q11 26 11 37q0 12 -13 12q-17 0 -47.5 -24t-60.5 -61l-19 16q40 51 89 82.5t90 31.5q22 0 34.5 -13t12.5 -38 q0 -21 -9 -44t-34 -63l5 -2q51 84 98 122t96 38q33 0 54 -15.5z" />
<glyph unicode="s" horiz-adv-x="441" d="M357.5 527.5q35.5 -12.5 56.5 -34t21 -45.5q0 -18 -12.5 -29.5t-32.5 -11.5q-39 0 -45 44q-5 37 -16 48.5t-42 11.5q-44 0 -67 -24t-23 -66q0 -31 15 -61.5t46 -75.5q32 -47 48.5 -80t16.5 -68q0 -40 -26 -73.5t-70.5 -53t-98.5 -19.5q-43 0 -80.5 14t-59.5 36.5 t-22 47.5q0 18 12.5 29t32.5 11q22 0 31 -11.5t17 -35.5q10 -30 24 -45t50 -15q42 0 67.5 25.5t25.5 65.5q0 26 -14.5 52.5t-44.5 68.5q-35 49 -53 84t-18 73q0 41 25 75.5t67.5 54.5t92.5 20q41 0 76.5 -12.5z" />
<glyph unicode="t" horiz-adv-x="339" d="M198 530l63 147l107 10l-68 -157h88l-11 -32h-90l-83 -193l-25 -58q-38 -87 -53.5 -126t-15.5 -48q0 -24 22 -24q15 0 39 18.5t65 61.5l20 -12q-48 -60 -98.5 -93.5t-94.5 -33.5q-29 0 -41 14.5t-12 48.5q0 23 13 63t56 139l105 243h-83l11 32h86z" />
<glyph unicode="u" horiz-adv-x="618" d="M141 464.5q24 16.5 38 16.5q12 0 12 -13q0 -19 -20 -59l-117 -239q-25 -52 -25 -91q0 -88 89 -88q55 0 104 36.5t112 122.5l5 -2q-31 -62 -31 -100q0 -26 16.5 -42t40.5 -16q35 0 80.5 31.5t85.5 82.5l-20 16q-31 -38 -59.5 -61.5t-46.5 -23.5q-6 0 -10 3t-4 9 q0 13 11 37l194 446h-99l-91 -194q-42 -89 -88.5 -160t-90 -111t-75.5 -40q-13 0 -21.5 7.5t-8.5 20.5q0 23 13 50l131 269q35 73 35 116q0 26 -15.5 39t-43.5 13q-84 0 -176 -106l23 -16q28 30 52 46.5z" />
<glyph unicode="v" horiz-adv-x="614" d="M79 394q0 30 22 43.5t71 13.5h148q-23 -37 -41 -60t-49 -55q-81 -81 -114 -133.5t-33 -99.5q0 -52 33 -82.5t90 -30.5q81 0 158 55.5t140 162.5q44 74 71.5 150t27.5 124q0 27 -11.5 42.5t-32.5 15.5q-22 0 -35 -16.5t-13 -43.5q0 -13 6 -51q6 -40 6 -62q0 -38 -15 -78 t-47 -91q-53 -84 -107 -126.5t-104 -42.5q-61 0 -61 93q0 42 18.5 85t71.5 123q55 83 72 113.5t43 86.5h-156q-96 0 -142.5 -27t-46.5 -82q0 -39 19.5 -61t52.5 -22q22 0 35 10.5t13 29.5q0 17 -12 28.5t-28 11.5q-18 0 -30 -10t-12 -24q3 -15 14 -24l-3 -4q-19 13 -19 38z " />
<glyph unicode="w" horiz-adv-x="905" d="M403 55q-90 -65 -177 -65q-62 0 -98 29t-36 81q0 48 30 102.5t105 133.5q33 34 51 57t40 58h-149q-49 0 -71 -13.5t-22 -43.5q0 -23 19 -38l3 4q-12 14 -12 24q0 14 11.5 24t28.5 10q16 0 28.5 -11.5t12.5 -28.5q0 -19 -13 -29.5t-36 -10.5q-32 0 -51.5 21.5t-19.5 57.5 q0 58 44.5 85.5t143.5 27.5h157q-28 -59 -46 -90t-69 -110q-45 -69 -62 -115t-17 -87q0 -90 71 -90q50 0 118 47q-16 36 -16 88q0 80 41 166t103 143.5t120 57.5q28 0 44 -16t16 -45q0 -58 -61.5 -160t-151.5 -194q13 -41 37.5 -63t59.5 -22q43 0 89 40.5t88 117.5 q27 49 39 88.5t12 77.5q0 19 -3 40.5t-4 27.5q-1 8 -3 23t-2 25q0 28 13 44t35 16q19 0 31 -14.5t12 -40.5q0 -47 -24 -125t-63 -152q-55 -105 -124 -161.5t-143 -56.5q-86 0 -129 65zM474 163q68 73 112.5 158.5t44.5 151.5q0 34 -17 34q-33 0 -67 -43.5t-55.5 -110.5 t-21.5 -132q0 -34 4 -58z" />
<glyph unicode="x" horiz-adv-x="568" d="M270.5 16q20.5 -26 58.5 -26q39 0 78 27t69 76l-20 13q-36 -42 -51.5 -55.5t-28.5 -13.5q-9 0 -14 7t-9 26.5t-12 64.5l-28 169l85 104q30 37 52 54t39 17q9 0 15.5 -5t13.5 -15q10 -12 18 -18t22 -6q20 0 33.5 13.5t13.5 32.5q0 21 -20.5 35t-48.5 14q-78 0 -173 -116 l-55 -67l-18 132q-4 30 -19.5 45.5t-40.5 15.5q-37 0 -80.5 -30.5t-70.5 -75.5l18 -10q22 28 36.5 39t30.5 11q12 0 15.5 -6t7.5 -28l30 -183l-94 -128q-28 -38 -53.5 -58t-44.5 -20q-10 0 -16 4.5t-14 15.5q-8 12 -16 18t-21 6q-20 0 -33.5 -13.5t-13.5 -32.5q0 -21 20 -35 t47 -14q41 0 90.5 33t90.5 90l65 90l17 -111q9 -60 29.5 -86z" />
<glyph unicode="y" horiz-adv-x="546" d="M135 488q18 0 28.5 -28t15 -92.5t4.5 -176.5q0 -136 -5 -198.5t-15.5 -89t-36.5 -57.5q-20 -24 -43 -38t-42 -14q-14 0 -22 5.5t-18 17.5q-10 13 -20 20t-28 7q-22 0 -34.5 -11.5t-12.5 -31.5q0 -26 24.5 -41.5t62.5 -15.5q93 0 218.5 143t220.5 324.5t95 266.5 q0 28 -13.5 45t-36.5 17q-22 0 -36.5 -16t-14.5 -42q0 -14 3 -41q5 -62 5 -68q0 -59 -41.5 -154.5t-103.5 -171.5l-3 3q6 111 6 184q0 127 -8 192t-27.5 89.5t-55.5 24.5q-43 0 -85 -25t-67 -67l19 -15q42 55 67 55z" />
<glyph unicode="z" horiz-adv-x="556" d="M117.5 507.5q-48.5 -32.5 -48.5 -83.5q0 -36 23 -60t56 -24q23 0 37 11.5t14 31.5q0 21 -11 33.5t-29 12.5q-17 0 -28 -10.5t-11 -25.5t18 -25l-1 -4q-16 3 -25.5 13.5t-9.5 26.5q0 25 20.5 38.5t60.5 13.5q27 0 90 -9q102 -13 158 -13l2 -4l-469 -421l23 -19 q18 13 35.5 18t44.5 5q31 0 65.5 -5t42.5 -6q72 -12 110 -12q79 0 127 31.5t48 84.5q0 32 -16.5 50.5t-44.5 18.5q-21 0 -34 -11t-13 -29t11.5 -30.5t29.5 -12.5q11 0 18 5t13 17l4 -2q0 -50 -65 -50q-28 0 -91 13q-51 10 -85.5 15t-74.5 5v4l468 422l-21 19 q-37 -23 -76 -23q-19 0 -97 10q-104 13 -142 13q-78 0 -126.5 -32.5z" />
<glyph unicode="{" horiz-adv-x="359" d="M119 -157q-23 0 -34.5 9.5t-11.5 30.5q0 22 10 52q10 33 51 124q36 82 54.5 130t18.5 75q0 24 -10.5 39t-32.5 25l1 4q42 14 70 46.5t45 85.5q14 43 30 133q12 71 22 102q14 44 39 69.5t57 25.5q14 0 40 -5l14 26q-28 13 -59 13q-65 0 -111.5 -33t-65.5 -94 q-10 -30 -23 -106q-14 -88 -28 -132q-20 -63 -52 -91.5t-83 -28.5l-8 -23q36 0 53 -13t17 -42q0 -26 -14 -71q-16 -48 -61 -149q-31 -65 -46 -105t-15 -68q0 -34 23.5 -50t73.5 -16q34 0 76 14l3 29q-21 -6 -43 -6z" />
<glyph unicode="|" horiz-adv-x="311" d="M292 819h70l-321 -989h-69z" />
<glyph unicode="}" horiz-adv-x="358" d="M-42 -194q66 0 106 29.5t62 94.5q7 22 13.5 53.5t12.5 63.5q18 98 34 147q22 69 52.5 97.5t83.5 28.5l8 23q-36 0 -53 13.5t-17 42.5q0 22 13 64q13 37 32.5 81t24.5 55q28 58 41.5 93t13.5 59q0 38 -26 57.5t-76 19.5q-32 0 -69 -13l-2 -26q29 5 42 5q44 0 44 -48 q0 -24 -8 -47q-11 -34 -45 -104q-33 -70 -51 -117t-18 -78q0 -50 41 -68l-1 -4q-43 -15 -69.5 -44t-43.5 -82q-11 -33 -20.5 -74.5t-16.5 -79.5q-14 -73 -26 -113t-34 -66t-60 -26q-21 0 -39 6l-15 -29q33 -14 66 -14z" />
<glyph unicode="~" horiz-adv-x="587" d="M118.5 262.5q18.5 13.5 49.5 13.5q25 0 48 -7t53 -20t52.5 -19.5t45.5 -6.5q62 0 102 42.5t56 93.5h-30q-15 -26 -34 -39t-50 -13q-25 0 -47.5 6.5t-52.5 19.5q-31 13 -52.5 19.5t-45.5 6.5q-62 0 -102 -42.5t-56 -93.5h30q15 26 33.5 39.5z" />
<glyph unicode="&#xa1;" horiz-adv-x="314" d="M239 435q21 20 21 48q0 25 -16.5 41t-42.5 16q-30 0 -52.5 -20t-22.5 -47q0 -25 18.5 -41.5t44.5 -16.5q29 0 50 20zM78 -41q-30 -129 -36 -148q-17 -51 -63 -51q-28 0 -46 17.5t-18 45.5q0 21 13.5 51.5t55.5 102.5q41 69 73.5 143.5t66.5 179.5h35z" />
<glyph unicode="&#xa2;" horiz-adv-x="521" d="M495.5 508.5q29.5 -25.5 29.5 -59.5q0 -18 -12 -29t-32 -11q-39 0 -46 48q-7 41 -27 49l-198 -475q77 23 179 128l22 -13q-106 -125 -215 -150l-61 -146h-45l58 140q-66 0 -99.5 39t-33.5 114q1 83 45 165t122 143q46 36 97.5 59t97.5 28l61 148h45l-61 -147 q44 -5 73.5 -30.5zM125.5 46q11.5 -18 37.5 -21l199 479q-55 -17 -113.5 -87.5t-96.5 -159.5t-38 -158q0 -35 11.5 -53z" />
<glyph unicode="&#xa3;" horiz-adv-x="657" d="M234 379l79 182q48 111 106.5 165t139.5 54q62 0 103.5 -34.5t41.5 -87.5q0 -24 -16 -40t-41 -16q-26 0 -43 18t-17 49q0 43 -8 59t-28 16q-22 0 -40.5 -13t-39 -49.5t-46.5 -103.5l-76 -199h180l-16 -44h-183q-36 -80 -63 -131t-53 -86q43 -13 90.5 -22.5t80.5 -9.5 q84 0 126 82h35q-14 -84 -59 -131t-111 -47q-81 0 -202 79q-76 -79 -149 -79q-35 0 -55.5 18t-20.5 49q0 40 29 64.5t75 24.5q45 0 77 -8q32 65 84 197h-93l20 44h93zM52 107q-24 0 -38.5 -11t-14.5 -30q0 -15 10 -24t27 -9q19 0 35.5 13.5t38.5 47.5q-32 13 -58 13z" />
<glyph unicode="&#xa4;" horiz-adv-x="710" d="M383 152q74 0 126 42l66 -67l48 48l-66 66q41 56 41 127q0 73 -42 125l67 66l-48 48l-65 -66q-58 41 -127 41q-73 0 -126 -42l-66 67l-48 -48l67 -65q-42 -54 -42 -126q0 -76 42 -127l-67 -66l48 -48l66 67q54 -42 126 -42zM310.5 236.5q-33.5 20.5 -53 55.5t-19.5 76 q0 40 19.5 74.5t53 55t72.5 20.5t72.5 -20.5t53 -55t19.5 -75.5t-19.5 -75.5t-53 -55t-72.5 -20.5t-72.5 20.5z" />
<glyph unicode="&#xa5;" horiz-adv-x="798" d="M303 210l-70 -168l-97 -19l-10 -23h304l10 23l-98 19l70 168h153l22 44h-156l32 77h160l22 44h-157l258 263q45 45 73 66.5t56 30.5t71 12l13 23h-276l-9 -23q83 0 83 -31q0 -19 -33 -52l-269 -270l-30 246q-3 21 -3 37q0 39 17.5 53.5t60.5 16.5l10 23h-282l-10 -23 q36 0 53 -7t24.5 -23.5t12.5 -52.5l43 -289h-135l-22 -44h159l-32 -77h-163l-22 -44h167z" />
<glyph unicode="&#xa6;" horiz-adv-x="262" d="M278 819h67l-125 -387h-67zM82 216h67l-125 -387h-66z" />
<glyph unicode="&#xa7;" horiz-adv-x="584" d="M235.5 575q-23.5 41 -23.5 89q0 46 25 84t68.5 60t98.5 22q44 0 86.5 -15.5t69 -40t26.5 -50.5q0 -20 -13 -32t-34 -12q-19 0 -32.5 12.5t-23.5 38.5q-13 35 -29.5 49.5t-40.5 14.5q-43 0 -69 -25.5t-26 -68.5q0 -47 25 -87.5t73 -95.5q49 -58 72 -96t23 -82 q0 -43 -25 -79t-68 -57t-95 -21q-14 0 -20 1q52 -59 77.5 -99.5t25.5 -87.5q0 -43 -24.5 -79t-67.5 -57t-95 -21q-49 0 -98.5 18.5t-81 47t-31.5 58.5q0 20 13 32.5t34 12.5q19 0 33 -12t24 -38q17 -44 40.5 -64t56.5 -20q41 0 67 26t26 67q0 40 -22.5 74.5t-67.5 83.5 q-35 39 -55.5 65.5t-35 59.5t-14.5 70q0 47 25 84.5t70 59t101 21.5q-44 48 -67.5 89zM390 377.5q-18 31.5 -52 69.5q-11 4 -29 4q-43 0 -69 -25t-26 -67q0 -60 48 -125q22 -16 51 -16q41 0 68 26.5t27 67.5q0 34 -18 65.5z" />
<glyph unicode="&#xa8;" horiz-adv-x="317" d="M29.5 762q-19.5 -18 -19.5 -42q0 -23 15 -37t40 -14q26 0 46.5 19t20.5 43q0 21 -17 35t-40 14q-26 0 -45.5 -18zM204.5 762q-19.5 -18 -19.5 -42q0 -23 15 -37t40 -14q26 0 46.5 19t20.5 43q0 21 -17 35t-40 14q-26 0 -45.5 -18z" />
<glyph unicode="&#xa9;" horiz-adv-x="975" d="M180.5 582.5q53.5 90.5 144.5 144t199 53.5t199 -53.5t144.5 -144t53.5 -197.5t-53.5 -197.5t-144.5 -144t-199 -53.5t-199 53.5t-144.5 144t-53.5 197.5t53.5 197.5zM221 211.5q47 -79.5 127.5 -126.5t175.5 -47t175 47t127 126.5t47 173.5t-47 173.5t-127 126.5 t-175 47t-175.5 -47t-127.5 -126.5t-47 -173.5t47 -173.5zM310.5 518q31.5 58 87 91t126.5 33q75 0 134 -44h4l27 42h15v-159h-24q-11 32 -25 57q-20 34 -49 50t-71 16q-73 0 -112 -55.5t-39 -158.5t40 -159.5t112 -56.5q74 0 113 59q22 31 33 83h22v-179h-15l-29 51 q-32 -27 -65 -39.5t-73 -12.5q-71 0 -126.5 31.5t-86 88.5t-30.5 130q0 74 31.5 132z" />
<glyph unicode="&#xaa;" horiz-adv-x="475" d="M294 737q-59 -43 -98.5 -107.5t-39.5 -121.5q0 -40 22 -63t60 -23q32 0 64 25t70 81l3 -2q-22 -36 -22 -66q0 -38 46 -38q24 0 57 21.5t69 61.5l-18 14q-52 -58 -72 -58q-10 0 -10 12q0 8 6 27l112 274h-71l-11 -24q-11 16 -23.5 23t-30.5 7q-54 0 -113 -43zM235.5 469 q-5.5 9 -5.5 29q0 42 31.5 102t74 105t72.5 45q12 0 21 -9t9 -24q0 -24 -14 -56q-24 -54 -56 -100t-62.5 -73.5t-51.5 -27.5q-13 0 -18.5 9z" />
<glyph unicode="&#xab;" horiz-adv-x="478" d="M125 234l149 187l-16 15l-222 -185l-5 -12l74 -186l20 11v170zM301 234l149 187l-16 15l-222 -185l-5 -12l74 -186l20 11v170z" />
<glyph unicode="&#xac;" horiz-adv-x="634" d="M93 264v44h410v-161h-51v117h-359z" />
<glyph unicode="&#xad;" horiz-adv-x="480" d="M77 294h319l-33 -84h-319z" />
<glyph unicode="&#xae;" horiz-adv-x="974" d="M179.5 583q53.5 91 145 144t198.5 53t198.5 -53t145 -144t53.5 -198t-53.5 -198t-145 -144t-198.5 -53t-198.5 53t-145 144t-53.5 198t53.5 198zM220.5 211q47.5 -80 127.5 -126.5t175 -46.5t175 46.5t127 126.5t47 174t-47 174t-127 126.5t-175 46.5t-175 -46.5 t-127.5 -126.5t-47.5 -174t47.5 -174zM511 632q81 0 130.5 -36.5t49.5 -102.5q0 -46 -28.5 -76t-80.5 -43l107 -199l47 -13v-19h-136l-113 222h-37v-190l58 -13v-19h-183v19l39 13v425l-39 12v20h186zM472 399q39 0 62.5 9t38.5 26q25 26 25 65q0 34 -15 58t-43 34 q-24 8 -57 8h-33v-200h22z" />
<glyph unicode="&#xaf;" horiz-adv-x="335" d="M325 780h-287l-28 -71h286z" />
<glyph unicode="&#xb0;" horiz-adv-x="355" d="M431 622q35 35 35 86q0 50 -35.5 86t-85.5 36q-51 0 -86 -35.5t-35 -86.5t35 -86t86 -35t86 35zM287.5 767q22.5 23 57.5 23q36 0 58 -23t22 -59q0 -35 -22 -57.5t-58 -22.5q-34 0 -57 23t-23 57q0 36 22.5 59z" />
<glyph unicode="&#xb1;" horiz-adv-x="643" d="M115 422v49h180v180h51v-180h179v-49h-179v-181h-51v181h-180zM115 155h410v-49h-410v49z" />
<glyph unicode="&#xb2;" horiz-adv-x="406" d="M289.5 576.5q37.5 32.5 101.5 78.5q52 37 81 61.5t49 55t20 65.5q0 43 -29 66t-82 23q-61 0 -113 -30.5t-91 -83.5l27 -23q28 42 66 67.5t73 25.5q25 0 37.5 -13t12.5 -36q0 -37 -27 -71t-87 -90q-49 -45 -81 -79.5t-61 -79.5t-42 -97h288l54 133l-23 8q-15 -29 -39 -55 h-198q26 42 63.5 74.5z" />
<glyph unicode="&#xb3;" horiz-adv-x="396" d="M294 655.5q16 3.5 29 3.5q26 0 40.5 -20t14.5 -57q0 -58 -32.5 -97t-81.5 -39q-26 0 -39.5 10.5t-25.5 30.5q-9 14 -16 21t-19 7q-13 0 -22.5 -10t-9.5 -27q0 -30 31 -49.5t79 -19.5q61 0 115.5 27t87 71.5t32.5 95.5q0 39 -25 66t-64 34q63 27 98.5 66.5t35.5 78.5 q0 37 -28 57.5t-78 20.5q-49 0 -95 -29.5t-83 -86.5l23 -19q31 44 64 68t63 24q21 0 32 -12t11 -32q0 -47 -48.5 -90t-127.5 -68l12 -35q11 6 27 9.5z" />
<glyph unicode="&#xb4;" horiz-adv-x="248" d="M188 750q27 19 38.5 34.5t11.5 30.5q0 18 -14 30t-35 12q-34 0 -63 -44l-116 -171l16 -11z" />
<glyph unicode="&#xb5;" horiz-adv-x="668" d="M35.5 9.5q10.5 46.5 34.5 101.5h4q-3 -21 -3 -37q0 -41 18 -62.5t52 -21.5q46 0 96.5 39.5t110.5 120.5l5 -2q-31 -62 -31 -99q0 -26 16 -42.5t41 -16.5q35 0 80.5 31t85.5 83l-20 16q-30 -39 -59.5 -62t-46.5 -23q-14 0 -14 12t11 37l194 446h-99l-91 -194 q-43 -90 -89.5 -161t-89.5 -110.5t-74 -39.5q-14 0 -22.5 8t-8.5 22q0 17 13 48l188 427h-113l-100 -230q-15 -35 -112 -218q-57 -109 -82 -171t-25 -95q0 -27 12 -42.5t34 -15.5q34 0 52.5 36.5t20.5 105.5q1 63 11.5 109.5z" />
<glyph unicode="&#xb6;" horiz-adv-x="565" d="M273.5 -22q-19.5 -34 -41.5 -48t-54 -14q-30 0 -46 13t-25 46q-8 26 -18 37t-28 11q-20 0 -32 -12t-12 -34q0 -41 44 -68t111 -27q48 0 79.5 17t56 58.5t51.5 118.5l224 654l74 15l9 25h-191q-89 0 -163.5 -36t-118 -97t-43.5 -134q0 -77 45.5 -122t124.5 -45h85 l-91 -262q-21 -62 -40.5 -96z" />
<glyph unicode="&#xb7;" horiz-adv-x="298" d="M98 360.5q-26 -23.5 -26 -56.5q0 -30 20 -48.5t53 -18.5t60.5 25.5t27.5 56.5q0 27 -22.5 46t-52.5 19q-34 0 -60 -23.5z" />
<glyph unicode="&#xb8;" horiz-adv-x="230" d="M42 -226q38 0 63.5 20t25.5 50q0 34 -42 34q-30 0 -48 -12l-8 13l109 138h40l-57 -75q42 0 65 -18.5t23 -51.5t-23.5 -63t-63 -48t-83.5 -18q-25 0 -43.5 6.5t-26.5 17.5l17 23q22 -16 52 -16z" />
<glyph unicode="&#xb9;" horiz-adv-x="355" d="M383 416l10 23l-83 13l182 475h-47q-27 -22 -82 -47.5t-100 -37.5l7 -24l89 13l3 -3l-144 -373l-78 -16l-9 -23h252z" />
<glyph unicode="&#xba;" horiz-adv-x="422" d="M380 460q57 38 93.5 96.5t36.5 116.5q0 49 -28 78t-76 29q-56 0 -113 -38t-93.5 -96.5t-36.5 -116.5q0 -49 28 -78t76 -29q56 0 113 38zM442 705q0 -44 -31.5 -103.5t-74.5 -103t-74 -43.5q-30 0 -30 45q0 46 30 105t72.5 100.5t76.5 41.5q31 0 31 -42z" />
<glyph unicode="&#xbb;" horiz-adv-x="476" d="M129 255l-149 -187l16 -15l222 185l5 12l-74 186l-20 -11v-170zM305 255l-149 -187l16 -15l222 185l5 12l-74 186l-20 -11v-170z" />
<glyph unicode="&#xbc;" horiz-adv-x="878" d="M731 770h70l-551 -770h-68zM313 321l9 21l-74 11l163 427h-43q-23 -19 -72.5 -42.5t-90.5 -34.5l6 -21l80 12l3 -3l-129 -335l-70 -14l-8 -21h226zM669 0l37 120h61l20 58h-60l99 281h-78l-271 -298l-14 -41h167l-43 -120h82zM717 377h4l-70 -199h-113z" />
<glyph unicode="&#xbd;" horiz-adv-x="925" d="M705 770h70l-551 -770h-68zM314 321l9 21l-74 11l163 427h-43q-23 -19 -72.5 -42.5t-90.5 -34.5l6 -21l80 12l3 -3l-129 -335l-70 -14l-8 -21h226zM630.5 145.5q35.5 30.5 89.5 69.5q46 32 73 54.5t44.5 50t17.5 59.5q0 38 -26.5 59t-73.5 21q-55 0 -101.5 -27.5 t-81.5 -75.5l24 -20q25 38 59.5 60.5t65.5 22.5q45 0 45 -44q0 -33 -24.5 -64t-77.5 -80q-45 -42 -74 -72.5t-54.5 -71t-37.5 -87.5h259l49 120l-21 7q-14 -27 -35 -50h-178q23 38 58.5 68.5z" />
<glyph unicode="&#xbe;" horiz-adv-x="904" d="M754 770h70l-551 -770h-68zM697 0l37 120h61l20 58h-60l99 281h-78l-271 -298l-14 -41h167l-43 -120h82zM745 377h4l-70 -199h-113zM250 537q14 3 26 3q25 0 38 -18t13 -52q0 -53 -29.5 -87.5t-74.5 -34.5q-22 0 -33.5 9.5t-23.5 27.5q-8 12 -14.5 18.5t-17.5 6.5 q-12 0 -20.5 -9t-8.5 -24q0 -27 27.5 -44.5t71.5 -17.5q55 0 104 24t78.5 64.5t29.5 85.5q0 36 -22.5 60.5t-57.5 30.5q57 24 88.5 59.5t31.5 70.5q0 33 -25.5 51.5t-69.5 18.5t-86 -26.5t-75 -77.5l21 -17q28 39 58 60.5t57 21.5q19 0 28.5 -10.5t9.5 -28.5 q0 -43 -43.5 -81t-115.5 -61l11 -31q10 5 24 8z" />
<glyph unicode="&#xbf;" horiz-adv-x="465" d="M207 520q-21 -20 -21 -48q0 -25 16.5 -41t42.5 -16q30 0 52.5 20t22.5 47q0 25 -18.5 41.5t-44.5 16.5q-29 0 -50 -20zM150 288q17 -18 17 -47q0 -37 -27.5 -66.5t-84.5 -72.5q-48 -35 -79 -63t-52.5 -66.5t-21.5 -85.5q0 -67 46.5 -105t129.5 -38q64 0 105 21.5t41 55.5 q0 19 -12 31.5t-32 12.5q-22 0 -35 -11t-29 -34q-15 -21 -28 -32t-34 -11q-33 0 -54 23t-21 59t18.5 68t46 57t72.5 60t71 59.5t44 54.5t18 65q0 52 -35.5 82t-103.5 31l-5 -28q28 -2 45 -20z" />
<glyph unicode="&#xc0;" horiz-adv-x="748" d="M521 677l-463 -538q-35 -40 -58.5 -60.5t-53 -32t-77.5 -18.5l-14 -28h278l13 28q-44 6 -64 15.5t-21 25.5q0 13 8 26.5t32 41.5l129 149h237l-25 -181q-7 -45 -32.5 -60.5t-84.5 -16.5l-14 -28h308l14 28q-48 3 -66 12.5t-19 34.5q0 11 1 17l91 701l-108 -23zM262 323 l252 291l-42 -291h-210zM577 928q-19 17 -33 24.5t-30 7.5q-23 0 -36.5 -13t-13.5 -35q0 -18 9.5 -31t27.5 -18l161 -47l19 21z" />
<glyph unicode="&#xc1;" horiz-adv-x="748" d="M521 677l-463 -538q-35 -40 -58.5 -60.5t-53 -32t-77.5 -18.5l-14 -28h278l13 28q-44 6 -64 15.5t-21 25.5q0 13 8 26.5t32 41.5l129 149h237l-25 -181q-7 -45 -32.5 -60.5t-84.5 -16.5l-14 -28h308l14 28q-48 3 -66 12.5t-19 34.5q0 11 1 17l91 701l-108 -23zM262 323 l252 291l-42 -291h-210zM654 860q37 11 52.5 25t15.5 32t-13 30.5t-30 12.5q-22 0 -44 -16l-144 -107l11 -21z" />
<glyph unicode="&#xc2;" horiz-adv-x="748" d="M521 677l-463 -538q-35 -40 -58.5 -60.5t-53 -32t-77.5 -18.5l-14 -28h278l13 28q-44 6 -64 15.5t-21 25.5q0 13 8 26.5t32 41.5l129 149h237l-25 -181q-7 -45 -32.5 -60.5t-84.5 -16.5l-14 -28h308l14 28q-48 3 -66 12.5t-19 34.5q0 11 1 17l91 701l-108 -23zM262 323 l252 291l-42 -291h-210zM673 954q9 -6 18 -21l54 -96l-26 -17l-91 68l-165 -68l-12 17l132 96q21 15 34 21t30 6t26 -6z" />
<glyph unicode="&#xc3;" horiz-adv-x="748" d="M521 677l-463 -538q-35 -40 -58.5 -60.5t-53 -32t-77.5 -18.5l-14 -28h278l13 28q-44 6 -64 15.5t-21 25.5q0 13 8 26.5t32 41.5l129 149h237l-25 -181q-7 -45 -32.5 -60.5t-84.5 -16.5l-14 -28h308l14 28q-48 3 -66 12.5t-19 34.5q0 11 1 17l91 701l-108 -23zM262 323 l252 291l-42 -291h-210zM478.5 880q16.5 10 38.5 10q16 0 29.5 -4.5t38.5 -14.5q21 -10 37 -15t31 -5q37 0 71.5 33t51.5 85h-24q-20 -38 -62 -38q-20 0 -42 8t-26 9q-46 18 -70 18q-37 0 -71 -32t-48 -82h21q8 18 24.5 28z" />
<glyph unicode="&#xc4;" horiz-adv-x="748" d="M521 677l-463 -538q-35 -40 -58.5 -60.5t-53 -32t-77.5 -18.5l-14 -28h278l13 28q-44 6 -64 15.5t-21 25.5q0 13 8 26.5t32 41.5l129 149h237l-25 -181q-7 -45 -32.5 -60.5t-84.5 -16.5l-14 -28h308l14 28q-48 3 -66 12.5t-19 34.5q0 11 1 17l91 701l-108 -23zM262 323 l252 291l-42 -291h-210zM476.5 942q-19.5 -18 -19.5 -42q0 -23 15 -37t40 -14q26 0 46.5 19t20.5 43q0 21 -17 35t-40 14q-26 0 -45.5 -18zM651.5 942q-19.5 -18 -19.5 -42q0 -23 15 -37t40 -14q26 0 46.5 19t20.5 43q0 21 -17 35t-40 14q-26 0 -45.5 -18z" />
<glyph unicode="&#xc5;" horiz-adv-x="748" d="M521 677l-463 -538q-35 -40 -58.5 -60.5t-53 -32t-77.5 -18.5l-14 -28h278l13 28q-44 6 -64 15.5t-21 25.5q0 13 8 26.5t32 41.5l129 149h237l-25 -181q-7 -45 -32.5 -60.5t-84.5 -16.5l-14 -28h308l14 28q-48 3 -66 12.5t-19 34.5q0 11 1 17l91 701l-108 -23zM262 323 l252 291l-42 -291h-210zM546 947q-24 -23 -24 -54q0 -27 19 -45t48 -18q34 0 60.5 23.5t26.5 53.5q0 26 -21 44.5t-51 18.5q-34 0 -58 -23zM625.5 923.5q10.5 -8.5 10.5 -20.5q0 -14 -13 -25.5t-29 -11.5q-14 0 -23 9t-9 22q0 14 11.5 24.5t27.5 10.5q14 0 24.5 -8.5z" />
<glyph unicode="&#xc6;" horiz-adv-x="1040" d="M959 230h-29q-61 -102 -137 -190h-323l142 346h174q-4 -71 -17 -120h29l113 274h-29q-35 -57 -84 -114h-168l124 304h226q39 -67 58 -180h27l-8 220h-522l-10 -23l77 -19l-531 -589q-36 -40 -60.5 -60.5t-54.5 -32t-78 -18.5l-14 -28h281l13 28q-44 6 -63.5 15.5 t-19.5 25.5q0 12 9 26.5t34 41.5l135 149h209l-99 -239l-92 -19l-12 -28h609zM286 323l344 379h4l-157 -379h-191z" />
<glyph unicode="&#xc7;" horiz-adv-x="742" d="M536 77q-59 -46 -114.5 -66.5t-123.5 -20.5q-235 0 -235 223q0 138 83 270t215 214.5t271 82.5q48 0 89 -11.5t68 -31.5l36 33h22l-97 -230h-29q15 56 15 94q0 53 -27.5 77.5t-86.5 24.5q-110 0 -214.5 -75t-169.5 -195.5t-65 -246.5q0 -182 152 -182q97 0 181 68.5 t135 187.5h29l-111 -293h-27l8 77h-4zM199 -226q38 0 63.5 20t25.5 50q0 34 -42 34q-30 0 -48 -12l-8 13l109 138h40l-57 -75q42 0 65 -18.5t23 -51.5t-23.5 -63t-63 -48t-83.5 -18q-25 0 -43.5 6.5t-26.5 17.5l17 23q22 -16 52 -16z" />
<glyph unicode="&#xc8;" horiz-adv-x="713" d="M632 230h-29q-61 -102 -137 -190h-323l142 346h174q-4 -71 -17 -120h29l113 274h-29q-34 -57 -84 -114h-168l124 304h226q39 -67 58 -180h27l-8 220h-480l-10 -23l78 -19l-284 -686l-92 -19l-10 -23h609zM544 928q-19 17 -33 24.5t-30 7.5q-23 0 -36.5 -13t-13.5 -35 q0 -18 9.5 -31t27.5 -18l161 -47l19 21z" />
<glyph unicode="&#xc9;" horiz-adv-x="713" d="M632 230h-29q-61 -102 -137 -190h-323l142 346h174q-4 -71 -17 -120h29l113 274h-29q-34 -57 -84 -114h-168l124 304h226q39 -67 58 -180h27l-8 220h-480l-10 -23l78 -19l-284 -686l-92 -19l-10 -23h609zM607 860q37 11 52.5 25t15.5 32t-13 30.5t-30 12.5q-22 0 -44 -16 l-144 -107l11 -21z" />
<glyph unicode="&#xca;" horiz-adv-x="713" d="M632 230h-29q-61 -102 -137 -190h-323l142 346h174q-4 -71 -17 -120h29l113 274h-29q-34 -57 -84 -114h-168l124 304h226q39 -67 58 -180h27l-8 220h-480l-10 -23l78 -19l-284 -686l-92 -19l-10 -23h609zM606 954q9 -6 18 -21l54 -96l-26 -17l-91 68l-165 -68l-12 17 l132 96q21 15 34 21t30 6t26 -6z" />
<glyph unicode="&#xcb;" horiz-adv-x="713" d="M632 230h-29q-61 -102 -137 -190h-323l142 346h174q-4 -71 -17 -120h29l113 274h-29q-34 -57 -84 -114h-168l124 304h226q39 -67 58 -180h27l-8 220h-480l-10 -23l78 -19l-284 -686l-92 -19l-10 -23h609zM414.5 942q-19.5 -18 -19.5 -42q0 -23 15 -37t40 -14 q26 0 46.5 19t20.5 43q0 21 -17 35t-40 14q-26 0 -45.5 -18zM589.5 942q-19.5 -18 -19.5 -42q0 -23 15 -37t40 -14q26 0 46.5 19t20.5 43q0 21 -17 35t-40 14q-26 0 -45.5 -18z" />
<glyph unicode="&#xcc;" horiz-adv-x="392" d="M-62 23l-10 -23h289l10 23l-82 19l285 686l96 19l10 23h-290l-10 -23l83 -19l-284 -686zM416 928q-19 17 -33 24.5t-30 7.5q-23 0 -36.5 -13t-13.5 -35q0 -18 9.5 -31t27.5 -18l161 -47l19 21z" />
<glyph unicode="&#xcd;" horiz-adv-x="392" d="M-62 23l-10 -23h289l10 23l-82 19l285 686l96 19l10 23h-290l-10 -23l83 -19l-284 -686zM469 860q37 11 52.5 25t15.5 32t-13 30.5t-30 12.5q-22 0 -44 -16l-144 -107l11 -21z" />
<glyph unicode="&#xce;" horiz-adv-x="392" d="M-62 23l-10 -23h289l10 23l-82 19l285 686l96 19l10 23h-290l-10 -23l83 -19l-284 -686zM488 954q9 -6 18 -21l54 -96l-26 -17l-91 68l-165 -68l-12 17l132 96q21 15 34 21t30 6t26 -6z" />
<glyph unicode="&#xcf;" horiz-adv-x="392" d="M-62 23l-10 -23h289l10 23l-82 19l285 686l96 19l10 23h-290l-10 -23l83 -19l-284 -686zM303.5 942q-19.5 -18 -19.5 -42q0 -23 15 -37t40 -14q26 0 46.5 19t20.5 43q0 21 -17 35t-40 14q-26 0 -45.5 -18zM478.5 942q-19.5 -18 -19.5 -42q0 -23 15 -37t40 -14 q26 0 46.5 19t20.5 43q0 21 -17 35t-40 14q-26 0 -45.5 -18z" />
<glyph unicode="&#xd0;" horiz-adv-x="808" d="M630.5 733q73.5 -37 113.5 -104.5t40 -158.5q0 -89 -34.5 -172t-97 -148.5t-144.5 -102.5q-104 -47 -263 -47h-310l10 23l92 19l138 334h-97l18 44h97l128 308l-78 19l10 23h206q98 0 171.5 -37zM456.5 96.5q99.5 54.5 158.5 157.5t59 241q0 112 -56.5 173.5t-159.5 61.5 h-27l-128 -310h150l-19 -44h-150l-102 -247q-13 -30 -13 -49q0 -21 16 -29.5t54 -8.5q118 0 217.5 54.5z" />
<glyph unicode="&#xd1;" horiz-adv-x="815" d="M349 690l-269 -648l82 -19l-10 -23h-227l10 23l97 19l284 686l-83 19l10 23h212l124 -599h4l231 557l-83 19l10 23h228l-10 -23l-96 -19l-307 -738h-58l-145 700h-4zM514.5 864q16.5 10 38.5 10q16 0 29.5 -4.5t38.5 -14.5q21 -10 37 -15t31 -5q37 0 71.5 33t51.5 85h-24 q-20 -38 -62 -38q-20 0 -42 8t-26 9q-46 18 -70 18q-37 0 -71 -32t-48 -82h21q8 18 24.5 28z" />
<glyph unicode="&#xd2;" d="M541.5 68.5q115.5 78.5 187.5 204t72 258.5q0 119 -60.5 184t-169.5 65q-121 0 -236.5 -79t-187.5 -205.5t-72 -259.5q0 -117 60 -181.5t169 -64.5q122 0 237.5 78.5zM222.5 79.5q-31.5 42.5 -31.5 130.5q0 126 55 248.5t142.5 200t176.5 77.5q63 0 94 -42.5t31 -128.5 q0 -127 -54.5 -250t-141 -200.5t-175.5 -77.5q-65 0 -96.5 42.5zM625 928q-19 17 -33 24.5t-30 7.5q-23 0 -36.5 -13t-13.5 -35q0 -18 9.5 -31t27.5 -18l161 -47l19 21z" />
<glyph unicode="&#xd3;" d="M541.5 68.5q115.5 78.5 187.5 204t72 258.5q0 119 -60.5 184t-169.5 65q-121 0 -236.5 -79t-187.5 -205.5t-72 -259.5q0 -117 60 -181.5t169 -64.5q122 0 237.5 78.5zM222.5 79.5q-31.5 42.5 -31.5 130.5q0 126 55 248.5t142.5 200t176.5 77.5q63 0 94 -42.5t31 -128.5 q0 -127 -54.5 -250t-141 -200.5t-175.5 -77.5q-65 0 -96.5 42.5zM678 860q37 11 52.5 25t15.5 32t-13 30.5t-30 12.5q-22 0 -44 -16l-144 -107l11 -21z" />
<glyph unicode="&#xd4;" d="M541.5 68.5q115.5 78.5 187.5 204t72 258.5q0 119 -60.5 184t-169.5 65q-121 0 -236.5 -79t-187.5 -205.5t-72 -259.5q0 -117 60 -181.5t169 -64.5q122 0 237.5 78.5zM222.5 79.5q-31.5 42.5 -31.5 130.5q0 126 55 248.5t142.5 200t176.5 77.5q63 0 94 -42.5t31 -128.5 q0 -127 -54.5 -250t-141 -200.5t-175.5 -77.5q-65 0 -96.5 42.5zM697 954q9 -6 18 -21l54 -96l-26 -17l-91 68l-165 -68l-12 17l132 96q21 15 34 21t30 6t26 -6z" />
<glyph unicode="&#xd5;" d="M541.5 68.5q115.5 78.5 187.5 204t72 258.5q0 119 -60.5 184t-169.5 65q-121 0 -236.5 -79t-187.5 -205.5t-72 -259.5q0 -117 60 -181.5t169 -64.5q122 0 237.5 78.5zM222.5 79.5q-31.5 42.5 -31.5 130.5q0 126 55 248.5t142.5 200t176.5 77.5q63 0 94 -42.5t31 -128.5 q0 -127 -54.5 -250t-141 -200.5t-175.5 -77.5q-65 0 -96.5 42.5zM510.5 864q16.5 10 38.5 10q16 0 29.5 -4.5t38.5 -14.5q21 -10 37 -15t31 -5q37 0 71.5 33t51.5 85h-24q-20 -38 -62 -38q-20 0 -42 8t-26 9q-46 18 -70 18q-37 0 -71 -32t-48 -82h21q8 18 24.5 28z" />
<glyph unicode="&#xd6;" d="M541.5 68.5q115.5 78.5 187.5 204t72 258.5q0 119 -60.5 184t-169.5 65q-121 0 -236.5 -79t-187.5 -205.5t-72 -259.5q0 -117 60 -181.5t169 -64.5q122 0 237.5 78.5zM222.5 79.5q-31.5 42.5 -31.5 130.5q0 126 55 248.5t142.5 200t176.5 77.5q63 0 94 -42.5t31 -128.5 q0 -127 -54.5 -250t-141 -200.5t-175.5 -77.5q-65 0 -96.5 42.5zM520.5 942q-19.5 -18 -19.5 -42q0 -23 15 -37t40 -14q26 0 46.5 19t20.5 43q0 21 -17 35t-40 14q-26 0 -45.5 -18zM695.5 942q-19.5 -18 -19.5 -42q0 -23 15 -37t40 -14q26 0 46.5 19t20.5 43q0 21 -17 35 t-40 14q-26 0 -45.5 -18z" />
<glyph unicode="&#xd7;" horiz-adv-x="553" d="M111 480l37 37l140 -140l140 140l39 -39l-140 -140l139 -139l-37 -37l-139 139l-141 -141l-39 39l141 141z" />
<glyph unicode="&#xd8;" d="M782.5 645.5q18.5 -49.5 18.5 -114.5q0 -133 -72 -258.5t-187.5 -204t-237.5 -78.5q-50 0 -90 14l-109 -153h-53l122 172q-48 29 -73.5 83.5t-25.5 129.5q0 133 72 259.5t187.5 205.5t236.5 79q71 0 120 -27l97 136h55l-115 -162q36 -32 54.5 -81.5zM218 86l436 614 q-31 36 -89 36q-89 0 -176.5 -77.5t-142.5 -200t-55 -248.5q0 -82 27 -124zM494.5 114.5q86.5 77.5 141 200.5t54.5 250q0 55 -12 91l-428 -602q28 -17 69 -17q89 0 175.5 77.5z" />
<glyph unicode="&#xd9;" horiz-adv-x="778" d="M94 150q0 -78 55 -119t161 -41q102 0 179 52t134 188l211 498l95 19l9 23h-221l-11 -23l84 -19l-203 -469q-36 -84 -72.5 -132.5t-78 -69t-96.5 -20.5q-73 0 -108.5 26.5t-35.5 80.5q0 26 8 60t21 65l191 458l96 20l10 23h-285l-9 -23l82 -19l-173 -408 q-43 -101 -43 -170zM618 928q-19 17 -33 24.5t-30 7.5q-23 0 -36.5 -13t-13.5 -35q0 -18 9.5 -31t27.5 -18l161 -47l19 21z" />
<glyph unicode="&#xda;" horiz-adv-x="778" d="M94 150q0 -78 55 -119t161 -41q102 0 179 52t134 188l211 498l95 19l9 23h-221l-11 -23l84 -19l-203 -469q-36 -84 -72.5 -132.5t-78 -69t-96.5 -20.5q-73 0 -108.5 26.5t-35.5 80.5q0 26 8 60t21 65l191 458l96 20l10 23h-285l-9 -23l82 -19l-173 -408 q-43 -101 -43 -170zM711 860q37 11 52.5 25t15.5 32t-13 30.5t-30 12.5q-22 0 -44 -16l-144 -107l11 -21z" />
<glyph unicode="&#xdb;" horiz-adv-x="778" d="M94 150q0 -78 55 -119t161 -41q102 0 179 52t134 188l211 498l95 19l9 23h-221l-11 -23l84 -19l-203 -469q-36 -84 -72.5 -132.5t-78 -69t-96.5 -20.5q-73 0 -108.5 26.5t-35.5 80.5q0 26 8 60t21 65l191 458l96 20l10 23h-285l-9 -23l82 -19l-173 -408 q-43 -101 -43 -170zM730 954q9 -6 18 -21l54 -96l-26 -17l-91 68l-165 -68l-12 17l132 96q21 15 34 21t30 6t26 -6z" />
<glyph unicode="&#xdc;" horiz-adv-x="778" d="M94 150q0 -78 55 -119t161 -41q102 0 179 52t134 188l211 498l95 19l9 23h-221l-11 -23l84 -19l-203 -469q-36 -84 -72.5 -132.5t-78 -69t-96.5 -20.5q-73 0 -108.5 26.5t-35.5 80.5q0 26 8 60t21 65l191 458l96 20l10 23h-285l-9 -23l82 -19l-173 -408 q-43 -101 -43 -170zM533.5 942q-19.5 -18 -19.5 -42q0 -23 15 -37t40 -14q26 0 46.5 19t20.5 43q0 21 -17 35t-40 14q-26 0 -45.5 -18zM708.5 942q-19.5 -18 -19.5 -42q0 -23 15 -37t40 -14q26 0 46.5 19t20.5 43q0 21 -17 35t-40 14q-26 0 -45.5 -18z" />
<glyph unicode="&#xdd;" horiz-adv-x="716" d="M402 23l-98 19l135 321l269 275q45 45 73 66.5t56 30.5t71 12l13 23h-276l-9 -23q83 0 83 -31q0 -19 -33 -52l-269 -270l-30 246q-3 21 -3 37q0 39 17.5 53.5t60.5 16.5l10 23h-282l-10 -23q36 0 53 -7t24.5 -23.5t12.5 -52.5l49 -324l-124 -298l-97 -19l-10 -23h304z M645 860q37 11 52.5 25t15.5 32t-13 30.5t-30 12.5q-22 0 -44 -16l-144 -107l11 -21z" />
<glyph unicode="&#xde;" horiz-adv-x="658" d="M-52 23l-9 -23h316l10 23l-119 19l53 125h98q106 0 187 31.5t125.5 89t44.5 132.5q0 83 -60.5 129.5t-169.5 46.5h-44l56 132l88 19l9 23h-316l-10 -23l119 -19l-290 -686zM363 555h61q61 0 93.5 -31t32.5 -90q0 -61 -32 -112t-87 -81t-120 -30h-93z" />
<glyph unicode="&#xdf;" horiz-adv-x="669" d="M368.5 472.5q22.5 31.5 68.5 71.5q33 28 52.5 49.5t33.5 51.5t14 70q0 43 -17.5 65.5t-50.5 22.5q-49 0 -89 -50t-81 -163l-142 -387q-56 -153 -104 -239t-99.5 -123.5t-118.5 -37.5q-56 0 -90 22.5t-34 59.5q0 42 44 42q25 0 36 -11.5t20 -34.5q8 -22 17.5 -32.5 t30.5 -10.5q27 0 49.5 25t50.5 89t74 191l164 457q38 108 110.5 169t163.5 61q68 0 110.5 -33t42.5 -86q0 -42 -23.5 -70.5t-70.5 -63.5q-49 -38 -74 -69t-25 -77q0 -39 18.5 -72.5t54.5 -81.5q35 -45 52 -75t17 -65q0 -40 -25.5 -74t-69.5 -53.5t-97 -19.5q-44 0 -82 13.5 t-60.5 35.5t-22.5 48q0 19 12.5 30t32.5 11q21 0 30.5 -11.5t18.5 -36.5q10 -29 24 -44t47 -15q42 0 68.5 25t26.5 63q0 29 -14.5 56t-44.5 68q-35 49 -53 84t-18 77q0 47 22.5 78.5z" />
<glyph unicode="&#xe0;" horiz-adv-x="604" d="M204 473.5q-87 -66.5 -145.5 -165t-58.5 -186.5q0 -62 29.5 -97t80.5 -35q50 0 98.5 38t107.5 124l6 -3q-19 -31 -26.5 -54.5t-7.5 -46.5q0 -29 15.5 -43.5t43.5 -14.5q83 0 190 134l-20 14q-80 -89 -111 -89q-16 0 -16 19q0 10 10 41l172 421h-102l-16 -37 q-18 26 -36.5 36.5t-46.5 10.5q-80 0 -167 -66.5zM100.5 39q-8.5 14 -8.5 44q0 70 51.5 172t121 177.5t117.5 75.5q20 0 33 -13.5t13 -36.5q0 -17 -4 -36t-18 -50q-40 -92 -92 -172t-101.5 -127.5t-83.5 -47.5q-20 0 -28.5 14zM480 792q0 3 0.5 8t0.5 15q0 42 -47 42 q-21 0 -36.5 -13t-15.5 -33q0 -13 3 -25t10 -31l45 -119l28 6z" />
<glyph unicode="&#xe1;" horiz-adv-x="604" d="M204 473.5q-87 -66.5 -145.5 -165t-58.5 -186.5q0 -62 29.5 -97t80.5 -35q50 0 98.5 38t107.5 124l6 -3q-19 -31 -26.5 -54.5t-7.5 -46.5q0 -29 15.5 -43.5t43.5 -14.5q83 0 190 134l-20 14q-80 -89 -111 -89q-16 0 -16 19q0 10 10 41l172 421h-102l-16 -37 q-18 26 -36.5 36.5t-46.5 10.5q-80 0 -167 -66.5zM100.5 39q-8.5 14 -8.5 44q0 70 51.5 172t121 177.5t117.5 75.5q20 0 33 -13.5t13 -36.5q0 -17 -4 -36t-18 -50q-40 -92 -92 -172t-101.5 -127.5t-83.5 -47.5q-20 0 -28.5 14zM495 750q27 19 38.5 34.5t11.5 30.5 q0 18 -14 30t-35 12q-34 0 -63 -44l-116 -171l16 -11z" />
<glyph unicode="&#xe2;" horiz-adv-x="604" d="M204 473.5q-87 -66.5 -145.5 -165t-58.5 -186.5q0 -62 29.5 -97t80.5 -35q50 0 98.5 38t107.5 124l6 -3q-19 -31 -26.5 -54.5t-7.5 -46.5q0 -29 15.5 -43.5t43.5 -14.5q83 0 190 134l-20 14q-80 -89 -111 -89q-16 0 -16 19q0 10 10 41l172 421h-102l-16 -37 q-18 26 -36.5 36.5t-46.5 10.5q-80 0 -167 -66.5zM100.5 39q-8.5 14 -8.5 44q0 70 51.5 172t121 177.5t117.5 75.5q20 0 33 -13.5t13 -36.5q0 -17 -4 -36t-18 -50q-40 -92 -92 -172t-101.5 -127.5t-83.5 -47.5q-20 0 -28.5 14zM545.5 850q8.5 -7 10.5 -22l16 -188l-23 -12 l-70 141l-183 -141l-19 12l171 188q26 29 68 29q21 0 29.5 -7z" />
<glyph unicode="&#xe3;" horiz-adv-x="604" d="M204 473.5q-87 -66.5 -145.5 -165t-58.5 -186.5q0 -62 29.5 -97t80.5 -35q50 0 98.5 38t107.5 124l6 -3q-19 -31 -26.5 -54.5t-7.5 -46.5q0 -29 15.5 -43.5t43.5 -14.5q83 0 190 134l-20 14q-80 -89 -111 -89q-16 0 -16 19q0 10 10 41l172 421h-102l-16 -37 q-18 26 -36.5 36.5t-46.5 10.5q-80 0 -167 -66.5zM100.5 39q-8.5 14 -8.5 44q0 70 51.5 172t121 177.5t117.5 75.5q20 0 33 -13.5t13 -36.5q0 -17 -4 -36t-18 -50q-40 -92 -92 -172t-101.5 -127.5t-83.5 -47.5q-20 0 -28.5 14zM329.5 711q16.5 10 38.5 10q16 0 29.5 -4.5 t38.5 -14.5q21 -10 37 -15t31 -5q37 0 71.5 33t51.5 85h-24q-20 -38 -62 -38q-20 0 -42 8t-26 9q-46 18 -70 18q-37 0 -71 -32t-48 -82h21q8 18 24.5 28z" />
<glyph unicode="&#xe4;" horiz-adv-x="604" d="M204 473.5q-87 -66.5 -145.5 -165t-58.5 -186.5q0 -62 29.5 -97t80.5 -35q50 0 98.5 38t107.5 124l6 -3q-19 -31 -26.5 -54.5t-7.5 -46.5q0 -29 15.5 -43.5t43.5 -14.5q83 0 190 134l-20 14q-80 -89 -111 -89q-16 0 -16 19q0 10 10 41l172 421h-102l-16 -37 q-18 26 -36.5 36.5t-46.5 10.5q-80 0 -167 -66.5zM100.5 39q-8.5 14 -8.5 44q0 70 51.5 172t121 177.5t117.5 75.5q20 0 33 -13.5t13 -36.5q0 -17 -4 -36t-18 -50q-40 -92 -92 -172t-101.5 -127.5t-83.5 -47.5q-20 0 -28.5 14zM339.5 762q-19.5 -18 -19.5 -42q0 -23 15 -37 t40 -14q26 0 46.5 19t20.5 43q0 21 -17 35t-40 14q-26 0 -45.5 -18zM514.5 762q-19.5 -18 -19.5 -42q0 -23 15 -37t40 -14q26 0 46.5 19t20.5 43q0 21 -17 35t-40 14q-26 0 -45.5 -18z" />
<glyph unicode="&#xe5;" horiz-adv-x="604" d="M204 473.5q-87 -66.5 -145.5 -165t-58.5 -186.5q0 -62 29.5 -97t80.5 -35q50 0 98.5 38t107.5 124l6 -3q-19 -31 -26.5 -54.5t-7.5 -46.5q0 -29 15.5 -43.5t43.5 -14.5q83 0 190 134l-20 14q-80 -89 -111 -89q-16 0 -16 19q0 10 10 41l172 421h-102l-16 -37 q-18 26 -36.5 36.5t-46.5 10.5q-80 0 -167 -66.5zM100.5 39q-8.5 14 -8.5 44q0 70 51.5 172t121 177.5t117.5 75.5q20 0 33 -13.5t13 -36.5q0 -17 -4 -36t-18 -50q-40 -92 -92 -172t-101.5 -127.5t-83.5 -47.5q-20 0 -28.5 14zM413.5 790q-28.5 -27 -28.5 -64 q0 -32 22.5 -53.5t56.5 -21.5q40 0 71.5 28t31.5 64q0 31 -25 52.5t-60 21.5q-40 0 -68.5 -27zM514 769.5q15 -12.5 15 -30.5q0 -20 -18.5 -36.5t-41.5 -16.5q-20 0 -33 12t-13 31q0 22 16.5 37.5t39.5 15.5q20 0 35 -12.5z" />
<glyph unicode="&#xe6;" d="M635 522.5q-44 -17.5 -86 -50.5l24 58h-102l-16 -37q-19 26 -37.5 36.5t-46.5 10.5q-79 0 -166 -66t-145.5 -165t-58.5 -188q0 -61 29.5 -96t80.5 -35q50 0 98.5 38t107.5 124l6 -3q-1 -6 -1 -24q0 -65 33 -100t94 -35q128 0 253 155l-22 14q-44 -59 -101.5 -96.5 t-104.5 -37.5q-29 0 -43.5 16.5t-14.5 50.5q0 71 57 177q99 17 176.5 49t120.5 72t43 81q0 31 -25.5 50t-67.5 19q-41 0 -85 -17.5zM610.5 467q49.5 42 90.5 42q32 0 32 -30q0 -34 -33.5 -70.5t-88.5 -65.5t-116 -41l32 59q34 64 83.5 106zM93 81q0 72 51.5 174t121 177.5 t118.5 75.5q21 0 33 -15t12 -41q0 -27 -22 -80q-37 -89 -89.5 -169.5t-104 -129t-85.5 -48.5q-35 0 -35 56z" />
<glyph unicode="&#xe7;" horiz-adv-x="498" d="M264.5 439.5q-65.5 -69.5 -110.5 -167t-45 -173.5q0 -38 13.5 -56t45.5 -18q85 0 216 134l22 -13q-65 -77 -133 -116.5t-133 -39.5q-64 0 -97 39t-33 114q1 83 45 165t122 143q54 42 113 65.5t109 23.5q51 0 86 -26.5t35 -64.5q0 -18 -12 -29t-32 -11q-39 0 -46 48 q-5 28 -14.5 40t-28.5 12q-57 0 -122.5 -69.5zM28 -226q38 0 63.5 20t25.5 50q0 34 -42 34q-30 0 -48 -12l-8 13l109 138h40l-57 -75q42 0 65 -18.5t23 -51.5t-23.5 -63t-63 -48t-83.5 -18q-25 0 -43.5 6.5t-26.5 17.5l17 23q22 -16 52 -16z" />
<glyph unicode="&#xe8;" horiz-adv-x="485" d="M218.5 475q-93.5 -65 -156 -163t-62.5 -187q0 -64 34 -99.5t96 -35.5q130 0 253 155l-22 14q-44 -59 -101.5 -96.5t-104.5 -37.5q-29 0 -43.5 16.5t-14.5 50.5q0 70 57 177q99 17 176.5 49t120.5 72t43 81q0 32 -26 50.5t-70 18.5q-86 0 -179.5 -65zM291.5 467 q49.5 42 90.5 42q32 0 32 -30q0 -34 -33.5 -70.5t-88.5 -65.5t-116 -41l32 59q34 64 83.5 106zM472 792q0 3 0.5 8t0.5 15q0 42 -47 42q-21 0 -36.5 -13t-15.5 -33q0 -13 3 -25t10 -31l45 -119l28 6z" />
<glyph unicode="&#xe9;" horiz-adv-x="485" d="M218.5 475q-93.5 -65 -156 -163t-62.5 -187q0 -64 34 -99.5t96 -35.5q130 0 253 155l-22 14q-44 -59 -101.5 -96.5t-104.5 -37.5q-29 0 -43.5 16.5t-14.5 50.5q0 70 57 177q99 17 176.5 49t120.5 72t43 81q0 32 -26 50.5t-70 18.5q-86 0 -179.5 -65zM291.5 467 q49.5 42 90.5 42q32 0 32 -30q0 -34 -33.5 -70.5t-88.5 -65.5t-116 -41l32 59q34 64 83.5 106zM487 750q27 19 38.5 34.5t11.5 30.5q0 18 -14 30t-35 12q-34 0 -63 -44l-116 -171l16 -11z" />
<glyph unicode="&#xea;" horiz-adv-x="485" d="M218.5 475q-93.5 -65 -156 -163t-62.5 -187q0 -64 34 -99.5t96 -35.5q130 0 253 155l-22 14q-44 -59 -101.5 -96.5t-104.5 -37.5q-29 0 -43.5 16.5t-14.5 50.5q0 70 57 177q99 17 176.5 49t120.5 72t43 81q0 32 -26 50.5t-70 18.5q-86 0 -179.5 -65zM291.5 467 q49.5 42 90.5 42q32 0 32 -30q0 -34 -33.5 -70.5t-88.5 -65.5t-116 -41l32 59q34 64 83.5 106zM537.5 850q8.5 -7 10.5 -22l16 -188l-23 -12l-70 141l-183 -141l-19 12l171 188q26 29 68 29q21 0 29.5 -7z" />
<glyph unicode="&#xeb;" horiz-adv-x="485" d="M218.5 475q-93.5 -65 -156 -163t-62.5 -187q0 -64 34 -99.5t96 -35.5q130 0 253 155l-22 14q-44 -59 -101.5 -96.5t-104.5 -37.5q-29 0 -43.5 16.5t-14.5 50.5q0 70 57 177q99 17 176.5 49t120.5 72t43 81q0 32 -26 50.5t-70 18.5q-86 0 -179.5 -65zM291.5 467 q49.5 42 90.5 42q32 0 32 -30q0 -34 -33.5 -70.5t-88.5 -65.5t-116 -41l32 59q34 64 83.5 106zM308.5 762q-19.5 -18 -19.5 -42q0 -23 15 -37t40 -14q26 0 46.5 19t20.5 43q0 21 -17 35t-40 14q-26 0 -45.5 -18zM483.5 762q-19.5 -18 -19.5 -42q0 -23 15 -37t40 -14 q26 0 46.5 19t20.5 43q0 21 -17 35t-40 14q-26 0 -45.5 -18z" />
<glyph unicode="&#xec;" horiz-adv-x="340" d="M142 516q-45 -24 -78 -65l23 -18q23 29 46.5 45.5t41.5 16.5q13 0 13 -9q0 -8 -5 -19l-145 -356q-15 -35 -15 -65q0 -28 17.5 -42t47.5 -14q38 0 89.5 34.5t97.5 92.5l-20 12q-49 -48 -70 -64t-35 -16q-9 0 -14.5 5.5t-5.5 13.5q0 6 3 13l143 344q16 38 16 66 q0 23 -18 36t-47 13q-40 0 -85 -24zM347 792q0 3 0.5 8t0.5 15q0 42 -47 42q-21 0 -36.5 -13t-15.5 -33q0 -13 3 -25t10 -31l45 -119l28 6z" />
<glyph unicode="&#xed;" horiz-adv-x="340" d="M142 516q-45 -24 -78 -65l23 -18q23 29 46.5 45.5t41.5 16.5q13 0 13 -9q0 -8 -5 -19l-145 -356q-15 -35 -15 -65q0 -28 17.5 -42t47.5 -14q38 0 89.5 34.5t97.5 92.5l-20 12q-49 -48 -70 -64t-35 -16q-9 0 -14.5 5.5t-5.5 13.5q0 6 3 13l143 344q16 38 16 66 q0 23 -18 36t-47 13q-40 0 -85 -24zM362 750q27 19 38.5 34.5t11.5 30.5q0 18 -14 30t-35 12q-34 0 -63 -44l-116 -171l16 -11z" />
<glyph unicode="&#xee;" horiz-adv-x="340" d="M142 516q-45 -24 -78 -65l23 -18q23 29 46.5 45.5t41.5 16.5q13 0 13 -9q0 -8 -5 -19l-145 -356q-15 -35 -15 -65q0 -28 17.5 -42t47.5 -14q38 0 89.5 34.5t97.5 92.5l-20 12q-49 -48 -70 -64t-35 -16q-9 0 -14.5 5.5t-5.5 13.5q0 6 3 13l143 344q16 38 16 66 q0 23 -18 36t-47 13q-40 0 -85 -24zM379.5 850q8.5 -7 10.5 -22l16 -188l-23 -12l-70 141l-183 -141l-19 12l171 188q26 29 68 29q21 0 29.5 -7z" />
<glyph unicode="&#xef;" horiz-adv-x="340" d="M142 516q-45 -24 -78 -65l23 -18q23 29 46.5 45.5t41.5 16.5q13 0 13 -9q0 -8 -5 -19l-145 -356q-15 -35 -15 -65q0 -28 17.5 -42t47.5 -14q38 0 89.5 34.5t97.5 92.5l-20 12q-49 -48 -70 -64t-35 -16q-9 0 -14.5 5.5t-5.5 13.5q0 6 3 13l143 344q16 38 16 66 q0 23 -18 36t-47 13q-40 0 -85 -24zM169.5 762q-19.5 -18 -19.5 -42q0 -23 15 -37t40 -14q26 0 46.5 19t20.5 43q0 21 -17 35t-40 14q-26 0 -45.5 -18zM344.5 762q-19.5 -18 -19.5 -42q0 -23 15 -37t40 -14q26 0 46.5 19t20.5 43q0 21 -17 35t-40 14q-26 0 -45.5 -18z" />
<glyph unicode="&#xf0;" horiz-adv-x="555" d="M437 502h4q-2 41 -12.5 75.5t-33.5 79.5l-130 -84l-21 33l135 87q-20 31 -48.5 53.5t-76.5 46.5l14 26q54 -24 89.5 -47.5t62.5 -51.5l130 82l22 -32l-129 -82q29 -39 50.5 -119.5t21.5 -152.5q0 -106 -50.5 -205t-131.5 -160t-169 -61q-71 0 -111 42.5t-40 118.5 q0 88 53.5 179t135 150.5t160.5 59.5q56 0 75 -38zM258 429.5q-64 -66.5 -109 -161.5t-45 -171q0 -72 45 -72q48 0 113 69.5t112 166t47 168.5q0 67 -47 67q-52 0 -116 -66.5z" />
<glyph unicode="&#xf1;" horiz-adv-x="629" d="M146.5 509q-51.5 -31 -89.5 -83l20 -16q31 38 60 61.5t46 23.5q14 0 14 -15q0 -7 -11 -34l-192 -446h97l93 194q42 88 91.5 159t95.5 111.5t80 40.5q15 0 23.5 -8t8.5 -22q0 -22 -13 -48l-136 -269q-36 -72 -36 -115q0 -53 59 -53q94 0 201 134l-21 15q-38 -43 -69 -66.5 t-48 -23.5q-12 0 -12 14q0 18 20 58l117 239q25 50 25 92q0 43 -23 65t-68 22q-55 0 -107.5 -37t-117.5 -122l-4 2q24 44 34 71t10 47q0 21 -11.5 30.5t-36.5 9.5q-48 0 -99.5 -31zM324.5 711q16.5 10 38.5 10q16 0 29.5 -4.5t38.5 -14.5q21 -10 37 -15t31 -5q37 0 71.5 33 t51.5 85h-24q-20 -38 -62 -38q-20 0 -42 8t-26 9q-46 18 -70 18q-37 0 -71 -32t-48 -82h21q8 18 24.5 28z" />
<glyph unicode="&#xf2;" horiz-adv-x="557" d="M324 49q83 59 137 149t54 178q0 76 -39 120t-110 44q-81 0 -163.5 -59t-136 -149t-53.5 -177q0 -77 38.5 -121t109.5 -44q80 0 163 59zM414.5 488q11.5 -17 11.5 -51q0 -71 -48.5 -169.5t-114.5 -170.5t-114 -72q-24 0 -34.5 18t-10.5 55q0 75 46.5 172t111.5 166t116 69 q25 0 36.5 -17zM486 792q0 3 0.5 8t0.5 15q0 42 -47 42q-21 0 -36.5 -13t-15.5 -33q0 -13 3 -25t10 -31l45 -119l28 6z" />
<glyph unicode="&#xf3;" horiz-adv-x="557" d="M324 49q83 59 137 149t54 178q0 76 -39 120t-110 44q-81 0 -163.5 -59t-136 -149t-53.5 -177q0 -77 38.5 -121t109.5 -44q80 0 163 59zM414.5 488q11.5 -17 11.5 -51q0 -71 -48.5 -169.5t-114.5 -170.5t-114 -72q-24 0 -34.5 18t-10.5 55q0 75 46.5 172t111.5 166t116 69 q25 0 36.5 -17zM501 750q27 19 38.5 34.5t11.5 30.5q0 18 -14 30t-35 12q-34 0 -63 -44l-116 -171l16 -11z" />
<glyph unicode="&#xf4;" horiz-adv-x="557" d="M324 49q83 59 137 149t54 178q0 76 -39 120t-110 44q-81 0 -163.5 -59t-136 -149t-53.5 -177q0 -77 38.5 -121t109.5 -44q80 0 163 59zM414.5 488q11.5 -17 11.5 -51q0 -71 -48.5 -169.5t-114.5 -170.5t-114 -72q-24 0 -34.5 18t-10.5 55q0 75 46.5 172t111.5 166t116 69 q25 0 36.5 -17zM551.5 850q8.5 -7 10.5 -22l16 -188l-23 -12l-70 141l-183 -141l-19 12l171 188q26 29 68 29q21 0 29.5 -7z" />
<glyph unicode="&#xf5;" horiz-adv-x="557" d="M324 49q83 59 137 149t54 178q0 76 -39 120t-110 44q-81 0 -163.5 -59t-136 -149t-53.5 -177q0 -77 38.5 -121t109.5 -44q80 0 163 59zM414.5 488q11.5 -17 11.5 -51q0 -71 -48.5 -169.5t-114.5 -170.5t-114 -72q-24 0 -34.5 18t-10.5 55q0 75 46.5 172t111.5 166t116 69 q25 0 36.5 -17zM310.5 711q16.5 10 38.5 10q16 0 29.5 -4.5t38.5 -14.5q21 -10 37 -15t31 -5q37 0 71.5 33t51.5 85h-24q-20 -38 -62 -38q-20 0 -42 8t-26 9q-46 18 -70 18q-37 0 -71 -32t-48 -82h21q8 18 24.5 28z" />
<glyph unicode="&#xf6;" horiz-adv-x="557" d="M324 49q83 59 137 149t54 178q0 76 -39 120t-110 44q-81 0 -163.5 -59t-136 -149t-53.5 -177q0 -77 38.5 -121t109.5 -44q80 0 163 59zM414.5 488q11.5 -17 11.5 -51q0 -71 -48.5 -169.5t-114.5 -170.5t-114 -72q-24 0 -34.5 18t-10.5 55q0 75 46.5 172t111.5 166t116 69 q25 0 36.5 -17zM308.5 762q-19.5 -18 -19.5 -42q0 -23 15 -37t40 -14q26 0 46.5 19t20.5 43q0 21 -17 35t-40 14q-26 0 -45.5 -18zM483.5 762q-19.5 -18 -19.5 -42q0 -23 15 -37t40 -14q26 0 46.5 19t20.5 43q0 21 -17 35t-40 14q-26 0 -45.5 -18z" />
<glyph unicode="&#xf7;" horiz-adv-x="533" d="M224 563q19 20 49 20q32 0 51 -19.5t19 -50.5q0 -29 -19.5 -48.5t-50.5 -19.5q-30 0 -49 20t-19 48q0 30 19 50zM77 364h410v-49h-410v49zM224 220q19 20 49 20q32 0 51 -19.5t19 -50.5q0 -29 -19.5 -48.5t-50.5 -19.5q-30 0 -49 20t-19 48q0 30 19 50z" />
<glyph unicode="&#xf8;" horiz-adv-x="557" d="M515 376q0 -88 -54 -178t-137 -149t-163 -59q-34 0 -62 11l-86 -121h-53l102 144q-49 43 -49 131q0 87 53.5 177t136 149t163.5 59q29 0 55 -8l90 126h55l-105 -148q54 -43 54 -134zM104 84l296 417q-8 4 -22 4q-51 0 -116 -69t-111.5 -166t-46.5 -172v-14zM263 97 q66 72 114.5 170.5t48.5 169.5q0 15 -1 22l-303 -425q11 -9 27 -9q48 0 114 72z" />
<glyph unicode="&#xf9;" horiz-adv-x="618" d="M141 464.5q24 16.5 38 16.5q12 0 12 -13q0 -19 -20 -59l-117 -239q-25 -52 -25 -91q0 -88 89 -88q55 0 104 36.5t112 122.5l5 -2q-31 -62 -31 -100q0 -26 16.5 -42t40.5 -16q35 0 80.5 31.5t85.5 82.5l-20 16q-31 -38 -59.5 -61.5t-46.5 -23.5q-6 0 -10 3t-4 9 q0 13 11 37l194 446h-99l-91 -194q-42 -89 -88.5 -160t-90 -111t-75.5 -40q-13 0 -21.5 7.5t-8.5 20.5q0 23 13 50l131 269q35 73 35 116q0 26 -15.5 39t-43.5 13q-84 0 -176 -106l23 -16q28 30 52 46.5zM506 792q0 3 0.5 8t0.5 15q0 42 -47 42q-21 0 -36.5 -13t-15.5 -33 q0 -13 3 -25t10 -31l45 -119l28 6z" />
<glyph unicode="&#xfa;" horiz-adv-x="618" d="M141 464.5q24 16.5 38 16.5q12 0 12 -13q0 -19 -20 -59l-117 -239q-25 -52 -25 -91q0 -88 89 -88q55 0 104 36.5t112 122.5l5 -2q-31 -62 -31 -100q0 -26 16.5 -42t40.5 -16q35 0 80.5 31.5t85.5 82.5l-20 16q-31 -38 -59.5 -61.5t-46.5 -23.5q-6 0 -10 3t-4 9 q0 13 11 37l194 446h-99l-91 -194q-42 -89 -88.5 -160t-90 -111t-75.5 -40q-13 0 -21.5 7.5t-8.5 20.5q0 23 13 50l131 269q35 73 35 116q0 26 -15.5 39t-43.5 13q-84 0 -176 -106l23 -16q28 30 52 46.5zM521 750q27 19 38.5 34.5t11.5 30.5q0 18 -14 30t-35 12 q-34 0 -63 -44l-116 -171l16 -11z" />
<glyph unicode="&#xfb;" horiz-adv-x="618" d="M141 464.5q24 16.5 38 16.5q12 0 12 -13q0 -19 -20 -59l-117 -239q-25 -52 -25 -91q0 -88 89 -88q55 0 104 36.5t112 122.5l5 -2q-31 -62 -31 -100q0 -26 16.5 -42t40.5 -16q35 0 80.5 31.5t85.5 82.5l-20 16q-31 -38 -59.5 -61.5t-46.5 -23.5q-6 0 -10 3t-4 9 q0 13 11 37l194 446h-99l-91 -194q-42 -89 -88.5 -160t-90 -111t-75.5 -40q-13 0 -21.5 7.5t-8.5 20.5q0 23 13 50l131 269q35 73 35 116q0 26 -15.5 39t-43.5 13q-84 0 -176 -106l23 -16q28 30 52 46.5zM571.5 850q8.5 -7 10.5 -22l16 -188l-23 -12l-70 141l-183 -141 l-19 12l171 188q26 29 68 29q21 0 29.5 -7z" />
<glyph unicode="&#xfc;" horiz-adv-x="618" d="M141 464.5q24 16.5 38 16.5q12 0 12 -13q0 -19 -20 -59l-117 -239q-25 -52 -25 -91q0 -88 89 -88q55 0 104 36.5t112 122.5l5 -2q-31 -62 -31 -100q0 -26 16.5 -42t40.5 -16q35 0 80.5 31.5t85.5 82.5l-20 16q-31 -38 -59.5 -61.5t-46.5 -23.5q-6 0 -10 3t-4 9 q0 13 11 37l194 446h-99l-91 -194q-42 -89 -88.5 -160t-90 -111t-75.5 -40q-13 0 -21.5 7.5t-8.5 20.5q0 23 13 50l131 269q35 73 35 116q0 26 -15.5 39t-43.5 13q-84 0 -176 -106l23 -16q28 30 52 46.5zM320.5 762q-19.5 -18 -19.5 -42q0 -23 15 -37t40 -14q26 0 46.5 19 t20.5 43q0 21 -17 35t-40 14q-26 0 -45.5 -18zM495.5 762q-19.5 -18 -19.5 -42q0 -23 15 -37t40 -14q26 0 46.5 19t20.5 43q0 21 -17 35t-40 14q-26 0 -45.5 -18z" />
<glyph unicode="&#xfd;" horiz-adv-x="546" d="M135 488q18 0 28.5 -28t15 -92.5t4.5 -176.5q0 -136 -5 -198.5t-15.5 -89t-36.5 -57.5q-20 -24 -43 -38t-42 -14q-14 0 -22 5.5t-18 17.5q-10 13 -20 20t-28 7q-22 0 -34.5 -11.5t-12.5 -31.5q0 -26 24.5 -41.5t62.5 -15.5q93 0 218.5 143t220.5 324.5t95 266.5 q0 28 -13.5 45t-36.5 17q-22 0 -36.5 -16t-14.5 -42q0 -14 3 -41q5 -62 5 -68q0 -59 -41.5 -154.5t-103.5 -171.5l-3 3q6 111 6 184q0 127 -8 192t-27.5 89.5t-55.5 24.5q-43 0 -85 -25t-67 -67l19 -15q42 55 67 55zM457 750q27 19 38.5 34.5t11.5 30.5q0 18 -14 30t-35 12 q-34 0 -63 -44l-116 -171l16 -11z" />
<glyph unicode="&#xfe;" horiz-adv-x="592" d="M216 805l78 -12l-422 -1016l-80 -12v-15h286v18l-102 12l97 233q25 -3 54 -3q104 0 201 47.5t156.5 124t59.5 159.5q0 59 -30.5 105t-86.5 72.5t-130 28.5l107 273h-192zM281 506q5 2 19 2q65 0 102.5 -38.5t37.5 -106.5q0 -79 -48 -154.5t-124.5 -122.5t-157.5 -47 q-17 0 -26 1l190 457q2 7 7 9z" />
<glyph unicode="&#xff;" horiz-adv-x="546" d="M135 488q18 0 28.5 -28t15 -92.5t4.5 -176.5q0 -136 -5 -198.5t-15.5 -89t-36.5 -57.5q-20 -24 -43 -38t-42 -14q-14 0 -22 5.5t-18 17.5q-10 13 -20 20t-28 7q-22 0 -34.5 -11.5t-12.5 -31.5q0 -26 24.5 -41.5t62.5 -15.5q93 0 218.5 143t220.5 324.5t95 266.5 q0 28 -13.5 45t-36.5 17q-22 0 -36.5 -16t-14.5 -42q0 -14 3 -41q5 -62 5 -68q0 -59 -41.5 -154.5t-103.5 -171.5l-3 3q6 111 6 184q0 127 -8 192t-27.5 89.5t-55.5 24.5q-43 0 -85 -25t-67 -67l19 -15q42 55 67 55zM264.5 762q-19.5 -18 -19.5 -42q0 -23 15 -37t40 -14 q26 0 46.5 19t20.5 43q0 21 -17 35t-40 14q-26 0 -45.5 -18zM439.5 762q-19.5 -18 -19.5 -42q0 -23 15 -37t40 -14q26 0 46.5 19t20.5 43q0 21 -17 35t-40 14q-26 0 -45.5 -18z" />
<glyph unicode="&#x131;" horiz-adv-x="340" d="M142 516q-45 -24 -78 -65l23 -18q23 29 46.5 45.5t41.5 16.5q13 0 13 -9q0 -8 -5 -19l-145 -356q-15 -35 -15 -65q0 -28 17.5 -42t47.5 -14q38 0 89.5 34.5t97.5 92.5l-20 12q-49 -48 -70 -64t-35 -16q-9 0 -14.5 5.5t-5.5 13.5q0 6 3 13l143 344q16 38 16 66 q0 23 -18 36t-47 13q-40 0 -85 -24z" />
<glyph unicode="&#x152;" horiz-adv-x="1122" d="M615 780q-136 0 -261.5 -77.5t-203 -203t-77.5 -261.5q0 -118 65 -183t183 -65q49 0 96 10h533l91 230h-29q-59 -98 -137 -190h-323l142 346h174q-3 -74 -17 -120h29l113 274h-29q-34 -57 -84 -114h-168l124 304h226q38 -68 58 -180h27l-8 220h-436q-43 10 -88 10z M704 678l-270 -613q-43 -28 -100 -28q-73 0 -109 43t-36 132q0 125 58.5 247t150 199.5t185.5 77.5q84 0 121 -58z" />
<glyph unicode="&#x153;" horiz-adv-x="829" d="M625 511q-61 -29 -117 -79q-13 52 -49.5 80t-92.5 28q-81 0 -163.5 -59t-136 -149t-53.5 -177q0 -77 38.5 -121t109.5 -44q47 0 96.5 21t94.5 59q13 -39 44 -59.5t78 -20.5q130 0 253 155l-22 14q-44 -59 -101.5 -96.5t-104.5 -37.5q-29 0 -43.5 16.5t-14.5 50.5 q0 60 40 143q0 1 2 5q7 15 15 29q99 17 176.5 49t120.5 72t43 81q0 32 -26 50.5t-70 18.5q-56 0 -117 -29zM635.5 467q49.5 42 90.5 42q32 0 32 -30q0 -34 -33.5 -70.5t-88.5 -65.5t-116 -41l32 59q34 64 83.5 106zM414.5 488q11.5 -17 11.5 -51q0 -71 -48.5 -169.5 t-114.5 -170.5t-114 -72q-24 0 -34.5 18t-10.5 55q0 75 46.5 172t111.5 166t116 69q25 0 36.5 -17z" />
<glyph unicode="&#x178;" horiz-adv-x="716" d="M402 23l-98 19l135 321l269 275q45 45 73 66.5t56 30.5t71 12l13 23h-276l-9 -23q83 0 83 -31q0 -19 -33 -52l-269 -270l-30 246q-3 21 -3 37q0 39 17.5 53.5t60.5 16.5l10 23h-282l-10 -23q36 0 53 -7t24.5 -23.5t12.5 -52.5l49 -324l-124 -298l-97 -19l-10 -23h304z M477.5 942q-19.5 -18 -19.5 -42q0 -23 15 -37t40 -14q26 0 46.5 19t20.5 43q0 21 -17 35t-40 14q-26 0 -45.5 -18zM652.5 942q-19.5 -18 -19.5 -42q0 -23 15 -37t40 -14q26 0 46.5 19t20.5 43q0 21 -17 35t-40 14q-26 0 -45.5 -18z" />
<glyph unicode="&#x2c6;" horiz-adv-x="315" d="M278.5 850q8.5 -7 10.5 -22l16 -188l-23 -12l-70 141l-183 -141l-19 12l171 188q26 29 68 29q21 0 29.5 -7z" />
<glyph unicode="&#x2da;" horiz-adv-x="202" d="M38.5 790q-28.5 -27 -28.5 -64q0 -32 22.5 -53.5t56.5 -21.5q40 0 71.5 28t31.5 64q0 31 -25 52.5t-60 21.5q-40 0 -68.5 -27zM139 769.5q15 -12.5 15 -30.5q0 -20 -18.5 -36.5t-41.5 -16.5q-20 0 -33 12t-13 31q0 22 16.5 37.5t39.5 15.5q20 0 35 -12.5z" />
<glyph unicode="&#x2dc;" horiz-adv-x="363" d="M55.5 711q16.5 10 38.5 10q16 0 29.5 -4.5t38.5 -14.5q21 -10 37 -15t31 -5q37 0 71.5 33t51.5 85h-24q-20 -38 -62 -38q-20 0 -42 8t-26 9q-46 18 -70 18q-37 0 -71 -32t-48 -82h21q8 18 24.5 28z" />
<glyph unicode="&#x2000;" horiz-adv-x="485" />
<glyph unicode="&#x2001;" horiz-adv-x="970" />
<glyph unicode="&#x2002;" horiz-adv-x="485" />
<glyph unicode="&#x2003;" horiz-adv-x="970" />
<glyph unicode="&#x2004;" horiz-adv-x="323" />
<glyph unicode="&#x2005;" horiz-adv-x="242" />
<glyph unicode="&#x2006;" horiz-adv-x="161" />
<glyph unicode="&#x2007;" horiz-adv-x="161" />
<glyph unicode="&#x2008;" horiz-adv-x="121" />
<glyph unicode="&#x2009;" horiz-adv-x="194" />
<glyph unicode="&#x200a;" horiz-adv-x="53" />
<glyph unicode="&#x2010;" horiz-adv-x="480" d="M77 294h319l-33 -84h-319z" />
<glyph unicode="&#x2011;" horiz-adv-x="480" d="M77 294h319l-33 -84h-319z" />
<glyph unicode="&#x2012;" horiz-adv-x="480" d="M77 294h319l-33 -84h-319z" />
<glyph unicode="&#x2013;" horiz-adv-x="761" d="M73 282h599l-25 -61h-598z" />
<glyph unicode="&#x2014;" horiz-adv-x="1082" d="M73 282h920l-25 -60h-919z" />
<glyph unicode="&#x2018;" horiz-adv-x="263" d="M263 670q-5 3 -5 12q0 21 30.5 56.5t72.5 65.5l-21 26q-69 -47 -104 -100t-35 -107q0 -40 19 -61.5t53 -21.5q31 0 49.5 17.5t18.5 48.5q0 48 -51 57q-22 4 -27 7z" />
<glyph unicode="&#x2019;" horiz-adv-x="256" d="M313 700q5 -3 5 -12q0 -21 -30.5 -56.5t-72.5 -65.5l21 -26q69 47 104 100t35 107q0 40 -19 61.5t-53 21.5q-31 0 -49.5 -17.5t-18.5 -48.5q0 -48 51 -57q22 -4 27 -7z" />
<glyph unicode="&#x201a;" horiz-adv-x="275" d="M51 -3q5 -3 5 -12q0 -21 -30.5 -56.5t-72.5 -65.5l21 -26q69 47 104 100t35 107q0 40 -19 61.5t-53 21.5q-31 0 -49.5 -17.5t-18.5 -48.5q0 -48 51 -57q22 -4 27 -7z" />
<glyph unicode="&#x201c;" horiz-adv-x="455" d="M263 670q-5 3 -5 12q0 21 30.5 56.5t72.5 65.5l-21 26q-69 -47 -104 -100t-35 -107q0 -40 19 -61.5t53 -21.5q31 0 49.5 17.5t18.5 48.5q0 48 -51 57q-22 4 -27 7zM455 670q-5 3 -5 12q0 21 30.5 56.5t72.5 65.5l-21 26q-69 -47 -104 -100t-35 -107q0 -40 19 -61.5 t53 -21.5q31 0 49.5 17.5t18.5 48.5q0 48 -51 57q-22 4 -27 7z" />
<glyph unicode="&#x201d;" horiz-adv-x="448" d="M313 700q5 -3 5 -12q0 -21 -30.5 -56.5t-72.5 -65.5l21 -26q69 47 104 100t35 107q0 40 -19 61.5t-53 21.5q-31 0 -49.5 -17.5t-18.5 -48.5q0 -48 51 -57q22 -4 27 -7zM505 700q5 -3 5 -12q0 -21 -30.5 -56.5t-72.5 -65.5l21 -26q69 47 104 100t35 107q0 40 -19 61.5 t-53 21.5q-31 0 -49.5 -17.5t-18.5 -48.5q0 -48 51 -57q22 -4 27 -7z" />
<glyph unicode="&#x201e;" horiz-adv-x="464" d="M49 -2q5 -3 5 -12q0 -21 -30.5 -56.5t-72.5 -65.5l21 -26q69 47 104 100t35 107q0 40 -19 61.5t-53 21.5q-31 0 -49.5 -17.5t-18.5 -48.5q0 -48 51 -57q22 -4 27 -7zM241 -2q5 -3 5 -12q0 -21 -30.5 -56.5t-72.5 -65.5l21 -26q69 47 104 100t35 107q0 40 -19 61.5 t-53 21.5q-31 0 -49.5 -17.5t-18.5 -48.5q0 -48 51 -57q22 -4 27 -7z" />
<glyph unicode="&#x2022;" horiz-adv-x="427" d="M185 473q-31 -17 -50 -45.5t-19 -62.5q0 -48 31 -76.5t83 -28.5q34 0 66 18.5t52 48t20 61.5q0 43 -35 72.5t-82 29.5q-35 0 -66 -17z" />
<glyph unicode="&#x2026;" horiz-adv-x="764" d="M-6 113.5q-26 -23.5 -26 -56.5q0 -30 20 -48.5t53 -18.5t60.5 25.5t27.5 56.5q0 27 -22.5 46t-52.5 19q-34 0 -60 -23.5zM235 113.5q-26 -23.5 -26 -56.5q0 -30 20 -48.5t53 -18.5t60.5 25.5t27.5 56.5q0 27 -22.5 46t-52.5 19q-34 0 -60 -23.5zM476 113.5 q-26 -23.5 -26 -56.5q0 -30 20 -48.5t53 -18.5t60.5 25.5t27.5 56.5q0 27 -22.5 46t-52.5 19q-34 0 -60 -23.5z" />
<glyph unicode="&#x202f;" horiz-adv-x="194" />
<glyph unicode="&#x2039;" horiz-adv-x="302" d="M125 234l149 187l-16 15l-222 -185l-5 -12l74 -186l20 11v170z" />
<glyph unicode="&#x203a;" horiz-adv-x="300" d="M129 255l-149 -187l16 -15l222 185l5 12l-74 186l-20 -11v-170z" />
<glyph unicode="&#x2044;" horiz-adv-x="220" d="M386 770h70l-551 -770h-68z" />
<glyph unicode="&#x205f;" horiz-adv-x="242" />
<glyph unicode="&#x20ac;" horiz-adv-x="637" d="M197 485q62 130 158 212.5t197 82.5q43 0 78.5 -17t56 -46.5t20.5 -64.5q0 -24 -16 -40t-41 -16q-26 0 -43 18t-17 49q0 43 -11 59t-40 16q-51 0 -112.5 -71.5t-111.5 -181.5h251l-22 -44h-248q-14 -36 -27 -77h239l-22 -44h-230q-26 -96 -26 -181q0 -56 14 -82t44 -26 q65 0 113 90q18 34 37.5 51t43.5 17q20 0 30 -10.5t10 -35.5q0 -38 -34 -73.5t-87.5 -57.5t-107.5 -22q-74 0 -119.5 48.5t-45.5 144.5q0 67 14 137h-85l22 44h73q10 37 26 77h-63l22 44h60z" />
<glyph unicode="&#x2122;" horiz-adv-x="914" d="M301 744q-23 -31 -37 -72h-25l15 98h265l15 -98h-25q-15 44 -37 72h-49v-255l44 -8v-19h-160v19l44 8v255h-50zM546 751v19h114l78 -237h4l89 237h104v-19l-36 -8v-254l36 -8v-19h-134v19l36 8v210l-95 -241h-41l-89 258h-4v-227l35 -8v-19h-97v19l36 8v254z" />
<glyph unicode="&#x25fc;" horiz-adv-x="540" d="M0 540h540v-540h-540v540z" />
<glyph horiz-adv-x="428" d="M221.5 42q67.5 52 110 133.5t42.5 163.5q0 116 -101 116q-69 0 -134.5 -51t-106 -132t-40.5 -167q0 -59 22.5 -87t71.5 -28q68 0 135.5 52zM88 41.5q-8 15.5 -8 48.5q0 66 28.5 143.5t69 131.5t74.5 54q35 0 35 -65q0 -66 -28.5 -143.5t-70 -131t-75.5 -53.5 q-17 0 -25 15.5z" />
<glyph horiz-adv-x="375" d="M96.5 145.5q35.5 30.5 89.5 69.5q46 32 73 54.5t44.5 50t17.5 59.5q0 38 -26.5 59t-73.5 21q-55 0 -101.5 -27.5t-81.5 -75.5l24 -20q25 38 59.5 60.5t65.5 22.5q45 0 45 -44q0 -33 -24.5 -64t-77.5 -80q-45 -42 -74 -72.5t-54.5 -71t-37.5 -87.5h259l49 120l-21 7 q-14 -27 -35 -50h-178q23 38 58.5 68.5z" />
<glyph horiz-adv-x="361" d="M155 0l37 120h61l20 58h-60l99 281h-78l-271 -298l-14 -41h167l-43 -120h82zM203 377h4l-70 -199h-113z" />
<glyph horiz-adv-x="428" d="M358.5 367q67.5 52 110 133.5t42.5 163.5q0 116 -101 116q-69 0 -134.5 -51t-106 -132t-40.5 -167q0 -59 22.5 -87t71.5 -28q68 0 135.5 52zM225 366.5q-8 15.5 -8 48.5q0 66 28.5 143.5t69 131.5t74.5 54q35 0 35 -65q0 -66 -28.5 -143.5t-70 -131t-75.5 -53.5 q-17 0 -25 15.5z" />
<glyph horiz-adv-x="297" d="M294 321l9 21l-74 11l163 427h-43q-23 -19 -72.5 -42.5t-90.5 -34.5l6 -21l80 12l3 -3l-129 -335l-70 -14l-8 -21h226z" />
<glyph horiz-adv-x="372" d="M235 537q14 3 26 3q25 0 38 -18t13 -52q0 -53 -29.5 -87.5t-74.5 -34.5q-22 0 -33.5 9.5t-23.5 27.5q-8 12 -14.5 18.5t-17.5 6.5q-12 0 -20.5 -9t-8.5 -24q0 -27 27.5 -44.5t71.5 -17.5q55 0 104 24t78.5 64.5t29.5 85.5q0 36 -22.5 60.5t-57.5 30.5q57 24 88.5 59.5 t31.5 70.5q0 33 -25.5 51.5t-69.5 18.5t-86 -26.5t-75 -77.5l21 -17q28 39 58 60.5t57 21.5q19 0 28.5 -10.5t9.5 -28.5q0 -43 -43.5 -81t-115.5 -61l11 -31q10 5 24 8z" />
<glyph horiz-adv-x="248" d="M173 860q37 11 52.5 25t15.5 32t-13 30.5t-30 12.5q-22 0 -44 -16l-144 -107l11 -21z" />
<glyph horiz-adv-x="314" d="M232 954q9 -6 18 -21l54 -96l-26 -17l-91 68l-165 -68l-12 17l132 96q21 15 34 21t30 6t26 -6z" />
<glyph horiz-adv-x="317" d="M29.5 942q-19.5 -18 -19.5 -42q0 -23 15 -37t40 -14q26 0 46.5 19t20.5 43q0 21 -17 35t-40 14q-26 0 -45.5 -18zM204.5 942q-19.5 -18 -19.5 -42q0 -23 15 -37t40 -14q26 0 46.5 19t20.5 43q0 21 -17 35t-40 14q-26 0 -45.5 -18z" />
<glyph horiz-adv-x="237" d="M123 928q-19 17 -33 24.5t-30 7.5q-23 0 -36.5 -13t-13.5 -35q0 -18 9.5 -31t27.5 -18l161 -47l19 21z" />
<glyph horiz-adv-x="174" d="M34 947q-24 -23 -24 -54q0 -27 19 -45t48 -18q34 0 60.5 23.5t26.5 53.5q0 26 -21 44.5t-51 18.5q-34 0 -58 -23zM113.5 923.5q10.5 -8.5 10.5 -20.5q0 -14 -13 -25.5t-29 -11.5q-14 0 -23 9t-9 22q0 14 11.5 24.5t27.5 10.5q14 0 24.5 -8.5z" />
<glyph horiz-adv-x="363" d="M55.5 864q16.5 10 38.5 10q16 0 29.5 -4.5t38.5 -14.5q21 -10 37 -15t31 -5q37 0 71.5 33t51.5 85h-24q-20 -38 -62 -38q-20 0 -42 8t-26 9q-46 18 -70 18q-37 0 -71 -32t-48 -82h21q8 18 24.5 28z" />
</font>
</defs>
</svg>
