<?xml version="1.0" standalone="no"?>
<!DOCTYPE svg PUBLIC "-//W3C//DTD SVG 1.1//EN" "http://www.w3.org/Graphics/SVG/1.1/DTD/svg11.dtd" >
<svg xmlns="http://www.w3.org/2000/svg" xmlns:xlink="http://www.w3.org/1999/xlink" version="1.1">
<metadata></metadata>
<defs>
<font id="vujahday_scriptregular" horiz-adv-x="905" >
<font-face units-per-em="2048" ascent="1638" descent="-410" />
<missing-glyph horiz-adv-x="528" />
<glyph unicode="&#xfb01;" horiz-adv-x="1261" d="M25 53q0 18 5 42t17 52v-2q2 10 8 17.5t4 11.5q0 10 13.5 40t13.5 32v2q4 10 16.5 33.5t16.5 31.5q16 33 24.5 41t15.5 12.5t17 24.5l2 2l2 3t4 7q-8 -2 -15 -5t-19 -7h-3q-10 0 -28.5 9.5t-22.5 19.5q-4 12 -4 18q0 27 20.5 58.5t41.5 40.5h2q10 0 26.5 8t28.5 12h4 q6 0 8 7t17 9l28 11q27 10 47 16q8 12 16.5 22.5t6.5 12.5q8 18 21.5 35.5t27.5 34.5h-2q43 63 106.5 159.5t133.5 175.5q74 84 146.5 124t131.5 46q35 0 78 -16t61 -33q37 -33 61.5 -73.5t24.5 -75.5q0 -20 -8 -37v-2q-8 -14 -26 -15q-14 0 -25.5 9.5t-11.5 23.5 q-2 31 -30 66t-54 33q-8 2 -27 2q-39 0 -85 -22.5t-101 -80.5q-55 -59 -90 -94t-61.5 -59.5t-59.5 -55.5q-8 -20 -35 -58t-57 -75q10 4 3 0t1 -4q10 0 31.5 2t31.5 2q0 2 1 6t7 6h-2l74 19q41 8 82 19.5t80 15.5q12 0 30.5 7t32.5 7h35q12 0 23.5 -6t11.5 -16 q-2 -14 -29.5 -34t-40.5 -22q-8 0 -25.5 -2t-41.5 -6q-23 -4 -30 -6t-13 -4t-31 -8q-63 -14 -134 -42t-159 -65q-25 -10 -34 -18.5t-44 -32.5q-18 -33 -29.5 -60.5t-27.5 -54.5h-2q-16 -23 -33.5 -61.5t-33 -78.5t-23.5 -66.5t-6 -24.5q4 2 5 -1t-3 -7q-8 -10 -12.5 -29 t-10.5 -31q-8 -12 -17 -21.5t-15 -13.5q-8 -12 -16.5 -16t-16.5 -4t-14.5 2t-10.5 2q-27 4 -26 53zM817 68q0 29 12.5 84t47.5 165q27 84 49 135.5t47 98.5v2q6 8 18.5 14t16.5 13h-2q4 4 2 13t-2 17q0 23 15 38.5t32 29.5q16 16 51 36.5t82 28.5q6 2 12 2h12q35 0 53.5 -14 t26.5 -31q4 -4 8.5 -10t4.5 -14t-7.5 -21.5t-29.5 -33.5q-10 -12 -29.5 -25.5t-36.5 -30.5q-20 -20 -38.5 -44.5t-35.5 -47.5q-14 -20 -30.5 -37.5t-32.5 -36.5q-8 -8 -12 -29.5t-19 -35.5q-14 -18 -31.5 -28.5t-27.5 -29.5v3q-10 -18 -22.5 -43t-24.5 -48 q-20 -41 -26.5 -60t-6.5 -30q0 -12 5 -16t1 -21q-8 -18 -21.5 -44.5t-29.5 -26.5q-8 0 -14 12q-4 16 -10.5 28.5t-6.5 37.5zM1257 958q0 16 5.5 29.5t19.5 22.5q47 25 80 35t53 10q31 0 41 -18.5t10 -47.5v-15t-2 -18q-6 -27 -39.5 -37t-56.5 -20q-14 -8 -33.5 -17.5 t-36.5 -9.5h-4q-18 0 -23 13.5t-7 25.5l-4.5 22.5t-2.5 24.5z" />
<glyph unicode="&#xfb02;" horiz-adv-x="1267" d="M25 53q0 18 5 42t17 52v-2q2 10 8 17.5t4 11.5q0 10 13.5 40t13.5 32v2q4 10 16.5 33.5t16.5 31.5q16 33 24.5 41t15.5 12.5t17 24.5l2 2l2 3t4 7q-8 -2 -15 -5t-19 -7h-3q-10 0 -28.5 9.5t-22.5 19.5q-4 12 -4 18q0 27 20.5 58.5t41.5 40.5h2q10 0 26.5 8t28.5 12h4 q6 0 8 7t17 9l28 11q27 10 47 16q8 12 16.5 22.5t6.5 12.5q8 18 21.5 35.5t27.5 34.5h-2q43 63 106.5 159.5t133.5 175.5q74 84 146.5 124t131.5 46q35 0 78 -16t61 -33q37 -33 61.5 -73.5t24.5 -75.5q0 -20 -8 -37v-2q-8 -14 -26 -15q-14 0 -25.5 9.5t-11.5 23.5 q-2 31 -30 66t-54 33q-8 2 -27 2q-39 0 -85 -22.5t-101 -80.5q-55 -59 -90 -94t-61.5 -59.5t-59.5 -55.5q-8 -20 -35 -58t-57 -75q10 4 3 0t1 -4q10 0 31.5 2t31.5 2q0 2 1 6t7 6h-2l74 19q41 8 82 19.5t80 15.5q12 0 30.5 7t32.5 7h35q12 0 23.5 -6t11.5 -16 q-2 -14 -29.5 -34t-40.5 -22q-8 0 -25.5 -2t-41.5 -6q-23 -4 -30 -6t-13 -4t-31 -8q-63 -14 -134 -42t-159 -65q-25 -10 -34 -18.5t-44 -32.5q-18 -33 -29.5 -60.5t-27.5 -54.5h-2q-16 -23 -33.5 -61.5t-33 -78.5t-23.5 -66.5t-6 -24.5q4 2 5 -1t-3 -7q-8 -10 -12.5 -29 t-10.5 -31q-8 -12 -17 -21.5t-15 -13.5q-8 -12 -16.5 -16t-16.5 -4t-14.5 2t-10.5 2q-27 4 -26 53zM754 68q0 29 13 83t52 146h2q29 43 48.5 89t39.5 83v-4q0 4 22.5 40t54.5 87t64.5 102t56 88t26.5 41v-2q4 6 17 27.5t15 23.5h-2q20 33 27.5 50.5t17 35t33.5 48.5l72 92 q10 10 25.5 35.5t31.5 33.5q29 14 71 26.5t75 12.5q23 0 38 -7t17 -28q-2 -31 -22.5 -70.5t-61.5 -78.5q-20 -20 -53 -43t-50 -45h2q-23 -33 -58.5 -61.5t-53.5 -51.5q-14 -20 -37 -33.5t-35 -29.5q-92 -125 -143 -212t-64 -110q-8 -14 -21 -44t-25.5 -59.5t-18.5 -43.5 q-10 -33 -20.5 -44.5t-16.5 -33.5q-2 -8 -7 -32.5t-7 -44t0 -15.5l39 24l77 39l2 2q23 10 33 10.5t26.5 4.5t51.5 26q2 0 20.5 10.5t38 21.5t21.5 11q23 12 26 12.5t11 5.5t43 27q37 25 57 25q14 0 14 -10q0 -8 -13 -24.5t-46 -39.5q-57 -39 -115.5 -72.5t-117.5 -68.5 q-33 -18 -44.5 -24.5t-13.5 -7.5t-9 -5t-30 -20l-2 -3q-4 0 -20.5 -14t-20.5 -18q-8 -8 -15 -20.5t-20 -18.5q-13 -8 -36 -8t-31 8q-6 6 -9 10t-10 8q-8 6 -20 15.5t-12 42.5z" />
<glyph horiz-adv-x="0" />
<glyph horiz-adv-x="682" />
<glyph unicode="&#xd;" horiz-adv-x="528" />
<glyph unicode=" "  horiz-adv-x="528" />
<glyph unicode="&#x09;" horiz-adv-x="528" />
<glyph unicode="&#xa0;" horiz-adv-x="528" />
<glyph unicode="!" horiz-adv-x="628" d="M123 72q0 14 4 26.5t18 20.5q88 47 134 47q31 0 42 -17.5t11 -46.5q0 -8 -1 -17t-3 -19q-2 -27 -37 -36.5t-58 -19.5q-16 -8 -35.5 -18t-35.5 -10q-20 0 -26.5 13t-6.5 28q-2 8 -4 21t-2 28zM307 416q0 29 12.5 84t47.5 166q18 57 46.5 117.5t56.5 112.5t42 83l16 11 q17 11 21 16h-2q4 4 2 13t-2 17q0 25 15.5 39.5t31.5 28.5q16 18 51 37.5t82 27.5q8 2 14.5 2h12.5q33 0 51 -13t26 -30q4 -4 8.5 -10t4.5 -16q0 -8 -7.5 -21.5t-29.5 -33.5q-10 -10 -29.5 -23.5t-36.5 -30.5q-20 -20 -37.5 -46.5t-35.5 -47.5q-10 -12 -34 -44t-46.5 -62.5 t-34.5 -44.5q-8 -8 -12 -29t-17 -37q-14 -16 -32.5 -26.5t-28.5 -30.5v2q-10 -18 -23.5 -42t-23.5 -46q-20 -39 -26.5 -59.5t-6.5 -30.5q0 -12 5 -17.5t1 -21.5q-8 -18 -20.5 -45t-28.5 -27q-6 0 -16 12q-4 16 -10.5 28.5t-6.5 37.5z" />
<glyph unicode="&#x22;" horiz-adv-x="866" d="M250 719q0 8 4 19.5t16 25.5q12 16 34 38.5t36 43.5q25 37 41 79t10 93q-2 4 -2 10v10q0 35 21 56q16 16 46.5 32.5t45.5 24.5h4q14 0 27.5 -14.5t17.5 -24.5q2 -6 2 -12v-13q0 -20 -5 -40.5t-18 -36.5q-33 -51 -64.5 -105.5t-66.5 -95.5q-10 -8 -17 -6t-7 -4 q-18 -20 -31.5 -45t-30.5 -35q-29 -23 -41 -23q-8 0 -18 11q-4 4 -4 12zM547 719q0 8 4 19.5t16 25.5q12 16 34 38.5t36 43.5q25 37 41 79t10 93q-2 4 -2 10v10q0 35 21 56q16 16 46.5 32.5t45.5 24.5h4q14 0 27.5 -14.5t17.5 -24.5q2 -6 2 -12v-13q0 -20 -5 -40.5 t-18 -36.5q-33 -51 -64.5 -105.5t-66.5 -95.5q-10 -8 -17 -6t-7 -4q-18 -20 -31.5 -45t-30.5 -35q-29 -23 -41 -23q-8 0 -18 11q-4 4 -4 12z" />
<glyph unicode="#" horiz-adv-x="1521" d="M354 705q0 20 39 34q14 4 41 7l27 2l56 1t145 1q14 25 21 52t22 54q10 20 27.5 39.5t29.5 40.5q-33 -2 -62.5 -2h-56.5q-98 0 -117 6q-43 16 -43 37q0 20 39 35q14 4 40 6l26 2l15 8q15 8 48 8q29 0 72 -7t90 -7q31 49 62.5 100.5t66.5 102.5q2 2 2 8q0 41 6 54 t15.5 17.5t21.5 16.5q16 16 52 29.5t63 13.5q29 0 35 -16q4 -8 2 -18.5t-18.5 -35t-57.5 -75.5q-35 -45 -71 -94.5t-70 -102.5q25 0 56.5 2t57.5 2q45 0 83 -1t83 -1q29 51 61.5 100.5t67.5 100.5q2 2 2 6q0 8 -13 10t-23.5 5t-6.5 11q27 37 48.5 43.5t35.5 20.5 q16 16 59.5 29.5t75.5 13.5q43 0 35 -27q-2 -8 -9 -16t-24.5 -29.5t-58.5 -72.5q-35 -45 -70.5 -93.5t-70.5 -99.5h334q16 0 4.5 -23.5t-58.5 -29.5q-51 -6 -142 -7t-181 -8q-14 -23 -22.5 -46t-22.5 -46q-16 -27 -37 -55.5t-35 -56.5q55 2 105.5 2h91.5h72.5t49.5 -2 q14 0 15 -13q0 -8 -11.5 -15t-39.5 -11q-57 -6 -140.5 -14.5t-179.5 -14.5q-33 -68 -59.5 -125t-42.5 -102q-12 -33 -17.5 -62.5t-5.5 -54.5q0 -74 25 -74q10 0 38.5 -4t28.5 -16t-37 -29q-18 -8 -34.5 2t-29.5 27.5t-26 25.5q-47 27 -47 84q0 70 64 222q10 23 21.5 48 t23.5 52q-76 -2 -153 -6t-146 -6q-31 -61 -54.5 -114.5t-39.5 -94.5q-12 -33 -17.5 -61.5t-5.5 -53.5q0 -33 8 -54.5t19 -21.5q10 0 38.5 -4t28.5 -18q0 -10 -37 -27q-4 -2 -8 -3t-8 -1q-25 0 -42 23.5t-34 35.5q-47 29 -47 82q0 35 17.5 90.5t50.5 133.5l35 84 q-45 0 -96.5 -7.5t-80.5 -7.5t-35 9.5t-12 11.5q-43 12 -43 35zM758 752h28q14 0 29.5 1t26.5 3q16 4 21 10t16 6q51 0 86.5 -9t87.5 -9q23 47 49 97t57 101q-45 -2 -103.5 -8t-103.5 -8q-29 -2 -37 0t-36 0q-27 -47 -61.5 -93t-59.5 -91z" />
<glyph unicode="$" horiz-adv-x="667" d="M-18 530q0 53 24 78q12 14 30.5 26.5t33.5 12.5q16 0 16 -18q0 -2 -1 -7.5t-3 -11.5q-4 -12 -6 -26.5t-2 -26.5q0 -29 9 -54.5t28 -39.5q82 121 134 201.5t103 156.5q-23 6 -41 12.5t-28 8.5q-23 6 -36.5 30.5t-13.5 57.5q0 57 39 117q4 6 11.5 8t13.5 8t1 15t1 16 q55 55 126 81.5t134 26.5q12 0 23.5 -1t21.5 -3q10 12 18.5 25.5t16.5 27.5q18 29 29.5 39t19.5 10q12 0 12 -26q0 -33 -12 -53q-6 -8 -13 -18.5t-14 -20.5q23 -8 45 -25q23 -18 37.5 -47t14.5 -55q0 -20 -8.5 -35.5t-30.5 -15.5q-14 0 -18.5 22.5t-10.5 46t-29 27.5 q-10 2 -22 2t-27 2q-51 -74 -88 -132.5t-69 -111.5q57 -16 114 -49q20 -8 38 -37t18 -69q0 -49 -35 -103q-20 -33 -62.5 -59.5t-97.5 -67.5q-59 -45 -120.5 -60.5t-92.5 -17.5q-16 -2 -31.5 -3t-31.5 -1q-8 -14 -18.5 -30.5t-22.5 -34.5q-8 -14 -18.5 -20.5t-18.5 -6.5 q-20 0 -29.5 20.5t-1.5 34.5l35 52q-18 8 -37 22t-35 33q-23 23 -22 67zM186 449q4 2 23.5 3t21.5 3q68 23 109 60.5t76 76.5q35 37 52 75t17 64q0 31 -20 43q-23 16 -53 29q-25 -39 -53.5 -76t-57.5 -82q-6 -10 -8 -21.5t-8 -21.5q-18 -33 -44 -71.5t-55 -81.5zM340 918 q0 -18 16 -27q11 -6 29 -10q31 47 67.5 100t82.5 121q-23 -4 -47.5 -15.5t-49.5 -31.5q-27 -23 -62.5 -65t-35.5 -72z" />
<glyph unicode="%" horiz-adv-x="1118" d="M45 -141q-4 12 8.5 36.5t28.5 52t22 48.5q23 47 45.5 91t30.5 65l2 -2q29 37 51.5 76.5t42.5 70.5l31 42t75 104.5l88 125t74 104.5l29 42q4 10 18.5 26.5t14.5 18.5q20 27 26.5 41t13.5 27.5t30 35.5q4 8 27.5 41t51 73t50 71.5t24.5 37.5l29 41q-100 -35 -189 -48 t-116 -17l-14 -2q0 -16 -7.5 -36.5t-17.5 -43.5q-2 -8 -4 -18.5t-6 -22.5q-10 -16 -23.5 -33.5t-23.5 -36.5q-8 -14 -17.5 -31.5t-21.5 -33.5q-45 -57 -106.5 -107.5t-110.5 -50.5q-23 0 -36 8.5t-24 16.5q-27 23 -26 80q0 41 16 94t51 110q16 29 31.5 58.5t36.5 56.5 q4 4 11 7t9 5q0 4 3 16.5t10 14.5q27 35 58.5 52.5t49.5 29.5q12 4 19 4q31 0 69 -22q4 0 11.5 2t13.5 2q14 0 28.5 -8.5t14.5 -26.5q0 -8 -1 -12.5t-1 -8.5q0 -14 9 -13t21 1q14 0 65.5 9.5t121 25.5t137.5 35q8 10 18.5 14t12.5 2q12 6 24 6q41 0 37 -51q6 -25 6 -41 q0 -35 -20.5 -49t-36.5 -31q-12 -10 -43 -46t-61.5 -72.5t-40.5 -51.5q-14 -18 -42 -55t-54.5 -72t-39.5 -47q-4 -6 -24.5 -30.5t-45 -53t-45 -51.5t-26.5 -27q-39 -55 -85 -121.5t-87 -129t-68.5 -105.5t-31.5 -51q-31 -63 -49.5 -94t-39 -60.5t-57.5 -83.5 q-14 -23 -32.5 -26.5t-22.5 2.5zM193 723q4 -10 3 -15.5t3 -9.5q23 -16 80 26t108 118q12 16 23.5 39.5t19.5 38.5l16 18q17 18 19 27q4 6 2 9t-2 11q8 23 14 40t6 30q-14 0 -29.5 1t-35.5 5q-8 0 -15.5 4t-15.5 8q-12 -4 -16 1t-11 -1q-6 -4 -8 -13t-12 -22q0 2 -7 -2 t-5 -4l-2 -4q-2 -2 -3 -8t-6 -12l-61 -95q-14 -27 -28.5 -56.5t-20.5 -57.5q0 -8 -3 -14.5t-3 -12.5q-2 -14 -6 -26.5t-4 -22.5zM610 78q0 41 16.5 94t51.5 111q16 29 31.5 58.5t35.5 55.5q4 4 10.5 7.5t10.5 5.5q0 4 3 15t9 15q27 35 58.5 52.5t50.5 27.5q12 4 20 4 q27 0 68 -20q4 0 11 4t13 0q37 -16 37 -70v-23.5t-2 -27.5q-2 -16 -8 -36.5t-16 -45.5q-2 -6 -4 -16t-7 -23q-10 -16 -23 -34.5t-24 -34.5q-8 -14 -17 -32t-22 -34q-45 -57 -106.5 -107.5t-110.5 -50.5q-23 0 -36 8.5t-23 16.5q-27 23 -27 80zM688 47q4 -8 3 -13t3 -9 q23 -16 80 25.5t109 117.5q12 16 23.5 39.5t19.5 38.5l16 18q16 19 19 27q4 6 2 9t-2 11q8 23 14 39.5t6 30.5q0 29 -15.5 38t-35.5 13q-8 0 -22.5 -4t-22.5 -2q-12 -4 -16.5 -13.5t-10.5 -13.5q-6 -6 -8 -14t-12 -20q0 2 -7.5 -2.5t-5.5 -4.5l-2 -4q-2 -2 -3 -8t-5 -12 l-61 -94q-14 -27 -28.5 -56.5t-23.5 -58.5q0 -8 -2 -15.5t-2 -11.5q-2 -16 -6 -28.5t-4 -22.5z" />
<glyph unicode="&#x26;" horiz-adv-x="1390" d="M20 268q0 41 15 78q4 10 3 14.5t1 12.5l4 12q16 43 55 99.5t78 93.5q23 25 70 56.5t76 49.5q49 31 109.5 50.5t111.5 35.5q-20 18 -49 35.5t-52.5 40t-27.5 49.5q-2 6 -2 12v13q0 25 7 53t15 49q23 49 76 100.5t111 85.5q57 33 124.5 51.5t130 25.5t101.5 7 q88 0 150.5 -26.5t89.5 -59.5q2 0 8 -16t13 -32.5t9 -20.5l6 -13q10 -14 11 -26q-6 -37 -20.5 -63.5t-31.5 -26.5q-16 0 -30 32q-27 70 -86.5 116t-137.5 52q-12 0 -21 5.5t-24 5.5q-29 -12 -53 -21q-123 -23 -205 -72t-108 -127q-6 -14 -8 -29.5t-2 -31.5q0 -43 20.5 -81 t52.5 -66q47 14 102.5 28.5t94.5 16.5q16 2 39.5 6t36.5 4q20 0 38.5 -6t36.5 -9q80 -6 80 -55q0 -20 -12 -55q-14 -43 -71.5 -66.5t-123.5 -23.5q-10 0 -18 3t-14 5q-18 10 -28.5 12t-37.5 2h-18q-37 2 -74 36t-63 50q-51 -14 -93.5 -38.5t-83.5 -53.5q-16 -10 -35.5 -18 t-33.5 -21q-47 -41 -77 -70.5t-48 -82.5q0 -4 -8.5 -28t-15.5 -48.5t-9 -30.5q-8 -27 -8 -57q0 -29 7 -54.5t15 -41.5q4 -14 21 -11q12 0 34.5 -23.5t30.5 -29.5q37 -25 82 -35q41 84 83 149.5t120 145.5q41 41 100.5 72t98.5 45q92 35 187 49t165 25q70 10 145.5 27.5 t133.5 60.5q16 10 19 17t5 9q4 33 -11.5 46.5t-37.5 15.5q-55 6 -55 24q0 8 17 13.5t50 1.5q61 -8 89 -11.5t28 -52.5q0 -8 -1 -19.5t-3 -25.5q-4 -45 -49 -79t-109.5 -56.5t-132.5 -38.5q63 -6 64 -68q0 -8 -1 -16t-4 -18q-2 -8 -7 -14.5t-9 -10.5l-10 -10 q-12 -14 -15.5 -33.5t-21.5 -42.5q-35 -45 -92.5 -103.5t-135 -113.5t-178 -92t-221.5 -37q-80 0 -172 18q-8 -25 -12 -49q-2 -20 -16.5 -42.5t-18.5 -43.5v-2q0 -12 8.5 -15t10.5 -18q2 -10 2 -21v-24v-39q0 -14 1 -27.5t3 -23.5q14 -59 63 -127q4 -2 7 -11t10 -13 q10 -4 20 -2t8 -4q-2 -12 -20 -22.5t-43 -10.5q-16 0 -36 7t-38 23q-47 59 -61 127q-6 25 -8.5 50.5t-2.5 52.5q0 76 19 162q4 23 10 45t14 45q-78 20 -145.5 59t-108.5 95.5t-41 123.5zM434 86q25 -2 50.5 -1t52.5 -3q12 -2 23 -11.5t20 -9.5q12 0 49 -5t51 -3q68 6 120 43 t115 68q74 35 109 80t74 108q25 43 24 74q0 63 -104 55q-72 -6 -144.5 -26.5t-132.5 -59.5q-6 -2 -32.5 -17.5t-49.5 -31.5q-29 -20 -43 -34.5t-43 -45.5q-33 -41 -75.5 -87t-63.5 -93zM651 760q41 -27 90 -43q12 -2 50 -9.5t79 -7.5q29 0 52.5 6.5t33.5 24.5 q6 12 -23.5 29.5t-107.5 17.5q-45 0 -89 -5t-85 -13z" />
<glyph unicode="'" horiz-adv-x="557" d="M250 719q0 8 4 19.5t16 25.5q12 16 34 38.5t36 43.5q25 37 41 79t10 93q-2 4 -2 10v10q0 35 21 56q16 16 46.5 32.5t45.5 24.5h4q14 0 27.5 -14.5t17.5 -24.5q2 -6 2 -12v-13q0 -20 -5 -40.5t-18 -36.5q-33 -51 -64.5 -105.5t-66.5 -95.5q-10 -8 -17 -6t-7 -4 q-18 -20 -31.5 -45t-30.5 -35q-29 -23 -41 -23q-8 0 -18 11q-4 4 -4 12z" />
<glyph unicode="(" horiz-adv-x="790" d="M301 348q0 131 45 272.5t125 265.5t186.5 208t229.5 98q16 4 35.5 6t35.5 2q23 0 37.5 -3t14.5 -11q0 -6 -23.5 -17.5t-83.5 -27.5q-125 -31 -218 -118t-156.5 -206t-95.5 -246t-32 -241q0 -115 34 -198t100 -105q63 -20 63 -43q0 -21 -35 -21q-8 0 -19.5 3t-21.5 5 q-117 41 -169 143.5t-52 233.5z" />
<glyph unicode=")" horiz-adv-x="626" d="M-78 -23q0 8 23.5 19.5t81.5 26.5q125 31 219 116.5t157.5 204.5t95 247t31.5 240q0 115 -33.5 200t-99.5 106q-63 20 -63 47q0 18 33 18q14 0 41 -10q117 -39 170 -142.5t53 -236.5q0 -131 -44 -271.5t-124 -265t-186.5 -207.5t-229.5 -98q-16 -4 -35 -6t-35 -2 q-23 0 -39 4t-16 10z" />
<glyph unicode="*" horiz-adv-x="1122" d="M276 1073q0 16 11.5 27.5t36.5 9.5q76 -4 139 -6t141 -8q-23 29 -33 52t-34 52q-20 27 -21 51q0 35 29 35q18 0 39 -22q27 -31 60.5 -48.5t60.5 -46.5q10 47 22 93.5t21 91.5q4 23 17 33t28 10q23 0 42 -18.5t13 -51.5q-6 -35 -16.5 -81t-18.5 -83q31 18 73 38t84 39.5 t68 33.5q14 8 29 8q29 0 29 -33q0 -16 -10.5 -34.5t-32.5 -30.5q-45 -25 -91.5 -56.5t-93.5 -54.5q78 -6 147.5 -12t145.5 -6q25 0 36 -9.5t11 -19.5q0 -16 -18.5 -31.5t-50.5 -15.5h-146.5t-146.5 2q37 -41 71.5 -84t65.5 -90q12 -18 12 -35q0 -20 -13 -32.5t-32 -12.5 q-10 0 -22.5 7t-22.5 22q-33 47 -71.5 86t-71.5 82q-18 -70 -41 -136.5t-51 -125.5q-14 -33 -49 -33q-20 0 -40 15t-20 40q0 12 6 27q29 57 51.5 110t38.5 121q-43 -25 -80.5 -57.5t-76.5 -65.5q-31 -25 -68 -24q-20 0 -33.5 7t-13.5 17q0 16 18 29q23 18 54.5 50t66.5 62.5 t60 49.5q-55 2 -119 0t-119 0q-33 2 -51.5 22.5t-18.5 40.5z" />
<glyph unicode="+" horiz-adv-x="997" d="M207 541q-8 31 17.5 70.5t56.5 52.5q10 4 40.5 5t73.5 1q25 0 52.5 -1t58.5 -1l31 77v3q6 8 16 14t14 12h-2q2 2 1 11.5t-1 17.5q0 25 12.5 39t26.5 30t44 37t69 29q8 2 20 2q29 0 45.5 -14.5t22.5 -30.5q4 -4 8 -10t4 -17q0 -8 -7 -20t-26 -33q-8 -12 -25.5 -25.5 t-29.5 -29.5q-16 -20 -31.5 -45t-29.5 -47l-4 -4q82 -2 151.5 -4.5t108.5 -2.5q27 0 26 -14q0 -12 -31.5 -27.5t-115.5 -23.5q-59 -4 -109.5 -14.5t-93.5 -20.5q-4 -16 -12 -29q-12 -18 -27.5 -28.5t-23.5 -28.5v2q-8 -18 -18.5 -42.5t-20.5 -47.5q-16 -41 -22.5 -60.5 t-6.5 -29.5q0 -12 4 -16.5t2 -20.5q-6 -18 -18.5 -45t-24.5 -27q-6 0 -12 13q-4 16 -9 28.5t-5 36.5q0 29 11 84t40 166q2 10 5 20.5t5 18.5q-20 -2 -37.5 -3t-28.5 -5q-20 -8 -55 -11.5t-51 -7.5q-6 -2 -13.5 -2h-17.5q-20 0 -36.5 5t-20.5 16v-2z" />
<glyph unicode="," horiz-adv-x="530" d="M-55 -203q0 16 24 41q16 16 43 39t43 43q23 29 38.5 59.5t15.5 65.5q0 25 -9 47q-6 16 -6 33q0 27 23 43q18 16 60 32.5t59 24.5q20 4 45.5 -11t33.5 -28q10 -20 11 -45q0 -35 -21 -57q-39 -51 -78 -105.5t-80 -95.5q-14 -8 -22 -6t-12 -4q-20 -20 -37 -45t-35 -35 q-34 -22 -59 -22q-14 0 -29 10q-8 4 -8 16z" />
<glyph unicode="-" horiz-adv-x="765" d="M207 541q-8 31 17.5 70.5t56.5 52.5q18 4 68 6t120 3t139 1h203q27 0 27 -15q0 -12 -32 -27.5t-116 -23.5q-61 -4 -112.5 -15t-96.5 -22h-4q-10 0 -14 4.5t-8 -0.5q-20 -4 -25.5 -14t-28.5 -18q-20 -8 -55 -11.5t-51 -7.5q-6 -2 -13.5 -2h-17.5q-20 0 -36.5 5t-20.5 16 v-2z" />
<glyph unicode="." horiz-adv-x="425" d="M0 72q0 14 4 28.5t16 22.5q33 18 55.5 31.5t43.5 23.5q45 23 71 23q12 0 20.5 -13.5t8.5 -5.5v2q0 4 1 -6t1 -16q0 -20 -8 -39q-6 -16 -17.5 -36.5t-13.5 -45.5q-4 -27 -32.5 -28t-45.5 -11q-14 -6 -38.5 -6h-34.5h-2q-14 0 -18.5 12t-6.5 27q-4 16 -4 37z" />
<glyph unicode="/" horiz-adv-x="808" d="M-16 -39q-8 12 7 38t36.5 55.5t27.5 51.5q27 49 55.5 96.5t41.5 67.5l2 -2q37 41 66.5 84t58.5 76l29 33q30 33 75 85t96 109.5t97.5 109.5t75.5 84l28 32q4 10 24.5 28.5t20.5 20.5q27 31 35 45t17 28.5t40 40.5q6 8 37 43t70 79t68.5 79t33.5 41q2 2 19.5 23.5t40 46 t34.5 35.5q10 10 25.5 15t21.5 5h-2q23 8 45 8q55 0 60 -47q18 -31 18 -49q0 -31 -28.5 -46t-53.5 -32q-12 -8 -40.5 -34.5t-61.5 -58.5t-60.5 -58.5t-37.5 -36.5q-18 -18 -57.5 -59.5t-75 -79t-52.5 -52.5q-6 -6 -34.5 -32.5t-63.5 -58.5t-63.5 -57.5t-36.5 -29.5 q-55 -59 -116 -132t-116 -139.5t-91 -113.5t-42 -55q-31 -49 -51.5 -80t-37.5 -53.5t-42 -50t-61 -72.5q-20 -25 -49 -31t-33 0z" />
<glyph unicode="0" horiz-adv-x="1261" d="M178 428q0 41 6 87t17 95q16 59 49 131t78 131q37 49 85 106.5t99 94.5q20 14 33 14q10 2 21.5 5.5t19.5 11.5q2 2 2 4t2 4l4 6q4 8 11 16.5t16 12.5q53 23 116.5 31t116.5 12q39 4 85 -6t62 -45q4 -4 4.5 -10.5t0.5 -10.5q0 -25 -14.5 -48t-24.5 -38q16 -6 30.5 -16 t32.5 -15q12 -4 27.5 -20t27.5 -20h5q6 0 11 1t9 1h8q14 0 29 -9q47 -29 72.5 -92t25.5 -145q0 -92 -34.5 -197.5t-108.5 -197.5q-4 -8 -4 -11q0 -6 1 -12t-3 -10q-6 -6 -20.5 -23.5t-20.5 -23.5q-14 -12 -26.5 -10.5t-18.5 -8.5q-10 -16 -8 -27.5t-23 -29.5 q-74 -59 -162 -98t-173 -56.5t-157 -13.5q-82 6 -152.5 58.5t-113.5 147.5t-43 224zM301 473q-2 -14 4 -14l2 -2q10 -2 6 -13q-6 -45 -6 -90q0 -119 45 -190.5t115 -93.5q10 -4 14 -15l4 -4q5 -10 13 -10q10 0 20 7t23 9q137 12 251.5 94t206.5 199q18 25 35 48.5t31 45.5 q4 4 7 9.5t9 25.5q10 4 15 10q8 10 14 31l6 19q0 8 4 12q47 100 47 176q0 82 -42 131t-96 76t-93 39q-16 -18 -27.5 -25.5t-15.5 -7.5q-6 0 -6 10q0 8 4 18.5t6 18.5q-14 4 -40 8t-42 6q-27 2 -52.5 4.5t-41.5 4.5q-8 2 -14.5 3t-10.5 3t-5 7t5 7q29 16 55.5 22.5t53.5 6.5 q29 0 56.5 -5t56.5 -10q10 20 15 36t5 26q0 29 -76 29q-82 0 -147.5 -33t-118.5 -84t-100 -109q-8 -10 -17.5 -16t-19.5 -14q-8 -4 -14.5 -10.5t-14.5 -18.5q-33 -59 -60.5 -128t-39.5 -116q-2 -8 -9.5 -34.5t-13.5 -54.5t-6 -44z" />
<glyph unicode="1" horiz-adv-x="714" d="M0 -2q0 16 14 37q23 25 75 43t85 26l16 5h5h1t1 -3q2 16 10 37t22 45q14 25 32 65t34 83q2 6 0 14v4q-2 4 -2 11.5t2 15.5q16 47 41.5 100.5t46.5 91.5q4 6 6 15.5t4 19.5q12 43 24.5 86t33.5 82q18 35 41.5 76t44.5 76q16 29 27 49t16 33q-23 -14 -65 -48t-88 -71 t-83 -66.5t-47 -38.5q-23 -14 -37 -14q-12 0 -12 12q0 18 15.5 31.5t25.5 26.5q4 4 8 9t8 11t25.5 26.5t49.5 47.5t51.5 49.5t29.5 28.5q33 31 69.5 60.5t67.5 50t45 20.5q18 0 47 -7.5t50.5 -20.5t21.5 -34h-2q0 -6 -4 -8t-6 -6q-2 -8 -18.5 -42t-34 -67.5t-21.5 -41.5 q-14 -20 -28.5 -41t-24.5 -39q-18 -29 -33 -64t-35 -65q-14 -23 -41 -75t-52.5 -104.5t-37.5 -76.5q-2 -10 -5 -16.5t-3 -16.5q0 -4 1 -9t1 -10q0 -6 -2 -14t-10 -20q-31 -57 -60 -117t-49 -125q27 2 85 -2t110 -12q63 -12 94 -29q10 -10 10 -21q0 -16 -33 -20q-8 -2 -18 -2 h-21q-41 0 -94 6q-31 4 -58.5 7t-56.5 3q-27 0 -61 -6q-2 -8 -7 -22.5t-18 -22.5q-4 -2 -12 -2q-16 0 -26.5 12.5t-22.5 14.5q-10 4 -37 -11.5t-39 -21.5q-14 -10 -29 -16q-18 -7 -32 -7q-31 0 -31 25z" />
<glyph unicode="2" horiz-adv-x="1200" d="M-84 70q0 20 18.5 39.5t43 33t40.5 13.5t17 -13q0 -14 -10.5 -16t-14.5 -29q8 4 14.5 10.5t12.5 10.5v2q12 6 58 13t102.5 11.5t105.5 8.5t68 4q4 4 6 9t4 7l20 14l7 5q88 59 192.5 169.5t210.5 276.5q16 25 43 46.5t39 43.5q2 4 3 8t1 8q0 10 -3 21.5t-1 21.5 q10 35 28.5 69t18.5 61q0 55 -24.5 97t-94.5 42q-84 0 -165 -28t-146 -87q-37 -33 -66.5 -83t-58.5 -89q-8 -12 -23.5 -20.5t-23.5 -22.5q-6 -10 -14 -10q-12 0 -24.5 19.5t-12.5 39.5q0 14 6 23q14 23 30.5 47t34.5 43q14 16 29.5 26.5t32.5 24.5q14 12 18 21.5t19 21.5 q74 57 172 96t192 39q51 0 108.5 -16.5t99.5 -53t42 -100.5q0 -51 -10 -116.5t-45 -129.5q-14 -27 -29.5 -39t-32 -24t-39.5 -41q-4 -4 -14 -24.5t-21.5 -41t-15.5 -26.5q-70 -86 -134 -139.5t-123.5 -89t-114.5 -72.5q-6 -16 -64 -47q57 0 109.5 3t85.5 3h65q53 0 109.5 -6 t138.5 -31q47 -14 76.5 -34.5t62.5 -49.5q18 -14 34.5 -35.5t16.5 -46.5q0 -18 -18 -44t-42 -44t-44 -18q-18 0 -18 18q0 8 4 16.5t6 16.5v2q6 8 11 18.5t5 20.5q0 35 -39 60.5t-95 44t-109.5 29.5t-81.5 15q-23 4 -52.5 11.5t-52.5 7.5q-39 0 -79 -2t-81 -2 q-14 0 -27.5 -3.5t-27.5 -3.5q-31 -33 -91.5 -71.5t-124 -66t-110.5 -27.5q-25 0 -49 6q-8 -18 -24 -19q-14 0 -18.5 18.5t-6.5 26.5q-16 12 -28.5 28.5t-12.5 37.5v-2q-2 10 -3 18t-1 17zM39 16q4 0 9 -1t9 -1q29 0 66 11.5t63 19.5q33 10 51.5 10t36 7.5t50.5 33.5 q-6 -2 -17 -2q-10 0 -12 4q-8 0 -16.5 -1t-18.5 -3q-76 -6 -122 -15t-99 -63z" />
<glyph unicode="3" horiz-adv-x="1234" d="M31 178q0 6 4 19q2 4 10 15t10 19q33 70 97.5 117t130.5 47q43 0 43 -16q0 -12 -21 -29q-43 -35 -117 -67q-20 -10 -45.5 -43t-29.5 -62q-2 -6 -2 -12v-10q0 -55 32.5 -90t73.5 -64q43 -27 97.5 -36t115.5 -11q14 0 25.5 -3t23.5 -1q8 0 21.5 6t27.5 8q49 8 86 18.5 t78 30t103 52.5q20 12 43 12q6 2 20 22.5t23 28.5q35 29 68.5 71t56.5 89q4 8 15 16t13 14q14 41 15 87q0 31 -7.5 59.5t-17.5 52.5q-6 12 -18.5 18.5t-22.5 16.5q-20 25 -46 46.5t-65 33.5q-25 -14 -61.5 -38t-74.5 -43.5t-62 -23.5q-4 0 -9.5 -1t-9.5 -1q-27 -2 -39 -6 t-36 -14q-18 -10 -39 -12q-8 0 -15.5 -1t-13.5 -1q-45 0 -75.5 15t-30.5 44q0 6 4 18q20 61 56 89t93 36q20 4 43 6t43 5q14 2 33.5 5t34.5 3q37 0 82 -9.5t82 -19.5q72 47 119.5 92t70.5 105q10 31 10 51q0 96 -172 119q-10 2 -21.5 3t-21.5 1t-21.5 -1t-25.5 -3 q-29 -2 -57.5 -4.5t-59.5 -14.5q4 -6 4 -13v-15q0 -39 -27.5 -80t-67.5 -73t-77 -44q-18 -6 -36 -6q-29 0 -45.5 16.5t-16.5 40.5q0 29 17 55q10 18 49 56q25 23 54.5 43t63.5 41q-27 27 -61 26q-25 0 -35 7.5t-10 15.5q0 14 27 14q12 0 20 -2q33 -6 57.5 -16.5t38.5 -26.5 q47 23 102.5 41t129.5 21q59 4 137 -6.5t119 -47.5q16 -14 21 -32.5t5 -40.5q0 -43 -16 -97q-4 -25 -20.5 -59.5t-38.5 -61.5q-35 -41 -74 -65.5t-88 -52.5q39 -14 85 -28.5t72 -43.5q16 -16 40 -45t32 -53q8 -27 8 -74q0 -66 -18 -119q-2 -8 -8 -18t-11 -21 q-31 -90 -96 -153.5t-148 -106.5t-171 -67.5t-166 -34.5t-131 -10q-131 0 -214 33.5t-122 86t-43 105.5q-2 23 -5 35t-3 22zM510 586q0 -23 33 -23q41 0 88 12.5t63 18.5q29 10 58.5 23.5t60.5 29.5q-39 6 -88 6q-14 0 -32.5 -1t-37.5 -3q-78 -6 -109.5 -23.5t-35.5 -31.5 v-8zM516 887q0 -17 16 -17t41 19q6 4 17.5 13t19.5 18q35 35 35 71q0 14 -6 29q-6 -4 -13.5 -14.5t-15.5 -14.5q-14 -8 -20 -15t-17 -15q-6 -4 -16 -9.5t-14 -11.5q-27 -33 -27 -53z" />
<glyph unicode="4" horiz-adv-x="1056" d="M129 485q0 14 8 23l1 1t1 3q0 8 -7 24.5t1 24.5q31 31 80 73t94 81q29 23 75 62.5t98 81.5t93 71q14 10 21.5 11t15.5 1h4q8 0 21 8q14 10 20.5 17.5t10.5 15.5l4 8q10 12 26 23q109 74 172.5 100.5t81.5 26.5q33 0 67 -12.5t34 -47.5q0 -18 -19 -53q-27 -41 -51.5 -95 t-56.5 -106q-8 -12 -23 -12l-4 -2q-4 0 -10 -6q-20 -29 -34.5 -61.5t-25.5 -65.5q-12 -31 -20 -59.5t-19 -53.5q35 2 70 7.5t70 0.5q23 -2 38 -11t35 -13q23 -4 40.5 -28.5t27.5 -47.5q4 -10 6 -19.5t2 -17.5q0 -18 -12 -18q-6 0 -16 6q-20 12 -66.5 34.5t-75.5 31.5 q-10 4 -14 3t-8 -3l-6 -5q-10 -4 -23 0q-18 4 -31.5 10.5t-23.5 8.5q-20 10 -35 10q-12 -29 -28.5 -56.5t-35.5 -53.5q-14 -25 -33.5 -60t-23.5 -63q-2 -14 -4 -29.5t-8 -28.5q-2 -8 -6 -12t-9 -8l-4 -2q-6 -6 -8 -13q-10 -29 -17 -56.5t-20 -67.5v-5q8 0 27 13 q16 10 37.5 24.5t38.5 22.5q8 4 10 4q14 0 19.5 -13.5t7.5 -15.5q10 -4 10 -10q0 -10 -16.5 -23.5t-37 -25.5t-30.5 -19q-25 -12 -70 -23t-80 -11q-31 0 -48 9t-13 30q18 96 61 182t82 174q6 10 17 14l4 2q14 6 10 21l-2 4q-2 4 -2 9t2 13q10 18 25.5 34t25.5 32l-100 -16 q-78 -8 -125 -20.5t-111 -25.5h-10q-10 0 -20.5 3.5t-20.5 -0.5q-4 0 -13 -5.5t-14 -9.5q-8 -4 -18 -8t-14 -4q-29 4 -50.5 23.5t-21.5 39.5zM250 520q-2 -2 8 -6q7 -2 27 -2q33 0 80 6t91 13.5t60 9.5q35 6 53.5 8t40 4t60.5 4q10 20 39.5 86t68.5 146.5t72 146.5 q6 14 12 21.5t10 11.5t16.5 22.5t26 37t15.5 22.5q6 12 -3 7t-57 -44q-43 -33 -114.5 -84t-163.5 -123q-8 -6 -18.5 -7t-20.5 -7l-35 -35q-2 -4 -8 -10q-82 -61 -153.5 -121t-106.5 -107z" />
<glyph unicode="5" horiz-adv-x="1241" d="M-57 102q0 59 29.5 112.5t79.5 87.5t110 34q82 0 82 -33q0 -14 -20.5 -26.5t-55.5 -14.5q-45 -6 -89 -50t-44 -126q0 -61 41 -98t110.5 -53.5t151.5 -16.5q49 0 130 14.5t172 50t174 97t136 156.5l15 30q8 16 16 33.5t23 32.5l4 2q8 6 10 18.5t-2 20.5q-2 4 -3 8t-1 8 q0 12 2 24.5t2 22.5q0 80 -67.5 120t-215.5 36q-8 0 -18 6l-4 4q-8 4 -14.5 6t-14.5 -6l-4 -4q-4 -2 -9 -6t-14 -6q-51 -10 -110.5 -25.5t-101.5 -28t-46 -16.5q-20 -23 -43 -22q-20 0 -35.5 18t-15.5 39q0 6 4 18q12 18 13.5 25.5t-3.5 11.5l-3 6l-3 6q0 10 8 25 q47 88 85 178t59 183q2 8 5 19t5 17q2 12 41 21l119 24q33 6 85 17.5t111 17.5q12 0 21 -6l4 -4q6 -2 11 -6t12 -4q10 0 26.5 7t26.5 9q12 4 14 4q23 2 44.5 2h41.5q74 0 123 -8t88 -24q35 -14 35 -58q0 -45 -29 -84q-14 -18 -41.5 -32.5t-52.5 -22.5q-23 -8 -39 -8 q-12 0 -8 8q2 2 4 5t8 5q47 27 64.5 46.5t17.5 37.5q0 16 -16 37q-14 16 -46 24.5t-77 8.5q-33 0 -70 -4t-76 -9q-90 -12 -169.5 -28.5t-104.5 -22.5q-4 0 -9 -11t-16 -28l-47 -86q-8 -12 -20 -22l-6 -4q-16 -10 -25 -23v-2l2 -2l4 -2q4 -4 7.5 -9t-1.5 -9q-25 -43 -49 -86 t-45 -76q-8 -14 -14 -27.5t-10 -21.5q41 20 125 39.5t168 31.5q35 4 74.5 11.5t70.5 5.5q115 -8 197.5 -62.5t95.5 -156.5q6 -31 6 -82q0 -23 -2 -45.5t-8 -40.5q-4 -10 -11.5 -17.5l-13.5 -13.5l-6 -6q-10 -8 -16 -21q-29 -68 -109 -133t-189.5 -118.5t-231 -85 t-234.5 -31.5q-141 0 -226.5 35.5t-122 92t-36.5 115.5z" />
<glyph unicode="6" horiz-adv-x="974" d="M61 190q0 72 24 146t55.5 139.5t56.5 106.5q10 16 12 26t2 19q0 8 2 18t10 25q18 29 50 68.5t53 60.5q86 100 174 155.5t170 89.5q33 14 62.5 31t64.5 17q8 0 14 -1t14 1q10 2 34 4t32 2q90 6 123 -35t33 -88q0 -35 -13 -64q-4 -14 -18 -24l-19 -13q-4 -2 -8 -2 q-12 0 -16 15q-4 16 0 43q2 10 2 19v20q0 33 -17.5 59.5t-76.5 26.5q-25 0 -55.5 -5.5t-71.5 -17.5q-51 -14 -131 -71.5t-168 -151.5t-164 -219q-10 -18 -25.5 -33.5t-25.5 -36.5q-2 -4 -1 -13t-3 -18q-27 -57 -42.5 -122.5t-15.5 -124.5q0 -90 43 -157t144 -73q4 0 7 -2 t5 -4l2 -4q8 -4 10 -4q23 2 45.5 8t42.5 10q94 20 173 72.5t122 142.5q29 61 29 119q0 55 -25.5 94t-75.5 39q-35 0 -75.5 -12t-77.5 -43q-45 -37 -82 -91t-59.5 -110.5t-24.5 -99.5q-2 -25 -14.5 -38t-26.5 -13t-18 14q-8 18 -9 49q0 45 19.5 98.5t52.5 98.5q8 10 16.5 16 t16.5 15q25 29 42 52t50 44q49 31 110.5 50t100.5 19q35 0 81 -12t66 -35q35 -39 35 -100q0 -31 -8 -66.5t-25 -76.5q-2 -4 -4 -5t-6 -4h-8q-2 -8 1 -22t-1 -25q-41 -74 -117 -120t-149 -72q-43 -14 -108.5 -29.5t-102.5 -15.5q-109 0 -187.5 25.5t-109.5 66.5q-4 8 -4 10 q0 8 4 15.5t6 15.5q0 10 -6 20.5t-8 20.5q-8 31 -9 67z" />
<glyph unicode="7" horiz-adv-x="997" d="M180 -88q0 27 10.5 56.5t34.5 68.5q4 6 6 21.5t7 23.5q41 63 99 150t130 179.5t147 170.5q10 12 17.5 11t13.5 -1q12 0 17 16q4 6 8 14.5t10 14.5q127 127 219 231.5t131 147.5q-18 4 -43.5 3t-52.5 -1q-20 0 -33.5 5t-38.5 1q-8 0 -21.5 -5t-21.5 -5 q-53 -4 -116.5 -10.5t-137.5 -14.5h-63q-18 0 -34.5 -1t-29.5 -5q-18 -6 -55 -14t-74 -19q-6 0 -28.5 -7t-45 -12t-26.5 -3q-12 6 -12 18q0 18 15 43t35.5 47.5t35.5 32.5q10 10 44.5 22.5t49.5 12.5q8 0 8 -6q0 -8 -4 -16.5t-6 -12.5t-6 -10t-2 -6q10 2 38.5 5t61.5 6 t58.5 5t29.5 2q141 12 274 12q35 0 69 -1t67 -3q41 -2 72.5 -10t58.5 -12h4q8 0 16 3t14 1q66 -14 66 -45q0 -12 -14 -31q-18 -23 -49 -43t-54 -39l-69 -63l-82 -80q-10 -8 -17.5 -23.5t-17.5 -25.5q-63 -57 -128 -113.5t-124 -120.5q-111 -123 -192.5 -248t-116.5 -243 q-2 -6 -2 -15q0 -10 8 -10q10 0 27.5 9.5t27.5 9.5q16 -10 -1 -26.5t-40.5 -31t-29.5 -18.5q-16 -8 -50 -25.5t-59 -17.5t-31 24q-2 6 -2 13.5v13.5z" />
<glyph unicode="8" horiz-adv-x="831" d="M14 61q0 45 24.5 93.5t63.5 93.5q51 55 117 101t98 67l80 45q-18 27 -39.5 49t-44.5 45q-33 35 -61.5 95.5t-28.5 119.5q0 37 17 74q23 47 79 79.5t95 45.5q47 16 100 23t98 7q49 0 86 -7t45 -19q16 -18 17 -41q0 -20 -17.5 -33.5t-42.5 -13.5q-12 0 -25 4t-28 14 q-4 4 -22 4q-33 0 -97.5 -14t-117.5 -45q-12 -6 -26.5 -13.5t-25.5 -17.5q-2 -6 -2 -14t-4 -17q-29 -45 -28 -88q0 -37 17 -69.5t42 -67.5q14 -18 29.5 -36.5t29.5 -37.5q49 29 116 71t116 75q16 12 30.5 30.5t34.5 20.5q8 2 16.5 2t14.5 4q66 55 103.5 114.5t37.5 117.5 q0 37 -18 73q-45 90 -107.5 142.5t-162.5 66.5q-8 2 -16.5 2h-16.5q-57 0 -105 -35l-12 -10q-8 -4 -10 -6q-16 -12 -25.5 -10t-9.5 10v4q0 16 23 39q20 23 55 42.5t86 19.5q10 0 19.5 -1.5t19.5 -3.5q10 -4 20 0l10.5 3.5t8.5 1.5t8 -1.5t10 -3.5q33 -10 72 -25.5t67 -35.5 q51 -35 76 -58.5t33 -39.5q6 -14 7 -26.5t9 -29.5q20 -31 28.5 -61.5t8.5 -58.5q0 -55 -28.5 -106.5t-75.5 -94.5q-35 -33 -81 -64.5t-99 -66.5q-51 -33 -110.5 -68t-119.5 -76q10 -12 21.5 -25t21.5 -28q10 -14 21.5 -29.5t17.5 -29.5q10 -23 17.5 -47.5t7.5 -51.5 q0 -35 -17 -61q-4 -8 -14 -7t-12 -3q-8 -8 -5 -20.5t-8 -24.5q-76 -94 -176 -137t-182 -43q-94 0 -129 47q-25 35 -25 77zM109 47q-1 -31 32 -31q27 0 67 13.5t74.5 30t45.5 24.5q20 12 26 22q4 8 15.5 13.5t17.5 13.5q10 16 38 51t32 49q6 25 6 58q0 35 -8.5 68.5 t-26.5 54.5l-66 -41q-25 -16 -66.5 -52t-84.5 -82t-72.5 -96.5t-29.5 -95.5z" />
<glyph unicode="9" horiz-adv-x="1040" d="M53 59q0 23 5 46.5t14 39.5q4 10 15 29t17 23l19 12q4 2 8 2q14 0 14 -21q0 -10 -4 -30.5t-6 -32.5q-2 -8 -2 -18.5v-20.5q0 -33 17.5 -59.5t76.5 -26.5q25 0 56.5 5t70.5 18q51 14 130 71.5t168 151.5t163 219q10 18 26.5 33.5t24.5 36.5q2 4 2 14q0 12 2 16 q27 59 42.5 124t15.5 124q0 90 -42 156.5t-143 72.5h-51l-61 -4q-94 -20 -167 -82.5t-116 -152.5q-20 -43 -20 -109q0 -51 15 -102t42 -84t64 -33q35 0 75.5 11.5t77.5 41.5q45 39 82 93.5t59.5 111t22.5 96.5q2 27 15.5 39.5t25.5 12.5q18 0 20 -13q8 -18 9 -51 q0 -96 -72 -196q-8 -8 -16.5 -14.5t-16.5 -16.5q-25 -27 -42 -50.5t-52 -45.5q-47 -31 -107.5 -49.5t-101.5 -18.5q-23 0 -69 22.5t-87 58.5t-53 71q-6 23 -10 45t-4 47q0 31 7 65.5t26 77.5q2 8 10 8h6q4 8 1 23.5t1 23.5q41 74 117 120t149 73q43 16 107.5 30.5 t103.5 14.5q109 0 177.5 -24.5t101.5 -65.5q16 -18 12 -43v-2q0 -8 6 -18.5t8 -20.5q12 -51 13 -107q0 -90 -27 -174t-61 -141q-20 -33 -31.5 -59.5t-32.5 -59.5q-16 -29 -49 -67.5t-51 -61.5q-86 -100 -183.5 -158.5t-177.5 -93.5q-33 -14 -63.5 -30.5t-65.5 -16.5 q-6 0 -13 1t-13 -1q-10 -2 -46 -9t-44 -7q-82 -4 -111 30.5t-29 79.5z" />
<glyph unicode=":" horiz-adv-x="489" d="M0 104q0 16 6 31t21 23q41 20 69.5 34.5t55.5 26.5q61 25 92 25t35 -21v2q4 -12 4 -26q0 -8 -2 -19.5t-9 -21.5q-8 -18 -22 -40t-17 -48q-8 -29 -42.5 -31t-57.5 -12q-20 -8 -49 -7.5t-43 0.5h-4q-18 0 -23.5 13.5t-7.5 27.5q-2 8 -4 19.5t-2 23.5zM236 582q0 16 6 30.5 t20 22.5q41 20 68.5 35.5t54.5 25.5q61 25 92 25t37 -21v2q4 -12 4 -24q0 -8 -2 -19.5t-8 -23.5q-10 -18 -24.5 -40t-16.5 -48q-6 -29 -41 -31t-57 -12q-20 -8 -49 -7t-44 1h-4q-18 0 -23 13t-7 28q-2 8 -4 19t-2 24z" />
<glyph unicode=";" horiz-adv-x="813" d="M-76 -203q0 16 25 41q16 16 42.5 39t43.5 43q23 29 38 59.5t15 65.5q0 25 -8 47q-6 16 -6 33q0 27 22 43q18 16 60.5 32.5t58.5 24.5q20 4 46 -11t34 -28q10 -20 10 -45q0 -35 -20 -57q-39 -51 -78 -105.5t-80 -95.5q-14 -8 -22.5 -6t-12.5 -4q-20 -20 -36.5 -45 t-35.5 -35q-34 -22 -59 -22q-14 0 -29 10q-8 4 -8 16zM326 582q0 16 6 30.5t20 22.5q41 20 69 35.5t54 25.5q61 25 92 25t37 -21v2q4 -12 4 -24q0 -8 -2 -19.5t-8 -23.5q-10 -18 -24.5 -40t-16.5 -48q-6 -29 -41 -31t-57 -12q-20 -8 -49 -7t-43 1h-5q-18 0 -23 13t-7 28 q-2 8 -4 19t-2 24z" />
<glyph unicode="&#x3c;" horiz-adv-x="929" d="M53 662q6 -2 2 16t4.5 42.5t51.5 41.5q4 -2 39.5 13.5t88 45t99.5 66.5q8 4 20.5 7t18.5 7q12 10 32.5 12t28.5 13v4q18 18 33 39q41 51 76 69.5t49 30.5q16 14 39 14q33 0 59 -25l25 -24l6 -8q12 -27 12 -49q0 -53 -71 -47q-2 2 1 -6.5t-1 -12.5q-4 -2 -12.5 -1 t-12.5 -1q-31 -20 -40 -27.5t-19 -37.5q-2 -4 -19.5 -6t-35 -5.5t-19.5 -7.5l-31 -32q-45 -47 -104.5 -62.5t-93.5 -32.5q-8 2 -23 -20l-16 -23q-8 -8 19.5 -30.5t75.5 -54t103.5 -68.5t102.5 -74q35 -27 56 -37t36.5 -17t33 -22.5t42.5 -56.5q18 -29 25 -50.5t7 -37.5 q0 -41 -43 -41q-41 0 -80 29l-61 61q-23 25 -25 27t-24 14q-8 8 -25.5 26.5t-21.5 20.5l2 -2q-10 4 -22.5 14.5t-16.5 10.5l-2 4q-33 14 -74 48t-90 60q-14 8 -16 16.5t-11 10.5q-6 4 -30.5 22.5t-56 42t-58.5 48t-33 43.5z" />
<glyph unicode="=" horiz-adv-x="788" d="M88 225q-6 31 14.5 71t47.5 52q8 4 32.5 4h59.5q66 0 153.5 -2t167.5 -5t119 -3q23 0 23 -14q0 -12 -27 -27.5t-96 -24.5q-51 -4 -93.5 -15t-78.5 -21h-4q-8 0 -11.5 4t-7.5 0q-12 -2 -40 -4t-56.5 -4.5t-40.5 -8.5q-16 -8 -46 -11t-42 -7q-9 -2 -27 -2q-16 0 -30.5 5 t-16.5 15v-2zM88 541q-6 31 14.5 70.5t47.5 52.5q8 4 32.5 4h59.5q66 0 153.5 -2t167.5 -5.5t119 -3.5q23 0 23 -14q0 -12 -27 -27.5t-96 -23.5q-51 -4 -93.5 -15.5t-78.5 -21.5h-4q-8 0 -11.5 4t-7.5 0q-12 -2 -40 -4t-56.5 -4t-40.5 -8q-16 -8 -46 -11.5t-42 -7.5 q-9 -2 -27 -2q-16 0 -30.5 5t-16.5 16v-2z" />
<glyph unicode="&#x3e;" horiz-adv-x="929" d="M162 207q0 31 33 88q25 41 42 56.5t32.5 22.5t37 17t55.5 37q47 37 102.5 74t103.5 68.5t76 54t20 30.5l-16 23q-15 22 -23 20q-33 16 -92.5 31.5t-106.5 63.5l-31 32q0 4 -18.5 7.5t-35.5 5.5t-19 6q-8 31 -18.5 38t-41.5 27q-4 2 -12 1t-12 1q-2 4 0 12.5t0 6.5 q-72 -6 -72 47q0 23 12 49l6 8l26 24q26 25 58 25q23 0 39 -14q16 -12 51 -30.5t74 -69.5q16 -20 33 -39v-4q8 -10 28.5 -12.5t32.5 -12.5q6 -4 18.5 -7t20.5 -7q49 -37 100.5 -66.5t88.5 -45t39 -13.5q45 -16 52 -41t3 -43.5t2 -15.5q-6 -18 -32.5 -43t-58.5 -48.5 t-56.5 -42t-30.5 -22.5q-8 -2 -10.5 -10.5t-16.5 -16.5q-49 -27 -89 -60.5t-75 -47.5l-2 -4q-4 0 -16 -10.5t-23 -14.5l2 2l-20.5 -20.5l-26.5 -26.5q-23 -12 -24.5 -14t-24.5 -27l-61 -61q-39 -29 -78 -29q-18 0 -31.5 10t-13.5 31z" />
<glyph unicode="?" horiz-adv-x="1071" d="M164 45q0 31 18 43h2q53 23 91 41t65 29q35 12 46 -20t7 -72q0 -14 -10 -31t-10 -27q-6 -27 -38 -27.5t-52 -11.5q-18 -8 -43 -7t-39 1h-4q-16 0 -22.5 12.5t-4.5 24.5q-2 10 -4 21.5t-2 23.5zM211 981q0 29 12.5 58.5t40.5 56.5q55 51 138 87t179.5 55t186.5 19 q29 0 55.5 -2t53.5 -6q80 -12 139 -43.5t82 -89.5q2 -4 2 -10q0 -14 -5 -31.5t-5 -27.5q-2 -4 7 -3.5t11 -15.5q-2 -18 -7 -37.5t-14 -40.5q-14 -35 -70 -72.5t-135 -77.5t-160 -83t-144 -86v2q-14 -8 -23.5 -4t-11.5 0q-6 -2 -12.5 -18.5t-14.5 -24.5q-51 -43 -66.5 -74 t-19.5 -53v-10q0 -10 4 -9.5t12 -9.5v-8q0 -10 -5 -25.5t-23 -21.5q-16 -6 -36 -8t-36 -2q-66 0 -65 51q0 33 28 84q16 33 34.5 48t57.5 48q10 10 33 24.5t37 22.5q4 2 9 13.5t18 17.5q23 12 69.5 36.5l93 49t66.5 39.5q31 23 44 22.5t19.5 -4.5t12.5 4q72 43 92 79t31 69 q14 41 14 75q0 61 -40 96.5t-99 47.5q-33 6 -74 6q-63 0 -129 -18q-63 -18 -117.5 -52t-89.5 -84q-6 -8 -6 -18q0 -23 16.5 -50.5t12.5 -43.5q-6 -51 -20.5 -71.5t-49.5 -20.5q-18 0 -34.5 5t-28.5 11q-12 4 -28.5 14.5t-27.5 20.5q-8 10 -6 27.5t-2 23.5q-6 23 -6 43z" />
<glyph unicode="@" horiz-adv-x="1716" d="M59 213q0 55 15 104q8 23 16 43l19 46q10 23 18 42t10 29v8q0 14 -5 20.5t-5 16.5q0 12 12 33q70 115 173.5 220.5t222 192.5t231.5 140q78 37 167 57.5t179 20.5q125 0 238.5 -42t189.5 -131t90 -233q10 -94 22.5 -143t12.5 -90q0 -20 -5 -44t-20 -52q-41 -92 -98 -170 t-111.5 -130.5t-91.5 -72.5q-72 -47 -155.5 -53.5t-214.5 -6.5l-15 -1q-16 -1 -32 -1q-18 0 -21 2q-4 4 -11 7.5t-11 13.5q-4 16 -5 29q0 37 19.5 87t52.5 111q27 51 39 80t18.5 48.5t14.5 37.5q-29 -27 -59.5 -55.5t-71.5 -63.5q-6 -4 -18.5 -10t-16.5 -8l-51 -53 q-63 -51 -112.5 -100.5t-108.5 -84.5v2q-2 -2 -5.5 -7t-9.5 -9v-2q-8 -2 -14 -2t-10 -2q-12 -8 -24.5 -13.5t-22.5 -11.5q-25 -10 -43 -10q-25 0 -41.5 14.5t-16.5 44.5q0 8 1 16.5t3 16.5q16 68 54 160t104 196.5t162 204.5q57 59 117.5 96t123.5 46h-2q6 2 14.5 5t16.5 3 q16 0 29.5 -4t27.5 -8h3q70 -12 92 -47t22 -70q0 -18 -4 -33.5t-8 -26.5l-2 -2q-8 -8 -21 -8q-10 0 -19 8.5t-9 22.5q0 20 -7.5 34.5t-17.5 24.5q-2 4 -10 4t-19 2h-2q-6 2 -12 4.5t-12 2.5q-78 0 -193 -109q-117 -115 -174 -199t-78.5 -144t-31.5 -107q-2 -10 0 -12.5 t10 -4.5q6 -2 16 0q31 10 75 42t88 70t75 64q10 10 19.5 14.5t15.5 10.5q10 6 15 15t13 16q74 63 119 101t70.5 60.5t44.5 38.5q27 27 59 27q47 0 60 -51q8 -29 -14.5 -40.5t-32.5 -25.5q-16 -20 -35 -60t-49 -96q-10 -20 -13.5 -30t-13.5 -27q-2 -2 -4 -19.5t-4 -25.5 q-8 -14 -9.5 -28.5t3.5 -8.5q0 -2 1 -26.5t10 -48t32 -23.5q16 0 36 14q4 2 17.5 6t15.5 4l68 9q25 12 60.5 49t72.5 81t61 72q8 18 21.5 52t26 66t12.5 42q4 61 15 106.5t11 84.5q0 29 -8 51q-2 12 -12 39.5t-23.5 58.5t-25.5 45q-8 14 -19 10l-4 -2q-14 -2 -20 7 q-63 115 -161.5 162.5t-207.5 47.5q-45 0 -89 -7t-87 -19q-6 -2 -14 -2q-12 0 -19 2l-8 2q-8 2 -13 2t-16 -4q-14 -8 -24 -23.5t-27 -25.5q-201 -123 -314.5 -291t-162.5 -346q-10 -39 -16.5 -55.5t-10.5 -49.5q0 -4 -9 -16t-17 -23.5t-4 -13.5l53 -10h2q0 -2 -8 -9.5 t-8 -11.5q-2 -4 -3 -12q0 -10 5 -27l6 -20q0 -4 1 -8t1 -8q4 -106 69.5 -181t169 -121.5t226.5 -68t239 -21.5q102 0 190.5 14.5t143.5 41.5q45 23 86 60.5t55 64.5q23 37 35 37q10 0 12.5 -19.5t2.5 -38t4 -18.5t4 -4q0 -8 -10.5 -27.5t-16.5 -28.5q-66 -80 -146.5 -111.5 t-170.5 -46t-185 -42.5q-10 -4 -26.5 -5.5t-32.5 -1.5h-31.5t-25.5 -4q-10 -2 -18.5 -9t-18.5 -13q-10 -8 -41 8t-55 16q-10 0 -19.5 -1t-19.5 -1q-76 0 -159 35t-163 95.5t-144.5 139.5t-102.5 169t-38 184z" />
<glyph unicode="A" horiz-adv-x="1173" d="M-172 -184q0 33 21.5 86t74.5 135q41 61 146.5 205.5t277.5 322.5q6 2 6 6q0 6 -13 13.5t-27.5 15.5t-14.5 16q0 10 28.5 18.5t110.5 16.5q27 23 54.5 44.5t39.5 33.5q10 8 12.5 12t2.5 7v2q0 4 3 9t13 13q133 117 197.5 151.5t68.5 39.5q57 55 134 95t155 80t142 95 q8 4 16 19.5t16 25.5q10 10 37 15t31 12q8 8 23.5 12t23.5 10q18 12 43 12q37 0 73 -21.5t36 -51.5q0 -20 -17 -37q-12 -14 -31.5 -25.5t-31.5 -27.5q-12 -14 -33 -25.5t-31 -22.5q-94 -113 -174 -228.5t-145 -229.5q29 2 45 -10.5t16 -26.5q0 -27 -47 -27q-10 0 -23.5 -1 t-29.5 -1q-57 -111 -99.5 -222.5t-65 -198.5t-28.5 -126q0 -20 -9 -44.5t-5 -28.5q6 -8 11 -19.5t5 -25.5q0 -29 -30 -50q-4 -2 -13 -2q-14 0 -23 12.5t-18 26.5q-6 12 -10 23.5t-4 23.5t6 31q2 2 2 6q0 10 -6 21.5t-2 25.5q10 29 15 76t20 80q33 68 41 128t18 118.5 t47 120.5q0 -2 5.5 6t9.5 18q-90 0 -200 -5t-210 -13q-16 -16 -33.5 -32.5t-36.5 -37.5q-16 -18 -38.5 -34.5t-38.5 -32.5q-14 -14 -46 -50.5t-63 -72t-45 -50.5q-6 -8 -23.5 -27.5t-35 -37.5t-23.5 -25q-61 -70 -92 -104.5t-43 -50t-16.5 -21.5t-9.5 -15t-23 -38 q-10 -18 -10 -43v-18v-15.5t-5 -15.5q-4 -18 -5 -53t-1 -50q0 -20 -11.5 -29t-23.5 -9t-20 8q-18 16 -30.5 34.5t-12.5 49.5zM276 561q-10 0 4.5 2t37 5t34.5 3l-4 -6q-16 -4 -69 -4h-3zM598 662q39 0 76 1t69 1q25 0 48 -2.5t43 -2.5h118l17 35l2 2q55 55 74.5 86 t23.5 52.5t9 42t32 53.5q2 33 19.5 51t3.5 33q-8 18 -27 18q-25 0 -68 -37q-18 -16 -53 -40.5t-71.5 -50t-62.5 -42.5l-26 -18l-2 -2q-14 -6 -75.5 -54.5t-149.5 -125.5z" />
<glyph unicode="B" horiz-adv-x="1556" d="M141 -188q0 20 13.5 79.5t46.5 122.5q14 29 37.5 74t48 92t46 86t34.5 58q25 39 56.5 86t63 91t55 74.5t27.5 36.5q0 4 14.5 21.5t32 39t30.5 37.5l13 17q25 33 61 75t71.5 85t62.5 74q10 14 31.5 52t36.5 52q14 12 33.5 33.5t35.5 29.5q31 16 72 28.5t74 12.5 q55 0 55 -39q-4 -29 -19.5 -67.5t-60.5 -79.5q-25 -20 -62.5 -42.5t-54.5 -45.5q-14 -23 -50 -49.5t-69.5 -49t-46.5 -36.5q-8 -10 -31.5 -39t-51 -63.5t-50 -63.5t-30.5 -39q-70 -84 -104 -134t-47 -77t-21 -41h-2q-14 -27 -51.5 -51.5t-47.5 -44.5q-14 -31 -42.5 -76 t-35.5 -68q-6 -14 -34.5 -55t-47.5 -119q-14 -63 -33.5 -89.5t-33.5 -26.5q-25 0 -25 39zM174 911q-2 14 1 37t18 49q4 4 3 16.5t7 20.5h-2q8 10 19 11.5t13 5.5q59 72 196.5 146.5t367.5 107.5h4q10 0 19 -4.5t16 -2.5q4 0 9 6.5t13 6.5q98 12 213 12h51.5t53.5 -2 q166 -6 289.5 -43t193.5 -101.5t70 -150.5q0 -35 -12.5 -75t-41.5 -81h-2q-16 -25 -38.5 -51t-57.5 -53q-6 -4 -10 -15.5t-15 -19.5q-10 -8 -23 -10t-22 -8q-57 -37 -141 -78t-170 -76q43 6 94 6q41 0 77 -5t56 -17q27 -23 42.5 -56.5t15.5 -76.5q0 -35 -11.5 -77t-37.5 -89 q-25 -45 -43.5 -63.5t-40 -30t-54 -31t-88.5 -66.5q-72 -59 -162 -94t-159 -55q-82 -23 -159 -38.5t-130 -15.5q-37 0 -53 9q-27 12 -27 49q0 23 10.5 40t24.5 17q23 0 41 -47q-2 -2 13.5 -4t23.5 0q45 2 76.5 5t76.5 14.5t125 35.5q160 53 254 130t129 143q23 41 31 74.5 t8 60.5q0 53 -26 90q-14 20 -45 26.5t-66 6.5q-33 0 -67.5 -3t-61.5 -3l-25 -6q-26 -7 -59 -15t-57 -12q-8 0 -26.5 -6t-31.5 -9q-20 -2 -30.5 0.5t-18.5 -0.5q-41 0 -41 27q0 16 19.5 36.5t52.5 31.5q20 8 60 13t83 7q106 6 205.5 49t180.5 105.5t132 120.5q10 10 33 22 t27 19h2q0 2 -7.5 7t-7.5 15h2q29 41 35 85q4 26 4 49q0 15 -2 28q-8 96 -127.5 150.5t-310.5 62.5q-20 2 -39.5 2h-40.5q-92 0 -172 -10.5t-149 -26.5q-33 -6 -60.5 -23.5t-56.5 -27.5q-27 -8 -50.5 -8t-43.5 -11q-98 -45 -148.5 -96t-46.5 -80v-6q0 -14 5 -28.5t18 -4.5 q10 6 16 7q18 0 19 -19q0 -14 -17 -24q-16 -14 -47 -24.5t-41 -10.5q-43 0 -78 3t-49 25z" />
<glyph unicode="C" horiz-adv-x="1329" d="M174 317q0 33 4 63t8 50q35 152 128.5 284t238.5 265q16 16 32.5 30.5t32.5 28.5q10 6 20.5 7.5t18.5 1.5q10 0 18.5 1t12.5 5q10 6 13.5 28.5t15.5 32.5q59 43 139 71.5t148 55.5q57 23 140 35t161 12q80 0 131 -12q45 -10 60 -31.5t19.5 -46t10.5 -47.5q2 -6 3 -12 t1 -15q0 -33 -19.5 -57.5t-40.5 -24.5q-23 0 -32 31q-4 10 -13.5 26.5t-13.5 28.5q-10 23 -30.5 30t-53.5 7h-2q-18 0 -40.5 4.5t-49.5 4.5q-39 0 -84 -8.5t-96 -30.5q-158 -70 -302.5 -153t-240.5 -191q-12 -16 -15 -22.5t-18 -25.5q-10 -12 -30.5 -34.5t-28.5 -34.5 q-31 -43 -47.5 -93.5t-26.5 -97.5t-24 -77q-12 -27 -17.5 -54.5t-5.5 -56.5q0 -49 13.5 -94t29.5 -76q33 -59 101.5 -78.5t138.5 -19.5q49 0 91 6t60 8q14 4 51 21.5t52 19.5q18 4 44.5 10t47.5 14q100 37 162.5 86.5t123.5 104.5q53 47 87 66.5t49 19.5q14 0 14 -12 t-17.5 -35t-52.5 -45q-78 -55 -157.5 -125t-175.5 -109q-27 -10 -49.5 -26.5t-51.5 -24.5q-33 -8 -121 -28.5t-190 -20.5q-76 0 -148.5 18.5t-132.5 63.5q-51 43 -72.5 123t-21.5 155z" />
<glyph unicode="D" horiz-adv-x="1845" d="M143 829q-2 14 1 37t18 49q4 4 3 16.5t7 20.5h-2q8 10 19.5 11.5t13.5 5.5q59 72 196.5 146.5t366.5 107.5q10 2 23.5 2t3.5 0h-2q-4 0 21.5 4t54 9t32.5 5q43 6 74 6q37 0 73.5 -4t98.5 -6q248 -4 424 -61.5t269 -156.5t93 -230q0 -80 -35.5 -168t-111.5 -185 q-92 -117 -197.5 -192.5t-208 -127.5t-186.5 -102q-80 -47 -176 -76.5t-182 -45t-134 -23.5q-86 -12 -168 -12q-59 0 -105 6t-69 20q-28 15 -28 53q0 26 11 42t32 16q27 0 57 -29q20 -18 55 -25.5t67 -7.5h40q8 -2 18.5 -2h20.5q43 0 103.5 8.5t124 20.5t116.5 26.5t84 28.5 q225 109 372.5 207.5t235.5 222.5q47 63 70.5 139.5t23.5 151.5q0 59 -14 115.5t-49 108.5q-31 49 -101.5 93t-165 77.5t-200.5 50.5q-4 -29 -20.5 -66t-57.5 -72q-25 -23 -62.5 -44t-54.5 -44q-14 -23 -50 -49t-69.5 -48.5t-46.5 -37.5q-8 -10 -31.5 -38.5t-51 -63.5 t-50 -63.5t-30.5 -39.5q-70 -84 -104 -134t-47 -76.5t-21 -40.5h-3q-14 -27 -51 -52.5t-47 -44.5q-14 -33 -43 -77t-35 -66q-6 -14 -34.5 -55t-47.5 -119q-14 -63 -33.5 -90t-33.5 -27q-25 0 -25 39q0 20 13.5 79.5t46.5 123.5q14 29 37.5 74t48 92t46 86t34.5 57 q25 39 56.5 86t63 91t55 75t27.5 37q0 4 14.5 21.5t32 39t30.5 37.5l13 16q25 33 61 75t71.5 85t62.5 74q10 14 31.5 52t36.5 52q14 12 33.5 34t35.5 30l8 4q-90 -2 -168.5 -11t-148.5 -26q-33 -8 -57.5 -17.5t-53.5 -19.5q-25 -8 -51 -15t-49 -18q-98 -45 -146.5 -96 t-48.5 -80v-6q0 -14 5.5 -28.5t17.5 -4.5q10 6 16 7q18 0 19 -19q0 -14 -17 -24q-16 -14 -46.5 -24.5t-41.5 -10.5q-43 0 -77.5 3t-49.5 25z" />
<glyph unicode="E" horiz-adv-x="1462" d="M184 119q0 33 26 44t58 7l58 127q33 43 56.5 89t49.5 83l115 164q-27 -6 -49 -11l-21 -4h-49q-8 2 -19.5 15.5t-19.5 21.5q8 10 21.5 35t30 46.5t30.5 21.5q10 0 28.5 2t32.5 2h3q6 0 10 5t16 5q20 0 41 2t41 2h10q14 18 23 32l8 15v-4q0 -6 10.5 7.5t19.5 29.5l9 16 q23 33 28 49.5t14 32t36 45.5q6 8 28.5 40t51 70t52 69.5t32.5 40.5q-72 -2 -88.5 -3.5t-8 -1.5t8.5 -2l-5 -1q-4 -1 -16 -3q-68 -8 -119 -24.5t-92 -16.5h-4q-6 0 -6 -8q0 -4 1 -9t1 -9q0 -18 -12 -23h2q16 0 -1.5 -2t-44 -4t-38.5 -2q-27 0 -47.5 3t-36.5 5 q-29 4 -66 21.5t-37 40.5t43 43q37 18 106.5 29.5t156 17.5t175.5 11t162 11q10 10 31 17.5t14 7.5h-2q27 14 52 14q43 0 55 -39q127 10 234.5 13t193.5 4q23 0 46.5 -2t62.5 -11q16 0 25 -9t15 -7l35 -2l28 -14q28 -15 36 -25q18 -14 18 -49q0 -20 -12 -42t-41 -30 q-25 -2 -32 10.5t-13 29t-31 24.5q-27 12 -51.5 27.5t-26.5 15.5q-33 0 -46 4t-35.5 7t-84.5 3q-78 0 -145.5 -15.5t-148.5 -19.5q-4 -14 -23.5 -17t-48.5 -30q-23 -20 -61.5 -60t-59.5 -63q-14 -23 -47 -67.5t-63.5 -86.5t-45.5 -59q-20 -20 -47 -37l56 4q14 2 39.5 -7 t37.5 -9q0 10 17 12q23 0 46 -2t48 -2q70 0 137.5 -5t136.5 -5q14 0 22.5 -3t22.5 -7h-2q-4 0 -4 -2t21.5 -14.5t21.5 -22.5q-2 -14 -14 -14q-8 0 -17.5 4t-19.5 6q-104 0 -191 -1t-175.5 -6t-196.5 -18q-18 0 -38.5 -5t-43.5 -13q-59 -80 -114.5 -165t-92.5 -146.5 t-43 -73.5q-10 -20 -19 -45t-16 -36t-6 3v2q0 6 -4 -9.5t-7 -38t-5 -38.5q51 -16 102 -24.5t96 -8.5h187q12 0 32.5 -6t30.5 -6h2q10 0 19.5 10t25.5 12q94 8 207 31q47 10 87 35t67 49q16 14 22.5 20.5t20.5 26.5q6 8 16.5 30.5t26.5 43t39 20.5q23 -2 30 -22.5t7 -42.5 q0 -33 -9 -43q-18 -25 -20 -58.5t-20 -62.5q-18 -27 -53.5 -41t-63.5 -31q-23 -12 -66 -18t-67 -8q-45 -8 -114 -14.5t-142.5 -8.5t-139.5 -2q-57 0 -99 2t-56 4q-43 4 -93.5 13.5t-95.5 23.5q-6 -14 -11 -31.5t-17 -21.5h2q-18 -8 -24 -8h-19l-2 2q-6 6 -30 13t-28 11 q-43 63 -43 103zM383 657v2h1q1 0 5 -4q-6 -8 -6 2z" />
<glyph unicode="F" horiz-adv-x="1126" d="M184 57q0 29 17.5 84.5t66.5 155.5h2q33 43 55.5 89t49.5 83l114 164q-27 -6 -48 -11l-21 -4h-47q-8 2 -19.5 16.5t-19.5 20.5q8 10 20.5 35t28.5 46.5t31 21.5q10 0 29.5 2t33.5 2h2q4 0 8.5 5t18.5 5q20 0 39.5 2t40.5 2h10q16 18 24 32l7 15v-4q2 10 20.5 30.5 t18.5 22.5q23 33 28.5 49.5t14 32t34.5 45.5q6 8 29 39t51.5 70t52 70.5t31.5 40.5q-113 -2 -226.5 -34t-184.5 -75q-12 -6 -29 -6q-27 0 -52.5 19.5t-25.5 41.5q0 29 41 49q84 41 227.5 51.5t300.5 18.5q6 12 13.5 21.5t15.5 11.5q27 14 51 14q43 0 56 -39q106 8 199 12.5 t173 4.5q51 0 127 -10.5t136 -22.5q18 0 26 -10.5t14 -8.5l35 -2h2q16 -8 51 -24.5t46 -26.5q16 -16 16 -41q0 -37 -27 -37q-18 0 -30.5 13.5t-18.5 26t-6 8.5h-2q-16 10 -44 18t-50.5 13t-26.5 5q-47 0 -128 14.5t-173 14.5q-78 0 -160 -4t-159 -10q-2 -12 -10.5 -27.5 t-36.5 -40.5q-23 -20 -62 -60t-57 -63q-16 -23 -49 -67.5t-64 -86.5t-45 -59q-23 -23 -45 -37l47 4q10 2 18.5 2.5t16.5 0.5q41 0 82 -5.5t80 -5.5q51 0 94 -4t94 -12q16 0 42 -2t42 -2q14 0 22.5 -3t22.5 -7h-2q-6 0 -6 -2t22.5 -14.5t22.5 -22.5q-2 -14 -14 -15 q-8 0 -17.5 4.5t-19.5 5.5h2q12 0 -20.5 5.5t-67.5 5.5q-29 0 -32 2t-8 4t-38 2q-82 0 -179.5 -9t-219.5 -24q-16 0 -38 -5t-44 -13q-59 -80 -114.5 -165t-92.5 -146.5t-43 -73.5q-14 -33 -24.5 -44.5t-16.5 -33.5q0 -2 -1 -3t-1 -3q0 -12 11 -29.5t17 -15.5q10 0 7 -8 l-39 -109l-2 -2q-10 -10 -26.5 -22.5t-27.5 -20.5q-18 -8 -30.5 -8h-14.5l-2 2q-6 6 -8 10t-8 8q-6 6 -16.5 13.5t-10.5 33.5zM328 657v2h1t5 -4q-6 -8 -6 2z" />
<glyph unicode="G" horiz-adv-x="1583" d="M174 174q0 70 20.5 141.5t41.5 114.5q78 152 203.5 284t308.5 265q20 16 40.5 30.5t40.5 28.5q16 12 48 19.5t47 17.5l3 15q3 14 17 24v2q72 41 160 69.5t164 55.5q63 23 150 35t165 12q76 0 121 -12q41 -10 52 -30.5t11 -43.5q0 -14 -2 -27.5t-2 -25.5q0 -39 -28.5 -73 t-53.5 -34t-24 33v2q0 10 -7.5 23.5t-7.5 25.5q0 23 -18 31t-55 8h-2q-16 0 -38 4.5t-46 4.5q-39 0 -86 -8.5t-105 -30.5q-178 -70 -344 -153t-291 -191q-18 -16 -22 -23.5t-25 -24.5q-12 -12 -38.5 -34.5t-39.5 -34.5q-63 -63 -99 -143t-68 -125q-35 -49 -50.5 -102.5 t-15.5 -100.5t12 -78q16 -63 85 -87t147 -24q51 0 98 8.5t80 18.5q10 4 32.5 14.5t46 18.5t34.5 8q16 0 53 17.5t53 29.5q49 29 104.5 56.5t104.5 56t76 55.5q27 29 47 58.5t26 50.5q10 37 11 67q0 47 -15 62l-46 5q-46 5 -97 5h-32.5t-31.5 -4q-43 -8 -74.5 -24.5 t-90.5 -51.5q-16 -10 -62.5 -37t-83.5 -49h-2q-27 -14 -36 -9t-15 -1h2q-4 -2 -14 -2q-14 0 -22.5 14t-8.5 35q0 18 6 36.5t21 26.5q33 16 67.5 48t69.5 46l10 -7q10 -7 14 -5q49 20 93.5 37.5t111.5 34.5q47 10 101.5 23.5t111.5 13.5q23 0 45.5 -2t44.5 -11q12 4 33 5.5 t53 1.5h80q27 0 55.5 1t51.5 -1q18 0 31.5 -8.5t13.5 -18.5q0 -12 -17.5 -21.5t-60.5 -9.5q-35 0 -51.5 -4t-29.5 -7t-40 -3q-23 0 -49.5 -22.5t-24.5 -26.5q0 -10 6.5 -27.5t6.5 -40.5q0 -18 -7.5 -39.5t-29.5 -46.5q-4 -8 -27.5 -36.5t-34.5 -43.5q-27 -37 -90 -86 t-141 -94t-150 -72q-33 -12 -58.5 -26.5t-57.5 -24.5q-70 -20 -162 -39.5t-184 -19.5q-82 0 -155 20.5t-122 71.5q-23 25 -32 60.5t-9 74.5z" />
<glyph unicode="H" horiz-adv-x="1552" d="M94 43q0 27 19.5 83t74.5 163h2q35 43 59.5 91t51.5 83q4 6 28.5 40t59.5 82t72 97q-8 0 -14.5 -1t-12.5 -3q-27 -6 -50.5 -8t-41.5 -2q-63 0 -63 18q0 12 52 30t177 32q25 35 41 58t18 25q4 4 23 28l18 24q27 33 33 49t14.5 32.5t36.5 49.5q8 10 34 39.5t51.5 59.5 t33.5 38q10 10 8 23.5t19 27.5q29 14 61.5 24.5t56.5 10.5q45 0 45 -39v-2q0 -27 -5 -43t-48 -55q-25 -20 -64.5 -63.5t-58.5 -65.5q-27 -35 -59.5 -73t-54.5 -60q-18 -20 -43 -34t-37 -32l-8 -12q59 6 143 11t172 8t160 3q88 0 125 -6q53 -8 94 -8t67 -2q6 10 28 36.5 t42 49.5l19 22q27 33 61.5 76t70 86t62.5 72q10 14 24.5 52t28.5 52q14 12 42 34t42 30q31 14 74 26.5t76 12.5q51 0 51 -35q-4 -29 -18.5 -69t-61.5 -81q-25 -20 -61.5 -42.5t-53.5 -45.5q-16 -23 -52 -49t-68.5 -47.5t-44.5 -36.5q-12 -14 -51.5 -63t-71.5 -90 q-6 -8 2 -22.5l16 -29t0 -22.5q-6 -6 -18 -6q-18 0 -42 8t-28 4q-78 -98 -105.5 -157.5t-37.5 -79.5h-2q-10 -14 -26.5 -44t-31 -59t-22.5 -43q-10 -23 -33 -38t-42 -27.5t-22 -26.5q-8 -16 -35.5 -57t-45.5 -117q-16 -66 -36 -91.5t-34 -25.5q-25 0 -25 37q0 20 13.5 79.5 t46.5 123.5q14 29 37.5 74t49 92t47 86t34.5 57q35 53 85 126t83 118q-70 0 -173.5 -2t-218 -5.5t-218 -7.5t-171.5 -8q-63 -84 -123.5 -173t-101.5 -153.5t-47 -76.5q-14 -33 -25.5 -45.5t-17.5 -34.5q-4 -10 -12.5 -35t-13.5 -44t-1 -15q8 -4 13.5 -27t5.5 -41 q0 -14 -2 -18q-10 -10 -18.5 -22.5t-20.5 -18.5q-10 -6 -20.5 -8.5t-20.5 -2.5q-20 0 -27 7q-4 6 -7 10t-9 8q-6 6 -16.5 12t-10.5 31z" />
<glyph unicode="I" d="M57 39q0 14 4 20q12 25 22.5 41.5t63.5 16.5q49 0 58.5 -8.5t11.5 -14.5t27 -4q10 0 28.5 5t40.5 5q10 33 29.5 87.5t52.5 136.5v2q31 47 54.5 98t44.5 90v-4q0 -4 22.5 30.5t56 90t68.5 114t61.5 101.5t34.5 53q2 10 17.5 33.5t17.5 25.5h-2q23 37 31 55.5t18 37 t35 53.5q4 10 15.5 22.5t21.5 26.5q-53 -8 -102.5 -15.5t-90.5 -11.5q-10 2 -28.5 -7t-29.5 -17t-1 -8h2q-27 -8 -46.5 -7.5t-21.5 0.5v3q-22 17 -22 56q0 30 12 55.5t37 31.5q4 0 8 1t6 1q14 0 24.5 -3t25.5 -3q20 0 45 10q18 8 93 14.5t173 12.5l16 14l25 9q26 9 63 18.5 t66 9.5q45 0 47 -29l-2 -12q117 6 201 6q41 0 66.5 -1t27.5 -1h4q16 -14 16 -31q0 -20 -20.5 -32.5t-26.5 2.5q4 2 -17.5 4t-62.5 0q-8 2 -20 -9.5t-29 -13.5q-12 0 -24.5 5t-22.5 5q-33 0 -70.5 -7t-78.5 -13q-12 -14 -25.5 -26.5t-30.5 -28.5q-23 -23 -49.5 -52.5 t-44.5 -56.5h2q-23 -37 -55.5 -68.5t-50.5 -56.5q-16 -23 -39 -37t-37 -33q-100 -137 -156.5 -233t-68.5 -119q-8 -16 -23.5 -49t-29 -65.5t-19.5 -49.5q-12 -35 -22.5 -48t-18.5 -38v2q0 8 -1 -20.5t-1 -48.5q0 -37 4 -33q2 2 6 -4l2 -4q53 10 107.5 18t97.5 8 q43 -2 67.5 -4t18.5 -18q-4 -2 -3 -14.5t-42 -24.5q-39 -10 -107.5 -25.5t-136.5 -25.5l-18 -31.5t-23 -21.5h4q-6 -4 -24 -5q-18 0 -34 5l-15 6l-5 2q0 4 -9 5t-17 7q-2 2 -7 6l-10 8q-14 -4 -31.5 -12t-33.5 -8t-48 -13.5t-52 -13.5q-31 0 -42.5 6.5t-15.5 4.5 q-12 2 -25.5 20t-13.5 39z" />
<glyph unicode="J" horiz-adv-x="989" d="M-393 -311q0 27 15.5 46t60.5 46q18 10 32.5 14t22.5 4q18 0 26.5 -9t8.5 -19q0 -20 -19 -31q-12 -8 -18 -27.5t-6 -36.5q0 -59 65 -59q31 0 75 11.5t95 27.5q43 14 106.5 62.5t139.5 117.5q16 16 39.5 43t40.5 43q16 16 27.5 41t31.5 47q72 90 145.5 196.5t153.5 239.5 q47 80 100.5 187.5t104.5 208.5q8 16 18.5 34.5t16.5 32.5t9 30.5t9 29.5q16 31 29.5 57.5t21.5 32.5q-27 6 -26 45q0 25 14.5 50.5t40.5 33.5l23 4q24 4 34 12q18 12 34 -2t26 -30.5t10 -14.5q39 -4 39 -63q0 -33 -14 -68q-8 -14 -33 -29.5t-33 -29.5 q-41 -84 -100.5 -186.5t-116.5 -197t-92 -153.5q-10 -16 -33.5 -36.5t-34.5 -39.5q-12 -16 -10 -32.5t-12 -38.5h2q-76 -117 -168 -228.5t-188.5 -209t-189.5 -171t-171 -114.5q-41 -20 -81 -30.5t-75 -10.5q-76 0 -128 36.5t-62 88.5q-6 29 -6 45zM496 1020 q0 74 32.5 135.5t65.5 93.5q16 12 80.5 26.5t145.5 26t145 13.5q16 0 32.5 1t30.5 1q121 0 210 -12.5t165 -22.5q41 -6 68.5 -21.5t41.5 -33.5q20 -35 21 -51q0 -14 -18 -15q-25 0 -71 18.5t-75 18.5q-63 16 -127.5 26.5t-120.5 16.5q-25 4 -49 -2t-41 -8q-16 0 -58 -5 t-82 -11.5t-54 -8.5q-98 -14 -138.5 -28.5t-50.5 -29.5t-22 -30q-18 -20 -37 -38.5t-19 -65.5q0 -14 3.5 -30.5t7.5 -39.5v-6q0 -31 -31 -31q-14 0 -28.5 13.5t-20.5 46.5q-6 29 -6 53z" />
<glyph unicode="K" horiz-adv-x="1331" d="M80 -43q2 20 14 79.5t45 123.5q18 39 52 101.5t63 117.5h2q23 27 41 59.5t29 50.5q-29 18 -41.5 37t-12.5 35q0 35 36 58.5t69 23.5q16 0 29 -6l12 -12q37 53 58.5 88t29.5 45q4 8 26.5 35.5t43.5 52.5l22 26q25 33 59.5 76t71.5 86t64 72q10 14 24 52t29 52 q14 12 41.5 34t42.5 30q31 14 74 26.5t75 12.5q51 0 51 -35q-4 -29 -18 -70t-61 -80q-25 -20 -62 -42.5t-53 -45.5t-52 -49t-69 -47.5t-45 -36.5q-8 -10 -32.5 -39.5t-52.5 -64.5t-51.5 -63.5t-29.5 -39.5q-29 -35 -45 -52t-31 -34q25 8 51.5 16.5t47.5 16.5 q96 37 207.5 62.5t224.5 85.5q74 39 129 69.5t110.5 64.5t124.5 77q61 39 105.5 67.5t84.5 56t87 62.5q12 10 36.5 31.5t39.5 31.5q29 23 61.5 47.5t67.5 49.5q10 10 25.5 15t27.5 5q27 0 27 -16q0 -18 -37 -53q-84 -78 -156 -136.5t-147.5 -113t-176.5 -117.5l-79 -51 q-47 -31 -93.5 -56.5t-97.5 -54.5q-12 -6 -28.5 -5t-26.5 -7q-10 -4 -21.5 -18.5t-27.5 -24.5q-129 -68 -235.5 -119t-215.5 -94q-14 -6 -34.5 -21.5t-41.5 -23.5q20 -25 39 -43l19 -19q18 -18 53 -60t80 -94t94 -104q10 -10 11 -19t5 -16q10 -2 22.5 -7t16.5 -15 q18 -14 58.5 -45t84.5 -61.5t72 -47.5q41 -16 41 -34q0 -10 -11 -16.5t-17 -4.5q-18 0 -59.5 20.5t-90.5 50t-97 61.5t-81 56q-33 23 -74 59t-82 73.5t-70.5 67.5t-39.5 40q-27 31 -115 90l-39 27q-18 -31 -41.5 -63.5t-32.5 -49.5q-14 -33 -33.5 -53.5t-25.5 -42.5 q-6 -16 -35 -57t-47 -117q-14 -66 -34 -91.5t-36 -25.5q-23 0 -22 37z" />
<glyph unicode="L" horiz-adv-x="1126" d="M94 4q0 29 19.5 67t58.5 52q20 53 44 103t32 71h2q33 43 56.5 89t47.5 83l26 36t63.5 88t74.5 104.5t62 86.5l26 35q4 10 21.5 30.5t17.5 22.5q23 33 29 49.5t14 32t35 45.5q6 8 23.5 34t38 56.5t38 55t19.5 31.5q2 2 16 25.5t33.5 51t30.5 37.5q10 12 30.5 19.5 t14.5 7.5h-2q27 14 53 14q45 0 55 -41q23 -29 23 -51q0 -27 -24.5 -45t-45.5 -37q-25 -20 -63.5 -60t-55.5 -63q-16 -23 -50 -67.5t-64.5 -86.5t-42.5 -59q-14 -14 -29.5 -25.5t-30.5 -21.5q-47 -66 -102.5 -145.5t-107.5 -153.5t-86 -125t-38 -61q-14 -33 -24 -44.5 t-17 -33.5l-14 -29q-14 -28 -37 -63q8 0 30.5 -4t44 -6.5t30.5 -2.5q109 10 204 27t175 25q27 4 64.5 4h65.5h29h4q14 0 19.5 -6t11.5 -6h19.5t17.5 2q39 -12 53 -31q8 -12 8 -27q0 -27 -18 -58.5t-59 -43.5q-23 -4 -26 7t-5 27.5t-25 22.5q-27 8 -44 22.5t-21 12.5 q-8 -2 -14.5 -2h-12.5q-16 0 -27.5 2t-35.5 2h-29.5t-44.5 -4q-76 -8 -151.5 -20.5t-147.5 -34.5q-4 -2 -26.5 -13.5t-20.5 -11.5h-2q-10 -4 -19.5 -14.5t-23.5 -12.5q-12 0 -52 -5t-76 -10l-36 -5h-4q-4 8 -8.5 12t-8.5 8q-8 8 -8 29z" />
<glyph unicode="M" horiz-adv-x="1757" d="M-90 -184q0 33 20.5 87t67.5 146q100 195 259 395.5t337 374.5q18 18 45 31.5t45 32.5q10 8 12 12t2 6v2q0 4 3.5 9.5t13.5 13.5q82 72 155.5 141.5t141 114.5t131.5 45q8 0 15 -1t16 -3q20 -2 33.5 -5.5t13.5 -15.5t-25 -47q-49 -66 -87 -163t-65.5 -204.5t-48 -204 t-34.5 -159.5q-6 -31 -7 -37q0 -8 3.5 -11t5.5 -11q2 -6 11 -27t9 -14q74 35 144.5 98t163.5 160.5t235 232.5q14 12 24.5 16.5t18.5 12.5q4 4 10 16t14 19q84 84 160 172t172 170q8 6 15.5 20t15.5 23q4 8 3 17t9 19q8 6 23.5 10.5t23.5 12.5q16 12 43 12q37 0 73 -21.5 t36 -51.5q0 -20 -17 -37q-12 -14 -31.5 -25.5t-33.5 -28.5q-10 -14 -31.5 -25t-30.5 -22q-106 -123 -188 -246.5t-154 -246.5q-63 -113 -115.5 -228.5t-84 -206t-37.5 -128.5q-2 -20 -10.5 -45t-3.5 -29q6 -8 11 -19.5t5 -25.5q0 -29 -31 -49q-4 -2 -10 -2q-14 0 -23.5 12 t-19.5 27q-6 14 -10 24t-4 23q0 12 6 30q2 2 2 6q0 10 -6.5 21.5t-1.5 26.5q10 29 15 75.5t19 79.5q33 70 53.5 133.5t43 126t61.5 121.5l8 28q8 27 15 38l2 2q49 74 69.5 110.5t30.5 59t29 51.5l-8 -8l-3 -4q-137 -131 -220 -212t-131 -130.5t-79.5 -80t-65.5 -58 t-87 -68.5q-14 -10 -28.5 -29.5t-29.5 -30.5v2q-16 -10 -36.5 -25.5t-38.5 -25.5q-8 -4 -30 -10t-44 -6q-25 0 -37 10q-12 16 -17 49t-5 64q0 35 4 55q16 66 24 96.5t11.5 40.5t3.5 13.5v13.5v15t2 28q2 20 10 62t21.5 84t23.5 61q4 4 10 33.5t14.5 66.5t12.5 65.5t2 30.5 q-27 -14 -113 -79.5t-219 -198.5q-18 -18 -39.5 -33.5t-40.5 -34.5q-14 -14 -45 -50t-61.5 -71.5t-44.5 -50.5l-82 -90q-102 -115 -158.5 -190.5t-87.5 -128t-59 -99.5q-12 -16 -12.5 -32.5t-0.5 -34.5v-12.5t-2 -12.5q-6 -18 -5 -53t-3 -51v2q-2 -20 -12.5 -29.5 t-22.5 -9.5t-20 8q-14 14 -24.5 30.5t-10.5 41.5z" />
<glyph unicode="N" horiz-adv-x="1320" d="M-27 -53q0 33 13.5 81t44.5 117q39 88 64.5 142.5t52 97.5t69.5 97.5t117 140.5q10 12 33.5 33.5l47 43t34.5 33.5q10 10 10 15v6q0 6 12 20q70 72 131.5 141.5t120.5 115.5t123 46q8 0 15 -1t16 -3q23 -2 37 -5t14 -17q0 -10 -17 -43q-39 -66 -60.5 -171.5t-31.5 -222 t-12 -220t-2 -167.5v-24q0 -16 2 -20.5t10 -14.5h2q2 -8 15.5 -27.5t11.5 -15.5l30 54q29 54 83.5 143.5t128 195t163.5 207.5q57 66 111.5 143.5t110 154.5t114.5 138q12 12 30.5 36t36 45.5t23.5 32.5t-6 -1q16 23 20.5 29t30.5 30q23 18 56 19q25 0 46 -12.5t21 -34.5 q0 -18 -14 -35q-10 -14 -26.5 -25.5t-24.5 -27.5q-10 -14 -40 -39t-40 -35q-27 -33 -66 -76t-77.5 -83t-63.5 -65.5t-25 -23.5l-73 -104q-113 -131 -180.5 -219.5t-102.5 -147.5t-50 -99t-24.5 -72t-25.5 -67q-4 -8 -24.5 -44t-42 -70.5t-32.5 -40.5q-8 -6 -18 -6 q-6 0 -13.5 2t-17.5 2q-12 0 -18 -4l-24 -9q-23 -8 -50 -8q-20 0 -35 10q-14 16 -25.5 50t-16.5 68t-5 48q8 96 11.5 133t3.5 58q0 23 -9 82q-1 8 -1 24.5t1 40.5q2 49 7.5 109.5t11.5 110t12 63.5q2 2 2 8q0 10 -5 19.5t-9 11.5q-16 -8 -64.5 -52t-115 -114t-140.5 -158 q-12 -18 -31.5 -33.5t-33.5 -33.5q-51 -63 -82 -99.5t-51.5 -59t-37 -47t-38 -65.5t-55.5 -114q-6 -12 -7 -23q0 -16 6.5 -32.5t4.5 -37.5q-2 -18 4 -53t6 -51v-4q0 -20 -9.5 -27.5t-19.5 -7.5q-12 0 -20 8q-25 18 -41.5 42t-16.5 65z" />
<glyph unicode="O" horiz-adv-x="1525" d="M174 317q0 33 4 63t8 50q35 152 128.5 284t238.5 265q16 16 32.5 30.5t32.5 28.5q10 6 20.5 7.5t18.5 1.5q10 0 18.5 1t12.5 5q10 6 13.5 28.5t15.5 32.5q59 43 139 71.5t148 55.5q57 23 140 35t161 12q80 0 131 -12q45 -10 60 -31.5t19.5 -46t10.5 -47.5q2 -6 3 -12 t1 -13q0 -33 -20.5 -59.5t-41.5 -24.5q14 -8 25.5 -20t22.5 -27q16 -20 36.5 -43.5t28.5 -54.5v-2q0 -12 -1 -28.5t-1 -30.5q-2 -4 7 -9.5t11 -19.5q0 -68 -20.5 -146.5t-67.5 -162.5q-59 -106 -134 -182t-147.5 -126.5t-125.5 -85.5h-4q-2 2 -9.5 -5t-11.5 1q-14 -2 -16 0 t-6 -8q-14 -27 -44 -25.5t-50 -9.5q-27 -8 -49.5 -25.5t-51.5 -25.5q-33 -8 -121 -28.5t-190 -20.5q-76 0 -148.5 18.5t-132.5 63.5q-51 43 -72.5 123t-21.5 155zM299 295q0 -49 13.5 -94t29.5 -76q33 -59 101.5 -78.5t138.5 -19.5q49 0 91 7t60 7h2q8 0 27.5 10t41 20.5 t34.5 10.5q16 0 42.5 8t47.5 16q100 37 161.5 88.5t124.5 102.5q16 14 33 26.5t27 20.5q27 35 65.5 78t71.5 106q37 70 48 121t11 103q0 23 3.5 44t3.5 40q0 6 -6.5 28.5t-6.5 30.5q0 6 -9 13t-17 18q-31 57 -80 87.5t-105 30.5q-70 0 -123 -30q-8 -6 -17 -8t-15 -2 q-18 0 -19 14q0 20 48.5 49t166.5 29q41 0 79 -7.5t71 -27.5l-6 12v2q0 10 -13.5 24.5t-13.5 28.5l-25 18q-26 19 -59 19h-2q-18 0 -40.5 4.5t-49.5 4.5q-39 0 -84 -8.5t-96 -30.5q-158 -70 -302.5 -153t-240.5 -191q-12 -16 -15 -22.5t-18 -25.5q-10 -12 -30.5 -34.5 t-28.5 -34.5q-31 -43 -47.5 -93.5t-26.5 -97.5t-24 -77q-12 -27 -17.5 -54.5t-5.5 -56.5z" />
<glyph unicode="P" horiz-adv-x="1400" d="M164 57q0 29 17.5 84.5t66.5 155.5h2q33 43 56.5 89t47.5 83l26 36t63.5 88t74.5 104.5t62 86.5l26 35q4 10 21.5 30.5t17.5 22.5q23 33 29 49.5t14 32t35 45.5q6 8 28.5 39t51 70t52.5 70.5t32 40.5q-45 -2 -89 -7.5t-71 -9.5q-47 -8 -113.5 -34.5t-101.5 -53.5 q-12 -10 -31 -10q-33 0 -32 31q0 14 12 30.5t45 28.5q98 51 179 68.5t144.5 19.5t108.5 2q6 12 13 21.5t18 11.5h-2q27 14 51 14q45 0 55 -39q51 0 97.5 2t91.5 2q4 0 13 1t19 1q80 -4 157 -18t135.5 -41t80.5 -72q14 -27 24.5 -57.5t10.5 -67.5q0 -33 -12.5 -73.5 t-42.5 -87.5h-2q-14 -25 -38 -50.5t-59 -54.5q-4 -4 -8 -15t-16 -20q-10 -8 -23.5 -9t-21.5 -9q-41 -25 -61.5 -49.5t-48.5 -49t-93 -49.5q-31 -16 -79 -34.5t-97 -30.5t-88 -12q-14 0 -54 -10.5t-95.5 -20.5t-119.5 -10q-6 0 -25.5 -6.5t-31.5 -6.5h-51q-41 0 -41 25 q0 14 17.5 26.5t47.5 12.5q16 0 32 -2t32 -2q86 0 154.5 22.5t103.5 30.5q68 14 140.5 49t140 79t120 87t78.5 74q10 10 22.5 18t18.5 17q8 10 8 26l2 4q29 41 32 76t3 70q0 47 -33.5 79.5t-62.5 47.5h2q-33 16 -62.5 18t-39.5 4q-51 10 -81 13.5t-61 3.5q-16 0 -37.5 -1 t-50.5 -3q-6 -16 -35.5 -25.5t-58.5 -36.5q-23 -20 -61.5 -60t-57.5 -63q-16 -23 -49 -67.5t-63.5 -86.5t-44.5 -59q-8 -10 -36 -41.5t-62 -72.5t-58 -84q-20 -35 -58 -88.5t-78 -106.5t-69 -92t-33 -47q-14 -33 -24 -44.5t-17 -33.5q0 -2 -1 -3t-1 -3q0 -12 11.5 -29.5 t17.5 -15.5q10 0 6 -8l-39 -109l-2 -2q-12 -8 -27.5 -21.5t-25.5 -21.5q-18 -8 -30.5 -8h-14.5l-2 2q-4 6 -7 10t-10 8q-6 6 -16 13.5t-10 33.5z" />
<glyph unicode="Q" horiz-adv-x="1554" d="M158 -209q0 45 22 78q16 29 54 46t67 17q18 0 35.5 -9t32.5 -11h2q10 0 23.5 8t27.5 6q90 -16 183 -53t188 -78q16 -8 27 -21.5t26 -17.5q6 -4 18.5 -1t24.5 -1q59 -23 115.5 -42t113.5 -29q35 -6 67 -10.5t58 -4.5q70 0 113 25q12 8 25.5 12t19.5 12q4 4 4 17.5t8 19.5 l30.5 30.5t22.5 14.5t9 -16v-2q0 -4 3 -14.5t3 -22.5q0 -8 -2 -18.5t-11 -22.5q-23 -35 -86 -73t-159 -38q-23 0 -47.5 4.5t-49.5 4.5h-2q-12 4 -24.5 0t-30.5 0q-12 4 -25.5 14t-23.5 12q-104 29 -211 69t-213.5 70.5t-210.5 30.5q-43 0 -57.5 -10t-32.5 -20 q-25 -10 -39 -19.5t-25 -9.5q-6 0 -16 6q-4 4 -22.5 3t-28.5 13q-6 12 -6 31zM197 317q0 33 4 63t8 50q35 152 128 284t238 265q16 16 33 30.5t33 28.5q10 6 20.5 7.5t18.5 1.5q10 0 18.5 1t12.5 5q10 6 13 28.5t15 32.5q59 43 139 71.5t148 55.5q57 23 140 35t161 12 q80 0 131 -12q45 -10 60.5 -31.5t19.5 -46t10 -47.5q2 -6 3 -12t1 -13q0 -33 -20.5 -59.5t-40.5 -24.5q14 -8 25.5 -20t21.5 -27q16 -20 36.5 -43.5t29.5 -54.5v-2q0 -12 -1 -28.5t-1 -30.5q-2 -4 7 -9.5t11 -19.5q0 -68 -20.5 -146.5t-67.5 -162.5q-59 -106 -134 -182 t-147.5 -126.5t-126.5 -85.5h-4q-2 2 -9 -5t-11 1q-14 -2 -16.5 0t-6.5 -8q-14 -27 -43.5 -25.5t-50.5 -9.5q-27 -8 -49.5 -25.5t-50.5 -25.5q-33 -8 -121.5 -28.5t-190.5 -20.5q-76 0 -148.5 18.5t-131.5 63.5q-51 43 -72.5 123t-21.5 155zM322 295q0 -49 13 -94t30 -76 q33 -59 101 -78.5t138 -19.5q49 0 91 6t61 8h2q8 0 27.5 10t41 20.5t33.5 10.5q16 0 43 8t47 16q100 37 162 88.5t125 102.5q16 14 32.5 26.5t26.5 20.5q27 35 66 78t72 106q37 70 48 121t11 103q0 23 3 44t3 40q0 6 -6 28.5t-6 30.5q0 6 -9.5 13t-17.5 18q-31 57 -80 87.5 t-104 30.5q-70 0 -123 -30q-8 -6 -17.5 -8t-15.5 -2q-18 0 -18 14q0 20 48 49t167 29q41 0 79 -7.5t70 -27.5l-6 12v2q0 10 -13 24.5t-13 28.5l-26 16q-26 15 -58 21h-2q-18 4 -41 6.5t-50 2.5q-39 0 -84 -8.5t-96 -30.5q-158 -70 -302 -153t-240 -191q-12 -16 -15.5 -22.5 t-17.5 -25.5q-10 -12 -30.5 -34.5t-29.5 -34.5q-31 -43 -47 -93.5t-26.5 -97.5t-24.5 -77q-12 -27 -17 -54.5t-5 -56.5z" />
<glyph unicode="R" horiz-adv-x="1626" d="M131 -299q2 23 15.5 87.5t48.5 135.5q16 33 41.5 81t54 100.5t53.5 94.5t37 62q31 47 72 109.5t75 113.5q-28 28 -28 62q0 49 41 85t73 36q14 0 23 -6v-3l3 -5t9 -9q20 23 35 43l16 19q27 37 66 84t80 94t69 80q8 10 21.5 33.5t28 47t24.5 33.5q16 14 37 37t39 31 q35 16 82 30.5t82 14.5q18 0 30.5 -16.5t18.5 -24.5q-8 -25 -27.5 -77t-52.5 -83q-29 -25 -71 -48t-58 -50q-16 -25 -55 -54.5t-76 -54t-51 -39.5q-8 -12 -36 -45.5t-59.5 -74.5t-56.5 -72l49 -55q94 0 164 13t115 15q117 4 226.5 52.5t199.5 117t145 131.5t76 111 q17 39 17 105q0 15 -1 32q-4 109 -137 166t-344 68h-17q-46 -1 -116 -9q-84 -10 -179 -34.5t-181 -65.5t-140.5 -98.5t-54.5 -132.5q0 -27 16.5 -39t32 -18.5t15.5 -14.5q0 -6 -25 -23q-16 -14 -47 -23t-41 -9q-47 0 -85 3t-54 29v3q0 49 1 65t6 20.5t14 13.5t26 40 q4 8 19.5 25.5t29.5 34t16 18.5q80 72 184.5 122t214 81.5t209 47t173.5 15.5q96 0 205.5 -25.5t207 -73t158.5 -114t61 -146.5q0 -63 -49 -136.5t-164 -151.5q-12 -8 -26.5 -10.5t-24.5 -10.5l-90 -51q-47 -27 -88 -47.5t-89 -39.5t-120 -48q-14 -6 -43 -15.5t-57.5 -18.5 t-42 -15t3.5 -6h2q-33 -14 -65.5 -16.5t-71.5 -8.5l-37 -4q-37 -4 -76 -14q16 -18 30 -34l13 -16q23 -33 93.5 -104.5t150.5 -155.5q12 -12 13 -21t5 -16q10 -2 23.5 -8t17.5 -16q20 -16 65.5 -50t94.5 -68t80 -52h-2q27 -10 36 -20.5t9 -18.5q0 -10 -11.5 -16.5t-19.5 -4.5 q-20 0 -65.5 23t-99.5 55.5t-106.5 67.5l-88.5 59q-35 25 -81 65t-90 82l-77 73.5t-43 43.5q-4 8 -34 30t-68.5 51.5t-75.5 56.5q-59 -78 -78 -115t-29 -57q-20 -27 -61 -55.5t-51 -51.5t-29 -53.5t-35 -58t-20 -43.5q-6 -18 -37 -63.5t-54 -129.5q-16 -70 -37.5 -98.5 t-37.5 -28.5q-25 0 -25 41zM1278 1151q6 20 6 4v-2q0 -12 -6 -2z" />
<glyph unicode="S" horiz-adv-x="1400" d="M328 -94q0 29 28.5 59.5t79.5 44.5q16 0 10 -14t-17 -31.5t-11 -30.5q0 -14 20 -14q6 0 13.5 1t15.5 3q27 6 73 11.5t91 10.5t71 11q47 12 91.5 35.5t78.5 38.5q6 2 17 2q10 0 17 -1t16 5q20 10 37.5 22.5t31.5 26.5q25 23 41.5 47.5t16.5 50.5q0 29 -19 56 q-20 39 -96 74.5t-172 68.5q-18 6 -31.5 19.5t-30.5 17.5q-6 2 -11 3t-11 1q-14 0 -28.5 -2t-31.5 -2q-29 0 -55 20.5t-49 26.5q-160 57 -160 164q0 61 45 133v-2q8 10 23.5 10t19.5 8q10 16 13.5 40t9.5 34q29 37 61 74q76 82 168 157.5t184.5 132t168.5 80.5 q82 29 198.5 58.5t222.5 29.5q94 0 165 -34.5t85 -128.5q4 -14 4 -26.5v-25.5q0 -84 -40 -150.5t-88 -114.5t-74 -83q-10 -14 -20.5 -21t-29.5 -24q-8 -8 -26.5 -21.5t-30.5 -23.5t-43 -34.5t-43 -28.5q-6 -2 -18 -2q-20 0 -36 13t-16 34q0 14 9.5 33.5t31.5 39.5l5 3 q-2 0 29.5 7t60.5 29q10 10 28.5 32t40.5 48q4 4 12.5 22.5t16.5 26.5q25 33 40 77t40 85v-2q8 16 8 35q0 33 -13.5 74t-36 70.5t-50.5 25.5q-86 -10 -184.5 -23.5t-168.5 -37.5q-57 -20 -117.5 -53t-119.5 -74q-14 -10 -27.5 -12.5t-25.5 -12.5q-14 -12 -28.5 -31.5 t-31.5 -29.5q-106 -92 -175 -190.5t-69 -178.5q0 -51 33 -89t105 -59q72 -18 154.5 -48.5t160.5 -66.5t134.5 -74t70.5 -73q12 -27 12 -53q0 -61 -55 -116.5t-143.5 -100.5t-190.5 -78t-200.5 -51.5t-170.5 -18.5q-39 0 -67 7q-47 12 -47 49z" />
<glyph unicode="T" horiz-adv-x="1386" d="M348 1016q0 57 54.5 104t109.5 74q61 31 179 50.5t263.5 29.5t293 14t270.5 4h97t79 -2q147 -4 211 -33q57 -27 78.5 -61.5t21.5 -67.5q0 -25 -8 -41q-23 -49 -37 -49t-23.5 24.5t-19.5 45.5q-39 76 -113.5 92.5t-163.5 18.5q-123 4 -245.5 7t-231.5 3q-45 0 -90 -8.5 t-76 -12.5q-76 -6 -130 -12t-98 -16.5t-89 -31t-102 -56.5q-8 -6 -30 -29t-50.5 -50.5t-57 -48t-51.5 -20.5q-16 0 -24 14h2q-18 31 -19 58zM528 57q0 29 17.5 84.5t66.5 155.5h2q33 41 55.5 88t47.5 80q4 6 29.5 43t61.5 88t73 101.5t62.5 86t27.5 39.5q4 4 21 27l18 22 q25 31 31 47.5t13 33t33 46.5q8 10 33 39t49.5 57.5t32.5 37.5q10 8 7 22t18 27q29 12 58.5 21t53.5 9q23 0 37.5 -9t14.5 -32v-2q0 -27 -4.5 -43t-45.5 -53q-25 -20 -62.5 -61t-55.5 -64q-25 -33 -56.5 -68.5t-52.5 -58.5q-18 -20 -39.5 -33.5t-38.5 -29.5 q-51 -63 -105 -139t-100.5 -148t-76 -122t-33.5 -60q-14 -33 -25.5 -44.5t-15.5 -33.5q-4 -8 -11 -32.5t-11.5 -44t-0.5 -15.5q10 -8 17.5 -43t3.5 -45q-10 -8 -18.5 -20.5t-20.5 -18.5q-17 -8 -37 -8q-18 0 -31 8q-4 6 -7 10t-9 8q-6 6 -16.5 13.5t-10.5 33.5z" />
<glyph unicode="U" horiz-adv-x="1267" d="M94 -4q0 20 6 45q16 59 45 148.5t71 188.5t95 187q23 37 57.5 91.5t70.5 110.5t67 102t45 69q23 31 26 48.5t9 35.5q10 33 33.5 44t44.5 19q43 16 83.5 34t71.5 22q31 -4 43 -18.5t14.5 -21.5t2.5 9v2q2 -8 2 -20q0 -20 -13.5 -40t-44 -51.5t-86.5 -93.5 q-14 -14 -32.5 -21t-32.5 -24q-57 -61 -120 -142t-113 -152.5t-74 -106.5h2q-45 -70 -71 -142.5t-44 -132.5q-6 -20 -9 -54t-3 -54.5t0 -5.5q0 -8 22.5 -8.5t30.5 -2.5q0 -2 14.5 6.5t26.5 16.5t2 8h-2q61 23 136 81t140 110q8 8 23.5 26.5t32 38t22.5 27.5q12 10 19.5 23.5 t19.5 21.5v-2q37 31 99.5 93t135 137t139 147.5t111.5 126.5q96 115 137.5 188.5t61.5 91.5q37 35 80 35q29 0 51.5 -17.5t30.5 -52.5q10 -37 -16.5 -54t-40.5 -36q-16 -23 -95.5 -105.5t-169.5 -215.5q-20 -31 -43.5 -77t-45 -94t-39 -86t-23.5 -53q-8 -18 -23.5 -40.5 t-22.5 -34t5 1.5l2 2q0 -4 -11.5 -37t-24.5 -76t-24.5 -77.5t-13.5 -43.5q-8 -37 -11 -92t-3 -101t-4 -57q-14 -63 -43 -63q-18 0 -31 29l2 -2q-8 11 -10 45q-1 17 -1 35.5t1 37.5q8 94 16 202t45 183q55 115 74.5 187.5t50.5 126.5q-31 -27 -74 -71t-89 -92t-88 -90 t-72 -69q-4 -4 -20.5 -22.5l-33 -37t-22.5 -24.5q-8 -8 -34 -34.5t-36 -34.5q-57 -47 -94 -81t-72 -61.5t-88 -60.5q-4 -2 -8 -9.5t-12 -11.5l2 2q2 2 2 5q0 2 -15.5 -5.5t-19.5 -11.5h-2q-18 -8 -33.5 -17t-32.5 -16q-14 -6 -29.5 -10t-29.5 -4q-33 0 -55.5 19.5 t-22.5 60.5z" />
<glyph unicode="V" horiz-adv-x="1048" d="M219 43q0 18 2 33.5t4 23.5q16 66 24.5 96.5t11.5 41t3 13.5v13v16.5t2 26.5q2 23 15.5 64l27 82t13.5 59v2l86 246q10 47 33.5 100t23.5 117q0 29 -4 47l-10 45q-2 18 -9.5 32.5t-7.5 33.5q0 10 2 16q10 29 35 42t53 13h13.5t13.5 -2q23 -4 32 -21.5t27 -25.5t19 -67 q0 -43 -8.5 -98.5t-21.5 -112t-28.5 -101.5t-29.5 -65q-61 -88 -96 -189.5t-55.5 -200t-41.5 -184.5q-6 -31 -6 -37q0 -8 3 -11t5 -11q0 -4 9.5 -20.5t11.5 -20.5q92 90 165.5 175t144.5 170t152.5 176t188.5 192q10 10 34.5 28.5t35.5 28.5q4 4 11 16.5t15 18.5 q156 141 284 235.5t227.5 159t168.5 111.5q45 31 92 50t74 19q23 0 23 -14q0 -10 -15 -31q-10 -8 -35.5 -24.5t-51 -31.5t-34.5 -26q-8 -10 -33.5 -23.5t-51 -25.5t-33.5 -18q-39 -33 -110 -83t-152.5 -107.5t-156.5 -114t-122 -103.5q-135 -131 -225 -228t-150.5 -168 t-104.5 -123t-86 -95t-96 -84q-8 -6 -28.5 -35t-41 -58.5t-30.5 -37.5v2q-14 -10 -35.5 -24.5t-40.5 -24.5q-8 -4 -29 -12.5t-44 -8.5t-35 12q-14 14 -20.5 47t-6.5 64z" />
<glyph unicode="W" horiz-adv-x="1916" d="M205 -70q0 35 4 56q16 66 24.5 96.5t11.5 40.5t3 13v14v16t2 27q0 14 13 59t31.5 104.5t39 120t37 104.5t22.5 56q8 8 12.5 34.5t9.5 52.5t13 30h-6q10 47 34.5 100t24.5 117q0 29 -4 47t-10 43q-2 16 -9 32.5t-7 32.5q0 10 2 17q10 29 34.5 44t53.5 15q10 0 26 -4 q23 -4 32 -22.5t26 -24.5q18 -6 18 -53t-16.5 -118t-37 -136.5t-32.5 -93.5q-35 -80 -68.5 -178.5t-64.5 -200t-54.5 -192.5t-37.5 -154q-2 -10 -3 -18.5t-1 -12.5q0 -8 2 -13.5t4 -15.5q-2 -14 10 -14q20 0 51 33q39 43 102.5 122.5t139.5 176t154.5 192.5t150.5 175 t127 120q14 10 28.5 29.5t28.5 29.5v-2q16 10 37 24.5t39 25.5q12 4 55 20t76 16q18 0 27 -8q14 -16 14 -53q0 -31 -6 -61.5t-8 -45.5q-8 -49 -20.5 -95t-34.5 -107q-10 -27 -17.5 -76t-23.5 -115q-2 -10 -12.5 -40.5t-22.5 -62.5t-21 -48q-8 -10 -15 -33t-1 -31 q2 -6 11 -26.5t9 -14.5q53 27 133 96.5t175.5 167t201 205t211.5 209.5q14 10 24.5 14.5t18.5 12.5q4 4 11.5 17t15.5 20q33 33 90 89t126 122.5t140.5 130t134 113.5t105.5 73t71.5 32t45.5 9q31 0 30 -23q0 -14 -12 -28.5t-29 -18.5q-16 -4 -54 -16t-50 -29 q-8 -10 -28.5 -23.5t-41 -25.5t-28.5 -18q-51 -41 -127 -116t-156 -156t-143 -142q-168 -166 -282 -278.5t-193.5 -188.5t-142 -132t-130.5 -108q-14 -10 -27.5 -29.5t-29.5 -29.5v2q-14 -10 -36 -25.5t-40 -25.5q-8 -4 -29.5 -11.5t-42.5 -7.5q-25 0 -37 13q-14 14 -20 47 t-6 63q0 18 2 34t4 24q27 111 51.5 195.5t47 162.5t42.5 162q6 29 6 35q0 8 -2 11t-6 11q-2 8 -12 28.5t-10 12.5q-43 -20 -96.5 -69.5t-110.5 -113t-111.5 -130t-98.5 -122.5t-73 -91q-6 -6 -31.5 -39t-59.5 -75t-60.5 -74.5t-32.5 -38.5q-2 -4 -10 -23.5t-15.5 -40 t-13.5 -27.5q-14 -10 -28.5 -29.5t-28.5 -29.5q-16 -8 -37 -22.5t-41 -24.5q-8 -4 -29.5 -11.5t-44.5 -7.5q-25 0 -35 11q-12 16 -17 49t-5 63z" />
<glyph unicode="X" horiz-adv-x="1366" d="M-139 -262q0 18 33 51q57 63 120.5 125.5t130.5 124.5q16 14 42 17t34 12q14 10 14.5 31.5t16.5 35.5q137 121 274.5 232.5t268.5 212.5q10 72 18 137t10 112q2 20 2 54.5v52.5q6 53 18.5 91t12.5 75q0 55 -22.5 92t-42.5 47h2q-23 14 -60 14q-70 0 -161 -54t-177 -144 q-8 -8 -26 -8q-8 0 -17.5 4t-9.5 12q0 10 14 27q51 57 124 109t156 87t159 35q47 0 90 -16.5t76 -53.5q22 -24 22 -92v-6q0 -72 -16.5 -173t-30.5 -204q-4 -27 -6 -51.5t-6 -48.5q207 156 369.5 271.5t244.5 178.5q12 6 9 30t14 38q29 20 56.5 52t47.5 48q20 18 36.5 25.5 t31.5 7.5q23 0 40 -11t31 -22q10 -6 25.5 -17t15.5 -30q0 -20 -26 -41l-86 -67q-66 -49 -191 -131t-285.5 -189.5t-341.5 -236.5l-6 -92q-2 -12 -10 -24.5t-8 -35.5v-108q0 -24 -1 -46q0 -66 5 -119q6 -71 8 -96q4 -41 18.5 -58t36.5 -17q16 0 37 7t45 17q61 29 129 80 t113 96q8 14 22.5 22.5t22.5 8.5q10 0 10 -10q0 -14 -24 -45h2q-43 -66 -115 -126.5t-149.5 -99t-145.5 -38.5q-51 0 -86 33.5t-35 91.5q0 14 -12 28.5t-8 57.5q4 35 0 53t-4 61t7 113t15 147q-127 -94 -254 -196.5t-245 -210.5q-20 -20 -38 -42t-38 -40q-8 -8 -17.5 -11 t-13.5 -8q-41 -39 -80 -78.5t-76 -80.5q-39 -45 -78.5 -69.5t-62.5 -24.5q-18 0 -18 14z" />
<glyph unicode="Y" horiz-adv-x="888" d="M-78 -518q0 25 8.5 57.5t30.5 71.5q27 137 58.5 210t58.5 122q35 59 72.5 117.5t76.5 113.5q29 39 56.5 83t35.5 58q14 23 35 52.5t40.5 55.5t27.5 32l4 6q4 6 4 8q0 23 -3 40t-3 26q-8 84 -18.5 135t-22.5 88t-22.5 78t-18.5 104q0 25 -10 57.5t-21.5 59t-17.5 30.5 l-2 5q0 4 -13.5 21t-37.5 7q-6 -2 -17 -2q-23 0 -22 21q0 16 11 37.5t17 29.5q10 16 30 33.5t34 32.5q16 16 28.5 21t22.5 5t21.5 -2t19.5 -2h2q37 0 50.5 -34.5t23.5 -102.5q8 -47 19.5 -91t11.5 -110q0 -31 10 -79t16 -113q0 -14 6 -59.5t15 -67.5v-55q16 6 24 6 q43 47 85 89t40 44l2 4q35 39 96.5 99.5t136 123t146.5 105.5h2q2 0 24.5 21.5t46 45t27.5 25.5l5 2q4 0 20 17.5t37.5 39t34.5 29.5v2q27 16 35 19t21 13.5t48 45.5l2 2q4 -2 15.5 9t9.5 13l2 4q10 6 15 5.5t7 1.5q23 29 48.5 40t50.5 11q27 0 49 -10.5t37 -20.5 q4 -2 5 -13.5t-18.5 -33t-76.5 -59.5q-23 -14 -40.5 -32t-51 -42.5t-105.5 -67.5h-2q-16 -8 -38 -38.5t-44 -47.5q-23 -12 -58.5 -33.5t-58.5 -35.5l-104 -76q-61 -45 -127 -103.5t-125.5 -118t-105.5 -107.5t-68 -71q-8 -8 -15.5 -13t-19.5 -15q0 -8 2 -17l2 -8v2 q12 -20 16.5 -32.5t4.5 -22.5q0 -14 -7 -39v2q-2 -12 -18 -12q-14 0 -36.5 11t-37.5 17l-2 3h-2q-25 -33 -51.5 -69t-48.5 -58l-2 -2q0 2 -20.5 -27t-47 -69t-49.5 -74h-2q-8 -10 -43 -55.5t-94 -166.5q-45 -94 -51.5 -153.5t-10.5 -69.5q6 6 32 23.5t58.5 38t61.5 33 t41 8.5q18 -8 18 -23q0 -14 -21.5 -27.5t-33.5 -17.5l-21 -16l-40 -30l-19 -16l-10 -18q-10 -18 -25 -27q-8 -8 -25.5 -33.5t-40 -54t-48.5 -45.5h-2q-10 0 -30 5.5t-24 17.5v-4l-2 17q-2 18 -2 30z" />
<glyph unicode="Z" horiz-adv-x="1185" d="M18 -57v-2q-4 14 14.5 44.5t51.5 61.5t72 43q43 53 89 102.5t64 69.5q53 45 97.5 91t82.5 79l410 354q4 8 18.5 19.5t27.5 22.5l13 10q39 33 53.5 49t29 31.5t53.5 46.5q10 6 38.5 31.5t63.5 57t62.5 56.5t33.5 31l56 51q-20 4 -44 11t-44 7h-3q-59 0 -117.5 14.5 t-111.5 14.5q-20 0 -45 -7t-41 -7t-63.5 -5.5t-93.5 -10.5t-62 -5q-72 -12 -105.5 -26.5t-45 -29.5t-14.5 -29.5t-15 -24.5q-14 -12 -29.5 -48t-27 -67t-17.5 -31l-2 2v-8q-2 -4 -5 -27.5t-5 -31.5q6 -14 15 -15.5t22 -11.5q12 -14 21 -30.5t9 -28.5q0 -10 -10 -15 q-14 0 -24.5 5.5t-18.5 5.5h-2q-16 10 -37.5 38.5t-30.5 49.5q-14 35 -26.5 56t-12.5 79q0 70 45.5 127t86.5 86q14 8 59 18t105.5 19.5t122 16.5t106.5 9q31 2 58.5 3t53.5 1q88 0 150.5 -8t120.5 -22q23 -2 59.5 -10.5t69.5 -18.5q6 6 13 11l7 5q16 12 40 19.5t18 7.5h-2 q31 14 59 14q43 0 43 -29q0 -6 -2 -12v-4q0 -14 -11.5 -27.5t-4.5 -19.5q4 -2 26.5 -9t30.5 -13v2q18 -12 20 -28l2 -17q-4 -6 -20 -7.5t-37 -1.5h-33q-18 0 -34.5 -1t-22.5 -7v2q-33 -20 -76 -57t-72 -59q-39 -33 -98 -75t-125 -102q-31 -27 -76 -58.5t-82.5 -57 t-52.5 -33.5q-76 -66 -159.5 -136.5t-156.5 -133t-122 -105.5t-59 -53q-27 -31 -43.5 -43t-32.5 -35h2l-12 -24q-11 -25 -45 -58q4 0 9 -1t7 -1q23 0 37 6t22 6q2 0 19.5 -2t38 -5t24.5 -3q10 2 16.5 3t10.5 1q10 0 16 -2t17 -2q10 0 24.5 2t40.5 10h2q109 0 203 7.5 t174 7.5q29 0 72 -2t77.5 -4t34.5 -4t-20 -3h-2q-6 0 -6 -2t19.5 -9t25.5 -5l33 -2h2q41 -16 57 -37q10 -14 10 -37q0 -25 -15.5 -51t-51.5 -35q-23 -2 -28 10.5t-8 29t-26 24.5q-27 10 -47 27.5t-25 15.5q-31 0 -44 4t-35.5 7t-83.5 3q-33 0 -78 -1t-89 -3t-73 -4t-29 -4 h29q-6 -2 -13 -3t-18 -1q-14 0 -30.5 1t-32.5 1h-19.5t-19.5 -4q-53 -14 -79 -17.5t-45 -5.5t-58 -16h-2q-4 0 -19.5 -6t-30.5 -12l-14 -7q-12 -4 -27.5 -15t-27.5 -11q-10 0 -38 -3.5t-58.5 -8.5t-42.5 -7l-33 -4q-6 0 -6 8q2 2 -3.5 14.5t-5.5 2.5zM467 942q2 4 2 0v-2z " />
<glyph unicode="[" horiz-adv-x="575" d="M184 270l2 -2q2 12 3 24.5t1 26.5q0 29 -2 58t0 51l41 453v6q0 12 4.5 26.5t4.5 16.5q2 31 -2.5 45t-4.5 31q0 16 9 38q0 6 3 40t7 77t6 77t2 42v24q0 23 3 49.5t7 37.5q2 10 12.5 15t14.5 5h-2q10 8 26 8q10 6 29 2q10 -2 16.5 -2h12.5q16 0 28.5 2t26.5 2h12.5t14.5 -2 q35 -4 66.5 -24.5t62.5 -20.5q66 0 65 -37q0 -14 -16 -28.5t-47 -16.5h-62.5t-64.5 4v-4q0 -14 -10.5 -25.5t-16.5 -23.5t-17 -52t-20.5 -81t-11.5 -55q-2 -18 -8 -59.5t-11.5 -79t-9.5 -52.5q-2 -6 -8 -32.5t-15 -58.5t-16.5 -57.5t-11.5 -29.5q-6 -59 -11 -132t-7 -139.5 t-2 -113.5v-55q8 -47 10 -76t2 -51v-24.5t-2 -26.5q37 -2 57.5 -11.5t57.5 -9.5q43 0 76.5 -4t68.5 -10q57 -12 57 -49q0 -16 -16 -27.5t-49 -5.5q-31 6 -65.5 -10.5t-71.5 -16.5q-39 0 -54.5 8.5t-56.5 8.5q-27 0 -43 16q-8 -2 -14 2q-14 12 -18.5 38t-5.5 55.5t-11 51.5 q-8 49 -14.5 96.5t-10.5 67.5z" />
<glyph unicode="\" horiz-adv-x="915" d="M33 1294q0 25 37 64q25 47 80 47q23 0 40 -8h-4q8 0 21.5 -5.5t19.5 -15.5q10 -10 22.5 -34.5t23 -46t10.5 -23.5q2 -6 18 -41t38.5 -79t41 -79t22.5 -43q23 -27 27 -41t7 -28.5t18 -45.5q-2 -2 12 -20t14 -29l23 -45q24 -45 59 -112.5l70 -135t59 -113.5l25 -46 q16 -33 29.5 -76t35.5 -84l2 2q4 -20 16.5 -67.5t20.5 -96.5q-2 -27 12.5 -61.5t14.5 -61.5q0 -14 -8 -22q-6 -6 -33 0t-37 30q-29 59 -44 91t-26.5 66t-27.5 99q-2 8 -21.5 55.5t-50.5 114t-65.5 139t-67.5 132.5q-6 4 -25.5 29.5t-43 57.5t-42 58.5t-22.5 32.5 q-10 14 -32.5 52t-45.5 79t-35 59q-8 14 -35.5 55.5t-56.5 81.5t-41 52q-14 14 -34.5 27.5t-20.5 35.5z" />
<glyph unicode="]" horiz-adv-x="808" d="M84 -20q0 16 16.5 32.5t49.5 22.5q37 6 70.5 10t76.5 4q37 0 59.5 9.5t59.5 11.5q4 41 12 73.5t29 104.5q4 8 11 55t17.5 113.5t18.5 139.5t12 132q-4 6 -7 42t-6 77t-5 65.5t-2 6.5q0 20 2 56t3 70.5t1 51.5q0 14 -1 55t-4 81t-10 52q-4 12 -12 24.5t-4 28.5 q-37 -4 -65.5 -4h-63.5q-27 2 -40 13.5t-13 25.5q0 16 18.5 29.5t50.5 13.5q31 0 67 20.5t71 24.5q8 2 15 2h11q16 0 27.5 -2t28.5 -2h13t15 2q4 0 7 1t5 1q8 0 17 -4q14 0 24 -8h-2q6 0 14.5 -5t8.5 -15q4 -10 1 -35t-6 -46.5t-3 -23.5q-2 -6 -5 -41t-7.5 -79t-7.5 -78.5 t-3 -43.5q4 -27 0 -41t-10 -28t-8 -45q-2 -2 -1 -10.5t1 -18.5q0 -16 -2 -20l-41 -453q-2 -33 -13.5 -76t-11.5 -84l2 2q-8 -20 -22.5 -67t-32.5 -97q-18 -33 -25.5 -79.5t-33.5 -65.5q-8 -4 -15 -2q-23 -16 -47 -16q-41 0 -57.5 -8.5t-55.5 -8.5q-37 0 -68.5 16.5 t-64.5 10.5q-6 -2 -18 -2q-20 0 -30.5 9t-10.5 20z" />
<glyph unicode="^" horiz-adv-x="684" d="M35 891q0 14 12 35.5t41 42.5q4 4 33 21.5t61.5 37t44.5 27.5q39 20 77 51t71 47q20 12 35.5 12t40.5 15q29 18 43 18q16 0 24 -15.5t17 -39.5q6 -20 10 -21.5t14 -1.5t29 -22q6 -4 18 -25.5t23 -44.5q4 -12 24.5 -19.5t26.5 -11.5q14 -12 14 -26q0 -27 -38 -57.5 t-70 -34.5q-14 -2 -38 11t-30 21q-27 33 -42 54.5t-26.5 46t-27.5 61.5q-8 18 -15.5 28.5t-19.5 2.5q-29 -18 -55.5 -32.5t-63.5 -41.5q-20 -14 -25 -23.5t-28 -25.5q-25 -18 -67 -42t-58 -34q-8 -8 -21.5 -20.5t-21.5 -12.5q-12 0 -12 19z" />
<glyph unicode="_" horiz-adv-x="1339" d="M31 -174v-2q-4 23 15.5 54.5t47 60t47.5 36.5q16 4 41 5q39 0 98.5 -3.5t120.5 -1.5q66 2 165.5 4.5t209 3.5t212 2t177 1h101.5h4q14 0 26.5 -10.5t12.5 -22.5q0 -16 -33 -30.5t-123 -10.5q-61 4 -131 -3t-115 -18q-4 0 -50 -3t-116.5 -6t-148.5 -7t-148.5 -7t-115.5 -5 t-49 -4q-20 -4 -25.5 -14.5t-28.5 -18.5q-20 -8 -55 -11t-51 -8q-6 -2 -13.5 -2h-17.5q-20 0 -36.5 5.5t-20.5 15.5z" />
<glyph unicode="`" horiz-adv-x="387" d="M0 1147q0 33 13.5 57.5t33.5 7.5q33 -20 78 -65t104.5 -96.5t128.5 -87.5q25 -14 27 -26.5t-2 -18.5q-10 -17 -37 -17q-14 0 -37 6q-2 2 -30.5 19.5t-70.5 43t-84 51.5t-70 43l-29 17q-14 10 -19.5 27.5t-5.5 38.5z" />
<glyph unicode="a" horiz-adv-x="860" d="M-35 35q0 8 1 16t3 17q16 68 55 159.5t104 196t161 205.5q72 74 153.5 105.5t173.5 31.5h2q70 0 92.5 -36t22.5 -73q0 -43 -12 -67l-2 -2q-8 -8 -21 -8q-10 0 -19 8t-9 22q0 20 -7.5 34.5t-17.5 25.5q-2 4 -10 5t-19 1h-2q-6 0 -12 3t-12 3q-78 0 -193 -109 q-117 -115 -174 -198.5t-78.5 -144t-31.5 -107.5q-2 -16 10 -17q23 0 56.5 20.5t70.5 49.5t71.5 58.5t55.5 48.5q10 10 19.5 14t15.5 10q10 8 15 16.5t13 14.5q74 63 119 101t70.5 60.5t44.5 39.5q26 26 57 26h2q47 0 60 -51q8 -29 -14.5 -40t-33.5 -25q-16 -20 -34.5 -60.5 t-48.5 -95.5q-18 -35 -32 -77t-9 -62l34 22q27 12 57.5 21.5t51.5 23.5q14 8 24 8q16 0 17 -14q0 -16 -25 -33q-59 -43 -94 -60.5t-74 -55.5q-8 -8 -33.5 -38t-35.5 -36q-8 -4 -17.5 -5t-17.5 -1q-29 0 -35 6q-4 4 -11 7t-11 13q-4 16 -5 29q0 37 19.5 87t52.5 112 q27 51 39 79.5t18.5 48t14.5 38.5q-29 -27 -59.5 -55.5t-71.5 -63.5q-6 -4 -16.5 -11.5t-14.5 -9.5l-55 -51q-57 -45 -102.5 -84t-92.5 -73.5t-112 -71.5q-25 -11 -43 -11q-25 0 -41.5 14.5t-16.5 45.5z" />
<glyph unicode="b" horiz-adv-x="1030" d="M-8 51q0 16 7 43t21 66v-2q2 10 7.5 16t5.5 10q0 12 15 26.5t13 16.5v2q6 10 17.5 34t17.5 34q23 47 45.5 94t40.5 82l191 356v-2q2 8 9 15.5t9 9.5q29 47 36 82t40 80h-2q6 10 23.5 36.5l35 53t25.5 37.5q23 23 79 46t101 23q25 0 41 -10t18 -35q0 -33 -18 -52 t-46 -38.5t-58 -52.5q-27 -27 -82.5 -111t-126.5 -190q-70 -102 -108 -163.5t-55.5 -93.5t-25.5 -48q-6 -12 -8 -21.5t-4 -15.5q35 29 79 65.5t95 69.5q55 53 152.5 113.5t203.5 91.5q41 12 75 19t61 7q47 0 79 -24q63 -45 64 -141q0 -27 -6 -62q-20 -59 -73.5 -143 t-113.5 -144q-6 -6 -7 -15t-13 -23q-8 -10 -27.5 -22.5t-27.5 -16.5q-51 -45 -134 -99.5t-210 -83.5h-2q-27 -4 -59.5 -8t-67.5 -4q-47 0 -89 11.5t-68 41.5q-24 28 -24 78v8h-2q-10 -14 -11 -14t-11 -16q-8 -12 -16.5 -21.5t-14.5 -19.5q-8 -14 -23.5 -10.5t-15.5 -0.5 q-10 -12 -18 -12t-13.5 9.5t-7.5 4.5q-18 4 -18 33zM225 143q6 -47 36 -63.5t67 -16.5q25 0 49 5.5t43 9.5q70 18 127 40.5t94 47.5q16 12 36.5 20.5t31.5 18.5q8 8 17 19.5t17 17.5q20 20 34 34.5t30 32.5q43 47 90 104.5t64 92.5q16 33 16 69q0 27 -7 47.5t-24 28.5 q-18 12 -37 13q-18 0 -41.5 -7.5t-56.5 -17.5q-66 -20 -130.5 -45t-115.5 -55v2q-8 -8 -15 -15.5t-18 -9.5h3q-18 -8 -33 -23.5t-33 -29.5q-12 -8 -24.5 -16.5t-24.5 -18.5q-39 -33 -94.5 -83t-89.5 -99q-2 -2 -5.5 -25.5t-4.5 -47t-1 -30.5z" />
<glyph unicode="c" horiz-adv-x="688" d="M16 158q0 92 62.5 214t167.5 240q74 84 149.5 131.5t136.5 53.5q5 1 11 1q28 0 57 -18q35 -20 49 -20h2q57 0 78 -38t21 -73q0 -31 -15 -59q-14 -20 -45 -21q-39 0 -51 23q-14 33 -53 51.5t-74 18.5t-75 -31t-81 -74q-125 -129 -173 -240.5t-48 -175.5q0 -8 1 -15t1 -13 v-2q0 -14 26.5 -29.5t59.5 -11.5q55 6 92 18t95 45q2 0 20.5 10.5t37.5 21.5t21 11q23 12 26 12t11.5 5.5l42.5 27.5q37 25 58 25q14 0 14 -10q0 -8 -13.5 -24.5t-45.5 -39.5q-41 -27 -67 -41t-46 -27.5t-45 -37.5l-2 -3q-4 0 -21.5 -8t-34 -15t-18.5 -9q-8 -6 -42 -21.5 t-71 -28t-55 -12.5q-6 0 -25.5 9.5t-39 18.5t-29.5 9h-2q-27 0 -38 17.5t-15 42t-8 40.5q-6 25 -7 52z" />
<glyph unicode="d" horiz-adv-x="882" d="M-35 37q0 6 1 14t3 17q18 68 56 159.5t103 196t161 205.5q29 29 81 54.5t101 45t70.5 30.5t-11.5 11h-2q6 2 14.5 5t16.5 3q16 0 29.5 -6t27.5 -6h2q49 0 74 -19.5t33 -47t8 -52.5v-13t-2 -13q25 43 48.5 89t41 80.5t19.5 38.5v-2q0 -8 8 7.5t10 17.5q27 47 34 82t40 80 h-2q6 10 23.5 36.5l35 53t25.5 37.5q23 23 79 46t101 23q25 0 42 -10t19 -35q0 -33 -17 -52t-45 -38.5t-60 -52.5q-25 -27 -80.5 -111t-128.5 -190q-72 -102 -109 -156.5t-50 -77t-17 -36.5l-3 -2q-20 -20 -36.5 -60.5t-46.5 -95.5q-16 -31 -22.5 -50.5t-12.5 -52.5 q-8 -14 -9.5 -28.5t4.5 -7.5q0 -2 11.5 6t21.5 16q4 2 17.5 6t15.5 4l2 2q18 8 25 9h4q4 0 12 4t33 20q14 8 24 8q16 0 17 -14q0 -16 -25 -33q-59 -43 -94 -60.5t-74 -55.5l-2 -3q-4 0 -19.5 -14t-17.5 -18q-8 -8 -14 -19.5t-18 -19.5h2q-8 -4 -17.5 -5t-17.5 -1 q-29 0 -35 6q-4 4 -11 7t-11 13q-4 16 -5 29q0 37 19.5 87t52.5 112q27 51 39 79.5t18.5 48t14.5 38.5q-29 -27 -59.5 -55.5t-71.5 -63.5q-6 -4 -18.5 -10.5t-16.5 -8.5l-51 -53q-63 -51 -112.5 -100t-108.5 -84v2q-2 -2 -5.5 -7.5t-9.5 -9.5v-2q-8 -2 -14 -2t-10 -2 q-12 -8 -24.5 -13t-22.5 -11q-25 -11 -43 -11q-25 0 -41.5 14.5t-16.5 47.5zM113 110.5q2 -2.5 10 -4.5q6 -2 16 0q31 10 75 42t88 70t75 65q10 10 19.5 14t15.5 10q10 6 15 15.5t13 15.5q74 63 119 101t70.5 60.5t44.5 39.5q6 6 15 17t18 26h-7q-10 0 -20 7t-10 21 q0 20 -7.5 34.5t-17.5 25.5q-2 4 -10 5t-19 1h-2q-6 0 -12 3t-12 3q-78 0 -193 -109q-117 -115 -174 -198.5t-78.5 -144t-31.5 -107.5q-2 -10 0 -12.5z" />
<glyph unicode="e" horiz-adv-x="811" d="M27 109q0 68 32.5 153.5t89 177.5t127.5 172q74 84 150 131.5t137 53.5q33 0 68 -18.5t49 -18.5h2q43 0 57.5 -35t14.5 -70q0 -20 -8.5 -42.5t-13.5 -37t-1 -10.5l2 2q-23 -41 -50.5 -83t-88.5 -109q-25 -27 -67 -52.5t-80.5 -46t-55.5 -28.5q-16 -8 -43 -8t-58.5 6 t-53.5 6q-12 0 -22.5 -2t-14.5 -12q-33 -53 -33 -107q0 -33 15.5 -54.5t51.5 -21.5q12 0 26.5 2t29.5 9q35 6 49 6t31.5 4t58.5 20q45 18 68.5 26.5t37 14.5t27.5 14.5t45 24.5q23 12 26 12t11 5.5t43 27.5q37 25 57 25q14 0 15 -10q0 -8 -13.5 -24.5t-46.5 -39.5 q-35 -25 -79 -57.5t-80 -51.5q-12 -2 -21.5 -9t-25.5 -11l-115 -49l2 2q6 6 -13.5 0t-49 -18.5t-57.5 -21.5t-40 -9q-6 0 -26.5 7t-43 13t-32.5 6h-2q-39 0 -58.5 32t-25.5 58q-2 10 -3 21.5t-1 24.5zM231 342q0 -23 20.5 -33t47.5 -10q8 0 16.5 1t16.5 3q14 12 26.5 18.5 t33 20.5t57.5 51q31 31 53 44.5t37 29.5q43 59 46 90t3 57q-25 33 -45 33q-12 0 -37 -10q-35 -14 -56.5 -26.5t-62.5 -53.5q-47 -49 -86 -95t-61 -93q-2 -8 -5.5 -15.5t-3.5 -11.5z" />
<glyph unicode="f" horiz-adv-x="733" d="M30 95q5 24 17 52v-2q2 10 8 17.5t4 11.5q0 10 13.5 40t13.5 32v2q4 10 16.5 33.5t16.5 31.5q16 33 24.5 41t15.5 12.5t17 24.5l2 2l2 3t4 7q-8 -2 -15 -5t-19 -7h-3q-10 0 -28.5 9.5t-22.5 19.5q-4 12 -4 18q0 27 20.5 58.5t41.5 40.5h2q10 0 26.5 8t28.5 12h4q6 0 8 7 t17 9l28 11q27 10 47 16q8 12 16.5 22.5t6.5 12.5q8 18 21.5 35.5t27.5 34.5h-2q43 63 98.5 132.5t124.5 149.5q74 84 146.5 124t132.5 46q35 0 78 -16.5t61 -32.5q37 -33 61.5 -74t24.5 -76q0 -20 -8 -36v-2q-8 -14 -27 -15q-14 0 -25.5 9.5t-11.5 23.5q-2 31 -30 66 q-25 32 -51 32h-3q-8 2 -26 2q-39 0 -85 -22.5t-102 -79.5q-43 -45 -69.5 -66.5t-46 -33t-37 -22.5t-41.5 -34q-8 -20 -35 -58t-57 -75q10 4 19 7t20 3q12 0 40.5 3.5t43.5 3.5v4q0 10 10 12h-2q23 6 46 11t48 11q51 10 103.5 24.5t103.5 21.5q16 0 40.5 8t43.5 8q12 0 20 1 t23 1q16 0 30.5 -8t16.5 -23q-2 -16 -13.5 -16h-27.5q-8 0 -30.5 -2t-61.5 -10q-29 -6 -38 -8.5t-18.5 -4.5t-39.5 -10q-80 -18 -171.5 -53t-205.5 -82q-31 -12 -68 -36t-72 -48q-18 -33 -29.5 -60.5t-27.5 -54.5h-2q-16 -23 -33.5 -61.5t-33 -78.5t-23.5 -66.5t-6 -24.5 q4 2 5 -1t-3 -7q-8 -10 -12.5 -29t-10.5 -31q-8 -12 -17 -21.5t-15 -13.5q-8 -12 -16.5 -16t-16.5 -4t-14.5 2t-10.5 2q-26 4 -26 50q0 21 5 45z" />
<glyph unicode="g" horiz-adv-x="866" d="M-283 -500q10 47 15.5 75t38.5 69q14 14 22 14q10 0 9 -20.5t-1 -45.5v-80t7.5 -99t29 -84t62.5 -34q78 0 138 40t109.5 102.5t92.5 130.5q16 25 36.5 45t34.5 43q16 25 25.5 51.5t23.5 46.5q63 88 104.5 194.5t96.5 209.5q10 33 31 75q23 53 30 76t7 32v17 q-20 -14 -31.5 -19t-26 -13.5t-45.5 -38.5l-2 -2q-2 2 -13 -10.5t-19 -16.5q-12 -8 -39 -33.5t-37 -34.5q-70 -51 -117 -87.5t-113 -71.5l-12 -15l-4 -2q-4 0 -19.5 -2t-7.5 -2h2q-14 -8 -27.5 -13t-23.5 -11q-27 -10 -49 -11q-25 0 -42 14.5t-17 45.5q0 8 1 16t3 17 q18 68 60 159.5t114 196t178 205.5q61 59 128 96t136 45q4 0 14.5 4t18.5 4q16 0 31.5 -6t31.5 -6l23 -12q23 -11 51.5 -29t50 -37.5t21.5 -38.5q0 -20 -15.5 -36.5t-19.5 -24.5q-6 -8 -20 -8q-31 0 -35 30q0 20 -7.5 34.5t-17.5 25.5q-4 4 -30.5 8t-36.5 4 q-39 0 -91.5 -30.5t-111.5 -84.5q-27 -23 -50.5 -35t-41.5 -30q-8 -8 -15.5 -25.5t-17.5 -27.5q-74 -78 -113 -138.5t-54 -105.5t-26 -82q0 -16 11 -17h20q35 10 82 42t95 70t83 65q10 10 21.5 14t17.5 10q10 8 17.5 16.5t15.5 14.5q61 47 91 69.5t42 32t20.5 14.5t22.5 17 q25 18 43 18q23 0 36 -17t15 -34q4 -16 4 -30q0 -25 -8 -41q-10 -12 -10 -23q0 -4 2 -8t2 -10t-4 -17.5t-19 -34.5v2q-10 -20 -14 -29t-14 -26q-16 -51 -45 -98t-64 -107q-27 -70 -57.5 -138t-77.5 -136q-47 -66 -105.5 -153t-129 -167.5t-155.5 -134t-183 -53.5 q-68 0 -108 46t-57.5 108.5t-17.5 111.5z" />
<glyph unicode="h" horiz-adv-x="1026" d="M12 43q0 23 7.5 51.5t21.5 67.5v-6q4 0 8 14t2 16q2 12 17.5 27.5t13.5 17.5v2q4 8 0 10.5t2 16.5q23 47 37 64.5t31 50.5v-4q2 0 5 16t9 27v-4q2 8 9 15l9 9q18 33 25.5 49.5t17 31.5t31.5 44h-2q8 10 23.5 34.5t29 42t13.5 9.5v-2q0 -6 16 18.5t38.5 60.5t41 65.5 t22.5 35.5v-2q4 6 17.5 27.5t15.5 23.5h-2q20 33 27.5 50.5t16.5 35t34 48.5l72 92q10 10 25.5 35.5t31.5 33.5q29 14 71 26.5t74 12.5q23 0 38.5 -7t17.5 -28q-2 -31 -22.5 -70.5t-61.5 -78.5q-25 -20 -60 -27.5t-49 -29.5h2q-23 -33 -56.5 -77t-49.5 -67 q-16 -20 -37 -36.5t-33 -36.5q-31 -41 -45 -70t-27.5 -56.5t-46.5 -62.5q-59 -63 -79.5 -103t-24.5 -83q8 10 18 18q45 45 126 98.5t167 104.5h4q2 0 21.5 10t43 25.5t40 27t10.5 11.5h-2q23 14 78 32q92 31 159 31q45 0 66 -14q18 -18 18 -51q0 -25 -12 -60v4q-2 0 -8 -15 t-14 -26q-2 -8 -14 -25l-13 -18v2q-10 -25 -20.5 -36t-24.5 -29q-18 -25 -48 -72t-57.5 -98t-38.5 -96q-2 -14 -17 -37t-13 -33v-2q0 -4 8 -10t10 -11q6 -8 6 -20q0 -18 -16 -36.5t-53 -18.5q-27 0 -34 12t-17 27v20l-9 -2h-4q-8 0 -14 10v2q0 8 -3 23.5t-3 23.5q0 14 12 43 t26.5 58.5t20.5 44.5q8 25 41 67.5t70 89t55 76.5q10 18 14 33.5t4 28.5q0 23 -13 34t-34 13q-8 0 -27.5 -3t-39.5 -12q-8 -2 -32 -16t-43 -26.5t-13 -12.5h2q-16 -10 -29.5 -17t-34.5 -22q-6 -6 -31.5 -22.5t-51 -32.5t-36.5 -23q-100 -72 -192 -154.5t-158 -172.5 q-8 -10 -12 -28.5t-10 -31.5q-8 -14 -16.5 -19t-12.5 -9q-16 -20 -31.5 -25.5t-25.5 -5.5q-18 6 -19 43z" />
<glyph unicode="i" horiz-adv-x="403" d="M12 68q0 29 12.5 84t47.5 165q27 84 49 135.5t47 98.5v2q6 8 18.5 14t16.5 13h-2q4 4 2 13t-2 17q0 23 15 38.5t32 29.5q16 16 51 36.5t82 28.5q6 2 12 2h13q35 0 53 -14t26 -31q4 -4 8.5 -10t4.5 -14t-7.5 -21.5t-29.5 -33.5q-10 -12 -29.5 -25.5t-36.5 -30.5 q-20 -20 -38.5 -44.5t-34.5 -47.5q-14 -20 -31 -37.5t-33 -36.5q-8 -8 -12 -29.5t-19 -35.5q-14 -18 -31.5 -28.5t-27.5 -29.5v3q-10 -18 -22.5 -43t-24.5 -48q-20 -41 -26.5 -60t-6.5 -30q0 -12 5 -16t1 -21q-8 -18 -21.5 -44.5t-29.5 -26.5q-8 0 -14 12q-4 16 -10.5 28.5 t-6.5 37.5zM453 958q0 16 5 29.5t19 22.5q47 25 80 35t53 10q31 0 41.5 -18.5t10.5 -47.5v-15t-3 -18q-6 -27 -39.5 -37t-56.5 -20q-14 -8 -33.5 -17.5t-35.5 -9.5h-5q-18 0 -23 13.5t-7 25.5q-2 10 -4 22.5t-2 24.5z" />
<glyph unicode="j" horiz-adv-x="385" d="M-717 -500q10 47 15.5 75t37.5 69q14 14 23 14q10 0 9 -20.5t-1 -45.5v-80t7.5 -99t29 -84t61.5 -34q78 0 138.5 40t109.5 102.5t92 130.5q16 25 37 45t35 43q16 25 25.5 51.5t23.5 46.5q63 88 104.5 194.5t96.5 209.5q-2 10 -2 20v19q0 78 30.5 150.5t57.5 141.5 q25 63 28 101.5t5 62t22 41.5q33 27 70 27q49 0 59 -33q2 -8 3 -17t1 -20q0 -16 -6 -33q-10 -14 -10 -24q0 -4 1 -7t1 -9t-3 -17.5t-15 -34.5q-10 -20 -13.5 -30.5t-13.5 -26.5q0 -16 -7 -55t-42 -88t-48.5 -101.5t-25.5 -104.5t-45 -104q-25 -70 -55.5 -138t-79.5 -136 q-47 -66 -105.5 -153t-129 -167.5t-156 -134t-183.5 -53.5q-68 0 -107.5 46t-57 108.5t-17.5 111.5zM365 958q0 16 4 29.5t18 22.5q88 47 133 47q31 0 41 -19.5t10 -48.5v-15t-2 -18q-6 -27 -38.5 -37t-55.5 -20q-16 -8 -35.5 -17.5t-36.5 -9.5h-4q-18 0 -23 13.5t-7 25.5 q0 10 -2 22.5t-2 24.5z" />
<glyph unicode="k" horiz-adv-x="956" d="M29 68q0 29 13 83t52 146h2q29 43 48.5 89t39.5 83v-4q0 4 22.5 40t54.5 87t64.5 102t56.5 88t26 41v-4q2 10 16 30.5t16 22.5h-2q20 33 27.5 50.5t17 35t33.5 48.5q10 16 36 46.5t38 45.5q10 10 24.5 35.5t30.5 33.5q29 14 70 26.5t73 12.5q51 0 58 -35q0 -70 -84 -149 q-20 -20 -53 -43t-50 -45h3q-23 -33 -59 -61.5t-54 -51.5q-14 -20 -37 -33.5t-35 -29.5q-92 -125 -143 -212t-64 -110q-8 -14 -21 -44t-25.5 -59.5t-18.5 -43.5q-10 -33 -20.5 -44.5t-14.5 -29.5q4 0 14.5 -9t16.5 -3l71 53q29 23 45.5 41t65.5 63q6 4 24.5 20.5t38.5 37.5 q16 33 35 66.5t45 64.5q59 72 128 111.5t126 46.5q31 0 67 -1t56 -10q29 -14 37 -32.5t8 -34.5q0 -23 -6 -33q-8 -12 -20.5 -22.5t-38.5 -10.5q-14 4 -27.5 18.5t-54.5 14.5q-18 -8 -33.5 -17.5t-38.5 -23.5v-2q-29 -18 -50.5 -34.5t-37.5 -31.5q-8 -8 -27.5 -20t-44.5 -29 h2q-27 -39 -37 -79t-10 -74q0 -55 19.5 -97.5t42.5 -62.5q12 -8 35.5 -22.5t56.5 -14.5q55 0 90 13.5t90 39.5h2q-2 2 18.5 -4t20.5 -22q0 -10 -20 -31l-2 -2l-68 -31q-8 -6 -40 -18.5t-64.5 -22.5t-49.5 -10q-6 0 -26.5 8t-42 16.5t-33.5 8.5q-29 4 -41 20.5t-18.5 34.5 t-18.5 29q-59 55 -59 151q0 12 1 23.5t3 23.5q-16 -14 -30.5 -27.5t-18.5 -17.5l-23 -14q-29 -33 -51.5 -62.5t-48.5 -60.5h-4q0 2 -16 -19l-17 -22q-4 -6 -16.5 -28.5t-25.5 -44t-22 -27.5q-12 -6 -30 -6q-14 0 -23.5 2t-11.5 2l-2 2q-6 6 -9 10t-10 8q-8 6 -20 15.5 t-12 42.5z" />
<glyph unicode="l" horiz-adv-x="602" d="M25 68q0 29 13 83t52 146h2q29 43 48.5 89t39.5 83v-4q0 4 22.5 40t54.5 87t64.5 102t56 88t25.5 41v-2q4 6 17.5 27.5t15.5 23.5h-2q20 33 27.5 50.5t16.5 35t34 48.5l72 92q10 10 25.5 35.5t31.5 33.5q29 14 71 26.5t74 12.5q23 0 38.5 -7t17.5 -28q-2 -31 -22.5 -70.5 t-61.5 -78.5q-20 -20 -53 -43t-50 -45h2q-23 -33 -58.5 -61.5t-53.5 -51.5q-14 -20 -37 -33.5t-35 -29.5q-92 -125 -143 -212t-64 -110q-8 -14 -21.5 -44t-25.5 -59.5t-18 -43.5q-10 -33 -20.5 -44.5t-16.5 -33.5q-2 -8 -7 -32.5t-7.5 -44t0.5 -15.5l38 24l78 39l2 2 q23 10 33 10t26.5 4.5t51.5 26.5q2 0 20.5 10.5t38 21.5t21.5 11q23 12 25.5 12.5t11 5.5t43.5 27q37 25 57 25q14 0 14 -10q0 -8 -13 -24.5t-46 -39.5q-57 -39 -115.5 -72.5t-118.5 -68.5q-33 -18 -45 -23.5t-15 -5.5t-9 -4t-27 -24l-2 -3q-4 0 -20.5 -14t-20.5 -18 q-8 -8 -15 -20.5t-20 -18.5q-14 -8 -37 -8t-30 8q-6 6 -9.5 10t-9.5 8q-8 6 -20 15.5t-12 42.5z" />
<glyph unicode="m" horiz-adv-x="1562" d="M12 43q0 23 7.5 51.5t21.5 67.5v-2q2 10 7 17t3 9q2 12 17.5 27.5t13.5 17.5v2q4 8 0 10.5t2 16.5q23 47 41 87t37 73l4 14q4 15 10 27v-4q2 8 9.5 15t9.5 9q8 23 13 33t13 31q4 10 10.5 20t20.5 31l1 12q1 13 3 27q4 10 14 21l9 10q16 33 52 50t68 17q35 0 58.5 -17.5 t23.5 -51.5q0 -45 -23.5 -70t-51.5 -41q-12 -8 -40 -24.5t-34 -26.5q-6 -8 -6 -13v-5t-4 -13q-16 -27 -23.5 -50.5t-9.5 -47.5q8 10 18 18q43 43 97.5 79t138.5 87h4q2 0 27.5 18.5t53 38t34.5 19.5l24 12q25 12 51 21q87 30 152 30h4q47 0 70 -16q18 -12 18 -49 q0 -27 -12 -62v2q0 -8 -6.5 -17t-14.5 -22q-4 -6 -14 -22t-12 -21v3q-12 -23 -15.5 -33t-11.5 -33q-8 -20 -18.5 -31.5t-12.5 -29.5l37 26q47 41 99.5 78t138.5 88h2q2 0 27.5 18.5t54 38t34.5 19.5h-2q12 6 31 15t45 18q87 30 152 30h4q45 0 72 -16q16 -16 16 -47 q0 -27 -12 -64v2q0 -8 -6.5 -17t-14.5 -22q-4 -6 -14 -22t-12 -21v3q-12 -23 -21.5 -34.5t-26.5 -29.5l-54 -75t-67.5 -106.5t-41.5 -101.5q-2 -12 -7.5 -27.5t-3.5 -25.5v-2q0 -4 8.5 -11t12.5 -11q8 -12 8 -19q0 -12 -14.5 -21.5t-46.5 -4.5q-25 0 -32 12t-16 26v2 q0 4 -1 8.5t-1 12.5q4 4 -3 5t-15 15l-3 20q-3 21 -3 30q0 20 14.5 49.5t22.5 52.5q10 23 34.5 63.5t52 83.5t46.5 74q35 59 56.5 90t-1.5 23q-8 0 -47 -6t-55 -15q-10 -4 -33 -14t-43.5 -18.5t-26.5 -8.5l-22 -13q-21 -13 -39 -28q-12 -8 -30.5 -19t-31.5 -22 q-100 -72 -193 -154.5t-159 -172.5q-8 -10 -12 -28.5t-10 -31.5q-6 -14 -15.5 -19t-13.5 -9q-14 -20 -30.5 -25.5t-26.5 -5.5q-18 6 -19 43q0 23 7.5 51.5t21.5 67.5v-2q2 10 8 17t4 9q2 12 16.5 27.5t12.5 17.5v2q6 8 2 10.5t0 16.5q23 47 41 87t39 73l16 35v-4q0 8 7 33 l7 26v4q23 39 23 59q0 14 -11.5 17.5t-29.5 5.5q-10 0 -29.5 -2t-38.5 -10q-8 -2 -27.5 -16.5t-38 -27t-24.5 -12.5h2q-16 -10 -29.5 -18t-31.5 -23l-64 -41q-100 -72 -192 -154.5t-158 -172.5q-8 -10 -12 -28.5t-10 -31.5q-8 -14 -16.5 -19t-12.5 -9q-16 -20 -31.5 -25.5 t-25.5 -5.5q-18 6 -19 43z" />
<glyph unicode="n" horiz-adv-x="968" d="M12 43q0 23 7.5 51.5t21.5 67.5v-6q4 0 8 14t2 16q2 12 17.5 27.5t13.5 17.5v2q4 8 0 10.5t2 16.5q23 47 41 87t37 73l4 14q4 15 10 27v-4q2 8 10.5 15t10.5 9q10 18 10 27q0 4 -2 4t-2 2t4 9t16 24h-2q8 10 25.5 36.5t35 53.5t21.5 35q16 35 52 52t71 17q33 0 56.5 -15 t23.5 -50q0 -33 -15.5 -45.5t-41 -25.5t-56.5 -46q-59 -63 -79.5 -103t-24.5 -83q8 10 18 18q43 43 97.5 79t138.5 87h4q2 0 27.5 18.5t53 38t34.5 19.5l24 12q25 12 51 21q87 30 152 30h4q47 0 70 -16q18 -12 18 -49q0 -27 -12 -62v4q-2 0 -8.5 -15t-12.5 -26 q-4 -6 -14 -22t-12 -21v3q-12 -23 -22.5 -34.5t-25.5 -29.5q-20 -25 -55 -75t-66.5 -106.5t-41.5 -101.5q-2 -12 -7.5 -27.5t-3.5 -25.5v-2q0 -4 8.5 -11t10.5 -11q8 -8 8 -19q0 -12 -13.5 -21.5t-47.5 -4.5q-23 0 -30 12t-15 26v2q0 4 -1.5 8.5t-1.5 12.5q2 4 -5 5t-15 15 l-2 20q-2 21 -2 30q0 20 14.5 49.5t22.5 52.5q10 23 43 66t68.5 89t54.5 76q20 35 20 62q0 25 -14.5 36t-32.5 11q-10 0 -29.5 -2t-38.5 -10q-8 -2 -27.5 -16.5t-38 -27t-24.5 -12.5q-14 -10 -26.5 -19t-32.5 -22l-64 -41q-102 -66 -193 -151.5t-157 -175.5 q-8 -10 -12 -28.5t-10 -31.5q-8 -14 -16.5 -19t-12.5 -9q-16 -20 -31.5 -25.5t-25.5 -5.5q-18 6 -19 43z" />
<glyph unicode="o" horiz-adv-x="696" d="M49.5 285.5q22.5 76.5 73.5 160.5v-2q23 41 46.5 82t49.5 80q8 8 16.5 11.5t12.5 7.5q0 8 5 23.5t13 21.5q37 49 84 73.5t74 40.5h-2q12 6 29 7q41 0 96 -31q8 0 17 3t20 3q20 0 41.5 -14.5t17.5 -44.5q-2 -6 -2 -10.5v-8.5q0 -23 16 -22q8 0 16.5 2t16.5 2q23 0 64 7 t78.5 14t52.5 7q8 -6 8 -14t-7 -18.5t-16 -14.5l-26 -7q-25 -7 -62 -17.5t-72.5 -19.5t-56.5 -11l-20 -2q-2 -25 -12.5 -53.5t-22.5 -63.5q-4 -10 -6 -25.5t-8 -31.5q-14 -25 -33 -49.5t-35 -51.5q-12 -20 -25.5 -43.5t-31.5 -48.5q-41 -53 -95.5 -105t-110.5 -86t-103 -34 q-33 0 -51.5 11.5t-35.5 23.5q-36 30 -36 109q0 63 22.5 139.5zM137 109q6 -14 4 -21.5t6 -11.5q11 -6 21 -6q41 0 113.5 58t136.5 151h-2q16 25 33.5 57.5t27.5 54.5l11 13q12 12 24 27t14 24q2 4 2 10q0 4 -1 7t-1 11v2q12 31 20.5 55.5t10.5 43.5q-14 0 -45 2t-50.5 4 t-0.5 2h6q0 2 -18.5 8t-28.5 10q-6 -2 -12 -2q-10 0 -15.5 4t-11.5 -2q-8 -8 -10 -20t-17 -27l-2 -2q0 2 -10 -4t-8 -6l-2 -4q-4 -2 -5 -11.5t-8 -19.5q-20 -33 -43.5 -68.5t-44.5 -68.5v2q-20 -37 -40.5 -80t-30.5 -84q0 -10 -3 -19.5t-3 -15.5v-2q0 -23 -8.5 -39t-8.5 -32 z" />
<glyph unicode="p" horiz-adv-x="966" d="M-326 -512q0 16 7.5 42t27.5 71q10 33 41 83t51 99q14 35 52 107.5t87.5 161.5t97.5 175t85 149.5t49 84.5v-4q2 10 15.5 16t19.5 12q0 8 2 20.5t4 20.5v2q8 18 21.5 30.5t27.5 25.5q16 18 54 38.5t87 28.5h-2q6 2 19 2q29 0 29 -22q0 -10 -6.5 -23.5t-10.5 -23.5 q0 -6 -5 -13.5t-7 -15.5q61 47 145 92t174 72q83 24 134 24h4q47 0 77 -22q53 -41 54 -119q0 -18 -4.5 -39.5t-10.5 -44.5q-2 -14 -7 -27.5t-13 -35.5q-27 -59 -75 -111.5t-114 -112.5q-8 -6 -9 -15t-15 -23q-10 -10 -30.5 -22.5t-27.5 -16.5q-57 -45 -144 -99.5t-218 -83.5 h-2q-35 -4 -80 -12t-88 -8q-45 0 -81 15.5t-46 56.5q-25 -49 -53.5 -99.5t-36.5 -60.5q-8 -8 -22.5 -39t-29 -63.5t-26.5 -47.5h2q-12 -16 -17 -41.5t-14 -52.5q-16 -43 -19 -66.5t-2 -38t-5 -30.5q-10 -18 -44 -38.5t-61 -20.5q-23 0 -28 16v-2q-2 14 -7.5 24.5t-5.5 24.5z M125 78q0 -10 5 -18.5t3 -14.5q10 -8 33.5 -15t56.5 -7q37 0 86 12q72 18 119 30.5t86 38.5q35 23 68 52q8 6 30.5 28.5l30.5 30.5q20 18 34.5 33.5t33.5 34.5q14 14 39.5 45.5t53 71.5t46 82t18.5 77q0 37 -26 55q-12 8 -25.5 13.5t-30.5 5.5q-31 0 -75 -15 q-45 -12 -64.5 -16t-36 -9t-53.5 -26q-10 -8 -35.5 -31.5t-36.5 -25.5h2q-18 -8 -48.5 -30.5t-51.5 -37.5q-12 -8 -29.5 -24.5t-29.5 -26.5q-41 -33 -68 -76t-65 -90q-2 -2 -16.5 -31.5t-28 -58.5t-17.5 -33q-8 -10 -8 -24z" />
<glyph unicode="q" horiz-adv-x="833" d="M-35 37q0 6 1 14t3 17q18 68 56 159.5t103 196t161 205.5q57 59 117.5 96t123.5 45q4 0 12.5 4t16.5 4q16 0 29.5 -6t27.5 -6h2q70 -12 92.5 -47t22.5 -70q0 -18 -4 -33.5t-8 -25.5l-2 -2q-8 -8 -21 -8q-10 0 -19 8t-9 22q0 20 -7.5 34.5t-17.5 25.5q-6 6 -29 6 q-8 0 -15 3t-15 3q-74 0 -189 -109q-117 -115 -174 -198.5t-78.5 -144t-31.5 -107.5q0 -16 8 -17h18q31 10 75 42t88 70t75 65q10 10 19.5 14t15.5 10q10 8 15 16.5t13 14.5q111 94 171.5 144t86.5 73q18 16 31.5 16h22.5q18 12 36 13q33 0 33 -31q0 -29 -6 -69t-49 -81 q-20 -20 -45 -42.5t-41 -47.5h2q-23 -33 -54.5 -61.5t-47.5 -50.5q-14 -20 -28.5 -41t-31.5 -41q-90 -125 -121.5 -198t-42.5 -93q-8 -16 -21 -46t-25.5 -58.5t-18.5 -42.5q-10 -31 -13.5 -42.5t-7.5 -33.5v2q-2 -14 -4 -44t0 -34q4 2 16.5 10t24.5 12l51 23q25 10 37.5 10 t29.5 3t52 26q10 6 17 6q16 0 16 -18q0 -16 -18 -29q-63 -39 -98.5 -60.5t-80.5 -54.5l-4 -2q-2 2 -21 -15l-18 -18q-8 -10 -16 -21t-21 -19q-12 -7 -26 -7t-25.5 3.5t-13.5 3.5h-2q-6 10 -16 20q-8 6 -21.5 15.5t-13.5 43.5q0 29 13 82.5t52 143.5l2 2q29 43 49.5 89 t40.5 81v-2q0 4 16.5 37.5t40 81t49 94.5t43 80.5t19.5 37.5v-2q2 10 17.5 31t17.5 23h-2q20 33 27.5 49t15.5 35q-14 -2 -57 -37l-4 -2q-2 2 -11.5 -7.5t-19.5 -11.5l-25.5 -25.5l-25.5 -25.5q-63 -51 -112.5 -100t-108.5 -84v2l-15 -17l-2 -2q-4 0 -10 -2t-14 -2h2 q-12 -8 -24.5 -13t-22.5 -11q-25 -10 -43 -11q-25 0 -41.5 14.5t-16.5 47.5z" />
<glyph unicode="r" horiz-adv-x="849" d="M12 43q0 68 39 145q12 14 21.5 28.5t9.5 33.5q0 12 12 37.5t27.5 55.5t28 52.5t12.5 26.5q4 10 9 24l5 13q20 31 50 76t71 104h-2q29 47 52.5 81t43.5 54q66 66 150 66q51 0 51 -45q0 -39 -47 -80q-18 -16 -38 -31.5t-36 -32.5q-16 -18 -45 -54t-68 -89 q-4 -6 -21.5 -29.5t-34.5 -51.5t-24.5 -47.5t7.5 -17.5q29 41 141 121q47 33 78 66t61 53q10 4 22.5 12.5t26.5 22.5h2q55 29 119 64.5t133 80.5q6 4 17 0q92 33 127 33t35 -31q0 -6 -5.5 -30.5t-18.5 -47t-38 -22.5h-90q-68 -27 -144.5 -56.5t-158.5 -88.5h-2 q-301 -199 -451 -420q-2 -10 -8 -24.5t-14 -35.5q-31 -53 -86 -59q-18 4 -19 43z" />
<glyph unicode="s" horiz-adv-x="661" d="M-133 -82q0 16 10 27l2 2q2 2 6 2q14 0 33 -4t27 -2q88 27 160.5 67.5t123.5 85.5q20 16 38 35t32 35q4 6 13.5 9t11.5 5l2 2q0 4 -1 7.5t3 11.5q41 57 41 88q0 18 -11 22q-23 20 -62.5 32.5t-78.5 22t-59 17.5q-37 16 -37 55t31.5 89.5t89.5 101.5q92 78 194.5 126 t179.5 48q41 0 72 -16.5t43 -53.5q6 -18 6 -35q0 -27 -13 -46t-32 -19q-4 0 -15 -2t-20 0q-8 4 -16 14t-12 10h-2q-8 4 -11.5 8.5t-13.5 4.5h-8l-41 2q-31 0 -70 -12.5t-92 -47.5v2q-18 -14 -38.5 -35.5t-39.5 -44.5q-12 -12 -27.5 -24t-19.5 -23q-8 -16 -8 -28t10 -21 q33 -14 90.5 -31.5t118.5 -58.5q12 -8 25.5 -25.5t13.5 -44.5q0 -20 -8 -38q-6 -10 -18.5 -23.5t-16.5 -24.5l-2 -2q-37 -37 -94.5 -95t-161.5 -122q-80 -49 -149.5 -68.5t-108.5 -19.5q-33 0 -55.5 4t-20.5 19q-4 0 -12 8z" />
<glyph unicode="t" horiz-adv-x="536" d="M78 104l8 24t16 44q10 23 20.5 47.5t22.5 69.5q8 20 21.5 63t34.5 78v-2q31 55 64.5 109.5t68.5 107.5q-10 -8 -29 -12q-23 -8 -49.5 -17.5t-44.5 -9.5q-27 0 -36 20l-9 21v2q0 23 1 48.5t32 43.5h2q4 0 13 -2t11 -2q8 4 20.5 12.5t26.5 8.5h2q35 0 74 2t66 8 q12 16 22 31.5t8 19.5q2 10 15.5 29.5t19.5 28.5q4 10 17.5 23t13.5 18v2q2 4 2 14v16q0 10 3 21.5t11 19.5q14 14 23.5 35t36.5 37q18 12 35 12q29 0 43 -23.5t22 -37.5q2 -8 21.5 -15.5t19.5 -25.5q0 -16 -25 -39q-8 -10 -28.5 -31.5t-36.5 -38.5q-14 -14 -51 -67 q33 2 67.5 10t71.5 8q10 -2 34.5 5t45.5 6q8 0 13 -10.5t7 -16.5q-8 -12 -33.5 -22.5t-37.5 -12.5q-8 0 -43 -6t-71 -13.5t-50 -7.5q-12 2 -24.5 -13t-28.5 -17q-12 -16 -25.5 -23.5t-24.5 -21.5q-27 -39 -45 -67t-26 -38q-10 -12 -27.5 -37.5t-36 -52.5t-30.5 -39 q-8 -12 -27 -40t-31 -40q-10 -14 -15 -24.5t-18 -32.5v2q-10 -18 -22 -48t-16 -57q-2 -10 -3.5 -22t-1.5 -23q0 -27 3.5 -48t3.5 -38q0 -29 -23.5 -50t-46.5 -21q-18 0 -25 16q-6 20 -17 42t-5 60zM825 799l2 4v-2z" />
<glyph unicode="u" horiz-adv-x="913" d="M-14 35q0 8 1 16t3 17q10 43 34.5 106.5t59.5 135t74 134.5q35 55 66.5 89t51.5 67q16 23 18.5 36t6.5 28q8 23 25.5 33t31.5 14q35 14 68 27.5t55 13.5q14 0 24.5 -19.5t10.5 -5.5v2q2 -6 2 -16q0 -25 -22.5 -48.5t-81.5 -86.5q-61 -63 -102.5 -116.5t-69.5 -99.5h-2 q-51 -80 -74 -137t-33 -102q-2 -10 0 -12t10 -5q6 -2 17 0q31 10 75 42t88 70t74 65q10 10 19.5 14t15.5 10q10 6 15.5 15.5t13.5 15.5q74 63 141.5 134t116.5 126t67 72q28 26 60 26h2q47 0 59 -51q8 -27 -11 -40t-30 -27q-8 -12 -32.5 -48t-54 -81.5t-56.5 -87.5t-41 -68 q-10 -20 -13 -30.5t-14 -26.5v2q-2 -4 -4 -21.5t-4 -26.5q-8 -14 -9 -28.5t3 -7.5q0 -2 12.5 6t22.5 16q4 2 17.5 6t15.5 4l18 11q2 0 29.5 17t56.5 35.5t31 18.5q23 12 25.5 12.5t11 5.5t43.5 27q37 25 57 25q14 0 14 -10q0 -8 -13 -24.5t-46 -39.5q-51 -33 -112.5 -77 t-114.5 -70q-18 -12 -38 -22.5t-38 -28.5l-2 -3q-4 0 -19.5 -14t-17.5 -18q-8 -8 -14.5 -19.5t-18.5 -19.5h2q-8 -4 -17 -5t-18 -1q-29 0 -34 6q-4 4 -11.5 7t-11.5 13q-4 16 -4 29q0 37 19.5 87t52.5 112q27 51 39 79.5t18 48t14 38.5q-29 -27 -59.5 -55.5t-71.5 -63.5 q-6 -4 -18 -10.5t-17 -8.5l-51 -53q-63 -51 -112.5 -100t-108.5 -84v2q-2 -2 -5 -7.5t-9 -9.5v-2q-8 -2 -14.5 -2t-10.5 -2q-12 -8 -24.5 -13t-22.5 -11q-25 -11 -43 -11q-25 0 -41 14.5t-16 45.5z" />
<glyph unicode="v" horiz-adv-x="802" d="M45 84q0 23 9 55.5t18.5 61t9.5 32.5q4 8 0 10.5t2 16.5q23 47 31 87t26 73v2q4 4 5 15.5t10 23.5v-2q2 4 2 20.5v22.5q8 18 10 22t2 13v39t2 30v2q6 23 28.5 54.5t51.5 55t55 23.5q23 0 41 -24q10 -25 10 -35q0 -27 -18 -51.5t-33 -77.5q-12 -45 -31.5 -99.5t-38 -101.5 t-23.5 -73.5t11 -16.5l17 10q16 9 34.5 20t22.5 15q47 39 117.5 104.5t156.5 118.5q6 4 29 18.5t31 18.5q6 2 24.5 21.5t38 39t25.5 21.5q25 10 39 17.5t30.5 19.5t47.5 35l22 24q8 4 13.5 3.5t5.5 1.5q31 37 61.5 58t56.5 21q12 0 25 -6l2 -4l-2 -19q-2 -18 -19.5 -46.5 t-64.5 -61.5q-27 -18 -77 -57t-134 -88q-16 -8 -33.5 -19.5t-34.5 -21.5h-2q-16 -8 -38.5 -30.5t-40.5 -37.5q-12 -8 -25.5 -20t-26.5 -23q-100 -70 -190 -142.5t-154 -162.5q-8 -12 -24.5 -30.5t-20.5 -28.5q-10 -14 -39.5 -12.5t-31.5 -2.5q-9 -4 -11 -4q-8 0 -8 15 q0 12 4 26.5t0 9.5q-6 4 -6 21z" />
<glyph unicode="w" horiz-adv-x="1347" d="M45 78q0 66 26.5 166t61.5 190q23 55 39 93t31 71q10 25 9 37t-1 27q0 25 18.5 35t34.5 14q39 14 75 27.5t62 13.5q25 0 45 -21l3 -2q6 -6 7 -14t1 -15q0 -18 -20.5 -42.5t-63.5 -79.5q-51 -63 -82 -115.5t-51 -97.5q-27 -61 -37 -108.5t-10 -86.5q0 -12 1 -33.5t1 -11.5 v2q6 -20 20 -21h2q4 0 8 -1t15 1q33 10 73.5 42t81.5 69t70 64q6 6 15 12t18 14q6 6 9 14.5t11 16.5q68 63 125 133t97 126t59 73q30 26 61 26h2q53 0 86 -49l-26 -67q-6 -12 -22.5 -48t-36 -81t-38 -87t-26.5 -71q-6 -20 -6 -29.5t-9 -25.5v2l-4 -80l3 -14q3 -13 8.5 -26.5 t11.5 -13.5q4 0 25.5 8.5t29.5 16.5h2q4 0 18.5 4t16.5 6l2 2q29 16 63.5 36t96.5 61q51 37 94 89t80 100t67 73q4 2 15.5 29.5t17.5 33.5v2q6 0 11.5 27t9.5 35l-2 -2q8 12 10 14t4 2t2 4t6 41q0 6 4 31.5t2 28.5l-1 20q-1 20 1 46t8.5 45.5t18.5 17.5q41 -14 50 -55.5 t9 -82.5q0 -20 -7 -59t-30 -105q-4 -14 -12 -36.5t-29 -51.5q-10 -14 -19 -29.5t-30 -29.5q-10 -6 -29.5 -36t-29.5 -40q-63 -53 -112.5 -98t-121.5 -115q-6 -6 -33.5 -22.5t-52 -31.5t-28.5 -22l-24 -10q-25 -10 -58 -22.5t-59.5 -23.5t-30.5 -15q-16 -8 -41 -8 q-27 0 -39 8v-2q-12 8 -16.5 19t-8.5 16q-22 28 -22 83q0 68 18 132q16 61 17.5 98t9.5 72q-27 -27 -54.5 -56.5t-66.5 -66.5v-2q-8 -2 -18.5 -8.5t-14.5 -8.5q-8 -8 -23.5 -26.5t-21.5 -26.5q-57 -51 -102 -93t-103 -77v2q-2 -2 -3 -6t-3 -8q0 -4 -2 -4q-8 -2 -16 -2 t-15 -4q-12 -4 -24 -16.5t-25 -20.5q-26 -11 -49 -11q-37 0 -63.5 25t-26.5 78z" />
<glyph unicode="x" horiz-adv-x="751" d="M-96 -121q0 20 15 61.5t52 96.5q31 45 80 100.5t106.5 110.5t112 103t95.5 81q-2 10 -6.5 21.5t-8.5 21.5q-4 25 -11 50.5t-17 49.5q-2 8 -6.5 16.5t-8.5 16.5q-2 10 -17.5 16.5t-23.5 20.5q-2 6 -3 13.5t-1 13.5q0 16 4 30.5t2 18.5q0 25 27 46t59.5 31.5t48.5 4.5 q18 -8 30.5 -38t24 -92.5t25.5 -170.5q8 6 23.5 15t36.5 24q14 6 25.5 16t27.5 23q23 14 37 20q18 14 39.5 34.5t42.5 35.5q35 29 59.5 64.5t56.5 70.5q10 10 19.5 21.5t19.5 21.5q8 4 23 4q16 0 36.5 -8t20.5 -29v-2q-2 -2 -5 -21.5t-34 -48.5q-2 -4 -23.5 -12t-23.5 -10 q-37 -33 -73.5 -66.5t-53.5 -46.5q-23 -18 -60.5 -45.5t-76.5 -57.5t-69.5 -52.5t-41.5 -28.5q2 -2 5.5 -36t9.5 -81q2 -16 10 -33.5t10 -40.5v-8q0 -14 -2 -30.5t0 -26.5q18 -88 31.5 -133t13.5 -68q0 -29 -24 -28q-14 0 -30.5 11t-23.5 25q-10 29 -29.5 72t-35.5 92 q-2 6 -2 12.5v12.5q0 29 -16.5 51.5t-26.5 52.5q-4 18 -7 37t-7 35q-31 -25 -71 -57.5t-85 -73.5q-16 -14 -34.5 -30.5t-35.5 -35.5q-8 -8 -19 -8t-16 -4q-4 -4 -7 -19.5t-11 -25.5q-35 -39 -67.5 -84t-61.5 -96v-2q-27 -45 -43 -45q-10 0 -10 20z" />
<glyph unicode="y" horiz-adv-x="864" d="M-299 -500q10 47 15 75t38 69q14 14 23 14q10 0 9 -20.5t-1 -45.5v-80t7 -99t28.5 -84t62.5 -34q78 0 138.5 40t109.5 102.5t92 130.5q16 25 37 45t35 43q16 25 25.5 51.5t23.5 46.5q63 88 110.5 195.5t104.5 210.5q10 23 30.5 69.5t41 95t31.5 72.5q16 49 20 58v2 q-20 -16 -22.5 -19.5t-7.5 -8.5t-40 -32l-4 -2q-2 2 -21.5 -15.5t-41 -35.5t-31.5 -22q-10 -8 -37.5 -36t-38.5 -34q-53 -49 -104 -87t-109 -73q-2 0 -5 -6t-9 -10h-2q-6 -4 -12.5 -3t-10.5 -3l-49 -23q-25 -10 -43 -10q-23 0 -39 14.5t-16 44.5q0 6 1 15.5t3 17.5 q16 63 46 144t89 178q14 23 17.5 33t3.5 14v8q0 4 2 10t10 21q16 23 19 36t6 25q10 25 26.5 34t30.5 15q35 14 68.5 27.5t56.5 13.5q29 0 35 -24q2 -8 2 -14.5v-12.5q0 -37 -21.5 -63.5t-66.5 -63.5q-16 -14 -24.5 -22.5t-18 -21.5t-29.5 -44h-2q-53 -80 -75.5 -137.5 t-31.5 -100.5q-2 -10 0 -12t9 -4q10 -4 18 0q31 10 75 42t89 69.5t80 64.5q10 8 21 13t18 10q10 10 17 18t15 14q82 63 125 113.5t67.5 86.5t45.5 52q25 18 43 19q23 0 36 -16.5t15 -32.5q4 -16 4 -33q0 -23 -8 -39q-14 -20 -12 -33.5t-10 -36.5q-10 -20 -22.5 -49 t-25.5 -45q-16 -47 -46.5 -106.5t-62.5 -116t-53 -92.5l-22 -35q-27 -70 -62.5 -147.5t-82.5 -145.5q-47 -66 -105.5 -153t-129 -167.5t-156 -134t-183.5 -53.5q-68 0 -107.5 46t-57 108.5t-17.5 111.5z" />
<glyph unicode="z" horiz-adv-x="757" d="M-8 70q2 12 8 33.5t14 33.5q10 10 37 28.5t35 29.5q35 43 93.5 109.5t124 137t124.5 131t96 91.5q-10 4 -31.5 9t-56.5 5h-2q-10 0 -23.5 6t-17.5 2h-4q-6 0 -17.5 -6t-21.5 -10l-139 -21q-8 -2 -14.5 -3t-10.5 -1q-31 0 -30 23q0 27 26 30q4 0 8.5 1t8.5 1q8 0 14 -1 t12 -1t19 4q12 0 24.5 8.5t24.5 10.5q41 8 75.5 11t67.5 5q68 4 110 5t87 10q8 2 15 2h14q31 0 56 -10.5t25 -30.5q0 -12 -12 -29h2q-12 -14 -36.5 -33.5t-53.5 -40.5q-33 -25 -88 -63.5t-104 -85.5q-10 -8 -42 -40l-69 -69t-66.5 -67.5t-35.5 -38.5q-8 -6 -6.5 -13.5 t-6.5 -19.5q-23 -20 -22.5 -45t-9.5 -33q59 4 144 7t228 18q8 2 15.5 2h15.5q53 0 90 -18.5t37 -53.5q0 -16 -10.5 -37.5t-32.5 -44.5q-43 -33 -69 -46t-36 -13q-12 0 -12 10q0 12 15 33q24 39 24 58q0 24 -20.5 30t-57.5 6h-30.5t-36.5 -2q-33 -2 -66 -8t-61 -13 q-29 -6 -58.5 -5t-60.5 -9q-47 -14 -78 -23.5t-43 -7.5q-6 2 -29.5 4.5t-45 12.5t-23.5 35z" />
<glyph unicode="{" horiz-adv-x="659" d="M102 690q0 16 11.5 32.5t33.5 29.5q31 18 65 46.5t55.5 64.5t15.5 73q2 8 2 15v12q0 14 -2 24t-2 21q0 20 10 45q0 6 10 35.5t21.5 65.5t19.5 64.5t8 34.5q2 2 8.5 26t14.5 50.5t12 34.5q4 12 13.5 17t15.5 5q-18 2 4 13.5t57 22t51 8.5q39 -4 82 -4.5t76 -0.5 q27 0 40 -10t13 -24q0 -16 -16 -30.5t-49 -17.5q-59 -2 -96 -5t-60.5 -17t-39 -52t-30.5 -110q-2 -14 -7 -52t-11 -83t-10 -81t-8 -46l-7 -25q-8 -41 -40.5 -61t-68.5 -38.5t-56 -53.5q-2 -12 21.5 -32.5t49 -47.5t25.5 -59q0 -12 -6 -29q-14 -113 -19.5 -198t-3.5 -97 q16 -92 76.5 -145.5t185.5 -69.5q29 -4 42.5 -17.5t13.5 -27.5q0 -18 -17.5 -30.5t-50.5 -6.5q-14 4 -28.5 4h-28.5h-64q-25 0 -39 11.5t-27.5 21.5t-41.5 10q-23 0 -41 14q-12 0 -15 3q-23 20 -30 38.5t-19 51.5q-8 49 -11 96t-7 67h2q8 39 7 82t3 76l4 37t12 90 q-41 18 -52 43t-46 41q-31 16 -31 45z" />
<glyph unicode="|" horiz-adv-x="577" d="M203 -309q4 53 7 86t6 60.5t12.5 63.5t25.5 97q4 10 11 65.5t16.5 136.5t16.5 168t9 158q-2 6 -7 36t-11 68t-9.5 69.5t-3.5 39.5q-2 12 -2 43v66v70.5t-2 50.5q2 18 -2 66t-10 96.5t-12 62.5q-4 12 -14.5 24.5t-10.5 28.5t17.5 40t66.5 59q53 59 111 59q20 0 37 -10 l-2 -2h2q8 0 17 -6.5t9 -18.5q2 -4 2 -22q0 -27 -4 -64t-2 -39q-2 -6 -5 -48t-6 -94t-5 -95t-2 -52q2 -8 2 -15v-13q0 -29 -9.5 -47.5t-13.5 -63.5v-2q0 -4 2 -14.5t2 -22.5q0 -10 -4 -18l-2 -39t-5 -100.5t-6 -131t-7 -132t-6 -102.5l-2 -40q-2 -39 -13.5 -91t-11.5 -99 l2 2q-8 -25 -23.5 -81.5t-37.5 -115.5q-14 -27 -21.5 -61.5t-16.5 -66.5t-30 -46q-4 -4 -14 -4q-14 0 -28.5 10t-12.5 31z" />
<glyph unicode="}" horiz-adv-x="808" d="M84 -18q0 16 16.5 32.5t49.5 20.5q129 16 201.5 69.5t105.5 143.5q6 14 19 99t26 198q-6 31 11 56.5t44 46t49.5 36.5t22.5 29q-12 35 -45 53t-60.5 38.5t-27.5 61.5l-2 23q0 10 3 46t7 81t8 84t4 53q2 96 -12.5 133t-54 43t-117.5 8q-29 2 -42.5 13.5t-13.5 25.5 q0 16 16.5 29.5t45.5 13.5q16 0 39.5 -1t46.5 -1q20 0 40.5 2t39.5 2q20 0 50 -9t47 -19.5t-1 -14.5h2q6 0 13.5 -5t7.5 -15q2 -12 4 -46t4 -58.5t2 -14.5q0 -16 4 -60t8 -84t4 -51q4 -27 0 -41t-10 -28t-8 -45q-6 -18 -6 -35q0 -45 33.5 -86t66.5 -64q33 -25 33 -53 q0 -35 -41 -53q-39 -18 -55.5 -43t-61.5 -41q-4 -53 -8 -90l-4 -37q-2 -33 -13.5 -76t-11.5 -84l2 2q-8 -20 -22.5 -67t-32.5 -97q-18 -33 -29.5 -52t-38.5 -38q-2 -2 -14 -2q-20 -16 -45 -16q-27 0 -44 -10.5t-32.5 -20.5t-42.5 -10h-63h-27.5t-30.5 -4q-6 -2 -18 -2 q-41 0 -41 31z" />
<glyph unicode="~" horiz-adv-x="1251" d="M381 874q0 27 19.5 63t51 70.5t68.5 53.5q41 20 88 20q39 0 74 -8t59 -12q57 -8 102.5 -24.5t89.5 -30t97 -13.5q25 0 52.5 3t58.5 12q23 8 39 8q29 0 28 -19q0 -10 -14 -24q-20 -27 -78.5 -56.5t-132.5 -29.5q-35 0 -90 17.5t-119.5 34.5t-132.5 17q-25 0 -50.5 -3 t-49.5 -13q-31 -10 -63 -34.5t-56.5 -42t-36.5 -7.5q-4 12 -4 18z" />
<glyph unicode="&#xa1;" horiz-adv-x="608" d="M-260 -578q0 10 8 22.5t29 33.5q10 10 30.5 24.5t34.5 28.5q23 23 39.5 48.5t34.5 45.5q12 12 34.5 44t46 63.5t34.5 44.5q10 10 13 30.5t17 34.5q12 16 31 26.5t29 31.5v-2q10 18 23.5 41.5t23.5 46.5q20 41 26.5 61.5t6.5 28.5q0 12 -4 17t-2 22q8 18 22 44.5t29 26.5 q8 0 14 -12q4 -16 10 -28.5t6 -36.5q0 -27 -12 -83.5t-47 -166.5q-16 -55 -45 -115.5t-56.5 -113t-43.5 -85.5l-16 -11q-17 -11 -21 -15h2q-2 -2 -1 -10.5t1 -18.5q0 -27 -14.5 -41t-30.5 -29q-16 -18 -52 -36.5t-83 -28.5q-8 -2 -14.5 -2h-12.5q-33 0 -51.5 14.5 t-26.5 28.5q-2 4 -7 11t-5 15zM254 426v16.5t2 16.5q6 29 40 38t54 17q16 10 37 19.5t35 9.5q23 0 28 -13.5t7 -27.5q0 -8 2 -20.5t2 -26.5t-4 -27.5t-19 -21.5q-88 -48 -133 -48q-31 0 -41 19.5t-10 48.5z" />
<glyph unicode="&#xa2;" horiz-adv-x="1060" d="M-35 -20q-8 12 7.5 37.5t37 55t27.5 52.5q27 49 55.5 96t40.5 68l2 -2q35 37 61.5 75.5t53.5 71.5q-2 10 -4 21.5t-4 19.5q-6 25 -6 51q0 92 62 214t167 241q74 84 149.5 131t137.5 53q29 4 59.5 -8t48.5 -22q31 35 63.5 71.5t57.5 65t27 33.5q2 2 19 23.5t38.5 46 t34.5 34.5q10 10 26.5 15.5t22.5 5.5h-2q23 8 43 8q55 0 61 -47q16 -25 17 -48q0 -33 -29 -48t-51 -31q-12 -8 -42 -35t-62.5 -58.5t-60.5 -58.5t-38 -37q-6 -6 -13 -14t-18 -19q18 -31 29.5 -57.5t11.5 -48.5q0 -18 -8 -33q-8 -14 -24 -14q-14 0 -29.5 12t-22.5 25 q-8 23 -24 45q-27 -27 -50.5 -51.5t-33.5 -34.5q-6 -6 -35 -33t-63.5 -58.5t-63.5 -57t-37 -29.5q-51 -57 -109.5 -125t-111.5 -133q27 -12 59 -11q55 6 92 18.5t95 45.5q2 0 20.5 10t38 21.5t21.5 11.5q20 10 38.5 24.5t32.5 14.5q20 0 21 -43q-41 -27 -65.5 -43.5 t-44 -28.5t-48.5 -35l-2 -2q-4 0 -21.5 -8t-34 -15.5t-18.5 -9.5q-8 -6 -41.5 -21.5t-70.5 -27.5t-56 -12q-8 0 -33.5 12t-46.5 21q-72 -88 -79 -105q-31 -49 -51.5 -79.5t-39 -53t-42 -50.5t-60.5 -73q-20 -25 -49 -30.5t-33 0.5zM358 559q45 51 97.5 109.5t98.5 112 t76 85.5l29 33q4 10 25 28.5t21 20.5q27 31 35 45.5t18 28.5t41 41q2 2 2 8q0 8 -11.5 12t-21.5 4q-23 0 -57.5 -29.5t-71.5 -66.5t-64 -65q-102 -106 -152.5 -202.5t-64.5 -164.5z" />
<glyph unicode="&#xa3;" horiz-adv-x="1603" d="M135 74q0 27 22.5 49t78.5 24q10 2 42.5 11.5t43.5 23.5q45 59 93 129t89 135q-20 -6 -51 -9t-45 -5q-6 -2 -13.5 -2h-15.5q-20 0 -37.5 4t-22.5 15v-3q-8 27 17.5 60t56.5 43q16 4 67.5 6t117.5 2q29 47 48 78t23 37q14 16 25.5 32.5t11.5 12.5q33 47 63.5 101t69.5 97 q109 119 186.5 171.5t143 64.5t139.5 10q16 0 24.5 -9t14.5 -7l33 -2l26 -13q27 -14 35 -22q8 -6 9 -43v-19.5t-3 -21.5q-2 -23 -5 -50.5t-11 -53.5q-12 -51 -40 -84t-54.5 -46.5t-36.5 -5.5q-14 8 -14 27q0 23 22.5 53.5t42.5 57.5q10 16 10 34q0 29 -11 58.5t-15 40.5 q-8 23 -35 33t-41 8q-45 -12 -82 -25.5t-75 -40t-87 -82.5q-12 -16 -41.5 -57t-64.5 -88t-63.5 -85t-37.5 -48q-25 -29 -47 -56.5t-45 -56.5h228q27 0 26 -12q0 -10 -31.5 -23.5t-115.5 -17.5q-47 -4 -88 -10.5t-78 -14.5q-45 -59 -91 -122.5t-100 -135.5q-39 -53 -38 -67 q0 -14 20.5 -16.5t52.5 -8.5q25 -4 64 -9t63 -9q53 -8 88 -14.5t86 -14.5q10 -2 31 -6t31 -4q10 -2 37.5 1t44.5 5q47 4 78.5 18.5t82.5 22.5q47 10 85 32.5t65 45.5q14 14 20.5 19t20.5 24q6 8 15.5 28.5t24.5 40t38 19.5q23 -2 30 -21.5t7 -40.5q0 -31 -9 -39 q-18 -23 -20 -54.5t-18 -55.5q-18 -25 -51 -38t-62 -30q-23 -10 -65 -16t-64 -8q-43 -6 -109 -7q-61 0 -131.5 5.5t-136 11.5t-112 13t-60.5 9q-27 2 -63.5 10.5t-79.5 8.5q-39 0 -82 -13.5t-86 -52.5q-16 -14 -39 -14q-27 0 -48.5 24.5t-21.5 53.5z" />
<glyph unicode="&#xa4;" horiz-adv-x="765" d="M119 45q-18 0 12.5 56.5t155.5 183.5l51 51q-45 45 -45 123q0 31 10 64.5t31 66.5l4 -2q10 18 19.5 37.5t23.5 36.5q-14 12 -25.5 23t-21.5 17q-27 18 -65 57.5t-56 55.5q-27 25 -53.5 60.5t-18.5 52.5h-2q10 16 29.5 22t42.5 6q59 0 100 -28q14 -12 58.5 -64.5 t101.5 -124.5q23 8 45.5 11.5t36.5 5.5q16 2 44 -7.5t58 -25.5q29 33 65 73l54 60q31 35 72 66.5t53 23.5l2 2q12 -12 12 -43q0 -39 -16 -89t-41 -87q-18 -25 -80 -86l12 -63q2 -18 -3 -36t-11 -38q-2 -8 0 -17.5t-2 -19.5q-8 -12 -20.5 -25.5t-20.5 -27.5q0 -2 -1 -2h-1 q74 -94 136.5 -174t97.5 -121q18 -20 18 -35q0 -18 -45 2t-148 125q-27 29 -57.5 63.5t-60.5 71.5q-35 -31 -84 -52.5t-101 -21.5q-10 0 -20 1t-21 3q-14 4 -24 8.5t-21 8.5l-245 -227q-21 -21 -35 -21zM412 352q10 -10 10 -16t8 -10q16 -11 39 -11q39 0 89 25t87 68h-4 q12 14 21.5 32.5t17.5 32.5l16 13q15 12 17 20q0 2 1 2t1 2q0 4 -3 7t-5 9q12 37 12 62q-10 2 -10 16q0 8 1 15.5t1 15.5q0 23 -17 29l-37 6q-8 4 -20 7t-31 3h-10t-14 -2q-16 -2 -22.5 -15.5t-10.5 -17.5q-10 -2 -10 -10t-9 -14v-3q0 2 -10 0t-6 -6l-2 -2q-2 0 -1 -6 t-3 -12q-14 -14 -30.5 -34.5t-28.5 -37.5q-10 -20 -21.5 -45.5t-15.5 -50.5q4 -8 3 -13t1 -10v-2q0 -14 -3 -25.5t-1 -21.5z" />
<glyph unicode="&#xa5;" horiz-adv-x="1028" d="M100 313q-4 20 19.5 48t50.5 36q25 4 98 4q27 0 56.5 -1t62.5 -1q2 2 2 4q10 23 31.5 56t34.5 41l2 3t2 5l-6 33q-23 -2 -42.5 -3t-27.5 -6q-18 -6 -49 -8t-41 -4q-6 0 -12.5 -1t-12.5 -1q-18 0 -32.5 4t-16.5 10q-2 23 21.5 49.5t50.5 34.5q12 4 52 4.5t93 0.5 q-12 49 -25.5 78.5t-23.5 60.5t-18 82q-2 25 -21.5 62.5t-25.5 41.5v4q-2 0 -13.5 12.5t-27.5 8.5q-4 -2 -13 -2q-16 0 -16 18q0 10 6 24.5t10 20.5q8 10 20.5 21.5t22.5 21.5q16 18 33 19q8 0 15.5 -2t13.5 -2h2q29 -4 40 -28t23 -71q8 -33 19.5 -63.5t13.5 -77.5 q4 -20 14.5 -54t18.5 -81q2 -10 8 -42t14 -48v-7q10 0 21.5 -1t21.5 -1q23 27 42.5 45.5t17.5 20.5l2 2q20 27 61 68t91.5 84t99.5 73q4 0 18 14.5t29.5 31t17.5 16.5l2 2q4 -2 25.5 24.5t36.5 34.5q18 10 22 14.5t12.5 11.5t34.5 27v2q4 -2 12.5 6.5t6.5 8.5v4q8 4 12 3 t4 1q29 35 66 35q20 0 37.5 -7.5t27.5 -15.5q4 -6 3 -21.5t-60 -51.5q-14 -10 -25.5 -22.5t-34 -30t-73.5 -46.5q-12 -4 -25.5 -25.5t-30.5 -31.5l-79 -47l-70 -53q-51 -35 -101.5 -84.5t-93.5 -94.5q53 0 98.5 -1t69.5 -1q23 0 23 -10q0 -8 -28.5 -19.5t-100.5 -15.5 q-33 -2 -62.5 -6t-58.5 -10l-29 -31l-22 -20q2 -2 -1 -9.5t-17.5 -28t-51.5 -65.5q72 0 133.5 -1t94.5 -1q23 0 22 -10q0 -8 -28.5 -20.5t-100.5 -16.5q-51 -2 -94 -9t-84 -17h-6q-12 -18 -26.5 -45t-29.5 -50h-2q-2 -4 -4 -13t-10 -34.5t-33 -83.5q-27 -63 -25.5 -119.5 t-0.5 -66.5q-25 -25 -64 -25q-16 0 -29.5 8.5t-15.5 22.5q12 96 30.5 146.5t35.5 82.5q23 41 45 81t45 79l10 17q-25 -2 -46.5 -3.5t-31.5 -3.5q-18 -4 -48 -7t-44 -5q-6 -2 -13 -2h-16q-14 0 -26.5 3t-14.5 9z" />
<glyph unicode="&#xa6;" horiz-adv-x="577" d="M135 1251q0 16 15.5 39t56.5 56q47 59 104 59q16 0 37 -10l-2 -2h2q8 0 18.5 -6.5t12.5 -18.5q4 -10 6 -41t3 -56.5t1 -27.5q-2 -6 0 -48t6 -94t7.5 -95t3.5 -52q4 -14 5 -23t1 -20q0 -20 -5.5 -38.5t-3.5 -57.5q-2 -2 4.5 -23.5t2.5 -33.5l4 -58l-154 -6l-10 45 q-4 16 -9 62.5t-11.5 95.5t-10.5 72q-2 12 -8 45t-14.5 70.5t-16.5 68.5t-14 41q-8 14 -19.5 26.5t-11.5 30.5zM301 -174q0 31 4 67.5t14 104.5q4 20 5 129q0 68 -3.5 154t-7.5 165l119 3q6 -74 9 -136.5t5.5 -94.5t2.5 -17q0 -29 -3.5 -60.5t-3.5 -66.5q0 -12 1 -25.5 t3 -25.5l3 2q-4 -25 -13.5 -81.5t-23.5 -115.5q-10 -27 -13.5 -61.5t-8.5 -66.5t-25 -46q-5 -4 -15 -4q-12 0 -28.5 10t-16.5 31q-2 47 -3 77.5t-1 57.5z" />
<glyph unicode="&#xa7;" horiz-adv-x="1581" d="M10 -365q0 47 27 89q18 29 41.5 54t44.5 52q6 12 25.5 28.5t48.5 39.5q31 23 49 35t30 14q29 0 31 -17v-4q0 -18 -28 -41q-20 -14 -42 -41.5t-51 -62.5q-2 -4 -6 -12.5t-8 -18.5q-12 -14 -22 -57l-19 -53v2q-8 -8 0 -23q6 -29 39 -61q10 -12 27.5 -16.5t33.5 -4.5h17.5 t13.5 2q51 4 123 19.5t190 60.5q35 12 78 34.5t97 59.5q10 2 18 6.5t23 10.5l47 45q16 20 28.5 31.5t16.5 19.5q139 129 139 219q0 41 -32 70.5t-107 44.5q-20 4 -80 31.5t-168 48.5q-82 14 -138.5 32.5t-90.5 36.5l-70 43q-35 25 -41 56q-6 35 -6 57q0 27 10 47l43 37 l25 35q4 8 13 16t19 18q4 4 12.5 11.5t14.5 15.5l23 33q16 18 32 33q2 41 25 86v-2q4 8 18.5 10t16.5 8q10 12 9 31.5t3 27.5q10 16 21.5 32t21.5 30q57 70 132 133t152.5 110.5t143.5 67.5q74 25 180.5 51.5t206.5 26.5q86 0 154.5 -28.5t99.5 -102.5q14 -41 14 -78 q0 -59 -27.5 -107.5t-60 -84t-51.5 -62.5q-8 -12 -16 -18t-25 -21q-4 -8 -19.5 -17t-25.5 -20q-8 -8 -33.5 -29.5t-36.5 -25.5q-6 -2 -16 -2q-20 0 -38.5 13.5t-18.5 33.5q0 25 30 53l2 2q-2 0 26 6.5t52 24.5q10 8 21.5 26.5t32.5 41.5q4 4 8 18.5t8 22.5q18 29 26.5 65.5 t24.5 69.5v-2q6 12 -2 40.5t-26.5 58.5t-42 50.5t-48.5 16.5q-76 -8 -167 -19.5t-150 -34.5q-51 -18 -102.5 -44.5t-98.5 -63.5q-14 -8 -26.5 -9t-22.5 -10q-10 -10 -20.5 -26.5t-24.5 -26.5q-76 -70 -124 -143.5t-48 -136.5q0 -51 35 -89t117 -57q70 -14 152.5 -38.5 t161.5 -53.5t136 -58.5t78 -58.5q20 -29 20 -61q0 -51 -52 -98t-134 -84q20 -27 29 -56q2 -6 3 -12t1 -12q0 -23 -19 -60q-4 -2 -1 -11t-3 -13q-2 -8 -15 -13.5t-18 -21.5q-4 -8 -12 -21.5t-24 -31.5q-37 -39 -86.5 -83t-108.5 -89q-63 -55 -133 -86t-121 -47 q-88 -33 -146.5 -60.5t-115.5 -44t-145 -16.5q-100 0 -164 41t-64 116zM453 502q0 -8 1 -19.5t3 -21.5q8 -51 133 -111q45 -18 89 -32.5t89 -24.5l248 -47q51 -16 88 -43q41 20 57 43q18 16 29.5 33.5t11.5 35.5q0 29 -28 58q-25 33 -101 59.5t-172 52.5q-18 6 -31.5 17.5 t-29.5 15.5q-4 2 -10.5 2h-10.5q-12 0 -25.5 -1t-25.5 -1q-31 0 -59.5 14.5t-51.5 22.5q-86 23 -129 59q-53 -47 -63 -59q-12 -20 -12 -53z" />
<glyph unicode="&#xa8;" horiz-adv-x="583" d="M37 979q0 29 18 45q29 16 47.5 27.5t38.5 19.5q41 20 62 21q10 0 17 -12.5t7 -4.5v2q0 4 1 0t1 -14q0 -20 -6 -39q-6 -14 -15 -31.5t-11 -40.5q-4 -23 -29 -24.5t-39 -9.5q-14 -4 -34.5 -4.5t-31.5 -0.5h-2q-12 0 -15 10.5t-5 22.5q-4 16 -4 33zM354 979q0 12 3 24.5 t14 20.5q29 16 48 27.5t38 19.5q41 20 63 21q10 0 17.5 -12.5t7.5 -4.5v2q0 4 1 0t1 -14q0 -8 -2 -18.5t-6 -20.5q-4 -14 -14.5 -31.5t-12.5 -40.5t-26.5 -24.5t-41.5 -9.5q-14 -4 -33.5 -4.5t-29.5 -0.5h-2q-14 0 -17.5 10.5t-5.5 22.5q0 6 -1 15.5t-1 17.5z" />
<glyph unicode="&#xa9;" horiz-adv-x="1169" d="M27 483q0 59 12 127q10 59 43 131t78 131q35 49 86 106.5t102 94.5q23 14 37 14q12 2 24.5 5.5t20.5 11.5q0 4 4 8l4 6q4 8 10.5 16.5t16.5 12.5q57 23 128 31t132 12q43 4 97.5 -6t74.5 -45q12 -18 20.5 -35t8.5 -31t-8 -22q20 -6 36.5 -16.5t36.5 -16.5q16 -2 21.5 -5 t19.5 -7q6 -2 1 -22.5t3 -20.5h8q16 0 35 -9q72 -39 118 -131t46 -207q0 -76 -24.5 -154.5t-81.5 -150.5q-6 -6 -12.5 -12t-12.5 -14q-8 -6 -14 -13.5t-15 -13.5q-14 -12 -24 -23.5t-17 -19.5q-12 -16 -34.5 -34.5t-46.5 -37.5q-78 -59 -174.5 -92t-191.5 -45t-177 -8 q-100 6 -189.5 65.5t-145.5 167t-56 252.5zM109 471q0 -14 6 -14h4q8 -2 8 -15q-6 -106 33 -184t102.5 -125t124.5 -63q10 -2 19 -15l4 -4q6 -10 16 -10t21.5 7t23.5 9q102 8 204.5 46t191.5 99.5t151 137.5q20 27 36.5 50.5t30.5 45.5q4 6 15 10l4 3q12 4 16 10q4 4 7 13 t6 17l4 17q4 12 6 14q20 43 28.5 82t8.5 74q0 74 -32 128t-79 93t-96 61.5t-84 30.5q-33 -33 -45 -33q-8 0 -8 15q0 8 2 17t4 16q-16 4 -45 9t-47 5q-31 4 -59.5 5t-47.5 3q-20 4 -29 6q-16 8 -2 17q29 16 58.5 21t58.5 5q33 0 65.5 -5t67.5 -9q8 18 8 33q0 31 -35.5 36 t-95.5 5q-92 0 -167.5 -36t-136 -91.5t-107.5 -112.5q-8 -10 -17.5 -16.5t-21.5 -14.5q-8 -4 -15.5 -10t-13.5 -18q-33 -59 -77 -121t-54 -109q-2 -14 -11 -61t-9 -74zM248 375q0 82 55 190.5t148 214.5q66 78 136 121t124 43q29 0 56.5 -16.5t41.5 -16.5h2 q49 -8 67.5 -37.5t18.5 -60.5t-12 -53q-12 -18 -39 -19q-37 0 -47 21q-12 29 -47 45t-64 16q-33 0 -67.5 -26.5t-71.5 -65.5q-111 -113 -154 -212t-43 -157q0 -18 2 -26q2 -12 23.5 -26.5t52.5 -10.5q82 10 180.5 54t167.5 102q37 33 80 56.5t49 29.5q10 6 15 6q10 0 10 -15 q0 -20 -12 -26l-16.5 -16.5t-39.5 -22.5q-27 -14 -42 -49t-56 -58q-39 -23 -55.5 -32t-25.5 -14t-26.5 -13t-56.5 -29q-6 -4 -34.5 -14t-64.5 -21.5t-68 -19.5t-44 -8q-8 0 -38.5 15.5t-43.5 17.5h-2q-35 8 -42 37.5t-13 52.5q-2 10 -3 21.5t-1 21.5z" />
<glyph unicode="&#xaa;" horiz-adv-x="755" d="M94 618q0 4 1 10.5t3 14.5q18 74 75.5 190.5t164.5 229.5q23 23 61.5 42t75.5 33.5t53.5 22.5t-8.5 8h-2q4 2 10.5 4.5t12.5 2.5q12 0 22 -5.5t21 -5.5h2q53 0 69.5 -25.5t16.5 -54.5q0 -16 -3 -30.5t-7 -20.5v-2q-6 -6 -15 -6q-23 0 -22 23q0 27 -19 45q-4 4 -22 4h-2 q-4 0 -9.5 3t-11.5 3q-59 -6 -141 -82q-88 -86 -131 -148.5t-58.5 -108.5t-23.5 -81q-2 -10 6 -12q4 -2 12 0q25 8 57.5 31.5t65.5 52l55 47.5q8 8 15.5 11t11.5 7q8 6 12 13.5t11 11.5q84 70 118.5 100.5t55.5 48.5q25 20 43 21q35 0 47 -39v-6q0 -18 -14.5 -25.5 t-22.5 -17.5q-12 -14 -25.5 -45t-36.5 -72q-8 -14 -11 -22.5t-9 -20.5q-2 -2 -3 -15.5t-3 -17.5q-6 -10 -7 -21.5t3 -6.5q0 -2 8 5t16 11q4 2 13.5 5t11.5 3l2 2q16 6 18 6h5q2 0 8 3t24 16q12 6 19 6q12 0 12 -10q0 -12 -18 -25q-45 -33 -71 -46t-54 -42l-2 -2 q-2 0 -14.5 -10.5t-14.5 -14.5q-6 -6 -10 -14t-15 -14h2q-12 -6 -24 -6q-8 0 -15.5 2t-11.5 4q-4 4 -9 5t-9 9q-2 6 -2 21q0 29 14 67.5t39 83.5q31 55 38 78.5t15 44.5q-20 -18 -42.5 -39.5t-55.5 -48.5l-25 -14q-6 -6 -19 -20.5t-20 -18.5q-47 -39 -84.5 -76t-80.5 -64v2 q-2 -2 -4.5 -5t-6.5 -7v-2q-6 -2 -10 -2h-8q-8 -6 -17.5 -10t-19.5 -8q-8 -2 -16.5 -5.5t-16.5 -3.5q-16 0 -29.5 11.5t-13.5 33.5z" />
<glyph unicode="&#xab;" horiz-adv-x="901" d="M160 373q4 0 10 30.5t45 57.5q2 -2 49 34.5t98 90.5q4 4 11.5 7t9.5 7q10 8 20.5 12t18.5 15v4q14 14 27 33q35 45 80.5 86t56.5 51q12 12 18 12q8 0 10 -14.5t1 -29.5l-1 -15v-9q-2 -39 -18 -60t-37 -21q-2 0 -1 -5.5t-3 -11.5l-12 -2q-20 -20 -27.5 -26.5t-19.5 -32.5 q-2 -2 -18.5 -9.5t-33 -13.5t-18.5 -10l-23 -29q-37 -45 -69.5 -62.5t-54.5 -35.5q-2 2 -15 -18l-14 -21q-6 -8 5 -35.5t32.5 -63.5t44 -72t35.5 -60q12 -25 22 -29t16.5 -14.5t6.5 -53.5q0 -55 -15.5 -77.5t-31.5 -22.5t-23 16l-2 2l-12 41q-4 16 -5 18.5t-10 8.5l-8 35 l-2 -2q-2 0 -4 8t-6 8v2q-12 8 -22.5 31t-26.5 39q-6 4 -5 11t-3 7q0 4 -12.5 28t-28 56.5t-26.5 62t-9 42.5zM434 373q4 0 10.5 30.5t44.5 57.5q2 -2 49.5 34.5t98.5 90.5q4 4 11 7t9 7q10 8 20.5 12t18.5 15v4q14 14 27 33q35 45 81 86t56 51q12 12 19 12q8 0 10 -14.5 t1 -29.5l-1 -15v-9q-2 -39 -18.5 -60t-36.5 -21q-2 0 -1 -5.5t-4 -11.5l-12 -2q-20 -20 -27.5 -26.5t-19.5 -32.5q-2 -2 -18.5 -9.5t-33 -13.5t-18.5 -10l-22 -29q-37 -45 -70 -62.5t-55 -35.5q-2 2 -15 -18l-14 -21q-6 -8 5.5 -35.5t33 -63.5t44 -72t34.5 -60 q12 -25 22.5 -29t16.5 -14.5t6 -53.5q0 -55 -15.5 -77.5t-31.5 -22.5t-23 16l-2 2l-12 41q-4 16 -5 18.5t-9 8.5l-8 35l-2 -2q-2 0 -4.5 8t-6.5 8v2q-12 8 -22 31t-27 39q-6 4 -5 11t-3 7q0 4 -12.5 28t-27.5 56.5t-26.5 62t-9.5 42.5z" />
<glyph unicode="&#xac;" horiz-adv-x="1507" d="M137 608q0 16 18.5 29.5t63.5 15.5q23 6 66 9.5t93 4.5t93 3t66 4l23 -1q24 -1 49.5 -2t31.5 -3l365 -11q29 2 56.5 0t57.5 -2h21.5t21.5 2v2q12 -2 51 0.5t78 2.5h34.5t29.5 -5q16 -8 43.5 -11t50.5 -7t25 -18q-2 -2 -3.5 -6.5t-7.5 -8.5q4 -8 -17.5 -27.5t-27.5 -31.5 q-14 -27 -17 -41t-6 -27.5t-18 -38.5q-12 -23 -38.5 -65.5t-51 -85.5t-33.5 -64q-10 -31 -28.5 -46t-34.5 -15q-23 0 -23 31q0 6 1 13t4 15q8 25 22 67t31.5 86t32.5 70q18 35 20 56.5t18 56.5q-27 -2 -52 -5t-58 -3q-31 0 -72 6q-10 2 -77.5 8t-157.5 6h-63t-62 -4 q-6 -4 -34 -5t-63 -1h-88h-32.5t-18.5 -2q-10 -2 -53 -2t-96.5 -1t-98.5 -2t-61 -5q-8 -8 -25.5 0t-33 25.5t-15.5 33.5z" />
<glyph unicode="&#xad;" horiz-adv-x="0" />
<glyph unicode="&#xae;" horiz-adv-x="1169" d="M27 483q0 59 12 127q10 59 43 131t78 131q35 49 86 106.5t102 94.5q23 14 37 14q12 2 24.5 5.5t20.5 11.5q0 4 4 8l4 6q4 8 10.5 16.5t16.5 12.5q57 23 128 31t132 12q43 4 97.5 -6t74.5 -45q12 -18 20.5 -35t8.5 -31t-8 -22q20 -6 36.5 -16.5t36.5 -16.5q16 -2 21.5 -5 t19.5 -7q6 -2 1 -22.5t3 -20.5h8q16 0 35 -9q72 -39 118 -131t46 -207q0 -76 -24.5 -154.5t-81.5 -150.5q-6 -6 -12.5 -12t-12.5 -14q-8 -6 -14 -13.5t-15 -13.5q-14 -12 -24 -23.5t-17 -19.5q-12 -16 -34.5 -34.5t-46.5 -37.5q-78 -59 -174.5 -92t-191.5 -45t-177 -8 q-100 6 -189.5 65.5t-145.5 167t-56 252.5zM109 471q0 -14 6 -14h4q8 -2 8 -15q-6 -106 33 -184t102.5 -125t124.5 -63q10 -2 19 -15l4 -4q6 -10 16 -10t21.5 7t23.5 9q102 8 204.5 46t191.5 99.5t151 137.5q20 27 36.5 50.5t30.5 45.5q4 6 15 10l4 3q12 4 16 10q4 4 7 13 t6 17l4 17q4 12 6 14q20 43 28.5 82t8.5 74q0 74 -32 128t-79 93t-96 61.5t-84 30.5q-33 -33 -45 -33q-8 0 -8 15q0 8 2 17t4 16q-16 4 -45 9t-47 5q-31 4 -59.5 5t-47.5 3q-20 4 -29 6q-16 8 -2 17q29 16 58.5 21t58.5 5q33 0 65.5 -5t67.5 -9q8 18 8 33q0 31 -35.5 36 t-95.5 5q-92 0 -167.5 -36t-136 -91.5t-107.5 -112.5q-8 -10 -17.5 -16.5t-21.5 -14.5q-8 -4 -15.5 -10t-13.5 -18q-33 -59 -77 -121t-54 -109q-2 -14 -11 -61t-9 -74zM229 217q2 10 8.5 38t20.5 60q10 18 26.5 49t33 60t22.5 39q14 23 31.5 49.5t34.5 48.5q-12 12 -13 29 q0 23 22.5 40t37.5 9v-2l4 -6l22 26q16 25 46 59t48 56q6 4 16.5 23.5t16.5 25.5t28.5 10.5t31.5 6.5q16 8 36.5 14t36.5 6q23 0 23 -16q-2 -14 -9.5 -34t-29.5 -38q-12 -10 -29.5 -21.5t-25.5 -21.5q-12 -16 -41 -35.5t-39 -29.5q-6 -8 -28.5 -36t-39.5 -48l23 -25 q41 0 70.5 6t50.5 6q78 4 146.5 47t104.5 86q23 29 32 49.5t7 59.5q-2 53 -71.5 78.5t-177.5 25.5q-43 0 -82 -5t-72 -13q-14 -2 -28.5 -11.5t-28.5 -13.5q-12 -4 -23.5 -8t-21.5 -2q-25 10 -25 25q0 12 28.5 25.5t98.5 21.5h8q12 0 23 2q18 4 43.5 4h52.5h55.5t46.5 -2 q55 0 116.5 -21.5t103.5 -58.5t42 -86q0 -29 -22.5 -63.5t-75.5 -69.5q-6 -2 -12 -3t-10 -5l-39 -23q-33 -18 -58.5 -29.5t-72.5 -29.5q-27 -10 -66 -10h2q-14 -8 -31.5 -8.5t-33.5 -4.5l-17 -2q-16 -2 -33 -6l19 -22q10 -14 53 -46t78 -69q6 -4 6 -8t2 -7q4 -2 10.5 -5 t8.5 -7q14 -10 36.5 -35.5t42.5 -38.5q29 -10 21 -18t-14 -6q-12 0 -42 16.5t-63 37t-53 34.5q-20 16 -50 36.5t-55.5 39t-31.5 24.5q-2 4 -29 23.5t-49 38.5q-27 -35 -30 -43t-7 -19q-8 -10 -26.5 -22t-22.5 -23q-8 -14 -21.5 -36.5t-15.5 -32.5q-2 -8 -23.5 -39t-31.5 -68 q-11 -39 -27 -39q-12 0 -20.5 13.5t-8.5 23.5z" />
<glyph unicode="&#xaf;" horiz-adv-x="569" d="M0 981q0 14 18 23q18 6 83 8t167 2q49 0 108.5 -1t111 -3t77.5 -6q51 -6 51 -29q0 -8 -22.5 -16.5t-65.5 -6.5q-23 2 -65.5 0t-87.5 -4t-80 -2t-85 -8t-73 -16q-16 -8 -47 -11.5t-47 -7.5q-6 -2 -15.5 -4t-13.5 2q-2 2 -3 5t-5 14q-2 4 -1 9t1 9q0 14 -3 24.5t-3 18.5z " />
<glyph unicode="&#xb0;" horiz-adv-x="638" d="M215 901q0 53 38 92t91 39q55 0 93 -39t38 -92t-38 -92t-93 -39q-53 0 -91 39t-38 92zM262 899q0 -33 24.5 -57.5t57.5 -24.5q35 0 58.5 24.5t23.5 57.5q0 35 -23.5 58.5t-58.5 23.5q-33 0 -57.5 -23.5t-24.5 -58.5z" />
<glyph unicode="&#xb1;" horiz-adv-x="997" d="M115 -29v-2q-8 31 17.5 71t55.5 52q18 4 68.5 6t120 3t139.5 1h203q27 0 26 -14q0 -12 -31.5 -27.5t-115.5 -23.5q-61 -4 -112.5 -15.5t-96.5 -21.5h-4q-10 0 -14 4t-9 0q-20 -4 -25 -14t-28 -19q-20 -8 -55 -11t-51 -7q-6 -2 -13.5 -2h-17.5q-20 0 -36.5 5t-20.5 15z M207 541q-8 31 17.5 70.5t56.5 52.5q10 4 40.5 5t73.5 1q25 0 52.5 -1t58.5 -1l31 77v3q6 8 16 14t14 12h-2q2 2 1 11.5t-1 17.5q0 25 12.5 39t26.5 30t44 37t69 29q8 2 20 2q29 0 45.5 -14.5t22.5 -30.5q4 -4 8 -10t4 -17q0 -8 -7 -20t-26 -33q-8 -12 -25.5 -25.5 t-29.5 -29.5q-16 -20 -31.5 -45t-29.5 -47l-4 -4q82 -2 151.5 -4.5t108.5 -2.5q27 0 26 -14q0 -12 -31.5 -27.5t-115.5 -23.5q-59 -4 -109.5 -14.5t-93.5 -20.5q-4 -16 -12 -29q-12 -18 -27.5 -28.5t-23.5 -28.5v2q-8 -18 -18.5 -42.5t-20.5 -47.5q-16 -41 -22.5 -60.5 t-6.5 -29.5q0 -12 4 -16.5t2 -20.5q-6 -18 -18.5 -45t-24.5 -27q-6 0 -12 13q-4 16 -9 28.5t-5 36.5q0 29 11 84t40 166q2 10 5 20.5t5 18.5q-20 -2 -37.5 -3t-28.5 -5q-20 -8 -55 -11.5t-51 -7.5q-6 -2 -13.5 -2h-17.5q-20 0 -36.5 5t-20.5 16v-2z" />
<glyph unicode="&#xb2;" horiz-adv-x="1157" d="M82 614q-2 6 2 17q2 4 2 8l2 4q25 37 68 37q10 4 53 9t96 11.5t94 6.5q4 6 7.5 9t7.5 7l6 4l1 1t3 1v2q61 41 134 118t149 191q4 10 12 17.5t16 15.5q20 16 29 31q2 4 1 9t-1 9q-2 4 -2 17q0 10 5 21t11 22q6 14 11.5 27.5t5.5 23.5q0 92 -76 92q-125 0 -215 -80 q-14 -14 -28.5 -33.5t-29.5 -42.5q-6 -10 -13 -21t-15 -22q-4 -6 -17 -14l-8 -8l-8 -8q-6 -10 -14 -11q-12 0 -22.5 15.5t-10.5 32.5q0 12 6 20q10 16 21.5 33.5t23.5 30.5l25 22q12 8 18 14q4 4 7 7.5t5 5.5q2 6 15 18q59 45 127.5 70.5t132.5 25.5q35 0 77 -12t72.5 -40 t30.5 -75q0 -104 -39 -174q-8 -16 -17 -24t-20 -17q-8 -6 -16 -13t-19 -19q-2 -2 -5 -9.5t-11 -21.5l-18 -35q-57 -72 -111.5 -110.5t-101.5 -67.5q-12 -8 -24.5 -15.5t-24.5 -17.5q-4 -8 -27 -22q16 0 32.5 1t30.5 3h52q53 0 99 -1t122 -24q33 -10 54.5 -24.5t43.5 -36.5 q39 -33 39 -62q0 -23 -28.5 -51.5t-51.5 -28.5q-18 0 -18 19q0 6 4 14t6 16q8 14 8 21q0 31 -60.5 57.5t-162.5 40.5l-29 6q-10 4 -21.5 6.5t-21.5 2.5q-14 0 -27.5 -1t-27.5 -1t-27.5 -1t-29.5 -1q-10 0 -17 -3q-4 0 -9 -1t-9 -1q-23 -23 -66 -50t-88 -46.5t-78 -19.5 q-18 0 -34 6q-10 4 -20.5 7t-16.5 11q-31 23 -31 49zM182 606h2q18 0 37 4t39 8q10 4 18.5 5.5t14.5 3.5q14 4 27.5 8t29.5 16q6 0 8 -1t-14 1h-18q-55 -2 -85 -9t-59 -36z" />
<glyph unicode="&#xb3;" horiz-adv-x="903" d="M31 674q-2 14 0 31q4 4 4 8q10 10 10 16q23 49 67 81t89 32q39 0 39 -17q0 -12 -17 -22q-29 -25 -80 -49q-14 -4 -28.5 -25.5t-18.5 -38.5q-6 -41 15.5 -66.5t52.5 -48.5q29 -16 63.5 -22t75.5 -6q4 0 10 -1t9 -1q6 -2 14 -2q4 0 12 4l19 6q49 10 83.5 21.5t94.5 43.5 q10 8 17 9.5t16 1.5q-2 0 1 3t11 13q8 12 12 17q51 43 82 106l7 7l5 5q8 8 9 8q4 14 7 26.5t3 27.5q0 37 -19 76q-2 4 -12 10l-12 10q-14 16 -30.5 30.5t-41.5 22.5q-6 -6 -16 -10q-27 -18 -61 -37.5t-56 -23.5h-12q-16 -2 -24.5 -4.5t-24.5 -10.5q-6 -2 -12.5 -5t-14.5 -3 q-6 0 -12.5 -1t-10.5 -1q-39 0 -60.5 17.5t-12.5 43.5q25 76 108 88q6 2 15.5 2.5t17.5 2.5q6 0 12 1t13 1q4 0 8 2q20 4 37 4q25 0 55.5 -6.5t54.5 -14.5q47 33 77 61.5t44 67.5q6 18 6 33q0 59 -108 74q-25 2 -60 0q-8 -2 -26 -2q-10 -2 -21.5 -3t-23.5 -5 q8 -29 -11.5 -61t-49.5 -57.5t-58 -35.5q-6 -2 -12.5 -3t-12.5 -1q-49 0 -49 45q0 20 12 41q0 2 4 6q4 6 12.5 14.5l16.5 16.5q35 31 74 53q-14 10 -31 10q-37 0 -37 21q0 10 10.5 15t30.5 1q43 -8 66 -27q33 16 73.5 27.5t98.5 11.5q41 0 86 -8t71 -31q20 -20 21 -55 q0 -14 -4 -31.5t-8 -33.5q-2 -14 -13.5 -40t-29.5 -42q-20 -27 -45 -42.5t-54 -31.5q2 -2 6 -2q25 -8 50.5 -18.5t40.5 -26.5q10 -10 27.5 -29.5t23.5 -38.5q6 -20 6 -53q0 -20 -3 -41.5t-11 -38.5q-4 -10 -11 -20q0 -2 -1 -3t-1 -3q-27 -76 -87 -126.5t-135 -79 t-144.5 -39.5t-116.5 -11q-137 0 -197.5 50t-64.5 107q0 8 -1 13.5t-3 9.5zM362 965q1 -11 19 -11q25 0 56.5 10.5t41.5 12.5q29 10 60 24q-25 2 -43 3q-57 0 -93 -10.5t-41 -24.5v-4zM367 1169q0 -8 6 -8q8 0 22 13q4 4 12.5 9t12.5 11q25 29 22 51h-2q-2 -2 -5 -6t-7 -8 q-12 -6 -25 -19l-12 -8l-8 -4q-16 -23 -16 -31z" />
<glyph unicode="&#xb4;" horiz-adv-x="387" d="M0 928q0 16 29 35q72 37 130 88t104 96t77 65q20 16 33.5 -8t13.5 -57q0 -20 -5 -37.5t-20 -28.5l-28 -17q-29 -17 -71 -43t-84 -51.5t-70.5 -43t-30.5 -19.5q-21 -6 -37 -6q-27 0 -37 17q-4 4 -4 10z" />
<glyph unicode="&#xb5;" d="M-201 -479q0 25 8.5 57.5t30.5 71.5q27 137 58.5 209.5t58.5 122.5q35 59 73 117.5t76 113.5q14 20 30 43t28 43q18 37 38.5 74t41.5 71q35 55 66.5 89t51.5 67q16 23 18.5 36t6.5 28q8 23 25.5 33t31.5 14q35 14 68 27.5t55 13.5q29 0 35 -25v2q2 -6 2 -16 q0 -25 -22.5 -48.5t-81.5 -86.5q-47 -49 -82 -92.5t-62 -79.5v-3h-2l-26 -41h-2q-51 -80 -74 -137t-33 -102q-2 -10 0 -12t10 -5q6 -2 17 0q31 10 74.5 42t88 70t74.5 65q10 10 19.5 14t15.5 10q10 6 15.5 15.5t13.5 15.5q74 63 141.5 134t116.5 126t67 72q29 27 62 26 q47 0 59 -51q8 -27 -11 -40t-30 -27q-8 -12 -32.5 -48t-54 -81.5t-56.5 -87.5t-41 -68q-10 -20 -13 -30.5t-14 -26.5v2q-2 -4 -4 -21.5t-4 -26.5q-8 -14 -9 -28.5t3 -7.5l-10 -91q-4 0 -19.5 -14t-17.5 -18q-8 -8 -14.5 -19.5t-18.5 -19.5h2q-8 -4 -17 -5t-18 -1 q-29 0 -34 6q-4 4 -11.5 7t-11.5 13q-4 16 -4 29q0 37 19.5 87t52.5 112q27 51 39 79.5t18 48t14 38.5q-29 -27 -59.5 -55.5t-71.5 -63.5q-6 -4 -18.5 -10.5t-16.5 -8.5l-51 -53q-63 -51 -112.5 -100t-108.5 -84v2q-2 -2 -5 -7.5t-9 -9.5v-2q-8 -2 -14.5 -2t-10.5 -2 q-12 -8 -24.5 -13t-22.5 -11q-18 -8 -43 -9q-49 0 -57 43q-29 -43 -76 -137q-45 -94 -51 -153.5t-11 -69.5q29 47 56 47q29 0 28 -37q0 -18 -8 -37l-10 -18t-25 -27q-8 -8 -25.5 -33.5t-40 -54t-48.5 -45.5h-2l-30 6t-24 17v-2q-2 8 -3 19t-1 26z" />
<glyph unicode="&#xb6;" horiz-adv-x="1323" d="M-47 -510q0 8 6 16q29 53 44 86t30.5 61t40 64.5t67.5 98.5q6 8 33 56t66 119.5t82 153.5t80.5 159t64.5 132q0 4 7 33t18.5 64.5t20.5 65.5t13 38q-111 25 -168 61.5t-77.5 77.5t-20.5 76q0 31 8 55.5t13 36.5q8 18 23 57t49 93.5t100 113.5q14 12 51 37t95 48.5 t134 31.5q20 14 46 19.5t52 5.5q59 0 113.5 -18.5t67.5 -35.5q84 10 144.5 14.5t92.5 0.5q35 10 54 4h4q6 0 12 -4t2 -15q-2 -10 -17.5 -39.5t-28.5 -55t-13 -27.5q-6 -6 -28 -47.5t-47.5 -93.5t-45 -94t-23.5 -50q-10 -45 -31.5 -65.5t-46.5 -73.5q-2 -2 -8 -22.5 t-18 -35.5q-29 -66 -77 -166t-106.5 -216.5t-120 -235.5t-118.5 -223.5t-102.5 -178t-71.5 -102.5q-39 -45 -72 -101.5t-76 -84.5q-12 -9 -28 -9q-18 0 -19 15q0 8 6 16q29 53 49.5 84t40 55.5t42 62.5t53.5 107q100 225 199.5 403.5t162.5 317.5q0 4 7.5 33t18.5 64.5 t20 65.5t14 38q4 16 23.5 60t40 91.5t28.5 69.5q8 18 20.5 50t25.5 66t23 54q8 14 22.5 45t31 67t26.5 58q-8 0 -19 1t-26 1q-20 0 -40.5 -5t-39.5 -21q-6 -6 -27.5 -47.5t-47 -93.5t-45 -94t-23.5 -50q-10 -45 -31.5 -65.5t-46.5 -73.5q-2 -2 -8 -22.5t-18 -35.5 q2 2 -16.5 -37t-48.5 -99t-62.5 -129t-63.5 -130t-50 -100l-18 -39q-41 -78 -92 -167t-104 -173t-103 -148q-41 -45 -72.5 -101t-74.5 -85q-12 -8 -29 -8q-18 0 -18 14z" />
<glyph unicode="&#xb7;" horiz-adv-x="585" d="M197 840q0 12 3 23t13 20q25 16 43 26.5t35 18.5q18 10 32.5 13t22.5 3q23 0 25 -14v-17q0 -6 -1 -13t-5 -17q-4 -14 -13.5 -29.5t-11.5 -36.5q-2 -20 -24.5 -21t-36.5 -10q-12 -4 -31 -4h-27h-2q-12 0 -15 10.5t-5 20.5q0 4 -1 11t-1 16z" />
<glyph unicode="&#xb8;" horiz-adv-x="516" d="M61 -266q0 47 33 47q10 0 17 -21q12 -53 122 -53q47 0 62.5 22.5t15.5 53.5q0 61 -92 61q-4 0 -9 -1t-9 -1q-14 0 -24.5 4t-18.5 7q-10 4 -15.5 6t-5.5 10q0 12 27 37q25 23 43 45t35 49q4 10 14 10h23h6q18 0 22 -10q-16 -27 -33.5 -44t-17.5 -28q0 -8 9 -7t16 1 q23 0 47 -13t59 -42q16 -14 25.5 -29.5t9.5 -40.5v-12t-2 -12q-2 -14 -7 -27.5t-18 -24.5q-31 -27 -54.5 -31.5t-39.5 -15.5q-25 -14 -34 -20t-38 -6q-25 0 -49 6t-53 14q-66 31 -66 66z" />
<glyph unicode="&#xb9;" horiz-adv-x="632" d="M70 557q0 12 12 31q16 18 53 31.5t62 19.5l12 2q4 20 22 53q10 16 21.5 45t23.5 58v8v2q-2 8 0 22q10 33 29 71t33 65q4 4 4 12l4 10l6 23q6 25 13.5 49t19.5 47q14 25 30.5 53.5t30.5 52.5q6 10 10.5 18.5t8.5 16.5q-31 -23 -75 -57.5t-73 -59.5q-20 -18 -30 -24 q-8 -4 -15.5 -8t-13.5 -4q-14 0 -14 16q0 10 6 18.5t14 16.5q4 2 6 4l4 4q2 4 9 10q0 2 2 4q4 4 30.5 31t49.5 49q10 10 18 17.5t10 9.5q43 41 81 67.5t52 26.5q20 0 55 -12.5t33 -36.5q0 -2 -2 -5t-4 -7h-2q-4 -14 -45 -95q-6 -8 -6 -14l-4 -4l-4 -4q-8 -12 -16.5 -24.5 t-14.5 -22.5q-6 -8 -11 -19.5t-9 -21.5q-6 -12 -12.5 -25.5t-14.5 -23.5q-8 -14 -28.5 -54.5t-37.5 -74.5q-8 -14 -14 -27.5l-10 -22.5q-6 -14 -6 -20q0 -2 1 -6t1 -8q0 -10 -10 -27q-20 -39 -39 -78t-33 -82q23 0 58.5 -3t68.5 -7q47 -10 69 -20q10 -14 11 -21 q0 -14 -29 -20q-16 -2 -40.5 0t-53.5 4q-8 0 -15.5 1t-13.5 1q-14 2 -27.5 4t-27.5 2q-8 0 -16.5 -1t-18.5 -3q-4 -25 -18 -33q-4 -2 -11 -2q-8 0 -15 5t-11 7q-6 6 -10 6h-3q-10 0 -36 -16q-8 -4 -11 -6q-2 -2 -8 -5t-12 -5q-15 -6 -27 -6q-27 0 -26 22z" />
<glyph unicode="&#xba;" horiz-adv-x="722" d="M115 690q0 43 16 100.5t55 120.5q16 29 34 61t38 60q6 6 13.5 8t9.5 7q0 4 4 16t10 16q29 39 65.5 62.5t75.5 23.5q35 0 68 -18q6 0 13 2t15 2q14 0 30 -8t16 -29q0 -8 -1.5 -12t-1.5 -8q0 -16 13 -17q4 0 10 1t14 1q18 0 48 6.5t59 11.5t39 5q6 -2 6 -10t-6 -15.5 t-10 -11.5l-32 -9t-71 -19.5t-61 -12.5l-15 -2q-2 -18 -9 -39.5t-17 -46.5q-2 -8 -4 -19.5t-7 -23.5q-12 -18 -25 -36.5t-26 -39.5q-8 -16 -18 -33.5t-25 -35.5q-47 -61 -112.5 -114.5t-118.5 -53.5q-25 0 -38 8t-28 16q-27 20 -26 86zM197 659q4 -10 3 -16t5 -8q4 -4 16 -4 q31 0 85 43t102 112h-2q14 18 26 43t21 41l17 20q17 19 19 28q4 8 2 11t-2 11v2q20 49 23 74q-10 0 -32.5 2t-38 3t-1.5 1h4q0 2 -14 5t-20 7q-14 -4 -19.5 1t-9.5 -1q-8 -4 -9 -14t-12 -21l-2 -2q0 2 -8 -2t-6 -4v-4q-4 -2 -5 -9t-5 -13q-14 -25 -31.5 -52.5t-34.5 -50.5 q-14 -27 -29.5 -58.5t-23.5 -64.5q0 -8 -3 -14t-3 -10v-2q0 -16 -6 -29.5t-6 -24.5z" />
<glyph unicode="&#xbb;" horiz-adv-x="800" d="M42 2l1 14v9q4 39 19.5 60t35.5 21q2 0 2 5.5t2 11.5l13 2q23 20 29 26.5t18 32.5q2 4 18.5 10.5t32.5 13.5t18 9l23 29q37 45 70.5 62.5t54.5 35.5q2 -2 15 18l14 21q6 8 -5.5 35.5t-33 63.5t-44 72t-34.5 60q-12 27 -22.5 30t-16.5 13.5t-6 53.5q0 55 15 77.5t32 22.5 q16 0 22 -16l2 -2l13 -41q4 -16 5 -18.5t9 -8.5l8 -35l2 2q4 0 6 -8t5 -8v-2q12 -8 23 -30.5t26 -39.5q6 -4 5 -11t3 -7q0 -2 12 -26.5t27.5 -57.5t27 -62.5t9.5 -42.5q-4 0 -9.5 -29.5t-46.5 -58.5q-2 4 -48 -33.5t-99 -91.5q-2 -2 -9 -6t-12 -8q-8 -8 -19 -12t-19 -15v-4 q-14 -14 -27 -33q-33 -45 -80 -85.5t-57 -51.5q-13 -12 -19 -12q-8 0 -10 15.5t-1 29.5zM316 2l1 14v9q4 39 19.5 60t36.5 21q2 0 2 5.5t2 11.5l12 2q23 20 29 26.5t18 32.5q2 4 18.5 10.5t33 13.5t18.5 9l22 29q37 45 71 62.5t54 35.5q2 -2 15 18l14 21q6 8 -5 35.5 t-32.5 63.5t-44 72t-35.5 60q-12 27 -22.5 30t-16.5 13.5t-6 53.5q0 55 15.5 77.5t31.5 22.5t23 -16l2 -2l12 -41q4 -16 5 -18.5t9 -8.5l9 -35l2 2q4 0 6 -8t4 -8v-2q12 -8 23.5 -30.5t25.5 -39.5q6 -4 5 -11t3 -7q0 -2 12.5 -26.5t28 -57.5t26.5 -62.5t9 -42.5 q-4 0 -9 -29.5t-46 -58.5q-2 4 -48 -33.5t-100 -91.5q-2 -2 -9 -6t-11 -8q-8 -8 -19.5 -12t-19.5 -15v-4q-14 -14 -27 -33q-33 -45 -80 -85.5t-57 -51.5q-12 -12 -18 -12q-8 0 -10.5 15.5t-1.5 29.5z" />
<glyph unicode="&#xbc;" horiz-adv-x="1964" d="M70 557q0 12 12 31q16 18 53 31.5t62 19.5l12 2q4 20 22 53q10 16 21.5 45t23.5 58v8v2q-2 8 0 22q10 33 29 71t33 65q4 4 4 12l4 10l6 23q6 25 13.5 49t19.5 47q14 25 30.5 53.5t30.5 52.5q6 10 10.5 18.5t8.5 16.5q-31 -23 -75 -57.5t-73 -59.5q-20 -18 -30 -24 q-8 -4 -15.5 -8t-13.5 -4q-14 0 -14 16q0 10 6 18.5t14 16.5q4 2 6 4l4 4q2 4 9 10q0 2 2 4q4 4 30.5 31t49.5 49q10 10 18 17.5t10 9.5q43 41 81 67.5t52 26.5q20 0 55 -12.5t33 -36.5q0 -2 -2 -5t-4 -7h-2q-4 -14 -45 -95q-6 -8 -6 -14l-4 -4l-4 -4q-8 -12 -16.5 -24.5 t-14.5 -22.5q-6 -8 -11 -19.5t-9 -21.5q-6 -12 -12.5 -25.5t-14.5 -23.5q-8 -14 -28.5 -54.5t-37.5 -74.5q-8 -14 -14 -27.5l-10 -22.5q-6 -14 -6 -20q0 -2 1 -6t1 -8q0 -10 -10 -27q-20 -39 -39 -78t-33 -82q23 0 58.5 -3t68.5 -7q47 -10 69 -20q10 -14 11 -21 q0 -14 -29 -20q-16 -2 -40.5 0t-53.5 4q-8 0 -15.5 1t-13.5 1q-14 2 -27.5 4t-27.5 2q-8 0 -16.5 -1t-18.5 -3q-4 -25 -18 -33q-4 -2 -11 -2q-8 0 -15 5t-11 7q-6 6 -10 6h-3q-10 0 -36 -16q-8 -4 -11 -6q-2 -2 -8 -5t-12 -5q-15 -6 -27 -6q-27 0 -26 22zM395 14 q-6 10 7.5 31t31 43.5t23.5 40.5q23 39 47 76t35 55l2 -2q31 31 56.5 64.5t49.5 60.5l35 37t86 90t101.5 107.5t85 90t34.5 33.5q4 10 21 25l16 14q23 25 30 37t15 23.5t35 31.5q4 6 30.5 34t59.5 63t58.5 62.5t29.5 31.5q0 2 15.5 19.5t35 37t29.5 27.5q8 8 21.5 12t17.5 4 h-2q20 6 39 6q47 0 51 -36q16 -25 16 -39q0 -25 -24.5 -37.5t-46.5 -26.5q-12 -8 -49 -40t-73 -64.5t-48 -42.5q-16 -16 -49 -48t-64 -63t-45 -41q-4 -6 -28.5 -26.5t-54.5 -46t-54.5 -45t-30.5 -23.5q-47 -47 -99.5 -104.5t-98.5 -110.5t-76.5 -90t-36.5 -43 q-35 -53 -55.5 -80t-43 -51.5t-65.5 -71.5q-16 -20 -41 -24.5t-29 -0.5zM1335 334q0 12 8 20l-4 6q-6 25 0 31q23 23 57 52.5t66 56.5l39 32q35 29 75 63t73 56q10 6 17 7t11 1v-6h4v6q4 0 11 7q18 12 20 20l2 6q6 6 11.5 10.5t9.5 6.5q78 53 123 71.5t59 18.5 q23 0 49.5 -9.5t26.5 -37.5q0 -12 -15 -41l-32 -62q-10 -20 -20.5 -39.5t-22.5 -38.5q-6 -12 -19 -12l-4 -2h-1t-3 -2q-10 -16 -20.5 -37.5t-18.5 -48.5q-12 -23 -18 -47l-7 -23h12.5t12.5 2q16 2 32.5 3.5t31.5 -1.5q10 0 17 -3t15 -7q4 -2 9.5 -4t11.5 -2q27 -6 51 -57 q6 -18 6 -27q0 -27 -29 -16q-14 10 -45.5 25.5t-52.5 21.5q-6 2 -7 1t-3 -1l-4 -4q-14 -4 -21 0q-8 2 -15 4t-11 4l-13 6l-18 6q-18 -39 -45 -76q-8 -16 -21.5 -39.5t-17.5 -41.5q0 -10 -2 -15q0 -16 -6 -28q-4 -8 -12 -17l-2 -2q-4 -4 -5 -4q-8 -20 -14 -47q-2 -8 -4 -17.5 t-6 -15.5l8 4q4 4 8 6t6 4q10 6 20.5 13.5t18.5 9.5q8 4 13 4q10 0 14 -8l6 -12l2 -2q8 -4 6 -17q-8 -18 -61 -47q-14 -8 -41 -16.5t-51 -8.5h-17q-57 0 -47 35q10 51 30.5 99.5t43.5 95.5q8 14 14 27.5t12 27.5q8 14 15 14h2q4 2 5 4l1 3l-2 4q-4 8 0 20q4 8 9 14.5 t11 12.5q2 4 7 8q-4 -2 -10.5 -2t-12.5 -2q-25 -4 -33 -6q-37 -2 -62.5 -7.5t-49.5 -11.5l-52 -12q-6 -2 -11 -1t-9 1q-6 2 -16 2q-6 0 -17 -10q-16 -8 -26 -8q-23 2 -39.5 17t-16.5 32zM1343 354zM1436 360q16 0 53 4.5t72.5 8.5t50.5 6q35 6 50 8t54 4q8 18 28.5 63.5 t47.5 99.5t49 99q8 16 17 25q4 2 12 15.5t16 25.5q-8 -8 -9 -8t-13 -11l-45 -34q-29 -20 -67 -48t-83 -63q-8 -6 -16 -6q-2 -2 -5 -2t-6 -2q-4 -2 -8 -7.5t-8 -9.5l-8 -6q0 -8 -6 -8q-57 -43 -106.5 -84t-69.5 -70z" />
<glyph unicode="&#xbd;" horiz-adv-x="2097" d="M70 557q0 12 12 31q16 18 53 31.5t62 19.5l12 2q4 20 22 53q10 16 21.5 45t23.5 58v8v2q-2 8 0 22q10 33 29 71t33 65q4 4 4 12l4 10l6 23q6 25 13.5 49t19.5 47q14 25 30.5 53.5t30.5 52.5q6 10 10.5 18.5t8.5 16.5q-31 -23 -75 -57.5t-73 -59.5q-20 -18 -30 -24 q-8 -4 -15.5 -8t-13.5 -4q-14 0 -14 16q0 10 6 18.5t14 16.5q4 2 6 4l4 4q2 4 9 10q0 2 2 4q4 4 30.5 31t49.5 49q10 10 18 17.5t10 9.5q43 41 81 67.5t52 26.5q20 0 55 -12.5t33 -36.5q0 -2 -2 -5t-4 -7h-2q-4 -14 -45 -95q-6 -8 -6 -14l-4 -4l-4 -4q-8 -12 -16.5 -24.5 t-14.5 -22.5q-6 -8 -11 -19.5t-9 -21.5q-6 -12 -12.5 -25.5t-14.5 -23.5q-8 -14 -28.5 -54.5t-37.5 -74.5q-8 -14 -14 -27.5l-10 -22.5q-6 -14 -6 -20q0 -2 1 -6t1 -8q0 -10 -10 -27q-20 -39 -39 -78t-33 -82q23 0 58.5 -3t68.5 -7q47 -10 69 -20q10 -14 11 -21 q0 -14 -29 -20q-16 -2 -40.5 0t-53.5 4q-8 0 -15.5 1t-13.5 1q-14 2 -27.5 4t-27.5 2q-8 0 -16.5 -1t-18.5 -3q-4 -25 -18 -33q-4 -2 -11 -2q-8 0 -15 5t-11 7q-6 6 -10 6h-3q-10 0 -36 -16q-8 -4 -11 -6q-2 -2 -8 -5t-12 -5q-15 -6 -27 -6q-27 0 -26 22zM395 14 q-6 10 7.5 31t31 43.5t23.5 40.5q23 39 47 76t35 55l2 -2q31 31 56.5 64.5t49.5 60.5l35 37t86 90t101.5 107.5t85 90t34.5 33.5q4 10 21 25l16 14q23 25 30 37t15 23.5t35 31.5q4 6 30.5 34t59.5 63t58.5 62.5t29.5 31.5q0 2 15.5 19.5t35 37t29.5 27.5q8 8 21.5 12t17.5 4 h-2q20 6 39 6q47 0 51 -36q16 -25 16 -39q0 -25 -24.5 -37.5t-46.5 -26.5q-12 -8 -49 -40t-73 -64.5t-48 -42.5q-16 -16 -49 -48t-64 -63t-45 -41q-4 -6 -28.5 -26.5t-54.5 -46t-54.5 -45t-30.5 -23.5q-47 -47 -99.5 -104.5t-98.5 -110.5t-76.5 -90t-36.5 -43 q-35 -53 -55.5 -80t-43 -51.5t-65.5 -71.5q-16 -20 -41 -24.5t-29 -0.5zM1159 57q-2 6 2 17q2 4 2 8l2 4q25 37 68 37q10 4 53 9t96.5 11.5t94.5 6.5q4 6 7 9l7 7l6 4l1 1q1 1 3 1v2q61 41 134 118t149 191q4 10 12 17.5t16 15.5q20 16 29 31q2 4 1 9t-1 9q-2 4 -2 17 q0 10 5 21t11 22q6 14 11.5 27.5t5.5 23.5q0 92 -76 92q-125 0 -215 -80q-14 -14 -28.5 -33.5t-28.5 -42.5q-6 -10 -13.5 -21t-15.5 -22q-4 -6 -16 -14q-4 -4 -8.5 -8t-8.5 -8q-6 -10 -14 -11q-12 0 -22.5 15.5t-10.5 31.5q0 12 6 21q10 16 21.5 33.5t23.5 29.5l25 23 q12 8 18 14l7.5 7.5l5.5 5.5q2 6 14 18q59 45 128 70.5t132 25.5q35 0 77 -12t72.5 -40t30.5 -75q0 -104 -39 -174q-8 -16 -17 -24.5t-19 -16.5q-8 -6 -16.5 -13t-18.5 -19q-2 -2 -5 -9.5t-12 -21.5l-18 -35q-57 -72 -111.5 -111t-101.5 -67q-12 -8 -24.5 -15.5t-24.5 -17.5 q-4 -8 -27 -22q16 0 32.5 1t31.5 3h51q53 0 99 -1t122 -24q33 -10 54.5 -24.5t43.5 -36.5q39 -33 39 -62q0 -23 -28.5 -51.5t-51.5 -28.5q-18 0 -18 19q0 6 4 14t6 16q8 14 8 21q0 31 -60 57.5t-163 40.5l-29 6q-10 4 -21 6.5t-22 2.5q-14 0 -27.5 -1.5t-27.5 -1.5t-27.5 -1 t-29.5 -1q-10 0 -17 -2q-4 0 -9 -1t-9 -1q-23 -23 -66 -50t-88 -46.5t-77 -19.5q-18 0 -35 6q-10 4 -20.5 7t-16.5 11q-31 23 -31 49zM1260 49h2q18 0 36.5 4t38.5 8q10 4 18.5 5.5t14.5 3.5q14 4 27.5 8t29.5 16q6 0 8.5 -1t-14.5 1h-18q-55 -2 -85 -9t-58 -36z" />
<glyph unicode="&#xbe;" horiz-adv-x="2097" d="M70 557q0 12 12 31q16 18 53 31.5t62 19.5l12 2q4 20 22 53q10 16 21.5 45t23.5 58v8v2q-2 8 0 22q10 33 29 71t33 65q4 4 4 12l4 10l6 23q6 25 13.5 49t19.5 47q14 25 30.5 53.5t30.5 52.5q6 10 10.5 18.5t8.5 16.5q-31 -23 -75 -57.5t-73 -59.5q-20 -18 -30 -24 q-8 -4 -15.5 -8t-13.5 -4q-14 0 -14 16q0 10 6 18.5t14 16.5q4 2 6 4l4 4q2 4 9 10q0 2 2 4q4 4 30.5 31t49.5 49q10 10 18 17.5t10 9.5q43 41 81 67.5t52 26.5q20 0 55 -12.5t33 -36.5q0 -2 -2 -5t-4 -7h-2q-4 -14 -45 -95q-6 -8 -6 -14l-4 -4l-4 -4q-8 -12 -16.5 -24.5 t-14.5 -22.5q-6 -8 -11 -19.5t-9 -21.5q-6 -12 -12.5 -25.5t-14.5 -23.5q-8 -14 -28.5 -54.5t-37.5 -74.5q-8 -14 -14 -27.5l-10 -22.5q-6 -14 -6 -20q0 -2 1 -6t1 -8q0 -10 -10 -27q-20 -39 -39 -78t-33 -82q23 0 58.5 -3t68.5 -7q47 -10 69 -20q10 -14 11 -21 q0 -14 -29 -20q-16 -2 -40.5 0t-53.5 4q-8 0 -15.5 1t-13.5 1q-14 2 -27.5 4t-27.5 2q-8 0 -16.5 -1t-18.5 -3q-4 -25 -18 -33q-4 -2 -11 -2q-8 0 -15 5t-11 7q-6 6 -10 6h-3q-10 0 -36 -16q-8 -4 -11 -6q-2 -2 -8 -5t-12 -5q-15 -6 -27 -6q-27 0 -26 22zM395 14 q-6 10 7.5 31t31 43.5t23.5 40.5q23 39 47 76t35 55l2 -2q31 31 56.5 64.5t49.5 60.5l35 37t86 90t101.5 107.5t85 90t34.5 33.5q4 10 21 25l16 14q23 25 30 37t15 23.5t35 31.5q4 6 30.5 34t59.5 63t58.5 62.5t29.5 31.5q0 2 15.5 19.5t35 37t29.5 27.5q8 8 21.5 12t17.5 4 h-2q20 6 39 6q47 0 51 -36q16 -25 16 -39q0 -25 -24.5 -37.5t-46.5 -26.5q-12 -8 -49 -40t-73 -64.5t-48 -42.5q-16 -16 -49 -48t-64 -63t-45 -41q-4 -6 -28.5 -26.5t-54.5 -46t-54.5 -45t-30.5 -23.5q-47 -47 -99.5 -104.5t-98.5 -110.5t-76.5 -90t-36.5 -43 q-35 -53 -55.5 -80t-43 -51.5t-65.5 -71.5q-16 -20 -41 -24.5t-29 -0.5zM1239 131q-2 14 0 31q4 4 4 8q10 10 10 16q23 49 67 81t89 32q39 0 39 -16q0 -12 -16 -23q-29 -25 -80 -49q-14 -4 -28.5 -25.5t-18.5 -38.5q-6 -41 15 -66.5t52 -47.5q29 -16 63.5 -22.5t75.5 -6.5 q4 0 10.5 -1t8.5 -1q6 -2 14 -2q4 0 12 4l19 6q49 10 84 21.5t94 44.5q10 8 17.5 9t15.5 1q-2 0 1 3t11 13q8 12 12 17q51 43 82 106l7.5 7.5l5.5 5.5l8 8q4 14 7 26.5t3 26.5q0 37 -18 76q-2 4 -13 10l-12 10q-14 16 -30.5 30.5t-41.5 23.5q-6 -6 -16 -11 q-27 -18 -60.5 -37.5t-56.5 -23.5h-12q-16 -2 -24.5 -4t-24.5 -11q-6 -2 -12.5 -5t-14.5 -3q-6 0 -12 -1t-10 -1q-39 0 -60.5 17.5t-13.5 44.5q25 76 108 88q6 2 15.5 2t17.5 2q6 0 12.5 1t12.5 1q4 0 8 2q20 4 37 4q25 0 55.5 -6t54.5 -14q47 33 77 61.5t44 67.5q6 18 6 32 q0 59 -108 74q-25 2 -59 0q-8 -2 -27 -2q-10 -2 -21.5 -3t-23.5 -5q8 -29 -11.5 -60.5t-49 -57.5t-58.5 -36q-6 -2 -12 -3t-13 -1q-49 0 -49 45q0 20 13 41q0 2 4 6q4 6 12 14.5t16 16.5q35 31 74 53q-14 10 -31 11q-37 0 -36 20q0 10 10 15t30 1q43 -8 66 -26 q33 16 74 27.5t98 11.5q41 0 86 -8.5t72 -30.5q20 -20 20 -56q0 -14 -4 -31.5t-8 -33.5q-2 -14 -13.5 -40t-29.5 -42q-20 -27 -45 -42t-53 -32q2 -2 6 -2q25 -8 50.5 -18t39.5 -27q10 -10 27.5 -29.5t23.5 -37.5q6 -20 6 -54q0 -20 -3 -41.5t-11 -38.5q-4 -10 -10 -20 q0 -2 -1 -3t-1 -3q-27 -76 -87.5 -126t-135 -79t-144.5 -40t-117 -11q-137 0 -197.5 50t-64.5 108q0 8 -1 13t-3 9zM1571 422q0 -10 18 -10q25 0 56.5 10t42.5 12q29 10 59 25q-25 2 -43 2q-57 0 -93 -10.5t-40 -24.5v-4zM1575 627q0 -9 6 -9q8 0 23 13q4 4 12 9t12 11 q25 29 23 51h-2q-2 -2 -5.5 -6t-7.5 -8q-12 -6 -24 -18l-13 -8q-8 -4 -8 -5q-16 -23 -16 -30z" />
<glyph unicode="&#xbf;" horiz-adv-x="985" d="M-106 -428q4 18 8 37.5t12 40.5q14 35 70.5 72.5t134.5 77.5t159.5 83t145.5 86v-2q6 4 16 4q8 0 12.5 -2t6.5 0q6 4 12 20.5t14 22.5q51 45 67.5 77t18.5 52v9q0 12 -3 10t-13 10v8q0 10 5 25.5t24 21.5q35 10 67 11q70 0 70 -52q0 -33 -29 -84q-16 -33 -33.5 -47 t-58.5 -49q-10 -10 -32.5 -24.5t-37.5 -24.5q-4 0 -9 -11.5t-17 -17.5q-23 -12 -70 -36.5t-93 -49t-67 -39.5q-31 -23 -44 -23.5t-18 3.5t-13 -4q-72 -41 -92.5 -78t-30.5 -70q-14 -41 -15 -75q0 -59 40 -94t100 -50q35 -6 73 -6q66 0 129 18t119 52t88 86q6 6 6 18 q0 23 -15 49.5t-13 42.5q6 49 18 69.5t39 24.5q23 2 42.5 -4t33.5 -12q12 -6 29.5 -16.5t25.5 -20.5q10 -10 7 -27.5t1 -23.5q6 -18 7 -41q0 -29 -12.5 -58.5t-41.5 -56.5q-55 -51 -139 -86.5t-178.5 -55t-186.5 -19.5q-29 0 -55 2t-53 6q-80 12 -139.5 44t-81.5 89 q-2 4 -2 10q0 16 5 32.5t5 27.5q2 4 -7 3t-11 15zM608 532q0 16 10.5 33t10.5 27q6 25 37.5 27t52.5 10q18 10 42.5 9t39.5 -1q20 0 26.5 -13.5t3.5 -25.5q2 -8 4.5 -19.5t2.5 -25.5q0 -10 -4.5 -21.5t-14.5 -19.5h-2q-51 -25 -89.5 -42.5t-65.5 -27.5q-33 -12 -45.5 19 t-8.5 71z" />
<glyph unicode="&#xc0;" horiz-adv-x="1173" d="M-172 -184q0 33 21.5 86t74.5 135q41 61 146.5 205.5t277.5 322.5q6 2 6 6q0 6 -13 13.5t-27.5 15.5t-14.5 16q0 10 28.5 18.5t110.5 16.5q27 23 54.5 44.5t39.5 33.5q10 8 12.5 12t2.5 7v2q0 4 3 9t13 13q133 117 197.5 151.5t68.5 39.5q57 55 134 95t155 80t142 95 q8 4 16 19.5t16 25.5q10 10 37 15t31 12q8 8 23.5 12t23.5 10q18 12 43 12q37 0 73 -21.5t36 -51.5q0 -20 -17 -37q-12 -14 -31.5 -25.5t-31.5 -27.5q-12 -14 -33 -25.5t-31 -22.5q-94 -113 -174 -228.5t-145 -229.5q29 2 45 -10.5t16 -26.5q0 -27 -47 -27q-10 0 -23.5 -1 t-29.5 -1q-57 -111 -99.5 -222.5t-65 -198.5t-28.5 -126q0 -20 -9 -44.5t-5 -28.5q6 -8 11 -19.5t5 -25.5q0 -29 -30 -50q-4 -2 -13 -2q-14 0 -23 12.5t-18 26.5q-6 12 -10 23.5t-4 23.5t6 31q2 2 2 6q0 10 -6 21.5t-2 25.5q10 29 15 76t20 80q33 68 41 128t18 118.5 t47 120.5q0 -2 5.5 6t9.5 18q-90 0 -200 -5t-210 -13q-16 -16 -33.5 -32.5t-36.5 -37.5q-16 -18 -38.5 -34.5t-38.5 -32.5q-14 -14 -46 -50.5t-63 -72t-45 -50.5q-6 -8 -23.5 -27.5t-35 -37.5t-23.5 -25q-61 -70 -92 -104.5t-43 -50t-16.5 -21.5t-9.5 -15t-23 -38 q-10 -18 -10 -43v-18v-15.5t-5 -15.5q-4 -18 -5 -53t-1 -50q0 -20 -11.5 -29t-23.5 -9t-20 8q-18 16 -30.5 34.5t-12.5 49.5zM276 561q-10 0 4.5 2t37 5t34.5 3l-4 -6q-16 -4 -69 -4h-3zM598 662q39 0 76 1t69 1q25 0 48 -2.5t43 -2.5h118l17 35l2 2q55 55 74.5 86 t23.5 52.5t9 42t32 53.5q2 33 19.5 51t3.5 33q-8 18 -27 18q-25 0 -68 -37q-18 -16 -53 -40.5t-71.5 -50t-62.5 -42.5l-26 -18l-2 -2q-14 -6 -75.5 -54.5t-149.5 -125.5zM1266 1722q0 33 13.5 57.5t33.5 8.5q33 -20 84 -66.5t111.5 -96.5t115.5 -87q25 -14 27 -26.5 t-2 -18.5q-10 -16 -37 -16q-14 0 -37 6q-2 2 -30.5 19.5t-70.5 43l-84 51t-70 43.5l-29 17q-14 10 -19.5 27.5t-5.5 37.5z" />
<glyph unicode="&#xc1;" horiz-adv-x="1173" d="M-172 -184q0 33 21.5 86t74.5 135q41 61 146.5 205.5t277.5 322.5q6 2 6 6q0 6 -13 13.5t-27.5 15.5t-14.5 16q0 10 28.5 18.5t110.5 16.5q27 23 54.5 44.5t39.5 33.5q10 8 12.5 12t2.5 7v2q0 4 3 9t13 13q133 117 197.5 151.5t68.5 39.5q57 55 134 95t155 80t142 95 q8 4 16 19.5t16 25.5q10 10 37 15t31 12q8 8 23.5 12t23.5 10q18 12 43 12q37 0 73 -21.5t36 -51.5q0 -20 -17 -37q-12 -14 -31.5 -25.5t-31.5 -27.5q-12 -14 -33 -25.5t-31 -22.5q-94 -113 -174 -228.5t-145 -229.5q29 2 45 -10.5t16 -26.5q0 -27 -47 -27q-10 0 -23.5 -1 t-29.5 -1q-57 -111 -99.5 -222.5t-65 -198.5t-28.5 -126q0 -20 -9 -44.5t-5 -28.5q6 -8 11 -19.5t5 -25.5q0 -29 -30 -50q-4 -2 -13 -2q-14 0 -23 12.5t-18 26.5q-6 12 -10 23.5t-4 23.5t6 31q2 2 2 6q0 10 -6 21.5t-2 25.5q10 29 15 76t20 80q33 68 41 128t18 118.5 t47 120.5q0 -2 5.5 6t9.5 18q-90 0 -200 -5t-210 -13q-16 -16 -33.5 -32.5t-36.5 -37.5q-16 -18 -38.5 -34.5t-38.5 -32.5q-14 -14 -46 -50.5t-63 -72t-45 -50.5q-6 -8 -23.5 -27.5t-35 -37.5t-23.5 -25q-61 -70 -92 -104.5t-43 -50t-16.5 -21.5t-9.5 -15t-23 -38 q-10 -18 -10 -43v-18v-15.5t-5 -15.5q-4 -18 -5 -53t-1 -50q0 -20 -11.5 -29t-23.5 -9t-20 8q-18 16 -30.5 34.5t-12.5 49.5zM276 561q-10 0 4.5 2t37 5t34.5 3l-4 -6q-16 -4 -69 -4h-3zM598 662q39 0 76 1t69 1q25 0 48 -2.5t43 -2.5h118l17 35l2 2q55 55 74.5 86 t23.5 52.5t9 42t32 53.5q2 33 19.5 51t3.5 33q-8 18 -27 18q-25 0 -68 -37q-18 -16 -53 -40.5t-71.5 -50t-62.5 -42.5l-26 -18l-2 -2q-14 -6 -75.5 -54.5t-149.5 -125.5zM1333 1503q0 8 5 16.5t24 18.5q61 35 114.5 78t95.5 83t64 60q16 14 28.5 24.5t20.5 10.5 q14 0 24.5 -19.5t10.5 -52.5q0 -20 -5 -37.5t-20 -27.5l-28 -17q-29 -18 -71 -43.5l-84 -51t-70.5 -43t-30.5 -19.5q-8 -4 -18.5 -5t-18.5 -1q-20 0 -30.5 9t-10.5 17z" />
<glyph unicode="&#xc2;" horiz-adv-x="1173" d="M-172 -184q0 33 21.5 86t74.5 135q41 61 146.5 205.5t277.5 322.5q6 2 6 6q0 6 -13 13.5t-27.5 15.5t-14.5 16q0 10 28.5 18.5t110.5 16.5q27 23 54.5 44.5t39.5 33.5q10 8 12.5 12t2.5 7v2q0 4 3 9t13 13q133 117 197.5 151.5t68.5 39.5q57 55 134 95t155 80t142 95 q8 4 16 19.5t16 25.5q10 10 37 15t31 12q8 8 23.5 12t23.5 10q18 12 43 12q37 0 73 -21.5t36 -51.5q0 -20 -17 -37q-12 -14 -31.5 -25.5t-31.5 -27.5q-12 -14 -33 -25.5t-31 -22.5q-94 -113 -174 -228.5t-145 -229.5q29 2 45 -10.5t16 -26.5q0 -27 -47 -27q-10 0 -23.5 -1 t-29.5 -1q-57 -111 -99.5 -222.5t-65 -198.5t-28.5 -126q0 -20 -9 -44.5t-5 -28.5q6 -8 11 -19.5t5 -25.5q0 -29 -30 -50q-4 -2 -13 -2q-14 0 -23 12.5t-18 26.5q-6 12 -10 23.5t-4 23.5t6 31q2 2 2 6q0 10 -6 21.5t-2 25.5q10 29 15 76t20 80q33 68 41 128t18 118.5 t47 120.5q0 -2 5.5 6t9.5 18q-90 0 -200 -5t-210 -13q-16 -16 -33.5 -32.5t-36.5 -37.5q-16 -18 -38.5 -34.5t-38.5 -32.5q-14 -14 -46 -50.5t-63 -72t-45 -50.5q-6 -8 -23.5 -27.5t-35 -37.5t-23.5 -25q-61 -70 -92 -104.5t-43 -50t-16.5 -21.5t-9.5 -15t-23 -38 q-10 -18 -10 -43v-18v-15.5t-5 -15.5q-4 -18 -5 -53t-1 -50q0 -20 -11.5 -29t-23.5 -9t-20 8q-18 16 -30.5 34.5t-12.5 49.5zM276 561q-10 0 4.5 2t37 5t34.5 3l-4 -6q-16 -4 -69 -4h-3zM598 662q39 0 76 1t69 1q25 0 48 -2.5t43 -2.5h118l17 35l2 2q55 55 74.5 86 t23.5 52.5t9 42t32 53.5q2 33 19.5 51t3.5 33q-8 18 -27 18q-25 0 -68 -37q-18 -16 -53 -40.5t-71.5 -50t-62.5 -42.5l-26 -18l-2 -2q-14 -6 -75.5 -54.5t-149.5 -125.5zM1126 1481q0 6 2 10q10 18 49 37q80 35 162 78t152.5 84t115.5 65q10 6 27 6q16 0 18 -6 q23 -39 66 -104.5t88 -126.5q8 -10 8 -23q0 -14 -14 -24q-10 -8 -15.5 -10.5t-9.5 -2.5q-8 0 -12 2t-10 4l-176 164q-20 -10 -64.5 -29.5t-99 -42t-105.5 -43t-85 -33.5t-36 -16q-24 -6 -36 -6q-23 0 -25 17z" />
<glyph unicode="&#xc3;" horiz-adv-x="1173" d="M-172 -184q0 33 21.5 86t74.5 135q41 61 146.5 205.5t277.5 322.5q6 2 6 6q0 6 -13 13.5t-27.5 15.5t-14.5 16q0 10 28.5 18.5t110.5 16.5q27 23 54.5 44.5t39.5 33.5q10 8 12.5 12t2.5 7v2q0 4 3 9t13 13q133 117 197.5 151.5t68.5 39.5q57 55 134 95t155 80t142 95 q8 4 16 19.5t16 25.5q10 10 37 15t31 12q8 8 23.5 12t23.5 10q18 12 43 12q37 0 73 -21.5t36 -51.5q0 -20 -17 -37q-12 -14 -31.5 -25.5t-31.5 -27.5q-12 -14 -33 -25.5t-31 -22.5q-94 -113 -174 -228.5t-145 -229.5q29 2 45 -10.5t16 -26.5q0 -27 -47 -27q-10 0 -23.5 -1 t-29.5 -1q-57 -111 -99.5 -222.5t-65 -198.5t-28.5 -126q0 -20 -9 -44.5t-5 -28.5q6 -8 11 -19.5t5 -25.5q0 -29 -30 -50q-4 -2 -13 -2q-14 0 -23 12.5t-18 26.5q-6 12 -10 23.5t-4 23.5t6 31q2 2 2 6q0 10 -6 21.5t-2 25.5q10 29 15 76t20 80q33 68 41 128t18 118.5 t47 120.5q0 -2 5.5 6t9.5 18q-90 0 -200 -5t-210 -13q-16 -16 -33.5 -32.5t-36.5 -37.5q-16 -18 -38.5 -34.5t-38.5 -32.5q-14 -14 -46 -50.5t-63 -72t-45 -50.5q-6 -8 -23.5 -27.5t-35 -37.5t-23.5 -25q-61 -70 -92 -104.5t-43 -50t-16.5 -21.5t-9.5 -15t-23 -38 q-10 -18 -10 -43v-18v-15.5t-5 -15.5q-4 -18 -5 -53t-1 -50q0 -20 -11.5 -29t-23.5 -9t-20 8q-18 16 -30.5 34.5t-12.5 49.5zM276 561q-10 0 4.5 2t37 5t34.5 3l-4 -6q-16 -4 -69 -4h-3zM598 662q39 0 76 1t69 1q25 0 48 -2.5t43 -2.5h118l17 35l2 2q55 55 74.5 86 t23.5 52.5t9 42t32 53.5q2 33 19.5 51t3.5 33q-8 18 -27 18q-25 0 -68 -37q-18 -16 -53 -40.5t-71.5 -50t-62.5 -42.5l-26 -18l-2 -2q-14 -6 -75.5 -54.5t-149.5 -125.5zM1192 1468.5q-6 20.5 2 28.5q29 35 69.5 63.5t79.5 49.5q35 20 72 20q27 0 66.5 -2t78.5 -18 q41 -14 76 -28.5t74 -14.5q43 0 123 67q16 16 26.5 21.5t16.5 5.5q4 0 10 -8t6 -21q0 -8 -6 -18q-10 -20 -48 -56t-84 -64t-83 -28q-23 0 -73 16.5t-106.5 32t-103.5 15.5q-37 0 -73 -14q-37 -14 -65 -44t-42 -30q-10 6 -16 26.5z" />
<glyph unicode="&#xc4;" horiz-adv-x="1173" d="M-172 -184q0 33 21.5 86t74.5 135q41 61 146.5 205.5t277.5 322.5q6 2 6 6q0 6 -13 13.5t-27.5 15.5t-14.5 16q0 10 28.5 18.5t110.5 16.5q27 23 54.5 44.5t39.5 33.5q10 8 12.5 12t2.5 7v2q0 4 3 9t13 13q133 117 197.5 151.5t68.5 39.5q57 55 134 95t155 80t142 95 q8 4 16 19.5t16 25.5q10 10 37 15t31 12q8 8 23.5 12t23.5 10q18 12 43 12q37 0 73 -21.5t36 -51.5q0 -20 -17 -37q-12 -14 -31.5 -25.5t-31.5 -27.5q-12 -14 -33 -25.5t-31 -22.5q-94 -113 -174 -228.5t-145 -229.5q29 2 45 -10.5t16 -26.5q0 -27 -47 -27q-10 0 -23.5 -1 t-29.5 -1q-57 -111 -99.5 -222.5t-65 -198.5t-28.5 -126q0 -20 -9 -44.5t-5 -28.5q6 -8 11 -19.5t5 -25.5q0 -29 -30 -50q-4 -2 -13 -2q-14 0 -23 12.5t-18 26.5q-6 12 -10 23.5t-4 23.5t6 31q2 2 2 6q0 10 -6 21.5t-2 25.5q10 29 15 76t20 80q33 68 41 128t18 118.5 t47 120.5q0 -2 5.5 6t9.5 18q-90 0 -200 -5t-210 -13q-16 -16 -33.5 -32.5t-36.5 -37.5q-16 -18 -38.5 -34.5t-38.5 -32.5q-14 -14 -46 -50.5t-63 -72t-45 -50.5q-6 -8 -23.5 -27.5t-35 -37.5t-23.5 -25q-61 -70 -92 -104.5t-43 -50t-16.5 -21.5t-9.5 -15t-23 -38 q-10 -18 -10 -43v-18v-15.5t-5 -15.5q-4 -18 -5 -53t-1 -50q0 -20 -11.5 -29t-23.5 -9t-20 8q-18 16 -30.5 34.5t-12.5 49.5zM276 561q-10 0 4.5 2t37 5t34.5 3l-4 -6q-16 -4 -69 -4h-3zM598 662q39 0 76 1t69 1q25 0 48 -2.5t43 -2.5h118l17 35l2 2q55 55 74.5 86 t23.5 52.5t9 42t32 53.5q2 33 19.5 51t3.5 33q-8 18 -27 18q-25 0 -68 -37q-18 -16 -53 -40.5t-71.5 -50t-62.5 -42.5l-26 -18l-2 -2q-14 -6 -75.5 -54.5t-149.5 -125.5zM1243 1548q0 14 4 28.5t16 22.5q33 18 55.5 32t43.5 24q45 23 71 22q12 0 20.5 -13t8.5 -5v2q0 4 1 -1 t1 -15q0 -8 -2 -21.5t-6 -24.5q-6 -16 -17.5 -36.5t-13.5 -44.5q-4 -27 -32.5 -28t-45.5 -11q-14 -6 -38.5 -6h-34.5h-2q-14 0 -18.5 12t-6.5 26q-4 16 -4 37zM1605 1548q0 14 4.5 28.5t16.5 22.5q33 18 55.5 32t42.5 24q45 23 72 22q12 0 20.5 -13t8.5 -5v2q0 4 1 -1t1 -15 q0 -8 -2 -21.5t-7 -24.5q-6 -16 -17 -36.5t-13 -44.5q-4 -27 -33 -28t-45 -11q-14 -6 -39 -6h-35h-2q-14 0 -18 12t-6 26q-4 16 -5 37z" />
<glyph unicode="&#xc5;" horiz-adv-x="1173" d="M-172 -184q0 33 21.5 86t74.5 135q41 61 146.5 205.5t277.5 322.5q6 2 6 6q0 6 -13 13.5t-27.5 15.5t-14.5 16q0 10 28.5 18.5t110.5 16.5q27 23 54.5 44.5t39.5 33.5q10 8 12.5 12t2.5 7v2q0 4 3 9t13 13q133 117 197.5 151.5t68.5 39.5q57 55 134 95t155 80t142 95 q8 4 16 19.5t16 25.5q10 10 37 15t31 12q8 8 23.5 12t23.5 10q18 12 43 12q37 0 73 -21.5t36 -51.5q0 -20 -17 -37q-12 -14 -31.5 -25.5t-31.5 -27.5q-12 -14 -33 -25.5t-31 -22.5q-94 -113 -174 -228.5t-145 -229.5q29 2 45 -10.5t16 -26.5q0 -27 -47 -27q-10 0 -23.5 -1 t-29.5 -1q-57 -111 -99.5 -222.5t-65 -198.5t-28.5 -126q0 -20 -9 -44.5t-5 -28.5q6 -8 11 -19.5t5 -25.5q0 -29 -30 -50q-4 -2 -13 -2q-14 0 -23 12.5t-18 26.5q-6 12 -10 23.5t-4 23.5t6 31q2 2 2 6q0 10 -6 21.5t-2 25.5q10 29 15 76t20 80q33 68 41 128t18 118.5 t47 120.5q0 -2 5.5 6t9.5 18q-90 0 -200 -5t-210 -13q-16 -16 -33.5 -32.5t-36.5 -37.5q-16 -18 -38.5 -34.5t-38.5 -32.5q-14 -14 -46 -50.5t-63 -72t-45 -50.5q-6 -8 -23.5 -27.5t-35 -37.5t-23.5 -25q-61 -70 -92 -104.5t-43 -50t-16.5 -21.5t-9.5 -15t-23 -38 q-10 -18 -10 -43v-18v-15.5t-5 -15.5q-4 -18 -5 -53t-1 -50q0 -20 -11.5 -29t-23.5 -9t-20 8q-18 16 -30.5 34.5t-12.5 49.5zM276 561q-10 0 4.5 2t37 5t34.5 3l-4 -6q-16 -4 -69 -4h-3zM598 662q39 0 76 1t69 1q25 0 48 -2.5t43 -2.5h118l17 35l2 2q55 55 74.5 86 t23.5 52.5t9 42t32 53.5q2 33 19.5 51t3.5 33q-8 18 -27 18q-25 0 -68 -37q-18 -16 -53 -40.5t-71.5 -50t-62.5 -42.5l-26 -18l-2 -2q-14 -6 -75.5 -54.5t-149.5 -125.5zM1419 1597q0 51 27 106.5t70 104.5q23 20 65.5 26.5t61.5 8.5q14 2 41.5 -8t54.5 -27q6 -2 11 -1 t13 -1q16 -2 34 -14t20 -29l10 -59q4 -27 -8.5 -61.5t-31.5 -64.5t-36 -42q-29 -29 -72 -51.5t-90 -22.5q-8 0 -16 1t-16 3q-23 6 -51.5 14.5t-43.5 18.5q-23 18 -33 44t-10 54zM1522 1548q0 -35 16 -43q12 -10 37 -10q41 0 89 39t71 86l20 43q6 23 6 41q0 31 -15 47t-30 25 q-6 4 -14 6t-20 2h-12.5t-12.5 -2t-22.5 -13.5t-38.5 -46.5l-44 -65q-14 -23 -22 -53.5t-8 -55.5z" />
<glyph unicode="&#xc6;" horiz-adv-x="1964" d="M-68 -184q0 33 21.5 86t75.5 135q41 61 145.5 204.5t276.5 323.5q16 4 2.5 12.5t-32 18.5t-18.5 20t29 18.5t111 16.5q27 23 54.5 44.5t39.5 33.5q10 8 12 12t2 7v2q0 4 3 9t14 13q133 117 197.5 151.5t68.5 39.5q57 55 134 95t154.5 80t141.5 95q8 4 16.5 19.5 t16.5 25.5q10 10 36.5 15t30.5 12q8 8 23.5 12t23.5 10q18 12 45 12q29 0 56 -12q8 2 14 3t12 1q41 0 54 -39q127 10 234.5 13.5t193.5 3.5q23 0 46 -2t62 -11q16 0 25.5 -9t15.5 -7l35 -2l28 -14q27 -15 35 -25q18 -14 19 -49q0 -20 -12.5 -42t-40.5 -30q-25 -2 -32 10.5 t-13.5 29t-30.5 24.5q-27 12 -51.5 27.5t-26.5 15.5q-33 0 -46 4t-35.5 7t-84.5 3q-78 0 -145.5 -15.5t-149.5 -19.5q-4 -14 -23.5 -17t-47.5 -30q-23 -20 -62 -60t-59 -63q-14 -23 -47 -67.5t-64 -86.5t-45 -59q-20 -20 -47 -37l55 4q23 -2 47.5 -2t47.5 -2q23 0 46 -2 t48 -2q70 0 137.5 -5t136.5 -5q14 0 22.5 -3t22.5 -7h-2q-4 0 -4 -2t21.5 -14.5t21.5 -22.5q-2 -14 -14 -14q-8 0 -17.5 4t-19.5 6q-104 0 -191.5 -1t-175.5 -6t-196 -18q-18 0 -39 -5t-43 -13q-59 -80 -114.5 -165t-92.5 -146.5t-43 -73.5q-10 -20 -19.5 -45t-15.5 -36 t-6 3v2q0 6 -4 -9.5t-7 -38t-5 -38.5q51 -16 102 -24.5t96 -8.5h187q12 0 32.5 -6t30.5 -6h2q10 0 19.5 10t25.5 12q94 8 207 31q47 10 87 35t67 49q16 14 22 20.5t21 26.5q6 8 16 30.5t26.5 43t39.5 20.5q23 -2 29.5 -22.5t6.5 -42.5q0 -33 -8 -43q-18 -25 -20 -58.5 t-21 -62.5q-18 -27 -53 -41t-63 -31q-23 -12 -66 -18t-68 -8q-45 -8 -113.5 -14.5t-142 -8.5t-139.5 -2q-57 0 -99 2t-57 4q-43 4 -93 13.5t-95 23.5q-6 -14 -11 -31.5t-18 -21.5h2q-18 -8 -30 -8h-13l-2 2q-6 6 -29.5 13t-27.5 11q-43 63 -43 103q0 33 25.5 44t58.5 7 l57 127q33 43 56.5 89t50.5 83l88 129l-35 6q-90 0 -199.5 -5t-210.5 -13q-16 -16 -33.5 -32.5t-35.5 -37.5q-16 -18 -39 -34.5t-39 -32.5q-14 -14 -46 -50.5t-62.5 -72t-45.5 -50.5q-6 -8 -23.5 -27.5t-34.5 -37.5t-23 -25q-61 -70 -92 -104.5t-43.5 -50t-16.5 -21.5 t-9 -15t-24 -38q-10 -18 -10 -43v-18v-15.5t-4 -15.5q-4 -18 -5 -53t-1 -50q0 -20 -11.5 -29t-23.5 -9t-21 8q-18 16 -30.5 34.5t-12.5 49.5zM381 561q-10 0 4 2t36.5 5t35.5 3l-6 -6q-8 -2 -23.5 -3t-44.5 -1h-2zM702 662q39 0 76 1t70 1q25 0 47.5 -2.5t42.5 -2.5h119 q29 23 62.5 42.5t56.5 52.5t55.5 75.5t61 85.5t38.5 70q41 47 64.5 92t50.5 82q-55 -14 -115.5 -45t-111 -63.5t-76.5 -55.5q-18 -16 -53 -40.5t-72 -50t-62 -42.5l-26 -18l-2 -2q-14 -6 -75.5 -54.5t-150.5 -125.5z" />
<glyph unicode="&#xc7;" horiz-adv-x="1329" d="M174 317q0 33 4 63t8 50q35 152 128.5 284t238.5 265q16 16 32.5 30.5t32.5 28.5q10 6 20.5 7.5t18.5 1.5q10 0 18.5 1t12.5 5q10 6 13.5 28.5t15.5 32.5q59 43 139 71.5t148 55.5q57 23 140 35t161 12q80 0 131 -12q45 -10 60 -31.5t19.5 -46t10.5 -47.5q2 -6 3 -12 t1 -15q0 -33 -19.5 -57.5t-40.5 -24.5q-23 0 -32 31q-4 10 -13.5 26.5t-13.5 28.5q-10 23 -30.5 30t-53.5 7h-2q-18 0 -40.5 4.5t-49.5 4.5q-39 0 -84 -8.5t-96 -30.5q-158 -70 -302.5 -153t-240.5 -191q-12 -16 -15 -22.5t-18 -25.5q-10 -12 -30.5 -34.5t-28.5 -34.5 q-31 -43 -47.5 -93.5t-26.5 -97.5t-24 -77q-12 -27 -17.5 -54.5t-5.5 -56.5q0 -49 13.5 -94t29.5 -76q33 -59 101.5 -78.5t138.5 -19.5q49 0 91 6t60 8q14 4 51 21.5t52 19.5q18 4 44.5 10t47.5 14q100 37 162.5 86.5t123.5 104.5q53 47 87 66.5t49 19.5q14 0 14 -12 t-17.5 -35t-52.5 -45q-78 -55 -157.5 -125t-175.5 -109q-27 -10 -49.5 -26.5t-51.5 -24.5q-33 -8 -121 -28.5t-190 -20.5q-76 0 -148.5 18.5t-132.5 63.5q-51 43 -72.5 123t-21.5 155zM348 -412q0 63 43 64q14 0 23 -29q16 -70 159 -70q168 0 168 138q0 98 -110 98 q-12 0 -31 -1t-45 -1q-27 -2 -46.5 -3t-33.5 -1q-27 0 -27 20q0 8 7.5 19.5t27.5 30.5q33 29 56.5 59.5t44.5 62.5q8 12 20 13.5t29 1.5h8q25 0 29 -15q-102 -84 -84 -100q4 -2 20 -2h21q45 0 89 -18.5t103 -53.5q45 -25 45 -92v-15t-2 -16q-2 -20 -9 -37.5t-24 -29.5 q-82 -72 -125 -101q-63 -34 -137 -34q-57 0 -133 28q-86 37 -86 84z" />
<glyph unicode="&#xc8;" horiz-adv-x="1462" d="M184 119q0 33 26 44t58 7l58 127q33 43 56.5 89t49.5 83l115 164q-27 -6 -49 -11l-21 -4h-49q-8 2 -19.5 15.5t-19.5 21.5q8 10 21.5 35t30 46.5t30.5 21.5q10 0 28.5 2t32.5 2h3q6 0 10 5t16 5q20 0 41 2t41 2h10q14 18 23 32l8 15v-4q0 -6 10.5 7.5t19.5 29.5l9 16 q23 33 28 49.5t14 32t36 45.5q6 8 28.5 40t51 70t52 69.5t32.5 40.5q-72 -2 -88.5 -3.5t-8 -1.5t8.5 -2l-5 -1q-4 -1 -16 -3q-68 -8 -119 -24.5t-92 -16.5h-4q-6 0 -6 -8q0 -4 1 -9t1 -9q0 -18 -12 -23h2q16 0 -1.5 -2t-44 -4t-38.5 -2q-27 0 -47.5 3t-36.5 5 q-29 4 -66 21.5t-37 40.5t43 43q37 18 106.5 29.5t156 17.5t175.5 11t162 11q10 10 31 17.5t14 7.5h-2q27 14 52 14q43 0 55 -39q127 10 234.5 13.5t193.5 3.5q23 0 46.5 -2t62.5 -11q16 0 25 -9t15 -7l35 -2l28 -14q28 -15 36 -25q18 -14 18 -49q0 -20 -12 -42t-41 -30 q-25 -2 -32 10.5t-13 29t-31 24.5q-27 12 -51.5 27.5t-26.5 15.5q-33 0 -46 4t-35.5 7t-84.5 3q-78 0 -145.5 -15.5t-148.5 -19.5q-4 -14 -23.5 -17t-48.5 -30q-23 -20 -61.5 -60t-59.5 -63q-14 -23 -47 -67.5t-63.5 -86.5t-45.5 -59q-20 -20 -47 -37l56 4q14 2 39.5 -7 t37.5 -9q0 10 17 12q23 0 46 -2t48 -2q70 0 137.5 -5t136.5 -5q14 0 22.5 -3t22.5 -7h-2q-4 0 -4 -2t21.5 -14.5t21.5 -22.5q-2 -14 -14 -14q-8 0 -17.5 4t-19.5 6q-104 0 -191 -1t-175.5 -6t-196.5 -18q-18 0 -38.5 -5t-43.5 -13q-59 -80 -114.5 -165t-92.5 -146.5 t-43 -73.5q-10 -20 -19 -45t-15.5 -36t-6.5 3v2q0 6 -4 -9.5t-7 -38t-5 -38.5q51 -16 102 -24.5t96 -8.5h187q12 0 32.5 -6t30.5 -6h2q10 0 19.5 10t25.5 12q94 8 207 31q47 10 87 35t67 49q16 14 22.5 20.5t20.5 26.5q6 8 16.5 30.5t26.5 43t39 20.5q23 -2 30 -22.5 t7 -42.5q0 -33 -9 -43q-18 -25 -20 -58.5t-20 -62.5q-18 -27 -53.5 -41t-63.5 -31q-23 -12 -66 -18t-67 -8q-45 -8 -114 -14.5t-142.5 -8.5t-139.5 -2q-57 0 -99 2t-56 4q-43 4 -93.5 13.5t-95.5 23.5q-6 -14 -11 -31.5t-17 -21.5h2q-18 -8 -24 -8h-19l-2 2q-6 6 -30 13 t-28 11q-43 63 -43 103zM383 657v2h1q1 0 5 -4q-6 -8 -6 2zM1270 1720q0 33 13.5 57.5t33.5 8.5q33 -20 84 -66.5t111.5 -96.5t115.5 -87q25 -14 27 -26.5t-2 -18.5q-10 -16 -37 -16q-14 0 -37 6q-2 2 -30.5 19.5t-70.5 43l-84 51t-70 43.5l-29 17q-14 10 -19.5 27.5 t-5.5 37.5z" />
<glyph unicode="&#xc9;" horiz-adv-x="1462" d="M184 119q0 33 26 44t58 7l58 127q33 43 56.5 89t49.5 83l115 164q-27 -6 -49 -11l-21 -4h-49q-8 2 -19.5 15.5t-19.5 21.5q8 10 21.5 35t30 46.5t30.5 21.5q10 0 28.5 2t32.5 2h3q6 0 10 5t16 5q20 0 41 2t41 2h10q14 18 23 32l8 15v-4q0 -6 10.5 7.5t19.5 29.5l9 16 q23 33 28 49.5t14 32t36 45.5q6 8 28.5 40t51 70t52 69.5t32.5 40.5q-72 -2 -88.5 -3.5t-8 -1.5t8.5 -2l-5 -1q-4 -1 -16 -3q-68 -8 -119 -24.5t-92 -16.5h-4q-6 0 -6 -8q0 -4 1 -9t1 -9q0 -18 -12 -23h2q16 0 -1.5 -2t-44 -4t-38.5 -2q-27 0 -47.5 3t-36.5 5 q-29 4 -66 21.5t-37 40.5t43 43q37 18 106.5 29.5t156 17.5t175.5 11t162 11q10 10 31 17.5t14 7.5h-2q27 14 52 14q43 0 55 -39q127 10 234.5 13.5t193.5 3.5q23 0 46.5 -2t62.5 -11q16 0 25 -9t15 -7l35 -2l28 -14q28 -15 36 -25q18 -14 18 -49q0 -20 -12 -42t-41 -30 q-25 -2 -32 10.5t-13 29t-31 24.5q-27 12 -51.5 27.5t-26.5 15.5q-33 0 -46 4t-35.5 7t-84.5 3q-78 0 -145.5 -15.5t-148.5 -19.5q-4 -14 -23.5 -17t-48.5 -30q-23 -20 -61.5 -60t-59.5 -63q-14 -23 -47 -67.5t-63.5 -86.5t-45.5 -59q-20 -20 -47 -37l56 4q14 2 39.5 -7 t37.5 -9q0 10 17 12q23 0 46 -2t48 -2q70 0 137.5 -5t136.5 -5q14 0 22.5 -3t22.5 -7h-2q-4 0 -4 -2t21.5 -14.5t21.5 -22.5q-2 -14 -14 -14q-8 0 -17.5 4t-19.5 6q-104 0 -191 -1t-175.5 -6t-196.5 -18q-18 0 -38.5 -5t-43.5 -13q-59 -80 -114.5 -165t-92.5 -146.5 t-43 -73.5q-10 -20 -19 -45t-15.5 -36t-6.5 3v2q0 6 -4 -9.5t-7 -38t-5 -38.5q51 -16 102 -24.5t96 -8.5h187q12 0 32.5 -6t30.5 -6h2q10 0 19.5 10t25.5 12q94 8 207 31q47 10 87 35t67 49q16 14 22.5 20.5t20.5 26.5q6 8 16.5 30.5t26.5 43t39 20.5q23 -2 30 -22.5 t7 -42.5q0 -33 -9 -43q-18 -25 -20 -58.5t-20 -62.5q-18 -27 -53.5 -41t-63.5 -31q-23 -12 -66 -18t-67 -8q-45 -8 -114 -14.5t-142.5 -8.5t-139.5 -2q-57 0 -99 2t-56 4q-43 4 -93.5 13.5t-95.5 23.5q-6 -14 -11 -31.5t-17 -21.5h2q-18 -8 -24 -8h-19l-2 2q-6 6 -30 13 t-28 11q-43 63 -43 103zM383 657v2h1q1 0 5 -4q-6 -8 -6 2zM1337 1501q0 8 5 16.5t24 18.5q61 35 114.5 78t95.5 83t64 60q16 14 28.5 24.5t20.5 10.5q14 0 24.5 -19.5t10.5 -52.5q0 -20 -5 -37.5t-20 -27.5l-28 -17q-29 -18 -71 -43.5l-84 -51t-70.5 -43t-30.5 -19.5 q-8 -4 -18.5 -5t-18.5 -1q-20 0 -30.5 9t-10.5 17z" />
<glyph unicode="&#xca;" horiz-adv-x="1462" d="M184 119q0 33 26 44t58 7l58 127q33 43 56.5 89t49.5 83l115 164q-27 -6 -49 -11l-21 -4h-49q-8 2 -19.5 15.5t-19.5 21.5q8 10 21.5 35t30 46.5t30.5 21.5q10 0 28.5 2t32.5 2h3q6 0 10 5t16 5q20 0 41 2t41 2h10q14 18 23 32l8 15v-4q0 -6 10.5 7.5t19.5 29.5l9 16 q23 33 28 49.5t14 32t36 45.5q6 8 28.5 40t51 70t52 69.5t32.5 40.5q-72 -2 -88.5 -3.5t-8 -1.5t8.5 -2l-5 -1q-4 -1 -16 -3q-68 -8 -119 -24.5t-92 -16.5h-4q-6 0 -6 -8q0 -4 1 -9t1 -9q0 -18 -12 -23h2q16 0 -1.5 -2t-44 -4t-38.5 -2q-27 0 -47.5 3t-36.5 5 q-29 4 -66 21.5t-37 40.5t43 43q37 18 106.5 29.5t156 17.5t175.5 11t162 11q10 10 31 17.5t14 7.5h-2q27 14 52 14q43 0 55 -39q127 10 234.5 13.5t193.5 3.5q23 0 46.5 -2t62.5 -11q16 0 25 -9t15 -7l35 -2l28 -14q28 -15 36 -25q18 -14 18 -49q0 -20 -12 -42t-41 -30 q-25 -2 -32 10.5t-13 29t-31 24.5q-27 12 -51.5 27.5t-26.5 15.5q-33 0 -46 4t-35.5 7t-84.5 3q-78 0 -145.5 -15.5t-148.5 -19.5q-4 -14 -23.5 -17t-48.5 -30q-23 -20 -61.5 -60t-59.5 -63q-14 -23 -47 -67.5t-63.5 -86.5t-45.5 -59q-20 -20 -47 -37l56 4q14 2 39.5 -7 t37.5 -9q0 10 17 12q23 0 46 -2t48 -2q70 0 137.5 -5t136.5 -5q14 0 22.5 -3t22.5 -7h-2q-4 0 -4 -2t21.5 -14.5t21.5 -22.5q-2 -14 -14 -14q-8 0 -17.5 4t-19.5 6q-104 0 -191 -1t-175.5 -6t-196.5 -18q-18 0 -38.5 -5t-43.5 -13q-59 -80 -114.5 -165t-92.5 -146.5 t-43 -73.5q-10 -20 -19 -45t-15.5 -36t-6.5 3v2q0 6 -4 -9.5t-7 -38t-5 -38.5q51 -16 102 -24.5t96 -8.5h187q12 0 32.5 -6t30.5 -6h2q10 0 19.5 10t25.5 12q94 8 207 31q47 10 87 35t67 49q16 14 22.5 20.5t20.5 26.5q6 8 16.5 30.5t26.5 43t39 20.5q23 -2 30 -22.5 t7 -42.5q0 -33 -9 -43q-18 -25 -20 -58.5t-20 -62.5q-18 -27 -53.5 -41t-63.5 -31q-23 -12 -66 -18t-67 -8q-45 -8 -114 -14.5t-142.5 -8.5t-139.5 -2q-57 0 -99 2t-56 4q-43 4 -93.5 13.5t-95.5 23.5q-6 -14 -11 -31.5t-17 -21.5h2q-18 -8 -24 -8h-19l-2 2q-6 6 -30 13 t-28 11q-43 63 -43 103zM383 657v2h1q1 0 5 -4q-6 -8 -6 2zM1130 1479q0 6 2 10q10 18 49 37q80 35 162 78t152.5 84t115.5 65q10 6 27 6q16 0 18 -6q23 -39 66 -104.5t88 -126.5q8 -10 8 -23q0 -14 -14 -24q-10 -8 -15.5 -10.5t-9.5 -2.5q-8 0 -12 2t-10 4l-176 164 q-20 -10 -64.5 -29.5t-99 -42t-105.5 -43t-85 -33.5t-36 -16q-24 -6 -36 -6q-23 0 -25 17z" />
<glyph unicode="&#xcb;" horiz-adv-x="1462" d="M184 119q0 33 26 44t58 7l58 127q33 43 56.5 89t49.5 83l115 164q-27 -6 -49 -11l-21 -4h-49q-8 2 -19.5 15.5t-19.5 21.5q8 10 21.5 35t30 46.5t30.5 21.5q10 0 28.5 2t32.5 2h3q6 0 10 5t16 5q20 0 41 2t41 2h10q14 18 23 32l8 15v-4q0 -6 10.5 7.5t19.5 29.5l9 16 q23 33 28 49.5t14 32t36 45.5q6 8 28.5 40t51 70t52 69.5t32.5 40.5q-72 -2 -88.5 -3.5t-8 -1.5t8.5 -2l-5 -1q-4 -1 -16 -3q-68 -8 -119 -24.5t-92 -16.5h-4q-6 0 -6 -8q0 -4 1 -9t1 -9q0 -18 -12 -23h2q16 0 -1.5 -2t-44 -4t-38.5 -2q-27 0 -47.5 3t-36.5 5 q-29 4 -66 21.5t-37 40.5t43 43q37 18 106.5 29.5t156 17.5t175.5 11t162 11q10 10 31 17.5t14 7.5h-2q27 14 52 14q43 0 55 -39q127 10 234.5 13.5t193.5 3.5q23 0 46.5 -2t62.5 -11q16 0 25 -9t15 -7l35 -2l28 -14q28 -15 36 -25q18 -14 18 -49q0 -20 -12 -42t-41 -30 q-25 -2 -32 10.5t-13 29t-31 24.5q-27 12 -51.5 27.5t-26.5 15.5q-33 0 -46 4t-35.5 7t-84.5 3q-78 0 -145.5 -15.5t-148.5 -19.5q-4 -14 -23.5 -17t-48.5 -30q-23 -20 -61.5 -60t-59.5 -63q-14 -23 -47 -67.5t-63.5 -86.5t-45.5 -59q-20 -20 -47 -37l56 4q14 2 39.5 -7 t37.5 -9q0 10 17 12q23 0 46 -2t48 -2q70 0 137.5 -5t136.5 -5q14 0 22.5 -3t22.5 -7h-2q-4 0 -4 -2t21.5 -14.5t21.5 -22.5q-2 -14 -14 -14q-8 0 -17.5 4t-19.5 6q-104 0 -191 -1t-175.5 -6t-196.5 -18q-18 0 -38.5 -5t-43.5 -13q-59 -80 -114.5 -165t-92.5 -146.5 t-43 -73.5q-10 -20 -19 -45t-15.5 -36t-6.5 3v2q0 6 -4 -9.5t-7 -38t-5 -38.5q51 -16 102 -24.5t96 -8.5h187q12 0 32.5 -6t30.5 -6h2q10 0 19.5 10t25.5 12q94 8 207 31q47 10 87 35t67 49q16 14 22.5 20.5t20.5 26.5q6 8 16.5 30.5t26.5 43t39 20.5q23 -2 30 -22.5 t7 -42.5q0 -33 -9 -43q-18 -25 -20 -58.5t-20 -62.5q-18 -27 -53.5 -41t-63.5 -31q-23 -12 -66 -18t-67 -8q-45 -8 -114 -14.5t-142.5 -8.5t-139.5 -2q-57 0 -99 2t-56 4q-43 4 -93.5 13.5t-95.5 23.5q-6 -14 -11 -31.5t-17 -21.5h2q-18 -8 -24 -8h-19l-2 2q-6 6 -30 13 t-28 11q-43 63 -43 103zM383 657v2h1q1 0 5 -4q-6 -8 -6 2zM1247 1546q0 14 4 28.5t16 22.5q33 18 55.5 32t43.5 24q45 23 71 22q12 0 20.5 -13t8.5 -5v2q0 4 1 -1t1 -15q0 -8 -2 -21.5t-6 -24.5q-6 -16 -17.5 -36.5t-13.5 -44.5q-4 -27 -32.5 -28t-45.5 -11 q-14 -6 -38.5 -6h-34.5h-2q-14 0 -18.5 12t-6.5 26q-4 16 -4 37zM1609 1546q0 14 4.5 28.5t16.5 22.5q33 18 55.5 32t42.5 24q45 23 72 22q12 0 20.5 -13t8.5 -5v2q0 4 1 -1t1 -15q0 -8 -2 -21.5t-7 -24.5q-6 -16 -17 -36.5t-13 -44.5q-4 -27 -33 -28t-45 -11q-14 -6 -39 -6 h-35h-2q-14 0 -18 12t-6 26q-4 16 -5 37z" />
<glyph unicode="&#xcc;" d="M57 39q0 14 4 20q12 25 22.5 41.5t63.5 16.5q49 0 58.5 -8.5t11.5 -14.5t27 -4q10 0 28.5 5t40.5 5q10 33 29.5 87.5t52.5 136.5v2q31 47 54.5 98t44.5 90v-4q0 -4 22.5 30.5t56 90t68.5 114t61.5 101.5t34.5 53q2 10 17.5 33.5t17.5 25.5h-2q23 37 31 55.5t18 37 t35 53.5q4 10 15.5 22.5t21.5 26.5q-53 -8 -102.5 -15.5t-90.5 -11.5q-10 2 -28.5 -7t-29.5 -17t-1 -8h2q-27 -8 -46.5 -7.5t-21.5 0.5v3q-23 18 -22 59q0 27 12 52.5t37 31.5q4 0 8 1t6 1q14 0 24.5 -3t25.5 -3q20 0 45 10q18 8 93 14.5t173 12.5l16 14l25 9q26 9 63 18.5 t66 9.5q45 0 47 -29l-2 -12q117 6 201 6q41 0 66.5 -1t27.5 -1h4q16 -14 16 -31q0 -20 -20.5 -32.5t-26.5 2.5q4 2 -17.5 4t-62.5 0q-8 2 -20 -9.5t-29 -13.5q-12 0 -24.5 5t-22.5 5q-33 0 -70.5 -7t-78.5 -13q-12 -14 -25.5 -26.5t-30.5 -28.5q-23 -23 -49.5 -52.5 t-44.5 -56.5h2q-23 -37 -55.5 -68.5t-50.5 -56.5q-16 -23 -39 -37t-37 -33q-100 -137 -156.5 -233t-68.5 -119q-8 -16 -23.5 -49t-29 -65.5t-19.5 -49.5q-12 -35 -22.5 -48t-18.5 -38v2q0 8 -1 -20.5t-1 -48.5q0 -37 4 -33q2 2 6 -4l2 -4q53 10 107.5 18t97.5 8 q43 -2 67.5 -4t18.5 -18q-4 -2 -3 -14.5t-42 -24.5q-39 -10 -107.5 -25.5t-136.5 -25.5l-18 -31.5t-23 -21.5h4q-6 -4 -24 -5q-18 0 -34 5l-15 6l-5 2q0 4 -9 5t-17 7q-2 2 -7 6l-10 8q-14 -4 -31.5 -12t-33.5 -8t-48 -13.5t-52 -13.5q-31 0 -42.5 6.5t-15.5 4.5 q-12 2 -25.5 20t-13.5 39zM946 1722q0 33 13.5 57.5t33.5 8.5q33 -20 84 -66.5t111.5 -96.5t115.5 -87q25 -14 27 -26.5t-2 -18.5q-10 -16 -37 -16q-14 0 -37 6q-2 2 -30.5 19.5t-70.5 43l-84 51t-70 43.5l-29 17q-14 10 -19.5 27.5t-5.5 37.5z" />
<glyph unicode="&#xcd;" d="M57 39q0 14 4 20q12 25 22.5 41.5t63.5 16.5q49 0 58.5 -8.5t11.5 -14.5t27 -4q10 0 28.5 5t40.5 5q10 33 29.5 87.5t52.5 136.5v2q31 47 54.5 98t44.5 90v-4q0 -4 22.5 30.5t56 90t68.5 114t61.5 101.5t34.5 53q2 10 17.5 33.5t17.5 25.5h-2q23 37 31 55.5t18 37 t35 53.5q4 10 15.5 22.5t21.5 26.5q-53 -8 -102.5 -15.5t-90.5 -11.5q-10 2 -28.5 -7t-29.5 -17t-1 -8h2q-27 -8 -46.5 -7.5t-21.5 0.5v3q-23 18 -22 59q0 27 12 52.5t37 31.5q4 0 8 1t6 1q14 0 24.5 -3t25.5 -3q20 0 45 10q18 8 93 14.5t173 12.5l16 14l25 9q26 9 63 18.5 t66 9.5q45 0 47 -29l-2 -12q117 6 201 6q41 0 66.5 -1t27.5 -1h4q16 -14 16 -31q0 -20 -20.5 -32.5t-26.5 2.5q4 2 -17.5 4t-62.5 0q-8 2 -20 -9.5t-29 -13.5q-12 0 -24.5 5t-22.5 5q-33 0 -70.5 -7t-78.5 -13q-12 -14 -25.5 -26.5t-30.5 -28.5q-23 -23 -49.5 -52.5 t-44.5 -56.5h2q-23 -37 -55.5 -68.5t-50.5 -56.5q-16 -23 -39 -37t-37 -33q-100 -137 -156.5 -233t-68.5 -119q-8 -16 -23.5 -49t-29 -65.5t-19.5 -49.5q-12 -35 -22.5 -48t-18.5 -38v2q0 8 -1 -20.5t-1 -48.5q0 -37 4 -33q2 2 6 -4l2 -4q53 10 107.5 18t97.5 8 q43 -2 67.5 -4t18.5 -18q-4 -2 -3 -14.5t-42 -24.5q-39 -10 -107.5 -25.5t-136.5 -25.5l-18 -31.5t-23 -21.5h4q-6 -4 -24 -5q-18 0 -34 5l-15 6l-5 2q0 4 -9 5t-17 7q-2 2 -7 6l-10 8q-14 -4 -31.5 -12t-33.5 -8t-48 -13.5t-52 -13.5q-31 0 -42.5 6.5t-15.5 4.5 q-12 2 -25.5 20t-13.5 39zM1014 1503q0 8 5 16.5t24 18.5q61 35 114.5 78t95.5 83t64 60q16 14 28.5 24.5t20.5 10.5q14 0 24.5 -19.5t10.5 -52.5q0 -20 -5 -37.5t-20 -27.5l-28 -17q-29 -18 -71 -43.5l-84 -51t-70.5 -43t-30.5 -19.5q-8 -4 -18.5 -5t-18.5 -1 q-20 0 -30.5 9t-10.5 17z" />
<glyph unicode="&#xce;" d="M57 39q0 14 4 20q12 25 22.5 41.5t63.5 16.5q49 0 58.5 -8.5t11.5 -14.5t27 -4q10 0 28.5 5t40.5 5q10 33 29.5 87.5t52.5 136.5v2q31 47 54.5 98t44.5 90v-4q0 -4 22.5 30.5t56 90t68.5 114t61.5 101.5t34.5 53q2 10 17.5 33.5t17.5 25.5h-2q23 37 31 55.5t18 37 t35 53.5q4 10 15.5 22.5t21.5 26.5q-53 -8 -102.5 -15.5t-90.5 -11.5q-10 2 -28.5 -7t-29.5 -17t-1 -8h2q-27 -8 -46.5 -7.5t-21.5 0.5v3q-23 18 -22 59q0 27 12 52.5t37 31.5q4 0 8 1t6 1q14 0 24.5 -3t25.5 -3q20 0 45 10q18 8 93 14.5t173 12.5l16 14l25 9q26 9 63 18.5 t66 9.5q45 0 47 -29l-2 -12q117 6 201 6q41 0 66.5 -1t27.5 -1h4q16 -14 16 -31q0 -20 -20.5 -32.5t-26.5 2.5q4 2 -17.5 4t-62.5 0q-8 2 -20 -9.5t-29 -13.5q-12 0 -24.5 5t-22.5 5q-33 0 -70.5 -7t-78.5 -13q-12 -14 -25.5 -26.5t-30.5 -28.5q-23 -23 -49.5 -52.5 t-44.5 -56.5h2q-23 -37 -55.5 -68.5t-50.5 -56.5q-16 -23 -39 -37t-37 -33q-100 -137 -156.5 -233t-68.5 -119q-8 -16 -23.5 -49t-29 -65.5t-19.5 -49.5q-12 -35 -22.5 -48t-18.5 -38v2q0 8 -1 -20.5t-1 -48.5q0 -37 4 -33q2 2 6 -4l2 -4q53 10 107.5 18t97.5 8 q43 -2 67.5 -4t18.5 -18q-4 -2 -3 -14.5t-42 -24.5q-39 -10 -107.5 -25.5t-136.5 -25.5l-18 -31.5t-23 -21.5h4q-6 -4 -24 -5q-18 0 -34 5l-15 6l-5 2q0 4 -9 5t-17 7q-2 2 -7 6l-10 8q-14 -4 -31.5 -12t-33.5 -8t-48 -13.5t-52 -13.5q-31 0 -42.5 6.5t-15.5 4.5 q-12 2 -25.5 20t-13.5 39zM807 1481q0 6 2 10q10 18 49 37q80 35 162 78t152.5 84t115.5 65q10 6 27 6q16 0 18 -6q23 -39 66 -104.5t88 -126.5q8 -10 8 -23q0 -14 -14 -24q-10 -8 -15.5 -10.5t-9.5 -2.5q-8 0 -12 2t-10 4l-176 164q-20 -10 -64.5 -29.5t-99 -42t-105.5 -43 t-85 -33.5t-36 -16q-24 -6 -36 -6q-23 0 -25 17z" />
<glyph unicode="&#xcf;" d="M57 39q0 14 4 20q12 25 22.5 41.5t63.5 16.5q49 0 58.5 -8.5t11.5 -14.5t27 -4q10 0 28.5 5t40.5 5q10 33 29.5 87.5t52.5 136.5v2q31 47 54.5 98t44.5 90v-4q0 -4 22.5 30.5t56 90t68.5 114t61.5 101.5t34.5 53q2 10 17.5 33.5t17.5 25.5h-2q23 37 31 55.5t18 37 t35 53.5q4 10 15.5 22.5t21.5 26.5q-53 -8 -102.5 -15.5t-90.5 -11.5q-10 2 -28.5 -7t-29.5 -17t-1 -8h2q-27 -8 -46.5 -7.5t-21.5 0.5v3q-23 18 -22 59q0 27 12 52.5t37 31.5q4 0 8 1t6 1q14 0 24.5 -3t25.5 -3q20 0 45 10q18 8 93 14.5t173 12.5l16 14l25 9q26 9 63 18.5 t66 9.5q45 0 47 -29l-2 -12q117 6 201 6q41 0 66.5 -1t27.5 -1h4q16 -14 16 -31q0 -20 -20.5 -32.5t-26.5 2.5q4 2 -17.5 4t-62.5 0q-8 2 -20 -9.5t-29 -13.5q-12 0 -24.5 5t-22.5 5q-33 0 -70.5 -7t-78.5 -13q-12 -14 -25.5 -26.5t-30.5 -28.5q-23 -23 -49.5 -52.5 t-44.5 -56.5h2q-23 -37 -55.5 -68.5t-50.5 -56.5q-16 -23 -39 -37t-37 -33q-100 -137 -156.5 -233t-68.5 -119q-8 -16 -23.5 -49t-29 -65.5t-19.5 -49.5q-12 -35 -22.5 -48t-18.5 -38v2q0 8 -1 -20.5t-1 -48.5q0 -37 4 -33q2 2 6 -4l2 -4q53 10 107.5 18t97.5 8 q43 -2 67.5 -4t18.5 -18q-4 -2 -3 -14.5t-42 -24.5q-39 -10 -107.5 -25.5t-136.5 -25.5l-18 -31.5t-23 -21.5h4q-6 -4 -24 -5q-18 0 -34 5l-15 6l-5 2q0 4 -9 5t-17 7q-2 2 -7 6l-10 8q-14 -4 -31.5 -12t-33.5 -8t-48 -13.5t-52 -13.5q-31 0 -42.5 6.5t-15.5 4.5 q-12 2 -25.5 20t-13.5 39zM924 1548q0 14 4 28.5t16 22.5q33 18 55.5 32t43.5 24q45 23 71 22q12 0 20.5 -13t8.5 -5v2q0 4 1 -1t1 -15q0 -8 -2 -21.5t-6 -24.5q-6 -16 -17.5 -36.5t-13.5 -44.5q-4 -27 -32.5 -28t-45.5 -11q-14 -6 -38.5 -6h-34.5h-2q-14 0 -18.5 12 t-6.5 26q-4 16 -4 37zM1286 1548q0 14 4.5 28.5t16.5 22.5q33 18 55.5 32t42.5 24q45 23 72 22q12 0 20.5 -13t8.5 -5v2q0 4 1 -1t1 -15q0 -8 -2 -21.5t-7 -24.5q-6 -16 -17 -36.5t-13 -44.5q-4 -27 -33 -28t-45 -11q-14 -6 -39 -6h-35h-2q-14 0 -18 12t-6 26q-4 16 -5 37z " />
<glyph unicode="&#xd0;" horiz-adv-x="1845" d="M143 829q-2 14 1 37t18 49q4 4 3 16.5t7 20.5h-2q8 10 19.5 11.5t13.5 5.5q59 72 196.5 146.5t366.5 107.5q10 2 23.5 2t3.5 0h-2q-4 0 21.5 4t54 9t32.5 5q43 6 74 6q37 0 73.5 -4t98.5 -6q248 -4 424 -61.5t269 -156.5t93 -230q0 -80 -35.5 -168t-111.5 -185 q-92 -117 -197.5 -192.5t-208 -127.5t-186.5 -102q-80 -47 -176 -76.5t-182 -45t-134 -23.5q-86 -12 -168 -12q-59 0 -105 6t-69 20q-29 16 -28 56q0 23 11 39t32 16q27 0 57 -29q20 -18 55 -25.5t67 -7.5h40q8 -2 18.5 -2h20.5q43 0 103.5 8.5t124 20.5t116.5 26.5t84 28.5 q225 109 372.5 207.5t235.5 222.5q47 63 70.5 139.5t23.5 151.5q0 59 -14 115.5t-49 108.5q-31 49 -101.5 93t-165 77.5t-200.5 50.5q-4 -29 -20.5 -66t-57.5 -72q-25 -23 -62.5 -44t-54.5 -44q-14 -23 -50 -49t-69.5 -48.5t-46.5 -37.5q-8 -10 -31.5 -38.5t-51 -63.5 t-50 -63.5t-30.5 -39.5q-70 -84 -104 -134t-47 -76.5t-21 -40.5h-3q-14 -27 -51 -52.5t-47 -44.5q-14 -33 -43 -77t-35 -66q-6 -14 -34.5 -55t-47.5 -119q-14 -63 -33.5 -90t-33.5 -27q-25 0 -25 39q0 20 13.5 79.5t46.5 123.5q14 29 37.5 74t48 92t46 86t34.5 57 q25 39 56.5 86t63 91t55 75t27.5 37q0 4 14.5 21.5t32 39t30.5 37.5l13 16q25 33 61 75t71.5 85t62.5 74q10 14 31.5 52t36.5 52q14 12 33.5 34t35.5 30l8 4q-90 -2 -168.5 -11t-148.5 -26q-33 -8 -57.5 -17.5t-53.5 -19.5q-25 -8 -51 -15t-49 -18q-98 -45 -146.5 -96 t-48.5 -80v-6q0 -14 5.5 -28.5t17.5 -4.5q10 6 16 7q18 0 19 -19q0 -14 -17 -24q-16 -14 -46.5 -24.5t-41.5 -10.5q-43 0 -77.5 3t-49.5 25zM397 619q0 14 19 22q18 6 82.5 8t167.5 2q49 0 108.5 -1t110.5 -3t78 -6q51 -6 51 -29q0 -8 -22.5 -16t-65.5 -6q-23 2 -66 0 t-88 -4t-80 -2t-85 -8.5t-72 -16.5q-16 -8 -47 -11t-48 -7q-6 -2 -15 -4t-13 2q-2 2 -3 5t-5 13q-2 4 -1 9t1 10q0 14 -3.5 24t-3.5 19z" />
<glyph unicode="&#xd1;" horiz-adv-x="1320" d="M-27 -53q0 33 13.5 81t44.5 117q39 88 64.5 142.5t52 97.5t69.5 97.5t117 140.5q10 12 33.5 33.5l47 43t34.5 33.5q10 10 10 15v6q0 6 12 20q70 72 131.5 141.5t120.5 115.5t123 46q8 0 15 -1t16 -3q23 -2 37 -5t14 -17q0 -10 -17 -43q-39 -66 -60.5 -171.5t-31.5 -222 t-12 -220t-2 -167.5v-24q0 -16 2 -20.5t10 -14.5h2q2 -8 15.5 -27.5t11.5 -15.5l30 54q29 54 83.5 143.5t128 195t163.5 207.5q57 66 111.5 143.5t110 154.5t114.5 138q12 12 30.5 36t36 45.5t23.5 32.5t-6 -1q16 23 20.5 29t30.5 30q23 18 56 19q25 0 46 -12.5t21 -34.5 q0 -18 -14 -35q-10 -14 -26.5 -25.5t-24.5 -27.5q-10 -14 -40 -39t-40 -35q-27 -33 -66 -76t-77.5 -83t-63.5 -65.5t-25 -23.5l-73 -104q-113 -131 -180.5 -219.5t-102.5 -147.5t-50 -99t-24.5 -72t-25.5 -67q-4 -8 -24.5 -44t-42 -70.5t-32.5 -40.5q-8 -6 -18 -6 q-6 0 -13.5 2t-17.5 2q-12 0 -18 -4l-24 -9q-23 -8 -50 -8q-20 0 -35 10q-14 16 -25.5 50t-16.5 68t-5 48q8 96 11.5 133t3.5 58q0 23 -9 82q-2 16 0 65t7.5 109.5t11.5 110t12 63.5q2 2 2 8q0 10 -5 19.5t-9 11.5q-16 -8 -64.5 -52t-115 -114t-140.5 -158 q-12 -18 -31.5 -33.5t-33.5 -33.5q-51 -63 -82 -99.5t-51.5 -59t-37 -47t-38 -65.5t-55.5 -114q-6 -12 -7 -23q0 -16 6.5 -32.5t4.5 -37.5q-2 -18 4 -53t6 -51v-4q0 -20 -9.5 -27.5t-19.5 -7.5q-12 0 -20 8q-25 18 -41.5 42t-16.5 65zM1129 1468.5q-6 20.5 2 28.5 q29 35 69.5 63.5t79.5 49.5q35 20 72 20q27 0 66.5 -2t78.5 -18q41 -14 76 -28.5t74 -14.5q43 0 123 67q16 16 26.5 21.5t16.5 5.5q4 0 10 -8t6 -21q0 -8 -6 -18q-10 -20 -48 -56t-84 -64t-83 -28q-23 0 -73 16.5t-106.5 32t-103.5 15.5q-37 0 -73 -14q-37 -14 -65 -44 t-42 -30q-10 6 -16 26.5z" />
<glyph unicode="&#xd2;" horiz-adv-x="1525" d="M174 317q0 33 4 63t8 50q35 152 128.5 284t238.5 265q16 16 32.5 30.5t32.5 28.5q10 6 20.5 7.5t18.5 1.5q10 0 18.5 1t12.5 5q10 6 13.5 28.5t15.5 32.5q59 43 139 71.5t148 55.5q57 23 140 35t161 12q80 0 131 -12q45 -10 60 -31.5t19.5 -46t10.5 -47.5q2 -6 3 -12 t1 -13q0 -33 -20.5 -59.5t-41.5 -24.5q14 -8 25.5 -20t22.5 -27q16 -20 36.5 -43.5t28.5 -54.5v-2q0 -12 -1 -28.5t-1 -30.5q-2 -4 7 -9.5t11 -19.5q0 -68 -20.5 -146.5t-67.5 -162.5q-59 -106 -134 -182t-147.5 -126.5t-125.5 -85.5h-4q-2 2 -9.5 -5t-11.5 1q-14 -2 -16 0 t-6 -8q-14 -27 -44 -25.5t-50 -9.5q-27 -8 -49.5 -25.5t-51.5 -25.5q-33 -8 -121 -28.5t-190 -20.5q-76 0 -148.5 18.5t-132.5 63.5q-51 43 -72.5 123t-21.5 155zM299 295q0 -49 13.5 -94t29.5 -76q33 -59 101.5 -78.5t138.5 -19.5q49 0 91 7t60 7h2q8 0 27.5 10t41 20.5 t34.5 10.5q16 0 42.5 8t47.5 16q100 37 161.5 88.5t124.5 102.5q16 14 33 26.5t27 20.5q27 35 65.5 78t71.5 106q37 70 48 121t11 103q0 23 3.5 44t3.5 40q0 6 -6.5 28.5t-6.5 30.5q0 6 -9 13t-17 18q-31 57 -80 87.5t-105 30.5q-70 0 -123 -30q-8 -6 -17 -8t-15 -2 q-18 0 -19 14q0 20 48.5 49t166.5 29q41 0 79 -7.5t71 -27.5l-6 12v2q0 10 -13.5 24.5t-13.5 28.5l-25 18q-26 19 -59 19h-2q-18 0 -40.5 4.5t-49.5 4.5q-39 0 -84 -8.5t-96 -30.5q-158 -70 -302.5 -153t-240.5 -191q-12 -16 -15 -22.5t-18 -25.5q-10 -12 -30.5 -34.5 t-28.5 -34.5q-31 -43 -47.5 -93.5t-26.5 -97.5t-24 -77q-12 -27 -17.5 -54.5t-5.5 -56.5zM1130 1704q0 33 13.5 57.5t33.5 8.5q33 -20 84 -66.5t111.5 -96.5t115.5 -87q25 -14 27 -26.5t-2 -18.5q-10 -16 -37 -16q-14 0 -37 6q-2 2 -30.5 19.5t-70.5 43l-84 51t-70 43.5 l-29 17q-14 10 -19.5 27.5t-5.5 37.5z" />
<glyph unicode="&#xd3;" horiz-adv-x="1525" d="M174 317q0 33 4 63t8 50q35 152 128.5 284t238.5 265q16 16 32.5 30.5t32.5 28.5q10 6 20.5 7.5t18.5 1.5q10 0 18.5 1t12.5 5q10 6 13.5 28.5t15.5 32.5q59 43 139 71.5t148 55.5q57 23 140 35t161 12q80 0 131 -12q45 -10 60 -31.5t19.5 -46t10.5 -47.5q2 -6 3 -12 t1 -13q0 -33 -20.5 -59.5t-41.5 -24.5q14 -8 25.5 -20t22.5 -27q16 -20 36.5 -43.5t28.5 -54.5v-2q0 -12 -1 -28.5t-1 -30.5q-2 -4 7 -9.5t11 -19.5q0 -68 -20.5 -146.5t-67.5 -162.5q-59 -106 -134 -182t-147.5 -126.5t-125.5 -85.5h-4q-2 2 -9.5 -5t-11.5 1q-14 -2 -16 0 t-6 -8q-14 -27 -44 -25.5t-50 -9.5q-27 -8 -49.5 -25.5t-51.5 -25.5q-33 -8 -121 -28.5t-190 -20.5q-76 0 -148.5 18.5t-132.5 63.5q-51 43 -72.5 123t-21.5 155zM299 295q0 -49 13.5 -94t29.5 -76q33 -59 101.5 -78.5t138.5 -19.5q49 0 91 7t60 7h2q8 0 27.5 10t41 20.5 t34.5 10.5q16 0 42.5 8t47.5 16q100 37 161.5 88.5t124.5 102.5q16 14 33 26.5t27 20.5q27 35 65.5 78t71.5 106q37 70 48 121t11 103q0 23 3.5 44t3.5 40q0 6 -6.5 28.5t-6.5 30.5q0 6 -9 13t-17 18q-31 57 -80 87.5t-105 30.5q-70 0 -123 -30q-8 -6 -17 -8t-15 -2 q-18 0 -19 14q0 20 48.5 49t166.5 29q41 0 79 -7.5t71 -27.5l-6 12v2q0 10 -13.5 24.5t-13.5 28.5l-25 18q-26 19 -59 19h-2q-18 0 -40.5 4.5t-49.5 4.5q-39 0 -84 -8.5t-96 -30.5q-158 -70 -302.5 -153t-240.5 -191q-12 -16 -15 -22.5t-18 -25.5q-10 -12 -30.5 -34.5 t-28.5 -34.5q-31 -43 -47.5 -93.5t-26.5 -97.5t-24 -77q-12 -27 -17.5 -54.5t-5.5 -56.5zM1198 1485q0 8 5 16.5t24 18.5q61 35 114.5 78t95.5 83t64 60q16 14 28.5 24.5t20.5 10.5q14 0 24.5 -19.5t10.5 -52.5q0 -20 -5 -37.5t-20 -27.5l-28 -17q-29 -18 -71 -43.5l-84 -51 t-70.5 -43t-30.5 -19.5q-8 -4 -18.5 -5t-18.5 -1q-20 0 -30.5 9t-10.5 17z" />
<glyph unicode="&#xd4;" horiz-adv-x="1525" d="M174 317q0 33 4 63t8 50q35 152 128.5 284t238.5 265q16 16 32.5 30.5t32.5 28.5q10 6 20.5 7.5t18.5 1.5q10 0 18.5 1t12.5 5q10 6 13.5 28.5t15.5 32.5q59 43 139 71.5t148 55.5q57 23 140 35t161 12q80 0 131 -12q45 -10 60 -31.5t19.5 -46t10.5 -47.5q2 -6 3 -12 t1 -13q0 -33 -20.5 -59.5t-41.5 -24.5q14 -8 25.5 -20t22.5 -27q16 -20 36.5 -43.5t28.5 -54.5v-2q0 -12 -1 -28.5t-1 -30.5q-2 -4 7 -9.5t11 -19.5q0 -68 -20.5 -146.5t-67.5 -162.5q-59 -106 -134 -182t-147.5 -126.5t-125.5 -85.5h-4q-2 2 -9.5 -5t-11.5 1q-14 -2 -16 0 t-6 -8q-14 -27 -44 -25.5t-50 -9.5q-27 -8 -49.5 -25.5t-51.5 -25.5q-33 -8 -121 -28.5t-190 -20.5q-76 0 -148.5 18.5t-132.5 63.5q-51 43 -72.5 123t-21.5 155zM299 295q0 -49 13.5 -94t29.5 -76q33 -59 101.5 -78.5t138.5 -19.5q49 0 91 7t60 7h2q8 0 27.5 10t41 20.5 t34.5 10.5q16 0 42.5 8t47.5 16q100 37 161.5 88.5t124.5 102.5q16 14 33 26.5t27 20.5q27 35 65.5 78t71.5 106q37 70 48 121t11 103q0 23 3.5 44t3.5 40q0 6 -6.5 28.5t-6.5 30.5q0 6 -9 13t-17 18q-31 57 -80 87.5t-105 30.5q-70 0 -123 -30q-8 -6 -17 -8t-15 -2 q-18 0 -19 14q0 20 48.5 49t166.5 29q41 0 79 -7.5t71 -27.5l-6 12v2q0 10 -13.5 24.5t-13.5 28.5l-25 18q-26 19 -59 19h-2q-18 0 -40.5 4.5t-49.5 4.5q-39 0 -84 -8.5t-96 -30.5q-158 -70 -302.5 -153t-240.5 -191q-12 -16 -15 -22.5t-18 -25.5q-10 -12 -30.5 -34.5 t-28.5 -34.5q-31 -43 -47.5 -93.5t-26.5 -97.5t-24 -77q-12 -27 -17.5 -54.5t-5.5 -56.5zM991 1463q0 6 2 10q10 18 49 37q80 35 162 78t152.5 84t115.5 65q10 6 27 6q16 0 18 -6q23 -39 66 -104.5t88 -126.5q8 -10 8 -23q0 -14 -14 -24q-10 -8 -15.5 -10.5t-9.5 -2.5 q-8 0 -12 2t-10 4l-176 164q-20 -10 -64.5 -29.5t-99 -42t-105.5 -43t-85 -33.5t-36 -16q-24 -6 -36 -6q-23 0 -25 17z" />
<glyph unicode="&#xd5;" horiz-adv-x="1525" d="M174 317q0 33 4 63t8 50q35 152 128.5 284t238.5 265q16 16 32.5 30.5t32.5 28.5q10 6 20.5 7.5t18.5 1.5q10 0 18.5 1t12.5 5q10 6 13.5 28.5t15.5 32.5q59 43 139 71.5t148 55.5q57 23 140 35t161 12q80 0 131 -12q45 -10 60 -31.5t19.5 -46t10.5 -47.5q2 -6 3 -12 t1 -13q0 -33 -20.5 -59.5t-41.5 -24.5q14 -8 25.5 -20t22.5 -27q16 -20 36.5 -43.5t28.5 -54.5v-2q0 -12 -1 -28.5t-1 -30.5q-2 -4 7 -9.5t11 -19.5q0 -68 -20.5 -146.5t-67.5 -162.5q-59 -106 -134 -182t-147.5 -126.5t-125.5 -85.5h-4q-2 2 -9.5 -5t-11.5 1q-14 -2 -16 0 t-6 -8q-14 -27 -44 -25.5t-50 -9.5q-27 -8 -49.5 -25.5t-51.5 -25.5q-33 -8 -121 -28.5t-190 -20.5q-76 0 -148.5 18.5t-132.5 63.5q-51 43 -72.5 123t-21.5 155zM299 295q0 -49 13.5 -94t29.5 -76q33 -59 101.5 -78.5t138.5 -19.5q49 0 91 7t60 7h2q8 0 27.5 10t41 20.5 t34.5 10.5q16 0 42.5 8t47.5 16q100 37 161.5 88.5t124.5 102.5q16 14 33 26.5t27 20.5q27 35 65.5 78t71.5 106q37 70 48 121t11 103q0 23 3.5 44t3.5 40q0 6 -6.5 28.5t-6.5 30.5q0 6 -9 13t-17 18q-31 57 -80 87.5t-105 30.5q-70 0 -123 -30q-8 -6 -17 -8t-15 -2 q-18 0 -19 14q0 20 48.5 49t166.5 29q41 0 79 -7.5t71 -27.5l-6 12v2q0 10 -13.5 24.5t-13.5 28.5l-25 18q-26 19 -59 19h-2q-18 0 -40.5 4.5t-49.5 4.5q-39 0 -84 -8.5t-96 -30.5q-158 -70 -302.5 -153t-240.5 -191q-12 -16 -15 -22.5t-18 -25.5q-10 -12 -30.5 -34.5 t-28.5 -34.5q-31 -43 -47.5 -93.5t-26.5 -97.5t-24 -77q-12 -27 -17.5 -54.5t-5.5 -56.5zM1057 1450.5q-6 20.5 2 28.5q29 35 69.5 63.5t79.5 49.5q35 20 72 20q27 0 66.5 -2t78.5 -18q41 -14 76 -28.5t74 -14.5q43 0 123 67q16 16 26.5 21.5t16.5 5.5q4 0 10 -8t6 -21 q0 -8 -6 -18q-10 -20 -48 -56t-84 -64t-83 -28q-23 0 -73 16.5t-106.5 32t-103.5 15.5q-37 0 -73 -14q-37 -14 -65 -44t-42 -30q-10 6 -16 26.5z" />
<glyph unicode="&#xd6;" horiz-adv-x="1525" d="M174 317q0 33 4 63t8 50q35 152 128.5 284t238.5 265q16 16 32.5 30.5t32.5 28.5q10 6 20.5 7.5t18.5 1.5q10 0 18.5 1t12.5 5q10 6 13.5 28.5t15.5 32.5q59 43 139 71.5t148 55.5q57 23 140 35t161 12q80 0 131 -12q45 -10 60 -31.5t19.5 -46t10.5 -47.5q2 -6 3 -12 t1 -13q0 -33 -20.5 -59.5t-41.5 -24.5q14 -8 25.5 -20t22.5 -27q16 -20 36.5 -43.5t28.5 -54.5v-2q0 -12 -1 -28.5t-1 -30.5q-2 -4 7 -9.5t11 -19.5q0 -68 -20.5 -146.5t-67.5 -162.5q-59 -106 -134 -182t-147.5 -126.5t-125.5 -85.5h-4q-2 2 -9.5 -5t-11.5 1q-14 -2 -16 0 t-6 -8q-14 -27 -44 -25.5t-50 -9.5q-27 -8 -49.5 -25.5t-51.5 -25.5q-33 -8 -121 -28.5t-190 -20.5q-76 0 -148.5 18.5t-132.5 63.5q-51 43 -72.5 123t-21.5 155zM299 295q0 -49 13.5 -94t29.5 -76q33 -59 101.5 -78.5t138.5 -19.5q49 0 91 7t60 7h2q8 0 27.5 10t41 20.5 t34.5 10.5q16 0 42.5 8t47.5 16q100 37 161.5 88.5t124.5 102.5q16 14 33 26.5t27 20.5q27 35 65.5 78t71.5 106q37 70 48 121t11 103q0 23 3.5 44t3.5 40q0 6 -6.5 28.5t-6.5 30.5q0 6 -9 13t-17 18q-31 57 -80 87.5t-105 30.5q-70 0 -123 -30q-8 -6 -17 -8t-15 -2 q-18 0 -19 14q0 20 48.5 49t166.5 29q41 0 79 -7.5t71 -27.5l-6 12v2q0 10 -13.5 24.5t-13.5 28.5l-25 18q-26 19 -59 19h-2q-18 0 -40.5 4.5t-49.5 4.5q-39 0 -84 -8.5t-96 -30.5q-158 -70 -302.5 -153t-240.5 -191q-12 -16 -15 -22.5t-18 -25.5q-10 -12 -30.5 -34.5 t-28.5 -34.5q-31 -43 -47.5 -93.5t-26.5 -97.5t-24 -77q-12 -27 -17.5 -54.5t-5.5 -56.5zM1108 1530q0 14 4 28.5t16 22.5q33 18 55.5 32t43.5 24q45 23 71 22q12 0 20.5 -13t8.5 -5v2q0 4 1 -1t1 -15q0 -8 -2 -21.5t-6 -24.5q-6 -16 -17.5 -36.5t-13.5 -44.5 q-4 -27 -32.5 -28t-45.5 -11q-14 -6 -38.5 -6h-34.5h-2q-14 0 -18.5 12t-6.5 26q-4 16 -4 37zM1470 1530q0 14 4.5 28.5t16.5 22.5q33 18 55.5 32t42.5 24q45 23 72 22q12 0 20.5 -13t8.5 -5v2q0 4 1 -1t1 -15q0 -8 -2 -21.5t-7 -24.5q-6 -16 -17 -36.5t-13 -44.5 q-4 -27 -33 -28t-45 -11q-14 -6 -39 -6h-35h-2q-14 0 -18 12t-6 26q-4 16 -5 37z" />
<glyph unicode="&#xd7;" horiz-adv-x="765" d="M119 45q-18 0 12.5 56.5t155.5 183.5q66 63 118 123.5t99 117.5l-4 4q-14 16 -15.5 23.5t-7.5 11.5q-16 14 -41.5 42t-53.5 55.5t-48 39.5q-27 18 -65 57.5t-56 55.5q-27 25 -53.5 60.5t-18.5 52.5h-2q10 16 29.5 22t42.5 6q59 0 100 -28q14 -12 54.5 -59.5t96.5 -117 t118 -149.5l4 4q18 23 23 36t11.5 27.5t22.5 37.5q16 20 43 49.5t52.5 57.5t37.5 42q31 35 72 66.5t53 23.5l2 2q12 -12 12 -43q0 -39 -16 -89t-41 -87q-18 -23 -75.5 -80t-135.5 -129q66 -82 127.5 -160.5t111.5 -142t79 -98.5q18 -20 18 -35q0 -18 -45 2t-148 125 q-45 49 -103 117.5t-110 126.5q-76 -72 -155.5 -145.5t-149 -137t-116.5 -106.5q-21 -21 -35 -21z" />
<glyph unicode="&#xd8;" horiz-adv-x="1318" d="M109 317q0 33 4 63t8 50q35 152 128 284t238 265q16 16 33 30.5t33 28.5q10 6 20.5 7.5t18.5 1.5q10 0 18 1t13 5q10 6 13 28.5t15 32.5q59 43 139 71.5t148 55.5q59 23 144 35t165 12q14 16 29.5 33.5t23.5 24.5q10 12 33 17t17 5h-2q23 8 43 8q55 0 61 -49 q18 -27 18 -47q0 -14 -9 -25.5t-23 -21.5q12 -20 14 -42t8 -40q2 -6 3 -12t1 -13q0 -33 -20.5 -59.5t-40.5 -24.5q14 -8 25.5 -20t21.5 -27q16 -20 36.5 -43.5t29.5 -54.5v-2q0 -12 -1.5 -28.5t-1.5 -30.5q-2 -4 7.5 -9.5t11.5 -19.5q0 -68 -20.5 -146.5t-67.5 -162.5 q-59 -106 -134 -182t-147.5 -126.5t-126.5 -85.5h-4q-2 2 -9 -5t-11 1q-14 -2 -16.5 0t-6.5 -8q-14 -27 -44 -25.5t-50 -9.5q-27 -8 -49.5 -25.5t-50.5 -25.5q-33 -8 -121 -28.5t-191 -20.5q-51 0 -101 7t-97 28q-8 -8 -17.5 -19.5t-19.5 -23.5q-20 -25 -49 -31t-33 0 q-10 14 11.5 46t41.5 63l-16 12q-53 41 -73.5 122t-20.5 156zM233 295q0 -47 12.5 -91t28.5 -75l60 96h2q37 39 66.5 82t58.5 76l399 455q4 10 24.5 27.5t20.5 19.5q27 31 35 46t18.5 29.5t40.5 40.5l15 17q0 20 39 45l96 111q-35 -2 -75 -10.5t-85 -28.5 q-158 -70 -302 -153t-241 -191q-12 -16 -15 -22.5t-17 -25.5q-10 -12 -31 -34.5t-29 -34.5q-31 -43 -47 -93.5t-26.5 -97.5t-24.5 -77q-12 -27 -17.5 -54.5t-5.5 -56.5zM342 61q37 -20 83 -27t91 -7q51 0 92 7t60 7h2q8 0 27.5 10t41 20.5t33.5 10.5q16 0 43 8t47 16 q100 37 161.5 88.5t125.5 102.5q16 14 32.5 26.5t26.5 20.5q27 35 66 78t72 106q37 70 48 121t11 103q0 23 3 44t3 40q0 6 -6 28.5t-6 30.5q0 6 -9.5 13t-17.5 18q-59 104 -158 116l-28 -28q-18 -18 -56 -59.5t-74 -80t-52 -53.5q-6 -6 -35 -31.5t-64 -57.5t-63.5 -57.5 t-36.5 -29.5q-55 -59 -115.5 -132t-116 -139.5t-91.5 -113.5t-42 -55q-33 -55 -54 -86t-44 -58zM1270 1096q57 -2 108 -35l-6 12v2q0 10 -13 24.5t-13 28.5l-25 15q-12 -10 -25.5 -22.5t-25.5 -24.5z" />
<glyph unicode="&#xd9;" horiz-adv-x="1267" d="M94 -4q0 20 6 45q16 59 45 148.5t71 188.5t95 187q23 37 57.5 91.5t70.5 110.5t67 102t45 69q23 31 26 48.5t9 35.5q10 33 33.5 44t44.5 19q43 16 83.5 34t71.5 22q31 -4 43 -18.5t14.5 -21.5t2.5 9v2q2 -8 2 -20q0 -20 -13.5 -40t-44 -51.5t-86.5 -93.5 q-14 -14 -32.5 -21t-32.5 -24q-57 -61 -120 -142t-113 -152.5t-74 -106.5h2q-45 -70 -71 -142.5t-44 -132.5q-6 -20 -9 -54t-3 -54.5t0 -5.5q0 -8 22.5 -8.5t30.5 -2.5q0 -2 14.5 6.5t26.5 16.5t2 8h-2q61 23 136 81t140 110q8 8 23.5 26.5t32 38t22.5 27.5q12 10 19.5 23.5 t19.5 21.5v-2q37 31 99.5 93t135 137t139 147.5t111.5 126.5q96 115 137.5 188.5t61.5 91.5q37 35 80 35q29 0 51.5 -17.5t30.5 -52.5q10 -37 -16.5 -54t-40.5 -36q-16 -23 -95.5 -105.5t-169.5 -215.5q-20 -31 -43.5 -77t-45 -94t-39 -86t-23.5 -53q-8 -18 -23.5 -40.5 t-22.5 -34t5 1.5l2 2q0 -4 -11.5 -37t-24.5 -76t-24.5 -77.5t-13.5 -43.5q-8 -37 -11 -92t-3 -101t-4 -57q-14 -63 -43 -63q-18 0 -31 29l2 -2q-8 12 -10 45.5t0 72.5q8 94 16 202t45 183q55 115 74.5 187.5t50.5 126.5q-31 -27 -74 -71t-89 -92t-88 -90t-72 -69 q-4 -4 -20.5 -22.5l-33 -37t-22.5 -24.5q-8 -8 -34 -34.5t-36 -34.5q-57 -47 -94 -81t-72 -61.5t-88 -60.5q-4 -2 -8 -9.5t-12 -11.5l2 2q2 2 2 5q0 2 -15.5 -5.5t-19.5 -11.5h-2q-18 -8 -33.5 -17t-32.5 -16q-14 -6 -29.5 -10t-29.5 -4q-33 0 -55.5 19.5t-22.5 60.5z M987 1638q0 33 13.5 57.5t33.5 8.5q33 -20 84 -66.5t111.5 -96.5t115.5 -87q25 -14 27 -26.5t-2 -18.5q-10 -16 -37 -16q-14 0 -37 6q-2 2 -30.5 19.5t-70.5 43l-84 51t-70 43.5l-29 17q-14 10 -19.5 27.5t-5.5 37.5z" />
<glyph unicode="&#xda;" horiz-adv-x="1267" d="M94 -4q0 20 6 45q16 59 45 148.5t71 188.5t95 187q23 37 57.5 91.5t70.5 110.5t67 102t45 69q23 31 26 48.5t9 35.5q10 33 33.5 44t44.5 19q43 16 83.5 34t71.5 22q31 -4 43 -18.5t14.5 -21.5t2.5 9v2q2 -8 2 -20q0 -20 -13.5 -40t-44 -51.5t-86.5 -93.5 q-14 -14 -32.5 -21t-32.5 -24q-57 -61 -120 -142t-113 -152.5t-74 -106.5h2q-45 -70 -71 -142.5t-44 -132.5q-6 -20 -9 -54t-3 -54.5t0 -5.5q0 -8 22.5 -8.5t30.5 -2.5q0 -2 14.5 6.5t26.5 16.5t2 8h-2q61 23 136 81t140 110q8 8 23.5 26.5t32 38t22.5 27.5q12 10 19.5 23.5 t19.5 21.5v-2q37 31 99.5 93t135 137t139 147.5t111.5 126.5q96 115 137.5 188.5t61.5 91.5q37 35 80 35q29 0 51.5 -17.5t30.5 -52.5q10 -37 -16.5 -54t-40.5 -36q-16 -23 -95.5 -105.5t-169.5 -215.5q-20 -31 -43.5 -77t-45 -94t-39 -86t-23.5 -53q-8 -18 -23.5 -40.5 t-22.5 -34t5 1.5l2 2q0 -4 -11.5 -37t-24.5 -76t-24.5 -77.5t-13.5 -43.5q-8 -37 -11 -92t-3 -101t-4 -57q-14 -63 -43 -63q-18 0 -31 29l2 -2q-8 12 -10 45.5t0 72.5q8 94 16 202t45 183q55 115 74.5 187.5t50.5 126.5q-31 -27 -74 -71t-89 -92t-88 -90t-72 -69 q-4 -4 -20.5 -22.5l-33 -37t-22.5 -24.5q-8 -8 -34 -34.5t-36 -34.5q-57 -47 -94 -81t-72 -61.5t-88 -60.5q-4 -2 -8 -9.5t-12 -11.5l2 2q2 2 2 5q0 2 -15.5 -5.5t-19.5 -11.5h-2q-18 -8 -33.5 -17t-32.5 -16q-14 -6 -29.5 -10t-29.5 -4q-33 0 -55.5 19.5t-22.5 60.5z M1055 1419q0 8 5 16.5t24 18.5q61 35 114.5 78t95.5 83t64 60q16 14 28.5 24.5t20.5 10.5q14 0 24.5 -19.5t10.5 -52.5q0 -20 -5 -37.5t-20 -27.5l-28 -17q-29 -18 -71 -43.5l-84 -51t-70.5 -43t-30.5 -19.5q-8 -4 -18.5 -5t-18.5 -1q-20 0 -30.5 9t-10.5 17z" />
<glyph unicode="&#xdb;" horiz-adv-x="1267" d="M94 -4q0 20 6 45q16 59 45 148.5t71 188.5t95 187q23 37 57.5 91.5t70.5 110.5t67 102t45 69q23 31 26 48.5t9 35.5q10 33 33.5 44t44.5 19q43 16 83.5 34t71.5 22q31 -4 43 -18.5t14.5 -21.5t2.5 9v2q2 -8 2 -20q0 -20 -13.5 -40t-44 -51.5t-86.5 -93.5 q-14 -14 -32.5 -21t-32.5 -24q-57 -61 -120 -142t-113 -152.5t-74 -106.5h2q-45 -70 -71 -142.5t-44 -132.5q-6 -20 -9 -54t-3 -54.5t0 -5.5q0 -8 22.5 -8.5t30.5 -2.5q0 -2 14.5 6.5t26.5 16.5t2 8h-2q61 23 136 81t140 110q8 8 23.5 26.5t32 38t22.5 27.5q12 10 19.5 23.5 t19.5 21.5v-2q37 31 99.5 93t135 137t139 147.5t111.5 126.5q96 115 137.5 188.5t61.5 91.5q37 35 80 35q29 0 51.5 -17.5t30.5 -52.5q10 -37 -16.5 -54t-40.5 -36q-16 -23 -95.5 -105.5t-169.5 -215.5q-20 -31 -43.5 -77t-45 -94t-39 -86t-23.5 -53q-8 -18 -23.5 -40.5 t-22.5 -34t5 1.5l2 2q0 -4 -11.5 -37t-24.5 -76t-24.5 -77.5t-13.5 -43.5q-8 -37 -11 -92t-3 -101t-4 -57q-14 -63 -43 -63q-18 0 -31 29l2 -2q-8 12 -10 45.5t0 72.5q8 94 16 202t45 183q55 115 74.5 187.5t50.5 126.5q-31 -27 -74 -71t-89 -92t-88 -90t-72 -69 q-4 -4 -20.5 -22.5l-33 -37t-22.5 -24.5q-8 -8 -34 -34.5t-36 -34.5q-57 -47 -94 -81t-72 -61.5t-88 -60.5q-4 -2 -8 -9.5t-12 -11.5l2 2q2 2 2 5q0 2 -15.5 -5.5t-19.5 -11.5h-2q-18 -8 -33.5 -17t-32.5 -16q-14 -6 -29.5 -10t-29.5 -4q-33 0 -55.5 19.5t-22.5 60.5z M848 1397q0 6 2 10q10 18 49 37q80 35 162 78t152.5 84t115.5 65q10 6 27 6q16 0 18 -6q23 -39 66 -104.5t88 -126.5q8 -10 8 -23q0 -14 -14 -24q-10 -8 -15.5 -10.5t-9.5 -2.5q-8 0 -12 2t-10 4l-176 164q-20 -10 -64.5 -29.5t-99 -42t-105.5 -43t-85 -33.5t-36 -16 q-24 -6 -36 -6q-23 0 -25 17z" />
<glyph unicode="&#xdc;" horiz-adv-x="1267" d="M94 -4q0 20 6 45q16 59 45 148.5t71 188.5t95 187q23 37 57.5 91.5t70.5 110.5t67 102t45 69q23 31 26 48.5t9 35.5q10 33 33.5 44t44.5 19q43 16 83.5 34t71.5 22q31 -4 43 -18.5t14.5 -21.5t2.5 9v2q2 -8 2 -20q0 -20 -13.5 -40t-44 -51.5t-86.5 -93.5 q-14 -14 -32.5 -21t-32.5 -24q-57 -61 -120 -142t-113 -152.5t-74 -106.5h2q-45 -70 -71 -142.5t-44 -132.5q-6 -20 -9 -54t-3 -54.5t0 -5.5q0 -8 22.5 -8.5t30.5 -2.5q0 -2 14.5 6.5t26.5 16.5t2 8h-2q61 23 136 81t140 110q8 8 23.5 26.5t32 38t22.5 27.5q12 10 19.5 23.5 t19.5 21.5v-2q37 31 99.5 93t135 137t139 147.5t111.5 126.5q96 115 137.5 188.5t61.5 91.5q37 35 80 35q29 0 51.5 -17.5t30.5 -52.5q10 -37 -16.5 -54t-40.5 -36q-16 -23 -95.5 -105.5t-169.5 -215.5q-20 -31 -43.5 -77t-45 -94t-39 -86t-23.5 -53q-8 -18 -23.5 -40.5 t-22.5 -34t5 1.5l2 2q0 -4 -11.5 -37t-24.5 -76t-24.5 -77.5t-13.5 -43.5q-8 -37 -11 -92t-3 -101t-4 -57q-14 -63 -43 -63q-18 0 -31 29l2 -2q-8 12 -10 45.5t0 72.5q8 94 16 202t45 183q55 115 74.5 187.5t50.5 126.5q-31 -27 -74 -71t-89 -92t-88 -90t-72 -69 q-4 -4 -20.5 -22.5l-33 -37t-22.5 -24.5q-8 -8 -34 -34.5t-36 -34.5q-57 -47 -94 -81t-72 -61.5t-88 -60.5q-4 -2 -8 -9.5t-12 -11.5l2 2q2 2 2 5q0 2 -15.5 -5.5t-19.5 -11.5h-2q-18 -8 -33.5 -17t-32.5 -16q-14 -6 -29.5 -10t-29.5 -4q-33 0 -55.5 19.5t-22.5 60.5z M965 1464q0 14 4 28.5t16 22.5q33 18 55.5 32t43.5 24q45 23 71 22q12 0 20.5 -13t8.5 -5v2q0 4 1 -1t1 -15q0 -8 -2 -21.5t-6 -24.5q-6 -16 -17.5 -36.5t-13.5 -44.5q-4 -27 -32.5 -28t-45.5 -11q-14 -6 -38.5 -6h-34.5h-2q-14 0 -18.5 12t-6.5 26q-4 16 -4 37zM1327 1464 q0 14 4.5 28.5t16.5 22.5q33 18 55.5 32t42.5 24q45 23 72 22q12 0 20.5 -13t8.5 -5v2q0 4 1 -1t1 -15q0 -8 -2 -21.5t-7 -24.5q-6 -16 -17 -36.5t-13 -44.5q-4 -27 -33 -28t-45 -11q-14 -6 -39 -6h-35h-2q-14 0 -18 12t-6 26q-4 16 -5 37z" />
<glyph unicode="&#xdd;" horiz-adv-x="888" d="M-78 -518q0 25 8.5 57.5t30.5 71.5q27 137 58.5 210t58.5 122q35 59 72.5 117.5t76.5 113.5q29 39 56.5 83t35.5 58q14 23 35 52.5t40.5 55.5t27.5 32l4 6q4 6 4 8q0 23 -3 40t-3 26q-8 84 -18.5 135t-22.5 88t-22.5 78t-18.5 104q0 25 -10 57.5t-21.5 59t-17.5 30.5 l-2 5q0 4 -13.5 21t-37.5 7q-6 -2 -17 -2q-23 0 -22 21q0 16 11 37.5t17 29.5q10 16 30 33.5t34 32.5q16 16 28.5 21t22.5 5t21.5 -2t19.5 -2h2q37 0 50.5 -34.5t23.5 -102.5q8 -47 19.5 -91t11.5 -110q0 -31 10 -79t16 -113q0 -14 6 -59.5t15 -67.5v-55q16 6 24 6 q43 47 85 89t40 44l2 4q35 39 96.5 99.5t136 123t146.5 105.5h2q2 0 24.5 21.5t46 45t27.5 25.5l5 2q4 0 20 17.5t37.5 39t34.5 29.5v2q27 16 35 19t21 13.5t48 45.5l2 2q4 -2 15.5 9t9.5 13l2 4q10 6 15 5.5t7 1.5q23 29 48.5 40t50.5 11q27 0 49 -10.5t37 -20.5 q4 -2 5 -13.5t-18.5 -33t-76.5 -59.5q-23 -14 -40.5 -32t-51 -42.5t-105.5 -67.5h-2q-16 -8 -38 -38.5t-44 -47.5q-23 -12 -58.5 -33.5t-58.5 -35.5l-104 -76q-61 -45 -127 -103.5t-125.5 -118t-105.5 -107.5t-68 -71q-8 -8 -15.5 -13t-19.5 -15q0 -8 2 -17l2 -8v2 q12 -20 16.5 -32.5t4.5 -22.5q0 -14 -7 -39v2q-2 -12 -18 -12q-14 0 -36.5 11t-37.5 17l-2 3h-2q-25 -33 -51.5 -69t-48.5 -58l-2 -2q0 2 -20.5 -27t-47 -69t-49.5 -74h-2q-8 -10 -43 -55.5t-94 -166.5q-45 -94 -51.5 -153.5t-10.5 -69.5q6 6 32 23.5t58.5 38t61.5 33 t41 8.5q18 -8 18 -23q0 -14 -21.5 -27.5t-33.5 -17.5l-21 -16l-40 -30l-19 -16l-10 -18q-10 -18 -25 -27q-8 -8 -25.5 -33.5t-40 -54t-48.5 -45.5h-2q-10 0 -30 5.5t-24 17.5v-4l-2 17q-2 18 -2 30zM801 1503q0 8 5 16.5t24 18.5q61 35 114.5 78t95.5 83t64 60 q16 14 28.5 24.5t20.5 10.5q14 0 24.5 -19.5t10.5 -52.5q0 -20 -5 -37.5t-20 -27.5l-28 -17q-29 -18 -71 -43.5l-84 -51t-70.5 -43t-30.5 -19.5q-8 -4 -18.5 -5t-18.5 -1q-20 0 -30.5 9t-10.5 17z" />
<glyph unicode="&#xde;" horiz-adv-x="1185" d="M59 -121q0 33 16.5 98.5t63.5 184.5q31 51 54.5 105.5t46.5 97.5l24 43q25 43 59.5 104t70.5 123.5t60 103.5l23 41q4 12 20.5 37t16.5 27q20 39 26.5 57.5t13.5 36.5t34 55q2 4 10 17.5t16 29.5q-59 -2 -123.5 -5t-82.5 -7q-47 -8 -114 -34.5t-101 -53.5 q-12 -10 -31 -10q-33 0 -33 31q0 14 12.5 30.5t44.5 28.5q86 45 174.5 64.5t167 25.5t131.5 6q27 47 75 122t93 136q14 25 36 59.5t44.5 67.5t38 53.5t17.5 16.5q25 18 49 18q41 0 51 -47q-6 -20 -28.5 -88t-88.5 -145q-31 -37 -61.5 -94.5t-61.5 -94.5q35 0 66 1t53 1 q4 0 13.5 1t19.5 1q80 -4 156.5 -18t135 -41t81.5 -72q14 -27 24 -57.5t10 -67.5q0 -33 -12 -73.5t-43 -87.5h-2q-14 -25 -37.5 -50.5t-58.5 -54.5q-4 -4 -8 -15.5t-17 -19.5q-10 -8 -23.5 -9t-21.5 -9q-41 -25 -61.5 -49.5t-48 -49t-93.5 -49.5q-31 -16 -79 -34.5 t-97 -30.5t-88 -12q-14 0 -54 -10.5t-95.5 -20.5t-118.5 -10q-6 0 -25.5 -6.5t-31.5 -6.5h-58q-27 -45 -46 -77.5t-21 -40.5q-14 -39 -24.5 -52.5t-14.5 -40.5q0 -2 -1 -3t-1 -5q0 -14 10 -33.5t16 -17.5q4 0 6.5 -3t-0.5 -7l-36 -129l-2 -2l-26.5 -26.5l-25.5 -25.5 q-16 -10 -27.5 -10h-13.5l-2 2q-6 6 -8 12.5t-8 10.5q-6 8 -15.5 16t-9.5 41zM346 334h4q102 0 186.5 20.5t125.5 28.5q68 14 140 49t140 79t120 87t79 74q10 10 22.5 18t18.5 17q8 10 8 26l2 4q23 47 29 79t6 67q0 47 -34 79.5t-63 47.5h3q-33 16 -63 18t-40 4 q-63 10 -129.5 13.5t-132.5 1.5l-8 -13q-12 -18 -33.5 -54t-44.5 -77t-41 -73.5t-29 -47.5q-8 -12 -34.5 -49t-57.5 -86t-55 -100q-18 -39 -51 -96.5t-68 -116.5z" />
<glyph unicode="&#xdf;" horiz-adv-x="1097" d="M-383 -195q0 10 4 23v2q8 14 27 14q35 0 41 -28q6 -31 40.5 -63t61.5 -29q45 -4 94 21.5t101 94.5q68 96 104.5 166t75.5 117q2 10 22.5 45t62.5 123t103 252l45 90q-14 0 -48 -3t-95 -14q-8 -2 -14 -2h-15q-18 0 -34.5 5.5t-24.5 13.5q-6 10 16.5 46t57.5 48 q16 6 74.5 7t132.5 3q31 66 73.5 163t98.5 179q59 90 123.5 135.5t123.5 55.5q35 4 87.5 -4.5t105.5 -46.5q53 -39 69 -105q4 -14 6.5 -32.5t2.5 -37.5v-23t-2 -24q-2 -10 -4.5 -21t-6.5 -24q-2 -8 -3 -17t-5 -20q-4 -16 -10 -28.5t-12 -28.5q-2 -8 -5.5 -23.5t-7.5 -23.5 q-10 -27 -25.5 -44t-27.5 -34q-27 -45 -78 -69.5t-92 -53.5v2q-18 -14 -38.5 -35.5t-39.5 -44.5q-12 -12 -27.5 -24t-19.5 -23q-8 -16 -8 -28t10 -21q33 -14 90.5 -31.5t118.5 -58.5q12 -8 25.5 -25.5t13.5 -44.5q0 -20 -8 -38q-6 -10 -18.5 -23.5t-16.5 -24.5l-2 -2 q-37 -37 -94.5 -95t-161.5 -122q-80 -49 -149.5 -68.5t-108.5 -19.5q-33 0 -55.5 4t-20.5 19q-4 0 -12 8l-2 4q0 16 10 27l2 2q4 2 12 2q14 0 30 -4t24 -2q88 27 160.5 67.5t123.5 85.5q20 16 38 35t32 35q4 6 13.5 9t11.5 5l2 2q0 4 -1 7.5t3 11.5q41 57 41 88q0 18 -11 22 q-23 20 -62.5 32.5t-78.5 22t-59 17.5q-37 16 -37 55t31.5 89.5t89.5 101.5q78 68 142.5 97.5t104.5 33.5q31 33 49.5 72.5t30.5 78.5q4 16 6.5 25.5t4.5 26.5l2 49q-2 43 -22.5 80.5t-70.5 62.5q-20 10 -43 10q-90 0 -176 -114q-45 -63 -74.5 -108.5t-53 -87.5t-50.5 -97 q-8 -14 -24.5 -52t-35 -80t-31.5 -76t-17 -42q-27 -72 -103 -240t-221 -467q-57 -88 -123 -135t-125 -57q-33 -2 -79 11t-68 28q-47 35 -82 77t-35 80z" />
<glyph unicode="&#xe0;" horiz-adv-x="860" d="M-35 35q0 8 1 16t3 17q16 68 55 159.5t104 196t161 205.5q72 74 153.5 105.5t173.5 31.5h2q70 0 92.5 -36t22.5 -73q0 -43 -12 -67l-2 -2q-8 -8 -21 -8q-10 0 -19 8t-9 22q0 20 -7.5 34.5t-17.5 25.5q-2 4 -10 5t-19 1h-2q-6 0 -12 3t-12 3q-78 0 -193 -109 q-117 -115 -174 -198.5t-78.5 -144t-31.5 -107.5q-2 -16 10 -17q23 0 56.5 20.5t70.5 49.5t71.5 58.5t55.5 48.5q10 10 19.5 14t15.5 10q10 8 15 16.5t13 14.5q74 63 119 101t70.5 60.5t44.5 39.5q27 27 59 26q47 0 60 -51q8 -29 -14.5 -40t-33.5 -25q-16 -20 -34.5 -60.5 t-48.5 -95.5q-18 -35 -32 -77t-9 -62l34 22q27 12 57.5 21.5t51.5 23.5q14 8 24 8q16 0 17 -14q0 -16 -25 -33q-59 -43 -94 -60.5t-74 -55.5q-8 -8 -33.5 -38t-35.5 -36q-8 -4 -17.5 -5t-17.5 -1q-29 0 -35 6q-4 4 -11 7t-11 13q-4 16 -5 29q0 37 19.5 87t52.5 112 q27 51 39 79.5t18.5 48t14.5 38.5q-29 -27 -59.5 -55.5t-71.5 -63.5q-6 -4 -16.5 -11.5t-14.5 -9.5l-55 -51q-57 -45 -102.5 -84t-92.5 -73.5t-112 -71.5q-25 -11 -43 -11q-25 0 -41.5 14.5t-16.5 45.5zM399 1147q0 33 13.5 57.5t33.5 7.5q33 -20 78 -65t104.5 -96.5 t128.5 -87.5q25 -14 27 -26.5t-2 -18.5q-10 -17 -37 -17q-14 0 -37 6q-2 2 -30.5 19.5t-70.5 43t-84 51.5t-70 43l-29 17q-14 10 -19.5 27.5t-5.5 38.5z" />
</font>
</defs>
</svg>
